<svg id="svg1342" xmlns="http://www.w3.org/2000/svg" viewBox="0 0 224.94 200.3">
  <defs>
    <style>
      .cls-1, .cls-5 {
        fill: #008bfd;
      }

      .cls-1, .cls-10, .cls-2, .cls-6 {
        fill-rule: evenodd;
      }

      .cls-2, .cls-3 {
        fill: #0078d7;
      }

      .cls-4 {
        isolation: isolate;
      }

      .cls-6 {
        fill: gray;
      }

      .cls-7, .cls-9 {
        fill: none;
      }

      .cls-8 {
        fill: #00b0f0;
      }

      .cls-9 {
        stroke: #505050;
        stroke-miterlimit: 10;
      }

      .cls-10, .cls-11 {
        fill: #505050;
      }
    </style>
  </defs>
  <title>OJ104440668</title>
  <g id="shape1029-46">
    <path id="path1130" class="cls-1" d="M211.09,79h-20.5a1.09,1.09,0,0,0-1.09,1.1V96.88a1.09,1.09,0,0,0,1.09,1.1h5.28a3.29,3.29,0,0,0,3.21,2.27,3.38,3.38,0,0,0,0-6.75,3.29,3.29,0,0,0-3.21,2.27h-4.19v-12H210v12h-3.45a7.61,7.61,0,0,0-7.46-6.56,8.25,8.25,0,0,0-3.64.92l1,2a5.27,5.27,0,0,1,2.55-.67,5.46,5.46,0,0,1,0,10.91,5.27,5.27,0,0,1-2.55-.67l-1,2a7.51,7.51,0,0,0,3.64.92A7.61,7.61,0,0,0,206.54,98h4.55a1.09,1.09,0,0,0,1.09-1.1V80.13A1.14,1.14,0,0,0,211.09,79Z"/>
  </g>
  <g id="group1030-50">
    <g id="shape1031-51">
      <path id="path1143" class="cls-2" d="M73.65,106H59.44V77.6H73.65v7.67h.76V76.83H58.68v29.91H74.41v-2.32h-.76Z"/>
    </g>
    <g id="shape1032-53">
      <path id="path1148" class="cls-2" d="M72.88,78.39H60.24V83H72.88ZM63.3,80.31h6.53v.76H63.3Zm6.59,1.84H63.27v-.76h6.62Z"/>
    </g>
    <g id="shape1033-55">
      <path id="path1153" class="cls-2" d="M60.21,83.74V86.8h8.6V85.27h4.08V83.74Z"/>
    </g>
    <g id="shape1034-57">
      <rect id="rect1158" class="cls-3" x="60.21" y="87.57" width="8.6" height="2.68"/>
    </g>
    <g id="shape1035-59">
      <path id="path1163" class="cls-2" d="M60.21,105.21H72.86v-.8H68.78V91h-8.6v14.17Zm1.53-2.74H64v1.21H61.74Z"/>
    </g>
    <g id="shape1036-61">
      <path id="path1168" class="cls-2" d="M83.43,102.15H81v-1.87H78.46v1.87H76a1.32,1.32,0,0,0-1.31,1.15h10A1.29,1.29,0,0,0,83.43,102.15Z"/>
    </g>
    <g id="shape1037-63">
      <path id="path1173" class="cls-2" d="M88.27,88.17H71.17a.65.65,0,0,0-.67.61V98.91a.65.65,0,0,0,.67.6h17.1a.64.64,0,0,0,.67-.6V88.78A.63.63,0,0,0,88.27,88.17Zm-1,9.84H72.19V89.7H87.25Z"/>
    </g>
    <g id="shape1038-65">
      <path id="path1178" class="cls-2" d="M83.63,95.52V92.08l-3.51-1.84L76.62,92v3.54l3.5,1.81Zm-4.4-2.29.89-.45.86.45-.86.48Zm0-1.15.86-.44.86.44-.86.48Zm1.91,4.53-1,.51v-.93l1-.51Zm0-1.18-1,.51V95l1-.51Zm0-1.12-1,.51V93.9l1-.51Zm-.82-1.65.86-.45.89.45-.86.44Zm2,3.34-.95.51v-.92l.95-.51Zm0-1.18-.95.51v-.92l.95-.51Zm0-1.14-.95.51v-.9l.95-.51Zm1.05,1.75-.86.44V95l.86-.45Zm0-1.15-.86.45V93.8l.86-.44Zm0-1.14-.86.44v-.92l.86-.45Zm-.19-1.06-.89.45-.89-.45.86-.44Zm-1.11-.57-.89.45-.86-.45.86-.44Zm-2-1.05.86.45-.86.44-.89-.44ZM79,91.07l.86.44L79,92l-.86-.45Zm-1.08.57.89.44-.89.45-.9-.45Zm-.26,4.27-.86-.45v-.92l.86.44Zm0-1.18-.86-.45v-.92l.86.44Zm0-1.15-.86-.44v-.9l.86.45Zm1.18,2.93-1-.51v-.92l1,.51Zm0-1.18-1-.51V93.9l1,.51Zm0-1.14-1-.51v-.9l1,.51Zm-.7-1.53.89-.45.86.45-.89.48ZM80,97.12l-1-.51v-.89l1,.5ZM80,96l-1-.51v-.92l1,.51Zm0-1.15-1-.51v-.92l1,.51Z"/>
    </g>
  </g>
  <path id="path1241" class="cls-1" d="M84.06,151.79H63.56a1.09,1.09,0,0,0-1.09,1.1v16.75a1.09,1.09,0,0,0,1.09,1.1h5.28A3.29,3.29,0,0,0,72.05,173a3.38,3.38,0,0,0,0-6.75,3.29,3.29,0,0,0-3.21,2.27H64.65v-12H83v12H79.51A7.61,7.61,0,0,0,72.05,162a8.25,8.25,0,0,0-3.64.92l1,2a5.27,5.27,0,0,1,2.55-.67,5.46,5.46,0,0,1,0,10.91,5.27,5.27,0,0,1-2.55-.67l-1,2a7.51,7.51,0,0,0,3.64.92,7.61,7.61,0,0,0,7.46-6.56h4.55a1.09,1.09,0,0,0,1.09-1.1V152.89A1.14,1.14,0,0,0,84.06,151.79Z"/>
  <g id="text1243" class="cls-4">
    <path class="cls-5" d="M62,186.3h-.91l-.74-2h-3l-.7,2h-.91l2.69-7h.85Zm-1.92-2.7-1.1-3a2.74,2.74,0,0,1-.1-.47h0a2.42,2.42,0,0,1-.12.47l-1.08,3Z"/>
    <path class="cls-5" d="M63.87,183.65v2.65h-.82v-7H65a2.59,2.59,0,0,1,1.74.55,2,2,0,0,1,.61,1.54,2.13,2.13,0,0,1-.68,1.64,2.65,2.65,0,0,1-1.86.63Zm0-3.61v2.87h.86a1.92,1.92,0,0,0,1.3-.39,1.36,1.36,0,0,0,.44-1.1c0-.92-.54-1.38-1.64-1.38Z"/>
    <path class="cls-5" d="M69.47,186.3h-.82v-7h.82Z"/>
    <path class="cls-5" d="M80.24,181.3l-1.49,5h-.83l-1-3.58a2.93,2.93,0,0,1-.07-.47h0a2.27,2.27,0,0,1-.11.46l-1.11,3.59h-.8l-1.52-5h.84l1,3.76a3.07,3.07,0,0,1,.07.45h0a2,2,0,0,1,.09-.46l1.15-3.75h.74l1,3.77a3.4,3.4,0,0,1,.08.45h0a2.23,2.23,0,0,1,.09-.45l1-3.77Z"/>
    <path class="cls-5" d="M85.19,184H81.66a1.87,1.87,0,0,0,.45,1.29,1.56,1.56,0,0,0,1.18.45,2.46,2.46,0,0,0,1.55-.56v.76a3,3,0,0,1-1.74.47,2.07,2.07,0,0,1-1.66-.68,3.19,3.19,0,0,1,0-3.82,2.12,2.12,0,0,1,1.64-.73,1.87,1.87,0,0,1,1.52.63,2.67,2.67,0,0,1,.54,1.77Zm-.82-.68a1.62,1.62,0,0,0-.33-1.08,1.14,1.14,0,0,0-.92-.39,1.28,1.28,0,0,0-1,.41,1.78,1.78,0,0,0-.49,1.06Z"/>
    <path class="cls-5" d="M87.22,185.57h0v.73h-.8v-7.41h.8v3.29h0a1.89,1.89,0,0,1,1.73-1,1.84,1.84,0,0,1,1.51.67,2.8,2.8,0,0,1,.54,1.8,3.07,3.07,0,0,1-.61,2,2,2,0,0,1-1.67.75A1.65,1.65,0,0,1,87.22,185.57Zm0-2v.7a1.53,1.53,0,0,0,.4,1.05,1.34,1.34,0,0,0,1,.43,1.36,1.36,0,0,0,1.14-.56,2.56,2.56,0,0,0,.41-1.54,2,2,0,0,0-.39-1.31,1.25,1.25,0,0,0-1-.48,1.42,1.42,0,0,0-1.12.49A1.75,1.75,0,0,0,87.2,183.56Z"/>
    <path class="cls-5" d="M52,198.3h-.8v-.85h0a2,2,0,0,1-3.22.29,2.73,2.73,0,0,1-.57-1.83,3,3,0,0,1,.63-2,2,2,0,0,1,1.66-.75,1.6,1.6,0,0,1,1.5.81h0v-3.1H52Zm-.8-2.26v-.74a1.43,1.43,0,0,0-.4-1,1.36,1.36,0,0,0-1-.42,1.39,1.39,0,0,0-1.15.54,2.36,2.36,0,0,0-.42,1.49,2.16,2.16,0,0,0,.4,1.36,1.33,1.33,0,0,0,1.09.5,1.37,1.37,0,0,0,1.08-.48A1.81,1.81,0,0,0,51.16,196Z"/>
    <path class="cls-5" d="M57.6,196H54.07a1.87,1.87,0,0,0,.45,1.29,1.56,1.56,0,0,0,1.18.45,2.46,2.46,0,0,0,1.55-.56v.76a3,3,0,0,1-1.74.47,2.07,2.07,0,0,1-1.66-.68,3.19,3.19,0,0,1,0-3.82,2.12,2.12,0,0,1,1.64-.73,1.87,1.87,0,0,1,1.52.63,2.67,2.67,0,0,1,.54,1.77Zm-.82-.68a1.62,1.62,0,0,0-.33-1.08,1.14,1.14,0,0,0-.92-.39,1.28,1.28,0,0,0-1,.41,1.78,1.78,0,0,0-.49,1.06Z"/>
    <path class="cls-5" d="M65.82,198.3H65v-.85h0a2,2,0,0,1-3.23.29,2.78,2.78,0,0,1-.56-1.83,3,3,0,0,1,.62-2,2.08,2.08,0,0,1,1.67-.75A1.6,1.6,0,0,1,65,194h0v-3.1h.8ZM65,196v-.74a1.48,1.48,0,0,0-.4-1,1.36,1.36,0,0,0-1-.42,1.37,1.37,0,0,0-1.15.54,2.36,2.36,0,0,0-.42,1.49,2.1,2.1,0,0,0,.4,1.36,1.33,1.33,0,0,0,1.08.5,1.38,1.38,0,0,0,1.09-.48A1.81,1.81,0,0,0,65,196Z"/>
    <path class="cls-5" d="M71.46,196H67.93a1.87,1.87,0,0,0,.45,1.29,1.54,1.54,0,0,0,1.18.45,2.46,2.46,0,0,0,1.55-.56v.76a3,3,0,0,1-1.74.47,2.11,2.11,0,0,1-1.67-.68,2.79,2.79,0,0,1-.6-1.91,2.76,2.76,0,0,1,.66-1.91,2.12,2.12,0,0,1,1.64-.73,1.88,1.88,0,0,1,1.52.63,2.67,2.67,0,0,1,.54,1.77Zm-.82-.68a1.68,1.68,0,0,0-.34-1.08,1.12,1.12,0,0,0-.91-.39,1.28,1.28,0,0,0-1,.41,1.78,1.78,0,0,0-.49,1.06Z"/>
    <path class="cls-5" d="M79.77,198.3H79v-2.87a2.19,2.19,0,0,0-.26-1.21,1,1,0,0,0-.86-.37,1.08,1.08,0,0,0-.87.47,1.8,1.8,0,0,0-.36,1.13v2.85h-.8v-3c0-1-.38-1.48-1.14-1.48a1.07,1.07,0,0,0-.87.44,1.84,1.84,0,0,0-.34,1.16v2.85h-.8v-5h.8v.79h0a1.68,1.68,0,0,1,1.55-.91,1.48,1.48,0,0,1,.9.28,1.57,1.57,0,0,1,.52.75,1.77,1.77,0,0,1,1.66-1q1.65,0,1.65,2Z"/>
    <path class="cls-5" d="M83.37,198.41a2.31,2.31,0,0,1-1.77-.7,2.57,2.57,0,0,1-.66-1.85,2.7,2.7,0,0,1,.69-2,2.49,2.49,0,0,1,1.86-.71,2.22,2.22,0,0,1,1.74.69,2.72,2.72,0,0,1,.63,1.91,2.67,2.67,0,0,1-.67,1.91A2.39,2.39,0,0,1,83.37,198.41Zm.06-4.56a1.53,1.53,0,0,0-1.22.53,2.15,2.15,0,0,0-.45,1.45,2,2,0,0,0,.45,1.4,1.56,1.56,0,0,0,1.22.51,1.46,1.46,0,0,0,1.19-.5,2.2,2.2,0,0,0,.42-1.43,2.22,2.22,0,0,0-.42-1.45A1.43,1.43,0,0,0,83.43,193.85Z"/>
    <path class="cls-5" d="M91.29,198.3h-.8v-2.85c0-1.07-.39-1.6-1.16-1.6a1.29,1.29,0,0,0-1,.45,1.72,1.72,0,0,0-.39,1.15v2.85h-.8v-5h.8v.83h0a1.82,1.82,0,0,1,1.64-.95,1.55,1.55,0,0,1,1.26.53,2.34,2.34,0,0,1,.43,1.53Z"/>
    <path class="cls-5" d="M93.21,192a.53.53,0,0,1-.37-.15.53.53,0,0,1,0-.74.53.53,0,0,1,.37-.15.5.5,0,0,1,.37.15.47.47,0,0,1,.16.37.49.49,0,0,1-.16.37A.5.5,0,0,1,93.21,192Zm.39,6.27h-.8v-5h.8Z"/>
    <path class="cls-5" d="M97.31,198.41a2.31,2.31,0,0,1-1.77-.7,2.57,2.57,0,0,1-.66-1.85,2.7,2.7,0,0,1,.69-2,2.49,2.49,0,0,1,1.86-.71,2.22,2.22,0,0,1,1.74.69,2.72,2.72,0,0,1,.63,1.91,2.67,2.67,0,0,1-.67,1.91A2.38,2.38,0,0,1,97.31,198.41Zm.06-4.56a1.53,1.53,0,0,0-1.22.53,2.15,2.15,0,0,0-.45,1.45,2,2,0,0,0,.45,1.4,1.56,1.56,0,0,0,1.22.51,1.46,1.46,0,0,0,1.19-.5,2.2,2.2,0,0,0,.42-1.43,2.22,2.22,0,0,0-.42-1.45A1.43,1.43,0,0,0,97.37,193.85Z"/>
  </g>
  <g id="group1060-114">
    <g id="shape1061-115">
      <path id="path1292" class="cls-6" d="M17.37,169.49H10.65a.59.59,0,0,1-.61-.57v-6.44H12v-1.77H24.4a.59.59,0,0,1,.62.57v.09a6.4,6.4,0,0,1,1,.33v-.42a1.53,1.53,0,0,0-1.58-1.46h-13L9.08,162v6.9a1.51,1.51,0,0,0,1.57,1.46h7.28A5.8,5.8,0,0,1,17.37,169.49Z"/>
    </g>
    <g id="group1062-117">
      <g id="group1063-118">
        <g id="shape1064-119">
          <path id="path1301" class="cls-6" d="M26,171l2.34,3.26-2.17-.54-.61,1.64-2.34-2.88-1.75,2.88-.8-1.74-2.17.54,2.14-3.42s.58.92,2.69.92S26,171,26,171Z"/>
        </g>
      </g>
      <g id="group1065-121">
        <g id="shape1066-122">
          <path id="path1309" class="cls-6" d="M23.43,170.42a3.43,3.43,0,1,1,0-6.83,3.43,3.43,0,1,1,0,6.83Zm0-6.06a2.66,2.66,0,1,0,2.9,2.65A2.78,2.78,0,0,0,23.43,164.36Z"/>
        </g>
      </g>
      <g id="group1067-124">
        <g id="shape1068-125">
          <path id="path1317" class="cls-6" d="M23.43,172.23a5.24,5.24,0,1,1,0-10.45,5.24,5.24,0,1,1,0,10.45Zm0-9.69a4.48,4.48,0,1,0,0,8.93,4.48,4.48,0,1,0,0-8.93Z"/>
        </g>
      </g>
    </g>
  </g>
  <g id="shape1215-134">
    <rect id="rect1335" class="cls-7" x="104.46" y="61.11" width="114.21" height="20"/>
    <g id="text1337" class="cls-4">
      <path class="cls-8" d="M116.71,56.85H114v2.42h2.53V60H114v3.1h-.82v-7h3.56Z"/>
      <path class="cls-8" d="M118.73,63.11h-.8v-7.4h.8Z"/>
      <path class="cls-8" d="M124.39,63.11h-.8v-.79h0a1.63,1.63,0,0,1-1.54.91c-1.19,0-1.79-.71-1.79-2.13v-3h.8V61c0,1.06.4,1.59,1.21,1.59a1.21,1.21,0,0,0,1-.44,1.61,1.61,0,0,0,.38-1.13V58.11h.8Z"/>
      <path class="cls-8" d="M126.81,62.9a3.14,3.14,0,0,1-.5,1.9,1.67,1.67,0,0,1-1.41.67,1.61,1.61,0,0,1-.67-.16v-.75a1.3,1.3,0,0,0,.69.22c.72,0,1.09-.58,1.09-1.75V58.11h.8Zm-.39-6.06a.55.55,0,0,1-.37-.14.51.51,0,0,1-.15-.37.52.52,0,0,1,.15-.38.51.51,0,0,1,.37-.15.5.5,0,0,1,.37.15.53.53,0,0,1,.16.38.53.53,0,0,1-.53.51Z"/>
      <path class="cls-8" d="M130.52,63.23a2.31,2.31,0,0,1-1.77-.7,2.61,2.61,0,0,1-.66-1.86,2.7,2.7,0,0,1,.69-2,2.48,2.48,0,0,1,1.86-.7,2.23,2.23,0,0,1,1.74.68,2.73,2.73,0,0,1,.63,1.91,2.65,2.65,0,0,1-.68,1.92A2.36,2.36,0,0,1,130.52,63.23Zm.06-4.56a1.51,1.51,0,0,0-1.22.52,2.17,2.17,0,0,0-.45,1.45,2,2,0,0,0,.45,1.4,1.57,1.57,0,0,0,1.22.52,1.45,1.45,0,0,0,1.19-.51,2.16,2.16,0,0,0,.42-1.43,2.21,2.21,0,0,0-.42-1.44A1.45,1.45,0,0,0,130.58,58.67Z"/>
      <path class="cls-8" d="M141.3,63.11h-.8v-.85h0a1.85,1.85,0,0,1-1.72,1,1.87,1.87,0,0,1-1.51-.67,2.8,2.8,0,0,1-.56-1.83,3,3,0,0,1,.62-2A2.06,2.06,0,0,1,139,58a1.62,1.62,0,0,1,1.5.81h0v-3.1h.8Zm-.8-2.26v-.74a1.45,1.45,0,0,0-.4-1,1.36,1.36,0,0,0-1-.42,1.37,1.37,0,0,0-1.15.54,2.33,2.33,0,0,0-.42,1.48,2.08,2.08,0,0,0,.4,1.36,1.31,1.31,0,0,0,1.08.51,1.38,1.38,0,0,0,1.09-.49A1.79,1.79,0,0,0,140.5,60.85Z"/>
      <path class="cls-8" d="M146.94,60.81h-3.53a1.83,1.83,0,0,0,.45,1.29,1.55,1.55,0,0,0,1.18.46,2.46,2.46,0,0,0,1.55-.56v.75a2.89,2.89,0,0,1-1.74.48,2.13,2.13,0,0,1-1.67-.68,2.81,2.81,0,0,1-.6-1.92,2.73,2.73,0,0,1,.66-1.9,2.12,2.12,0,0,1,1.64-.73,1.88,1.88,0,0,1,1.52.63,2.63,2.63,0,0,1,.54,1.76Zm-.82-.68a1.68,1.68,0,0,0-.34-1.08,1.15,1.15,0,0,0-.91-.38,1.31,1.31,0,0,0-1,.4,1.86,1.86,0,0,0-.48,1.06Z"/>
      <path class="cls-8" d="M154.29,62.88a2.57,2.57,0,0,1-1.36.35,2.25,2.25,0,0,1-1.73-.7,2.5,2.5,0,0,1-.66-1.8,2.8,2.8,0,0,1,.71-2,2.5,2.5,0,0,1,1.89-.74,2.64,2.64,0,0,1,1.16.24v.82a2,2,0,0,0-1.19-.39,1.57,1.57,0,0,0-1.25.55,2.06,2.06,0,0,0-.49,1.44,2,2,0,0,0,.46,1.39,1.57,1.57,0,0,0,1.23.51,2,2,0,0,0,1.23-.44Z"/>
      <path class="cls-8" d="M158.11,58.92a1.07,1.07,0,0,0-1.46.33,2.21,2.21,0,0,0-.34,1.31v2.55h-.8v-5h.8v1h0a1.69,1.69,0,0,1,.52-.82,1.16,1.16,0,0,1,.78-.3,1.43,1.43,0,0,1,.48.07Z"/>
      <path class="cls-8" d="M163,60.81h-3.53a1.83,1.83,0,0,0,.45,1.29,1.57,1.57,0,0,0,1.18.46,2.46,2.46,0,0,0,1.55-.56v.75a2.89,2.89,0,0,1-1.74.48,2.1,2.1,0,0,1-1.66-.68,2.77,2.77,0,0,1-.61-1.92,2.73,2.73,0,0,1,.66-1.9A2.12,2.12,0,0,1,161,58a1.86,1.86,0,0,1,1.51.63,2.63,2.63,0,0,1,.54,1.76Zm-.82-.68a1.62,1.62,0,0,0-.33-1.08,1.17,1.17,0,0,0-.92-.38,1.28,1.28,0,0,0-1,.4,1.87,1.87,0,0,0-.49,1.06Z"/>
      <path class="cls-8" d="M168.48,63.11h-.8v-.85h0a1.85,1.85,0,0,1-1.72,1,1.87,1.87,0,0,1-1.51-.67,2.8,2.8,0,0,1-.56-1.83,3,3,0,0,1,.63-2,2,2,0,0,1,1.66-.74,1.6,1.6,0,0,1,1.5.81h0v-3.1h.8Zm-.8-2.26v-.74a1.45,1.45,0,0,0-.4-1,1.36,1.36,0,0,0-1-.42,1.37,1.37,0,0,0-1.15.54,2.33,2.33,0,0,0-.42,1.48,2.08,2.08,0,0,0,.4,1.36,1.31,1.31,0,0,0,1.08.51,1.38,1.38,0,0,0,1.09-.49A1.79,1.79,0,0,0,167.68,60.85Z"/>
      <path class="cls-8" d="M174.12,60.81h-3.53A1.83,1.83,0,0,0,171,62.1a1.55,1.55,0,0,0,1.18.46,2.46,2.46,0,0,0,1.55-.56v.75a2.89,2.89,0,0,1-1.74.48,2.14,2.14,0,0,1-1.67-.68,2.81,2.81,0,0,1-.6-1.92,2.73,2.73,0,0,1,.66-1.9,2.12,2.12,0,0,1,1.64-.73,1.88,1.88,0,0,1,1.52.63,2.63,2.63,0,0,1,.54,1.76Zm-.82-.68a1.68,1.68,0,0,0-.34-1.08,1.15,1.15,0,0,0-.91-.38,1.28,1.28,0,0,0-1,.4,1.81,1.81,0,0,0-.49,1.06Z"/>
      <path class="cls-8" d="M179.48,63.11h-.8V60.26c0-1.06-.39-1.59-1.16-1.59a1.29,1.29,0,0,0-1,.45,1.68,1.68,0,0,0-.39,1.14v2.85h-.8v-5h.8v.83h0a1.8,1.8,0,0,1,1.64-.94,1.54,1.54,0,0,1,1.26.52,2.45,2.45,0,0,1,.43,1.54Z"/>
      <path class="cls-8" d="M184.4,62.88a2.63,2.63,0,0,1-1.37.35,2.26,2.26,0,0,1-1.73-.7,2.53,2.53,0,0,1-.65-1.8,2.76,2.76,0,0,1,.71-2,2.5,2.5,0,0,1,1.89-.74,2.7,2.7,0,0,1,1.16.24v.82a2,2,0,0,0-1.19-.39,1.6,1.6,0,0,0-1.26.55,2.06,2.06,0,0,0-.49,1.44,2,2,0,0,0,.46,1.39,1.59,1.59,0,0,0,1.24.51,2,2,0,0,0,1.23-.44Z"/>
      <path class="cls-8" d="M186,56.84a.55.55,0,0,1-.37-.14.51.51,0,0,1-.15-.37.52.52,0,0,1,.15-.38.51.51,0,0,1,.37-.15.5.5,0,0,1,.37.15.53.53,0,0,1,.16.38.53.53,0,0,1-.53.51Zm.39,6.27h-.8v-5h.8Z"/>
      <path class="cls-8" d="M191.61,63.11h-.8v-.78h0a1.68,1.68,0,0,1-1.54.9,1.61,1.61,0,0,1-1.17-.4,1.36,1.36,0,0,1-.42-1c0-.93.55-1.47,1.65-1.63l1.5-.21c0-.85-.35-1.27-1-1.27a2.45,2.45,0,0,0-1.63.61v-.82a3.12,3.12,0,0,1,1.7-.46c1.17,0,1.76.62,1.76,1.86Zm-.8-2.53-1.21.17a2,2,0,0,0-.84.27.81.81,0,0,0-.28.71.76.76,0,0,0,.26.59,1,1,0,0,0,.7.24,1.29,1.29,0,0,0,1-.42,1.49,1.49,0,0,0,.39-1.06Z"/>
      <path class="cls-8" d="M193.92,63.11h-.8v-7.4h.8Z"/>
      <path class="cls-8" d="M199.56,60.81H196a1.83,1.83,0,0,0,.45,1.29,1.55,1.55,0,0,0,1.18.46,2.46,2.46,0,0,0,1.55-.56v.75a2.89,2.89,0,0,1-1.74.48,2.14,2.14,0,0,1-1.67-.68,2.81,2.81,0,0,1-.6-1.92,2.73,2.73,0,0,1,.66-1.9A2.12,2.12,0,0,1,197.5,58a1.88,1.88,0,0,1,1.52.63,2.63,2.63,0,0,1,.54,1.76Zm-.82-.68a1.68,1.68,0,0,0-.34-1.08,1.15,1.15,0,0,0-.91-.38,1.28,1.28,0,0,0-1,.4,1.81,1.81,0,0,0-.49,1.06Z"/>
      <path class="cls-8" d="M200.47,62.93v-.86a2.36,2.36,0,0,0,1.44.49c.7,0,1.05-.24,1.05-.71a.64.64,0,0,0-.09-.34.91.91,0,0,0-.24-.24,3.07,3.07,0,0,0-.36-.2l-.45-.17a5.37,5.37,0,0,1-.58-.27,1.74,1.74,0,0,1-.42-.3,1.11,1.11,0,0,1-.26-.39,1.28,1.28,0,0,1-.08-.5,1.17,1.17,0,0,1,.16-.62,1.57,1.57,0,0,1,.43-.46,2,2,0,0,1,.61-.27,2.82,2.82,0,0,1,.71-.09,2.86,2.86,0,0,1,1.16.22V59a2.27,2.27,0,0,0-1.27-.36,1.62,1.62,0,0,0-.4,0,.89.89,0,0,0-.31.14.72.72,0,0,0-.2.23.53.53,0,0,0-.07.28.67.67,0,0,0,.07.33.58.58,0,0,0,.21.23,1.69,1.69,0,0,0,.33.19l.44.18a5.68,5.68,0,0,1,.6.26,2.52,2.52,0,0,1,.45.3,1.28,1.28,0,0,1,.28.39,1.21,1.21,0,0,1,.1.52,1.23,1.23,0,0,1-.16.65,1.45,1.45,0,0,1-.44.45,2,2,0,0,1-.63.27,3.08,3.08,0,0,1-.75.09A2.78,2.78,0,0,1,200.47,62.93Z"/>
      <path class="cls-8" d="M117.31,75.11h-.8v-.85h0a2,2,0,0,1-3.22.3,2.75,2.75,0,0,1-.57-1.83,3,3,0,0,1,.63-2A2,2,0,0,1,115,70a1.6,1.6,0,0,1,1.5.81h0v-3.1h.8Zm-.8-2.26v-.74a1.41,1.41,0,0,0-.4-1,1.34,1.34,0,0,0-1-.42,1.39,1.39,0,0,0-1.16.54,2.33,2.33,0,0,0-.42,1.48,2.08,2.08,0,0,0,.41,1.36,1.28,1.28,0,0,0,1.08.51,1.36,1.36,0,0,0,1.08-.49A1.79,1.79,0,0,0,116.51,72.85Z"/>
      <path class="cls-8" d="M123,72.81h-3.53a1.83,1.83,0,0,0,.45,1.29,1.57,1.57,0,0,0,1.18.46,2.49,2.49,0,0,0,1.56-.56v.75a2.92,2.92,0,0,1-1.75.48,2.12,2.12,0,0,1-1.66-.68,2.77,2.77,0,0,1-.61-1.92,2.73,2.73,0,0,1,.66-1.9A2.12,2.12,0,0,1,120.9,70a1.9,1.9,0,0,1,1.52.63,2.68,2.68,0,0,1,.53,1.76Zm-.82-.68a1.62,1.62,0,0,0-.33-1.08,1.17,1.17,0,0,0-.92-.38,1.28,1.28,0,0,0-1,.4,1.87,1.87,0,0,0-.49,1.06Z"/>
      <path class="cls-8" d="M130.31,74.88a2.61,2.61,0,0,1-1.37.35,2.24,2.24,0,0,1-1.72-.7,2.5,2.5,0,0,1-.66-1.8,2.8,2.8,0,0,1,.71-2,2.5,2.5,0,0,1,1.89-.74,2.67,2.67,0,0,1,1.16.24v.82a2,2,0,0,0-1.19-.39,1.61,1.61,0,0,0-1.26.55,2.06,2.06,0,0,0-.49,1.44,2,2,0,0,0,.46,1.39,1.59,1.59,0,0,0,1.24.51,2,2,0,0,0,1.23-.44Z"/>
      <path class="cls-8" d="M132.32,75.11h-.8v-7.4h.8Z"/>
      <path class="cls-8" d="M134.35,68.84a.52.52,0,0,1-.36-.14.51.51,0,0,1-.15-.37A.52.52,0,0,1,134,68a.49.49,0,0,1,.36-.15.54.54,0,0,1,.38.15.52.52,0,0,1,.15.38.49.49,0,0,1-.15.36A.54.54,0,0,1,134.35,68.84Zm.39,6.27h-.8v-5h.8Z"/>
      <path class="cls-8" d="M140.38,72.81h-3.53a1.93,1.93,0,0,0,.45,1.29,1.57,1.57,0,0,0,1.18.46A2.49,2.49,0,0,0,140,74v.75a2.9,2.9,0,0,1-1.75.48,2.12,2.12,0,0,1-1.66-.68,2.77,2.77,0,0,1-.61-1.92,2.73,2.73,0,0,1,.66-1.9,2.14,2.14,0,0,1,1.65-.73,1.9,1.9,0,0,1,1.52.63,2.68,2.68,0,0,1,.53,1.76Zm-.82-.68a1.62,1.62,0,0,0-.33-1.08,1.17,1.17,0,0,0-.92-.38,1.31,1.31,0,0,0-1,.4,1.87,1.87,0,0,0-.49,1.06Z"/>
      <path class="cls-8" d="M145.75,75.11h-.81V72.26c0-1.06-.38-1.59-1.16-1.59a1.25,1.25,0,0,0-1,.45,1.68,1.68,0,0,0-.39,1.14v2.85h-.81v-5h.81v.83h0a1.79,1.79,0,0,1,1.64-.94,1.53,1.53,0,0,1,1.25.52,2.39,2.39,0,0,1,.44,1.54Z"/>
      <path class="cls-8" d="M149.57,75.06a1.48,1.48,0,0,1-.74.16q-1.32,0-1.32-1.47v-3h-.86v-.69h.86V68.89l.8-.26v1.48h1.26v.69h-1.26v2.81a1.19,1.19,0,0,0,.17.72.72.72,0,0,0,.57.22.83.83,0,0,0,.52-.17Z"/>
      <path class="cls-8" d="M154.66,72.81h-3.53a1.83,1.83,0,0,0,.45,1.29,1.57,1.57,0,0,0,1.18.46,2.46,2.46,0,0,0,1.55-.56v.75a2.87,2.87,0,0,1-1.74.48,2.1,2.1,0,0,1-1.66-.68,2.77,2.77,0,0,1-.61-1.92,2.73,2.73,0,0,1,.66-1.9,2.12,2.12,0,0,1,1.65-.73,1.86,1.86,0,0,1,1.51.63,2.63,2.63,0,0,1,.54,1.76Zm-.82-.68a1.62,1.62,0,0,0-.33-1.08,1.17,1.17,0,0,0-.92-.38,1.28,1.28,0,0,0-1,.4,1.87,1.87,0,0,0-.49,1.06Z"/>
    </g>
  </g>
  <g>
    <path class="cls-5" d="M56.27,42.31h-.91l-.74-2h-3l-.7,2H50l2.68-7h.85Zm-1.92-2.7-1.1-3a2.59,2.59,0,0,1-.11-.46h0a2.6,2.6,0,0,1-.11.46l-1.09,3Z"/>
    <path class="cls-5" d="M58.18,41.59h0v3h-.8v-7.3h.8v.88h0a1.88,1.88,0,0,1,1.73-1,1.83,1.83,0,0,1,1.51.67,2.8,2.8,0,0,1,.54,1.8,3.07,3.07,0,0,1-.61,2,2,2,0,0,1-1.67.76A1.67,1.67,0,0,1,58.18,41.59Zm0-2v.7a1.48,1.48,0,0,0,.4,1,1.44,1.44,0,0,0,2.17-.13,2.56,2.56,0,0,0,.41-1.54,2,2,0,0,0-.39-1.31,1.25,1.25,0,0,0-1-.48,1.42,1.42,0,0,0-1.12.49A1.75,1.75,0,0,0,58.16,39.57Z"/>
    <path class="cls-5" d="M64.21,42.31h-.8v-7.4h.8Z"/>
    <path class="cls-5" d="M66.41,36a.53.53,0,0,1-.37-.15.53.53,0,0,1,0-.74.53.53,0,0,1,.37-.15.5.5,0,0,1,.37.15.47.47,0,0,1,.16.37.49.49,0,0,1-.16.37A.5.5,0,0,1,66.41,36Zm.39,6.27H66v-5h.8Z"/>
    <path class="cls-5" d="M72,42.08a2.61,2.61,0,0,1-1.37.35,2.27,2.27,0,0,1-1.72-.7,2.51,2.51,0,0,1-.66-1.8,2.78,2.78,0,0,1,.71-2,2.47,2.47,0,0,1,1.89-.75,2.51,2.51,0,0,1,1.16.25v.82a2.05,2.05,0,0,0-1.19-.4,1.64,1.64,0,0,0-1.26.55,2.14,2.14,0,0,0-.49,1.45,2,2,0,0,0,.46,1.38,1.59,1.59,0,0,0,1.24.51A2,2,0,0,0,72,41.32Z"/>
    <path class="cls-5" d="M77,42.31h-.8v-.78h0a1.68,1.68,0,0,1-1.54.9,1.66,1.66,0,0,1-1.17-.4A1.36,1.36,0,0,1,73,41c0-.93.55-1.48,1.65-1.63l1.5-.21c0-.85-.34-1.28-1-1.28a2.46,2.46,0,0,0-1.63.62v-.82a3.12,3.12,0,0,1,1.7-.47c1.17,0,1.76.62,1.76,1.87Zm-.8-2.53L75,39.94a2.11,2.11,0,0,0-.84.28.82.82,0,0,0-.28.7.78.78,0,0,0,.26.6,1.05,1.05,0,0,0,.7.23,1.27,1.27,0,0,0,1-.42,1.47,1.47,0,0,0,.39-1Z"/>
    <path class="cls-5" d="M82.05,42.08a2.63,2.63,0,0,1-1.37.35,2.3,2.3,0,0,1-1.73-.7,2.55,2.55,0,0,1-.65-1.8,2.74,2.74,0,0,1,.71-2,2.47,2.47,0,0,1,1.89-.75,2.57,2.57,0,0,1,1.16.25v.82a2.05,2.05,0,0,0-1.19-.4,1.64,1.64,0,0,0-1.26.55,2.09,2.09,0,0,0-.49,1.45,2,2,0,0,0,.46,1.38,1.59,1.59,0,0,0,1.24.51,2,2,0,0,0,1.23-.43Z"/>
    <path class="cls-5" d="M83.84,36a.51.51,0,0,1-.37-.15.53.53,0,0,1,0-.74.51.51,0,0,1,.37-.15.5.5,0,0,1,.37.15.47.47,0,0,1,.16.37.49.49,0,0,1-.16.37A.5.5,0,0,1,83.84,36Zm.39,6.27h-.8v-5h.8Z"/>
    <path class="cls-5" d="M88.11,42.43a2.31,2.31,0,0,1-1.77-.71,2.57,2.57,0,0,1-.66-1.85,2.7,2.7,0,0,1,.69-2,2.49,2.49,0,0,1,1.86-.71,2.22,2.22,0,0,1,1.74.69,3.15,3.15,0,0,1,0,3.83A2.39,2.39,0,0,1,88.11,42.43Zm.06-4.57a1.53,1.53,0,0,0-1.22.53,2.15,2.15,0,0,0-.45,1.45,2,2,0,0,0,.45,1.4,1.56,1.56,0,0,0,1.22.51,1.46,1.46,0,0,0,1.19-.5,2.18,2.18,0,0,0,.42-1.43,2.22,2.22,0,0,0-.42-1.45A1.43,1.43,0,0,0,88.17,37.86Zm1.17-3.1-1.28,1.6h-.62l1.09-1.6Z"/>
    <path class="cls-5" d="M96.2,42.31h-.8V39.46c0-1.06-.39-1.6-1.16-1.6a1.3,1.3,0,0,0-1,.46,1.68,1.68,0,0,0-.39,1.14v2.85h-.8v-5h.8v.83h0a1.82,1.82,0,0,1,1.64-1,1.55,1.55,0,0,1,1.26.53,2.34,2.34,0,0,1,.43,1.53Z"/>
    <path class="cls-5" d="M64,49.31l-1.5,5h-.83l-1-3.58a2.92,2.92,0,0,1-.08-.46h0a2.37,2.37,0,0,1-.11.45l-1.12,3.59h-.8l-1.51-5h.84l1,3.76a2.23,2.23,0,0,1,.06.45h0a2,2,0,0,1,.09-.46l1.15-3.75H61l1,3.77a2.37,2.37,0,0,1,.07.45h0a2.23,2.23,0,0,1,.09-.45l1-3.77Z"/>
    <path class="cls-5" d="M69.12,52H65.59A1.87,1.87,0,0,0,66,53.3a1.54,1.54,0,0,0,1.18.45,2.41,2.41,0,0,0,1.55-.56V54a2.89,2.89,0,0,1-1.74.48,2.11,2.11,0,0,1-1.67-.69,2.79,2.79,0,0,1-.6-1.91,2.73,2.73,0,0,1,.66-1.9,2.12,2.12,0,0,1,1.64-.74,1.86,1.86,0,0,1,1.52.64,2.63,2.63,0,0,1,.54,1.76Zm-.82-.68A1.62,1.62,0,0,0,68,50.25a1.11,1.11,0,0,0-.91-.39,1.28,1.28,0,0,0-1,.41,1.78,1.78,0,0,0-.49,1.06Z"/>
    <path class="cls-5" d="M71.32,53.59h0v.72h-.8v-7.4h.8v3.28h0a1.88,1.88,0,0,1,1.73-1,1.81,1.81,0,0,1,1.5.67,2.74,2.74,0,0,1,.55,1.8,3.07,3.07,0,0,1-.61,2,2,2,0,0,1-1.67.76A1.65,1.65,0,0,1,71.32,53.59Zm0-2v.7a1.53,1.53,0,0,0,.4,1,1.44,1.44,0,0,0,2.17-.13,2.56,2.56,0,0,0,.41-1.54,2,2,0,0,0-.39-1.31,1.25,1.25,0,0,0-1-.48,1.42,1.42,0,0,0-1.12.49A1.75,1.75,0,0,0,71.3,51.57Z"/>
    <path class="cls-5" d="M83.73,54.31h-.81v-.85h0a2,2,0,0,1-3.23.29,2.7,2.7,0,0,1-.56-1.82,3,3,0,0,1,.62-2,2.06,2.06,0,0,1,1.67-.75,1.62,1.62,0,0,1,1.5.81h0V46.91h.81Zm-.81-2.26v-.74a1.43,1.43,0,0,0-.4-1,1.32,1.32,0,0,0-1-.42,1.37,1.37,0,0,0-1.15.54,2.36,2.36,0,0,0-.42,1.49,2.1,2.1,0,0,0,.4,1.36,1.33,1.33,0,0,0,1.08.5,1.38,1.38,0,0,0,1.09-.48A1.78,1.78,0,0,0,82.92,52.05Z"/>
    <path class="cls-5" d="M89.54,52H86a2,2,0,0,0,.45,1.29,1.57,1.57,0,0,0,1.19.45,2.41,2.41,0,0,0,1.55-.56V54a2.89,2.89,0,0,1-1.74.48,2.1,2.1,0,0,1-1.67-.69,2.79,2.79,0,0,1-.61-1.91,2.74,2.74,0,0,1,.67-1.9,2.12,2.12,0,0,1,1.64-.74,1.87,1.87,0,0,1,1.52.64,2.63,2.63,0,0,1,.54,1.76Zm-.83-.68a1.62,1.62,0,0,0-.33-1.08,1.13,1.13,0,0,0-.92-.39,1.32,1.32,0,0,0-1,.41A1.91,1.91,0,0,0,86,51.33Z"/>
    <path class="cls-5" d="M58.22,66.31h-.8v-.85h0a2,2,0,0,1-3.23.29,2.75,2.75,0,0,1-.56-1.82,3,3,0,0,1,.62-2,2.06,2.06,0,0,1,1.67-.75,1.62,1.62,0,0,1,1.5.81h0V58.91h.8Zm-.8-2.26v-.74a1.48,1.48,0,0,0-.4-1,1.36,1.36,0,0,0-1-.42,1.37,1.37,0,0,0-1.15.54,2.36,2.36,0,0,0-.42,1.49,2.1,2.1,0,0,0,.4,1.36,1.33,1.33,0,0,0,1.08.5A1.38,1.38,0,0,0,57,65.27,1.79,1.79,0,0,0,57.42,64.05Z"/>
    <path class="cls-5" d="M64,64H60.5A1.87,1.87,0,0,0,61,65.3a1.54,1.54,0,0,0,1.18.45,2.41,2.41,0,0,0,1.55-.56V66a2.89,2.89,0,0,1-1.74.48,2.11,2.11,0,0,1-1.67-.69,2.79,2.79,0,0,1-.6-1.91,2.73,2.73,0,0,1,.66-1.9A2.12,2.12,0,0,1,62,61.19a1.86,1.86,0,0,1,1.52.64A2.63,2.63,0,0,1,64,63.59Zm-.82-.68a1.68,1.68,0,0,0-.34-1.08,1.12,1.12,0,0,0-.91-.39,1.32,1.32,0,0,0-1,.41,1.83,1.83,0,0,0-.48,1.06Z"/>
    <path class="cls-5" d="M72.51,66.31h-.8V63.44a2.13,2.13,0,0,0-.26-1.2,1,1,0,0,0-.86-.38,1.08,1.08,0,0,0-.87.47,1.82,1.82,0,0,0-.36,1.13v2.85h-.8v-3c0-1-.38-1.48-1.14-1.48a1.05,1.05,0,0,0-.87.45,1.79,1.79,0,0,0-.34,1.15v2.85h-.8v-5h.8v.79h0a1.68,1.68,0,0,1,1.55-.91,1.47,1.47,0,0,1,1.42,1,1.78,1.78,0,0,1,1.66-1q1.65,0,1.65,2Z"/>
    <path class="cls-5" d="M76.28,66.43a2.31,2.31,0,0,1-1.77-.71,2.57,2.57,0,0,1-.66-1.85,2.7,2.7,0,0,1,.69-2,2.49,2.49,0,0,1,1.86-.71,2.24,2.24,0,0,1,1.74.69,3.13,3.13,0,0,1,0,3.83A2.36,2.36,0,0,1,76.28,66.43Zm.06-4.57a1.52,1.52,0,0,0-1.22.53,2.15,2.15,0,0,0-.45,1.45,2,2,0,0,0,.45,1.4,1.56,1.56,0,0,0,1.22.51,1.47,1.47,0,0,0,1.19-.5A2.18,2.18,0,0,0,78,63.82a2.22,2.22,0,0,0-.42-1.45A1.45,1.45,0,0,0,76.34,61.86Z"/>
    <path class="cls-5" d="M84.37,66.31h-.8V63.46c0-1.06-.39-1.6-1.16-1.6a1.3,1.3,0,0,0-1,.46A1.68,1.68,0,0,0,81,63.46v2.85h-.8v-5H81v.83h0a1.81,1.81,0,0,1,1.64-1,1.55,1.55,0,0,1,1.26.53,2.34,2.34,0,0,1,.43,1.53Z"/>
    <path class="cls-5" d="M86.46,60a.51.51,0,0,1-.37-.15.53.53,0,0,1,0-.74.51.51,0,0,1,.37-.15.5.5,0,0,1,.37.15.47.47,0,0,1,.16.37.49.49,0,0,1-.16.37A.5.5,0,0,1,86.46,60Zm.39,6.27h-.8v-5h.8Z"/>
    <path class="cls-5" d="M90.73,66.43A2.31,2.31,0,0,1,89,65.72a2.57,2.57,0,0,1-.66-1.85,2.7,2.7,0,0,1,.69-2,2.49,2.49,0,0,1,1.86-.71,2.24,2.24,0,0,1,1.74.69,2.72,2.72,0,0,1,.63,1.91,2.65,2.65,0,0,1-.68,1.92A2.36,2.36,0,0,1,90.73,66.43Zm.06-4.57a1.52,1.52,0,0,0-1.22.53,2.15,2.15,0,0,0-.45,1.45,2,2,0,0,0,.45,1.4,1.56,1.56,0,0,0,1.22.51,1.46,1.46,0,0,0,1.19-.5,2.18,2.18,0,0,0,.42-1.43A2.22,2.22,0,0,0,92,62.37,1.43,1.43,0,0,0,90.79,61.86Z"/>
  </g>
  <g>
    <path class="cls-5" d="M183.7,117.39h-.91l-.74-2h-3l-.7,2h-.91l2.68-7H181Zm-1.92-2.7-1.1-3a2.75,2.75,0,0,1-.11-.47h0a2.53,2.53,0,0,1-.11.47l-1.09,3Z"/>
    <path class="cls-5" d="M185.61,116.67h0v3h-.8v-7.3h.8v.88h0a1.89,1.89,0,0,1,1.73-1,1.83,1.83,0,0,1,1.51.67,2.8,2.8,0,0,1,.54,1.8,3.11,3.11,0,0,1-.61,2,2,2,0,0,1-1.67.75A1.67,1.67,0,0,1,185.61,116.67Zm0-2v.7a1.45,1.45,0,0,0,.4,1.05,1.43,1.43,0,0,0,2.17-.12,2.6,2.6,0,0,0,.41-1.55,2,2,0,0,0-.39-1.31,1.27,1.27,0,0,0-1-.47,1.42,1.42,0,0,0-1.13.49A1.78,1.78,0,0,0,185.59,114.65Z"/>
    <path class="cls-5" d="M191.64,117.39h-.8V110h.8Z"/>
    <path class="cls-5" d="M193.84,111.12a.5.5,0,0,1-.37-.14.5.5,0,0,1-.15-.37.52.52,0,0,1,.15-.38.51.51,0,0,1,.37-.15.5.5,0,0,1,.37.15.49.49,0,0,1,.16.38.46.46,0,0,1-.16.36A.5.5,0,0,1,193.84,111.12Zm.39,6.27h-.8v-5h.8Z"/>
    <path class="cls-5" d="M199.43,117.16a2.61,2.61,0,0,1-1.37.35,2.22,2.22,0,0,1-1.72-.7,2.5,2.5,0,0,1-.66-1.8,2.78,2.78,0,0,1,.71-2,2.47,2.47,0,0,1,1.89-.75,2.67,2.67,0,0,1,1.16.24v.82a2,2,0,0,0-1.19-.39,1.61,1.61,0,0,0-1.26.55,2.08,2.08,0,0,0-.49,1.44,2,2,0,0,0,.46,1.39,1.59,1.59,0,0,0,1.24.51,2,2,0,0,0,1.23-.44Z"/>
    <path class="cls-5" d="M204.39,117.39h-.8v-.78h0a1.68,1.68,0,0,1-1.54.9,1.65,1.65,0,0,1-1.17-.39,1.39,1.39,0,0,1-.42-1.05c0-.94.55-1.48,1.65-1.64l1.5-.21c0-.84-.34-1.27-1-1.27a2.46,2.46,0,0,0-1.63.62v-.82a3,3,0,0,1,1.7-.47c1.17,0,1.76.62,1.76,1.86Zm-.8-2.53-1.21.17a1.84,1.84,0,0,0-.84.28.78.78,0,0,0-.28.7.76.76,0,0,0,.26.59,1,1,0,0,0,.7.24,1.29,1.29,0,0,0,1-.42,1.49,1.49,0,0,0,.39-1.06Z"/>
    <path class="cls-5" d="M209.48,117.16a2.63,2.63,0,0,1-1.37.35,2.26,2.26,0,0,1-1.73-.7,2.53,2.53,0,0,1-.65-1.8,2.77,2.77,0,0,1,.7-2,2.5,2.5,0,0,1,1.89-.75,2.72,2.72,0,0,1,1.17.24v.82a2,2,0,0,0-1.2-.39,1.59,1.59,0,0,0-1.25.55,2.08,2.08,0,0,0-.49,1.44,2,2,0,0,0,.46,1.39,1.59,1.59,0,0,0,1.24.51,2,2,0,0,0,1.23-.44Z"/>
    <path class="cls-5" d="M211.27,111.12a.5.5,0,0,1-.37-.14.5.5,0,0,1-.15-.37.52.52,0,0,1,.15-.38.51.51,0,0,1,.37-.15.5.5,0,0,1,.37.15.49.49,0,0,1,.16.38.46.46,0,0,1-.16.36A.5.5,0,0,1,211.27,111.12Zm.39,6.27h-.8v-5h.8Z"/>
    <path class="cls-5" d="M215.54,117.51a2.31,2.31,0,0,1-1.77-.7,2.61,2.61,0,0,1-.66-1.86,2.72,2.72,0,0,1,.69-2,2.48,2.48,0,0,1,1.86-.7,2.27,2.27,0,0,1,1.74.68,2.73,2.73,0,0,1,.63,1.91,2.7,2.7,0,0,1-.68,1.92A2.36,2.36,0,0,1,215.54,117.51Zm.06-4.56a1.54,1.54,0,0,0-1.22.52,2.19,2.19,0,0,0-.45,1.45,2,2,0,0,0,.45,1.4,1.54,1.54,0,0,0,1.22.52,1.45,1.45,0,0,0,1.19-.51,2.16,2.16,0,0,0,.42-1.43,2.21,2.21,0,0,0-.42-1.44A1.45,1.45,0,0,0,215.6,113Zm1.17-3.11-1.28,1.61h-.62l1.09-1.61Z"/>
    <path class="cls-5" d="M223.63,117.39h-.8v-2.85c0-1.06-.39-1.59-1.16-1.59a1.29,1.29,0,0,0-1,.45,1.68,1.68,0,0,0-.39,1.14v2.85h-.8v-5h.8v.83h0a1.8,1.8,0,0,1,1.64-.94,1.52,1.52,0,0,1,1.26.53,2.34,2.34,0,0,1,.43,1.53Z"/>
    <path class="cls-5" d="M192.47,129.39h-.91l-.74-2h-3l-.7,2h-.91l2.69-7h.85Zm-1.92-2.7-1.1-3a3,3,0,0,1-.1-.47h0a2.42,2.42,0,0,1-.12.47l-1.08,3Z"/>
    <path class="cls-5" d="M194.49,126.75v2.64h-.82v-7h1.93a2.54,2.54,0,0,1,1.74.55,2,2,0,0,1,.61,1.54,2.09,2.09,0,0,1-.68,1.63,2.6,2.6,0,0,1-1.85.64Zm0-3.62V126h.86a1.92,1.92,0,0,0,1.3-.38,1.38,1.38,0,0,0,.44-1.1c0-.92-.54-1.39-1.64-1.39Z"/>
    <path class="cls-5" d="M200.26,129.39h-.82v-7h.82Z"/>
    <path class="cls-5" d="M209.34,129.39h-.8v-.85h0a2,2,0,0,1-3.22.3,2.75,2.75,0,0,1-.57-1.83,3,3,0,0,1,.63-2,2.08,2.08,0,0,1,1.66-.74,1.6,1.6,0,0,1,1.5.81h0V122h.8Zm-.8-2.26v-.73a1.42,1.42,0,0,0-.4-1,1.32,1.32,0,0,0-1-.42,1.39,1.39,0,0,0-1.16.54,2.33,2.33,0,0,0-.42,1.48,2.13,2.13,0,0,0,.41,1.37,1.43,1.43,0,0,0,2.16,0A1.79,1.79,0,0,0,208.54,127.13Z"/>
    <path class="cls-5" d="M215.15,127.09h-3.53a1.88,1.88,0,0,0,.45,1.29,1.53,1.53,0,0,0,1.18.46,2.49,2.49,0,0,0,1.56-.56V129a2.9,2.9,0,0,1-1.75.48,2.12,2.12,0,0,1-1.66-.68,3.19,3.19,0,0,1,0-3.82,2.12,2.12,0,0,1,1.65-.73,1.9,1.9,0,0,1,1.52.63,2.68,2.68,0,0,1,.53,1.76Zm-.82-.67a1.59,1.59,0,0,0-.33-1.08,1.14,1.14,0,0,0-.92-.39,1.25,1.25,0,0,0-1,.41,1.84,1.84,0,0,0-.49,1.06Z"/>
    <path class="cls-5" d="M185.65,141.39h-.8v-.85h0a1.85,1.85,0,0,1-1.72,1,1.87,1.87,0,0,1-1.51-.67A2.74,2.74,0,0,1,181,139a3,3,0,0,1,.62-2,2.09,2.09,0,0,1,1.67-.74,1.62,1.62,0,0,1,1.5.81h0V134h.8Zm-.8-2.26v-.73a1.46,1.46,0,0,0-.4-1,1.36,1.36,0,0,0-1-.42,1.37,1.37,0,0,0-1.15.54,2.33,2.33,0,0,0-.42,1.48,2.13,2.13,0,0,0,.4,1.37,1.33,1.33,0,0,0,1.08.5,1.35,1.35,0,0,0,1.09-.49A1.79,1.79,0,0,0,184.85,139.13Z"/>
    <path class="cls-5" d="M191.46,139.09h-3.53a1.83,1.83,0,0,0,.45,1.29,1.5,1.5,0,0,0,1.18.46,2.46,2.46,0,0,0,1.55-.56V141a2.89,2.89,0,0,1-1.74.48,2.13,2.13,0,0,1-1.67-.68,2.8,2.8,0,0,1-.6-1.92,2.73,2.73,0,0,1,.66-1.9,2.12,2.12,0,0,1,1.64-.73,1.9,1.9,0,0,1,1.52.63,2.63,2.63,0,0,1,.54,1.76Zm-.83-.67a1.59,1.59,0,0,0-.33-1.08,1.12,1.12,0,0,0-.91-.39,1.29,1.29,0,0,0-1,.41,1.83,1.83,0,0,0-.48,1.06Z"/>
    <path class="cls-5" d="M199.94,141.39h-.81v-2.87a2.19,2.19,0,0,0-.25-1.2A1,1,0,0,0,198,137a1.08,1.08,0,0,0-.88.47,1.84,1.84,0,0,0-.35,1.12v2.85H196v-3q0-1.47-1.14-1.47a1.07,1.07,0,0,0-.87.44,1.83,1.83,0,0,0-.34,1.15v2.85h-.8v-5h.8v.79h0a1.69,1.69,0,0,1,1.55-.9,1.45,1.45,0,0,1,1.42,1,1.77,1.77,0,0,1,1.66-1c1.1,0,1.65.68,1.65,2Z"/>
    <path class="cls-5" d="M203.71,141.51a2.31,2.31,0,0,1-1.77-.7,2.61,2.61,0,0,1-.66-1.86,2.72,2.72,0,0,1,.69-2,2.45,2.45,0,0,1,1.86-.7,2.27,2.27,0,0,1,1.74.68,2.73,2.73,0,0,1,.63,1.91,2.7,2.7,0,0,1-.68,1.92A2.36,2.36,0,0,1,203.71,141.51Zm.06-4.56a1.54,1.54,0,0,0-1.22.52,2.19,2.19,0,0,0-.45,1.45,2,2,0,0,0,.45,1.4,1.52,1.52,0,0,0,1.22.52,1.45,1.45,0,0,0,1.19-.51,2.16,2.16,0,0,0,.42-1.43,2.21,2.21,0,0,0-.42-1.44A1.45,1.45,0,0,0,203.77,137Z"/>
    <path class="cls-5" d="M211.8,141.39H211v-2.85c0-1.06-.39-1.59-1.16-1.59a1.27,1.27,0,0,0-1,.45,1.68,1.68,0,0,0-.39,1.14v2.85h-.8v-5h.8v.83h0a1.8,1.8,0,0,1,1.64-.94,1.5,1.5,0,0,1,1.25.53,2.35,2.35,0,0,1,.44,1.53Z"/>
    <path class="cls-5" d="M213.89,135.12a.49.49,0,0,1-.37-.14.5.5,0,0,1-.15-.37.52.52,0,0,1,.15-.38.5.5,0,0,1,.37-.15.51.51,0,0,1,.37.15.53.53,0,0,1,.16.38.5.5,0,0,1-.16.36A.51.51,0,0,1,213.89,135.12Zm.39,6.27h-.8v-5h.8Z"/>
    <path class="cls-5" d="M218.16,141.51a2.31,2.31,0,0,1-1.77-.7,2.61,2.61,0,0,1-.66-1.86,2.72,2.72,0,0,1,.69-2,2.48,2.48,0,0,1,1.86-.7A2.27,2.27,0,0,1,220,137a2.73,2.73,0,0,1,.63,1.91,2.7,2.7,0,0,1-.68,1.92A2.36,2.36,0,0,1,218.16,141.51Zm.06-4.56a1.54,1.54,0,0,0-1.22.52,2.19,2.19,0,0,0-.45,1.45,2,2,0,0,0,.45,1.4,1.52,1.52,0,0,0,1.22.52,1.45,1.45,0,0,0,1.19-.51,2.16,2.16,0,0,0,.42-1.43,2.21,2.21,0,0,0-.42-1.44A1.45,1.45,0,0,0,218.22,137Z"/>
  </g>
  <g>
    <path class="cls-3" d="M56.43,117.39h-.91l-.74-2h-3l-.7,2H50.2l2.68-7h.85Zm-1.92-2.7-1.1-3a4.26,4.26,0,0,1-.11-.47h0a2.42,2.42,0,0,1-.12.47l-1.09,3Z"/>
    <path class="cls-3" d="M58.34,116.67h0v3h-.8v-7.3h.8v.88h0a1.9,1.9,0,0,1,1.73-1,1.82,1.82,0,0,1,1.51.67,2.8,2.8,0,0,1,.54,1.8,3.11,3.11,0,0,1-.61,2,2,2,0,0,1-1.67.75A1.67,1.67,0,0,1,58.34,116.67Zm0-2v.7a1.46,1.46,0,0,0,.41,1.05,1.34,1.34,0,0,0,1,.44,1.36,1.36,0,0,0,1.14-.56,2.6,2.6,0,0,0,.41-1.55,2.08,2.08,0,0,0-.38-1.31,1.3,1.3,0,0,0-1.05-.47,1.4,1.4,0,0,0-1.12.49A1.74,1.74,0,0,0,58.32,114.65Z"/>
    <path class="cls-3" d="M64.37,117.39h-.8V110h.8Z"/>
    <path class="cls-3" d="M66.57,111.12a.48.48,0,0,1-.36-.14.5.5,0,0,1-.15-.37.52.52,0,0,1,.15-.38.49.49,0,0,1,.36-.15.54.54,0,0,1,.38.15.52.52,0,0,1,.15.38A.49.49,0,0,1,67,111,.54.54,0,0,1,66.57,111.12Zm.39,6.27h-.8v-5H67Z"/>
    <path class="cls-3" d="M72.16,117.16a2.6,2.6,0,0,1-1.36.35,2.25,2.25,0,0,1-1.73-.7,2.5,2.5,0,0,1-.66-1.8,2.78,2.78,0,0,1,.71-2,2.47,2.47,0,0,1,1.89-.75,2.64,2.64,0,0,1,1.16.24v.82A2,2,0,0,0,71,113a1.61,1.61,0,0,0-1.26.55,2.13,2.13,0,0,0-.49,1.44,2,2,0,0,0,.46,1.39,1.61,1.61,0,0,0,1.24.51,2,2,0,0,0,1.23-.44Z"/>
    <path class="cls-3" d="M77.12,117.39h-.8v-.78h0a1.83,1.83,0,0,1-2.71.51,1.39,1.39,0,0,1-.42-1.05c0-.94.55-1.48,1.65-1.64l1.5-.21c0-.84-.34-1.27-1-1.27a2.48,2.48,0,0,0-1.63.62v-.82a3,3,0,0,1,1.7-.47c1.18,0,1.76.62,1.76,1.86Zm-.8-2.53-1.2.17a1.8,1.8,0,0,0-.84.28.79.79,0,0,0-.29.7.76.76,0,0,0,.26.59,1,1,0,0,0,.7.24,1.27,1.27,0,0,0,1-.42,1.49,1.49,0,0,0,.39-1.06Z"/>
    <path class="cls-3" d="M82.21,117.16a2.61,2.61,0,0,1-1.37.35,2.22,2.22,0,0,1-1.72-.7,2.5,2.5,0,0,1-.66-1.8,2.78,2.78,0,0,1,.71-2,2.47,2.47,0,0,1,1.89-.75,2.67,2.67,0,0,1,1.16.24v.82A2,2,0,0,0,81,113a1.61,1.61,0,0,0-1.26.55,2.08,2.08,0,0,0-.49,1.44,2,2,0,0,0,.46,1.39,1.59,1.59,0,0,0,1.24.51,2,2,0,0,0,1.23-.44Z"/>
    <path class="cls-3" d="M84,111.12a.48.48,0,0,1-.36-.14.51.51,0,0,1-.16-.37.53.53,0,0,1,.16-.38.49.49,0,0,1,.36-.15.54.54,0,0,1,.38.15.52.52,0,0,1,.15.38.49.49,0,0,1-.15.36A.54.54,0,0,1,84,111.12Zm.39,6.27h-.8v-5h.8Z"/>
    <path class="cls-3" d="M88.27,117.51a2.31,2.31,0,0,1-1.77-.7,2.61,2.61,0,0,1-.66-1.86,2.72,2.72,0,0,1,.69-2,2.48,2.48,0,0,1,1.86-.7,2.27,2.27,0,0,1,1.75.68,2.78,2.78,0,0,1,.62,1.91,2.69,2.69,0,0,1-.67,1.92A2.38,2.38,0,0,1,88.27,117.51Zm.06-4.56a1.56,1.56,0,0,0-1.22.52,2.19,2.19,0,0,0-.45,1.45,2,2,0,0,0,.46,1.4,1.5,1.5,0,0,0,1.21.52,1.47,1.47,0,0,0,1.2-.51,2.21,2.21,0,0,0,.41-1.43,2.26,2.26,0,0,0-.41-1.44A1.47,1.47,0,0,0,88.33,113Zm1.17-3.11-1.28,1.61H87.6l1.09-1.61Z"/>
    <path class="cls-3" d="M96.36,117.39h-.8v-2.85c0-1.06-.39-1.59-1.16-1.59a1.25,1.25,0,0,0-1,.45,1.64,1.64,0,0,0-.4,1.14v2.85h-.8v-5H93v.83h0a1.81,1.81,0,0,1,1.64-.94,1.52,1.52,0,0,1,1.26.53,2.34,2.34,0,0,1,.43,1.53Z"/>
    <path class="cls-3" d="M50.21,129.39h-.8v-.85h0a1.85,1.85,0,0,1-1.72,1,1.87,1.87,0,0,1-1.51-.67A2.8,2.8,0,0,1,45.6,127a3,3,0,0,1,.62-2,2.1,2.1,0,0,1,1.67-.74,1.6,1.6,0,0,1,1.5.81h0V122h.8Zm-.8-2.26v-.73a1.46,1.46,0,0,0-.4-1,1.36,1.36,0,0,0-1-.42,1.37,1.37,0,0,0-1.15.54,2.33,2.33,0,0,0-.42,1.48,2.13,2.13,0,0,0,.4,1.37,1.33,1.33,0,0,0,1.08.5,1.35,1.35,0,0,0,1.09-.49A1.79,1.79,0,0,0,49.41,127.13Z"/>
    <path class="cls-3" d="M56,127.09H52.49a1.83,1.83,0,0,0,.45,1.29,1.52,1.52,0,0,0,1.18.46,2.46,2.46,0,0,0,1.55-.56V129a2.89,2.89,0,0,1-1.74.48,2.14,2.14,0,0,1-1.67-.68,2.8,2.8,0,0,1-.6-1.92,2.73,2.73,0,0,1,.66-1.9,2.12,2.12,0,0,1,1.64-.73,1.88,1.88,0,0,1,1.52.63,2.63,2.63,0,0,1,.54,1.76Zm-.82-.67a1.64,1.64,0,0,0-.34-1.08A1.12,1.12,0,0,0,54,125a1.25,1.25,0,0,0-1,.41,1.78,1.78,0,0,0-.49,1.06Z"/>
    <path class="cls-3" d="M64.33,127.09H60.8a1.83,1.83,0,0,0,.45,1.29,1.52,1.52,0,0,0,1.18.46,2.46,2.46,0,0,0,1.55-.56V129a2.89,2.89,0,0,1-1.74.48,2.13,2.13,0,0,1-1.67-.68,2.8,2.8,0,0,1-.6-1.92,2.73,2.73,0,0,1,.66-1.9,2.12,2.12,0,0,1,1.64-.73,1.9,1.9,0,0,1,1.52.63,2.63,2.63,0,0,1,.54,1.76Zm-.82-.67a1.64,1.64,0,0,0-.34-1.08,1.12,1.12,0,0,0-.91-.39,1.29,1.29,0,0,0-1,.41,1.83,1.83,0,0,0-.48,1.06Z"/>
    <path class="cls-3" d="M65.4,129.21v-.86a2.34,2.34,0,0,0,1.44.49c.71,0,1.06-.24,1.06-.71a.64.64,0,0,0-.09-.34.82.82,0,0,0-.25-.24,2,2,0,0,0-.36-.2l-.44-.17c-.22-.09-.42-.18-.59-.27a2.25,2.25,0,0,1-.42-.3,1.14,1.14,0,0,1-.25-.39,1.28,1.28,0,0,1-.09-.5,1.18,1.18,0,0,1,.17-.62,1.53,1.53,0,0,1,.42-.46,2,2,0,0,1,.62-.27,2.76,2.76,0,0,1,.71-.09,2.86,2.86,0,0,1,1.16.22v.81a2.27,2.27,0,0,0-1.27-.36,1.62,1.62,0,0,0-.4,0,.9.9,0,0,0-.31.15.63.63,0,0,0-.21.22.64.64,0,0,0-.07.28.81.81,0,0,0,.07.33.66.66,0,0,0,.21.23,1.69,1.69,0,0,0,.33.19l.45.18c.22.09.42.17.59.26a2,2,0,0,1,.45.3,1.32,1.32,0,0,1,.29.39,1.4,1.4,0,0,1-.06,1.17,1.45,1.45,0,0,1-.44.45,2,2,0,0,1-.63.27,3.08,3.08,0,0,1-.75.09A2.85,2.85,0,0,1,65.4,129.21Z"/>
    <path class="cls-3" d="M73.53,129.16a2.63,2.63,0,0,1-1.37.35,2.26,2.26,0,0,1-1.73-.7,2.53,2.53,0,0,1-.65-1.8,2.73,2.73,0,0,1,.71-2,2.47,2.47,0,0,1,1.89-.75,2.67,2.67,0,0,1,1.16.24v.82a2,2,0,0,0-1.19-.39,1.61,1.61,0,0,0-1.26.55,2.08,2.08,0,0,0-.49,1.44,2,2,0,0,0,.46,1.39,1.59,1.59,0,0,0,1.24.51,2,2,0,0,0,1.23-.44Z"/>
    <path class="cls-3" d="M77.52,125.2a1.05,1.05,0,0,0-.61-.16,1,1,0,0,0-.86.49,2.29,2.29,0,0,0-.34,1.31v2.55h-.8v-5h.8v1h0a1.76,1.76,0,0,1,.52-.82,1.19,1.19,0,0,1,.79-.29,1.48,1.48,0,0,1,.48.06Z"/>
    <path class="cls-3" d="M79,123.12a.49.49,0,0,1-.37-.14.5.5,0,0,1-.15-.37.52.52,0,0,1,.15-.38.5.5,0,0,1,.37-.15.51.51,0,0,1,.37.15.52.52,0,0,1,.15.38.49.49,0,0,1-.15.36A.51.51,0,0,1,79,123.12Zm.39,6.27h-.8v-5h.8Z"/>
    <path class="cls-3" d="M83.47,129.34a1.49,1.49,0,0,1-.75.16c-.88,0-1.31-.49-1.31-1.46v-3h-.86v-.69h.86v-1.22l.8-.26v1.48h1.26v.69H82.21v2.81a1.12,1.12,0,0,0,.17.72.69.69,0,0,0,.57.22.85.85,0,0,0,.52-.17Z"/>
    <path class="cls-3" d="M86.8,129.51a2.31,2.31,0,0,1-1.77-.7,2.61,2.61,0,0,1-.66-1.86,2.71,2.71,0,0,1,.68-2,2.48,2.48,0,0,1,1.86-.7,2.27,2.27,0,0,1,1.75.68,2.73,2.73,0,0,1,.63,1.91,2.7,2.7,0,0,1-.68,1.92A2.36,2.36,0,0,1,86.8,129.51Zm.06-4.56a1.56,1.56,0,0,0-1.23.52,2.18,2.18,0,0,0-.44,1.45,2,2,0,0,0,.45,1.4,1.52,1.52,0,0,0,1.22.52,1.46,1.46,0,0,0,1.19-.51,2.16,2.16,0,0,0,.42-1.43,2.21,2.21,0,0,0-.42-1.44A1.46,1.46,0,0,0,86.86,125Z"/>
    <path class="cls-3" d="M93.34,125.2a1.07,1.07,0,0,0-1.46.33,2.21,2.21,0,0,0-.34,1.31v2.55h-.8v-5h.8v1h0a1.69,1.69,0,0,1,.52-.82,1.17,1.17,0,0,1,.79-.29,1.45,1.45,0,0,1,.47.06Z"/>
    <path class="cls-3" d="M94.79,123.12a.48.48,0,0,1-.36-.14.5.5,0,0,1-.15-.37.52.52,0,0,1,.15-.38.49.49,0,0,1,.36-.15.54.54,0,0,1,.38.15.52.52,0,0,1,.15.38.49.49,0,0,1-.15.36A.54.54,0,0,1,94.79,123.12Zm.39,6.27h-.8v-5h.8Z"/>
    <path class="cls-3" d="M99.06,129.51a2.34,2.34,0,0,1-1.77-.7,2.61,2.61,0,0,1-.66-1.86,2.72,2.72,0,0,1,.69-2,2.48,2.48,0,0,1,1.86-.7,2.27,2.27,0,0,1,1.75.68,2.73,2.73,0,0,1,.62,1.91,2.69,2.69,0,0,1-.67,1.92A2.38,2.38,0,0,1,99.06,129.51Zm.06-4.56a1.56,1.56,0,0,0-1.22.52,2.19,2.19,0,0,0-.45,1.45,2,2,0,0,0,.46,1.4,1.52,1.52,0,0,0,1.21.52,1.47,1.47,0,0,0,1.2-.51,2.16,2.16,0,0,0,.41-1.43,2.21,2.21,0,0,0-.41-1.44A1.47,1.47,0,0,0,99.12,125Z"/>
    <path class="cls-3" d="M51.2,141.39h-.81v-.85h0a2,2,0,0,1-3.23.3,2.74,2.74,0,0,1-.56-1.83,3,3,0,0,1,.62-2,2.09,2.09,0,0,1,1.67-.74,1.62,1.62,0,0,1,1.5.81h0V134h.81Zm-.81-2.26v-.73a1.42,1.42,0,0,0-.4-1,1.32,1.32,0,0,0-1-.42,1.37,1.37,0,0,0-1.15.54,2.33,2.33,0,0,0-.42,1.48,2.13,2.13,0,0,0,.4,1.37,1.33,1.33,0,0,0,1.08.5,1.35,1.35,0,0,0,1.09-.49A1.78,1.78,0,0,0,50.39,139.13Z"/>
    <path class="cls-3" d="M57,139.09H53.47a1.93,1.93,0,0,0,.45,1.29,1.54,1.54,0,0,0,1.19.46,2.46,2.46,0,0,0,1.55-.56V141a2.89,2.89,0,0,1-1.74.48,2.13,2.13,0,0,1-1.67-.68,2.8,2.8,0,0,1-.61-1.92,2.74,2.74,0,0,1,.67-1.9,2.1,2.1,0,0,1,1.64-.73,1.9,1.9,0,0,1,1.52.63,2.62,2.62,0,0,1,.53,1.76Zm-.82-.67a1.59,1.59,0,0,0-.33-1.08,1.13,1.13,0,0,0-.92-.39,1.28,1.28,0,0,0-1,.41,1.91,1.91,0,0,0-.49,1.06Z"/>
    <path class="cls-3" d="M65.56,141.39h-.8v-.85h0a2,2,0,0,1-3.22.3A2.75,2.75,0,0,1,61,139a3,3,0,0,1,.63-2,2.08,2.08,0,0,1,1.66-.74,1.6,1.6,0,0,1,1.5.81h0V134h.8Zm-.8-2.26v-.73a1.42,1.42,0,0,0-.4-1,1.34,1.34,0,0,0-1-.42,1.39,1.39,0,0,0-1.16.54,2.33,2.33,0,0,0-.42,1.48,2.13,2.13,0,0,0,.41,1.37,1.43,1.43,0,0,0,2.16,0A1.79,1.79,0,0,0,64.76,139.13Z"/>
    <path class="cls-3" d="M71.37,139.09H67.84a1.83,1.83,0,0,0,.45,1.29,1.53,1.53,0,0,0,1.18.46,2.49,2.49,0,0,0,1.56-.56V141a2.92,2.92,0,0,1-1.75.48,2.12,2.12,0,0,1-1.66-.68,3.19,3.19,0,0,1,0-3.82,2.12,2.12,0,0,1,1.65-.73,1.86,1.86,0,0,1,1.51.63,2.63,2.63,0,0,1,.54,1.76Zm-.82-.67a1.59,1.59,0,0,0-.33-1.08,1.14,1.14,0,0,0-.92-.39,1.25,1.25,0,0,0-1,.41,1.84,1.84,0,0,0-.49,1.06Z"/>
    <path class="cls-3" d="M79.85,141.39h-.8v-2.87a2.19,2.19,0,0,0-.25-1.2,1,1,0,0,0-.87-.37,1.08,1.08,0,0,0-.87.47,1.79,1.79,0,0,0-.36,1.12v2.85h-.8v-3q0-1.47-1.14-1.47a1,1,0,0,0-.86.44,1.83,1.83,0,0,0-.35,1.15v2.85h-.8v-5h.8v.79h0a1.72,1.72,0,0,1,1.56-.9,1.42,1.42,0,0,1,1.41,1,1.78,1.78,0,0,1,1.66-1c1.1,0,1.65.68,1.65,2Z"/>
    <path class="cls-3" d="M83.63,141.51a2.31,2.31,0,0,1-1.77-.7,2.62,2.62,0,0,1-.67-1.86,2.72,2.72,0,0,1,.69-2,2.48,2.48,0,0,1,1.86-.7,2.27,2.27,0,0,1,1.75.68,2.73,2.73,0,0,1,.63,1.91,2.7,2.7,0,0,1-.68,1.92A2.37,2.37,0,0,1,83.63,141.51Zm.05-4.56a1.56,1.56,0,0,0-1.22.52,2.19,2.19,0,0,0-.45,1.45,2.05,2.05,0,0,0,.46,1.4,1.52,1.52,0,0,0,1.21.52,1.47,1.47,0,0,0,1.2-.51,2.16,2.16,0,0,0,.42-1.43,2.21,2.21,0,0,0-.42-1.44A1.47,1.47,0,0,0,83.68,137Z"/>
    <path class="cls-3" d="M91.72,141.39h-.8v-2.85q0-1.59-1.17-1.59a1.25,1.25,0,0,0-1,.45,1.68,1.68,0,0,0-.39,1.14v2.85h-.8v-5h.8v.83h0a1.79,1.79,0,0,1,1.64-.94,1.51,1.51,0,0,1,1.25.53,2.35,2.35,0,0,1,.44,1.53Z"/>
    <path class="cls-3" d="M93.81,135.12a.49.49,0,0,1-.37-.14.5.5,0,0,1-.15-.37.52.52,0,0,1,.15-.38.5.5,0,0,1,.37-.15.51.51,0,0,1,.37.15.52.52,0,0,1,.15.38.49.49,0,0,1-.15.36A.51.51,0,0,1,93.81,135.12Zm.39,6.27h-.8v-5h.8Z"/>
    <path class="cls-3" d="M98.08,141.51a2.31,2.31,0,0,1-1.77-.7,2.61,2.61,0,0,1-.66-1.86,2.76,2.76,0,0,1,.68-2,2.48,2.48,0,0,1,1.86-.7,2.27,2.27,0,0,1,1.75.68,2.73,2.73,0,0,1,.63,1.91,2.7,2.7,0,0,1-.68,1.92A2.36,2.36,0,0,1,98.08,141.51Zm.06-4.56a1.53,1.53,0,0,0-1.22.52,2.19,2.19,0,0,0-.45,1.45,2,2,0,0,0,.45,1.4,1.52,1.52,0,0,0,1.22.52,1.46,1.46,0,0,0,1.19-.51,2.16,2.16,0,0,0,.42-1.43,2.21,2.21,0,0,0-.42-1.44A1.46,1.46,0,0,0,98.14,137Z"/>
  </g>
  <g>
    <path class="cls-5" d="M2.44,112.33v-1a1.75,1.75,0,0,0,.4.27,3.56,3.56,0,0,0,.49.19,3.18,3.18,0,0,0,.51.13,2.82,2.82,0,0,0,.48,0,1.84,1.84,0,0,0,1.13-.28,1,1,0,0,0,.25-1.3,1.35,1.35,0,0,0-.34-.38,3.6,3.6,0,0,0-.52-.34l-.65-.33c-.24-.12-.47-.25-.68-.38a2.41,2.41,0,0,1-.56-.42,1.57,1.57,0,0,1-.36-.52,1.73,1.73,0,0,1,.07-1.51,1.7,1.7,0,0,1,.55-.58A2.51,2.51,0,0,1,4,105.6a3.8,3.8,0,0,1,.89-.11,3.49,3.49,0,0,1,1.51.25v.92a2.77,2.77,0,0,0-1.59-.43,2.48,2.48,0,0,0-.54.06,1.71,1.71,0,0,0-.48.18,1.19,1.19,0,0,0-.34.33.85.85,0,0,0-.13.49,1,1,0,0,0,.1.46,1.25,1.25,0,0,0,.3.36,3,3,0,0,0,.47.31l.65.33.71.39a3.09,3.09,0,0,1,.59.46,2,2,0,0,1,.41.55,1.67,1.67,0,0,1,.14.69,1.71,1.71,0,0,1-.2.88,1.67,1.67,0,0,1-.54.58,2.5,2.5,0,0,1-.8.33,4.13,4.13,0,0,1-.95.1l-.41,0a4.53,4.53,0,0,1-.49-.08,3.37,3.37,0,0,1-.48-.12A1.43,1.43,0,0,1,2.44,112.33Z"/>
    <path class="cls-5" d="M12.16,110.31H8.63a1.88,1.88,0,0,0,.45,1.29,1.56,1.56,0,0,0,1.18.45,2.48,2.48,0,0,0,1.56-.55v.75a2.92,2.92,0,0,1-1.75.48,2.12,2.12,0,0,1-1.66-.68,2.78,2.78,0,0,1-.61-1.92,2.73,2.73,0,0,1,.66-1.9,2.13,2.13,0,0,1,1.65-.74,1.9,1.9,0,0,1,1.52.64,2.68,2.68,0,0,1,.53,1.76Zm-.82-.68a1.62,1.62,0,0,0-.33-1.08,1.17,1.17,0,0,0-.92-.38,1.28,1.28,0,0,0-1,.4,1.87,1.87,0,0,0-.49,1.06Z"/>
    <path class="cls-5" d="M17,112.38a2.61,2.61,0,0,1-1.37.35,2.24,2.24,0,0,1-1.72-.7,2.5,2.5,0,0,1-.66-1.8,2.8,2.8,0,0,1,.71-2,2.47,2.47,0,0,1,1.89-.75,2.64,2.64,0,0,1,1.16.25v.82a2,2,0,0,0-1.19-.39,1.61,1.61,0,0,0-1.26.55,2.09,2.09,0,0,0-.49,1.44,2,2,0,0,0,.46,1.39,1.58,1.58,0,0,0,1.24.5,2,2,0,0,0,1.23-.43Z"/>
    <path class="cls-5" d="M20.94,108.42a1,1,0,0,0-.61-.16,1,1,0,0,0-.85.48,2.27,2.27,0,0,0-.35,1.32v2.55h-.8v-5h.8v1h0a1.84,1.84,0,0,1,.52-.82,1.2,1.2,0,0,1,.79-.3,1.43,1.43,0,0,1,.48.07Z"/>
    <path class="cls-5" d="M26,110.31H22.47a1.83,1.83,0,0,0,.45,1.29,1.54,1.54,0,0,0,1.18.45,2.45,2.45,0,0,0,1.55-.55v.75a2.89,2.89,0,0,1-1.74.48,2.14,2.14,0,0,1-1.67-.68,2.83,2.83,0,0,1-.6-1.92,2.73,2.73,0,0,1,.66-1.9,2.12,2.12,0,0,1,1.64-.74,1.89,1.89,0,0,1,1.52.64,2.63,2.63,0,0,1,.54,1.76Zm-.82-.68a1.68,1.68,0,0,0-.34-1.08,1.15,1.15,0,0,0-.91-.38,1.28,1.28,0,0,0-1,.4,1.81,1.81,0,0,0-.49,1.06Z"/>
    <path class="cls-5" d="M29.7,112.56a1.49,1.49,0,0,1-.75.16c-.87,0-1.31-.49-1.31-1.47v-3h-.86v-.68h.86v-1.22l.8-.26v1.48H29.7v.68H28.44v2.82a1.19,1.19,0,0,0,.17.72.68.68,0,0,0,.57.21.85.85,0,0,0,.52-.16Z"/>
    <path class="cls-5" d="M33,112.73a2.31,2.31,0,0,1-1.77-.7,2.61,2.61,0,0,1-.66-1.86,2.7,2.7,0,0,1,.68-2,2.49,2.49,0,0,1,1.86-.71,2.25,2.25,0,0,1,1.75.69,2.73,2.73,0,0,1,.63,1.91,2.7,2.7,0,0,1-.68,1.92A2.36,2.36,0,0,1,33,112.73Zm.06-4.56a1.53,1.53,0,0,0-1.23.52,2.22,2.22,0,0,0-.44,1.45,2,2,0,0,0,.45,1.4,1.55,1.55,0,0,0,1.22.51,1.45,1.45,0,0,0,1.19-.5,2.16,2.16,0,0,0,.42-1.43,2.19,2.19,0,0,0-.42-1.44A1.46,1.46,0,0,0,33.09,108.17Z"/>
  </g>
  <g>
    <path class="cls-5" d="M3.17,183.45v-1a2.13,2.13,0,0,0,.4.26,3.58,3.58,0,0,0,.49.2,4.7,4.7,0,0,0,.51.12,2.9,2.9,0,0,0,.48.05,1.84,1.84,0,0,0,1.13-.29.93.93,0,0,0,.38-.8,1,1,0,0,0-.13-.5,1.5,1.5,0,0,0-.34-.38,2.9,2.9,0,0,0-.52-.33l-.65-.34c-.24-.12-.47-.25-.68-.37a3.15,3.15,0,0,1-.56-.42,1.8,1.8,0,0,1-.36-.52,1.62,1.62,0,0,1-.14-.68,1.64,1.64,0,0,1,.21-.84,1.79,1.79,0,0,1,.55-.58,2.5,2.5,0,0,1,.78-.34,3.34,3.34,0,0,1,.89-.11,3.35,3.35,0,0,1,1.51.25v.92a2.69,2.69,0,0,0-1.59-.43,2.48,2.48,0,0,0-.54.06,1.26,1.26,0,0,0-.48.18,1,1,0,0,0-.34.32.88.88,0,0,0-.13.49,1,1,0,0,0,.1.47,1.1,1.1,0,0,0,.3.35,3,3,0,0,0,.47.32l.65.33a6.85,6.85,0,0,1,.71.39,3.52,3.52,0,0,1,.59.45,2.13,2.13,0,0,1,.41.55,1.75,1.75,0,0,1,.14.7,1.66,1.66,0,0,1-.74,1.46,2.28,2.28,0,0,1-.8.32,4.13,4.13,0,0,1-1,.1l-.41,0L4,183.75l-.48-.13A1.43,1.43,0,0,1,3.17,183.45Z"/>
    <path class="cls-5" d="M12.89,181.44H9.36a1.87,1.87,0,0,0,.45,1.28,1.53,1.53,0,0,0,1.18.46,2.49,2.49,0,0,0,1.56-.56v.75a2.92,2.92,0,0,1-1.75.48,2.09,2.09,0,0,1-1.66-.68,3.19,3.19,0,0,1,0-3.82,2.12,2.12,0,0,1,1.65-.73,1.86,1.86,0,0,1,1.51.63,2.66,2.66,0,0,1,.54,1.77Zm-.82-.68a1.59,1.59,0,0,0-.33-1.08,1.14,1.14,0,0,0-.92-.39,1.28,1.28,0,0,0-1,.41,1.84,1.84,0,0,0-.49,1.06Z"/>
    <path class="cls-5" d="M17.68,183.51a2.6,2.6,0,0,1-1.37.34,2.27,2.27,0,0,1-1.72-.69,2.54,2.54,0,0,1-.66-1.81,2.78,2.78,0,0,1,.71-2,2.47,2.47,0,0,1,1.89-.75,2.64,2.64,0,0,1,1.16.24v.82a2,2,0,0,0-1.19-.39,1.64,1.64,0,0,0-1.26.55,2.13,2.13,0,0,0-.49,1.44,2,2,0,0,0,.46,1.39,1.59,1.59,0,0,0,1.24.51,2,2,0,0,0,1.23-.44Z"/>
    <path class="cls-5" d="M21.67,179.55a1,1,0,0,0-.61-.17,1,1,0,0,0-.85.49,2.22,2.22,0,0,0-.35,1.32v2.55h-.8v-5h.8v1h0a1.82,1.82,0,0,1,.52-.83,1.24,1.24,0,0,1,.79-.29,1.22,1.22,0,0,1,.48.07Z"/>
    <path class="cls-5" d="M26.73,181.44H23.2a1.82,1.82,0,0,0,.45,1.28,1.52,1.52,0,0,0,1.18.46,2.46,2.46,0,0,0,1.55-.56v.75a2.89,2.89,0,0,1-1.74.48,2.11,2.11,0,0,1-1.67-.68,2.8,2.8,0,0,1-.6-1.92,2.75,2.75,0,0,1,.66-1.9,2.12,2.12,0,0,1,1.64-.73,1.88,1.88,0,0,1,1.52.63,2.66,2.66,0,0,1,.54,1.77Zm-.82-.68a1.64,1.64,0,0,0-.34-1.08,1.12,1.12,0,0,0-.91-.39,1.28,1.28,0,0,0-1,.41,1.78,1.78,0,0,0-.49,1.06Z"/>
    <path class="cls-5" d="M30.43,183.69a1.61,1.61,0,0,1-.75.15c-.87,0-1.31-.49-1.31-1.46v-3h-.86v-.68h.86v-1.23l.8-.25v1.48h1.26v.68H29.17v2.82a1.17,1.17,0,0,0,.17.71.66.66,0,0,0,.57.22.85.85,0,0,0,.52-.17Z"/>
    <path class="cls-5" d="M33.76,183.85a2.31,2.31,0,0,1-1.77-.7,2.6,2.6,0,0,1-.66-1.86,2.67,2.67,0,0,1,.68-2,2.45,2.45,0,0,1,1.86-.71,2.25,2.25,0,0,1,1.75.69,2.72,2.72,0,0,1,.63,1.91,2.69,2.69,0,0,1-.68,1.91A2.36,2.36,0,0,1,33.76,183.85Zm.06-4.56a1.54,1.54,0,0,0-1.23.53,2.19,2.19,0,0,0-.44,1.44,2.08,2.08,0,0,0,.45,1.41,1.55,1.55,0,0,0,1.22.51,1.48,1.48,0,0,0,1.19-.5,2.2,2.2,0,0,0,.42-1.43A2.22,2.22,0,0,0,35,179.8,1.46,1.46,0,0,0,33.82,179.29Z"/>
  </g>
  <g>
    <path class="cls-5" d="M3.17,35.14v-1a1.73,1.73,0,0,0,.4.26,2.65,2.65,0,0,0,.49.2,3.14,3.14,0,0,0,.51.12,2.9,2.9,0,0,0,.48,0,1.92,1.92,0,0,0,1.13-.28,1,1,0,0,0,.25-1.3,1.54,1.54,0,0,0-.34-.39,4.71,4.71,0,0,0-.52-.33l-.65-.33c-.24-.13-.47-.25-.68-.38a3.15,3.15,0,0,1-.56-.42,1.67,1.67,0,0,1-.36-.52,1.73,1.73,0,0,1,.07-1.51,1.82,1.82,0,0,1,.55-.59,2.75,2.75,0,0,1,.78-.34,3.8,3.8,0,0,1,.89-.11,3.35,3.35,0,0,1,1.51.25v.92A2.77,2.77,0,0,0,5.53,29,2.48,2.48,0,0,0,5,29.1a1.71,1.71,0,0,0-.48.18,1.07,1.07,0,0,0-.34.33A.83.83,0,0,0,4,30.1a1,1,0,0,0,.1.46,1.25,1.25,0,0,0,.3.36,3.83,3.83,0,0,0,.47.31l.65.33c.25.13.49.25.71.39a3.09,3.09,0,0,1,.59.46,2,2,0,0,1,.41.55,1.67,1.67,0,0,1,.14.69,1.71,1.71,0,0,1-.2.88,1.67,1.67,0,0,1-.54.58,2.5,2.5,0,0,1-.8.33,4.77,4.77,0,0,1-1,.1l-.41,0A4.53,4.53,0,0,1,4,35.43a3.36,3.36,0,0,1-.48-.13A1.45,1.45,0,0,1,3.17,35.14Z"/>
    <path class="cls-5" d="M12.89,33.12H9.36a1.9,1.9,0,0,0,.45,1.29,1.56,1.56,0,0,0,1.18.45,2.48,2.48,0,0,0,1.56-.55v.75a2.92,2.92,0,0,1-1.75.48,2.09,2.09,0,0,1-1.66-.69,3.18,3.18,0,0,1,0-3.81,2.13,2.13,0,0,1,1.65-.74,1.84,1.84,0,0,1,1.51.64,2.63,2.63,0,0,1,.54,1.76Zm-.82-.68a1.62,1.62,0,0,0-.33-1.08,1.14,1.14,0,0,0-.92-.38,1.28,1.28,0,0,0-1,.4,1.84,1.84,0,0,0-.49,1.06Z"/>
    <path class="cls-5" d="M17.68,35.19a2.61,2.61,0,0,1-1.37.35,2.27,2.27,0,0,1-1.72-.7,2.51,2.51,0,0,1-.66-1.8,2.78,2.78,0,0,1,.71-2,2.47,2.47,0,0,1,1.89-.75,2.51,2.51,0,0,1,1.16.25v.82A2,2,0,0,0,16.5,31a1.63,1.63,0,0,0-1.26.54A2.14,2.14,0,0,0,14.75,33a2,2,0,0,0,.46,1.38,1.59,1.59,0,0,0,1.24.51,2,2,0,0,0,1.23-.43Z"/>
    <path class="cls-5" d="M21.67,31.23a1,1,0,0,0-.61-.16,1,1,0,0,0-.85.48,2.22,2.22,0,0,0-.35,1.32v2.55h-.8v-5h.8v1h0a1.79,1.79,0,0,1,.52-.82,1.2,1.2,0,0,1,.79-.3,1.22,1.22,0,0,1,.48.07Z"/>
    <path class="cls-5" d="M26.73,33.12H23.2a1.85,1.85,0,0,0,.45,1.29,1.54,1.54,0,0,0,1.18.45,2.45,2.45,0,0,0,1.55-.55v.75a2.89,2.89,0,0,1-1.74.48A2.11,2.11,0,0,1,23,34.85a2.79,2.79,0,0,1-.6-1.91A2.73,2.73,0,0,1,23,31a2.12,2.12,0,0,1,1.64-.74,1.86,1.86,0,0,1,1.52.64,2.63,2.63,0,0,1,.54,1.76Zm-.82-.68a1.68,1.68,0,0,0-.34-1.08,1.12,1.12,0,0,0-.91-.38,1.28,1.28,0,0,0-1,.4,1.78,1.78,0,0,0-.49,1.06Z"/>
    <path class="cls-5" d="M30.43,35.37a1.61,1.61,0,0,1-.75.16c-.87,0-1.31-.49-1.31-1.47v-3h-.86v-.68h.86V29.2l.8-.26v1.48h1.26v.68H29.17v2.82a1.23,1.23,0,0,0,.17.72.68.68,0,0,0,.57.21.85.85,0,0,0,.52-.16Z"/>
    <path class="cls-5" d="M33.76,35.54A2.31,2.31,0,0,1,32,34.83,2.57,2.57,0,0,1,31.33,33,2.7,2.7,0,0,1,32,31a2.49,2.49,0,0,1,1.86-.71,2.25,2.25,0,0,1,1.75.69,2.73,2.73,0,0,1,.63,1.91,2.65,2.65,0,0,1-.68,1.91A2.33,2.33,0,0,1,33.76,35.54ZM33.82,31a1.53,1.53,0,0,0-1.23.52A2.2,2.2,0,0,0,32.15,33a2,2,0,0,0,.45,1.4,1.55,1.55,0,0,0,1.22.51,1.48,1.48,0,0,0,1.19-.5,2.18,2.18,0,0,0,.42-1.43A2.22,2.22,0,0,0,35,31.48,1.45,1.45,0,0,0,33.82,31Z"/>
  </g>
  <g id="group1060-114-2" data-name="group1060-114">
    <g id="shape1061-115-2" data-name="shape1061-115">
      <path id="path1292-2" data-name="path1292" class="cls-6" d="M17.37,98.69H10.65a.59.59,0,0,1-.61-.57V91.68H12V89.91H24.4a.59.59,0,0,1,.62.57v.09a6.4,6.4,0,0,1,1,.33v-.42A1.53,1.53,0,0,0,24.4,89h-13l-2.34,2.2v6.9a1.51,1.51,0,0,0,1.57,1.46h7.28A5.8,5.8,0,0,1,17.37,98.69Z"/>
    </g>
    <g id="group1062-117-2" data-name="group1062-117">
      <g id="group1063-118-2" data-name="group1063-118">
        <g id="shape1064-119-2" data-name="shape1064-119">
          <path id="path1301-2" data-name="path1301" class="cls-6" d="M26,100.22l2.34,3.26-2.17-.54-.61,1.64-2.34-2.88-1.75,2.88-.8-1.74-2.17.54L20.65,100s.58.92,2.69.92S26,100.22,26,100.22Z"/>
        </g>
      </g>
      <g id="group1065-121-2" data-name="group1065-121">
        <g id="shape1066-122-2" data-name="shape1066-122">
          <path id="path1309-2" data-name="path1309" class="cls-6" d="M23.43,99.63a3.43,3.43,0,1,1,0-6.83,3.43,3.43,0,1,1,0,6.83Zm0-6.06a2.66,2.66,0,1,0,2.9,2.65A2.78,2.78,0,0,0,23.43,93.57Z"/>
        </g>
      </g>
      <g id="group1067-124-2" data-name="group1067-124">
        <g id="shape1068-125-2" data-name="shape1068-125">
          <path id="path1317-2" data-name="path1317" class="cls-6" d="M23.43,101.44a5.24,5.24,0,1,1,0-10.45,5.24,5.24,0,1,1,0,10.45Zm0-9.69a4.48,4.48,0,1,0,0,8.93,4.48,4.48,0,1,0,0-8.93Z"/>
        </g>
      </g>
    </g>
  </g>
  <g id="group1060-114-3" data-name="group1060-114">
    <g id="shape1061-115-3" data-name="shape1061-115">
      <path id="path1292-3" data-name="path1292" class="cls-6" d="M17.37,21.52H10.65A.59.59,0,0,1,10,21V14.51H12V12.74H24.4a.59.59,0,0,1,.62.57v.09a6.4,6.4,0,0,1,1,.33v-.42a1.53,1.53,0,0,0-1.58-1.46h-13l-2.34,2.2V21a1.51,1.51,0,0,0,1.57,1.46h7.28A5.8,5.8,0,0,1,17.37,21.52Z"/>
    </g>
    <g id="group1062-117-3" data-name="group1062-117">
      <g id="group1063-118-3" data-name="group1063-118">
        <g id="shape1064-119-3" data-name="shape1064-119">
          <path id="path1301-3" data-name="path1301" class="cls-6" d="M26,23.05l2.34,3.26-2.17-.54-.61,1.64-2.34-2.88-1.75,2.88-.8-1.74-2.17.54,2.14-3.42s.58.92,2.69.92S26,23.05,26,23.05Z"/>
        </g>
      </g>
      <g id="group1065-121-3" data-name="group1065-121">
        <g id="shape1066-122-3" data-name="shape1066-122">
          <path id="path1309-3" data-name="path1309" class="cls-6" d="M23.43,22.45A3.58,3.58,0,0,1,19.72,19a3.58,3.58,0,0,1,3.71-3.42A3.58,3.58,0,0,1,27.15,19,3.58,3.58,0,0,1,23.43,22.45Zm0-6.06A2.78,2.78,0,0,0,20.54,19a2.91,2.91,0,0,0,5.79,0A2.79,2.79,0,0,0,23.43,16.39Z"/>
        </g>
      </g>
      <g id="group1067-124-3" data-name="group1067-124">
        <g id="shape1068-125-3" data-name="shape1068-125">
          <path id="path1317-3" data-name="path1317" class="cls-6" d="M23.43,24.27a5.48,5.48,0,0,1-5.7-5.22,5.48,5.48,0,0,1,5.7-5.23,5.48,5.48,0,0,1,5.69,5.23A5.47,5.47,0,0,1,23.43,24.27Zm0-9.69a4.7,4.7,0,0,0-4.88,4.47,4.69,4.69,0,0,0,4.88,4.46,4.68,4.68,0,0,0,4.87-4.46A4.69,4.69,0,0,0,23.43,14.58Z"/>
        </g>
      </g>
    </g>
  </g>
  <g>
    <g id="group1113-2">
      <g id="shape1114-3">
        <path id="path21" class="cls-5" d="M80.65,24.41a11.81,11.81,0,0,1-16.84-2.29A12.56,12.56,0,0,1,66.05,4.83a11.82,11.82,0,0,1,16.84,2.3A12.54,12.54,0,0,1,80.65,24.41ZM84.31,6A13.57,13.57,0,0,0,65,3.37,14.43,14.43,0,0,0,62.4,23.24a13.62,13.62,0,0,0,11,5.55,13.45,13.45,0,0,0,8.39-2.92A14.44,14.44,0,0,0,84.31,6Z"/>
      </g>
    </g>
    <g id="group1115-5">
      <g id="group1116-6">
        <g id="group1117-7">
          <g id="shape1118-8">
            <path id="path33" class="cls-5" d="M66.68,17.19a17,17,0,0,1-2-2.35,18.28,18.28,0,0,0-1.66,6.88c.11.16.11.29.23.44a12.55,12.55,0,0,0,2,2.05A14.13,14.13,0,0,1,66.68,17.19Z"/>
          </g>
        </g>
        <g id="shape1119-10">
          <path id="path39" class="cls-5" d="M71.29,7.75a21,21,0,0,0-3.33,3,15.71,15.71,0,0,0-1.61,2,15.42,15.42,0,0,0,1.9,2.46,16.32,16.32,0,0,1,2.2-2.56,26.47,26.47,0,0,1,3.13-2.61C72.78,9.31,72,8.54,71.29,7.75Z"/>
        </g>
        <g id="group1120-12">
          <g id="shape1121-13">
            <path id="path46" class="cls-5" d="M82.76,7A12,12,0,0,0,81,5.13a12.53,12.53,0,0,0-8,1.53c.76.84,1.51,1.63,2.24,2.36C79.63,6.59,82.76,7,82.76,7Z"/>
          </g>
        </g>
        <g id="group1122-15">
          <g id="shape1123-16">
            <path id="path54" class="cls-5" d="M65,15a19.82,19.82,0,0,1,1.19-2.06,9.84,9.84,0,0,1-1.6-6.79,13.09,13.09,0,0,0-1.29,1.6C62.87,9.34,62.85,11.9,65,15Z"/>
          </g>
        </g>
        <g id="group1124-18">
          <g id="shape1125-19">
            <path id="path62" class="cls-5" d="M70.52,17.37a21.6,21.6,0,0,1-2.27-2.14,14.25,14.25,0,0,0-1.14,1.95,23.54,23.54,0,0,0,2.09,1.91,19.12,19.12,0,0,0,12.56,4.38,9,9,0,0,0,1.54-1.94C82.07,21.79,76.81,22.48,70.52,17.37Z"/>
          </g>
        </g>
        <g id="group1126-21">
          <g id="shape1127-22">
            <path id="path70" class="cls-5" d="M65.16,14.83a15.72,15.72,0,0,0,2,2.35,15.36,15.36,0,0,1,1.14-1.95,15.42,15.42,0,0,1-1.9-2.46A15.58,15.58,0,0,0,65.16,14.83Z"/>
          </g>
        </g>
        <g id="group1128-24">
          <g id="shape1129-25">
            <path id="path78" class="cls-5" d="M73.58,10.07a97,97,0,0,0,11.15,8.82,9.82,9.82,0,0,0,.33-1.05A95.51,95.51,0,0,1,75.23,9Q74.44,9.47,73.58,10.07Z"/>
          </g>
        </g>
        <g id="group1130-27">
          <g id="shape1131-28">
            <path id="path86" class="cls-5" d="M73,6.66q-1.65-1.77-3.36-3.8A10.05,10.05,0,0,0,68,3.52a26.3,26.3,0,0,0,3.24,4.22A17.22,17.22,0,0,1,73,6.66Z"/>
          </g>
        </g>
        <g id="shape1132-30">
          <path id="path92" class="cls-5" d="M73.06,6.62a18.74,18.74,0,0,0-1.87,1.19c.72.78,1.45,1.59,2.25,2.35.57-.4,1.34-.88,1.87-1.18C74.57,8.25,73.82,7.46,73.06,6.62Z"/>
        </g>
        <g id="shape1133-32">
          <path id="path97" class="cls-5" d="M72.86,6.52a16.24,16.24,0,0,0-1.67,1.12c.72.79,1.74,1.81,2.54,2.57.57-.4,1-.8,1.58-1.11C74.57,8.38,73.61,7.35,72.86,6.52Z"/>
        </g>
      </g>
      <g id="group1134-34">
        <g id="shape1135-35">
          <path id="path105" class="cls-5" d="M78.92,13.07a2.7,2.7,0,0,0-.48,3.7,2.56,2.56,0,0,0,3.63.51,2.72,2.72,0,0,0,.48-3.72A2.55,2.55,0,0,0,78.92,13.07Z"/>
        </g>
      </g>
      <g id="group1136-37">
        <g id="shape1137-38">
          <path id="path113" class="cls-5" d="M73.75,19.2a2.52,2.52,0,0,0-.45,3.44,2.37,2.37,0,0,0,3.36.45,2.49,2.49,0,0,0,.44-3.43A2.36,2.36,0,0,0,73.75,19.2Z"/>
        </g>
      </g>
      <g id="group1138-40">
        <g id="shape1139-41">
          <path id="path121" class="cls-5" d="M64.6,11.87a3.79,3.79,0,0,0-.68,5.21,3.58,3.58,0,0,0,5.1.7,3.8,3.8,0,0,0,.67-5.23A3.59,3.59,0,0,0,64.6,11.87Z"/>
        </g>
      </g>
    </g>
  </g>
  <g>
    <g>
      <path class="cls-9" d="M107,154V131.82C107,113.88,106,92,144,92"/>
      <path class="cls-9" d="M87.59,165.63h8.24c6.36,0,11.15-3.46,11.15-9.41v-16.7"/>
    </g>
    <g>
      <path class="cls-9" d="M106.19,29.55V51.92c0,18.06-1,40.08,37,40.08"/>
      <path class="cls-9" d="M89.12,16.36h7.26c5.59,0,9.81,3.67,9.81,10V44.08"/>
    </g>
    <g>
      <g id="shape1048-85">
        <g id="use1001">
          <g id="lend5">
            <path id="path998" class="cls-10" d="M181,87.78l8,4-8,4a9,9,0,0,0,0-8"/>
          </g>
        </g>
      </g>
      <g id="shape1049-91">
        <path class="cls-10" d="M181,87.79l8,4-8,4a9,9,0,0,0,0-8"/>
      </g>
      <g id="shape1070-129">
        <path class="cls-10" d="M181,87.79l8,4-8,4a9.06,9.06,0,0,0,0-8"/>
      </g>
      <rect class="cls-11" x="91.55" y="91.49" width="91.09" height="1" rx="0.42"/>
    </g>
  </g>
</svg>
