<svg xmlns="http://www.w3.org/2000/svg" width="224.94" height="200.3" viewBox="0 0 224.94 200.3"><title>OJ104440668</title><path d="M211.09,79h-20.5a1.09,1.09,0,0,0-1.09,1.1V96.88a1.09,1.09,0,0,0,1.09,1.1h5.28a3.29,3.29,0,0,0,3.21,2.27,3.38,3.38,0,0,0,0-6.75,3.29,3.29,0,0,0-3.21,2.27h-4.19v-12H210v12h-3.45a7.61,7.61,0,0,0-7.46-6.56,8.25,8.25,0,0,0-3.64.92l1,2a5.27,5.27,0,0,1,2.55-.67,5.46,5.46,0,0,1,0,10.91,5.27,5.27,0,0,1-2.55-.67l-1,2a7.51,7.51,0,0,0,3.64.92A7.61,7.61,0,0,0,206.54,98h4.55a1.09,1.09,0,0,0,1.09-1.1V80.13A1.14,1.14,0,0,0,211.09,79Z" fill="#008bfd" fill-rule="evenodd"/><path d="M73.65,106H59.44V77.6H73.65v7.67h.76V76.83H58.68v29.91H74.41v-2.32h-.76Z" fill="#0078d7" fill-rule="evenodd"/><path d="M72.88,78.39H60.24V83H72.88ZM63.3,80.31h6.53v.76H63.3Zm6.59,1.84H63.27v-.76h6.62Z" fill="#0078d7" fill-rule="evenodd"/><path d="M60.21,83.74V86.8h8.6V85.27h4.08V83.74Z" fill="#0078d7" fill-rule="evenodd"/><rect x="60.21" y="87.57" width="8.6" height="2.68" fill="#0078d7"/><path d="M60.21,105.21H72.86v-.8H68.78V91h-8.6v14.17Zm1.53-2.74H64v1.21H61.74Z" fill="#0078d7" fill-rule="evenodd"/><path d="M83.43,102.15H81v-1.87H78.46v1.87H76a1.32,1.32,0,0,0-1.31,1.15h10A1.29,1.29,0,0,0,83.43,102.15Z" fill="#0078d7" fill-rule="evenodd"/><path d="M88.27,88.17H71.17a.65.65,0,0,0-.67.61V98.91a.65.65,0,0,0,.67.6h17.1a.64.64,0,0,0,.67-.6V88.78A.63.63,0,0,0,88.27,88.17Zm-1,9.84H72.19V89.7H87.25Z" fill="#0078d7" fill-rule="evenodd"/><path d="M83.63,95.52V92.08l-3.51-1.84L76.62,92v3.54l3.5,1.81Zm-4.4-2.29.89-.45.86.45-.86.48Zm0-1.15.86-.44.86.44-.86.48Zm1.91,4.53-1,.51v-.93l1-.51Zm0-1.18-1,.51V95l1-.51Zm0-1.12-1,.51V93.9l1-.51Zm-.82-1.65.86-.45.89.45-.86.44Zm2,3.34-.95.51v-.92l.95-.51Zm0-1.18-.95.51v-.92l.95-.51Zm0-1.14-.95.51v-.9l.95-.51Zm1.05,1.75-.86.44V95l.86-.45Zm0-1.15-.86.45V93.8l.86-.44Zm0-1.14-.86.44v-.92l.86-.45Zm-.19-1.06-.89.45-.89-.45.86-.44Zm-1.11-.57-.89.45-.86-.45.86-.44Zm-2-1.05.86.45-.86.44-.89-.44ZM79,91.07l.86.44L79,92l-.86-.45Zm-1.08.57.89.44-.89.45-.9-.45Zm-.26,4.27-.86-.45v-.92l.86.44Zm0-1.18-.86-.45v-.92l.86.44Zm0-1.15-.86-.44v-.9l.86.45Zm1.18,2.93-1-.51v-.92l1,.51Zm0-1.18-1-.51V93.9l1,.51Zm0-1.14-1-.51v-.9l1,.51Zm-.7-1.53.89-.45.86.45-.89.48ZM80,97.12l-1-.51v-.89l1,.5ZM80,96l-1-.51v-.92l1,.51Zm0-1.15-1-.51v-.92l1,.51Z" fill="#0078d7" fill-rule="evenodd"/><path d="M84.06,154.79H63.56a1.09,1.09,0,0,0-1.09,1.1v16.75a1.09,1.09,0,0,0,1.09,1.1h5.28A3.29,3.29,0,0,0,72.05,176a3.38,3.38,0,0,0,0-6.75,3.29,3.29,0,0,0-3.21,2.27H64.65v-12H83v12H79.51A7.61,7.61,0,0,0,72.05,165a8.25,8.25,0,0,0-3.64.92l1,2a5.27,5.27,0,0,1,2.55-.67,5.46,5.46,0,0,1,0,10.91,5.27,5.27,0,0,1-2.55-.67l-1,2a7.51,7.51,0,0,0,3.64.92,7.61,7.61,0,0,0,7.46-6.56h4.55a1.09,1.09,0,0,0,1.09-1.1V155.89A1.14,1.14,0,0,0,84.06,154.79Z" fill="#008bfd" fill-rule="evenodd"/><path d="M181.12,88c0,.08,0,.15.08.22a9.46,9.46,0,0,1,.7,2.77h-1.26c-.36,0-.81,0-1.31,0q-23.16,0-46.31,0c-16.48,0-27.75-11.24-27.75-27.68,0-13.52,0-27,0-40.55,0-4.62-3.18-8.5-7.48-8.85a50.47,50.47,0,0,0-10.28.1.7.7,0,0,0,0,1c2.54.56,5.1.21,7.64.24,5.83.08,8.66,2.88,8.66,8.73,0,13.6-.13,27.19,0,40.78.14,11.42,5.6,19.71,15.68,25,.62.33,1.36.49,1.83,1.21-9.81,0-19.57,0-29.32,0-.91,0-2-.38-2.64.65l0,.17c.69,1,1.73.66,2.65.67q14.13,0,28.27,0h2.52c-.74.48-.91.62-1.11.72-11.32,5.41-16.81,14.45-16.79,26.94,0,12.3,0,24.6,0,36.9,0,5.82-3.78,9.57-9.58,9.68-3.28.06-6.55.07-9.82.1-.83.15-.8.71-.63,1.33a.41.41,0,0,0,.56.19c3,0,5.92-.05,8.88-.06,7.94,0,12.24-4.33,12.25-12.35V119.42c0-15.62,11.3-27,26.88-27h48.54a9.57,9.57,0,0,1-.68,3.19v0l8.08-4C186.4,90.43,184.24,88.85,181.12,88Z" fill="#505050"/><path d="M80.65,24.41a11.81,11.81,0,0,1-16.84-2.29A12.55,12.55,0,0,1,66.05,4.83a11.72,11.72,0,0,1,7.29-2.54,11.89,11.89,0,0,1,9.55,4.84A12.54,12.54,0,0,1,80.65,24.41ZM84.31,6A13.57,13.57,0,0,0,65,3.36,14.45,14.45,0,0,0,62.4,23.24a13.65,13.65,0,0,0,11,5.55,13.45,13.45,0,0,0,8.39-2.92A14.44,14.44,0,0,0,84.31,6Z" fill="#008bfd" fill-rule="evenodd"/><path d="M66.68,17.18a16.47,16.47,0,0,1-2-2.35,18.32,18.32,0,0,0-1.66,6.89c.11.16.11.28.23.44a13.4,13.4,0,0,0,2,2.05A14.18,14.18,0,0,1,66.68,17.18Z" fill="#008bfd" fill-rule="evenodd"/><path d="M71.29,7.75a21,21,0,0,0-3.33,3,16.41,16.41,0,0,0-1.61,2,15,15,0,0,0,1.9,2.47,16.84,16.84,0,0,1,2.2-2.57,27.32,27.32,0,0,1,3.13-2.6C72.78,9.31,72,8.54,71.29,7.75Z" fill="#008bfd" fill-rule="evenodd"/><path d="M82.76,7A12.55,12.55,0,0,0,81,5.12a12.55,12.55,0,0,0-8,1.54c.76.84,1.51,1.62,2.24,2.36C79.63,6.59,82.76,7,82.76,7Z" fill="#008bfd" fill-rule="evenodd"/><path d="M70.52,17.36a21.57,21.57,0,0,1-2.27-2.13,13.68,13.68,0,0,0-1.14,1.95,23.54,23.54,0,0,0,2.09,1.91,19.18,19.18,0,0,0,12.56,4.38,9,9,0,0,0,1.54-1.94C82.07,21.79,76.81,22.47,70.52,17.36Z" fill="#008bfd" fill-rule="evenodd"/><path d="M65.16,14.83a16.24,16.24,0,0,0,2,2.35,14.7,14.7,0,0,1,1.14-1.95,15,15,0,0,1-1.9-2.47A16.34,16.34,0,0,0,65.16,14.83Z" fill="#008bfd" fill-rule="evenodd"/><path d="M73.58,10.07a98.21,98.21,0,0,0,11.15,8.82,9.82,9.82,0,0,0,.33-1.05A96.8,96.8,0,0,1,75.23,9,16,16,0,0,0,73.58,10.07Z" fill="#008bfd" fill-rule="evenodd"/><path d="M73,6.65q-1.65-1.77-3.36-3.79A10.05,10.05,0,0,0,68,3.52a26.74,26.74,0,0,0,3.24,4.22A15.69,15.69,0,0,1,73,6.65Z" fill="#008bfd" fill-rule="evenodd"/><path d="M66.9,13.55Q65,11.24,63,8.59a11.77,11.77,0,0,0-1.83.87A34.39,34.39,0,0,0,64.93,15,17,17,0,0,1,66.9,13.55Z" fill="#008bfd" fill-rule="evenodd"/><path d="M73.06,6.62a18.74,18.74,0,0,0-1.87,1.19c.72.78,1.45,1.59,2.25,2.35.57-.4,1.34-.89,1.87-1.19C74.57,8.24,73.82,7.46,73.06,6.62Z" fill="#008bfd" fill-rule="evenodd"/><path d="M72.86,6.51a14.89,14.89,0,0,0-1.67,1.13c.72.79,1.74,1.81,2.54,2.57.57-.4,1-.81,1.58-1.11C74.57,8.37,73.61,7.35,72.86,6.51Z" fill="#008bfd" fill-rule="evenodd"/><path d="M78.92,13.07a2.7,2.7,0,0,0-.48,3.7,2.55,2.55,0,0,0,3.63.5,2.71,2.71,0,0,0,.48-3.71A2.54,2.54,0,0,0,78.92,13.07Z" fill="#008bfd" fill-rule="evenodd"/><path d="M64.61,11.87a3.79,3.79,0,0,0-.68,5.21,3.58,3.58,0,0,0,5.1.7,3.8,3.8,0,0,0,.67-5.23A3.58,3.58,0,0,0,64.61,11.87Z" fill="#008bfd" fill-rule="evenodd"/><path d="M14.91,21.09H8.19a.59.59,0,0,1-.61-.57V14.08H9.52V12.31H21.94a.59.59,0,0,1,.62.57V13a6.4,6.4,0,0,1,1,.33v-.42a1.53,1.53,0,0,0-1.58-1.46H9l-2.34,2.2v6.9A1.51,1.51,0,0,0,8.19,22h7.28A5.8,5.8,0,0,1,14.91,21.09Z" fill="gray" fill-rule="evenodd"/><path d="M22.57,23.19l2.34,3.26-2.17-.54-.61,1.64-2.34-2.88L18,27.55l-.8-1.74-2.17.54,2.14-3.42s.58.92,2.69.92S22.57,23.19,22.57,23.19Z" fill="gray" fill-rule="evenodd"/><path d="M20.77,22.59a3.58,3.58,0,0,1-3.71-3.41,3.58,3.58,0,0,1,3.71-3.42,3.58,3.58,0,0,1,3.72,3.42A3.58,3.58,0,0,1,20.77,22.59Zm0-6.06a2.78,2.78,0,0,0-2.89,2.65,2.78,2.78,0,0,0,2.89,2.65,2.79,2.79,0,0,0,2.9-2.65A2.79,2.79,0,0,0,20.77,16.53Z" fill="gray" fill-rule="evenodd"/><path d="M20.77,24.4a5.48,5.48,0,0,1-5.7-5.22A5.48,5.48,0,0,1,20.77,14a5.48,5.48,0,0,1,5.69,5.23A5.47,5.47,0,0,1,20.77,24.4Zm0-9.69a4.7,4.7,0,0,0-4.88,4.47,4.69,4.69,0,0,0,4.88,4.46,4.68,4.68,0,0,0,4.87-4.46A4.69,4.69,0,0,0,20.77,14.71Z" fill="gray" fill-rule="evenodd"/><path d="M15,97.68H8.25a.59.59,0,0,1-.61-.57V90.67H9.58V88.9H22a.59.59,0,0,1,.62.57v.09a6.4,6.4,0,0,1,1,.33v-.42A1.53,1.53,0,0,0,22,88H9l-2.34,2.2v6.9a1.51,1.51,0,0,0,1.57,1.46h7.28A5.8,5.8,0,0,1,15,97.68Z" fill="gray" fill-rule="evenodd"/><path d="M22.64,99.78,25,103l-2.17-.54-.61,1.64-2.34-2.88-1.75,2.88-.8-1.74-2.17.54,2.14-3.42s.58.92,2.69.92S22.64,99.78,22.64,99.78Z" fill="gray" fill-rule="evenodd"/><path d="M20.83,99.18a3.43,3.43,0,1,1,0-6.83,3.43,3.43,0,1,1,0,6.83Zm0-6.06a2.66,2.66,0,1,0,0,5.3,2.66,2.66,0,1,0,0-5.3Z" fill="gray" fill-rule="evenodd"/><path d="M20.84,101a5.24,5.24,0,1,1,0-10.45,5.24,5.24,0,1,1,0,10.45Zm0-9.69a4.48,4.48,0,1,0,0,8.93,4.48,4.48,0,1,0,0-8.93Z" fill="gray" fill-rule="evenodd"/><path d="M14.9,168.84H8.18a.59.59,0,0,1-.61-.57v-6.44H9.51v-1.77H21.93a.59.59,0,0,1,.62.57v.09a6.4,6.4,0,0,1,1,.33v-.42a1.53,1.53,0,0,0-1.58-1.46H9l-2.34,2.2v6.9a1.51,1.51,0,0,0,1.57,1.46h7.28A5.8,5.8,0,0,1,14.9,168.84Z" fill="gray" fill-rule="evenodd"/><path d="M22.56,170.94l2.34,3.26-2.17-.54-.61,1.64-2.34-2.88L18,175.3l-.8-1.74-2.17.54,2.14-3.42s.58.92,2.69.92S22.56,170.94,22.56,170.94Z" fill="gray" fill-rule="evenodd"/><path d="M20.76,170.34a3.43,3.43,0,1,1,0-6.83,3.43,3.43,0,1,1,0,6.83Zm0-6.06a2.66,2.66,0,1,0,0,5.3,2.66,2.66,0,1,0,0-5.3Z" fill="gray" fill-rule="evenodd"/><path d="M20.76,172.16a5.24,5.24,0,1,1,0-10.45,5.24,5.24,0,1,1,0,10.45Zm0-9.69a4.48,4.48,0,1,0,0,8.93,4.48,4.48,0,1,0,0-8.93Z" fill="gray" fill-rule="evenodd"/><path d="M5.84,35.18v-.77a1.48,1.48,0,0,0,.32.21,3.52,3.52,0,0,0,.39.16l.41.1.38,0a1.51,1.51,0,0,0,.91-.22.77.77,0,0,0,.3-.65.81.81,0,0,0-.1-.39,1,1,0,0,0-.28-.31,2.91,2.91,0,0,0-.41-.27l-.52-.26a5.67,5.67,0,0,1-.55-.31,2.53,2.53,0,0,1-.44-.33A1.37,1.37,0,0,1,6,31.75a1.13,1.13,0,0,1-.11-.54A1.22,1.22,0,0,1,6,30.54a1.38,1.38,0,0,1,.44-.46,1.84,1.84,0,0,1,.62-.28,2.82,2.82,0,0,1,.71-.09,2.75,2.75,0,0,1,1.21.2v.74a2.16,2.16,0,0,0-1.27-.34,2,2,0,0,0-.43,0,1.08,1.08,0,0,0-.38.15.7.7,0,0,0-.38.65.72.72,0,0,0,.08.37,1,1,0,0,0,.23.29,3.13,3.13,0,0,0,.38.25l.52.26c.2.1.39.2.57.31a2.2,2.2,0,0,1,.47.37,1.54,1.54,0,0,1,.33.44,1.2,1.2,0,0,1,.12.55,1.37,1.37,0,0,1-.17.7,1.22,1.22,0,0,1-.43.47,1.92,1.92,0,0,1-.64.26,3.69,3.69,0,0,1-.76.08l-.32,0c-.14,0-.27,0-.4-.06l-.39-.1A1.58,1.58,0,0,1,5.84,35.18Z"/><path d="M13.24,33.57H10.42a1.49,1.49,0,0,0,.36,1,1.24,1.24,0,0,0,.94.36A2,2,0,0,0,13,34.52v.6a2.34,2.34,0,0,1-1.39.38A1.68,1.68,0,0,1,10.24,35a2.23,2.23,0,0,1-.49-1.54,2.2,2.2,0,0,1,.53-1.52,1.72,1.72,0,0,1,1.32-.59,1.5,1.5,0,0,1,1.21.51,2.1,2.1,0,0,1,.43,1.41ZM12.58,33a1.32,1.32,0,0,0-.26-.86.94.94,0,0,0-.74-.31,1,1,0,0,0-.76.33,1.42,1.42,0,0,0-.4.84Z"/><path d="M16.7,35.22a2.07,2.07,0,0,1-1.1.28,1.78,1.78,0,0,1-1.38-.56,2,2,0,0,1-.52-1.44,2.25,2.25,0,0,1,.56-1.59,2,2,0,0,1,1.51-.6,2.06,2.06,0,0,1,.93.2v.66a1.6,1.6,0,0,0-.95-.32,1.28,1.28,0,0,0-1,.44,1.87,1.87,0,0,0,0,2.27,1.28,1.28,0,0,0,1,.4,1.58,1.58,0,0,0,1-.35Z"/><path d="M19.51,32.06a.74.74,0,0,0-.48-.13.82.82,0,0,0-.69.38,1.83,1.83,0,0,0-.27,1.06v2h-.64v-4h.64v.82h0a1.4,1.4,0,0,1,.42-.66,1.11,1.11,0,0,1,1-.18Z"/><path d="M23.18,33.57H20.36a1.49,1.49,0,0,0,.36,1,1.24,1.24,0,0,0,.94.36,2,2,0,0,0,1.24-.44v.6a2.34,2.34,0,0,1-1.39.38A1.68,1.68,0,0,1,20.18,35a2.23,2.23,0,0,1-.49-1.54,2.2,2.2,0,0,1,.53-1.52,1.72,1.72,0,0,1,1.32-.59,1.49,1.49,0,0,1,1.21.51,2.1,2.1,0,0,1,.43,1.41ZM22.53,33a1.38,1.38,0,0,0-.27-.86.94.94,0,0,0-.73-.31,1,1,0,0,0-.77.33,1.35,1.35,0,0,0-.39.84Z"/><path d="M25.77,35.37a1.31,1.31,0,0,1-.6.12q-1.05,0-1.05-1.17V32h-.69v-.54h.69v-1l.64-.21v1.19h1V32h-1v2.26a.92.92,0,0,0,.13.57.56.56,0,0,0,.46.17.68.68,0,0,0,.42-.13Z"/><path d="M28.05,35.5a1.85,1.85,0,0,1-1.41-.56,2,2,0,0,1-.53-1.49,2.15,2.15,0,0,1,.55-1.57,2,2,0,0,1,1.49-.57,1.81,1.81,0,0,1,1.39.55,2.18,2.18,0,0,1,.51,1.53,2.1,2.1,0,0,1-.55,1.53A1.87,1.87,0,0,1,28.05,35.5Zm.05-3.65a1.23,1.23,0,0,0-1,.42,1.73,1.73,0,0,0-.36,1.16,1.64,1.64,0,0,0,.37,1.12,1.35,1.35,0,0,0,1.93,0,1.76,1.76,0,0,0,.33-1.14,1.8,1.8,0,0,0-.33-1.16A1.2,1.2,0,0,0,28.1,31.85Z"/><path d="M5.84,112.35v-.77a1.48,1.48,0,0,0,.32.21,2.27,2.27,0,0,0,.39.16,3.06,3.06,0,0,0,.41.1l.38,0a1.51,1.51,0,0,0,.91-.22.77.77,0,0,0,.3-.65.81.81,0,0,0-.1-.39,1.16,1.16,0,0,0-.28-.31,2.23,2.23,0,0,0-.41-.26L7.24,110l-.55-.3a2.56,2.56,0,0,1-.44-.34,1.46,1.46,0,0,1-.29-.41,1.2,1.2,0,0,1-.11-.55,1.24,1.24,0,0,1,.17-.67,1.48,1.48,0,0,1,.44-.46,2.06,2.06,0,0,1,.62-.28,2.82,2.82,0,0,1,.71-.09,2.75,2.75,0,0,1,1.21.2v.74a2.16,2.16,0,0,0-1.27-.34,2,2,0,0,0-.43,0,1.08,1.08,0,0,0-.38.15.78.78,0,0,0-.28.26.71.71,0,0,0-.1.39.72.72,0,0,0,.08.37.89.89,0,0,0,.23.29,3.13,3.13,0,0,0,.38.25l.52.26c.2.1.39.21.57.32a2.53,2.53,0,0,1,.47.36,1.54,1.54,0,0,1,.33.44,1.25,1.25,0,0,1,.12.56,1.39,1.39,0,0,1-.17.7,1.26,1.26,0,0,1-.43.46,1.92,1.92,0,0,1-.64.26,3.11,3.11,0,0,1-.76.08,2,2,0,0,1-.32,0,2.57,2.57,0,0,1-.4-.06l-.39-.1A1.12,1.12,0,0,1,5.84,112.35Z"/><path d="M13.24,110.74H10.42a1.47,1.47,0,0,0,.36,1,1.24,1.24,0,0,0,.94.36,1.92,1.92,0,0,0,1.24-.44v.6a2.27,2.27,0,0,1-1.39.38,1.68,1.68,0,0,1-1.33-.54,2.2,2.2,0,0,1-.49-1.53,2.22,2.22,0,0,1,.53-1.53,1.71,1.71,0,0,1,1.32-.58,1.52,1.52,0,0,1,1.21.5,2.1,2.1,0,0,1,.43,1.41Zm-.66-.54a1.35,1.35,0,0,0-.26-.87.94.94,0,0,0-.74-.3,1,1,0,0,0-.76.32,1.44,1.44,0,0,0-.4.85Z"/><path d="M16.7,112.4a2.16,2.16,0,0,1-1.1.27,1.81,1.81,0,0,1-1.38-.55,2,2,0,0,1-.52-1.45,2.23,2.23,0,0,1,.56-1.58,2,2,0,0,1,1.51-.6,2.06,2.06,0,0,1,.93.19v.66a1.59,1.59,0,0,0-.95-.31,1.27,1.27,0,0,0-1,.43,1.65,1.65,0,0,0-.4,1.16,1.62,1.62,0,0,0,.37,1.11,1.28,1.28,0,0,0,1,.4,1.63,1.63,0,0,0,1-.34Z"/><path d="M19.51,109.23a.74.74,0,0,0-.48-.13.81.81,0,0,0-.69.39,1.79,1.79,0,0,0-.27,1.05v2h-.64v-4h.64v.82h0a1.32,1.32,0,0,1,.42-.65,1,1,0,0,1,.63-.24,1.25,1.25,0,0,1,.38,0Z"/><path d="M23.18,110.74H20.36a1.47,1.47,0,0,0,.36,1,1.24,1.24,0,0,0,.94.36,1.92,1.92,0,0,0,1.24-.44v.6a2.27,2.27,0,0,1-1.39.38,1.68,1.68,0,0,1-1.33-.54,2.2,2.2,0,0,1-.49-1.53,2.22,2.22,0,0,1,.53-1.53,1.71,1.71,0,0,1,1.32-.58,1.51,1.51,0,0,1,1.21.5,2.1,2.1,0,0,1,.43,1.41Zm-.65-.54a1.41,1.41,0,0,0-.27-.87.93.93,0,0,0-.73-.3,1,1,0,0,0-.77.32,1.38,1.38,0,0,0-.39.85Z"/><path d="M25.77,112.54a1.3,1.3,0,0,1-.6.13c-.7,0-1.05-.39-1.05-1.18v-2.36h-.69v-.55h.69v-1l.64-.2v1.18h1v.55h-1v2.25a1,1,0,0,0,.13.58.59.59,0,0,0,.46.17.68.68,0,0,0,.42-.14Z"/><path d="M28.05,112.67a1.82,1.82,0,0,1-1.41-.56,2,2,0,0,1-.53-1.48,2.17,2.17,0,0,1,.55-1.58,2,2,0,0,1,1.49-.56,1.77,1.77,0,0,1,1.39.55,2.47,2.47,0,0,1,0,3.06A1.9,1.9,0,0,1,28.05,112.67ZM28.1,109a1.23,1.23,0,0,0-1,.42,1.69,1.69,0,0,0-.36,1.15,1.62,1.62,0,0,0,.37,1.12,1.35,1.35,0,0,0,1.93,0,1.76,1.76,0,0,0,.33-1.14,1.8,1.8,0,0,0-.33-1.16A1.19,1.19,0,0,0,28.1,109Z"/><path d="M5.84,183.15v-.77a3,3,0,0,0,.32.21,2.26,2.26,0,0,0,.39.15,2,2,0,0,0,.41.1,1.82,1.82,0,0,0,.38,0,1.5,1.5,0,0,0,.91-.23.75.75,0,0,0,.3-.64.88.88,0,0,0-.1-.4,1.13,1.13,0,0,0-.28-.3,2.24,2.24,0,0,0-.41-.27l-.52-.27-.55-.3a2.53,2.53,0,0,1-.44-.33,1.5,1.5,0,0,1-.29-.42,1.16,1.16,0,0,1-.11-.54,1.22,1.22,0,0,1,.17-.67,1.52,1.52,0,0,1,.44-.47,2,2,0,0,1,.62-.27,2.82,2.82,0,0,1,.71-.09,2.75,2.75,0,0,1,1.21.2v.74a2.17,2.17,0,0,0-1.27-.35,2,2,0,0,0-.43,0,1.31,1.31,0,0,0-.38.14.81.81,0,0,0-.28.27.67.67,0,0,0-.1.39.75.75,0,0,0,.08.37.86.86,0,0,0,.23.28,2.27,2.27,0,0,0,.38.25l.52.27c.2.1.39.2.57.31a2.53,2.53,0,0,1,.47.36,1.73,1.73,0,0,1,.33.45,1.2,1.2,0,0,1,.12.55,1.37,1.37,0,0,1-.17.7,1.29,1.29,0,0,1-.43.47,1.92,1.92,0,0,1-.64.26,3.69,3.69,0,0,1-.76.08l-.32,0-.4-.07a2.22,2.22,0,0,1-.39-.1A1.13,1.13,0,0,1,5.84,183.15Z"/><path d="M13.24,181.54H10.42a1.51,1.51,0,0,0,.36,1,1.24,1.24,0,0,0,.94.36,1.93,1.93,0,0,0,1.24-.45v.61a2.34,2.34,0,0,1-1.39.38,1.66,1.66,0,0,1-1.33-.55,2.54,2.54,0,0,1,0-3,1.72,1.72,0,0,1,1.32-.59,1.5,1.5,0,0,1,1.21.51,2.1,2.1,0,0,1,.43,1.41Zm-.66-.55a1.3,1.3,0,0,0-.26-.86.91.91,0,0,0-.74-.31,1,1,0,0,0-.76.32,1.44,1.44,0,0,0-.4.85Z"/><path d="M16.7,183.19a2.07,2.07,0,0,1-1.1.28,1.82,1.82,0,0,1-1.38-.56,2,2,0,0,1-.52-1.44,2.25,2.25,0,0,1,.56-1.59,2,2,0,0,1,1.51-.6,2.06,2.06,0,0,1,.93.2v.65a1.59,1.59,0,0,0-.95-.31,1.28,1.28,0,0,0-1,.44,1.85,1.85,0,0,0,0,2.26,1.29,1.29,0,0,0,1,.41,1.64,1.64,0,0,0,1-.35Z"/><path d="M19.51,180a.85.85,0,0,0-1.17.26,1.83,1.83,0,0,0-.27,1.06v2h-.64v-4h.64v.82h0a1.4,1.4,0,0,1,.42-.66,1,1,0,0,1,.63-.24,1,1,0,0,1,.38.06Z"/><path d="M23.18,181.54H20.36a1.51,1.51,0,0,0,.36,1,1.24,1.24,0,0,0,.94.36,1.93,1.93,0,0,0,1.24-.45v.61a2.34,2.34,0,0,1-1.39.38,1.66,1.66,0,0,1-1.33-.55,2.54,2.54,0,0,1,0-3,1.72,1.72,0,0,1,1.32-.59,1.49,1.49,0,0,1,1.21.51,2.1,2.1,0,0,1,.43,1.41Zm-.65-.55a1.36,1.36,0,0,0-.27-.86.9.9,0,0,0-.73-.31,1,1,0,0,0-.77.32,1.38,1.38,0,0,0-.39.85Z"/><path d="M25.77,183.34a1.31,1.31,0,0,1-.6.12q-1.05,0-1.05-1.17v-2.37h-.69v-.54h.69v-1l.64-.21v1.19h1v.54h-1v2.26a.94.94,0,0,0,.13.57.56.56,0,0,0,.46.17.68.68,0,0,0,.42-.13Z"/><path d="M28.05,183.47a1.85,1.85,0,0,1-1.41-.56,2,2,0,0,1-.53-1.49,2.15,2.15,0,0,1,.55-1.57,2,2,0,0,1,1.49-.57,1.77,1.77,0,0,1,1.39.55,2.18,2.18,0,0,1,.51,1.53,2.1,2.1,0,0,1-.55,1.53A1.87,1.87,0,0,1,28.05,183.47Zm.05-3.65a1.23,1.23,0,0,0-1,.42,1.73,1.73,0,0,0-.36,1.16,1.64,1.64,0,0,0,.37,1.12,1.23,1.23,0,0,0,1,.41,1.19,1.19,0,0,0,1-.4,2.17,2.17,0,0,0,0-2.3A1.2,1.2,0,0,0,28.1,179.82Z"/><path d="M44.16,193.3h-.73l-.59-1.57H40.46l-.55,1.57h-.74l2.15-5.6H42Zm-1.54-2.16-.87-2.39a2.21,2.21,0,0,1-.09-.37h0a1.43,1.43,0,0,1-.09.37l-.87,2.39Z"/><path d="M45.4,191.18v2.12h-.66v-5.6h1.54a2,2,0,0,1,1.39.43,1.58,1.58,0,0,1,.5,1.24,1.68,1.68,0,0,1-.55,1.3,2.1,2.1,0,0,1-1.48.51Zm0-2.89v2.3h.69a1.54,1.54,0,0,0,1-.31,1.1,1.1,0,0,0,.36-.88c0-.74-.44-1.11-1.31-1.11Z"/><path d="M49.64,193.3H49v-5.6h.66Z"/><path d="M57.78,189.3l-1.2,4h-.67l-.82-2.87a1.91,1.91,0,0,1-.06-.37h0a1.66,1.66,0,0,1-.08.37L54,193.3h-.65l-1.21-4h.68l.82,3a1.68,1.68,0,0,1,.06.36h0a1.75,1.75,0,0,1,.07-.36l.92-3h.59l.83,3a2.84,2.84,0,0,1,0,.36h0a1.34,1.34,0,0,1,.06-.36l.81-3Z"/><path d="M61.49,191.46H58.67a1.49,1.49,0,0,0,.36,1,1.24,1.24,0,0,0,.94.36,2,2,0,0,0,1.25-.44v.6a2.37,2.37,0,0,1-1.4.38,1.7,1.7,0,0,1-1.33-.54,2.27,2.27,0,0,1-.48-1.54,2.15,2.15,0,0,1,.53-1.52,1.7,1.7,0,0,1,1.31-.59,1.49,1.49,0,0,1,1.21.51,2.1,2.1,0,0,1,.43,1.41Zm-.65-.55a1.27,1.27,0,0,0-.27-.86.9.9,0,0,0-.73-.31,1,1,0,0,0-.77.33,1.44,1.44,0,0,0-.39.84Z"/><path d="M62.88,192.72h0v.58h-.64v-5.92h.64V190h0a1.52,1.52,0,0,1,1.38-.8,1.46,1.46,0,0,1,1.21.54,2.23,2.23,0,0,1,.43,1.44,2.47,2.47,0,0,1-.49,1.61,1.62,1.62,0,0,1-1.33.6A1.31,1.31,0,0,1,62.88,192.72Zm0-1.61v.55a1.19,1.19,0,0,0,.33.85,1,1,0,0,0,.81.34,1.1,1.1,0,0,0,.92-.44,2.05,2.05,0,0,0,.33-1.24,1.64,1.64,0,0,0-.31-1,1,1,0,0,0-.84-.38,1.14,1.14,0,0,0-.9.39A1.46,1.46,0,0,0,62.86,191.11Z"/><path d="M72.05,193.3h-.64v-.68h0a1.61,1.61,0,0,1-2.58.23,2.13,2.13,0,0,1-.46-1.46,2.42,2.42,0,0,1,.5-1.59,1.66,1.66,0,0,1,1.34-.6,1.29,1.29,0,0,1,1.2.65h0v-2.47h.64Zm-.64-1.81v-.59a1.16,1.16,0,0,0-.32-.82,1,1,0,0,0-.81-.34,1.09,1.09,0,0,0-.92.43,1.85,1.85,0,0,0-.34,1.19,1.72,1.72,0,0,0,.32,1.09,1.06,1.06,0,0,0,.87.4,1.11,1.11,0,0,0,.87-.39A1.43,1.43,0,0,0,71.41,191.49Z"/><path d="M76.32,191.46H73.5a1.49,1.49,0,0,0,.36,1,1.24,1.24,0,0,0,.94.36,2,2,0,0,0,1.25-.44v.6a2.39,2.39,0,0,1-1.4.38,1.7,1.7,0,0,1-1.33-.54,2.28,2.28,0,0,1-.49-1.54,2.2,2.2,0,0,1,.53-1.52,1.73,1.73,0,0,1,1.32-.59,1.49,1.49,0,0,1,1.21.51,2.1,2.1,0,0,1,.43,1.41Zm-.65-.55a1.32,1.32,0,0,0-.27-.86.9.9,0,0,0-.73-.31,1,1,0,0,0-.77.33,1.44,1.44,0,0,0-.39.84Z"/><path d="M82.42,193.3h-.64v-.68h0a1.61,1.61,0,0,1-2.58.23,2.18,2.18,0,0,1-.45-1.46,2.42,2.42,0,0,1,.5-1.59,1.64,1.64,0,0,1,1.33-.6,1.29,1.29,0,0,1,1.2.65h0v-2.47h.64Zm-.64-1.81v-.59a1.16,1.16,0,0,0-.32-.82,1.08,1.08,0,0,0-.82-.34,1.1,1.1,0,0,0-.92.43,1.91,1.91,0,0,0-.33,1.19,1.67,1.67,0,0,0,.32,1.09,1,1,0,0,0,.86.4,1.08,1.08,0,0,0,.87-.39A1.38,1.38,0,0,0,81.78,191.49Z"/><path d="M86.69,191.46H83.87a1.54,1.54,0,0,0,.35,1,1.26,1.26,0,0,0,1,.36,2,2,0,0,0,1.24-.44v.6a2.34,2.34,0,0,1-1.39.38,1.68,1.68,0,0,1-1.33-.54,2.23,2.23,0,0,1-.49-1.54,2.2,2.2,0,0,1,.53-1.52A1.7,1.7,0,0,1,85,189.2a1.51,1.51,0,0,1,1.22.51,2.1,2.1,0,0,1,.43,1.41Zm-.66-.55a1.32,1.32,0,0,0-.26-.86.91.91,0,0,0-.74-.31,1,1,0,0,0-.77.33,1.44,1.44,0,0,0-.39.84Z"/><path d="M93.1,193.3h-.64V191a1.71,1.71,0,0,0-.21-1,.76.76,0,0,0-.69-.3.85.85,0,0,0-.69.38,1.39,1.39,0,0,0-.29.9v2.28h-.64v-2.38c0-.79-.31-1.18-.91-1.18a.85.85,0,0,0-.7.36,1.46,1.46,0,0,0-.27.92v2.28h-.64v-4h.64v.63h0a1.38,1.38,0,0,1,1.25-.73,1.16,1.16,0,0,1,.71.23,1.18,1.18,0,0,1,.42.6,1.44,1.44,0,0,1,1.33-.83c.88,0,1.32.55,1.32,1.63Z"/><path d="M95.74,193.39a1.89,1.89,0,0,1-1.42-.56,2.08,2.08,0,0,1-.52-1.49,2.15,2.15,0,0,1,.55-1.57,2,2,0,0,1,1.48-.57,1.81,1.81,0,0,1,1.4.55,2.17,2.17,0,0,1,.5,1.53,2.13,2.13,0,0,1-.54,1.53A1.87,1.87,0,0,1,95.74,193.39Zm.05-3.65a1.23,1.23,0,0,0-1,.42,1.73,1.73,0,0,0-.36,1.16,1.64,1.64,0,0,0,.36,1.12,1.27,1.27,0,0,0,1,.41,1.16,1.16,0,0,0,.95-.4,2.11,2.11,0,0,0,0-2.3A1.16,1.16,0,0,0,95.79,189.74Z"/><path d="M101.84,193.3h-.64V191c0-.85-.31-1.28-.93-1.28a1,1,0,0,0-.8.36,1.35,1.35,0,0,0-.31.92v2.28h-.64v-4h.64V190h0a1.45,1.45,0,0,1,1.31-.76,1.21,1.21,0,0,1,1,.43,1.89,1.89,0,0,1,.35,1.22Z"/><path d="M103.13,188.28a.4.4,0,0,1-.29-.12.37.37,0,0,1-.12-.29.41.41,0,0,1,.12-.3.4.4,0,0,1,.29-.12.41.41,0,0,1,.42.42.4.4,0,0,1-.12.29A.41.41,0,0,1,103.13,188.28Zm.31,5h-.64v-4h.64Z"/><path d="M106.17,193.39a1.85,1.85,0,0,1-1.41-.56,2,2,0,0,1-.53-1.49,2.15,2.15,0,0,1,.55-1.57,2,2,0,0,1,1.49-.57,1.81,1.81,0,0,1,1.39.55,2.18,2.18,0,0,1,.51,1.53,2.14,2.14,0,0,1-.55,1.53A1.87,1.87,0,0,1,106.17,193.39Zm0-3.65a1.23,1.23,0,0,0-1,.42,1.73,1.73,0,0,0-.36,1.16,1.59,1.59,0,0,0,.37,1.12,1.23,1.23,0,0,0,1,.41,1.16,1.16,0,0,0,1-.4,2.11,2.11,0,0,0,0-2.3A1.16,1.16,0,0,0,106.22,189.74Z"/><path d="M188.82,115.82h-.73l-.59-1.57h-2.38l-.56,1.57h-.73l2.15-5.6h.68Zm-1.54-2.16-.88-2.38c0-.08-.05-.21-.08-.38h0a1.52,1.52,0,0,1-.09.38l-.87,2.38Z"/><path d="M190,115.24h0v2.42h-.64v-5.84H190v.71h0a1.51,1.51,0,0,1,1.38-.8,1.46,1.46,0,0,1,1.21.54,2.19,2.19,0,0,1,.44,1.44,2.5,2.5,0,0,1-.49,1.6,1.64,1.64,0,0,1-1.34.61A1.34,1.34,0,0,1,190,115.24Zm0-1.61v.56a1.16,1.16,0,0,0,.32.84,1.14,1.14,0,0,0,1.73-.1,2.05,2.05,0,0,0,.33-1.24,1.57,1.57,0,0,0-.31-1,1,1,0,0,0-.84-.38,1.11,1.11,0,0,0-.89.39A1.4,1.4,0,0,0,190,113.63Z"/><path d="M194.42,115.82h-.64V109.9h.64Z"/><path d="M195.8,110.81a.4.4,0,0,1-.29-.12.44.44,0,0,1,0-.6.4.4,0,0,1,.29-.12.41.41,0,0,1,.3.12.38.38,0,0,1,.13.3.39.39,0,0,1-.13.3A.41.41,0,0,1,195.8,110.81Zm.32,5h-.64v-4h.64Z"/><path d="M199.9,115.64a2.13,2.13,0,0,1-1.09.28,1.82,1.82,0,0,1-1.38-.56,2,2,0,0,1-.53-1.44,2.21,2.21,0,0,1,.57-1.59,2,2,0,0,1,1.51-.6,2.12,2.12,0,0,1,.93.19v.66a1.63,1.63,0,0,0-.95-.31,1.27,1.27,0,0,0-1,.44,1.65,1.65,0,0,0-.39,1.15,1.57,1.57,0,0,0,.37,1.11,1.26,1.26,0,0,0,1,.41,1.61,1.61,0,0,0,1-.35Z"/><path d="M203.49,115.82h-.64v-.62h0a1.46,1.46,0,0,1-2.17.4,1.11,1.11,0,0,1-.34-.84c0-.75.44-1.18,1.32-1.3l1.2-.17c0-.68-.27-1-.82-1a2,2,0,0,0-1.31.49v-.66a2.5,2.5,0,0,1,1.36-.37c.94,0,1.41.5,1.41,1.49Zm-.64-2-1,.13a1.69,1.69,0,0,0-.68.22.64.64,0,0,0-.22.56.6.6,0,0,0,.21.48.81.81,0,0,0,.55.19,1,1,0,0,0,.79-.34,1.16,1.16,0,0,0,.31-.84Z"/><path d="M207.19,115.64a2.16,2.16,0,0,1-1.1.28,1.82,1.82,0,0,1-1.38-.56,2,2,0,0,1-.52-1.44,2.25,2.25,0,0,1,.56-1.59,2,2,0,0,1,1.51-.6,2.06,2.06,0,0,1,.93.19v.66a1.59,1.59,0,0,0-.95-.31,1.25,1.25,0,0,0-1,.44,1.85,1.85,0,0,0,0,2.26,1.29,1.29,0,0,0,1,.41,1.64,1.64,0,0,0,1-.35Z"/><path d="M208.24,110.81a.4.4,0,0,1-.29-.12.44.44,0,0,1,0-.6.4.4,0,0,1,.29-.12.41.41,0,0,1,.3.12.42.42,0,0,1,.13.3.43.43,0,0,1-.13.3A.41.41,0,0,1,208.24,110.81Zm.32,5h-.64v-4h.64Z"/><path d="M211.28,115.92a1.85,1.85,0,0,1-1.41-.56,2.1,2.1,0,0,1-.53-1.49,2.17,2.17,0,0,1,.55-1.58,2,2,0,0,1,1.49-.56,1.77,1.77,0,0,1,1.39.55,2.18,2.18,0,0,1,.51,1.53,2.15,2.15,0,0,1-.54,1.53A1.93,1.93,0,0,1,211.28,115.92Zm.05-3.65a1.23,1.23,0,0,0-1,.42,1.76,1.76,0,0,0-.35,1.16,1.66,1.66,0,0,0,.36,1.12,1.23,1.23,0,0,0,1,.41,1.18,1.18,0,0,0,1-.41,1.74,1.74,0,0,0,.33-1.14,1.8,1.8,0,0,0-.33-1.16A1.18,1.18,0,0,0,211.33,112.27Zm.94-2.49-1,1.28h-.5l.87-1.28Z"/><path d="M217.38,115.82h-.64v-2.28c0-.85-.31-1.27-.93-1.27a1,1,0,0,0-.8.36,1.37,1.37,0,0,0-.31.91v2.28h-.64v-4h.64v.67h0a1.43,1.43,0,0,1,1.31-.76,1.22,1.22,0,0,1,1,.42,1.9,1.9,0,0,1,.35,1.23Z"/><path d="M195.09,125.42h-.73l-.59-1.57h-2.38l-.56,1.57h-.73l2.15-5.6h.68Zm-1.54-2.16-.88-2.38a1.73,1.73,0,0,1-.08-.38h0a3.63,3.63,0,0,1-.09.38l-.87,2.38Z"/><path d="M196.33,123.3v2.12h-.66v-5.6h1.54a2,2,0,0,1,1.39.44,1.55,1.55,0,0,1,.5,1.23,1.73,1.73,0,0,1-.55,1.31,2.1,2.1,0,0,1-1.49.5Zm0-2.89v2.3H197a1.52,1.52,0,0,0,1-.31,1.1,1.1,0,0,0,.36-.88c0-.74-.44-1.11-1.31-1.11Z"/><path d="M200.57,125.42h-.66v-5.6h.66Z"/><path d="M207.08,125.42h-.64v-.68h0a1.46,1.46,0,0,1-1.37.78,1.49,1.49,0,0,1-1.21-.54,2.22,2.22,0,0,1-.45-1.46,2.38,2.38,0,0,1,.5-1.59,1.64,1.64,0,0,1,1.33-.6,1.27,1.27,0,0,1,1.2.65h0V119.5h.64Zm-.64-1.81V123a1.17,1.17,0,0,0-.32-.82,1.1,1.1,0,0,0-.81-.33,1.12,1.12,0,0,0-.93.43,1.88,1.88,0,0,0-.33,1.18,1.73,1.73,0,0,0,.32,1.1,1.06,1.06,0,0,0,.87.4,1.08,1.08,0,0,0,.86-.39A1.41,1.41,0,0,0,206.44,123.61Z"/><path d="M211.35,123.58h-2.82a1.47,1.47,0,0,0,.36,1,1.19,1.19,0,0,0,.94.37,1.93,1.93,0,0,0,1.24-.45v.6a2.27,2.27,0,0,1-1.39.39,1.69,1.69,0,0,1-1.33-.55,2.54,2.54,0,0,1,0-3,1.67,1.67,0,0,1,1.32-.59,1.5,1.5,0,0,1,1.21.51,2.07,2.07,0,0,1,.43,1.41Zm-.66-.54a1.3,1.3,0,0,0-.26-.86.91.91,0,0,0-.74-.31,1.07,1.07,0,0,0-.77.32,1.5,1.5,0,0,0-.39.85Z"/><path d="M189.81,135h-.64v-.68h0a1.61,1.61,0,0,1-2.58.24,2.22,2.22,0,0,1-.45-1.46,2.33,2.33,0,0,1,.5-1.59,1.63,1.63,0,0,1,1.33-.6,1.27,1.27,0,0,1,1.2.65h0V129.1h.64Zm-.64-1.81v-.59a1.13,1.13,0,0,0-.32-.82,1.07,1.07,0,0,0-.81-.33,1.09,1.09,0,0,0-.92.43,1.82,1.82,0,0,0-.34,1.18,1.73,1.73,0,0,0,.32,1.1,1.16,1.16,0,0,0,1.74,0A1.45,1.45,0,0,0,189.17,133.21Z"/><path d="M194.08,133.18h-2.82a1.47,1.47,0,0,0,.36,1,1.21,1.21,0,0,0,.95.37,2,2,0,0,0,1.24-.45v.6a2.3,2.3,0,0,1-1.4.39,1.7,1.7,0,0,1-1.33-.55,2.23,2.23,0,0,1-.48-1.53,2.15,2.15,0,0,1,.53-1.52,1.66,1.66,0,0,1,1.31-.59,1.52,1.52,0,0,1,1.22.51,2.14,2.14,0,0,1,.42,1.41Zm-.65-.54a1.25,1.25,0,0,0-.27-.86.89.89,0,0,0-.73-.31,1.06,1.06,0,0,0-.77.32,1.5,1.5,0,0,0-.39.85Z"/><path d="M200.49,135h-.64v-2.29a1.82,1.82,0,0,0-.2-1,.8.8,0,0,0-.69-.29.84.84,0,0,0-.7.37,1.45,1.45,0,0,0-.29.9V135h-.64v-2.37c0-.79-.3-1.18-.91-1.18a.82.82,0,0,0-.69.35,1.48,1.48,0,0,0-.28.92V135h-.64v-4h.64v.64h0a1.35,1.35,0,0,1,1.24-.73,1.13,1.13,0,0,1,.72.23,1.11,1.11,0,0,1,.41.6,1.42,1.42,0,0,1,1.33-.83c.88,0,1.32.54,1.32,1.63Z"/><path d="M203.14,135.12a1.86,1.86,0,0,1-1.42-.56,2.1,2.1,0,0,1-.53-1.49,2.13,2.13,0,0,1,.55-1.57,2,2,0,0,1,1.49-.57,1.79,1.79,0,0,1,1.4.55,2.22,2.22,0,0,1,.5,1.53,2.15,2.15,0,0,1-.54,1.53A1.92,1.92,0,0,1,203.14,135.12Zm0-3.65a1.21,1.21,0,0,0-1,.42,1.71,1.71,0,0,0-.36,1.16,1.66,1.66,0,0,0,.36,1.12,1.25,1.25,0,0,0,1,.41,1.17,1.17,0,0,0,1-.41,1.74,1.74,0,0,0,.33-1.14,1.8,1.8,0,0,0-.33-1.16A1.16,1.16,0,0,0,203.18,131.47Z"/><path d="M209.23,135h-.64v-2.28c0-.85-.31-1.27-.93-1.27a1,1,0,0,0-.79.36,1.33,1.33,0,0,0-.32.91V135h-.64v-4h.64v.67h0a1.43,1.43,0,0,1,1.31-.76,1.22,1.22,0,0,1,1,.42,1.84,1.84,0,0,1,.35,1.23Z"/><path d="M210.53,130a.42.42,0,1,1,0-.84.44.44,0,0,1,.3.12.41.41,0,0,1,.12.3.42.42,0,0,1-.12.3A.44.44,0,0,1,210.53,130Zm.31,5h-.64v-4h.64Z"/><path d="M213.57,135.12a1.89,1.89,0,0,1-1.42-.56,2.1,2.1,0,0,1-.53-1.49,2.17,2.17,0,0,1,.55-1.57,2,2,0,0,1,1.49-.57,1.79,1.79,0,0,1,1.4.55,2.22,2.22,0,0,1,.5,1.53,2.15,2.15,0,0,1-.54,1.53A1.9,1.9,0,0,1,213.57,135.12Zm.05-3.65a1.21,1.21,0,0,0-1,.42,1.71,1.71,0,0,0-.36,1.16,1.66,1.66,0,0,0,.36,1.12,1.25,1.25,0,0,0,1,.41,1.16,1.16,0,0,0,.95-.41,1.74,1.74,0,0,0,.33-1.14,1.8,1.8,0,0,0-.33-1.16A1.16,1.16,0,0,0,213.62,131.47Z"/><path d="M55.68,117.26H55l-.59-1.57H52l-.56,1.57h-.73l2.15-5.61h.68Zm-1.54-2.16-.88-2.39a2.36,2.36,0,0,1-.08-.38h0a1.94,1.94,0,0,1-.09.38l-.87,2.39Z"/><path d="M56.83,116.68h0v2.42h-.65v-5.84h.65v.7h0a1.53,1.53,0,0,1,1.38-.8,1.46,1.46,0,0,1,1.21.54,2.23,2.23,0,0,1,.43,1.44,2.53,2.53,0,0,1-.48,1.61,1.64,1.64,0,0,1-1.34.6A1.33,1.33,0,0,1,56.83,116.68Zm0-1.62v.56a1.16,1.16,0,0,0,.32.84,1,1,0,0,0,.82.35,1.09,1.09,0,0,0,.91-.44,2.05,2.05,0,0,0,.33-1.24,1.58,1.58,0,0,0-.31-1,1,1,0,0,0-.84-.38,1.11,1.11,0,0,0-.89.39A1.4,1.4,0,0,0,56.82,115.06Z"/><path d="M61.28,117.26h-.64v-5.93h.64Z"/><path d="M62.66,112.24a.4.4,0,0,1-.29-.12.38.38,0,0,1-.12-.29.41.41,0,0,1,.12-.3.4.4,0,0,1,.29-.12.41.41,0,0,1,.3.12.42.42,0,0,1,.13.3.43.43,0,0,1-.43.41Zm.32,5h-.64v-4H63Z"/><path d="M66.76,117.07a2,2,0,0,1-1.09.28,1.82,1.82,0,0,1-1.38-.56,2,2,0,0,1-.53-1.44,2.21,2.21,0,0,1,.57-1.59,2,2,0,0,1,1.51-.6,2.12,2.12,0,0,1,.93.2V114a1.64,1.64,0,0,0-1-.31,1.3,1.3,0,0,0-1,.44,1.67,1.67,0,0,0-.39,1.15,1.57,1.57,0,0,0,.37,1.11,1.26,1.26,0,0,0,1,.41,1.63,1.63,0,0,0,1-.35Z"/><path d="M70.35,117.26h-.64v-.63h0a1.35,1.35,0,0,1-1.24.72,1.31,1.31,0,0,1-.93-.32,1.08,1.08,0,0,1-.34-.84c0-.74.44-1.18,1.32-1.3l1.2-.17c0-.68-.27-1-.82-1a2,2,0,0,0-1.31.49v-.65a2.51,2.51,0,0,1,1.36-.38c.94,0,1.41.5,1.41,1.49Zm-.64-2-1,.14a1.55,1.55,0,0,0-.68.22.73.73,0,0,0,0,1,.81.81,0,0,0,.55.18,1,1,0,0,0,.79-.33,1.2,1.2,0,0,0,.31-.85Z"/><path d="M74.05,117.07a2.07,2.07,0,0,1-1.1.28,1.82,1.82,0,0,1-1.38-.56,2,2,0,0,1-.52-1.44,2.21,2.21,0,0,1,.56-1.59,2,2,0,0,1,1.51-.6,2.06,2.06,0,0,1,.93.2V114a1.59,1.59,0,0,0-1-.31,1.32,1.32,0,0,0-1,.44,1.67,1.67,0,0,0-.39,1.15,1.57,1.57,0,0,0,.37,1.11,1.29,1.29,0,0,0,1,.41,1.64,1.64,0,0,0,1-.35Z"/><path d="M75.1,112.24a.4.4,0,0,1-.29-.12.38.38,0,0,1-.12-.29.41.41,0,0,1,.12-.3.4.4,0,0,1,.29-.12.41.41,0,0,1,.42.42.4.4,0,0,1-.12.29A.41.41,0,0,1,75.1,112.24Zm.31,5h-.64v-4h.64Z"/><path d="M78.14,117.35a1.85,1.85,0,0,1-1.41-.56,2,2,0,0,1-.53-1.49,2.15,2.15,0,0,1,.55-1.57,2,2,0,0,1,1.49-.57,1.81,1.81,0,0,1,1.39.55,2.18,2.18,0,0,1,.51,1.53,2.1,2.1,0,0,1-.55,1.53A1.87,1.87,0,0,1,78.14,117.35Zm0-3.65a1.23,1.23,0,0,0-1,.42,1.73,1.73,0,0,0-.36,1.16,1.64,1.64,0,0,0,.37,1.12,1.23,1.23,0,0,0,1,.41,1.19,1.19,0,0,0,1-.4,2.17,2.17,0,0,0,0-2.3A1.2,1.2,0,0,0,78.19,113.7Zm.94-2.48-1,1.28h-.49l.87-1.28Z"/><path d="M84.24,117.26H83.6V115c0-.84-.31-1.27-.93-1.27a1,1,0,0,0-.8.36,1.34,1.34,0,0,0-.31.91v2.29h-.64v-4h.64v.66h0a1.42,1.42,0,0,1,1.31-.76,1.19,1.19,0,0,1,1,.43,1.89,1.89,0,0,1,.35,1.22Z"/><path d="M90.57,117.26h-.64v-.68h0a1.61,1.61,0,0,1-2.58.23,2.15,2.15,0,0,1-.46-1.46,2.42,2.42,0,0,1,.5-1.59,1.66,1.66,0,0,1,1.34-.6,1.29,1.29,0,0,1,1.2.65h0v-2.48h.64Zm-.64-1.81v-.59a1.14,1.14,0,0,0-.32-.82,1,1,0,0,0-.81-.34,1.09,1.09,0,0,0-.92.43,1.85,1.85,0,0,0-.34,1.19,1.72,1.72,0,0,0,.32,1.09,1.06,1.06,0,0,0,.87.4,1.11,1.11,0,0,0,.87-.39A1.43,1.43,0,0,0,89.93,115.45Z"/><path d="M94.84,115.42H92a1.49,1.49,0,0,0,.36,1,1.24,1.24,0,0,0,.94.36,2,2,0,0,0,1.25-.44v.6a2.39,2.39,0,0,1-1.4.38,1.67,1.67,0,0,1-1.33-.55,2.23,2.23,0,0,1-.48-1.53,2.19,2.19,0,0,1,.52-1.52,1.73,1.73,0,0,1,1.32-.59,1.49,1.49,0,0,1,1.21.51,2.1,2.1,0,0,1,.43,1.41Zm-.65-.55a1.25,1.25,0,0,0-.27-.86.9.9,0,0,0-.73-.31,1,1,0,0,0-.77.33,1.44,1.44,0,0,0-.39.84Z"/><path d="M56.25,125H53.42a1.51,1.51,0,0,0,.36,1,1.26,1.26,0,0,0,.95.36A2,2,0,0,0,56,126v.61a2.36,2.36,0,0,1-1.39.38,1.69,1.69,0,0,1-1.34-.55,2.23,2.23,0,0,1-.48-1.53,2.2,2.2,0,0,1,.53-1.52,1.7,1.7,0,0,1,1.31-.59,1.51,1.51,0,0,1,1.22.51,2.16,2.16,0,0,1,.43,1.41Zm-.66-.55a1.27,1.27,0,0,0-.27-.86.89.89,0,0,0-.73-.31,1,1,0,0,0-.77.33,1.44,1.44,0,0,0-.39.84Z"/><path d="M56.73,126.71V126a1.91,1.91,0,0,0,1.16.39c.56,0,.84-.19.84-.56a.45.45,0,0,0-.07-.27.76.76,0,0,0-.2-.2,1.57,1.57,0,0,0-.29-.16l-.35-.14a4.32,4.32,0,0,1-.47-.21,1.28,1.28,0,0,1-.34-.24.79.79,0,0,1-.2-.31,1,1,0,0,1-.07-.4.91.91,0,0,1,.13-.5,1.17,1.17,0,0,1,.34-.36,1.67,1.67,0,0,1,.49-.22,2.24,2.24,0,0,1,.57-.08,2.27,2.27,0,0,1,.93.18v.65a1.81,1.81,0,0,0-1-.29,1.15,1.15,0,0,0-.33,0,1,1,0,0,0-.25.12.85.85,0,0,0-.16.17.59.59,0,0,0-.05.23.72.72,0,0,0,.05.27.58.58,0,0,0,.17.18.87.87,0,0,0,.27.15l.35.15a3.66,3.66,0,0,1,.48.2,2.07,2.07,0,0,1,.36.25,1,1,0,0,1,.23.31,1,1,0,0,1,.08.42,1,1,0,0,1-.14.51,1,1,0,0,1-.34.36,1.68,1.68,0,0,1-.51.22,2.35,2.35,0,0,1-.6.07A2.28,2.28,0,0,1,56.73,126.71Z"/><path d="M62.86,126.67a2,2,0,0,1-1.1.28,1.82,1.82,0,0,1-1.38-.56,2,2,0,0,1-.52-1.44,2.25,2.25,0,0,1,.56-1.59,2,2,0,0,1,1.52-.6,2,2,0,0,1,.92.2v.65a1.66,1.66,0,0,0-1-.31,1.28,1.28,0,0,0-1,.44,1.85,1.85,0,0,0,0,2.26,1.26,1.26,0,0,0,1,.41,1.64,1.64,0,0,0,1-.35Z"/><path d="M65.67,123.5a.88.88,0,0,0-1.17.26,1.83,1.83,0,0,0-.27,1.06v2h-.64v-4h.64v.82h0a1.4,1.4,0,0,1,.42-.66.94.94,0,0,1,.63-.23,1,1,0,0,1,.38,0Z"/><path d="M66.46,121.84a.41.41,0,0,1-.3-.12.38.38,0,0,1-.12-.29.41.41,0,0,1,.42-.42.4.4,0,0,1,.29.12.38.38,0,0,1,.13.3.37.37,0,0,1-.13.29A.4.4,0,0,1,66.46,121.84Zm.31,5h-.64v-4h.64Z"/><path d="M69.68,126.82a1.28,1.28,0,0,1-.6.12q-1,0-1-1.17V123.4h-.69v-.54H68v-1l.64-.21v1.19h1v.54h-1v2.26a.93.93,0,0,0,.14.57.52.52,0,0,0,.45.17.68.68,0,0,0,.42-.13Z"/><path d="M72,127a1.87,1.87,0,0,1-1.42-.56A2.09,2.09,0,0,1,70,124.9a2.19,2.19,0,0,1,.55-1.57,2,2,0,0,1,1.49-.57,1.83,1.83,0,0,1,1.4.55,2.22,2.22,0,0,1,.5,1.53,2.13,2.13,0,0,1-.54,1.53A1.88,1.88,0,0,1,72,127Zm0-3.65a1.21,1.21,0,0,0-1,.42,1.73,1.73,0,0,0-.36,1.16A1.64,1.64,0,0,0,71,126a1.25,1.25,0,0,0,1,.41,1.16,1.16,0,0,0,1-.4,2.17,2.17,0,0,0,0-2.3A1.17,1.17,0,0,0,72,123.3Z"/><path d="M76.83,123.5a.82.82,0,0,0-.49-.12.8.8,0,0,0-.68.38,1.83,1.83,0,0,0-.28,1.06v2h-.64v-4h.64v.82h0a1.4,1.4,0,0,1,.42-.66.91.91,0,0,1,.63-.23,1,1,0,0,1,.38,0Z"/><path d="M77.61,121.84a.4.4,0,0,1-.29-.12.38.38,0,0,1-.12-.29.41.41,0,0,1,.12-.3.4.4,0,0,1,.29-.12.41.41,0,0,1,.42.42.4.4,0,0,1-.12.29A.41.41,0,0,1,77.61,121.84Zm.31,5h-.64v-4h.64Z"/><path d="M80.65,127a1.85,1.85,0,0,1-1.41-.56,2,2,0,0,1-.53-1.49,2.15,2.15,0,0,1,.55-1.57,2,2,0,0,1,1.49-.57,1.81,1.81,0,0,1,1.39.55,2.18,2.18,0,0,1,.51,1.53,2.1,2.1,0,0,1-.55,1.53A1.87,1.87,0,0,1,80.65,127Zm0-3.65a1.23,1.23,0,0,0-1,.42,1.73,1.73,0,0,0-.36,1.16,1.64,1.64,0,0,0,.37,1.12,1.23,1.23,0,0,0,1,.41,1.19,1.19,0,0,0,1-.4,2.17,2.17,0,0,0,0-2.3A1.2,1.2,0,0,0,80.7,123.3Z"/><path d="M88.79,126.86h-.64v-.68h0a1.61,1.61,0,0,1-2.58.23,2.2,2.2,0,0,1-.45-1.46,2.37,2.37,0,0,1,.5-1.59,1.63,1.63,0,0,1,1.33-.6,1.29,1.29,0,0,1,1.2.65h0v-2.48h.64Zm-.64-1.81v-.59a1.1,1.1,0,0,0-.32-.82,1,1,0,0,0-.81-.34,1.09,1.09,0,0,0-.92.43,1.91,1.91,0,0,0-.34,1.19,1.67,1.67,0,0,0,.33,1.09,1,1,0,0,0,.86.4,1.08,1.08,0,0,0,.87-.39A1.43,1.43,0,0,0,88.15,125.05Z"/><path d="M93.07,125H90.24a1.51,1.51,0,0,0,.36,1,1.26,1.26,0,0,0,1,.36,2,2,0,0,0,1.24-.45v.61a2.37,2.37,0,0,1-1.4.38,1.69,1.69,0,0,1-1.33-.55,2.23,2.23,0,0,1-.48-1.53,2.15,2.15,0,0,1,.53-1.52,1.7,1.7,0,0,1,1.31-.59,1.51,1.51,0,0,1,1.22.51,2.16,2.16,0,0,1,.43,1.41Zm-.66-.55a1.27,1.27,0,0,0-.27-.86.89.89,0,0,0-.73-.31,1,1,0,0,0-.77.33,1.44,1.44,0,0,0-.39.84Z"/><path d="M61.85,136.46h-.64v-.68h0a1.61,1.61,0,0,1-2.58.23,2.2,2.2,0,0,1-.45-1.46,2.37,2.37,0,0,1,.5-1.59,1.63,1.63,0,0,1,1.33-.6,1.29,1.29,0,0,1,1.2.65h0v-2.48h.64Zm-.64-1.81v-.59a1.1,1.1,0,0,0-.32-.82,1,1,0,0,0-.81-.34,1.09,1.09,0,0,0-.92.43,1.91,1.91,0,0,0-.34,1.19,1.67,1.67,0,0,0,.33,1.09,1,1,0,0,0,.86.4,1.08,1.08,0,0,0,.87-.39A1.43,1.43,0,0,0,61.21,134.65Z"/><path d="M66.13,134.62H63.3a1.49,1.49,0,0,0,.36,1,1.26,1.26,0,0,0,1,.36,2,2,0,0,0,1.24-.44v.6a2.37,2.37,0,0,1-1.4.38,1.69,1.69,0,0,1-1.33-.55,2.23,2.23,0,0,1-.48-1.53,2.15,2.15,0,0,1,.53-1.52,1.7,1.7,0,0,1,1.31-.59,1.51,1.51,0,0,1,1.22.51,2.16,2.16,0,0,1,.43,1.41Zm-.66-.55a1.27,1.27,0,0,0-.27-.86.89.89,0,0,0-.73-.31,1,1,0,0,0-.77.33,1.44,1.44,0,0,0-.39.84Z"/><path d="M72.54,136.46h-.65v-2.3a1.72,1.72,0,0,0-.2-1,.78.78,0,0,0-.69-.3.87.87,0,0,0-.7.38,1.43,1.43,0,0,0-.28.89v2.29h-.64v-2.38c0-.79-.31-1.18-.92-1.18a.84.84,0,0,0-.69.35,1.5,1.5,0,0,0-.27.92v2.29h-.64v-4h.64v.63h0a1.36,1.36,0,0,1,1.24-.73,1.16,1.16,0,0,1,1.14.83,1.42,1.42,0,0,1,1.32-.83c.89,0,1.33.55,1.33,1.63Z"/><path d="M75.18,136.55a1.87,1.87,0,0,1-1.42-.56,2.09,2.09,0,0,1-.53-1.49,2.19,2.19,0,0,1,.55-1.57,2,2,0,0,1,1.49-.57,1.83,1.83,0,0,1,1.4.55,2.22,2.22,0,0,1,.5,1.53,2.13,2.13,0,0,1-.54,1.53A1.88,1.88,0,0,1,75.18,136.55Zm0-3.65a1.21,1.21,0,0,0-1,.42,1.73,1.73,0,0,0-.36,1.16,1.64,1.64,0,0,0,.36,1.12,1.25,1.25,0,0,0,1,.41,1.16,1.16,0,0,0,1-.4,2.17,2.17,0,0,0,0-2.3A1.17,1.17,0,0,0,75.22,132.9Z"/><path d="M81.27,136.46h-.64v-2.29c0-.84-.31-1.27-.93-1.27a1,1,0,0,0-.79.36,1.35,1.35,0,0,0-.32.91v2.29H78v-4h.64v.66h0a1.43,1.43,0,0,1,1.31-.76,1.23,1.23,0,0,1,1,.43,1.89,1.89,0,0,1,.34,1.22Z"/><path d="M82.57,131.44a.38.38,0,0,1-.29-.12.38.38,0,0,1-.13-.29.42.42,0,0,1,.13-.3.38.38,0,0,1,.29-.12A.41.41,0,0,1,83,131a.4.4,0,0,1-.12.29A.41.41,0,0,1,82.57,131.44Zm.31,5h-.64v-4h.64Z"/><path d="M85.61,136.55a1.89,1.89,0,0,1-1.42-.56,2.08,2.08,0,0,1-.52-1.49,2.15,2.15,0,0,1,.55-1.57,2,2,0,0,1,1.48-.57,1.81,1.81,0,0,1,1.4.55,2.17,2.17,0,0,1,.5,1.53,2.13,2.13,0,0,1-.54,1.53A1.87,1.87,0,0,1,85.61,136.55Zm0-3.65a1.23,1.23,0,0,0-1,.42,1.73,1.73,0,0,0-.36,1.16,1.64,1.64,0,0,0,.36,1.12,1.27,1.27,0,0,0,1,.41,1.16,1.16,0,0,0,1-.4,2.11,2.11,0,0,0,0-2.3A1.16,1.16,0,0,0,85.66,132.9Z"/><path d="M54.17,40.06h-.72l-.6-1.57H50.48l-.56,1.57h-.73l2.15-5.6H52ZM52.64,37.9l-.88-2.38a2.39,2.39,0,0,1-.09-.38h0a3.1,3.1,0,0,1-.09.38L50.7,37.9Z"/><path d="M55.33,39.49h0V41.9h-.64V36.06h.64v.71h0a1.51,1.51,0,0,1,1.38-.8,1.46,1.46,0,0,1,1.21.54A2.23,2.23,0,0,1,58.35,38a2.47,2.47,0,0,1-.49,1.61,1.62,1.62,0,0,1-1.33.6A1.35,1.35,0,0,1,55.33,39.49Zm0-1.62v.56a1.2,1.2,0,0,0,.32.84,1.09,1.09,0,0,0,.82.35,1.06,1.06,0,0,0,.91-.45,2,2,0,0,0,.33-1.23,1.64,1.64,0,0,0-.3-1,1,1,0,0,0-.84-.38,1.14,1.14,0,0,0-.9.39A1.4,1.4,0,0,0,55.31,37.87Z"/><path d="M59.77,40.06h-.64V34.14h.64Z"/><path d="M61.16,35.05a.38.38,0,0,1-.29-.12.4.4,0,0,1-.12-.29.41.41,0,0,1,.12-.3.38.38,0,0,1,.29-.12.41.41,0,0,1,.42.42.4.4,0,0,1-.12.29A.41.41,0,0,1,61.16,35.05Zm.31,5h-.64v-4h.64Z"/><path d="M65.26,39.88a2.07,2.07,0,0,1-1.1.28,1.82,1.82,0,0,1-1.38-.56,2,2,0,0,1-.52-1.44,2.21,2.21,0,0,1,.56-1.59,2,2,0,0,1,1.51-.6,2.06,2.06,0,0,1,.93.2v.65a1.59,1.59,0,0,0-1-.31,1.32,1.32,0,0,0-1,.44,1.67,1.67,0,0,0-.39,1.15,1.57,1.57,0,0,0,.37,1.11,1.29,1.29,0,0,0,1,.41,1.64,1.64,0,0,0,1-.35Z"/><path d="M68.85,40.06h-.64v-.62h0a1.46,1.46,0,0,1-2.17.4,1.11,1.11,0,0,1-.33-.84c0-.75.44-1.18,1.32-1.3l1.2-.17c0-.68-.28-1-.83-1a2,2,0,0,0-1.3.49v-.65A2.46,2.46,0,0,1,67.44,36c.94,0,1.41.5,1.41,1.49Zm-.64-2-1,.13a1.58,1.58,0,0,0-.67.23.63.63,0,0,0-.23.56.59.59,0,0,0,.21.47.79.79,0,0,0,.56.19,1,1,0,0,0,.79-.33,1.25,1.25,0,0,0,.31-.85Z"/><path d="M72.54,39.88a2,2,0,0,1-1.09.28,1.82,1.82,0,0,1-1.38-.56,2,2,0,0,1-.53-1.44,2.21,2.21,0,0,1,.57-1.59,2,2,0,0,1,1.51-.6,2.12,2.12,0,0,1,.93.2v.65a1.63,1.63,0,0,0-1-.31,1.3,1.3,0,0,0-1,.44,1.67,1.67,0,0,0-.39,1.15,1.57,1.57,0,0,0,.37,1.11,1.26,1.26,0,0,0,1,.41,1.61,1.61,0,0,0,1-.35Z"/><path d="M73.6,35.05a.42.42,0,0,1-.3-.12.4.4,0,0,1-.12-.29.41.41,0,0,1,.12-.3.42.42,0,0,1,.3-.12.44.44,0,0,1,.3.12.41.41,0,0,1,.12.3.4.4,0,0,1-.12.29A.44.44,0,0,1,73.6,35.05Zm.31,5h-.64v-4h.64Z"/><path d="M76.64,40.16a1.89,1.89,0,0,1-1.42-.56,2.1,2.1,0,0,1-.53-1.49,2.19,2.19,0,0,1,.55-1.57A2,2,0,0,1,76.73,36a1.79,1.79,0,0,1,1.4.55,2.22,2.22,0,0,1,.5,1.53,2.13,2.13,0,0,1-.54,1.53A1.87,1.87,0,0,1,76.64,40.16Zm0-3.65a1.21,1.21,0,0,0-1,.42,1.73,1.73,0,0,0-.36,1.16,1.64,1.64,0,0,0,.36,1.12,1.27,1.27,0,0,0,1,.41,1.16,1.16,0,0,0,1-.4,2.11,2.11,0,0,0,0-2.3A1.16,1.16,0,0,0,76.69,36.51ZM77.62,34l-1,1.28h-.5L77,34Z"/><path d="M82.73,40.06h-.64V37.78c0-.85-.31-1.27-.93-1.27a1,1,0,0,0-.79.36,1.34,1.34,0,0,0-.31.91v2.28h-.65v-4h.65v.67h0A1.43,1.43,0,0,1,81.38,36a1.21,1.21,0,0,1,1,.43,1.89,1.89,0,0,1,.34,1.22Z"/><path d="M90.69,36.06l-1.2,4h-.66L88,37.2a1.91,1.91,0,0,1-.06-.37h0a1.7,1.7,0,0,1-.09.36L87,40.06h-.64l-1.21-4h.67l.83,3a2.39,2.39,0,0,1,.05.36h0a3.35,3.35,0,0,1,.07-.37l.93-3h.58l.83,3a1.68,1.68,0,0,1,.06.36h0a2,2,0,0,1,.07-.36l.81-3Z"/><path d="M94.41,38.23H91.59a1.56,1.56,0,0,0,.35,1,1.26,1.26,0,0,0,1,.36,2,2,0,0,0,1.24-.45v.61a2.34,2.34,0,0,1-1.39.38,1.66,1.66,0,0,1-1.33-.55,2.54,2.54,0,0,1,0-3A1.7,1.7,0,0,1,92.77,36a1.5,1.5,0,0,1,1.21.51,2.1,2.1,0,0,1,.43,1.41Zm-.66-.55a1.3,1.3,0,0,0-.26-.86.91.91,0,0,0-.74-.31,1.06,1.06,0,0,0-.77.32,1.5,1.5,0,0,0-.39.85Z"/><path d="M95.79,39.49h0v.57h-.64V34.14h.64v2.63h0a1.53,1.53,0,0,1,1.39-.8,1.46,1.46,0,0,1,1.2.54A2.23,2.23,0,0,1,98.82,38a2.47,2.47,0,0,1-.49,1.61,1.64,1.64,0,0,1-1.34.6A1.34,1.34,0,0,1,95.79,39.49Zm0-1.62v.56a1.2,1.2,0,0,0,.32.84,1.09,1.09,0,0,0,.82.35,1.06,1.06,0,0,0,.91-.45,2,2,0,0,0,.33-1.23,1.58,1.58,0,0,0-.31-1,1,1,0,0,0-.83-.38,1.13,1.13,0,0,0-.9.39A1.4,1.4,0,0,0,95.78,37.87Z"/><path d="M57.93,49.67h-.64V49h0a1.61,1.61,0,0,1-2.58.23,2.2,2.2,0,0,1-.45-1.46,2.37,2.37,0,0,1,.5-1.59,1.63,1.63,0,0,1,1.33-.6,1.29,1.29,0,0,1,1.2.65h0V43.74h.64Zm-.64-1.81v-.59a1.1,1.1,0,0,0-.32-.82,1,1,0,0,0-.81-.34,1.09,1.09,0,0,0-.92.43,1.91,1.91,0,0,0-.34,1.19,1.67,1.67,0,0,0,.33,1.09,1,1,0,0,0,.86.4,1.08,1.08,0,0,0,.87-.39A1.43,1.43,0,0,0,57.29,47.86Z"/><path d="M62.21,47.83H59.38a1.51,1.51,0,0,0,.36,1,1.26,1.26,0,0,0,.95.36,2,2,0,0,0,1.24-.45v.61a2.37,2.37,0,0,1-1.4.38,1.67,1.67,0,0,1-1.33-.55,2.23,2.23,0,0,1-.48-1.53,2.15,2.15,0,0,1,.53-1.52,1.7,1.7,0,0,1,1.31-.59,1.52,1.52,0,0,1,1.22.51,2.16,2.16,0,0,1,.43,1.41Zm-.66-.55a1.25,1.25,0,0,0-.27-.86.89.89,0,0,0-.73-.31,1.06,1.06,0,0,0-.77.32,1.5,1.5,0,0,0-.39.85Z"/><path d="M68.3,49.67h-.64V49h0a1.47,1.47,0,0,1-1.37.77,1.5,1.5,0,0,1-1.21-.54,2.2,2.2,0,0,1-.45-1.46,2.42,2.42,0,0,1,.5-1.59,1.66,1.66,0,0,1,1.33-.6,1.29,1.29,0,0,1,1.2.65h0V43.74h.64Zm-.64-1.81v-.59a1.14,1.14,0,0,0-.32-.82,1.06,1.06,0,0,0-.81-.34,1.12,1.12,0,0,0-.93.43,1.91,1.91,0,0,0-.33,1.19,1.72,1.72,0,0,0,.32,1.09,1,1,0,0,0,.87.4,1.11,1.11,0,0,0,.87-.39A1.43,1.43,0,0,0,67.66,47.86Z"/><path d="M72.57,47.83H69.75a1.51,1.51,0,0,0,.36,1,1.24,1.24,0,0,0,.94.36,1.93,1.93,0,0,0,1.24-.45v.61a2.34,2.34,0,0,1-1.39.38,1.67,1.67,0,0,1-1.33-.55,2.23,2.23,0,0,1-.49-1.53,2.2,2.2,0,0,1,.53-1.52,1.72,1.72,0,0,1,1.32-.59,1.49,1.49,0,0,1,1.21.51,2.1,2.1,0,0,1,.43,1.41Zm-.65-.55a1.36,1.36,0,0,0-.27-.86.9.9,0,0,0-.73-.31,1,1,0,0,0-.77.32,1.5,1.5,0,0,0-.39.85Z"/><path d="M79,49.67h-.64v-2.3a1.68,1.68,0,0,0-.21-1,.75.75,0,0,0-.68-.3.85.85,0,0,0-.7.38,1.42,1.42,0,0,0-.29.89v2.29h-.64V47.29c0-.79-.3-1.18-.91-1.18a.88.88,0,0,0-.7.35,1.5,1.5,0,0,0-.27.92v2.29H73.3v-4h.64v.63h0a1.34,1.34,0,0,1,1.24-.73,1.16,1.16,0,0,1,.71.23,1.07,1.07,0,0,1,.42.6,1.44,1.44,0,0,1,1.33-.83c.88,0,1.32.54,1.32,1.63Z"/><path d="M81.62,49.76a1.85,1.85,0,0,1-1.41-.56,2.06,2.06,0,0,1-.53-1.49,2.15,2.15,0,0,1,.55-1.57,2,2,0,0,1,1.49-.57,1.77,1.77,0,0,1,1.39.55,2.18,2.18,0,0,1,.51,1.53,2.1,2.1,0,0,1-.55,1.53A1.87,1.87,0,0,1,81.62,49.76Zm0-3.65a1.23,1.23,0,0,0-1,.42,1.73,1.73,0,0,0-.36,1.16,1.64,1.64,0,0,0,.37,1.12,1.23,1.23,0,0,0,1,.41,1.19,1.19,0,0,0,1-.4,2.17,2.17,0,0,0,0-2.3A1.2,1.2,0,0,0,81.67,46.11Z"/><path d="M87.72,49.67h-.64V47.38c0-.85-.31-1.27-.93-1.27a1,1,0,0,0-.8.36,1.34,1.34,0,0,0-.31.91v2.29H84.4v-4H85v.66h0a1.42,1.42,0,0,1,1.31-.76,1.19,1.19,0,0,1,1,.43,1.89,1.89,0,0,1,.35,1.22Z"/><path d="M89,44.65a.41.41,0,0,1-.41-.41.41.41,0,0,1,.12-.3.4.4,0,0,1,.29-.12.41.41,0,0,1,.3.12.38.38,0,0,1,.13.3.37.37,0,0,1-.13.29A.41.41,0,0,1,89,44.65Zm.32,5h-.64v-4h.64Z"/><path d="M92.06,49.76a1.86,1.86,0,0,1-1.42-.56,2.1,2.1,0,0,1-.53-1.49,2.15,2.15,0,0,1,.55-1.57,2,2,0,0,1,1.49-.57,1.79,1.79,0,0,1,1.4.55,2.22,2.22,0,0,1,.5,1.53,2.13,2.13,0,0,1-.54,1.53A1.88,1.88,0,0,1,92.06,49.76Zm0-3.65a1.21,1.21,0,0,0-1,.42,1.73,1.73,0,0,0-.36,1.16,1.64,1.64,0,0,0,.36,1.12,1.25,1.25,0,0,0,1,.41,1.18,1.18,0,0,0,1-.4,2.17,2.17,0,0,0,0-2.3A1.18,1.18,0,0,0,92.1,46.11Z"/><path d="M156.58,56.55H154.4v1.94h2v.59h-2v2.48h-.66V56h2.84Z" fill="#00b0f0"/><path d="M158,61.56h-.64V55.64H158Z" fill="#00b0f0"/><path d="M162.25,61.56h-.64v-.63h0a1.3,1.3,0,0,1-1.23.72c-1,0-1.43-.56-1.43-1.7V57.56h.64v2.29c0,.84.32,1.27,1,1.27a1,1,0,0,0,.77-.35,1.32,1.32,0,0,0,.3-.9V57.56h.64Z" fill="#00b0f0"/><path d="M163.94,61.39a2.53,2.53,0,0,1-.39,1.52,1.32,1.32,0,0,1-1.14.53,1.24,1.24,0,0,1-.53-.12v-.6a1.08,1.08,0,0,0,.55.18c.58,0,.87-.47.87-1.4V57.56h.64Zm-.31-4.84a.4.4,0,0,1-.29-.12.43.43,0,0,1,0-.6.4.4,0,0,1,.29-.12.41.41,0,0,1,.42.42.38.38,0,0,1-.12.29A.42.42,0,0,1,163.63,56.55Z" fill="#00b0f0"/><path d="M166.67,61.65a1.82,1.82,0,0,1-1.41-.56,2,2,0,0,1-.53-1.48,2.17,2.17,0,0,1,.55-1.58,2,2,0,0,1,1.49-.56,1.77,1.77,0,0,1,1.39.55,2.49,2.49,0,0,1,0,3.06A1.94,1.94,0,0,1,166.67,61.65Zm.05-3.64a1.23,1.23,0,0,0-1,.42,1.7,1.7,0,0,0-.36,1.15,1.67,1.67,0,0,0,.37,1.13,1.23,1.23,0,0,0,1,.41,1.2,1.2,0,0,0,1-.41,1.74,1.74,0,0,0,.33-1.14,1.8,1.8,0,0,0-.33-1.16A1.19,1.19,0,0,0,166.72,58Z" fill="#00b0f0"/><path d="M174.81,61.56h-.64v-.68h0a1.62,1.62,0,0,1-2.58.24,2.23,2.23,0,0,1-.45-1.47,2.37,2.37,0,0,1,.5-1.59,1.65,1.65,0,0,1,1.33-.59,1.27,1.27,0,0,1,1.2.65h0V55.64h.64Zm-.64-1.81v-.59a1.13,1.13,0,0,0-.32-.82A1.07,1.07,0,0,0,173,58a1.09,1.09,0,0,0-.92.43,1.88,1.88,0,0,0-.34,1.18,1.7,1.7,0,0,0,.33,1.1,1.06,1.06,0,0,0,.86.4,1.08,1.08,0,0,0,.87-.39A1.45,1.45,0,0,0,174.17,59.75Z" fill="#00b0f0"/><path d="M179.09,59.72h-2.83a1.47,1.47,0,0,0,.36,1,1.26,1.26,0,0,0,.95.37,2,2,0,0,0,1.24-.45v.6a2.3,2.3,0,0,1-1.4.38,1.71,1.71,0,0,1-1.33-.54,2.23,2.23,0,0,1-.48-1.53,2.14,2.14,0,0,1,.53-1.52,1.66,1.66,0,0,1,1.31-.59,1.52,1.52,0,0,1,1.22.51,2.12,2.12,0,0,1,.43,1.41Zm-.66-.54a1.29,1.29,0,0,0-.27-.87.91.91,0,0,0-.73-.3,1,1,0,0,0-.77.32,1.5,1.5,0,0,0-.39.85Z" fill="#00b0f0"/><path d="M184.49,61.38a2.1,2.1,0,0,1-1.09.27A1.81,1.81,0,0,1,182,61.1a2,2,0,0,1-.53-1.45,2.2,2.2,0,0,1,.57-1.58,2,2,0,0,1,1.51-.6,2.12,2.12,0,0,1,.93.19v.66a1.61,1.61,0,0,0-.95-.31,1.27,1.27,0,0,0-1,.44,1.65,1.65,0,0,0-.39,1.15,1.57,1.57,0,0,0,.37,1.11,1.26,1.26,0,0,0,1,.41,1.59,1.59,0,0,0,1-.35Z" fill="#00b0f0"/><path d="M187.31,58.21a.77.77,0,0,0-.49-.13.81.81,0,0,0-.68.39,1.74,1.74,0,0,0-.28,1.05v2h-.64v-4h.64v.83h0a1.3,1.3,0,0,1,.42-.66.91.91,0,0,1,.62-.24,1,1,0,0,1,.39.06Z" fill="#00b0f0"/><path d="M191,59.72h-2.83a1.47,1.47,0,0,0,.36,1,1.26,1.26,0,0,0,1,.37,2,2,0,0,0,1.24-.45v.6a2.29,2.29,0,0,1-1.39.38,1.72,1.72,0,0,1-1.34-.54,2.23,2.23,0,0,1-.48-1.53,2.18,2.18,0,0,1,.53-1.52,1.66,1.66,0,0,1,1.31-.59,1.51,1.51,0,0,1,1.22.51,2.12,2.12,0,0,1,.43,1.41Zm-.66-.54a1.29,1.29,0,0,0-.27-.87.91.91,0,0,0-.73-.3,1,1,0,0,0-.77.32,1.5,1.5,0,0,0-.39.85Z" fill="#00b0f0"/><path d="M195.12,61.56h-.64v-.68h0a1.45,1.45,0,0,1-1.37.77,1.51,1.51,0,0,1-1.21-.53,2.23,2.23,0,0,1-.45-1.47,2.42,2.42,0,0,1,.5-1.59,1.69,1.69,0,0,1,1.34-.59,1.25,1.25,0,0,1,1.19.65h0V55.64h.64Zm-.64-1.81v-.59a1.17,1.17,0,0,0-.32-.82,1.07,1.07,0,0,0-.81-.33,1.09,1.09,0,0,0-.92.43,1.82,1.82,0,0,0-.34,1.18,1.75,1.75,0,0,0,.32,1.1,1.09,1.09,0,0,0,.87.4,1.11,1.11,0,0,0,.87-.39A1.45,1.45,0,0,0,194.48,59.75Z" fill="#00b0f0"/><path d="M199.39,59.72h-2.82a1.47,1.47,0,0,0,.36,1,1.24,1.24,0,0,0,.94.37,2,2,0,0,0,1.25-.45v.6a2.32,2.32,0,0,1-1.4.38,1.7,1.7,0,0,1-1.33-.54,2.23,2.23,0,0,1-.49-1.53,2.18,2.18,0,0,1,.53-1.52,1.69,1.69,0,0,1,1.32-.59A1.49,1.49,0,0,1,199,58a2.07,2.07,0,0,1,.43,1.41Zm-.65-.54a1.41,1.41,0,0,0-.27-.87.93.93,0,0,0-.73-.3,1,1,0,0,0-.77.32,1.5,1.5,0,0,0-.39.85Z" fill="#00b0f0"/><path d="M203.44,61.56h-.64V59.28c0-.85-.31-1.27-.93-1.27a1,1,0,0,0-.79.36,1.33,1.33,0,0,0-.32.91v2.28h-.64v-4h.64v.67h0a1.43,1.43,0,0,1,1.31-.76,1.22,1.22,0,0,1,1,.42,1.84,1.84,0,0,1,.35,1.23Z" fill="#00b0f0"/><path d="M207.14,61.38a2.16,2.16,0,0,1-1.1.27,1.81,1.81,0,0,1-1.38-.55,2,2,0,0,1-.52-1.45,2.2,2.2,0,0,1,.56-1.58,2,2,0,0,1,1.51-.6,2.06,2.06,0,0,1,.93.19v.66a1.59,1.59,0,0,0-.95-.31,1.28,1.28,0,0,0-1,.44,1.65,1.65,0,0,0-.39,1.15,1.62,1.62,0,0,0,.37,1.11,1.29,1.29,0,0,0,1,.41,1.64,1.64,0,0,0,1-.35Z" fill="#00b0f0"/><path d="M208.19,56.55a.4.4,0,0,1-.29-.12.44.44,0,0,1,0-.6.4.4,0,0,1,.29-.12.41.41,0,0,1,.42.42.38.38,0,0,1-.12.29A.42.42,0,0,1,208.19,56.55Zm.31,5h-.64v-4h.64Z" fill="#00b0f0"/><path d="M212.42,61.56h-.64v-.62h0a1.48,1.48,0,0,1-2.17.4,1.11,1.11,0,0,1-.34-.84c0-.75.45-1.18,1.32-1.31l1.2-.16c0-.68-.27-1-.82-1a1.93,1.93,0,0,0-1.3.49v-.66a2.44,2.44,0,0,1,1.35-.37c1,0,1.41.49,1.41,1.49Zm-.64-2-1,.13a1.59,1.59,0,0,0-.67.22.64.64,0,0,0-.23.56.6.6,0,0,0,.21.48.84.84,0,0,0,.56.19,1,1,0,0,0,.78-.34,1.16,1.16,0,0,0,.31-.84Z" fill="#00b0f0"/><path d="M214,61.56h-.64V55.64H214Z" fill="#00b0f0"/><path d="M218.3,59.72h-2.82a1.47,1.47,0,0,0,.36,1,1.25,1.25,0,0,0,.95.37,2,2,0,0,0,1.24-.45v.6a2.3,2.3,0,0,1-1.4.38,1.7,1.7,0,0,1-1.33-.54,2.23,2.23,0,0,1-.48-1.53,2.14,2.14,0,0,1,.53-1.52,1.66,1.66,0,0,1,1.31-.59,1.52,1.52,0,0,1,1.22.51,2.12,2.12,0,0,1,.42,1.41Zm-.65-.54a1.29,1.29,0,0,0-.27-.87.91.91,0,0,0-.73-.3,1,1,0,0,0-.77.32,1.5,1.5,0,0,0-.39.85Z" fill="#00b0f0"/><path d="M218.79,61.42v-.69a1.88,1.88,0,0,0,1.15.39c.57,0,.85-.19.85-.57a.5.5,0,0,0-.08-.27.71.71,0,0,0-.19-.2l-.29-.15-.36-.14a3.3,3.3,0,0,1-.46-.22,1.28,1.28,0,0,1-.34-.24.83.83,0,0,1-.2-.3,1,1,0,0,1-.07-.41.9.9,0,0,1,.13-.49,1.09,1.09,0,0,1,.34-.37,1.67,1.67,0,0,1,.49-.22,2.17,2.17,0,0,1,.57-.07,2.27,2.27,0,0,1,.93.18v.65a1.75,1.75,0,0,0-1-.29,1.08,1.08,0,0,0-.32,0,.64.64,0,0,0-.25.11.55.55,0,0,0-.16.18.46.46,0,0,0,0,.23.53.53,0,0,0,0,.26.6.6,0,0,0,.17.19l.26.15.36.14.48.21a1.35,1.35,0,0,1,.35.24,1,1,0,0,1,.23.31.93.93,0,0,1,.08.42,1,1,0,0,1-.13.52,1.09,1.09,0,0,1-.35.36,1.33,1.33,0,0,1-.5.21,2.35,2.35,0,0,1-.6.07A2.25,2.25,0,0,1,218.79,61.42Z" fill="#00b0f0"/><path d="M175.4,71.16h-.64v-.68h0a1.62,1.62,0,0,1-2.58.24,2.23,2.23,0,0,1-.45-1.47,2.32,2.32,0,0,1,.5-1.58,1.63,1.63,0,0,1,1.33-.6,1.27,1.27,0,0,1,1.2.65h0V65.24h.64Zm-.64-1.81v-.59a1.13,1.13,0,0,0-.32-.82,1.07,1.07,0,0,0-.81-.33,1.09,1.09,0,0,0-.92.43,1.82,1.82,0,0,0-.34,1.18,1.75,1.75,0,0,0,.32,1.1,1.16,1.16,0,0,0,1.74,0A1.45,1.45,0,0,0,174.76,69.35Z" fill="#00b0f0"/><path d="M179.67,69.32h-2.82a1.47,1.47,0,0,0,.36,1,1.25,1.25,0,0,0,.95.37,2,2,0,0,0,1.24-.45v.6a2.3,2.3,0,0,1-1.4.38,1.7,1.7,0,0,1-1.33-.54,2.23,2.23,0,0,1-.48-1.53,2.14,2.14,0,0,1,.53-1.52,1.66,1.66,0,0,1,1.31-.59,1.52,1.52,0,0,1,1.22.51,2.12,2.12,0,0,1,.42,1.41Zm-.65-.54a1.25,1.25,0,0,0-.27-.86.89.89,0,0,0-.73-.31,1,1,0,0,0-.77.32,1.5,1.5,0,0,0-.39.85Z" fill="#00b0f0"/><path d="M185.08,71a2.12,2.12,0,0,1-1.09.27,1.81,1.81,0,0,1-1.38-.55,2,2,0,0,1-.53-1.45,2.2,2.2,0,0,1,.57-1.58,2,2,0,0,1,1.51-.6,2.12,2.12,0,0,1,.93.19v.66a1.63,1.63,0,0,0-1-.31,1.27,1.27,0,0,0-1,.44,1.65,1.65,0,0,0-.39,1.15,1.57,1.57,0,0,0,.37,1.11,1.26,1.26,0,0,0,1,.41,1.61,1.61,0,0,0,1-.35Z" fill="#00b0f0"/><path d="M186.45,71.16h-.64V65.24h.64Z" fill="#00b0f0"/><path d="M187.84,66.15a.42.42,0,1,1,0-.84.4.4,0,0,1,.29.12.38.38,0,0,1,.13.3.36.36,0,0,1-.13.29A.41.41,0,0,1,187.84,66.15Zm.31,5h-.64v-4h.64Z" fill="#00b0f0"/><path d="M192.42,69.32H189.6a1.47,1.47,0,0,0,.36,1,1.24,1.24,0,0,0,.94.37,1.93,1.93,0,0,0,1.24-.45v.6a2.27,2.27,0,0,1-1.39.38,1.68,1.68,0,0,1-1.33-.54,2.54,2.54,0,0,1,0-3,1.67,1.67,0,0,1,1.32-.59,1.49,1.49,0,0,1,1.21.51,2.07,2.07,0,0,1,.43,1.41Zm-.66-.54a1.3,1.3,0,0,0-.26-.86.91.91,0,0,0-.74-.31,1,1,0,0,0-.76.32,1.44,1.44,0,0,0-.4.85Z" fill="#00b0f0"/><path d="M196.47,71.16h-.64V68.88c0-.85-.31-1.27-.93-1.27a1,1,0,0,0-.8.36,1.32,1.32,0,0,0-.31.91v2.28h-.64v-4h.64v.67h0a1.42,1.42,0,0,1,1.31-.76,1.22,1.22,0,0,1,1,.42,1.9,1.9,0,0,1,.35,1.23Z" fill="#00b0f0"/><path d="M199.29,71.12a1.16,1.16,0,0,1-.6.13q-1,0-1.05-1.17V67.71H197v-.55h.68v-1l.64-.2v1.18h1v.55h-1V70a1,1,0,0,0,.14.58.55.55,0,0,0,.45.17.72.72,0,0,0,.42-.13Z" fill="#00b0f0"/><path d="M203.12,69.32H200.3a1.47,1.47,0,0,0,.36,1,1.24,1.24,0,0,0,.94.37,2,2,0,0,0,1.25-.45v.6a2.32,2.32,0,0,1-1.4.38,1.7,1.7,0,0,1-1.33-.54,2.23,2.23,0,0,1-.49-1.53,2.18,2.18,0,0,1,.53-1.52,1.7,1.7,0,0,1,1.32-.59,1.49,1.49,0,0,1,1.21.51,2.07,2.07,0,0,1,.43,1.41Zm-.65-.54a1.3,1.3,0,0,0-.27-.86.9.9,0,0,0-.73-.31,1,1,0,0,0-.77.32,1.5,1.5,0,0,0-.39.85Z" fill="#00b0f0"/></svg>