<svg id="svg133" xmlns="http://www.w3.org/2000/svg" viewBox="0 0 224.4 98.83">
  <defs>
    <style>
      .cls-1 {
        fill: #0078d7;
      }

      .cls-2 {
        isolation: isolate;
      }

      .cls-3, .cls-4 {
        fill: #008bfd;
      }

      .cls-4 {
        stroke: gray;
        stroke-linecap: round;
        stroke-linejoin: round;
        stroke-width: 0.75px;
      }

      .cls-5 {
        fill: #fff;
      }

      .cls-6 {
        fill: #505050;
      }

      .cls-7 {
        fill: #00b0f0;
      }

      .cls-8 {
        fill: none;
        stroke: #505050;
        stroke-miterlimit: 10;
      }
    </style>
  </defs>
  <title>OJ104544462</title>
  <g id="shape1172-2">
    <path id="path19" class="cls-1" d="M60.23,66.79H46V38.41H60.23v7.68H61V37.65H45.26v29.9H61V65.23h-.76Z"/>
  </g>
  <g id="shape1173-4">
    <path id="path24" class="cls-1" d="M59.47,39.21H46.83v4.58H59.47Zm-9.58,1.91h6.53v.76H49.89ZM56.48,43H49.86V42.2h6.62Z"/>
  </g>
  <g id="shape1174-6">
    <path id="path29" class="cls-1" d="M46.79,44.57v3h8.6V46.1h4.08V44.57Z"/>
  </g>
  <g id="shape1175-8">
    <rect id="rect34" class="cls-1" x="46.79" y="48.38" width="8.6" height="2.68"/>
  </g>
  <g id="shape1176-10">
    <path id="path39" class="cls-1" d="M46.79,66H59.44v-.79H55.36V51.85h-8.6V66Zm1.53-2.73h2.29V64.5H48.32Z"/>
  </g>
  <g id="shape1177-12">
    <path id="path44" class="cls-1" d="M70,63H67.55V61.09H65V63H62.59a1.32,1.32,0,0,0-1.31,1.14h10C71.35,63.54,70.68,63,70,63Z"/>
  </g>
  <g id="shape1178-14">
    <path id="path49" class="cls-1" d="M74.85,49H57.75a.64.64,0,0,0-.67.6V59.72a.64.64,0,0,0,.67.6h17.1a.64.64,0,0,0,.67-.6V49.59A.62.62,0,0,0,74.85,49Zm-1,9.84H58.77V50.52H73.83Z"/>
  </g>
  <g id="shape1179-16">
    <path id="path54" class="cls-1" d="M70.21,56.35V52.91L66.7,51.06l-3.5,1.78v3.54l3.5,1.81Zm-4.4-2.3.89-.44.86.44-.86.48Zm0-1.14.86-.45.86.45-.86.48Zm1.91,4.52-1,.51V57l1-.51Zm0-1.18-1,.51v-.92l1-.51Zm0-1.11-1,.51v-.93l1-.51Zm-.82-1.66.86-.44.89.44-.86.45Zm2,3.35-1,.5v-.92l1-.51Zm0-1.18-1,.51v-.93l1-.51Zm0-1.15L68,55v-.89l1-.51Zm1,1.75-.86.45v-.93l.86-.44Zm0-1.14-.86.44v-.92l.86-.45ZM70,54l-.86.44v-.92L70,53Zm-.19-1.05-.89.44L68,52.91l.86-.45Zm-1.11-.58-.89.45-.86-.45.86-.44Zm-2-1,.86.45-.86.45-.89-.45Zm-1.11.61.86.44-.86.45-.86-.45Zm-1.08.57.89.45-.89.44-.9-.44Zm-.26,4.27-.86-.45v-.92l.86.45Zm0-1.18-.86-.44v-.93l.86.45Zm0-1.15L63.39,54v-.89l.86.44Zm1.18,2.93-1-.5V55.9l1,.51Zm0-1.17-1-.51v-.93l1,.51Zm0-1.15-1-.51v-.89l1,.51Zm-.7-1.53.89-.44.86.44-.89.48Zm1.88,4.46-1-.51v-.89l1,.51Zm0-1.15-1-.51v-.92l1,.51Zm0-1.14-1-.51v-.93l1,.51Z"/>
  </g>
  <g id="shape1171-18">
    <g id="text57" class="cls-2">
      <path class="cls-3" d="M40.7,78.92h-.91l-.74-2h-3l-.7,2h-.91l2.68-7H38Zm-1.92-2.7-1.1-3a4.26,4.26,0,0,1-.11-.47h0a2.53,2.53,0,0,1-.11.47l-1.09,3Z"/>
      <path class="cls-3" d="M42.44,78.2h0v3h-.8v-7.3h.8v.88h0a1.9,1.9,0,0,1,1.73-1,1.82,1.82,0,0,1,1.51.67,2.78,2.78,0,0,1,.54,1.8,3.11,3.11,0,0,1-.61,2,2,2,0,0,1-1.67.75A1.67,1.67,0,0,1,42.44,78.2Zm0-2v.7a1.46,1.46,0,0,0,.41,1.05,1.32,1.32,0,0,0,1,.44A1.36,1.36,0,0,0,45,77.81a2.6,2.6,0,0,0,.41-1.55A2.08,2.08,0,0,0,45,75,1.3,1.3,0,0,0,44,74.48a1.4,1.4,0,0,0-1.12.49A1.74,1.74,0,0,0,42.42,76.18Z"/>
      <path class="cls-3" d="M48.3,78.92h-.8v-7.4h.8Z"/>
      <path class="cls-3" d="M50.33,72.65a.48.48,0,0,1-.36-.14.5.5,0,0,1-.15-.37.52.52,0,0,1,.15-.38.49.49,0,0,1,.36-.15.54.54,0,0,1,.38.15.52.52,0,0,1,.15.38.49.49,0,0,1-.15.36A.54.54,0,0,1,50.33,72.65Zm.39,6.27h-.8v-5h.8Z"/>
      <path class="cls-3" d="M55.75,78.69a2.51,2.51,0,0,1-1.36.35,2.25,2.25,0,0,1-1.73-.7,2.5,2.5,0,0,1-.66-1.8,2.78,2.78,0,0,1,.71-2,2.47,2.47,0,0,1,1.89-.75,2.64,2.64,0,0,1,1.16.24v.82a2,2,0,0,0-1.19-.39,1.61,1.61,0,0,0-1.26.55,2.13,2.13,0,0,0-.49,1.44,2,2,0,0,0,.46,1.39,1.59,1.59,0,0,0,1.24.51,2,2,0,0,0,1.23-.44Z"/>
      <path class="cls-3" d="M60.54,78.92h-.8v-.78h0a1.68,1.68,0,0,1-1.54.9A1.64,1.64,0,0,1,57,78.65a1.37,1.37,0,0,1-.43-1.05c0-.94.55-1.48,1.65-1.64l1.5-.21c0-.85-.34-1.27-1-1.27a2.48,2.48,0,0,0-1.63.62v-.83a3.12,3.12,0,0,1,1.7-.46c1.18,0,1.76.62,1.76,1.86Zm-.8-2.53-1.2.17a1.84,1.84,0,0,0-.84.28.79.79,0,0,0-.29.7.76.76,0,0,0,.26.59,1,1,0,0,0,.7.24,1.26,1.26,0,0,0,1-.42,1.49,1.49,0,0,0,.39-1.06Z"/>
      <path class="cls-3" d="M65.46,78.69a2.52,2.52,0,0,1-1.37.35,2.22,2.22,0,0,1-1.72-.7,2.5,2.5,0,0,1-.66-1.8,2.78,2.78,0,0,1,.71-2,2.47,2.47,0,0,1,1.89-.75,2.67,2.67,0,0,1,1.16.24v.82a2,2,0,0,0-1.19-.39A1.61,1.61,0,0,0,63,75a2.08,2.08,0,0,0-.49,1.44A2,2,0,0,0,63,77.86a1.59,1.59,0,0,0,1.24.51,2,2,0,0,0,1.23-.44Z"/>
      <path class="cls-3" d="M67.08,72.65a.52.52,0,0,1-.37-.14.5.5,0,0,1-.15-.37.52.52,0,0,1,.15-.38.53.53,0,0,1,.37-.15.5.5,0,0,1,.37.15.49.49,0,0,1,.16.38.46.46,0,0,1-.16.36A.5.5,0,0,1,67.08,72.65Zm.39,6.27h-.8v-5h.8Z"/>
      <path class="cls-3" d="M71.18,79a2.31,2.31,0,0,1-1.77-.7,2.61,2.61,0,0,1-.66-1.86,2.72,2.72,0,0,1,.69-2,2.48,2.48,0,0,1,1.86-.7,2.27,2.27,0,0,1,1.75.68,2.78,2.78,0,0,1,.62,1.91A2.69,2.69,0,0,1,73,78.32,2.38,2.38,0,0,1,71.18,79Zm.06-4.56A1.52,1.52,0,0,0,70,75a2.19,2.19,0,0,0-.45,1.45,2,2,0,0,0,.46,1.4,1.5,1.5,0,0,0,1.21.52,1.47,1.47,0,0,0,1.2-.51,2.21,2.21,0,0,0,.41-1.43A2.26,2.26,0,0,0,72.44,75,1.47,1.47,0,0,0,71.24,74.48Zm1.17-3.11L71.13,73h-.62l1.09-1.61Z"/>
      <path class="cls-3" d="M79.1,78.92h-.8V76.07c0-1.06-.39-1.59-1.16-1.59a1.25,1.25,0,0,0-1,.45,1.64,1.64,0,0,0-.4,1.14v2.85H75v-5h.8v.83h0a1.81,1.81,0,0,1,1.64-.94,1.52,1.52,0,0,1,1.26.53,2.34,2.34,0,0,1,.43,1.53Z"/>
      <path class="cls-3" d="M34.73,90.92h-.8v-.85h0a2,2,0,0,1-3.22.3,2.75,2.75,0,0,1-.57-1.83,3,3,0,0,1,.63-2,2.07,2.07,0,0,1,1.66-.74,1.6,1.6,0,0,1,1.5.81h0v-3.1h.8Zm-.8-2.26v-.73a1.42,1.42,0,0,0-.4-1,1.34,1.34,0,0,0-1-.42,1.39,1.39,0,0,0-1.16.54,2.35,2.35,0,0,0-.42,1.48,2.13,2.13,0,0,0,.41,1.37,1.32,1.32,0,0,0,1.08.5,1.33,1.33,0,0,0,1.08-.49A1.79,1.79,0,0,0,33.93,88.66Z"/>
      <path class="cls-3" d="M40.37,88.62H36.84a1.83,1.83,0,0,0,.45,1.29,1.53,1.53,0,0,0,1.18.46A2.49,2.49,0,0,0,40,89.81v.75a2.92,2.92,0,0,1-1.75.48,2.12,2.12,0,0,1-1.66-.68A2.77,2.77,0,0,1,36,88.44a2.73,2.73,0,0,1,.66-1.9,2.12,2.12,0,0,1,1.65-.73,1.86,1.86,0,0,1,1.51.63,2.63,2.63,0,0,1,.54,1.76Zm-.82-.68a1.57,1.57,0,0,0-.33-1.07,1.14,1.14,0,0,0-.92-.39,1.25,1.25,0,0,0-1,.41,1.84,1.84,0,0,0-.49,1Z"/>
      <path class="cls-3" d="M48.34,88.62H44.81a1.83,1.83,0,0,0,.45,1.29,1.53,1.53,0,0,0,1.18.46A2.46,2.46,0,0,0,48,89.81v.75a2.89,2.89,0,0,1-1.74.48,2.1,2.1,0,0,1-1.66-.68A2.77,2.77,0,0,1,44,88.44a2.73,2.73,0,0,1,.66-1.9,2.12,2.12,0,0,1,1.65-.73,1.86,1.86,0,0,1,1.51.63,2.63,2.63,0,0,1,.54,1.76Zm-.82-.68a1.57,1.57,0,0,0-.33-1.07,1.14,1.14,0,0,0-.92-.39,1.25,1.25,0,0,0-1,.41,1.78,1.78,0,0,0-.49,1Z"/>
      <path class="cls-3" d="M49.25,90.74v-.86a2.34,2.34,0,0,0,1.44.49c.7,0,1.05-.24,1.05-.71a.64.64,0,0,0-.09-.34.91.91,0,0,0-.24-.24,2,2,0,0,0-.36-.2l-.45-.17c-.22-.09-.41-.18-.58-.27a1.74,1.74,0,0,1-.42-.3,1.27,1.27,0,0,1-.26-.39,1.5,1.5,0,0,1-.08-.5,1.17,1.17,0,0,1,.16-.62,1.57,1.57,0,0,1,.43-.46,2,2,0,0,1,.61-.27,3,3,0,0,1,1.87.13v.81a2.24,2.24,0,0,0-1.26-.36,1.7,1.7,0,0,0-.41,0,1,1,0,0,0-.31.15.6.6,0,0,0-.2.22.53.53,0,0,0-.07.28.67.67,0,0,0,.07.33.66.66,0,0,0,.21.23,1.69,1.69,0,0,0,.33.19l.44.18c.22.09.42.17.6.26a2,2,0,0,1,.45.3,1.28,1.28,0,0,1,.28.39,1.4,1.4,0,0,1-.06,1.17,1.35,1.35,0,0,1-.44.45,2,2,0,0,1-.63.27,2.94,2.94,0,0,1-.74.09A2.82,2.82,0,0,1,49.25,90.74Z"/>
      <path class="cls-3" d="M57.2,90.69a2.51,2.51,0,0,1-1.36.35,2.25,2.25,0,0,1-1.73-.7,2.5,2.5,0,0,1-.66-1.8,2.78,2.78,0,0,1,.71-2,2.47,2.47,0,0,1,1.89-.75,2.64,2.64,0,0,1,1.16.24v.82A2,2,0,0,0,56,86.48a1.61,1.61,0,0,0-1.26.55,2.13,2.13,0,0,0-.49,1.44,2,2,0,0,0,.46,1.39,1.61,1.61,0,0,0,1.24.51,2,2,0,0,0,1.23-.44Z"/>
      <path class="cls-3" d="M61,86.73a1,1,0,0,0-.6-.16,1,1,0,0,0-.86.49,2.21,2.21,0,0,0-.35,1.31v2.55h-.8v-5h.8v1h0a1.77,1.77,0,0,1,.53-.82,1.15,1.15,0,0,1,.78-.29,1.48,1.48,0,0,1,.48.06Z"/>
      <path class="cls-3" d="M62.3,84.65a.52.52,0,0,1-.37-.14.5.5,0,0,1-.15-.37.52.52,0,0,1,.15-.38.53.53,0,0,1,.37-.15.5.5,0,0,1,.37.15.49.49,0,0,1,.16.38.46.46,0,0,1-.16.36A.5.5,0,0,1,62.3,84.65Zm.39,6.27h-.8v-5h.8Z"/>
      <path class="cls-3" d="M66.63,90.87a1.49,1.49,0,0,1-.75.16c-.87,0-1.31-.49-1.31-1.46v-3h-.86v-.69h.86V84.7l.8-.26v1.48h1.26v.69H65.37v2.81a1.19,1.19,0,0,0,.17.72.68.68,0,0,0,.57.22.83.83,0,0,0,.52-.17Z"/>
      <path class="cls-3" d="M69.79,91a2.31,2.31,0,0,1-1.77-.7,2.61,2.61,0,0,1-.66-1.86,2.72,2.72,0,0,1,.69-2,2.48,2.48,0,0,1,1.86-.7,2.25,2.25,0,0,1,1.74.68,2.73,2.73,0,0,1,.63,1.91,2.65,2.65,0,0,1-.68,1.92A2.36,2.36,0,0,1,69.79,91Zm.06-4.56a1.52,1.52,0,0,0-1.22.52,2.19,2.19,0,0,0-.45,1.45,2,2,0,0,0,.45,1.4,1.54,1.54,0,0,0,1.22.52A1.43,1.43,0,0,0,71,89.86a2.16,2.16,0,0,0,.42-1.43A2.21,2.21,0,0,0,71,87,1.43,1.43,0,0,0,69.85,86.48Z"/>
      <path class="cls-3" d="M76.17,86.73a1,1,0,0,0-.61-.16,1,1,0,0,0-.85.49,2.21,2.21,0,0,0-.35,1.31v2.55h-.8v-5h.8v1h0a1.76,1.76,0,0,1,.52-.82,1.19,1.19,0,0,1,.79-.29,1.48,1.48,0,0,1,.48.06Z"/>
      <path class="cls-3" d="M77.45,84.65a.49.49,0,0,1-.37-.14.5.5,0,0,1-.15-.37.52.52,0,0,1,.15-.38.5.5,0,0,1,.37-.15.51.51,0,0,1,.37.15.52.52,0,0,1,.15.38.49.49,0,0,1-.15.36A.51.51,0,0,1,77.45,84.65Zm.39,6.27H77v-5h.8Z"/>
      <path class="cls-3" d="M81.55,91a2.31,2.31,0,0,1-1.77-.7,2.61,2.61,0,0,1-.66-1.86,2.72,2.72,0,0,1,.69-2,2.45,2.45,0,0,1,1.86-.7,2.27,2.27,0,0,1,1.74.68A2.73,2.73,0,0,1,84,88.4a2.7,2.7,0,0,1-.68,1.92A2.36,2.36,0,0,1,81.55,91Zm.06-4.56a1.51,1.51,0,0,0-1.22.52,2.19,2.19,0,0,0-.45,1.45,2,2,0,0,0,.45,1.4,1.52,1.52,0,0,0,1.22.52,1.45,1.45,0,0,0,1.19-.51,2.16,2.16,0,0,0,.42-1.43A2.21,2.21,0,0,0,82.8,87,1.45,1.45,0,0,0,81.61,86.48Z"/>
    </g>
  </g>
  <g id="group1180-20">
    <g id="group1181-21">
      <g id="group1182-22">
        <g id="group1183-23">
          <g id="shape1184-24">
            <path id="path71" class="cls-3" d="M7.85,44.76a4.5,4.5,0,0,0-3,5.67c.66,2.55,3,4.21,5.27,3.66a4.49,4.49,0,0,0,3-5.66C12.57,45.76,10.16,44.1,7.85,44.76Z"/>
          </g>
        </g>
        <g id="group1185-26">
          <g id="shape1186-27">
            <path id="path79" class="cls-3" d="M12.78,54.78c-.43,0-.88.77-1.54,1.11s-1.31.89-3.17,0S6,54.22,4.43,54.22s-4,2.78-4,6.88H16a12.15,12.15,0,0,0-1.11-4.21C13.77,54.78,13.23,54.78,12.78,54.78Z"/>
          </g>
        </g>
      </g>
    </g>
    <g id="group1187-29">
      <g id="shape1188-30">
        <path id="path89" class="cls-4" d="M14.19,49.84H10.07a.7.7,0,0,0-.65.65v2.85a.73.73,0,0,0,.76.66h.76v5.15a1,1,0,0,0,1,1.09,1,1,0,0,0,1-1h.21V58.6c0-.22.33-.33.33-.33v-.33c-.33-.11-.54-.32-.54-.43v-.33L13.1,57a3.53,3.53,0,0,0,.33-.55,2.4,2.4,0,0,1-.33-.55c-.1-.11-.1-.33-.21-.44V55.2a2.52,2.52,0,0,1,.76-1.09h.54a.71.71,0,0,0,.65-.66v-3A.62.62,0,0,0,14.19,49.84ZM11.8,59.37c0,.22,0,.33-.21.33s-.22-.22-.22-.33V54.55c0-.22.11-.33.22-.33s.21.22.21.33Zm.33-7.78a.66.66,0,0,1,0-1.32.71.71,0,0,1,.65.66A.63.63,0,0,1,12.13,51.59Z"/>
      </g>
      <g id="shape1189-32">
        <path id="path94" class="cls-5" d="M11.57,59.67a.24.24,0,0,1-.22-.22v-5a.22.22,0,0,1,.44,0v5.1C11.79,59.67,11.68,59.67,11.57,59.67Z"/>
      </g>
      <g id="shape1190-34">
        <ellipse id="ellipse99" class="cls-5" cx="12.14" cy="50.92" rx="0.66" ry="0.67"/>
      </g>
    </g>
  </g>
  <path id="path108" class="cls-3" d="M191.76,41.68h-20.5a1.1,1.1,0,0,0-1.09,1.11V59.53a1.09,1.09,0,0,0,1.09,1.1h5.28a3.29,3.29,0,0,0,3.21,2.27,3.37,3.37,0,0,0,0-6.74,3.29,3.29,0,0,0-3.21,2.27h-4.19v-12h18.31v12h-3.45a7.61,7.61,0,0,0-7.46-6.57,8.25,8.25,0,0,0-3.64.92l1,2a5.28,5.28,0,0,1,2.55-.68,5.46,5.46,0,0,1,0,10.92,5.28,5.28,0,0,1-2.55-.68l-1,2a7.4,7.4,0,0,0,3.64.92,7.61,7.61,0,0,0,7.46-6.56h4.55a1.09,1.09,0,0,0,1.09-1.1V42.79A1.14,1.14,0,0,0,191.76,41.68Z"/>
  <g id="text110" class="cls-2">
    <path class="cls-3" d="M165.13,78.92h-.91l-.74-2h-3l-.7,2h-.91l2.68-7h.85Zm-1.92-2.7-1.1-3a4.26,4.26,0,0,1-.11-.47h0a2.53,2.53,0,0,1-.11.47l-1.09,3Z"/>
    <path class="cls-3" d="M166.87,78.2h0v3h-.8v-7.3h.8v.88h0a1.9,1.9,0,0,1,1.73-1,1.82,1.82,0,0,1,1.51.67,2.78,2.78,0,0,1,.54,1.8,3.11,3.11,0,0,1-.61,2,2,2,0,0,1-1.67.75A1.67,1.67,0,0,1,166.87,78.2Zm0-2v.7a1.49,1.49,0,0,0,.4,1.05,1.43,1.43,0,0,0,2.17-.12,2.6,2.6,0,0,0,.41-1.55,2.08,2.08,0,0,0-.38-1.31,1.3,1.3,0,0,0-1-.47,1.39,1.39,0,0,0-1.12.49A1.74,1.74,0,0,0,166.85,76.18Z"/>
    <path class="cls-3" d="M172.73,78.92h-.8v-7.4h.8Z"/>
    <path class="cls-3" d="M174.76,72.65a.48.48,0,0,1-.36-.14.46.46,0,0,1-.15-.37.48.48,0,0,1,.15-.38.49.49,0,0,1,.36-.15.54.54,0,0,1,.38.15.52.52,0,0,1,.15.38.49.49,0,0,1-.15.36A.54.54,0,0,1,174.76,72.65Zm.39,6.27h-.8v-5h.8Z"/>
    <path class="cls-3" d="M180.18,78.69a2.51,2.51,0,0,1-1.36.35,2.25,2.25,0,0,1-1.73-.7,2.5,2.5,0,0,1-.66-1.8,2.78,2.78,0,0,1,.71-2,2.47,2.47,0,0,1,1.89-.75,2.64,2.64,0,0,1,1.16.24v.82a2,2,0,0,0-1.19-.39,1.61,1.61,0,0,0-1.26.55,2.13,2.13,0,0,0-.49,1.44,2,2,0,0,0,.46,1.39,1.59,1.59,0,0,0,1.24.51,2,2,0,0,0,1.23-.44Z"/>
    <path class="cls-3" d="M185,78.92h-.8v-.78h0a1.83,1.83,0,0,1-2.71.51A1.39,1.39,0,0,1,181,77.6c0-.94.55-1.48,1.65-1.64l1.5-.21c0-.85-.34-1.27-1-1.27a2.48,2.48,0,0,0-1.63.62v-.83a3.12,3.12,0,0,1,1.7-.46c1.17,0,1.76.62,1.76,1.86Zm-.8-2.53-1.2.17a1.75,1.75,0,0,0-.84.28.79.79,0,0,0-.29.7.76.76,0,0,0,.26.59,1,1,0,0,0,.7.24,1.27,1.27,0,0,0,1-.42,1.49,1.49,0,0,0,.39-1.06Z"/>
    <path class="cls-3" d="M189.89,78.69a2.54,2.54,0,0,1-1.37.35,2.22,2.22,0,0,1-1.72-.7,2.5,2.5,0,0,1-.66-1.8,2.78,2.78,0,0,1,.71-2,2.47,2.47,0,0,1,1.89-.75,2.67,2.67,0,0,1,1.16.24v.82a2,2,0,0,0-1.19-.39,1.61,1.61,0,0,0-1.26.55,2.08,2.08,0,0,0-.49,1.44,2,2,0,0,0,.46,1.39,1.59,1.59,0,0,0,1.24.51,2,2,0,0,0,1.23-.44Z"/>
    <path class="cls-3" d="M191.51,72.65a.52.52,0,0,1-.37-.14.5.5,0,0,1-.15-.37.52.52,0,0,1,.15-.38.53.53,0,0,1,.37-.15.5.5,0,0,1,.37.15.49.49,0,0,1,.16.38.46.46,0,0,1-.16.36A.5.5,0,0,1,191.51,72.65Zm.39,6.27h-.8v-5h.8Z"/>
    <path class="cls-3" d="M195.61,79a2.31,2.31,0,0,1-1.77-.7,2.61,2.61,0,0,1-.66-1.86,2.72,2.72,0,0,1,.69-2,2.48,2.48,0,0,1,1.86-.7,2.25,2.25,0,0,1,1.74.68,2.73,2.73,0,0,1,.63,1.91,2.69,2.69,0,0,1-.67,1.92A2.38,2.38,0,0,1,195.61,79Zm.06-4.56a1.52,1.52,0,0,0-1.22.52,2.19,2.19,0,0,0-.45,1.45,2,2,0,0,0,.46,1.4,1.5,1.5,0,0,0,1.21.52,1.43,1.43,0,0,0,1.19-.51,2.16,2.16,0,0,0,.42-1.43,2.21,2.21,0,0,0-.42-1.44A1.43,1.43,0,0,0,195.67,74.48Zm1.17-3.11L195.56,73h-.62L196,71.37Z"/>
    <path class="cls-3" d="M203.53,78.92h-.8V76.07c0-1.06-.39-1.59-1.16-1.59a1.25,1.25,0,0,0-1,.45,1.64,1.64,0,0,0-.4,1.14v2.85h-.8v-5h.8v.83h0a1.81,1.81,0,0,1,1.64-.94,1.52,1.52,0,0,1,1.26.53,2.34,2.34,0,0,1,.43,1.53Z"/>
    <path class="cls-3" d="M172.3,90.92h-.8v-.85h0a2,2,0,0,1-3.22.3,2.75,2.75,0,0,1-.57-1.83,3,3,0,0,1,.63-2,2.08,2.08,0,0,1,1.66-.74,1.6,1.6,0,0,1,1.5.81h0v-3.1h.8Zm-.8-2.26v-.73a1.42,1.42,0,0,0-.4-1,1.32,1.32,0,0,0-1-.42,1.39,1.39,0,0,0-1.16.54,2.41,2.41,0,0,0-.42,1.48,2.13,2.13,0,0,0,.41,1.37,1.33,1.33,0,0,0,1.08.5,1.35,1.35,0,0,0,1.09-.49A1.84,1.84,0,0,0,171.5,88.66Z"/>
    <path class="cls-3" d="M177.94,88.62h-3.53a1.93,1.93,0,0,0,.45,1.29,1.53,1.53,0,0,0,1.18.46,2.47,2.47,0,0,0,1.56-.56v.75a2.9,2.9,0,0,1-1.75.48,2.12,2.12,0,0,1-1.66-.68,2.82,2.82,0,0,1-.61-1.92,2.69,2.69,0,0,1,.67-1.9,2.1,2.1,0,0,1,1.64-.73,1.9,1.9,0,0,1,1.52.63,2.68,2.68,0,0,1,.53,1.76Zm-.82-.68a1.57,1.57,0,0,0-.33-1.07,1.14,1.14,0,0,0-.92-.39,1.26,1.26,0,0,0-1,.41,1.91,1.91,0,0,0-.49,1Z"/>
    <path class="cls-3" d="M187.42,90.92h-.91l-.74-2h-3l-.7,2h-.91l2.69-7h.85Zm-1.92-2.7-1.1-3a3,3,0,0,1-.1-.47h0a2.42,2.42,0,0,1-.12.47l-1.08,3Z"/>
    <path class="cls-3" d="M189.27,88.28v2.64h-.82v-7h1.93a2.54,2.54,0,0,1,1.74.55,2,2,0,0,1,.61,1.54,2.13,2.13,0,0,1-.68,1.63,2.61,2.61,0,0,1-1.86.64Zm0-3.62v2.87h.86a2,2,0,0,0,1.3-.38,1.38,1.38,0,0,0,.44-1.1c0-.92-.54-1.39-1.64-1.39Z"/>
    <path class="cls-3" d="M194.87,90.92h-.82v-7h.82Z"/>
  </g>
  <g id="shape1192-39">
    <g id="use7">
      <g id="lend5">
        <path id="path4" class="cls-6" d="M161.69,50.43l8.05,4-8,4a9,9,0,0,0,0-8"/>
      </g>
    </g>
  </g>
  <g class="cls-2">
    <path class="cls-7" d="M24.31,6.52H21.65V5.89h2.66Z"/>
    <path class="cls-7" d="M32.15,2.74H29.42V5.16H32v.73H29.42V9H28.6V2h3.55Z"/>
    <path class="cls-7" d="M34.17,9h-.8V1.59h.8Z"/>
    <path class="cls-7" d="M39.84,9H39V8.2h0a1.64,1.64,0,0,1-1.54.91c-1.2,0-1.79-.71-1.79-2.13V4h.79V6.86c0,1,.41,1.58,1.21,1.58a1.24,1.24,0,0,0,1-.43A1.68,1.68,0,0,0,39,6.88V4h.8Z"/>
    <path class="cls-7" d="M42.26,8.79a3.1,3.1,0,0,1-.5,1.89,1.65,1.65,0,0,1-1.42.67,1.4,1.4,0,0,1-.66-.16v-.74a1.39,1.39,0,0,0,.68.22c.73,0,1.09-.59,1.09-1.75V4h.81Zm-.4-6.06a.49.49,0,0,1-.36-.15.5.5,0,0,1-.15-.37.5.5,0,0,1,.51-.52.56.56,0,0,1,.38.14.52.52,0,0,1,.15.38.49.49,0,0,1-.15.36A.53.53,0,0,1,41.86,2.73Z"/>
    <path class="cls-7" d="M46,9.11a2.31,2.31,0,0,1-1.77-.7,2.6,2.6,0,0,1-.67-1.86,2.68,2.68,0,0,1,.69-2,2.45,2.45,0,0,1,1.86-.71,2.25,2.25,0,0,1,1.75.69,2.72,2.72,0,0,1,.63,1.91,2.69,2.69,0,0,1-.68,1.91A2.37,2.37,0,0,1,46,9.11ZM46,4.55a1.53,1.53,0,0,0-1.22.53,2.14,2.14,0,0,0-.45,1.44,2.08,2.08,0,0,0,.46,1.41A1.54,1.54,0,0,0,46,8.44a1.49,1.49,0,0,0,1.2-.5,2.21,2.21,0,0,0,.42-1.44,2.21,2.21,0,0,0-.42-1.44A1.47,1.47,0,0,0,46,4.55Z"/>
    <path class="cls-7" d="M56.74,9h-.8V8.15h0a2,2,0,0,1-3.22.29,2.75,2.75,0,0,1-.57-1.83,3,3,0,0,1,.63-2,2,2,0,0,1,1.66-.75,1.6,1.6,0,0,1,1.5.81h0V1.59h.8Zm-.8-2.27V6a1.42,1.42,0,0,0-.4-1,1.34,1.34,0,0,0-1-.42,1.39,1.39,0,0,0-1.16.54A2.35,2.35,0,0,0,53,6.57a2.13,2.13,0,0,0,.41,1.37,1.33,1.33,0,0,0,1.08.5A1.36,1.36,0,0,0,55.52,8,1.82,1.82,0,0,0,55.94,6.73Z"/>
    <path class="cls-7" d="M62.38,6.7H58.85A1.87,1.87,0,0,0,59.3,8a1.53,1.53,0,0,0,1.18.46A2.49,2.49,0,0,0,62,7.88v.75a2.9,2.9,0,0,1-1.75.48,2.12,2.12,0,0,1-1.66-.68A2.75,2.75,0,0,1,58,6.51a2.75,2.75,0,0,1,.66-1.9,2.12,2.12,0,0,1,1.65-.73,1.9,1.9,0,0,1,1.52.63,2.71,2.71,0,0,1,.53,1.77ZM61.56,6a1.59,1.59,0,0,0-.33-1.08,1.14,1.14,0,0,0-.92-.39,1.28,1.28,0,0,0-1,.41A1.84,1.84,0,0,0,58.86,6Z"/>
    <path class="cls-7" d="M69.74,8.77a2.6,2.6,0,0,1-1.37.34,2.27,2.27,0,0,1-1.72-.69A2.54,2.54,0,0,1,66,6.61a2.78,2.78,0,0,1,.71-2,2.47,2.47,0,0,1,1.89-.75,2.64,2.64,0,0,1,1.16.24v.82a2,2,0,0,0-1.19-.39,1.61,1.61,0,0,0-1.26.55,2.08,2.08,0,0,0-.49,1.44,2,2,0,0,0,.46,1.39,1.59,1.59,0,0,0,1.24.51A2,2,0,0,0,69.74,8Z"/>
    <path class="cls-7" d="M73,9.11a2.31,2.31,0,0,1-1.77-.7,2.6,2.6,0,0,1-.66-1.86,2.68,2.68,0,0,1,.69-2,2.45,2.45,0,0,1,1.86-.71,2.22,2.22,0,0,1,1.74.69,2.72,2.72,0,0,1,.63,1.91,2.68,2.68,0,0,1-.67,1.91A2.39,2.39,0,0,1,73,9.11Zm.06-4.56a1.53,1.53,0,0,0-1.22.53,2.14,2.14,0,0,0-.45,1.44,2.08,2.08,0,0,0,.45,1.41,1.56,1.56,0,0,0,1.22.51,1.46,1.46,0,0,0,1.19-.5,2.21,2.21,0,0,0,.42-1.44,2.21,2.21,0,0,0-.42-1.44A1.43,1.43,0,0,0,73.1,4.55Zm1.17-3.1L73,3.05h-.62l1.09-1.6Z"/>
    <path class="cls-7" d="M81.08,9h-.8V8.15h0A2,2,0,0,1,77,8.44a2.8,2.8,0,0,1-.56-1.83,3,3,0,0,1,.62-2,2.08,2.08,0,0,1,1.67-.75,1.6,1.6,0,0,1,1.5.81h0V1.59h.8Zm-.8-2.27V6a1.46,1.46,0,0,0-.4-1,1.36,1.36,0,0,0-1-.42,1.37,1.37,0,0,0-1.15.54,2.35,2.35,0,0,0-.42,1.48,2.13,2.13,0,0,0,.4,1.37,1.33,1.33,0,0,0,1.08.5A1.38,1.38,0,0,0,79.86,8,1.82,1.82,0,0,0,80.28,6.73Z"/>
    <path class="cls-7" d="M83.11,2.73a.51.51,0,0,1-.37-.15.5.5,0,0,1-.15-.37.52.52,0,0,1,.15-.38.55.55,0,0,1,.37-.14.53.53,0,0,1,.37.14.49.49,0,0,1,.16.38.46.46,0,0,1-.16.36A.51.51,0,0,1,83.11,2.73ZM83.5,9h-.8V4h.8Z"/>
    <path class="cls-7" d="M89.39,8.59q0,2.76-2.64,2.76A3.58,3.58,0,0,1,85.13,11v-.8a3.35,3.35,0,0,0,1.61.47c1.23,0,1.85-.66,1.85-2V8.16h0a2,2,0,0,1-3.22.29,2.67,2.67,0,0,1-.57-1.79,3.11,3.11,0,0,1,.61-2,2.06,2.06,0,0,1,1.68-.75,1.64,1.64,0,0,1,1.5.81h0V4h.8Zm-.8-1.86V6a1.45,1.45,0,0,0-.4-1,1.32,1.32,0,0,0-1-.43A1.39,1.39,0,0,0,86,5.09,2.42,2.42,0,0,0,85.6,6.6,2.08,2.08,0,0,0,86,7.94a1.32,1.32,0,0,0,1.07.5A1.41,1.41,0,0,0,88.17,8,1.8,1.8,0,0,0,88.59,6.73Z"/>
    <path class="cls-7" d="M93.1,9.11a2.31,2.31,0,0,1-1.77-.7,2.6,2.6,0,0,1-.66-1.86,2.68,2.68,0,0,1,.69-2,2.45,2.45,0,0,1,1.86-.71A2.24,2.24,0,0,1,95,4.57a2.72,2.72,0,0,1,.63,1.91,2.69,2.69,0,0,1-.68,1.91A2.36,2.36,0,0,1,93.1,9.11Zm.06-4.56a1.52,1.52,0,0,0-1.22.53,2.14,2.14,0,0,0-.45,1.44,2.08,2.08,0,0,0,.45,1.41,1.56,1.56,0,0,0,1.22.51,1.47,1.47,0,0,0,1.19-.5,2.21,2.21,0,0,0,.42-1.44,2.21,2.21,0,0,0-.42-1.44A1.45,1.45,0,0,0,93.16,4.55Z"/>
    <path class="cls-7" d="M96.57,8.81V8A2.35,2.35,0,0,0,98,8.44c.7,0,1-.24,1-.7A.59.59,0,0,0,99,7.4a.82.82,0,0,0-.24-.25A1.75,1.75,0,0,0,98.37,7l-.45-.18a5.37,5.37,0,0,1-.58-.27,1.74,1.74,0,0,1-.42-.3,1.08,1.08,0,0,1-.26-.38,1.33,1.33,0,0,1-.08-.51,1.17,1.17,0,0,1,.16-.62,1.42,1.42,0,0,1,.43-.45A1.79,1.79,0,0,1,97.78,4a2.82,2.82,0,0,1,.71-.09,2.86,2.86,0,0,1,1.16.22v.81a2.25,2.25,0,0,0-1.27-.36,1.62,1.62,0,0,0-.4,0,1.12,1.12,0,0,0-.31.15.6.6,0,0,0-.2.22.55.55,0,0,0-.07.28.65.65,0,0,0,.28.57A1.69,1.69,0,0,0,98,6l.44.18c.22.09.42.17.6.26a2.11,2.11,0,0,1,.45.31,1.14,1.14,0,0,1,.28.38,1.25,1.25,0,0,1,.1.53,1.22,1.22,0,0,1-.16.64,1.48,1.48,0,0,1-.44.46,1.78,1.78,0,0,1-.63.26,3,3,0,0,1-.75.09A2.78,2.78,0,0,1,96.57,8.81Z"/>
    <path class="cls-7" d="M108.12,9h-.8V8.15h0a1.85,1.85,0,0,1-1.72,1,1.87,1.87,0,0,1-1.51-.67,2.8,2.8,0,0,1-.56-1.83,3,3,0,0,1,.63-2,2,2,0,0,1,1.66-.75,1.6,1.6,0,0,1,1.5.81h0V1.59h.8Zm-.8-2.27V6a1.42,1.42,0,0,0-.4-1,1.36,1.36,0,0,0-1-.42,1.39,1.39,0,0,0-1.15.54,2.35,2.35,0,0,0-.42,1.48,2.19,2.19,0,0,0,.4,1.37,1.33,1.33,0,0,0,1.09.5A1.37,1.37,0,0,0,106.9,8,1.82,1.82,0,0,0,107.32,6.73Z"/>
    <path class="cls-7" d="M113.76,6.7h-3.53A1.82,1.82,0,0,0,110.68,8a1.53,1.53,0,0,0,1.18.46,2.46,2.46,0,0,0,1.55-.56v.75a2.89,2.89,0,0,1-1.74.48A2.14,2.14,0,0,1,110,8.43a2.8,2.8,0,0,1-.6-1.92,2.75,2.75,0,0,1,.66-1.9,2.12,2.12,0,0,1,1.64-.73,1.88,1.88,0,0,1,1.52.63,2.66,2.66,0,0,1,.54,1.77ZM112.94,6a1.59,1.59,0,0,0-.34-1.08,1.11,1.11,0,0,0-.91-.39,1.28,1.28,0,0,0-1,.41A1.78,1.78,0,0,0,110.24,6Z"/>
    <path class="cls-7" d="M121.29,9h-.8V8.21h0a1.68,1.68,0,0,1-1.54.9,1.65,1.65,0,0,1-1.17-.39,1.39,1.39,0,0,1-.42-1.05c0-.94.55-1.48,1.65-1.63l1.5-.21c0-.85-.35-1.28-1-1.28a2.46,2.46,0,0,0-1.63.62V4.35a3,3,0,0,1,1.7-.47c1.17,0,1.76.62,1.76,1.86Zm-.8-2.53-1.21.16a2,2,0,0,0-.84.28.78.78,0,0,0-.28.7.79.79,0,0,0,.26.6,1,1,0,0,0,.7.23,1.29,1.29,0,0,0,1-.42A1.49,1.49,0,0,0,120.49,7Z"/>
    <path class="cls-7" d="M126.84,9H126V8.2h0a1.64,1.64,0,0,1-1.54.91c-1.19,0-1.79-.71-1.79-2.13V4h.8V6.86c0,1,.4,1.58,1.21,1.58a1.24,1.24,0,0,0,1-.43A1.68,1.68,0,0,0,126,6.88V4h.8Z"/>
    <path class="cls-7" d="M130.78,9a1.61,1.61,0,0,1-.75.15c-.88,0-1.31-.49-1.31-1.46v-3h-.86V4h.86V2.77l.8-.25V4h1.26v.68h-1.26V7.5a1.11,1.11,0,0,0,.17.71.65.65,0,0,0,.56.22.86.86,0,0,0,.53-.17Z"/>
    <path class="cls-7" d="M133.94,9.11a2.31,2.31,0,0,1-1.77-.7,2.56,2.56,0,0,1-.67-1.86,2.68,2.68,0,0,1,.69-2,2.45,2.45,0,0,1,1.86-.71,2.25,2.25,0,0,1,1.75.69,2.72,2.72,0,0,1,.63,1.91,2.69,2.69,0,0,1-.68,1.91A2.37,2.37,0,0,1,133.94,9.11ZM134,4.55a1.53,1.53,0,0,0-1.22.53,2.14,2.14,0,0,0-.45,1.44,2.08,2.08,0,0,0,.46,1.41,1.54,1.54,0,0,0,1.21.51,1.49,1.49,0,0,0,1.2-.5,2.21,2.21,0,0,0,.42-1.44,2.21,2.21,0,0,0-.42-1.44A1.47,1.47,0,0,0,134,4.55Z"/>
    <path class="cls-7" d="M140.31,4.81a1,1,0,0,0-.6-.17,1,1,0,0,0-.86.49,2.23,2.23,0,0,0-.34,1.32V9h-.8V4h.8V5h0a1.67,1.67,0,0,1,.52-.83,1.2,1.2,0,0,1,.78-.29,1.22,1.22,0,0,1,.48.07Z"/>
    <path class="cls-7" d="M141.59,2.73a.49.49,0,0,1-.36-.15.51.51,0,0,1-.16-.37.53.53,0,0,1,.89-.38.49.49,0,0,1,.16.38.46.46,0,0,1-.16.36A.51.51,0,0,1,141.59,2.73ZM142,9h-.8V4h.8Z"/>
    <path class="cls-7" d="M147.09,4.22l-3,4.09h2.93V9H143V8.75l3-4.07h-2.68V4h3.86Z"/>
    <path class="cls-7" d="M151.7,9h-.8V8.21h0a1.82,1.82,0,0,1-2.7.51,1.37,1.37,0,0,1-.43-1.05c0-.94.55-1.48,1.65-1.63l1.5-.21c0-.85-.34-1.28-1-1.28a2.48,2.48,0,0,0-1.63.62V4.35a3,3,0,0,1,1.7-.47c1.18,0,1.76.62,1.76,1.86Zm-.8-2.53-1.2.16a2,2,0,0,0-.84.28.79.79,0,0,0-.29.7.77.77,0,0,0,.27.6,1,1,0,0,0,.69.23,1.29,1.29,0,0,0,1-.42A1.53,1.53,0,0,0,150.9,7Z"/>
    <path class="cls-7" d="M156.62,8.77a2.6,2.6,0,0,1-1.37.34,2.27,2.27,0,0,1-1.72-.69,2.54,2.54,0,0,1-.66-1.81,2.78,2.78,0,0,1,.71-2,2.47,2.47,0,0,1,1.89-.75,2.67,2.67,0,0,1,1.16.24v.82a2,2,0,0,0-1.19-.39,1.61,1.61,0,0,0-1.26.55,2.13,2.13,0,0,0-.49,1.44,2,2,0,0,0,.46,1.39,1.59,1.59,0,0,0,1.24.51A2,2,0,0,0,156.62,8Z"/>
    <path class="cls-7" d="M158.24,2.73a.49.49,0,0,1-.36-.15.51.51,0,0,1-.16-.37.51.51,0,0,1,.52-.52.57.57,0,0,1,.38.14.52.52,0,0,1,.15.38.49.49,0,0,1-.15.36A.55.55,0,0,1,158.24,2.73ZM158.63,9h-.8V4h.8Z"/>
    <path class="cls-7" d="M162.34,9.11a2.32,2.32,0,0,1-1.77-.7,2.6,2.6,0,0,1-.66-1.86,2.68,2.68,0,0,1,.69-2,2.45,2.45,0,0,1,1.86-.71,2.25,2.25,0,0,1,1.75.69,2.71,2.71,0,0,1,.62,1.91,2.68,2.68,0,0,1-.67,1.91A2.38,2.38,0,0,1,162.34,9.11Zm.06-4.56a1.53,1.53,0,0,0-1.22.53,2.14,2.14,0,0,0-.45,1.44,2,2,0,0,0,.46,1.41,1.53,1.53,0,0,0,1.21.51,1.49,1.49,0,0,0,1.2-.5A2.21,2.21,0,0,0,164,6.5a2.21,2.21,0,0,0-.41-1.44A1.47,1.47,0,0,0,162.4,4.55Zm1.17-3.1-1.28,1.6h-.62l1.09-1.6Z"/>
    <path class="cls-7" d="M170.26,9h-.8V6.14c0-1.06-.38-1.59-1.16-1.59a1.25,1.25,0,0,0-1,.45,1.64,1.64,0,0,0-.4,1.14V9h-.8V4h.8v.83h0a1.8,1.8,0,0,1,1.64-1,1.52,1.52,0,0,1,1.26.53,2.34,2.34,0,0,1,.43,1.53Z"/>
    <path class="cls-7" d="M176.61,10.59h-.71a6.27,6.27,0,0,1-1.52-4.27A6.48,6.48,0,0,1,175.9,2h.72a6.6,6.6,0,0,0-1.53,4.32A6.5,6.5,0,0,0,176.61,10.59Z"/>
    <path class="cls-7" d="M180.94,8.77a2.63,2.63,0,0,1-1.37.34,2.29,2.29,0,0,1-1.73-.69,2.57,2.57,0,0,1-.65-1.81,2.73,2.73,0,0,1,.71-2,2.47,2.47,0,0,1,1.89-.75,2.7,2.7,0,0,1,1.16.24v.82a2,2,0,0,0-1.19-.39,1.6,1.6,0,0,0-1.26.55A2.08,2.08,0,0,0,178,6.54a2,2,0,0,0,.46,1.39,1.59,1.59,0,0,0,1.24.51A2,2,0,0,0,180.94,8Z"/>
    <path class="cls-7" d="M184.24,9.11a2.31,2.31,0,0,1-1.77-.7,2.6,2.6,0,0,1-.66-1.86,2.68,2.68,0,0,1,.69-2,2.42,2.42,0,0,1,1.86-.71,2.24,2.24,0,0,1,1.74.69,2.72,2.72,0,0,1,.63,1.91,2.69,2.69,0,0,1-.68,1.91A2.36,2.36,0,0,1,184.24,9.11Zm.06-4.56a1.52,1.52,0,0,0-1.22.53,2.14,2.14,0,0,0-.45,1.44,2.08,2.08,0,0,0,.45,1.41,1.55,1.55,0,0,0,1.22.51,1.48,1.48,0,0,0,1.19-.5,2.21,2.21,0,0,0,.42-1.44,2.21,2.21,0,0,0-.42-1.44A1.46,1.46,0,0,0,184.3,4.55Z"/>
    <path class="cls-7" d="M192.16,9h-.8V6.14c0-1.06-.39-1.59-1.16-1.59a1.26,1.26,0,0,0-1,.45,1.68,1.68,0,0,0-.39,1.14V9H188V4h.8v.83h0a1.79,1.79,0,0,1,1.64-1,1.5,1.5,0,0,1,1.25.53,2.35,2.35,0,0,1,.44,1.53Z"/>
    <path class="cls-7" d="M197.33,6.35V9h-.82V2h1.93a2.56,2.56,0,0,1,1.74.55,2,2,0,0,1,.62,1.54,2.1,2.1,0,0,1-.69,1.63,2.59,2.59,0,0,1-1.85.64Zm0-3.61V5.61h.86a1.92,1.92,0,0,0,1.3-.39,1.38,1.38,0,0,0,.45-1.1c0-.92-.55-1.38-1.64-1.38Z"/>
    <path class="cls-7" d="M207,9h-1.15l-2.7-3.21L203,5.55h0V9h-.82V2h.82V5.28h0a1.77,1.77,0,0,1,.19-.23L205.76,2h1l-3,3.36Z"/>
    <path class="cls-7" d="M212.24,8.7a4,4,0,0,1-1.93.41,3.1,3.1,0,0,1-2.39-1,3.54,3.54,0,0,1-.9-2.52,3.71,3.71,0,0,1,1-2.72,3.42,3.42,0,0,1,2.56-1,4.18,4.18,0,0,1,1.65.28V3a3.33,3.33,0,0,0-1.66-.42,2.56,2.56,0,0,0-2,.8,3.05,3.05,0,0,0-.75,2.16,2.89,2.89,0,0,0,.7,2,2.4,2.4,0,0,0,1.84.76,3.45,3.45,0,0,0,1.82-.47Z"/>
    <path class="cls-7" d="M217.38,9h-3.71V2h3.55v.75h-2.73V5.06H217V5.8h-2.53V8.25h2.89Z"/>
    <path class="cls-7" d="M218.64,10.59h-.72a6.46,6.46,0,0,0,1.53-4.28A6.6,6.6,0,0,0,217.92,2h.72a6.48,6.48,0,0,1,1.52,4.33A6.27,6.27,0,0,1,218.64,10.59Z"/>
    <path class="cls-7" d="M24.31,18.52H21.65v-.63h2.66Z"/>
    <path class="cls-7" d="M34,21h-.91l-.74-2h-3l-.7,2h-.91l2.68-7h.85ZM32.1,18.3l-1.1-3a2.75,2.75,0,0,1-.11-.47h0a2.53,2.53,0,0,1-.11.47l-1.09,3Z"/>
    <path class="cls-7" d="M39,21h-.8v-.8h0a1.63,1.63,0,0,1-1.54.91c-1.19,0-1.79-.71-1.79-2.13V16h.8v2.86c0,1.05.4,1.58,1.21,1.58a1.24,1.24,0,0,0,1-.43,1.63,1.63,0,0,0,.38-1.13V16H39Z"/>
    <path class="cls-7" d="M42.92,21a1.61,1.61,0,0,1-.75.15c-.87,0-1.31-.49-1.31-1.46v-3H40V16h.86V14.77l.8-.25V16h1.26v.68H41.66V19.5a1.17,1.17,0,0,0,.17.71.66.66,0,0,0,.57.22.85.85,0,0,0,.52-.17Z"/>
    <path class="cls-7" d="M48,18.7H44.48A1.82,1.82,0,0,0,44.93,20a1.52,1.52,0,0,0,1.18.46,2.46,2.46,0,0,0,1.55-.56v.75a2.89,2.89,0,0,1-1.74.48,2.14,2.14,0,0,1-1.67-.68,2.8,2.8,0,0,1-.6-1.92,2.75,2.75,0,0,1,.66-1.9A2.12,2.12,0,0,1,46,15.88a1.88,1.88,0,0,1,1.52.63A2.66,2.66,0,0,1,48,18.28ZM47.19,18a1.64,1.64,0,0,0-.34-1.08,1.12,1.12,0,0,0-.91-.39A1.28,1.28,0,0,0,45,17,1.78,1.78,0,0,0,44.49,18Z"/>
    <path class="cls-7" d="M53.37,21h-.8V18.14c0-1.06-.39-1.59-1.16-1.59a1.27,1.27,0,0,0-1,.45A1.68,1.68,0,0,0,50,18.14V21h-.8V16H50v.83h0a1.79,1.79,0,0,1,1.64-.95,1.5,1.5,0,0,1,1.25.53,2.35,2.35,0,0,1,.44,1.53Z"/>
    <path class="cls-7" d="M57.2,21a1.61,1.61,0,0,1-.75.15c-.88,0-1.31-.49-1.31-1.46v-3h-.86V16h.86V14.77l.8-.25V16H57.2v.68H55.94V19.5a1.11,1.11,0,0,0,.17.71.65.65,0,0,0,.56.22.86.86,0,0,0,.53-.17Z"/>
    <path class="cls-7" d="M58.68,14.73a.51.51,0,0,1-.52-.52.52.52,0,0,1,.15-.38.53.53,0,0,1,.37-.14.55.55,0,0,1,.37.14.52.52,0,0,1,.15.38.49.49,0,0,1-.15.36A.52.52,0,0,1,58.68,14.73ZM59.07,21h-.8V16h.8Z"/>
    <path class="cls-7" d="M64.1,20.77a2.63,2.63,0,0,1-1.37.34A2.29,2.29,0,0,1,61,20.42a2.53,2.53,0,0,1-.65-1.81,2.77,2.77,0,0,1,.7-2,2.5,2.5,0,0,1,1.89-.75,2.72,2.72,0,0,1,1.17.24v.82a2.07,2.07,0,0,0-1.2-.39,1.57,1.57,0,0,0-1.25.55,2.08,2.08,0,0,0-.49,1.44,2,2,0,0,0,.46,1.39,1.59,1.59,0,0,0,1.24.51A2,2,0,0,0,64.1,20Z"/>
    <path class="cls-7" d="M68.89,21h-.8v-.79h0a1.68,1.68,0,0,1-1.54.9,1.65,1.65,0,0,1-1.17-.39,1.39,1.39,0,0,1-.42-1c0-.94.55-1.48,1.65-1.63l1.5-.21c0-.85-.35-1.28-1-1.28a2.49,2.49,0,0,0-1.64.62v-.82a3.06,3.06,0,0,1,1.7-.47q1.77,0,1.77,1.86Zm-.8-2.53-1.21.16a2,2,0,0,0-.84.28.78.78,0,0,0-.28.7.76.76,0,0,0,.26.6,1,1,0,0,0,.69.23,1.29,1.29,0,0,0,1-.42A1.49,1.49,0,0,0,68.09,19Z"/>
    <path class="cls-7" d="M73.8,20.77a2.59,2.59,0,0,1-1.36.34,2.27,2.27,0,0,1-1.73-.69,2.54,2.54,0,0,1-.66-1.81,2.78,2.78,0,0,1,.71-2,2.47,2.47,0,0,1,1.89-.75,2.64,2.64,0,0,1,1.16.24v.82a2,2,0,0,0-1.19-.39,1.61,1.61,0,0,0-1.26.55,2.13,2.13,0,0,0-.49,1.44,2,2,0,0,0,.46,1.39,1.61,1.61,0,0,0,1.24.51A2,2,0,0,0,73.8,20Z"/>
    <path class="cls-7" d="M75.42,14.73a.49.49,0,0,1-.36-.15.5.5,0,0,1-.15-.37.5.5,0,0,1,.51-.52.56.56,0,0,1,.38.14.52.52,0,0,1,.15.38.49.49,0,0,1-.15.36A.53.53,0,0,1,75.42,14.73ZM75.81,21H75V16h.8Z"/>
    <path class="cls-7" d="M79.53,21.11a2.31,2.31,0,0,1-1.77-.7,2.56,2.56,0,0,1-.67-1.86,2.68,2.68,0,0,1,.69-2,2.45,2.45,0,0,1,1.86-.71,2.25,2.25,0,0,1,1.75.69A2.72,2.72,0,0,1,82,18.48a2.69,2.69,0,0,1-.68,1.91A2.37,2.37,0,0,1,79.53,21.11Zm0-4.56a1.53,1.53,0,0,0-1.22.53,2.14,2.14,0,0,0-.45,1.44,2.08,2.08,0,0,0,.46,1.41,1.54,1.54,0,0,0,1.21.51,1.49,1.49,0,0,0,1.2-.5,2.21,2.21,0,0,0,.42-1.44,2.21,2.21,0,0,0-.42-1.44A1.47,1.47,0,0,0,79.58,16.55Zm1.18-3.1-1.28,1.6h-.62L80,13.45Z"/>
    <path class="cls-7" d="M87.45,21h-.8V18.14q0-1.59-1.17-1.59a1.25,1.25,0,0,0-1,.45,1.68,1.68,0,0,0-.39,1.14V21h-.8V16h.8v.83h0a1.78,1.78,0,0,1,1.64-.95,1.51,1.51,0,0,1,1.25.53,2.35,2.35,0,0,1,.44,1.53Z"/>
    <path class="cls-7" d="M92.1,14.73a.49.49,0,0,1-.36-.15.5.5,0,0,1-.15-.37.5.5,0,0,1,.51-.52.56.56,0,0,1,.38.14.52.52,0,0,1,.15.38.49.49,0,0,1-.15.36A.53.53,0,0,1,92.1,14.73ZM92.49,21h-.8V16h.8Z"/>
    <path class="cls-7" d="M98.27,21h-.8V18.14q0-1.59-1.17-1.59a1.25,1.25,0,0,0-1,.45,1.68,1.68,0,0,0-.39,1.14V21h-.8V16h.8v.83h0a1.78,1.78,0,0,1,1.64-.95,1.51,1.51,0,0,1,1.25.53,2.35,2.35,0,0,1,.44,1.53Z"/>
    <path class="cls-7" d="M102.09,21a1.54,1.54,0,0,1-.74.15c-.88,0-1.32-.49-1.32-1.46v-3h-.86V16H100V14.77l.8-.25V16h1.26v.68h-1.26V19.5a1.1,1.1,0,0,0,.18.71.65.65,0,0,0,.56.22.83.83,0,0,0,.52-.17Z"/>
    <path class="cls-7" d="M107.18,18.7h-3.53A1.87,1.87,0,0,0,104.1,20a1.53,1.53,0,0,0,1.18.46,2.49,2.49,0,0,0,1.56-.56v.75a2.92,2.92,0,0,1-1.75.48,2.12,2.12,0,0,1-1.66-.68,2.75,2.75,0,0,1-.61-1.92,2.75,2.75,0,0,1,.66-1.9,2.12,2.12,0,0,1,1.65-.73,1.9,1.9,0,0,1,1.52.63,2.71,2.71,0,0,1,.53,1.77Zm-.82-.68a1.59,1.59,0,0,0-.33-1.08,1.14,1.14,0,0,0-.92-.39,1.28,1.28,0,0,0-1,.41,1.84,1.84,0,0,0-.49,1.06Z"/>
    <path class="cls-7" d="M112.66,20.59q0,2.76-2.64,2.76A3.64,3.64,0,0,1,108.4,23v-.8a3.38,3.38,0,0,0,1.61.47c1.24,0,1.85-.66,1.85-2v-.54h0a2,2,0,0,1-3.22.29,2.67,2.67,0,0,1-.57-1.79,3.17,3.17,0,0,1,.61-2,2.06,2.06,0,0,1,1.68-.75,1.62,1.62,0,0,1,1.5.81h0V16h.8Zm-.8-1.86V18a1.41,1.41,0,0,0-.4-1,1.32,1.32,0,0,0-1-.43,1.39,1.39,0,0,0-1.16.54,2.42,2.42,0,0,0-.42,1.51,2.14,2.14,0,0,0,.4,1.34,1.32,1.32,0,0,0,1.07.5,1.4,1.4,0,0,0,1.1-.48A1.8,1.8,0,0,0,111.86,18.73Z"/>
    <path class="cls-7" d="M116.89,16.81a1,1,0,0,0-.61-.17,1,1,0,0,0-.85.49,2.22,2.22,0,0,0-.35,1.32V21h-.8V16h.8v1h0a1.76,1.76,0,0,1,.53-.83,1.2,1.2,0,0,1,.78-.29,1.22,1.22,0,0,1,.48.07Z"/>
    <path class="cls-7" d="M121.34,21h-.8v-.79h0a1.68,1.68,0,0,1-1.54.9,1.65,1.65,0,0,1-1.17-.39,1.39,1.39,0,0,1-.42-1c0-.94.55-1.48,1.65-1.63l1.5-.21c0-.85-.35-1.28-1-1.28a2.44,2.44,0,0,0-1.63.62v-.82a3,3,0,0,1,1.7-.47c1.17,0,1.76.62,1.76,1.86Zm-.8-2.53-1.21.16a2,2,0,0,0-.84.28.78.78,0,0,0-.28.7.76.76,0,0,0,.26.6,1,1,0,0,0,.7.23,1.29,1.29,0,0,0,1-.42,1.49,1.49,0,0,0,.39-1.06Z"/>
    <path class="cls-7" d="M127.11,21h-.8v-.85h0a1.84,1.84,0,0,1-1.71,1,1.87,1.87,0,0,1-1.51-.67,2.75,2.75,0,0,1-.57-1.83,3,3,0,0,1,.63-2,2.06,2.06,0,0,1,1.66-.75,1.6,1.6,0,0,1,1.5.81h0v-3.1h.8Zm-.8-2.27V18a1.42,1.42,0,0,0-.4-1,1.32,1.32,0,0,0-1-.42,1.37,1.37,0,0,0-1.15.54,2.29,2.29,0,0,0-.42,1.48,2.13,2.13,0,0,0,.4,1.37,1.33,1.33,0,0,0,1.08.5A1.38,1.38,0,0,0,125.9,20,1.86,1.86,0,0,0,126.31,18.73Z"/>
    <path class="cls-7" d="M132.31,21h-.8v-.79h0a1.82,1.82,0,0,1-2.7.51,1.37,1.37,0,0,1-.43-1c0-.94.55-1.48,1.65-1.63l1.5-.21c0-.85-.34-1.28-1-1.28a2.48,2.48,0,0,0-1.63.62v-.82a3,3,0,0,1,1.7-.47c1.18,0,1.76.62,1.76,1.86Zm-.8-2.53-1.2.16a2,2,0,0,0-.84.28.79.79,0,0,0-.29.7.77.77,0,0,0,.27.6,1,1,0,0,0,.69.23,1.29,1.29,0,0,0,1-.42,1.53,1.53,0,0,0,.38-1.06Z"/>
    <path class="cls-7" d="M140.83,21H140v-.85h0a2,2,0,0,1-3.22.29,2.75,2.75,0,0,1-.57-1.83,3,3,0,0,1,.63-2,2,2,0,0,1,1.66-.75,1.6,1.6,0,0,1,1.5.81h0v-3.1h.8Zm-.8-2.27V18a1.42,1.42,0,0,0-.4-1,1.36,1.36,0,0,0-1-.42,1.39,1.39,0,0,0-1.15.54,2.35,2.35,0,0,0-.42,1.48,2.19,2.19,0,0,0,.4,1.37,1.33,1.33,0,0,0,1.09.5,1.37,1.37,0,0,0,1.08-.48A1.82,1.82,0,0,0,140,18.73Z"/>
    <path class="cls-7" d="M146.47,18.7h-3.53a1.82,1.82,0,0,0,.45,1.28,1.53,1.53,0,0,0,1.18.46,2.46,2.46,0,0,0,1.55-.56v.75a2.89,2.89,0,0,1-1.74.48,2.14,2.14,0,0,1-1.67-.68,2.8,2.8,0,0,1-.6-1.92,2.75,2.75,0,0,1,.66-1.9,2.12,2.12,0,0,1,1.64-.73,1.88,1.88,0,0,1,1.52.63,2.66,2.66,0,0,1,.54,1.77Zm-.82-.68a1.54,1.54,0,0,0-.34-1.08,1.11,1.11,0,0,0-.91-.39,1.28,1.28,0,0,0-1,.41A1.78,1.78,0,0,0,143,18Z"/>
    <path class="cls-7" d="M158.83,14l-2,7h-1l-1.44-5.12a3.19,3.19,0,0,1-.11-.71h0a4.11,4.11,0,0,1-.13.7L152.74,21h-1l-2-7h.9l1.49,5.37a4,4,0,0,1,.12.71h0a5.09,5.09,0,0,1,.15-.71L154,14h.79l1.48,5.41a4.92,4.92,0,0,1,.12.66h0a3.27,3.27,0,0,1,.13-.68L157.94,14Z"/>
    <path class="cls-7" d="M160.17,14.73a.53.53,0,0,1-.37-.15.5.5,0,0,1-.15-.37.52.52,0,0,1,.15-.38.57.57,0,0,1,.37-.14.53.53,0,0,1,.37.14.49.49,0,0,1,.16.38.46.46,0,0,1-.16.36A.51.51,0,0,1,160.17,14.73Zm.39,6.27h-.8V16h.8Z"/>
    <path class="cls-7" d="M166.33,21h-.8V18.14c0-1.06-.39-1.59-1.16-1.59a1.25,1.25,0,0,0-1,.45,1.64,1.64,0,0,0-.4,1.14V21h-.8V16h.8v.83h0a1.8,1.8,0,0,1,1.64-.95,1.52,1.52,0,0,1,1.26.53,2.34,2.34,0,0,1,.43,1.53Z"/>
    <path class="cls-7" d="M172.11,21h-.8v-.85h0a1.85,1.85,0,0,1-1.72,1,1.87,1.87,0,0,1-1.51-.67,2.8,2.8,0,0,1-.56-1.83,3,3,0,0,1,.63-2,2,2,0,0,1,1.66-.75,1.6,1.6,0,0,1,1.5.81h0v-3.1h.8Zm-.8-2.27V18a1.42,1.42,0,0,0-.4-1,1.36,1.36,0,0,0-1-.42,1.37,1.37,0,0,0-1.15.54,2.35,2.35,0,0,0-.42,1.48,2.19,2.19,0,0,0,.4,1.37,1.33,1.33,0,0,0,1.08.5,1.38,1.38,0,0,0,1.09-.48A1.82,1.82,0,0,0,171.31,18.73Z"/>
    <path class="cls-7" d="M175.82,21.11a2.31,2.31,0,0,1-1.77-.7,2.6,2.6,0,0,1-.66-1.86,2.68,2.68,0,0,1,.69-2,2.45,2.45,0,0,1,1.86-.71,2.24,2.24,0,0,1,1.74.69,2.72,2.72,0,0,1,.63,1.91,2.69,2.69,0,0,1-.68,1.91A2.36,2.36,0,0,1,175.82,21.11Zm.06-4.56a1.53,1.53,0,0,0-1.22.53,2.14,2.14,0,0,0-.45,1.44,2.08,2.08,0,0,0,.45,1.41,1.56,1.56,0,0,0,1.22.51,1.47,1.47,0,0,0,1.19-.5,2.21,2.21,0,0,0,.42-1.44,2.21,2.21,0,0,0-.42-1.44A1.45,1.45,0,0,0,175.88,16.55Z"/>
    <path class="cls-7" d="M185.89,16l-1.5,5h-.83l-1-3.58a2.09,2.09,0,0,1-.08-.47h0a2.15,2.15,0,0,1-.1.46L181.21,21h-.8l-1.51-5h.84l1,3.75a2.37,2.37,0,0,1,.07.45h0a2,2,0,0,1,.09-.45L182.12,16h.73l1,3.76a3.91,3.91,0,0,1,.07.45h0a2.39,2.39,0,0,1,.08-.45l1-3.76Z"/>
    <path class="cls-7" d="M186.51,20.81V20a2.4,2.4,0,0,0,1.44.48c.71,0,1.06-.24,1.06-.7a.59.59,0,0,0-.09-.34.75.75,0,0,0-.25-.25,1.52,1.52,0,0,0-.36-.19l-.44-.18a5.6,5.6,0,0,1-.59-.27,2,2,0,0,1-.42-.3,1.19,1.19,0,0,1-.25-.38,1.33,1.33,0,0,1-.09-.51,1.27,1.27,0,0,1,.16-.62,1.54,1.54,0,0,1,.43-.45,1.84,1.84,0,0,1,.62-.28,2.76,2.76,0,0,1,.71-.09,2.86,2.86,0,0,1,1.16.22v.81a2.27,2.27,0,0,0-1.27-.36,1.7,1.7,0,0,0-.41.05,1.05,1.05,0,0,0-.3.15.63.63,0,0,0-.21.22.68.68,0,0,0-.07.28.81.81,0,0,0,.07.33.79.79,0,0,0,.21.24A1.69,1.69,0,0,0,188,18l.45.18c.22.09.42.17.59.26a1.7,1.7,0,0,1,.45.31,1.17,1.17,0,0,1,.29.38,1.25,1.25,0,0,1,.1.53,1.32,1.32,0,0,1-.16.64,1.48,1.48,0,0,1-.44.46,1.78,1.78,0,0,1-.63.26,3.08,3.08,0,0,1-.75.09A2.85,2.85,0,0,1,186.51,20.81Z"/>
    <path class="cls-7" d="M24.31,30.52H21.65v-.63h2.66Z"/>
    <path class="cls-7" d="M34.24,33h-1l-3.61-5.59a2.26,2.26,0,0,1-.22-.44h0a6.66,6.66,0,0,1,0,1V33H28.6V26h1.06l3.51,5.5a4.9,4.9,0,0,1,.28.47h0a8,8,0,0,1,0-1V26h.82Z"/>
    <path class="cls-7" d="M38.06,33.11a2.31,2.31,0,0,1-1.77-.7,2.6,2.6,0,0,1-.66-1.86,2.68,2.68,0,0,1,.69-2,2.45,2.45,0,0,1,1.86-.71,2.22,2.22,0,0,1,1.74.69,2.72,2.72,0,0,1,.63,1.91,2.68,2.68,0,0,1-.67,1.91A2.39,2.39,0,0,1,38.06,33.11Zm.06-4.56a1.53,1.53,0,0,0-1.22.53,2.14,2.14,0,0,0-.45,1.44,2.08,2.08,0,0,0,.45,1.41,1.56,1.56,0,0,0,1.22.51,1.46,1.46,0,0,0,1.19-.5,2.68,2.68,0,0,0,0-2.88A1.43,1.43,0,0,0,38.12,28.55Z"/>
    <path class="cls-7" d="M48.93,33h-.8V30.12a2.18,2.18,0,0,0-.26-1.2,1,1,0,0,0-.86-.37,1.08,1.08,0,0,0-.87.47,1.79,1.79,0,0,0-.36,1.12V33H45V30c0-1-.38-1.48-1.14-1.48A1.07,1.07,0,0,0,43,29a1.89,1.89,0,0,0-.34,1.15V33h-.8V28h.8v.79h0a1.69,1.69,0,0,1,1.55-.91,1.46,1.46,0,0,1,.9.28,1.43,1.43,0,0,1,.52.75,1.77,1.77,0,0,1,1.66-1c1.1,0,1.65.68,1.65,2Z"/>
    <path class="cls-7" d="M51.26,32.27h0V33h-.8V25.59h.8v3.28h0a1.9,1.9,0,0,1,1.73-1,1.83,1.83,0,0,1,1.51.67,2.8,2.8,0,0,1,.54,1.8,3.09,3.09,0,0,1-.61,2,2,2,0,0,1-1.67.75A1.65,1.65,0,0,1,51.26,32.27Zm0-2V31A1.5,1.5,0,0,0,51.65,32a1.37,1.37,0,0,0,1,.43,1.33,1.33,0,0,0,1.14-.56,2.51,2.51,0,0,0,.41-1.55,2,2,0,0,0-.38-1.3,1.28,1.28,0,0,0-1.05-.48,1.4,1.4,0,0,0-1.12.49A1.8,1.8,0,0,0,51.24,30.26Z"/>
    <path class="cls-7" d="M58.93,28.81a1,1,0,0,0-.61-.17,1,1,0,0,0-.85.49,2.22,2.22,0,0,0-.35,1.32V33h-.8V28h.8v1h0a1.76,1.76,0,0,1,.53-.83,1.2,1.2,0,0,1,.78-.29,1.22,1.22,0,0,1,.48.07Z"/>
    <path class="cls-7" d="M63.82,30.7H60.29A1.82,1.82,0,0,0,60.74,32a1.52,1.52,0,0,0,1.18.46,2.46,2.46,0,0,0,1.55-.56v.75a2.89,2.89,0,0,1-1.74.48,2.14,2.14,0,0,1-1.67-.68,2.8,2.8,0,0,1-.6-1.92,2.75,2.75,0,0,1,.66-1.9,2.12,2.12,0,0,1,1.64-.73,1.88,1.88,0,0,1,1.52.63,2.66,2.66,0,0,1,.54,1.77ZM63,30a1.64,1.64,0,0,0-.34-1.08,1.12,1.12,0,0,0-.91-.39,1.28,1.28,0,0,0-1,.41A1.78,1.78,0,0,0,60.3,30Z"/>
    <path class="cls-7" d="M72,33h-.81v-.85h0a2,2,0,0,1-3.23.29,2.74,2.74,0,0,1-.56-1.83,3,3,0,0,1,.62-2,2.06,2.06,0,0,1,1.67-.75,1.62,1.62,0,0,1,1.5.81h0v-3.1H72Zm-.81-2.27V30a1.42,1.42,0,0,0-.4-1,1.32,1.32,0,0,0-1-.42,1.37,1.37,0,0,0-1.15.54,2.35,2.35,0,0,0-.42,1.48,2.13,2.13,0,0,0,.4,1.37,1.33,1.33,0,0,0,1.08.5A1.38,1.38,0,0,0,70.82,32,1.81,1.81,0,0,0,71.23,30.73Z"/>
    <path class="cls-7" d="M77.68,30.7H74.15A1.87,1.87,0,0,0,74.59,32a1.54,1.54,0,0,0,1.19.46,2.46,2.46,0,0,0,1.55-.56v.75a2.89,2.89,0,0,1-1.74.48,2.13,2.13,0,0,1-1.67-.68,2.8,2.8,0,0,1-.61-1.92,2.75,2.75,0,0,1,.67-1.9,2.12,2.12,0,0,1,1.64-.73,1.9,1.9,0,0,1,1.52.63,2.66,2.66,0,0,1,.54,1.77ZM76.85,30a1.59,1.59,0,0,0-.33-1.08,1.13,1.13,0,0,0-.92-.39,1.32,1.32,0,0,0-1,.41A1.91,1.91,0,0,0,74.15,30Z"/>
    <path class="cls-7" d="M85.67,33h-.8v-.8h0a1.64,1.64,0,0,1-1.54.91c-1.2,0-1.79-.71-1.79-2.13V28h.79v2.86c0,1.05.41,1.58,1.21,1.58a1.24,1.24,0,0,0,1-.43,1.68,1.68,0,0,0,.38-1.13V28h.8Z"/>
    <path class="cls-7" d="M87,32.81V32a2.4,2.4,0,0,0,1.44.48c.71,0,1.06-.24,1.06-.7a.59.59,0,0,0-.09-.34.75.75,0,0,0-.25-.25,1.52,1.52,0,0,0-.36-.19l-.45-.18c-.22-.09-.41-.18-.58-.27a1.74,1.74,0,0,1-.42-.3,1,1,0,0,1-.25-.38,1.33,1.33,0,0,1-.09-.51,1.27,1.27,0,0,1,.16-.62,1.42,1.42,0,0,1,.43-.45A1.84,1.84,0,0,1,88.2,28a2.71,2.71,0,0,1,.71-.09,2.86,2.86,0,0,1,1.16.22v.81a2.27,2.27,0,0,0-1.27-.36,1.7,1.7,0,0,0-.41.05,1.28,1.28,0,0,0-.31.15.7.7,0,0,0-.2.22.68.68,0,0,0-.07.28.81.81,0,0,0,.07.33.79.79,0,0,0,.21.24,1.69,1.69,0,0,0,.33.18l.45.18c.22.09.42.17.59.26a1.7,1.7,0,0,1,.45.31,1.17,1.17,0,0,1,.29.38,1.43,1.43,0,0,1,.1.53,1.22,1.22,0,0,1-.17.64,1.45,1.45,0,0,1-.43.46,2,2,0,0,1-.63.26,3.08,3.08,0,0,1-.75.09A2.85,2.85,0,0,1,87,32.81Z"/>
    <path class="cls-7" d="M95.57,33h-.8v-.8h0a1.64,1.64,0,0,1-1.54.91c-1.19,0-1.79-.71-1.79-2.13V28h.8v2.86c0,1.05.4,1.58,1.21,1.58a1.24,1.24,0,0,0,1-.43,1.68,1.68,0,0,0,.38-1.13V28h.8Z"/>
    <path class="cls-7" d="M100.77,33H100v-.79h0a1.69,1.69,0,0,1-1.54.9,1.65,1.65,0,0,1-1.17-.39,1.39,1.39,0,0,1-.42-1c0-.94.55-1.48,1.65-1.63l1.5-.21c0-.85-.35-1.28-1-1.28a2.49,2.49,0,0,0-1.64.62v-.82a3.06,3.06,0,0,1,1.7-.47q1.77,0,1.77,1.86Zm-.8-2.53-1.21.16a2,2,0,0,0-.84.28.78.78,0,0,0-.28.7.76.76,0,0,0,.26.6,1,1,0,0,0,.69.23,1.29,1.29,0,0,0,1-.42A1.49,1.49,0,0,0,100,31Z"/>
    <path class="cls-7" d="M104.88,28.81a1,1,0,0,0-.6-.17,1,1,0,0,0-.86.49,2.23,2.23,0,0,0-.34,1.32V33h-.81V28h.81v1h0a1.67,1.67,0,0,1,.52-.83,1.2,1.2,0,0,1,.78-.29,1.22,1.22,0,0,1,.48.07Z"/>
    <path class="cls-7" d="M106.16,26.73a.49.49,0,0,1-.36-.15.47.47,0,0,1-.16-.37.49.49,0,0,1,.16-.38.52.52,0,0,1,.36-.14.57.57,0,0,1,.38.14.52.52,0,0,1,.15.38.49.49,0,0,1-.15.36A.55.55,0,0,1,106.16,26.73Zm.39,6.27h-.8V28h.8Z"/>
    <path class="cls-7" d="M110.26,33.11a2.31,2.31,0,0,1-1.77-.7,2.6,2.6,0,0,1-.66-1.86,2.68,2.68,0,0,1,.69-2,2.45,2.45,0,0,1,1.86-.71,2.25,2.25,0,0,1,1.75.69,2.76,2.76,0,0,1,.62,1.91,2.68,2.68,0,0,1-.67,1.91A2.38,2.38,0,0,1,110.26,33.11Zm.06-4.56a1.53,1.53,0,0,0-1.22.53,2.14,2.14,0,0,0-.45,1.44,2,2,0,0,0,.46,1.41,1.53,1.53,0,0,0,1.21.51,1.49,1.49,0,0,0,1.2-.5,2.73,2.73,0,0,0,0-2.88A1.47,1.47,0,0,0,110.32,28.55Z"/>
    <path class="cls-7" d="M117.19,26l-3.36,8.17h-.74L116.44,26Z"/>
    <path class="cls-7" d="M121.34,32.77a2.63,2.63,0,0,1-1.37.34,2.29,2.29,0,0,1-1.73-.69,2.57,2.57,0,0,1-.65-1.81,2.73,2.73,0,0,1,.71-2,2.47,2.47,0,0,1,1.89-.75,2.67,2.67,0,0,1,1.16.24v.82a2,2,0,0,0-1.19-.39,1.6,1.6,0,0,0-1.26.55,2.08,2.08,0,0,0-.49,1.44,2,2,0,0,0,.46,1.39,1.59,1.59,0,0,0,1.24.51,2,2,0,0,0,1.23-.44Z"/>
    <path class="cls-7" d="M124.64,33.11a2.31,2.31,0,0,1-1.77-.7,2.6,2.6,0,0,1-.66-1.86,2.68,2.68,0,0,1,.69-2,2.42,2.42,0,0,1,1.86-.71,2.24,2.24,0,0,1,1.74.69,2.72,2.72,0,0,1,.63,1.91,2.69,2.69,0,0,1-.68,1.91A2.36,2.36,0,0,1,124.64,33.11Zm.06-4.56a1.52,1.52,0,0,0-1.22.53,2.14,2.14,0,0,0-.45,1.44,2.08,2.08,0,0,0,.45,1.41,1.55,1.55,0,0,0,1.22.51,1.48,1.48,0,0,0,1.19-.5,2.68,2.68,0,0,0,0-2.88A1.46,1.46,0,0,0,124.7,28.55Z"/>
    <path class="cls-7" d="M132.56,33h-.8V30.14c0-1.06-.39-1.59-1.16-1.59a1.27,1.27,0,0,0-1,.45,1.68,1.68,0,0,0-.39,1.14V33h-.8V28h.8v.83h0a1.79,1.79,0,0,1,1.64-.95,1.5,1.5,0,0,1,1.25.53,2.35,2.35,0,0,1,.44,1.53Z"/>
    <path class="cls-7" d="M136.39,33a1.61,1.61,0,0,1-.75.15c-.88,0-1.31-.49-1.31-1.46v-3h-.86V28h.86V26.77l.8-.25V28h1.26v.68h-1.26V31.5a1.11,1.11,0,0,0,.17.71.65.65,0,0,0,.56.22.86.86,0,0,0,.53-.17Z"/>
    <path class="cls-7" d="M140.06,28.81a1,1,0,0,0-.6-.17,1,1,0,0,0-.86.49,2.23,2.23,0,0,0-.34,1.32V33h-.8V28h.8v1h0a1.67,1.67,0,0,1,.52-.83,1.2,1.2,0,0,1,.78-.29,1.22,1.22,0,0,1,.48.07Z"/>
    <path class="cls-7" d="M144.51,33h-.8v-.79h0a1.83,1.83,0,0,1-2.71.51,1.39,1.39,0,0,1-.42-1c0-.94.55-1.48,1.65-1.63l1.5-.21c0-.85-.34-1.28-1-1.28a2.48,2.48,0,0,0-1.63.62v-.82a3,3,0,0,1,1.7-.47c1.17,0,1.76.62,1.76,1.86Zm-.8-2.53-1.21.16a1.87,1.87,0,0,0-.83.28.9.9,0,0,0,0,1.3,1.05,1.05,0,0,0,.7.23,1.27,1.27,0,0,0,1-.42,1.49,1.49,0,0,0,.39-1.06Z"/>
    <path class="cls-7" d="M145.72,32.81V32a2.35,2.35,0,0,0,1.44.48c.7,0,1.05-.24,1.05-.7a.59.59,0,0,0-.09-.34.82.82,0,0,0-.24-.25,1.52,1.52,0,0,0-.36-.19l-.45-.18a5.37,5.37,0,0,1-.58-.27,1.74,1.74,0,0,1-.42-.3,1.22,1.22,0,0,1-.26-.38,1.56,1.56,0,0,1-.08-.51,1.17,1.17,0,0,1,.16-.62,1.42,1.42,0,0,1,.43-.45,1.79,1.79,0,0,1,.61-.28,2.82,2.82,0,0,1,.71-.09,2.86,2.86,0,0,1,1.16.22v.81a2.25,2.25,0,0,0-1.27-.36,1.62,1.62,0,0,0-.4.05,1.28,1.28,0,0,0-.31.15.6.6,0,0,0-.2.22.55.55,0,0,0-.07.28.65.65,0,0,0,.28.57,1.69,1.69,0,0,0,.33.18l.44.18c.22.09.42.17.6.26a2.11,2.11,0,0,1,.45.31,1.14,1.14,0,0,1,.28.38,1.25,1.25,0,0,1,.1.53,1.22,1.22,0,0,1-.16.64,1.38,1.38,0,0,1-.44.46,1.78,1.78,0,0,1-.63.26,3,3,0,0,1-.74.09A2.82,2.82,0,0,1,145.72,32.81Z"/>
    <path class="cls-7" d="M154.28,30.7h-3.53A1.87,1.87,0,0,0,151.2,32a1.53,1.53,0,0,0,1.18.46,2.49,2.49,0,0,0,1.56-.56v.75a2.9,2.9,0,0,1-1.75.48,2.12,2.12,0,0,1-1.66-.68,3.19,3.19,0,0,1,.05-3.82,2.12,2.12,0,0,1,1.65-.73,1.9,1.9,0,0,1,1.52.63,2.71,2.71,0,0,1,.53,1.77Zm-.82-.68a1.59,1.59,0,0,0-.33-1.08,1.14,1.14,0,0,0-.92-.39,1.28,1.28,0,0,0-1,.41,1.84,1.84,0,0,0-.49,1.06Z"/>
    <path class="cls-7" d="M159.64,33h-.8V30.14c0-1.06-.38-1.59-1.16-1.59a1.25,1.25,0,0,0-1,.45,1.64,1.64,0,0,0-.4,1.14V33h-.8V28h.8v.83h0a1.8,1.8,0,0,1,1.64-.95,1.52,1.52,0,0,1,1.26.53,2.34,2.34,0,0,1,.43,1.53Zm-.52-7.12a1.34,1.34,0,0,1-.24.83.73.73,0,0,1-.63.33,1.63,1.63,0,0,1-.79-.26,1.36,1.36,0,0,0-.58-.21c-.29,0-.43.19-.43.56H156a1.35,1.35,0,0,1,.23-.84.79.79,0,0,1,.66-.32,1.41,1.41,0,0,1,.72.26,1.3,1.3,0,0,0,.63.21c.27,0,.41-.19.41-.56Z"/>
    <path class="cls-7" d="M164.73,33h-.8v-.79h0a1.83,1.83,0,0,1-2.71.51,1.39,1.39,0,0,1-.42-1c0-.94.55-1.48,1.65-1.63l1.5-.21c0-.85-.34-1.28-1-1.28a2.46,2.46,0,0,0-1.63.62v-.82a3,3,0,0,1,1.7-.47c1.17,0,1.76.62,1.76,1.86Zm-.8-2.53-1.21.16a2,2,0,0,0-.84.28.81.81,0,0,0-.28.7.79.79,0,0,0,.26.6,1.05,1.05,0,0,0,.7.23,1.27,1.27,0,0,0,1-.42,1.49,1.49,0,0,0,.39-1.06Z"/>
  </g>
  <line class="cls-8" x1="162.7" y1="54.45" x2="75.52" y2="54.45"/>
</svg>
