<svg xmlns="http://www.w3.org/2000/svg" viewBox="0 0 224.4 98.83"><defs><style>.cls-1{fill:#0078d7;}.cls-2,.cls-3{fill:#008bfd;}.cls-3{stroke:gray;stroke-linecap:round;stroke-linejoin:round;stroke-width:0.75px;}.cls-4{fill:#fff;}.cls-5{fill:#505050;}.cls-6{fill:#00b0f0;}</style></defs><title>OJ104544462</title><g id="shapes"><g id="shape1172-2"><path class="cls-1" d="M60.23,66.79H46V38.41H60.23v7.68H61V37.65H45.26v29.9H61V65.23h-.76Z"/></g><g id="shape1173-4"><path class="cls-1" d="M59.47,39.21H46.83v4.58H59.47Zm-9.58,1.91h6.53v.76H49.89ZM56.48,43H49.86V42.2h6.62Z"/></g><g id="shape1174-6"><path class="cls-1" d="M46.79,44.57v3h8.6V46.1h4.08V44.57Z"/></g><g id="shape1175-8"><rect class="cls-1" x="46.79" y="48.38" width="8.6" height="2.68"/></g><g id="shape1176-10"><path class="cls-1" d="M46.79,66H59.44v-.79H55.36V51.85h-8.6V66Zm1.53-2.73h2.29V64.5H48.32Z"/></g><g id="shape1177-12"><path class="cls-1" d="M70,63H67.55V61.09H65V63H62.59a1.32,1.32,0,0,0-1.31,1.14h10C71.35,63.54,70.68,63,70,63Z"/></g><g id="shape1178-14"><path class="cls-1" d="M74.85,49H57.75a.64.64,0,0,0-.67.6V59.72a.64.64,0,0,0,.67.6h17.1a.64.64,0,0,0,.67-.6V49.59A.62.62,0,0,0,74.85,49Zm-1,9.84H58.77V50.52H73.83Z"/></g><g id="shape1179-16"><path class="cls-1" d="M70.21,56.35V52.91L66.7,51.06l-3.5,1.78v3.54l3.5,1.81Zm-4.4-2.3.89-.44.86.44-.86.48Zm0-1.14.86-.45.86.45-.86.48Zm1.91,4.52-1,.51V57l1-.51Zm0-1.18-1,.51v-.92l1-.51Zm0-1.11-1,.51v-.93l1-.51Zm-.82-1.66.86-.44.89.44-.86.45Zm2,3.35-1,.5v-.92l1-.51Zm0-1.18-1,.51v-.93l1-.51Zm0-1.15L68,55v-.89l1-.51Zm1,1.75-.86.45v-.93l.86-.44Zm0-1.14-.86.44v-.92l.86-.45ZM70,54l-.86.44v-.92L70,53Zm-.19-1.05-.89.44L68,52.91l.86-.45Zm-1.11-.58-.89.45-.86-.45.86-.44Zm-2-1,.86.45-.86.45-.89-.45Zm-1.11.61.86.44-.86.45-.86-.45Zm-1.08.57.89.45-.89.44-.9-.44Zm-.26,4.27-.86-.45v-.92l.86.45Zm0-1.18-.86-.44v-.93l.86.45Zm0-1.15L63.39,54v-.89l.86.44Zm1.18,2.93-1-.5V55.9l1,.51Zm0-1.17-1-.51v-.93l1,.51Zm0-1.15-1-.51v-.89l1,.51Zm-.7-1.53.89-.44.86.44-.89.48Zm1.88,4.46-1-.51v-.89l1,.51Zm0-1.15-1-.51v-.92l1,.51Zm0-1.14-1-.51v-.93l1,.51Z"/></g><g id="group1180-20"><g id="group1181-21"><g id="group1182-22"><g id="group1183-23"><g id="shape1184-24"><path class="cls-2" d="M7.85,44.76a4.5,4.5,0,0,0-3,5.67c.66,2.55,3,4.21,5.27,3.66a4.49,4.49,0,0,0,3-5.66C12.57,45.76,10.16,44.1,7.85,44.76Z"/></g></g><g id="group1185-26"><g id="shape1186-27"><path class="cls-2" d="M12.78,54.78c-.43,0-.88.77-1.54,1.11s-1.31.89-3.17,0S6,54.22,4.43,54.22s-4,2.78-4,6.88H16a12.15,12.15,0,0,0-1.11-4.21C13.77,54.78,13.23,54.78,12.78,54.78Z"/></g></g></g></g><g id="group1187-29"><g id="shape1188-30"><path class="cls-3" d="M14.19,49.84H10.07a.7.7,0,0,0-.65.65v2.85a.73.73,0,0,0,.76.66h.76v5.15a1,1,0,0,0,1,1.09,1,1,0,0,0,1-1h.21V58.6c0-.22.33-.33.33-.33v-.33c-.33-.11-.54-.32-.54-.43v-.33L13.1,57a3.53,3.53,0,0,0,.33-.55,2.4,2.4,0,0,1-.33-.55c-.1-.11-.1-.33-.21-.44V55.2a2.52,2.52,0,0,1,.76-1.09h.54a.71.71,0,0,0,.65-.66v-3A.62.62,0,0,0,14.19,49.84ZM11.8,59.37c0,.22,0,.33-.21.33s-.22-.22-.22-.33V54.55c0-.22.11-.33.22-.33s.21.22.21.33Zm.33-7.78a.66.66,0,0,1,0-1.32.71.71,0,0,1,.65.66A.63.63,0,0,1,12.13,51.59Z"/></g><g id="shape1189-32"><path class="cls-4" d="M11.57,59.67a.24.24,0,0,1-.22-.22v-5a.22.22,0,0,1,.44,0v5.1C11.79,59.67,11.68,59.67,11.57,59.67Z"/></g><g id="shape1190-34"><ellipse class="cls-4" cx="12.14" cy="50.92" rx="0.66" ry="0.67"/></g></g></g><path class="cls-2" d="M191.76,41.68h-20.5a1.1,1.1,0,0,0-1.09,1.11V59.53a1.09,1.09,0,0,0,1.09,1.1h5.28a3.29,3.29,0,0,0,3.21,2.27,3.37,3.37,0,0,0,0-6.74,3.29,3.29,0,0,0-3.21,2.27h-4.19v-12h18.31v12h-3.45a7.61,7.61,0,0,0-7.46-6.57,8.25,8.25,0,0,0-3.64.92l1,2a5.28,5.28,0,0,1,2.55-.68,5.46,5.46,0,0,1,0,10.92,5.28,5.28,0,0,1-2.55-.68l-1,2a7.4,7.4,0,0,0,3.64.92,7.61,7.61,0,0,0,7.46-6.56h4.55a1.09,1.09,0,0,0,1.09-1.1V42.79A1.14,1.14,0,0,0,191.76,41.68Z"/><g id="shape1192-39"><g id="lend5"><path class="cls-5" d="M161.69,50.43l8.05,4-8,4a9,9,0,0,0,0-8"/></g></g></g><g id="text"><path d="M151.72,80.2h-.85l-.69-1.82h-2.76l-.65,1.82h-.85l2.5-6.51h.79Zm-1.79-2.51-1-2.77a2.7,2.7,0,0,1-.1-.44h0a2.66,2.66,0,0,1-.1.44l-1,2.77Z"/><path d="M153.34,79.53h0v2.81h-.74V75.55h.74v.82h0a1.75,1.75,0,0,1,1.61-.93,1.71,1.71,0,0,1,1.4.63,2.6,2.6,0,0,1,.5,1.67,2.93,2.93,0,0,1-.56,1.87,1.89,1.89,0,0,1-1.56.7A1.56,1.56,0,0,1,153.34,79.53Zm0-1.88v.65a1.38,1.38,0,0,0,.37,1,1.25,1.25,0,0,0,1,.4,1.26,1.26,0,0,0,1.06-.51,2.44,2.44,0,0,0,.38-1.44,1.87,1.87,0,0,0-.36-1.22,1.19,1.19,0,0,0-1-.44,1.35,1.35,0,0,0-1,.45A1.67,1.67,0,0,0,153.32,77.65Z"/><path d="M158.79,80.2H158V73.32h.75Z"/><path d="M160.68,74.37a.42.42,0,0,1-.34-.14.43.43,0,0,1-.15-.34.45.45,0,0,1,.15-.35.46.46,0,0,1,.34-.14.48.48,0,0,1,.34.14.45.45,0,0,1,.15.35.45.45,0,0,1-.15.34A.48.48,0,0,1,160.68,74.37ZM161,80.2h-.75V75.55H161Z"/><path d="M165.72,80a2.47,2.47,0,0,1-1.27.32,2.12,2.12,0,0,1-1.61-.65,2.32,2.32,0,0,1-.61-1.67,2.57,2.57,0,0,1,.66-1.85,2.31,2.31,0,0,1,1.75-.7,2.53,2.53,0,0,1,1.09.23v.76a1.93,1.93,0,0,0-1.11-.36,1.49,1.49,0,0,0-1.17.51,1.91,1.91,0,0,0-.46,1.34,1.81,1.81,0,0,0,.43,1.29,1.47,1.47,0,0,0,1.15.47,1.87,1.87,0,0,0,1.15-.4Z"/><path d="M170.17,80.2h-.74v-.73h0a1.56,1.56,0,0,1-1.43.84,1.5,1.5,0,0,1-1.09-.37,1.27,1.27,0,0,1-.39-1c0-.87.51-1.38,1.53-1.52l1.4-.2c0-.79-.32-1.18-1-1.18a2.3,2.3,0,0,0-1.52.57v-.76a2.91,2.91,0,0,1,1.58-.44c1.1,0,1.64.58,1.64,1.74Zm-.74-2.35L168.3,78a1.92,1.92,0,0,0-.78.26.75.75,0,0,0-.26.65.73.73,0,0,0,.24.56,1,1,0,0,0,.65.21,1.23,1.23,0,0,0,.92-.38,1.4,1.4,0,0,0,.36-1Z"/><path d="M174.74,80a2.44,2.44,0,0,1-1.27.32,2.09,2.09,0,0,1-1.6-.65,2.32,2.32,0,0,1-.61-1.67,2.57,2.57,0,0,1,.66-1.85,2.3,2.3,0,0,1,1.75-.7,2.45,2.45,0,0,1,1.08.23v.76a1.88,1.88,0,0,0-1.1-.36,1.49,1.49,0,0,0-1.17.51,1.91,1.91,0,0,0-.46,1.34,1.81,1.81,0,0,0,.43,1.29,1.45,1.45,0,0,0,1.15.47,1.84,1.84,0,0,0,1.14-.4Z"/><path d="M176.25,74.37a.44.44,0,0,1-.34-.14.46.46,0,0,1-.14-.34.48.48,0,0,1,.14-.35.48.48,0,0,1,.34-.14.5.5,0,0,1,.35.14.48.48,0,0,1,.14.35.48.48,0,0,1-.14.34A.5.5,0,0,1,176.25,74.37Zm.37,5.83h-.75V75.55h.75Z"/><path d="M180.07,80.31a2.18,2.18,0,0,1-1.65-.65,2.43,2.43,0,0,1-.62-1.73,2.51,2.51,0,0,1,.65-1.83,2.28,2.28,0,0,1,1.72-.66,2.12,2.12,0,0,1,1.63.64,2.54,2.54,0,0,1,.58,1.78,2.5,2.5,0,0,1-.63,1.78A2.19,2.19,0,0,1,180.07,80.31Zm.05-4.24a1.38,1.38,0,0,0-1.13.49,2,2,0,0,0-.42,1.34,1.91,1.91,0,0,0,.42,1.31,1.46,1.46,0,0,0,1.13.47,1.36,1.36,0,0,0,1.11-.46,2,2,0,0,0,.39-1.33,2.07,2.07,0,0,0-.39-1.35A1.37,1.37,0,0,0,180.12,76.07Zm1.09-2.89L180,74.67h-.58l1-1.49Z"/><path d="M187.43,80.2h-.74V77.55c0-1-.36-1.48-1.08-1.48a1.18,1.18,0,0,0-.93.42,1.57,1.57,0,0,0-.36,1.06V80.2h-.75V75.55h.75v.77h0a1.7,1.7,0,0,1,1.53-.88,1.43,1.43,0,0,1,1.17.5,2.17,2.17,0,0,1,.4,1.42Z"/><path d="M195.35,80.2h-.74v-.79h0a1.73,1.73,0,0,1-1.6.9,1.76,1.76,0,0,1-1.4-.62,2.58,2.58,0,0,1-.53-1.7,2.77,2.77,0,0,1,.59-1.85,1.88,1.88,0,0,1,1.54-.7,1.49,1.49,0,0,1,1.4.76h0V73.32h.74Zm-.74-2.1v-.69a1.33,1.33,0,0,0-.38-1,1.23,1.23,0,0,0-.94-.39,1.3,1.3,0,0,0-1.07.5,2.18,2.18,0,0,0-.39,1.38,2,2,0,0,0,.37,1.27,1.23,1.23,0,0,0,1,.46,1.28,1.28,0,0,0,1-.45A1.65,1.65,0,0,0,194.61,78.1Z"/><path d="M200.6,78.06h-3.29a1.76,1.76,0,0,0,.42,1.2,1.45,1.45,0,0,0,1.1.42,2.3,2.3,0,0,0,1.44-.51v.7a2.71,2.71,0,0,1-1.62.44,2,2,0,0,1-1.55-.63,2.63,2.63,0,0,1-.56-1.79,2.52,2.52,0,0,1,.62-1.76,2,2,0,0,1,1.52-.69,1.78,1.78,0,0,1,1.42.59,2.49,2.49,0,0,1,.5,1.64Zm-.77-.63a1.46,1.46,0,0,0-.31-1,1.05,1.05,0,0,0-.85-.36,1.16,1.16,0,0,0-.89.38,1.7,1.7,0,0,0-.46,1Z"/><path d="M209.41,80.2h-.84l-.69-1.82h-2.76l-.65,1.82h-.85l2.49-6.51h.79Zm-1.78-2.51-1-2.77a4.49,4.49,0,0,1-.1-.44h0a2.55,2.55,0,0,1-.11.44l-1,2.77Z"/><path d="M211.13,77.74V80.2h-.76V73.69h1.79a2.38,2.38,0,0,1,1.62.51,1.82,1.82,0,0,1,.57,1.43,2,2,0,0,1-.64,1.52,2.44,2.44,0,0,1-1.72.59Zm0-3.36v2.67h.8a1.8,1.8,0,0,0,1.21-.36,1.3,1.3,0,0,0,.41-1c0-.86-.51-1.29-1.52-1.29Z"/><path d="M216.34,80.2h-.76V73.69h.76Z"/><path d="M21,77.89H20.2l-.69-1.82H16.75l-.65,1.82h-.85l2.5-6.51h.79Zm-1.78-2.51-1-2.77a1.93,1.93,0,0,1-.1-.44h0a2.55,2.55,0,0,1-.11.44l-1,2.77Z"/><path d="M22.43,77.22h0V80h-.74V73.24h.74v.82h0A1.76,1.76,0,0,1,24,73.13a1.68,1.68,0,0,1,1.4.63A2.54,2.54,0,0,1,26,75.43a2.88,2.88,0,0,1-.57,1.87,1.89,1.89,0,0,1-1.56.7A1.56,1.56,0,0,1,22.43,77.22Zm0-1.88V76a1.38,1.38,0,0,0,.38,1,1.22,1.22,0,0,0,.95.4,1.26,1.26,0,0,0,1.06-.51,2.44,2.44,0,0,0,.38-1.44,1.87,1.87,0,0,0-.36-1.22,1.19,1.19,0,0,0-1-.44,1.31,1.31,0,0,0-1,.45A1.63,1.63,0,0,0,22.41,75.34Z"/><path d="M27.65,77.89H26.9V71h.75Z"/><path d="M29.3,72.06a.48.48,0,0,1-.34-.13.51.51,0,0,1,0-.7.49.49,0,0,1,.34-.14.48.48,0,0,1,.35.14.46.46,0,0,1,.14.35.44.44,0,0,1-.14.34A.48.48,0,0,1,29.3,72.06Zm.37,5.83h-.75V73.24h.75Z"/><path d="M34.11,77.68a2.47,2.47,0,0,1-1.27.32,2.06,2.06,0,0,1-1.6-.65,2.33,2.33,0,0,1-.62-1.67,2.59,2.59,0,0,1,.66-1.85,2.33,2.33,0,0,1,1.76-.7,2.45,2.45,0,0,1,1.08.23v.76A1.89,1.89,0,0,0,33,73.76a1.52,1.52,0,0,0-1.17.51,2,2,0,0,0-.45,1.34,1.81,1.81,0,0,0,.43,1.29,1.45,1.45,0,0,0,1.15.47,1.86,1.86,0,0,0,1.14-.4Z"/><path d="M38.33,77.89h-.74v-.72h0a1.56,1.56,0,0,1-1.43.83,1.53,1.53,0,0,1-1.09-.37,1.27,1.27,0,0,1-.39-1c0-.87.51-1.38,1.54-1.52l1.39-.2c0-.79-.32-1.18-1-1.18a2.32,2.32,0,0,0-1.52.57v-.76a2.91,2.91,0,0,1,1.58-.44c1.1,0,1.64.58,1.64,1.74Zm-.74-2.35-1.12.15a1.82,1.82,0,0,0-.78.26.73.73,0,0,0-.27.65.7.7,0,0,0,.25.56.93.93,0,0,0,.64.21,1.19,1.19,0,0,0,.92-.38,1.4,1.4,0,0,0,.36-1Z"/><path d="M42.67,77.68A2.44,2.44,0,0,1,41.4,78a2.06,2.06,0,0,1-1.6-.65,2.32,2.32,0,0,1-.61-1.67,2.59,2.59,0,0,1,.66-1.85,2.3,2.3,0,0,1,1.75-.7,2.45,2.45,0,0,1,1.08.23v.76a1.88,1.88,0,0,0-1.1-.36,1.49,1.49,0,0,0-1.17.51A1.91,1.91,0,0,0,40,75.61a1.81,1.81,0,0,0,.43,1.29,1.47,1.47,0,0,0,1.15.47,1.82,1.82,0,0,0,1.14-.4Z"/><path d="M44,72.06a.47.47,0,0,1-.34-.13.51.51,0,0,1,0-.7.48.48,0,0,1,.34-.14.48.48,0,0,1,.49.49.48.48,0,0,1-.14.34A.5.5,0,0,1,44,72.06Zm.36,5.83h-.74V73.24h.74Z"/><path d="M47.53,78a2.15,2.15,0,0,1-1.64-.65,2.41,2.41,0,0,1-.62-1.73,2.5,2.5,0,0,1,.64-1.83,2.3,2.3,0,0,1,1.73-.66,2.09,2.09,0,0,1,1.62.64,2.55,2.55,0,0,1,.59,1.78,2.5,2.5,0,0,1-.63,1.78A2.19,2.19,0,0,1,47.53,78Zm.06-4.24a1.41,1.41,0,0,0-1.14.49A2,2,0,0,0,46,75.59a1.86,1.86,0,0,0,.43,1.31,1.41,1.41,0,0,0,1.13.47,1.36,1.36,0,0,0,1.11-.46,2,2,0,0,0,.38-1.33,2.09,2.09,0,0,0-.38-1.35A1.37,1.37,0,0,0,47.59,73.76Zm1.09-2.89-1.19,1.49h-.58l1-1.49Z"/><path d="M54.67,77.89h-.75V75.24c0-1-.36-1.48-1.08-1.48a1.16,1.16,0,0,0-.92.42,1.52,1.52,0,0,0-.37,1.06v2.65h-.74V73.24h.74V74h0a1.69,1.69,0,0,1,1.52-.88,1.43,1.43,0,0,1,1.17.5,2.17,2.17,0,0,1,.41,1.42Z"/><path d="M62.12,77.89h-.75V77.1h0a1.88,1.88,0,0,1-3,.28,2.58,2.58,0,0,1-.53-1.7,2.82,2.82,0,0,1,.58-1.85,1.91,1.91,0,0,1,1.55-.7,1.49,1.49,0,0,1,1.4.76h0V71h.75Zm-.75-2.1V75.1a1.32,1.32,0,0,0-.37-.95,1.24,1.24,0,0,0-.94-.39,1.28,1.28,0,0,0-1.07.5,2.18,2.18,0,0,0-.39,1.38A2,2,0,0,0,59,76.91a1.23,1.23,0,0,0,1,.46,1.3,1.3,0,0,0,1-.44A1.67,1.67,0,0,0,61.37,75.79Z"/><path d="M67.13,75.75H63.85a1.71,1.71,0,0,0,.42,1.2,1.43,1.43,0,0,0,1.1.42,2.3,2.3,0,0,0,1.44-.51v.7a2.75,2.75,0,0,1-1.62.44,2,2,0,0,1-1.55-.63,2.57,2.57,0,0,1-.56-1.78,2.52,2.52,0,0,1,.61-1.77,2,2,0,0,1,1.53-.69,1.75,1.75,0,0,1,1.41.59,2.44,2.44,0,0,1,.5,1.64Zm-.76-.63a1.51,1.51,0,0,0-.31-1,1.07,1.07,0,0,0-.85-.36,1.18,1.18,0,0,0-.9.38,1.75,1.75,0,0,0-.45,1Z"/><path d="M74.08,75.75H70.79a1.81,1.81,0,0,0,.42,1.2,1.45,1.45,0,0,0,1.1.42,2.28,2.28,0,0,0,1.44-.51v.7a2.71,2.71,0,0,1-1.62.44,2,2,0,0,1-1.54-.63A2.57,2.57,0,0,1,70,75.59a2.53,2.53,0,0,1,.62-1.77,2,2,0,0,1,1.53-.69,1.76,1.76,0,0,1,1.41.59,2.49,2.49,0,0,1,.5,1.64Zm-.77-.63a1.46,1.46,0,0,0-.31-1,1,1,0,0,0-.85-.36,1.16,1.16,0,0,0-.89.38,1.7,1.7,0,0,0-.46,1Z"/><path d="M74.69,77.72v-.79a2.26,2.26,0,0,0,1.34.44c.65,0,1-.21,1-.65a.66.66,0,0,0-.08-.32,1,1,0,0,0-.23-.22,1.56,1.56,0,0,0-.34-.18L76,75.83a4.08,4.08,0,0,1-.55-.25A1.62,1.62,0,0,1,75,75.3a1,1,0,0,1-.23-.36,1.26,1.26,0,0,1-.08-.46,1.11,1.11,0,0,1,.15-.58,1.24,1.24,0,0,1,.4-.42,1.66,1.66,0,0,1,.57-.26,2.39,2.39,0,0,1,.66-.09,2.67,2.67,0,0,1,1.08.21v.76a2.07,2.07,0,0,0-1.18-.34,1.46,1.46,0,0,0-.38,0,.86.86,0,0,0-.29.13.6.6,0,0,0-.18.21.48.48,0,0,0-.07.26.59.59,0,0,0,.07.31.77.77,0,0,0,.19.22,1.49,1.49,0,0,0,.31.17l.41.17a5,5,0,0,1,.56.24,1.84,1.84,0,0,1,.41.28,1.14,1.14,0,0,1,.27.36,1.22,1.22,0,0,1,.09.49,1.16,1.16,0,0,1-.15.6,1.27,1.27,0,0,1-.41.42,2,2,0,0,1-.58.25,3.13,3.13,0,0,1-.7.08A2.58,2.58,0,0,1,74.69,77.72Z"/><path d="M81.85,77.68a2.44,2.44,0,0,1-1.27.32,2.06,2.06,0,0,1-1.6-.65,2.32,2.32,0,0,1-.61-1.67A2.59,2.59,0,0,1,79,73.83a2.3,2.3,0,0,1,1.75-.7,2.45,2.45,0,0,1,1.08.23v.76a1.89,1.89,0,0,0-1.11-.36,1.48,1.48,0,0,0-1.16.51,1.91,1.91,0,0,0-.46,1.34,1.81,1.81,0,0,0,.43,1.29,1.45,1.45,0,0,0,1.15.47,1.82,1.82,0,0,0,1.14-.4Z"/><path d="M85.17,74a.89.89,0,0,0-.56-.15,1,1,0,0,0-.8.45,2.06,2.06,0,0,0-.32,1.22v2.37h-.74V73.24h.74v1h0a1.68,1.68,0,0,1,.49-.77,1.1,1.1,0,0,1,.73-.27,1.25,1.25,0,0,1,.44.06Z"/><path d="M86.13,72.06a.47.47,0,0,1-.34-.13.51.51,0,0,1,0-.7.48.48,0,0,1,.34-.14.48.48,0,0,1,.49.49.48.48,0,0,1-.14.34A.5.5,0,0,1,86.13,72.06Zm.36,5.83h-.74V73.24h.74Z"/><path d="M89.93,77.85a1.55,1.55,0,0,1-.7.14c-.81,0-1.22-.45-1.22-1.36V73.88h-.8v-.64H88V72.11l.74-.24v1.37h1.18v.64H88.75V76.5a1.16,1.16,0,0,0,.16.67.65.65,0,0,0,.53.2.82.82,0,0,0,.49-.16Z"/><path d="M92.63,78A2.19,2.19,0,0,1,91,77.35a2.41,2.41,0,0,1-.61-1.73A2.5,2.5,0,0,1,91,73.79a2.3,2.3,0,0,1,1.73-.66,2.11,2.11,0,0,1,1.62.64A2.55,2.55,0,0,1,95,75.55a2.5,2.5,0,0,1-.63,1.78A2.19,2.19,0,0,1,92.63,78Zm.06-4.24a1.41,1.41,0,0,0-1.14.49,2,2,0,0,0-.42,1.34,1.91,1.91,0,0,0,.42,1.31,1.44,1.44,0,0,0,1.14.47,1.36,1.36,0,0,0,1.11-.46,2.1,2.1,0,0,0,.38-1.33,2.15,2.15,0,0,0-.38-1.35A1.37,1.37,0,0,0,92.69,73.76Z"/><path d="M98.33,74a.91.91,0,0,0-.56-.15,1,1,0,0,0-.8.45,2.06,2.06,0,0,0-.32,1.22v2.37H95.9V73.24h.75v1h0a1.59,1.59,0,0,1,.48-.77,1.12,1.12,0,0,1,.73-.27,1.28,1.28,0,0,1,.45.06Z"/><path d="M99.29,72.06a.45.45,0,0,1-.34-.13.49.49,0,0,1,.34-.84.48.48,0,0,1,.34.14.47.47,0,0,1,.15.35.45.45,0,0,1-.15.34A.48.48,0,0,1,99.29,72.06Zm.36,5.83h-.74V73.24h.74Z"/><path d="M102.87,78a2.18,2.18,0,0,1-1.65-.65,2.41,2.41,0,0,1-.61-1.73,2.5,2.5,0,0,1,.64-1.83,2.28,2.28,0,0,1,1.73-.66,2.11,2.11,0,0,1,1.62.64,2.94,2.94,0,0,1,0,3.56A2.21,2.21,0,0,1,102.87,78Zm0-4.24a1.39,1.39,0,0,0-1.13.49,2,2,0,0,0-.42,1.34,1.91,1.91,0,0,0,.42,1.31,1.42,1.42,0,0,0,1.13.47,1.36,1.36,0,0,0,1.11-.46,2,2,0,0,0,.39-1.33,2.09,2.09,0,0,0-.39-1.35A1.37,1.37,0,0,0,102.92,73.76Z"/><path class="cls-6" d="M44.08,6.7H41.6V6.11h2.48Z"/><path class="cls-6" d="M50.81,3.17H48.27V5.43h2.35v.68H48.27V9H47.5V2.48h3.31Z"/><path class="cls-6" d="M52.41,9h-.74V2.11h.74Z"/><path class="cls-6" d="M57.4,9h-.74V8.26h0a1.54,1.54,0,0,1-1.44.84c-1.11,0-1.66-.66-1.66-2V4.35h.74V7c0,1,.38,1.47,1.13,1.47a1.15,1.15,0,0,0,.89-.4A1.53,1.53,0,0,0,56.66,7V4.35h.74Z"/><path class="cls-6" d="M59.37,8.8a3,3,0,0,1-.46,1.76,1.54,1.54,0,0,1-1.32.62A1.37,1.37,0,0,1,57,11v-.7a1.24,1.24,0,0,0,.64.21c.68,0,1-.54,1-1.63V4.35h.75ZM59,3.16A.44.44,0,0,1,58.67,3a.45.45,0,0,1-.15-.35.43.43,0,0,1,.15-.34A.42.42,0,0,1,59,2.2a.45.45,0,0,1,.35.14.46.46,0,0,1,0,.68A.45.45,0,0,1,59,3.16Z"/><path class="cls-6" d="M62.54,9.1a2.14,2.14,0,0,1-1.65-.65,2.41,2.41,0,0,1-.61-1.73,2.5,2.5,0,0,1,.64-1.83,2.33,2.33,0,0,1,1.73-.65,2.07,2.07,0,0,1,1.62.64,2.52,2.52,0,0,1,.59,1.77,2.48,2.48,0,0,1-.63,1.78A2.19,2.19,0,0,1,62.54,9.1Zm.05-4.24a1.44,1.44,0,0,0-1.13.49A2,2,0,0,0,61,6.7,1.9,1.9,0,0,0,61.46,8a1.44,1.44,0,0,0,1.13.48A1.38,1.38,0,0,0,63.71,8a2.09,2.09,0,0,0,.38-1.33,2.1,2.1,0,0,0-.38-1.34A1.36,1.36,0,0,0,62.59,4.86Z"/><path class="cls-6" d="M72,9h-.74V8.21h0a1.89,1.89,0,0,1-3,.27,2.56,2.56,0,0,1-.52-1.7,2.77,2.77,0,0,1,.58-1.85,1.92,1.92,0,0,1,1.55-.69A1.48,1.48,0,0,1,71.24,5h0V2.11H72Zm-.74-2.11V6.21a1.33,1.33,0,0,0-.37-1,1.25,1.25,0,0,0-1-.39,1.3,1.3,0,0,0-1.07.5,2.22,2.22,0,0,0-.39,1.38A2,2,0,0,0,68.86,8a1.22,1.22,0,0,0,1,.47,1.26,1.26,0,0,0,1-.45A1.68,1.68,0,0,0,71.26,6.89Z"/><path class="cls-6" d="M77,6.86H73.69a1.75,1.75,0,0,0,.42,1.2,1.42,1.42,0,0,0,1.09.42A2.32,2.32,0,0,0,76.65,8v.7A2.68,2.68,0,0,1,75,9.1a2,2,0,0,1-1.55-.63,2.57,2.57,0,0,1-.56-1.78,2.56,2.56,0,0,1,.61-1.77,2,2,0,0,1,1.53-.68,1.72,1.72,0,0,1,1.41.59A2.47,2.47,0,0,1,77,6.47Zm-.76-.63a1.54,1.54,0,0,0-.31-1A1.07,1.07,0,0,0,75,4.86a1.21,1.21,0,0,0-.89.38,1.69,1.69,0,0,0-.45,1Z"/><path class="cls-6" d="M83.26,8.78A2.41,2.41,0,0,1,82,9.1a2.1,2.1,0,0,1-1.6-.64,2.33,2.33,0,0,1-.61-1.68,2.59,2.59,0,0,1,.66-1.85,2.3,2.3,0,0,1,1.75-.69,2.45,2.45,0,0,1,1.08.22v.77a1.82,1.82,0,0,0-1.1-.37A1.49,1.49,0,0,0,81,5.37a1.92,1.92,0,0,0-.46,1.35A1.85,1.85,0,0,0,81,8a1.5,1.5,0,0,0,1.15.47,1.88,1.88,0,0,0,1.15-.41Z"/><path class="cls-6" d="M86.05,9.1a2.14,2.14,0,0,1-1.65-.65,2.41,2.41,0,0,1-.62-1.73,2.55,2.55,0,0,1,.64-1.83,2.35,2.35,0,0,1,1.74-.65,2.07,2.07,0,0,1,1.62.64,2.52,2.52,0,0,1,.58,1.77,2.48,2.48,0,0,1-.63,1.78A2.19,2.19,0,0,1,86.05,9.1Zm0-4.24A1.44,1.44,0,0,0,85,5.35a2.07,2.07,0,0,0-.41,1.35A1.9,1.9,0,0,0,85,8a1.43,1.43,0,0,0,1.13.48A1.37,1.37,0,0,0,87.21,8a2,2,0,0,0,.39-1.33,2,2,0,0,0-.39-1.34A1.35,1.35,0,0,0,86.1,4.86ZM87.19,2,86,3.46h-.58l1-1.49Z"/><path class="cls-6" d="M93.24,9H92.5V8.21h0a1.89,1.89,0,0,1-3,.27A2.56,2.56,0,0,1,89,6.78a2.77,2.77,0,0,1,.58-1.85,1.9,1.9,0,0,1,1.54-.69,1.5,1.5,0,0,1,1.4.75h0V2.11h.74ZM92.5,6.89V6.21a1.37,1.37,0,0,0-.37-1,1.27,1.27,0,0,0-.95-.39,1.3,1.3,0,0,0-1.07.5,2.22,2.22,0,0,0-.39,1.38A2,2,0,0,0,90.09,8a1.24,1.24,0,0,0,1,.47,1.28,1.28,0,0,0,1-.45A1.68,1.68,0,0,0,92.5,6.89Z"/><path class="cls-6" d="M94.85,3.16a.46.46,0,0,1-.48-.48.46.46,0,0,1,.14-.34.45.45,0,0,1,.34-.14.48.48,0,0,1,.49.48.48.48,0,0,1-.49.48ZM95.21,9h-.74V4.35h.74Z"/><path class="cls-6" d="M100.41,8.62c0,1.71-.81,2.56-2.45,2.56a3.42,3.42,0,0,1-1.51-.32v-.75a3.15,3.15,0,0,0,1.5.44c1.15,0,1.72-.61,1.72-1.83V8.21h0a1.73,1.73,0,0,1-1.6.89,1.71,1.71,0,0,1-1.39-.62,2.42,2.42,0,0,1-.53-1.66,2.87,2.87,0,0,1,.57-1.88,1.89,1.89,0,0,1,1.56-.7A1.52,1.52,0,0,1,99.65,5h0V4.35h.74Zm-.74-1.73V6.21a1.33,1.33,0,0,0-.38-1,1.21,1.21,0,0,0-.93-.4,1.3,1.3,0,0,0-1.08.5,2.27,2.27,0,0,0-.39,1.41A1.91,1.91,0,0,0,97.26,8a1.22,1.22,0,0,0,1,.47,1.31,1.31,0,0,0,1-.45A1.64,1.64,0,0,0,99.67,6.89Z"/><path class="cls-6" d="M103.58,9.1a2.13,2.13,0,0,1-1.64-.65,2.41,2.41,0,0,1-.62-1.73A2.55,2.55,0,0,1,102,4.89a2.35,2.35,0,0,1,1.73-.65,2.08,2.08,0,0,1,1.63.64,2.52,2.52,0,0,1,.58,1.77,2.48,2.48,0,0,1-.63,1.78A2.19,2.19,0,0,1,103.58,9.1Zm.06-4.24a1.44,1.44,0,0,0-1.14.49,2.07,2.07,0,0,0-.41,1.35,1.9,1.9,0,0,0,.42,1.3,1.43,1.43,0,0,0,1.13.48A1.37,1.37,0,0,0,104.75,8a2,2,0,0,0,.39-1.33,2,2,0,0,0-.39-1.34A1.35,1.35,0,0,0,103.64,4.86Z"/><path class="cls-6" d="M106.53,8.83V8a2.21,2.21,0,0,0,1.34.45c.65,0,1-.22,1-.66a.59.59,0,0,0-.08-.31,1,1,0,0,0-.23-.23,1.56,1.56,0,0,0-.34-.18l-.41-.17a4.76,4.76,0,0,1-.54-.24,1.79,1.79,0,0,1-.4-.29,1,1,0,0,1-.23-.35,1.32,1.32,0,0,1-.08-.47,1.11,1.11,0,0,1,.15-.58,1.24,1.24,0,0,1,.4-.42,2,2,0,0,1,.57-.26,2.84,2.84,0,0,1,.66-.08,2.67,2.67,0,0,1,1.08.21V5.2a2.07,2.07,0,0,0-1.18-.34,1.46,1.46,0,0,0-.38,0,1.11,1.11,0,0,0-.29.13.6.6,0,0,0-.18.21.5.5,0,0,0-.07.27.56.56,0,0,0,.07.3.66.66,0,0,0,.19.22,1.8,1.8,0,0,0,.31.17l.41.17.56.24a2.25,2.25,0,0,1,.41.28,1.07,1.07,0,0,1,.27.37,1.14,1.14,0,0,1,.09.48,1.16,1.16,0,0,1-.15.6,1.27,1.27,0,0,1-.41.42,1.79,1.79,0,0,1-.58.25,2.64,2.64,0,0,1-.7.08A2.7,2.7,0,0,1,106.53,8.83Z"/><path class="cls-6" d="M116.72,9H116V8.21h0a1.89,1.89,0,0,1-3,.27,2.56,2.56,0,0,1-.52-1.7A2.77,2.77,0,0,1,113,4.93a1.92,1.92,0,0,1,1.55-.69A1.48,1.48,0,0,1,116,5h0V2.11h.75ZM116,6.89V6.21a1.33,1.33,0,0,0-.37-1,1.25,1.25,0,0,0-.95-.39,1.3,1.3,0,0,0-1.07.5,2.22,2.22,0,0,0-.39,1.38A2,2,0,0,0,113.57,8a1.22,1.22,0,0,0,1,.47,1.26,1.26,0,0,0,1-.45A1.68,1.68,0,0,0,116,6.89Z"/><path class="cls-6" d="M121.68,6.86H118.4a1.75,1.75,0,0,0,.42,1.2,1.43,1.43,0,0,0,1.1.42A2.32,2.32,0,0,0,121.36,8v.7a2.68,2.68,0,0,1-1.62.44,2,2,0,0,1-1.55-.63,2.57,2.57,0,0,1-.56-1.78,2.56,2.56,0,0,1,.61-1.77,2,2,0,0,1,1.53-.68,1.72,1.72,0,0,1,1.41.59,2.47,2.47,0,0,1,.5,1.64Zm-.76-.63a1.54,1.54,0,0,0-.31-1,1.07,1.07,0,0,0-.85-.36,1.23,1.23,0,0,0-.9.38,1.69,1.69,0,0,0-.45,1Z"/><path class="cls-6" d="M128.13,9h-.75V8.27h0a1.7,1.7,0,0,1-2.51.47,1.26,1.26,0,0,1-.4-1c0-.87.51-1.37,1.54-1.52l1.39-.19c0-.79-.32-1.19-1-1.19a2.24,2.24,0,0,0-1.51.58V4.67a2.86,2.86,0,0,1,1.58-.43c1.09,0,1.64.57,1.64,1.73Zm-.75-2.36-1.12.16a1.88,1.88,0,0,0-.78.25.74.74,0,0,0-.26.66.71.71,0,0,0,.24.55.92.92,0,0,0,.65.22,1.2,1.2,0,0,0,.91-.39,1.39,1.39,0,0,0,.36-1Z"/><path class="cls-6" d="M133,9h-.74V8.26h0a1.54,1.54,0,0,1-1.44.84c-1.11,0-1.66-.66-1.66-2V4.35h.74V7c0,1,.38,1.47,1.13,1.47a1.15,1.15,0,0,0,.89-.4A1.53,1.53,0,0,0,132.27,7V4.35H133Z"/><path class="cls-6" d="M136.39,9a1.38,1.38,0,0,1-.69.15c-.82,0-1.23-.46-1.23-1.37V5h-.79V4.35h.79V3.21l.75-.24V4.35h1.17V5h-1.17V7.6a1.06,1.06,0,0,0,.16.67.64.64,0,0,0,.53.2.75.75,0,0,0,.48-.16Z"/><path class="cls-6" d="M139.05,9.1a2.14,2.14,0,0,1-1.65-.65,2.41,2.41,0,0,1-.61-1.73,2.5,2.5,0,0,1,.64-1.83,2.33,2.33,0,0,1,1.73-.65,2.07,2.07,0,0,1,1.62.64,2.52,2.52,0,0,1,.59,1.77,2.48,2.48,0,0,1-.63,1.78A2.21,2.21,0,0,1,139.05,9.1Zm0-4.24a1.44,1.44,0,0,0-1.13.49,2,2,0,0,0-.42,1.35A1.9,1.9,0,0,0,138,8a1.43,1.43,0,0,0,1.13.48A1.34,1.34,0,0,0,140.21,8a2,2,0,0,0,.39-1.33,2,2,0,0,0-.39-1.34A1.32,1.32,0,0,0,139.1,4.86Z"/><path class="cls-6" d="M144.7,5.1a.91.91,0,0,0-.56-.15,1,1,0,0,0-.8.45A2.1,2.1,0,0,0,143,6.62V9h-.74V4.35H143v1h0a1.65,1.65,0,0,1,.49-.76,1.11,1.11,0,0,1,.73-.28,1,1,0,0,1,.44.07Z"/><path class="cls-6" d="M145.61,3.16a.46.46,0,0,1-.48-.48.46.46,0,0,1,.14-.34.45.45,0,0,1,.34-.14.45.45,0,0,1,.35.14.42.42,0,0,1,.14.34A.42.42,0,0,1,146,3,.45.45,0,0,1,145.61,3.16ZM146,9h-.75V4.35H146Z"/><path class="cls-6" d="M150.45,4.56l-2.75,3.8h2.72V9H146.6V8.76L149.35,5h-2.49V4.35h3.59Z"/><path class="cls-6" d="M154.46,9h-.75V8.27h0a1.71,1.71,0,0,1-2.52.47,1.29,1.29,0,0,1-.39-1c0-.87.51-1.37,1.53-1.52l1.39-.19c0-.79-.31-1.19-1-1.19a2.26,2.26,0,0,0-1.52.58V4.67a2.88,2.88,0,0,1,1.58-.43c1.09,0,1.64.57,1.64,1.73Zm-.75-2.36-1.12.16a1.93,1.93,0,0,0-.78.25.77.77,0,0,0-.26.66.71.71,0,0,0,.24.55.92.92,0,0,0,.65.22,1.18,1.18,0,0,0,.91-.39,1.39,1.39,0,0,0,.36-1Z"/><path class="cls-6" d="M158.75,8.78a2.35,2.35,0,0,1-1.27.32,2.09,2.09,0,0,1-1.6-.64,2.34,2.34,0,0,1-.62-1.68,2.59,2.59,0,0,1,.66-1.85,2.33,2.33,0,0,1,1.76-.69,2.45,2.45,0,0,1,1.08.22v.77a1.83,1.83,0,0,0-1.11-.37,1.52,1.52,0,0,0-1.17.51A2,2,0,0,0,156,6.72,1.85,1.85,0,0,0,156.46,8a1.48,1.48,0,0,0,1.15.47,1.85,1.85,0,0,0,1.14-.41Z"/><path class="cls-6" d="M160,3.16a.46.46,0,0,1-.48-.48.46.46,0,0,1,.14-.34A.45.45,0,0,1,160,2.2a.48.48,0,0,1,.49.48.48.48,0,0,1-.49.48ZM160.34,9h-.74V4.35h.74Z"/><path class="cls-6" d="M163.52,9.1a2.14,2.14,0,0,1-1.65-.65,2.41,2.41,0,0,1-.62-1.73,2.51,2.51,0,0,1,.65-1.83,2.31,2.31,0,0,1,1.73-.65,2.07,2.07,0,0,1,1.62.64,2.52,2.52,0,0,1,.58,1.77,2.48,2.48,0,0,1-.63,1.78A2.19,2.19,0,0,1,163.52,9.1Zm0-4.24a1.41,1.41,0,0,0-1.13.49A2,2,0,0,0,162,6.7a1.9,1.9,0,0,0,.42,1.3,1.43,1.43,0,0,0,1.13.48A1.37,1.37,0,0,0,164.68,8a2,2,0,0,0,.39-1.33,2,2,0,0,0-.39-1.34A1.35,1.35,0,0,0,163.57,4.86ZM164.66,2l-1.19,1.49h-.58l1-1.49Z"/><path class="cls-6" d="M170.6,9h-.74V6.34c0-1-.36-1.48-1.08-1.48a1.2,1.2,0,0,0-.93.42,1.58,1.58,0,0,0-.36,1.06V9h-.75V4.35h.75v.77h0A1.67,1.67,0,0,1,169,4.24a1.42,1.42,0,0,1,1.17.49,2.18,2.18,0,0,1,.4,1.42Z"/><path class="cls-6" d="M176,10.48h-.66a5.83,5.83,0,0,1-1.41-4,6,6,0,0,1,1.41-4H176a6.13,6.13,0,0,0-1.43,4A6,6,0,0,0,176,10.48Z"/><path class="cls-6" d="M179.69,8.78a2.35,2.35,0,0,1-1.27.32,2.09,2.09,0,0,1-1.6-.64,2.33,2.33,0,0,1-.61-1.68,2.58,2.58,0,0,1,.65-1.85,2.33,2.33,0,0,1,1.76-.69,2.45,2.45,0,0,1,1.08.22v.77a1.83,1.83,0,0,0-1.11-.37,1.52,1.52,0,0,0-1.17.51A2,2,0,0,0,177,6.72,1.85,1.85,0,0,0,177.4,8a1.48,1.48,0,0,0,1.15.47,1.85,1.85,0,0,0,1.14-.41Z"/><path class="cls-6" d="M182.48,9.1a2.13,2.13,0,0,1-1.64-.65,2.41,2.41,0,0,1-.62-1.73,2.55,2.55,0,0,1,.64-1.83,2.35,2.35,0,0,1,1.73-.65,2.08,2.08,0,0,1,1.63.64,2.57,2.57,0,0,1,.58,1.77,2.48,2.48,0,0,1-.63,1.78A2.19,2.19,0,0,1,182.48,9.1Zm.06-4.24a1.44,1.44,0,0,0-1.14.49A2,2,0,0,0,181,6.7a1.9,1.9,0,0,0,.42,1.3,1.43,1.43,0,0,0,1.13.48A1.37,1.37,0,0,0,183.65,8,2,2,0,0,0,184,6.68a2,2,0,0,0-.39-1.34A1.35,1.35,0,0,0,182.54,4.86Z"/><path class="cls-6" d="M189.57,9h-.74V6.34c0-1-.36-1.48-1.08-1.48a1.17,1.17,0,0,0-.93.42,1.58,1.58,0,0,0-.36,1.06V9h-.75V4.35h.75v.77h0A1.68,1.68,0,0,1,188,4.24a1.42,1.42,0,0,1,1.17.49,2.18,2.18,0,0,1,.4,1.42Z"/><path class="cls-6" d="M193.83,6.53V9h-.77V2.48h1.79a2.35,2.35,0,0,1,1.62.51A1.83,1.83,0,0,1,197,4.43a2,2,0,0,1-.63,1.51,2.42,2.42,0,0,1-1.73.59Zm0-3.36V5.84h.8a1.79,1.79,0,0,0,1.2-.36,1.27,1.27,0,0,0,.42-1q0-1.29-1.53-1.29Z"/><path class="cls-6" d="M202.52,9h-1.06L199,6a1.91,1.91,0,0,1-.18-.23h0V9H198V2.48h.76V5.54h0a2.53,2.53,0,0,1,.18-.22l2.43-2.84h1l-2.79,3.13Z"/><path class="cls-6" d="M207.13,8.72a3.75,3.75,0,0,1-1.8.38,2.89,2.89,0,0,1-2.22-.89,3.3,3.3,0,0,1-.84-2.35,3.47,3.47,0,0,1,.94-2.52,3.21,3.21,0,0,1,2.39-1,3.78,3.78,0,0,1,1.53.27v.82a3.1,3.1,0,0,0-1.54-.4,2.36,2.36,0,0,0-1.82.75,2.81,2.81,0,0,0-.7,2,2.69,2.69,0,0,0,.65,1.89,2.24,2.24,0,0,0,1.71.71,3.21,3.21,0,0,0,1.7-.44Z"/><path class="cls-6" d="M211.63,9h-3.45V2.48h3.3v.69h-2.54V5.34h2.35V6h-2.35V8.3h2.69Z"/><path class="cls-6" d="M212.52,10.48h-.66a6.07,6.07,0,0,0,1.42-4,6.13,6.13,0,0,0-1.43-4h.67a6,6,0,0,1,1.42,4A5.79,5.79,0,0,1,212.52,10.48Z"/><path class="cls-6" d="M44.08,18.7H41.6v-.59h2.48Z"/><path class="cls-6" d="M53.1,21h-.84l-.69-1.83H48.81L48.16,21h-.85l2.5-6.52h.79Zm-1.78-2.52-1-2.77a1.93,1.93,0,0,1-.1-.44h0a2.33,2.33,0,0,1-.11.44l-1,2.77Z"/><path class="cls-6" d="M57.72,21H57v-.74h0a1.54,1.54,0,0,1-1.44.84c-1.1,0-1.66-.66-1.66-2V16.35h.74V19c0,1,.38,1.47,1.13,1.47a1.15,1.15,0,0,0,.89-.4A1.53,1.53,0,0,0,57,19V16.35h.74Z"/><path class="cls-6" d="M61.38,21a1.38,1.38,0,0,1-.69.15c-.82,0-1.23-.46-1.23-1.37V17h-.79v-.63h.79V15.21l.75-.24v1.38h1.17V17H60.21V19.6a1.06,1.06,0,0,0,.16.67.63.63,0,0,0,.52.2.76.76,0,0,0,.49-.16Z"/><path class="cls-6" d="M66.11,18.86H62.83a1.75,1.75,0,0,0,.42,1.2,1.43,1.43,0,0,0,1.1.42A2.32,2.32,0,0,0,65.79,20v.7a2.68,2.68,0,0,1-1.62.44,2,2,0,0,1-1.55-.63,2.62,2.62,0,0,1-.56-1.78,2.56,2.56,0,0,1,.61-1.77,2,2,0,0,1,1.53-.68,1.72,1.72,0,0,1,1.41.59,2.42,2.42,0,0,1,.5,1.64Zm-.76-.63a1.54,1.54,0,0,0-.31-1,1.07,1.07,0,0,0-.85-.36,1.23,1.23,0,0,0-.9.38,1.75,1.75,0,0,0-.45,1Z"/><path class="cls-6" d="M71.1,21h-.75V18.34c0-1-.36-1.48-1.08-1.48a1.16,1.16,0,0,0-.92.42A1.59,1.59,0,0,0,68,18.34V21h-.74V16.35H68v.77h0a1.67,1.67,0,0,1,1.53-.88,1.42,1.42,0,0,1,1.17.49,2.24,2.24,0,0,1,.4,1.42Z"/><path class="cls-6" d="M74.66,21a1.43,1.43,0,0,1-.7.15c-.81,0-1.22-.46-1.22-1.37V17h-.8v-.63h.8V15.21l.75-.24v1.38h1.17V17H73.49V19.6a1.06,1.06,0,0,0,.16.67.63.63,0,0,0,.52.2.76.76,0,0,0,.49-.16Z"/><path class="cls-6" d="M76,15.16a.46.46,0,0,1-.48-.48.46.46,0,0,1,.14-.34A.45.45,0,0,1,76,14.2a.45.45,0,0,1,.35.14.46.46,0,0,1,0,.68A.45.45,0,0,1,76,15.16ZM76.4,21h-.75V16.35h.75Z"/><path class="cls-6" d="M81.08,20.78a2.41,2.41,0,0,1-1.28.32,2.1,2.1,0,0,1-1.6-.64,2.33,2.33,0,0,1-.61-1.68,2.59,2.59,0,0,1,.66-1.85A2.3,2.3,0,0,1,80,16.24a2.45,2.45,0,0,1,1.08.22v.77a1.82,1.82,0,0,0-1.1-.37,1.49,1.49,0,0,0-1.17.51,1.92,1.92,0,0,0-.46,1.35A1.85,1.85,0,0,0,78.78,20a1.5,1.5,0,0,0,1.15.47,1.88,1.88,0,0,0,1.15-.41Z"/><path class="cls-6" d="M85.53,21h-.74v-.73h0a1.71,1.71,0,0,1-2.52.47,1.29,1.29,0,0,1-.39-1c0-.87.51-1.37,1.53-1.52l1.4-.19c0-.79-.32-1.19-1-1.19a2.26,2.26,0,0,0-1.52.58v-.77a2.88,2.88,0,0,1,1.58-.43c1.09,0,1.64.57,1.64,1.73Zm-.74-2.36-1.13.16a1.93,1.93,0,0,0-.78.25.77.77,0,0,0-.26.66.71.71,0,0,0,.24.55.92.92,0,0,0,.65.22,1.18,1.18,0,0,0,.91-.39,1.36,1.36,0,0,0,.37-1Z"/><path class="cls-6" d="M90.1,20.78a2.35,2.35,0,0,1-1.27.32,2.09,2.09,0,0,1-1.6-.64,2.33,2.33,0,0,1-.61-1.68,2.58,2.58,0,0,1,.65-1.85A2.33,2.33,0,0,1,89,16.24a2.45,2.45,0,0,1,1.08.22v.77A1.83,1.83,0,0,0,89,16.86a1.52,1.52,0,0,0-1.17.51,2,2,0,0,0-.45,1.35A1.85,1.85,0,0,0,87.81,20a1.48,1.48,0,0,0,1.15.47,1.85,1.85,0,0,0,1.14-.41Z"/><path class="cls-6" d="M91.61,15.16a.47.47,0,0,1-.34-.13.48.48,0,0,1-.14-.35.46.46,0,0,1,.14-.34.44.44,0,0,1,.34-.14.48.48,0,1,1,0,1ZM92,21h-.74V16.35H92Z"/><path class="cls-6" d="M95.42,21.1a2.13,2.13,0,0,1-1.64-.65,2.41,2.41,0,0,1-.62-1.73,2.55,2.55,0,0,1,.64-1.83,2.35,2.35,0,0,1,1.73-.65,2.08,2.08,0,0,1,1.63.64,2.52,2.52,0,0,1,.58,1.77,2.48,2.48,0,0,1-.63,1.78A2.19,2.19,0,0,1,95.42,21.1Zm.06-4.24a1.44,1.44,0,0,0-1.14.49,2.07,2.07,0,0,0-.41,1.35,1.9,1.9,0,0,0,.42,1.3,1.43,1.43,0,0,0,1.13.48A1.37,1.37,0,0,0,96.59,20,2,2,0,0,0,97,18.68a2,2,0,0,0-.39-1.34A1.35,1.35,0,0,0,95.48,16.86ZM96.57,14l-1.19,1.49H94.8l1-1.49Z"/><path class="cls-6" d="M102.79,21h-.74V18.34c0-1-.36-1.48-1.09-1.48a1.16,1.16,0,0,0-.92.42,1.59,1.59,0,0,0-.37,1.06V21h-.74V16.35h.74v.77h0a1.67,1.67,0,0,1,1.53-.88,1.42,1.42,0,0,1,1.17.49,2.18,2.18,0,0,1,.4,1.42Z"/><path class="cls-6" d="M107.12,15.16a.46.46,0,0,1-.48-.48.46.46,0,0,1,.14-.34.45.45,0,0,1,.34-.14.45.45,0,0,1,.35.14.48.48,0,0,1,0,.68A.45.45,0,0,1,107.12,15.16Zm.37,5.84h-.75V16.35h.75Z"/><path class="cls-6" d="M112.85,21h-.74V18.34c0-1-.36-1.48-1.08-1.48a1.2,1.2,0,0,0-.93.42,1.58,1.58,0,0,0-.36,1.06V21H109V16.35h.75v.77h0a1.67,1.67,0,0,1,1.52-.88,1.42,1.42,0,0,1,1.17.49,2.18,2.18,0,0,1,.4,1.42Z"/><path class="cls-6" d="M116.41,21a1.36,1.36,0,0,1-.69.15c-.82,0-1.22-.46-1.22-1.37V17h-.8v-.63h.8V15.21l.74-.24v1.38h1.17V17h-1.17V19.6a1.06,1.06,0,0,0,.16.67.65.65,0,0,0,.53.2.71.71,0,0,0,.48-.16Z"/><path class="cls-6" d="M121.15,18.86h-3.29a1.75,1.75,0,0,0,.42,1.2,1.45,1.45,0,0,0,1.1.42,2.32,2.32,0,0,0,1.44-.52v.7a2.68,2.68,0,0,1-1.62.44,2,2,0,0,1-1.55-.63,2.62,2.62,0,0,1-.56-1.78,2.52,2.52,0,0,1,.62-1.77,2,2,0,0,1,1.52-.68,1.75,1.75,0,0,1,1.42.59,2.47,2.47,0,0,1,.5,1.64Zm-.77-.63a1.49,1.49,0,0,0-.31-1,1.05,1.05,0,0,0-.85-.36,1.19,1.19,0,0,0-.89.38,1.7,1.7,0,0,0-.46,1Z"/><path class="cls-6" d="M126.24,20.62c0,1.71-.82,2.56-2.45,2.56a3.39,3.39,0,0,1-1.51-.32v-.75a3.09,3.09,0,0,0,1.5.44c1.14,0,1.72-.61,1.72-1.83v-.51h0a1.89,1.89,0,0,1-3,.27,2.47,2.47,0,0,1-.53-1.66,2.87,2.87,0,0,1,.57-1.88,1.89,1.89,0,0,1,1.56-.7,1.53,1.53,0,0,1,1.4.75h0v-.64h.74Zm-.74-1.73v-.68a1.33,1.33,0,0,0-.38-.95,1.21,1.21,0,0,0-.93-.4,1.3,1.3,0,0,0-1.08.5,2.27,2.27,0,0,0-.39,1.41,1.91,1.91,0,0,0,.37,1.24,1.21,1.21,0,0,0,1,.47,1.29,1.29,0,0,0,1-.45A1.65,1.65,0,0,0,125.5,18.89Z"/><path class="cls-6" d="M130.17,17.1a.89.89,0,0,0-.56-.15,1,1,0,0,0-.8.45,2.1,2.1,0,0,0-.32,1.22V21h-.74V16.35h.74v.95h0a1.65,1.65,0,0,1,.49-.76,1.11,1.11,0,0,1,.73-.28,1,1,0,0,1,.44.07Z"/><path class="cls-6" d="M134.31,21h-.74v-.73h0a1.71,1.71,0,0,1-2.52.47,1.29,1.29,0,0,1-.39-1c0-.87.51-1.37,1.53-1.52l1.4-.19c0-.79-.32-1.19-1-1.19a2.26,2.26,0,0,0-1.52.58v-.77a2.88,2.88,0,0,1,1.58-.43c1.09,0,1.64.57,1.64,1.73Zm-.74-2.36-1.13.16a1.93,1.93,0,0,0-.78.25.77.77,0,0,0-.26.66.71.71,0,0,0,.24.55.92.92,0,0,0,.65.22,1.18,1.18,0,0,0,.91-.39,1.36,1.36,0,0,0,.37-1Z"/><path class="cls-6" d="M139.68,21h-.74v-.79h0a1.89,1.89,0,0,1-3,.27,2.56,2.56,0,0,1-.53-1.7,2.77,2.77,0,0,1,.59-1.85,1.9,1.9,0,0,1,1.54-.69,1.5,1.5,0,0,1,1.4.75h0V14.11h.74Zm-.74-2.11v-.68a1.34,1.34,0,0,0-.38-1,1.23,1.23,0,0,0-.94-.39,1.3,1.3,0,0,0-1.07.5,2.22,2.22,0,0,0-.39,1.38,2,2,0,0,0,.37,1.27,1.24,1.24,0,0,0,1,.47,1.28,1.28,0,0,0,1-.45A1.68,1.68,0,0,0,138.94,18.89Z"/><path class="cls-6" d="M144.52,21h-.75v-.73h0a1.7,1.7,0,0,1-2.51.47,1.3,1.3,0,0,1-.4-1c0-.87.52-1.37,1.54-1.52l1.39-.19c0-.79-.32-1.19-1-1.19a2.24,2.24,0,0,0-1.52.58v-.77a2.88,2.88,0,0,1,1.58-.43c1.09,0,1.64.57,1.64,1.73Zm-.75-2.36-1.12.16a1.93,1.93,0,0,0-.78.25.77.77,0,0,0-.26.66.71.71,0,0,0,.24.55.92.92,0,0,0,.65.22,1.18,1.18,0,0,0,.91-.39,1.39,1.39,0,0,0,.36-1Z"/><path class="cls-6" d="M152.44,21h-.75v-.79h0a1.71,1.71,0,0,1-1.59.89,1.75,1.75,0,0,1-1.41-.62,2.61,2.61,0,0,1-.52-1.7,2.77,2.77,0,0,1,.58-1.85,1.94,1.94,0,0,1,1.55-.69,1.48,1.48,0,0,1,1.39.75h0V14.11h.75Zm-.75-2.11v-.68a1.33,1.33,0,0,0-.37-1,1.24,1.24,0,0,0-.94-.39,1.3,1.3,0,0,0-1.08.5,2.22,2.22,0,0,0-.39,1.38,2,2,0,0,0,.38,1.27,1.22,1.22,0,0,0,1,.47,1.25,1.25,0,0,0,1-.45A1.68,1.68,0,0,0,151.69,18.89Z"/><path class="cls-6" d="M157.68,18.86H154.4a1.75,1.75,0,0,0,.42,1.2,1.43,1.43,0,0,0,1.1.42,2.32,2.32,0,0,0,1.44-.52v.7a2.68,2.68,0,0,1-1.62.44,2,2,0,0,1-1.55-.63,2.62,2.62,0,0,1-.56-1.78,2.56,2.56,0,0,1,.61-1.77,2,2,0,0,1,1.53-.68,1.72,1.72,0,0,1,1.41.59,2.42,2.42,0,0,1,.5,1.64Zm-.76-.63a1.54,1.54,0,0,0-.31-1,1.07,1.07,0,0,0-.85-.36,1.23,1.23,0,0,0-.9.38,1.75,1.75,0,0,0-.45,1Z"/><path class="cls-6" d="M169.17,14.48,167.34,21h-.9l-1.34-4.76a2.85,2.85,0,0,1-.1-.67h0a3.5,3.5,0,0,1-.12.66L163.51,21h-.88l-1.91-6.52h.84l1.38,5a2.85,2.85,0,0,1,.11.65h0a3.2,3.2,0,0,1,.14-.65l1.44-5h.73l1.38,5a4.48,4.48,0,0,1,.11.61h0a3.43,3.43,0,0,1,.12-.62l1.33-5Z"/><path class="cls-6" d="M170.42,15.16a.46.46,0,0,1-.48-.48.46.46,0,0,1,.14-.34.45.45,0,0,1,.34-.14.45.45,0,0,1,.35.14.46.46,0,0,1,0,.68A.45.45,0,0,1,170.42,15.16Zm.37,5.84H170V16.35h.75Z"/><path class="cls-6" d="M176.15,21h-.74V18.34c0-1-.36-1.48-1.08-1.48a1.16,1.16,0,0,0-.92.42,1.54,1.54,0,0,0-.37,1.06V21h-.75V16.35H173v.77h0a1.67,1.67,0,0,1,1.52-.88,1.42,1.42,0,0,1,1.17.49,2.18,2.18,0,0,1,.4,1.42Z"/><path class="cls-6" d="M181.53,21h-.75v-.79h0a1.71,1.71,0,0,1-1.59.89,1.75,1.75,0,0,1-1.41-.62,2.61,2.61,0,0,1-.52-1.7,2.77,2.77,0,0,1,.58-1.85,1.94,1.94,0,0,1,1.55-.69,1.48,1.48,0,0,1,1.39.75h0V14.11h.75Zm-.75-2.11v-.68a1.33,1.33,0,0,0-.37-1,1.24,1.24,0,0,0-.94-.39,1.3,1.3,0,0,0-1.08.5,2.22,2.22,0,0,0-.39,1.38,2,2,0,0,0,.38,1.27,1.22,1.22,0,0,0,1,.47,1.25,1.25,0,0,0,1-.45A1.68,1.68,0,0,0,180.78,18.89Z"/><path class="cls-6" d="M185,21.1a2.14,2.14,0,0,1-1.65-.65,2.41,2.41,0,0,1-.61-1.73,2.5,2.5,0,0,1,.64-1.83,2.31,2.31,0,0,1,1.73-.65,2.07,2.07,0,0,1,1.62.64,2.52,2.52,0,0,1,.58,1.77,2.52,2.52,0,0,1-.62,1.78A2.21,2.21,0,0,1,185,21.1Zm.05-4.24a1.42,1.42,0,0,0-1.13.49,2,2,0,0,0-.42,1.35,1.9,1.9,0,0,0,.42,1.3,1.43,1.43,0,0,0,1.13.48,1.37,1.37,0,0,0,1.11-.47,2,2,0,0,0,.39-1.33,2,2,0,0,0-.39-1.34A1.35,1.35,0,0,0,185,16.86Z"/><path class="cls-6" d="M194.34,16.35,193,21h-.77l-1-3.33a1.84,1.84,0,0,1-.07-.43h0a1.89,1.89,0,0,1-.1.42L190,21h-.74l-1.41-4.65h.78l1,3.49a3,3,0,0,1,.07.42h0a2.47,2.47,0,0,1,.08-.43l1.08-3.48h.68l1,3.5a3,3,0,0,1,.07.42h0a2.76,2.76,0,0,1,.08-.42l1-3.5Z"/><path class="cls-6" d="M194.92,20.83V20a2.23,2.23,0,0,0,1.34.45c.66,0,1-.22,1-.66a.51.51,0,0,0-.08-.31.84.84,0,0,0-.23-.23,1.29,1.29,0,0,0-.33-.18l-.42-.17a5.72,5.72,0,0,1-.54-.24,1.52,1.52,0,0,1-.39-.29.92.92,0,0,1-.24-.35,1.32,1.32,0,0,1-.08-.47,1.11,1.11,0,0,1,.15-.58,1.34,1.34,0,0,1,.4-.42,2.12,2.12,0,0,1,.57-.26,3,3,0,0,1,.66-.08,2.6,2.6,0,0,1,1.08.21v.75a2,2,0,0,0-1.18-.34,1.38,1.38,0,0,0-.37.05A1,1,0,0,0,196,17a.63.63,0,0,0-.19.21.6.6,0,0,0-.06.27.67.67,0,0,0,.06.3A.66.66,0,0,0,196,18a1.8,1.8,0,0,0,.31.17l.42.17c.2.08.39.16.55.24a2.78,2.78,0,0,1,.42.28,1.18,1.18,0,0,1,.26.37,1,1,0,0,1,.1.48,1.08,1.08,0,0,1-.16.6,1.24,1.24,0,0,1-.4.42,1.84,1.84,0,0,1-.59.25,2.61,2.61,0,0,1-.69.08A2.71,2.71,0,0,1,194.92,20.83Z"/><path class="cls-6" d="M44.08,30.7H41.6v-.59h2.48Z"/><path class="cls-6" d="M53.31,33h-.93L49,27.8a1.87,1.87,0,0,1-.2-.4h0a7.16,7.16,0,0,1,0,.89V33h-.77V26.48h1l3.26,5.11a4.87,4.87,0,0,1,.27.44h0a7.24,7.24,0,0,1,0-1V26.48h.76Z"/><path class="cls-6" d="M56.86,33.1a2.12,2.12,0,0,1-1.64-.65,2.41,2.41,0,0,1-.62-1.73,2.5,2.5,0,0,1,.64-1.83A2.35,2.35,0,0,1,57,28.24a2,2,0,0,1,1.62.64,2.52,2.52,0,0,1,.59,1.77,2.48,2.48,0,0,1-.63,1.78A2.19,2.19,0,0,1,56.86,33.1Zm.06-4.24a1.44,1.44,0,0,0-1.14.49,2,2,0,0,0-.42,1.35,1.86,1.86,0,0,0,.43,1.3,1.42,1.42,0,0,0,1.13.48A1.37,1.37,0,0,0,58,32a2.48,2.48,0,0,0,0-2.67A1.35,1.35,0,0,0,56.92,28.86Z"/><path class="cls-6" d="M67,33h-.74V30.33A2,2,0,0,0,66,29.21a.91.91,0,0,0-.8-.35,1,1,0,0,0-.81.44,1.63,1.63,0,0,0-.34,1V33H63.3V30.23c0-.91-.36-1.37-1.06-1.37a1,1,0,0,0-.81.41,1.72,1.72,0,0,0-.32,1.07V33h-.74V28.35h.74v.73h0a1.58,1.58,0,0,1,1.45-.84,1.34,1.34,0,0,1,.83.26,1.38,1.38,0,0,1,.48.7,1.67,1.67,0,0,1,1.55-1q1.53,0,1.53,1.89Z"/><path class="cls-6" d="M69.14,32.32h0V33h-.74V26.11h.74v3.05h0a1.77,1.77,0,0,1,1.61-.92,1.69,1.69,0,0,1,1.4.62,2.56,2.56,0,0,1,.51,1.67,2.88,2.88,0,0,1-.57,1.87,1.89,1.89,0,0,1-1.55.7A1.54,1.54,0,0,1,69.14,32.32Zm0-1.87v.65a1.4,1.4,0,0,0,.38,1,1.33,1.33,0,0,0,2-.12,2.37,2.37,0,0,0,.38-1.44,1.94,1.94,0,0,0-.35-1.22,1.21,1.21,0,0,0-1-.44,1.31,1.31,0,0,0-1,.45A1.65,1.65,0,0,0,69.12,30.45Z"/><path class="cls-6" d="M76.27,29.1a.91.91,0,0,0-.56-.15,1,1,0,0,0-.8.45,2.1,2.1,0,0,0-.32,1.22V33h-.74V28.35h.74v.95h0a1.63,1.63,0,0,1,.48-.76,1.16,1.16,0,0,1,.74-.28,1,1,0,0,1,.44.07Z"/><path class="cls-6" d="M80.82,30.86H77.53a1.75,1.75,0,0,0,.42,1.2,1.45,1.45,0,0,0,1.1.42A2.32,2.32,0,0,0,80.49,32v.7a2.68,2.68,0,0,1-1.62.44,2,2,0,0,1-1.55-.63,2.62,2.62,0,0,1-.56-1.78,2.56,2.56,0,0,1,.62-1.77,2,2,0,0,1,1.52-.68,1.75,1.75,0,0,1,1.42.59,2.47,2.47,0,0,1,.5,1.64Zm-.77-.63a1.49,1.49,0,0,0-.31-1,1.05,1.05,0,0,0-.85-.36,1.19,1.19,0,0,0-.89.38,1.7,1.7,0,0,0-.46,1Z"/><path class="cls-6" d="M88.46,33h-.75v-.79h0a1.74,1.74,0,0,1-1.6.89,1.71,1.71,0,0,1-1.4-.62,2.56,2.56,0,0,1-.53-1.7,2.82,2.82,0,0,1,.58-1.85,1.94,1.94,0,0,1,1.55-.69,1.5,1.5,0,0,1,1.4.75h0V26.11h.75Zm-.75-2.11v-.68a1.33,1.33,0,0,0-.37-1,1.24,1.24,0,0,0-.94-.39,1.28,1.28,0,0,0-1.07.5,2.22,2.22,0,0,0-.39,1.38A2,2,0,0,0,85.31,32a1.23,1.23,0,0,0,1,.47,1.28,1.28,0,0,0,1-.45A1.72,1.72,0,0,0,87.71,30.89Z"/><path class="cls-6" d="M93.7,30.86H90.42a1.75,1.75,0,0,0,.42,1.2,1.43,1.43,0,0,0,1.1.42A2.32,2.32,0,0,0,93.38,32v.7a2.68,2.68,0,0,1-1.62.44,2,2,0,0,1-1.55-.63,2.62,2.62,0,0,1-.56-1.78,2.56,2.56,0,0,1,.61-1.77,2,2,0,0,1,1.53-.68,1.72,1.72,0,0,1,1.41.59,2.42,2.42,0,0,1,.5,1.64Zm-.76-.63a1.54,1.54,0,0,0-.31-1,1.05,1.05,0,0,0-.85-.36,1.23,1.23,0,0,0-.9.38,1.75,1.75,0,0,0-.45,1Z"/><path class="cls-6" d="M101.14,33h-.75v-.74h0a1.54,1.54,0,0,1-1.44.84c-1.11,0-1.66-.66-1.66-2V28.35H98V31c0,1,.37,1.47,1.12,1.47a1.15,1.15,0,0,0,.9-.4,1.53,1.53,0,0,0,.35-1.06V28.35h.75Z"/><path class="cls-6" d="M102.36,32.83V32a2.19,2.19,0,0,0,1.34.45c.65,0,1-.22,1-.66a.59.59,0,0,0-.08-.31,1,1,0,0,0-.23-.23,1.56,1.56,0,0,0-.34-.18l-.41-.17a6,6,0,0,1-.55-.24,2,2,0,0,1-.39-.29,1,1,0,0,1-.23-.35,1.13,1.13,0,0,1-.08-.47,1.11,1.11,0,0,1,.15-.58,1.24,1.24,0,0,1,.4-.42,1.87,1.87,0,0,1,.57-.26,2.84,2.84,0,0,1,.66-.08,2.67,2.67,0,0,1,1.08.21v.75a2.07,2.07,0,0,0-1.18-.34,1.46,1.46,0,0,0-.38.05,1.11,1.11,0,0,0-.29.13.6.6,0,0,0-.18.21.5.5,0,0,0-.07.27.56.56,0,0,0,.07.3.56.56,0,0,0,.19.22,1.49,1.49,0,0,0,.31.17l.41.17.56.24a2.25,2.25,0,0,1,.41.28,1.07,1.07,0,0,1,.27.37,1.14,1.14,0,0,1,.09.48,1.16,1.16,0,0,1-.15.6,1.27,1.27,0,0,1-.41.42,1.79,1.79,0,0,1-.58.25,2.64,2.64,0,0,1-.7.08A2.7,2.7,0,0,1,102.36,32.83Z"/><path class="cls-6" d="M110.35,33h-.75v-.74h0a1.51,1.51,0,0,1-1.43.84c-1.11,0-1.66-.66-1.66-2V28.35h.74V31c0,1,.37,1.47,1.12,1.47a1.15,1.15,0,0,0,.9-.4A1.57,1.57,0,0,0,109.6,31V28.35h.75Z"/><path class="cls-6" d="M115.18,33h-.75v-.73h0a1.57,1.57,0,0,1-1.44.83,1.53,1.53,0,0,1-1.08-.36,1.3,1.3,0,0,1-.4-1c0-.87.52-1.37,1.54-1.52l1.39-.19c0-.79-.32-1.19-1-1.19a2.26,2.26,0,0,0-1.52.58v-.77a2.88,2.88,0,0,1,1.58-.43c1.09,0,1.64.57,1.64,1.73Zm-.75-2.36-1.12.16a1.93,1.93,0,0,0-.78.25.77.77,0,0,0-.26.66.71.71,0,0,0,.24.55.92.92,0,0,0,.65.22,1.18,1.18,0,0,0,.91-.39,1.39,1.39,0,0,0,.36-1Z"/><path class="cls-6" d="M119,29.1a.92.92,0,0,0-.57-.15.94.94,0,0,0-.79.45,2,2,0,0,0-.32,1.22V33h-.75V28.35h.75v.95h0a1.65,1.65,0,0,1,.49-.76,1.13,1.13,0,0,1,.73-.28,1.09,1.09,0,0,1,.45.07Z"/><path class="cls-6" d="M120.2,27.16a.48.48,0,0,1-.49-.48.43.43,0,0,1,.15-.34.42.42,0,0,1,.34-.14.44.44,0,0,1,.34.14.46.46,0,0,1,0,.68A.44.44,0,0,1,120.2,27.16Zm.36,5.84h-.75V28.35h.75Z"/><path class="cls-6" d="M124,33.1a2.15,2.15,0,0,1-1.65-.65,2.41,2.41,0,0,1-.61-1.73,2.5,2.5,0,0,1,.64-1.83,2.33,2.33,0,0,1,1.73-.65,2.07,2.07,0,0,1,1.62.64,2.52,2.52,0,0,1,.59,1.77,2.48,2.48,0,0,1-.63,1.78A2.19,2.19,0,0,1,124,33.1Zm.06-4.24a1.44,1.44,0,0,0-1.14.49,2,2,0,0,0-.42,1.35,1.9,1.9,0,0,0,.42,1.3,1.45,1.45,0,0,0,1.14.48,1.37,1.37,0,0,0,1.11-.47,2.54,2.54,0,0,0,0-2.67A1.35,1.35,0,0,0,124.07,28.86Z"/><path class="cls-6" d="M130.45,26.48l-3.12,7.6h-.69l3.11-7.6Z"/><path class="cls-6" d="M134.31,32.78a2.37,2.37,0,0,1-1.27.32,2.12,2.12,0,0,1-1.61-.64,2.37,2.37,0,0,1-.61-1.68,2.59,2.59,0,0,1,.66-1.85,2.31,2.31,0,0,1,1.76-.69,2.45,2.45,0,0,1,1.08.22v.77a1.87,1.87,0,0,0-1.11-.37,1.5,1.5,0,0,0-1.17.51,2,2,0,0,0-.46,1.35A1.89,1.89,0,0,0,132,32a1.51,1.51,0,0,0,1.16.47,1.88,1.88,0,0,0,1.14-.41Z"/><path class="cls-6" d="M137.38,33.1a2.14,2.14,0,0,1-1.65-.65,2.41,2.41,0,0,1-.61-1.73,2.5,2.5,0,0,1,.64-1.83,2.31,2.31,0,0,1,1.73-.65,2.07,2.07,0,0,1,1.62.64,2.52,2.52,0,0,1,.59,1.77,2.48,2.48,0,0,1-.63,1.78A2.21,2.21,0,0,1,137.38,33.1Zm.05-4.24a1.44,1.44,0,0,0-1.13.49,2,2,0,0,0-.42,1.35,1.9,1.9,0,0,0,.42,1.3,1.43,1.43,0,0,0,1.13.48,1.34,1.34,0,0,0,1.11-.47,2.48,2.48,0,0,0,0-2.67A1.32,1.32,0,0,0,137.43,28.86Z"/><path class="cls-6" d="M144.74,33H144V30.34c0-1-.36-1.48-1.08-1.48a1.16,1.16,0,0,0-.92.42,1.54,1.54,0,0,0-.37,1.06V33h-.75V28.35h.75v.77h0a1.67,1.67,0,0,1,1.52-.88,1.42,1.42,0,0,1,1.17.49,2.18,2.18,0,0,1,.4,1.42Z"/><path class="cls-6" d="M148.31,33a1.43,1.43,0,0,1-.7.15c-.81,0-1.22-.46-1.22-1.37V29h-.8v-.63h.8V27.21l.74-.24v1.38h1.18V29h-1.18V31.6a1.13,1.13,0,0,0,.16.67.65.65,0,0,0,.53.2.76.76,0,0,0,.49-.16Z"/><path class="cls-6" d="M151.72,29.1a.89.89,0,0,0-.56-.15,1,1,0,0,0-.8.45,2.1,2.1,0,0,0-.32,1.22V33h-.74V28.35H150v.95h0a1.65,1.65,0,0,1,.49-.76,1.13,1.13,0,0,1,.73-.28,1,1,0,0,1,.44.07Z"/><path class="cls-6" d="M155.86,33h-.74v-.73h0a1.71,1.71,0,0,1-2.52.47,1.29,1.29,0,0,1-.39-1c0-.87.51-1.37,1.53-1.52l1.4-.19c0-.79-.32-1.19-1-1.19a2.26,2.26,0,0,0-1.52.58v-.77a2.9,2.9,0,0,1,1.58-.43c1.1,0,1.64.57,1.64,1.73Zm-.74-2.36L154,30.8a1.93,1.93,0,0,0-.79.25.77.77,0,0,0-.26.66.71.71,0,0,0,.24.55.93.93,0,0,0,.65.22,1.2,1.2,0,0,0,.92-.39,1.39,1.39,0,0,0,.36-1Z"/><path class="cls-6" d="M157,32.83V32a2.21,2.21,0,0,0,1.34.45c.66,0,1-.22,1-.66a.51.51,0,0,0-.08-.31.84.84,0,0,0-.23-.23,1.29,1.29,0,0,0-.33-.18l-.42-.17a5.72,5.72,0,0,1-.54-.24,1.52,1.52,0,0,1-.39-.29.92.92,0,0,1-.24-.35,1.32,1.32,0,0,1-.08-.47,1.11,1.11,0,0,1,.15-.58,1.34,1.34,0,0,1,.4-.42,2.12,2.12,0,0,1,.57-.26,2.91,2.91,0,0,1,.66-.08,2.63,2.63,0,0,1,1.08.21v.75a2,2,0,0,0-1.18-.34,1.52,1.52,0,0,0-.38.05A1,1,0,0,0,158,29a.63.63,0,0,0-.19.21.6.6,0,0,0-.07.27.66.66,0,0,0,.07.3A.66.66,0,0,0,158,30a1.8,1.8,0,0,0,.31.17l.42.17c.2.08.39.16.55.24a2.78,2.78,0,0,1,.42.28,1.18,1.18,0,0,1,.26.37,1,1,0,0,1,.1.48,1.08,1.08,0,0,1-.16.6,1.24,1.24,0,0,1-.4.42,1.84,1.84,0,0,1-.59.25,2.61,2.61,0,0,1-.69.08A2.71,2.71,0,0,1,157,32.83Z"/><path class="cls-6" d="M165,30.86h-3.28a1.79,1.79,0,0,0,.41,1.2,1.46,1.46,0,0,0,1.1.42,2.32,2.32,0,0,0,1.45-.52v.7a2.69,2.69,0,0,1-1.63.44,2,2,0,0,1-1.54-.63,2.95,2.95,0,0,1,0-3.55,2,2,0,0,1,1.53-.68,1.73,1.73,0,0,1,1.41.59,2.47,2.47,0,0,1,.5,1.64Zm-.76-.63a1.54,1.54,0,0,0-.32-1,1,1,0,0,0-.85-.36,1.19,1.19,0,0,0-.89.38,1.7,1.7,0,0,0-.46,1Z"/><path class="cls-6" d="M169.93,33h-.74V30.34c0-1-.36-1.48-1.08-1.48a1.2,1.2,0,0,0-.93.42,1.58,1.58,0,0,0-.36,1.06V33h-.75V28.35h.75v.77h0a1.67,1.67,0,0,1,1.52-.88,1.42,1.42,0,0,1,1.17.49,2.18,2.18,0,0,1,.4,1.42Zm-.49-6.63a1.33,1.33,0,0,1-.21.78.72.72,0,0,1-.6.31,1.49,1.49,0,0,1-.73-.24,1.24,1.24,0,0,0-.54-.2c-.27,0-.4.18-.4.52h-.43a1.29,1.29,0,0,1,.22-.78.71.71,0,0,1,.61-.29,1.31,1.31,0,0,1,.68.23,1.18,1.18,0,0,0,.58.2c.25,0,.38-.17.38-.53Z"/><path class="cls-6" d="M174.67,33h-.75v-.73h0a1.54,1.54,0,0,1-1.43.83,1.58,1.58,0,0,1-1.09-.36,1.29,1.29,0,0,1-.39-1c0-.87.51-1.37,1.54-1.52l1.39-.19c0-.79-.32-1.19-1-1.19a2.24,2.24,0,0,0-1.51.58v-.77a2.86,2.86,0,0,1,1.58-.43c1.09,0,1.64.57,1.64,1.73Zm-.75-2.36-1.12.16a1.83,1.83,0,0,0-.78.25.75.75,0,0,0-.27.66.71.71,0,0,0,.25.55.91.91,0,0,0,.64.22,1.2,1.2,0,0,0,.92-.39,1.39,1.39,0,0,0,.36-1Z"/><rect class="cls-5" x="75.52" y="53.58" width="87.18" height="1.75"/><g id="shape1192-39-2" data-name="shape1192-39"><g id="lend5-2" data-name="lend5"><path class="cls-5" d="M161.69,50.43l8.05,4-8,4a9,9,0,0,0,0-8"/></g></g></g></svg>