<svg id="svg111" xmlns="http://www.w3.org/2000/svg" viewBox="0 0 204.7 66.2">
  <defs>
    <style>
      .cls-1 {
        fill: #007efd;
      }

      .cls-2, .cls-9 {
        fill: none;
      }

      .cls-3 {
        isolation: isolate;
      }

      .cls-4, .cls-5 {
        fill: #008bfd;
      }

      .cls-5 {
        stroke: gray;
        stroke-linejoin: round;
        stroke-width: 0.75px;
      }

      .cls-5, .cls-9 {
        stroke-linecap: round;
      }

      .cls-6 {
        fill: #fff;
      }

      .cls-7 {
        fill: #00b0f0;
      }

      .cls-8 {
        fill: #505050;
      }

      .cls-9 {
        stroke: #505050;
        stroke-miterlimit: 10;
        stroke-width: 1.91px;
      }
    </style>
  </defs>
  <title>OJ104546516</title>
  <g id="group1195-2">
    <g id="shape1200-7">
      <path id="path33" class="cls-1" d="M69.65,9.3h-6.1a.46.46,0,0,0-.4.5V12a.43.43,0,0,0,.4.4h3.5v3.4a.43.43,0,0,0,.4.4h2.2a.37.37,0,0,0,.4-.4v-6A.46.46,0,0,0,69.65,9.3Zm-17.2,21H49V26.9a.46.46,0,0,0-.5-.4h-2.2a.37.37,0,0,0-.4.4v6a.43.43,0,0,0,.4.4h6.1a.46.46,0,0,0,.4-.5V30.6C52.85,30.5,52.65,30.3,52.45,30.3Zm13.6-3.7c-.2,0-.3,0-.4.1l-2.3-4.1a2.76,2.76,0,0,0-1.9-4.8,3.59,3.59,0,0,0-1.1.2l-2.6-3.4a2,2,0,0,0,.5-1.5A2.26,2.26,0,0,0,56,10.8a2.3,2.3,0,0,0,0,4.6,2.35,2.35,0,0,0,.8-.2l2.5,3.5a3.09,3.09,0,0,0-.7,1.4l-7.2.6a1.82,1.82,0,0,0-1.7-1,1.9,1.9,0,0,0,0,3.8,2,2,0,0,0,1.9-1.6l7.1-.6a4.73,4.73,0,0,0,.7,1.2l-1.8,2.9h-.2a1.9,1.9,0,0,0,0,3.8,1.91,1.91,0,0,0,1.4-3.2l1.7-2.9a3,3,0,0,0,1,.2,2.35,2.35,0,0,0,.8-.2l2.3,4.1a2.36,2.36,0,0,0-.7,1.6,2.2,2.2,0,1,0,2.2-2.2Z"/>
    </g>
  </g>
  <rect class="cls-2" x="26.2" y="38.6" width="64.6" height="24.2"/>
  <g id="Brows..." class="cls-3">
    <g class="cls-3">
      <path class="cls-1" d="M41.62,47.15h-.91l-.74-2H37l-.7,2h-.91l2.68-7h.85Zm-1.92-2.7-1.1-3a4.26,4.26,0,0,1-.11-.47h0a2.53,2.53,0,0,1-.11.47l-1.09,3Z"/>
      <path class="cls-1" d="M43.36,46.42h0v3h-.8v-7.3h.8V43h0a1.9,1.9,0,0,1,1.73-1,1.83,1.83,0,0,1,1.51.67,2.8,2.8,0,0,1,.54,1.8,3.07,3.07,0,0,1-.61,2,2,2,0,0,1-1.67.75A1.67,1.67,0,0,1,43.36,46.42Zm0-2v.69a1.5,1.5,0,0,0,.41,1.06,1.33,1.33,0,0,0,1,.43A1.36,1.36,0,0,0,45.91,46a2.57,2.57,0,0,0,.41-1.55,2,2,0,0,0-.38-1.3,1.28,1.28,0,0,0-1-.48,1.39,1.39,0,0,0-1.12.49A1.75,1.75,0,0,0,43.34,44.41Z"/>
      <path class="cls-1" d="M49.22,47.15h-.8V39.74h.8Z"/>
      <path class="cls-1" d="M51.25,40.88a.49.49,0,0,1-.36-.15.51.51,0,0,1-.16-.37.53.53,0,0,1,.52-.52.54.54,0,0,1,.38.15.48.48,0,0,1,.15.37.49.49,0,0,1-.15.36A.51.51,0,0,1,51.25,40.88Zm.39,6.27h-.8v-5h.8Z"/>
      <path class="cls-1" d="M56.67,46.92a2.59,2.59,0,0,1-1.36.34,2.27,2.27,0,0,1-1.73-.69,2.54,2.54,0,0,1-.66-1.81,2.78,2.78,0,0,1,.71-2A2.47,2.47,0,0,1,55.52,42a2.64,2.64,0,0,1,1.16.24v.82a2,2,0,0,0-1.19-.39,1.64,1.64,0,0,0-1.26.55,2.13,2.13,0,0,0-.49,1.44,2,2,0,0,0,.46,1.39,1.59,1.59,0,0,0,1.24.51,2,2,0,0,0,1.23-.44Z"/>
      <path class="cls-1" d="M61.46,47.15h-.8v-.79h0a1.83,1.83,0,0,1-2.71.51,1.39,1.39,0,0,1-.42-1c0-.94.55-1.48,1.65-1.63l1.5-.21c0-.85-.34-1.28-1-1.28a2.48,2.48,0,0,0-1.63.62V42.5A3,3,0,0,1,59.7,42c1.18,0,1.76.62,1.76,1.86Zm-.8-2.53-1.2.16a1.87,1.87,0,0,0-.84.28.9.9,0,0,0,0,1.3,1.05,1.05,0,0,0,.7.23,1.27,1.27,0,0,0,1-.42,1.49,1.49,0,0,0,.39-1.06Z"/>
      <path class="cls-1" d="M66.38,46.92a2.6,2.6,0,0,1-1.37.34,2.25,2.25,0,0,1-1.72-.69,2.54,2.54,0,0,1-.66-1.81,2.78,2.78,0,0,1,.71-2A2.47,2.47,0,0,1,65.23,42a2.67,2.67,0,0,1,1.16.24v.82a2,2,0,0,0-1.19-.39,1.64,1.64,0,0,0-1.26.55,2.08,2.08,0,0,0-.49,1.44,2,2,0,0,0,.46,1.39,1.59,1.59,0,0,0,1.24.51,2,2,0,0,0,1.23-.44Z"/>
      <path class="cls-1" d="M68,40.88a.53.53,0,0,1-.37-.15.5.5,0,0,1-.15-.37.48.48,0,0,1,.15-.37.53.53,0,0,1,.37-.15.5.5,0,0,1,.37.15.46.46,0,0,1,.16.37.46.46,0,0,1-.16.36A.47.47,0,0,1,68,40.88Zm.39,6.27h-.8v-5h.8Z"/>
      <path class="cls-1" d="M72.1,47.26a2.31,2.31,0,0,1-1.77-.7,2.58,2.58,0,0,1-.66-1.86,2.68,2.68,0,0,1,.69-2A2.49,2.49,0,0,1,72.22,42a2.22,2.22,0,0,1,1.74.69,2.72,2.72,0,0,1,.63,1.91,2.68,2.68,0,0,1-.67,1.91A2.38,2.38,0,0,1,72.1,47.26Zm.06-4.56a1.53,1.53,0,0,0-1.22.53,2.15,2.15,0,0,0-.45,1.45,2.07,2.07,0,0,0,.45,1.4,1.56,1.56,0,0,0,1.22.51,1.46,1.46,0,0,0,1.19-.5,2.2,2.2,0,0,0,.42-1.43,2.22,2.22,0,0,0-.42-1.45A1.43,1.43,0,0,0,72.16,42.7Zm1.17-3.1-1.28,1.6h-.62l1.09-1.6Z"/>
      <path class="cls-1" d="M80,47.15h-.8V44.29c0-1.06-.39-1.59-1.16-1.59a1.25,1.25,0,0,0-1,.45,1.67,1.67,0,0,0-.4,1.14v2.86h-.8v-5h.8V43h0A1.8,1.8,0,0,1,78.33,42a1.55,1.55,0,0,1,1.26.53A2.34,2.34,0,0,1,80,44.09Z"/>
      <path class="cls-1" d="M26.64,58.86v-1a2.13,2.13,0,0,0,.4.26,3.58,3.58,0,0,0,.49.2,4.7,4.7,0,0,0,.51.12,2.8,2.8,0,0,0,.48.05,1.94,1.94,0,0,0,1.13-.28,1,1,0,0,0,.37-.81,1,1,0,0,0-.12-.5,1.5,1.5,0,0,0-.34-.38,2.9,2.9,0,0,0-.52-.33l-.65-.34c-.25-.12-.47-.25-.68-.37a3.15,3.15,0,0,1-.56-.42,2.06,2.06,0,0,1-.37-.52,1.79,1.79,0,0,1-.13-.68,1.64,1.64,0,0,1,.21-.84,1.79,1.79,0,0,1,.55-.58,2.5,2.5,0,0,1,.78-.34,3.34,3.34,0,0,1,.89-.11,3.37,3.37,0,0,1,1.51.25v.92A2.69,2.69,0,0,0,29,52.77a2.48,2.48,0,0,0-.54.06A1.26,1.26,0,0,0,28,53a1,1,0,0,0-.34.33.82.82,0,0,0-.13.48,1,1,0,0,0,.4.82,2.56,2.56,0,0,0,.47.32l.65.33a6.85,6.85,0,0,1,.71.39,3.52,3.52,0,0,1,.59.45,1.89,1.89,0,0,1,.4.55,1.6,1.6,0,0,1,.15.7,1.74,1.74,0,0,1-.2.88,1.69,1.69,0,0,1-.55.58,2.23,2.23,0,0,1-.79.32,4.13,4.13,0,0,1-.95.1l-.41,0-.49-.08L27,59A1.52,1.52,0,0,1,26.64,58.86Z"/>
      <path class="cls-1" d="M32.58,52.88a.49.49,0,0,1-.36-.15.5.5,0,0,1-.15-.37.48.48,0,0,1,.15-.37.49.49,0,0,1,.36-.15A.54.54,0,0,1,33,52a.48.48,0,0,1,.15.37.49.49,0,0,1-.15.36A.51.51,0,0,1,32.58,52.88ZM33,59.15h-.8v-5H33Z"/>
      <path class="cls-1" d="M38.75,59.15h-.81V56.29c0-1.06-.38-1.59-1.16-1.59a1.25,1.25,0,0,0-1,.45,1.71,1.71,0,0,0-.39,1.14v2.86h-.81v-5h.81V55h0A1.78,1.78,0,0,1,37.06,54a1.54,1.54,0,0,1,1.25.53,2.35,2.35,0,0,1,.44,1.53Z"/>
      <path class="cls-1" d="M47,56.85H43.48a1.87,1.87,0,0,0,.45,1.29,1.56,1.56,0,0,0,1.18.45A2.49,2.49,0,0,0,46.67,58v.75a2.92,2.92,0,0,1-1.75.48,2.09,2.09,0,0,1-1.66-.68,3.19,3.19,0,0,1,.05-3.82A2.12,2.12,0,0,1,45,54a1.86,1.86,0,0,1,1.51.63A2.66,2.66,0,0,1,47,56.43Zm-.82-.68a1.62,1.62,0,0,0-.33-1.08,1.14,1.14,0,0,0-.92-.39,1.28,1.28,0,0,0-1,.41,1.84,1.84,0,0,0-.49,1.06Z"/>
      <path class="cls-1" d="M51.88,54.15,50.2,56.68l1.65,2.47h-.94l-1-1.63-.22-.38h0a4.36,4.36,0,0,1-.23.38l-1,1.63h-.92l1.7-2.46-1.63-2.54h.93l1,1.7.21.4h0L51,54.15Z"/>
      <path class="cls-1" d="M53.63,58.42h0v3h-.8v-7.3h.8V55h0a1.9,1.9,0,0,1,1.73-1,1.82,1.82,0,0,1,1.51.67,2.8,2.8,0,0,1,.54,1.8,3.07,3.07,0,0,1-.61,2,2,2,0,0,1-1.67.75A1.67,1.67,0,0,1,53.63,58.42Zm0-2v.69A1.5,1.5,0,0,0,54,58.16,1.43,1.43,0,0,0,56.18,58a2.57,2.57,0,0,0,.41-1.55,2,2,0,0,0-.38-1.3,1.28,1.28,0,0,0-1.05-.48,1.4,1.4,0,0,0-1.12.49A1.75,1.75,0,0,0,53.61,56.41Z"/>
      <path class="cls-1" d="M59.49,59.15h-.8V51.74h.8Z"/>
      <path class="cls-1" d="M63.2,59.26a2.31,2.31,0,0,1-1.77-.7,2.58,2.58,0,0,1-.66-1.86,2.68,2.68,0,0,1,.69-2A2.49,2.49,0,0,1,63.32,54a2.25,2.25,0,0,1,1.75.69,2.76,2.76,0,0,1,.62,1.91A2.68,2.68,0,0,1,65,58.54,2.38,2.38,0,0,1,63.2,59.26Zm.06-4.56a1.53,1.53,0,0,0-1.22.53,2.15,2.15,0,0,0-.45,1.45,2,2,0,0,0,.46,1.4,1.53,1.53,0,0,0,1.21.51,1.49,1.49,0,0,0,1.2-.5,2.73,2.73,0,0,0,0-2.88A1.47,1.47,0,0,0,63.26,54.7Z"/>
      <path class="cls-1" d="M69.58,55A1,1,0,0,0,69,54.8a1,1,0,0,0-.85.48,2.22,2.22,0,0,0-.35,1.32v2.55H67v-5h.8v1h0a1.76,1.76,0,0,1,.53-.83,1.2,1.2,0,0,1,.78-.29,1.22,1.22,0,0,1,.48.07Z"/>
      <path class="cls-1" d="M74,59.15h-.8v-.79h0a1.68,1.68,0,0,1-1.54.9,1.65,1.65,0,0,1-1.17-.39,1.39,1.39,0,0,1-.42-1c0-.94.55-1.48,1.65-1.63l1.5-.21c0-.85-.35-1.28-1-1.28a2.46,2.46,0,0,0-1.63.62V54.5a3,3,0,0,1,1.7-.47c1.17,0,1.76.62,1.76,1.86Zm-.8-2.53L72,56.78a2,2,0,0,0-.84.28.78.78,0,0,0-.28.7.79.79,0,0,0,.26.6,1,1,0,0,0,.7.23,1.29,1.29,0,0,0,1-.42,1.49,1.49,0,0,0,.39-1.06Z"/>
      <path class="cls-1" d="M79.8,59.15H79V58.3h0a1.84,1.84,0,0,1-1.71,1,1.87,1.87,0,0,1-1.51-.67,2.74,2.74,0,0,1-.56-1.83,3,3,0,0,1,.62-2A2.06,2.06,0,0,1,77.49,54a1.59,1.59,0,0,1,1.49.81h0v-3.1h.8ZM79,56.89v-.74a1.42,1.42,0,0,0-.4-1,1.32,1.32,0,0,0-1-.42,1.37,1.37,0,0,0-1.15.54A2.35,2.35,0,0,0,76,56.72a2.11,2.11,0,0,0,.4,1.37,1.33,1.33,0,0,0,1.08.5,1.38,1.38,0,0,0,1.09-.48A1.85,1.85,0,0,0,79,56.89Z"/>
      <path class="cls-1" d="M83.52,59.26a2.31,2.31,0,0,1-1.77-.7,2.54,2.54,0,0,1-.67-1.86,2.68,2.68,0,0,1,.69-2A2.49,2.49,0,0,1,83.63,54a2.25,2.25,0,0,1,1.75.69A2.72,2.72,0,0,1,86,56.63a2.69,2.69,0,0,1-.68,1.91A2.37,2.37,0,0,1,83.52,59.26Zm0-4.56a1.53,1.53,0,0,0-1.22.53,2.15,2.15,0,0,0-.45,1.45,2.07,2.07,0,0,0,.46,1.4,1.54,1.54,0,0,0,1.21.51,1.49,1.49,0,0,0,1.2-.5,2.2,2.2,0,0,0,.42-1.43,2.22,2.22,0,0,0-.42-1.45A1.47,1.47,0,0,0,83.57,54.7Z"/>
      <path class="cls-1" d="M89.89,55a1,1,0,0,0-.6-.16,1,1,0,0,0-.86.48,2.23,2.23,0,0,0-.34,1.32v2.55h-.8v-5h.8v1h0a1.67,1.67,0,0,1,.52-.83,1.2,1.2,0,0,1,.78-.29,1.22,1.22,0,0,1,.48.07Z"/>
    </g>
  </g>
  <g id="group1201-12">
    <g id="group1202-13">
      <g id="group1203-14">
        <g id="group1204-15">
          <g id="shape1205-16">
            <path id="path53" class="cls-4" d="M7.83,13.64a4.6,4.6,0,0,0-3,5.7c.7,2.6,3,4.2,5.3,3.7a4.6,4.6,0,0,0,3-5.7C12.53,14.64,10.13,12.94,7.83,13.64Z"/>
          </g>
        </g>
        <g id="group1206-18">
          <g id="shape1207-19">
            <path id="path61" class="cls-4" d="M12.77,23.61c-.39,0-.89.8-1.5,1.1a2.88,2.88,0,0,1-3.2,0C6.17,23.81,6,23,4.47,23S.38,25.81.38,29.91H16a11.38,11.38,0,0,0-1.1-4.2C13.77,23.61,13.27,23.61,12.77,23.61Z"/>
          </g>
        </g>
      </g>
    </g>
    <g id="group1208-21">
      <g id="shape1209-22">
        <path id="path71" class="cls-5" d="M14.22,18.65h-4.1a.67.67,0,0,0-.6.7v2.8a.77.77,0,0,0,.8.7h.8V28a1,1,0,0,0,1,1.1.94.94,0,0,0,1-1h.2v-.7c0-.2.3-.3.3-.3v-.3c-.3-.1-.5-.3-.5-.4v-.3l.2-.2c-.1-.2.1-.6.1-.6a2.19,2.19,0,0,1-.3-.5c-.1-.1-.1-.3-.2-.4v-.2a2.75,2.75,0,0,1,.7-1.2h.5c.3,0,.7-.3.7-.6v-3A.66.66,0,0,0,14.22,18.65Zm-2.4,9.6c0,.2,0,.3-.2.3s-.2-.2-.2-.3v-4.8c0-.2.1-.3.2-.3s.2.2.2.3Zm.3-7.8a.7.7,0,0,1,0-1.4.67.67,0,0,1,.6.7A.56.56,0,0,1,12.12,20.45Z"/>
      </g>
      <g id="shape1210-24">
        <path id="path76" class="cls-6" d="M11.55,28.48a.22.22,0,0,1-.2-.2v-5a.2.2,0,0,1,.4,0v5.1C11.75,28.48,11.65,28.48,11.55,28.48Z"/>
      </g>
      <g id="shape1211-26">
        <circle id="ellipse81" class="cls-6" cx="12.18" cy="19.78" r="0.7"/>
      </g>
    </g>
  </g>
  <path id="path90" class="cls-4" d="M191.8,8.2H171.3a1.11,1.11,0,0,0-1.1,1.1V26a1.11,1.11,0,0,0,1.1,1.1h5.3a3.35,3.35,0,1,0,3.2-4.5,3.24,3.24,0,0,0-3.2,2.3h-4.2V13h18.3V25h-3.4a7.64,7.64,0,0,0-7.5-6.6,8.7,8.7,0,0,0-3.6.9l1,2a5.59,5.59,0,0,1,2.6-.7,5.53,5.53,0,0,1,5.4,5.5,5.46,5.46,0,0,1-5.4,5.5,4.84,4.84,0,0,1-2.6-.7l-1,2a7.58,7.58,0,0,0,11.1-5.7h4.6a1.11,1.11,0,0,0,1.1-1.1V9.3A1.38,1.38,0,0,0,191.8,8.2Z"/>
  <g id="text92" class="cls-3">
    <path class="cls-4" d="M162.86,46.72H162l-.74-2h-3l-.7,2h-.91l2.68-7h.85ZM160.94,44l-1.1-3a4.26,4.26,0,0,1-.11-.47h0a2.53,2.53,0,0,1-.11.47l-1.09,3Z"/>
    <path class="cls-4" d="M164.6,46h0v3h-.8v-7.3h.8v.88h0a1.89,1.89,0,0,1,1.73-1,1.83,1.83,0,0,1,1.51.67,2.8,2.8,0,0,1,.54,1.8,3.07,3.07,0,0,1-.61,2,2,2,0,0,1-1.67.75A1.67,1.67,0,0,1,164.6,46Zm0-2v.7a1.49,1.49,0,0,0,.41,1,1.3,1.3,0,0,0,1,.43,1.36,1.36,0,0,0,1.14-.56,2.56,2.56,0,0,0,.41-1.54,2,2,0,0,0-.39-1.31,1.25,1.25,0,0,0-1-.48,1.4,1.4,0,0,0-1.12.49A1.75,1.75,0,0,0,164.58,44Z"/>
    <path class="cls-4" d="M170.46,46.72h-.8V39.31h.8Z"/>
    <path class="cls-4" d="M172.49,40.45a.49.49,0,0,1-.36-.15.51.51,0,0,1-.16-.37.53.53,0,0,1,.52-.52.54.54,0,0,1,.38.15.48.48,0,0,1,.15.37.53.53,0,0,1-.15.37A.54.54,0,0,1,172.49,40.45Zm.39,6.27h-.8v-5h.8Z"/>
    <path class="cls-4" d="M177.91,46.49a2.6,2.6,0,0,1-1.37.34,2.27,2.27,0,0,1-1.72-.69,2.54,2.54,0,0,1-.66-1.81,2.78,2.78,0,0,1,.71-2,2.47,2.47,0,0,1,1.89-.75,2.64,2.64,0,0,1,1.16.24v.82a2,2,0,0,0-1.19-.39,1.64,1.64,0,0,0-1.26.55,2.14,2.14,0,0,0-.49,1.45,2,2,0,0,0,.46,1.38,1.59,1.59,0,0,0,1.24.51,1.93,1.93,0,0,0,1.23-.44Z"/>
    <path class="cls-4" d="M182.7,46.72h-.8v-.79h0a1.83,1.83,0,0,1-2.71.51,1.39,1.39,0,0,1-.42-1c0-.94.55-1.48,1.65-1.63l1.5-.21c0-.85-.34-1.28-1-1.28a2.48,2.48,0,0,0-1.63.62v-.82a3.12,3.12,0,0,1,1.7-.47c1.18,0,1.76.62,1.76,1.86Zm-.8-2.53-1.2.16a1.87,1.87,0,0,0-.84.28.9.9,0,0,0,0,1.3,1.05,1.05,0,0,0,.7.23,1.27,1.27,0,0,0,1-.42,1.49,1.49,0,0,0,.39-1.06Z"/>
    <path class="cls-4" d="M187.62,46.49a2.6,2.6,0,0,1-1.37.34,2.25,2.25,0,0,1-1.72-.69,2.54,2.54,0,0,1-.66-1.81,2.78,2.78,0,0,1,.71-2,2.47,2.47,0,0,1,1.89-.75,2.67,2.67,0,0,1,1.16.24v.82a2,2,0,0,0-1.19-.39,1.64,1.64,0,0,0-1.26.55,2.09,2.09,0,0,0-.49,1.45,2,2,0,0,0,.46,1.38,1.59,1.59,0,0,0,1.24.51,1.93,1.93,0,0,0,1.23-.44Z"/>
    <path class="cls-4" d="M189.24,40.45a.53.53,0,0,1-.37-.15.5.5,0,0,1-.15-.37.48.48,0,0,1,.15-.37.53.53,0,0,1,.37-.15.5.5,0,0,1,.37.15.46.46,0,0,1,.16.37.53.53,0,0,1-.53.52Zm.39,6.27h-.8v-5h.8Z"/>
    <path class="cls-4" d="M193.34,46.83a2.31,2.31,0,0,1-1.77-.7,2.58,2.58,0,0,1-.66-1.86,2.68,2.68,0,0,1,.69-2,2.49,2.49,0,0,1,1.86-.71,2.25,2.25,0,0,1,1.75.69,2.76,2.76,0,0,1,.62,1.91,2.68,2.68,0,0,1-.67,1.91A2.38,2.38,0,0,1,193.34,46.83Zm.06-4.56a1.53,1.53,0,0,0-1.22.53,2.15,2.15,0,0,0-.45,1.45,2,2,0,0,0,.45,1.4,1.56,1.56,0,0,0,1.22.51,1.46,1.46,0,0,0,1.19-.5,2.2,2.2,0,0,0,.42-1.43,2.22,2.22,0,0,0-.42-1.45A1.43,1.43,0,0,0,193.4,42.27Zm1.17-3.1-1.28,1.6h-.62l1.09-1.6Z"/>
    <path class="cls-4" d="M201.26,46.72h-.8V43.86c0-1.06-.39-1.59-1.16-1.59a1.25,1.25,0,0,0-1,.45,1.67,1.67,0,0,0-.4,1.14v2.86h-.8v-5h.8v.83h0a1.8,1.8,0,0,1,1.64-.95,1.55,1.55,0,0,1,1.26.53,2.34,2.34,0,0,1,.43,1.53Z"/>
    <path class="cls-4" d="M170,58.72h-.8v-.85h0a2,2,0,0,1-3.22.29,2.75,2.75,0,0,1-.57-1.83,3,3,0,0,1,.63-2,2.06,2.06,0,0,1,1.66-.75,1.6,1.6,0,0,1,1.5.81h0v-3.1h.8Zm-.8-2.26v-.74a1.42,1.42,0,0,0-.4-1,1.32,1.32,0,0,0-1-.42,1.36,1.36,0,0,0-1.15.54,2.29,2.29,0,0,0-.42,1.48,2.11,2.11,0,0,0,.4,1.37,1.33,1.33,0,0,0,1.08.5,1.39,1.39,0,0,0,1.09-.48A1.85,1.85,0,0,0,169.23,56.46Z"/>
    <path class="cls-4" d="M175.67,56.42h-3.53a2,2,0,0,0,.45,1.29,1.56,1.56,0,0,0,1.18.45,2.49,2.49,0,0,0,1.56-.56v.75a2.9,2.9,0,0,1-1.75.48,2.09,2.09,0,0,1-1.66-.68,3.19,3.19,0,0,1,.05-3.82,2.14,2.14,0,0,1,1.65-.73,1.9,1.9,0,0,1,1.52.63,2.71,2.71,0,0,1,.53,1.77Zm-.82-.68a1.62,1.62,0,0,0-.33-1.08,1.14,1.14,0,0,0-.92-.39,1.32,1.32,0,0,0-1,.41,1.84,1.84,0,0,0-.49,1.06Z"/>
    <path class="cls-4" d="M185.15,58.72h-.91l-.74-2h-3l-.7,2h-.91l2.69-7h.85ZM183.23,56l-1.1-3a3,3,0,0,1-.1-.47h0a2.42,2.42,0,0,1-.12.47l-1.08,3Z"/>
    <path class="cls-4" d="M187,56.07v2.65h-.82v-7h1.93a2.59,2.59,0,0,1,1.74.55,2,2,0,0,1,.61,1.54,2.09,2.09,0,0,1-.68,1.63,2.61,2.61,0,0,1-1.86.64Zm0-3.61v2.87h.86a1.92,1.92,0,0,0,1.3-.39,1.38,1.38,0,0,0,.44-1.1c0-.92-.54-1.38-1.64-1.38Z"/>
    <path class="cls-4" d="M192.6,58.72h-.82v-7h.82Z"/>
  </g>
  <g id="shape1214-37">
    <rect id="rect104" class="cls-2" x="73.89" y="-3.58" width="90.4" height="20"/>
    <g id="text106" class="cls-3">
      <path class="cls-7" d="M89.6,3.11H86.86V5.54h2.53v.73H86.86v3.1H86v-7H89.6Z"/>
      <path class="cls-7" d="M91.62,9.37h-.8V2h.8Z"/>
      <path class="cls-7" d="M97.28,9.37h-.8V8.58h0a1.64,1.64,0,0,1-1.54.91c-1.19,0-1.79-.71-1.79-2.13v-3h.8V7.24c0,1,.4,1.58,1.21,1.58a1.24,1.24,0,0,0,1-.43,1.68,1.68,0,0,0,.38-1.13V4.37h.8Z"/>
      <path class="cls-7" d="M99.7,9.16a3.14,3.14,0,0,1-.5,1.9,1.65,1.65,0,0,1-1.42.67,1.43,1.43,0,0,1-.66-.16v-.75a1.29,1.29,0,0,0,.68.22c.73,0,1.1-.58,1.1-1.74V4.37h.8ZM99.31,3.1A.49.49,0,0,1,98.94,3a.5.5,0,0,1-.15-.37.52.52,0,0,1,.15-.38.5.5,0,0,1,.37-.15.51.51,0,0,1,.37.15.52.52,0,0,1,.15.38.49.49,0,0,1-.15.36A.51.51,0,0,1,99.31,3.1Z"/>
      <path class="cls-7" d="M103.41,9.49a2.31,2.31,0,0,1-1.77-.7A2.61,2.61,0,0,1,101,6.93a2.68,2.68,0,0,1,.69-2,2.45,2.45,0,0,1,1.86-.71,2.24,2.24,0,0,1,1.74.69,2.69,2.69,0,0,1,.63,1.9,2.7,2.7,0,0,1-.68,1.92A2.36,2.36,0,0,1,103.41,9.49Zm.06-4.56a1.52,1.52,0,0,0-1.22.53,2.14,2.14,0,0,0-.45,1.44,2.08,2.08,0,0,0,.45,1.41,1.55,1.55,0,0,0,1.22.51,1.45,1.45,0,0,0,1.19-.51,2.16,2.16,0,0,0,.42-1.43,2.21,2.21,0,0,0-.42-1.44A1.45,1.45,0,0,0,103.47,4.93Z"/>
      <path class="cls-7" d="M114.19,9.37h-.81V8.52h0a2,2,0,0,1-3.23.3A2.74,2.74,0,0,1,109.58,7a3,3,0,0,1,.62-2,2.09,2.09,0,0,1,1.67-.74,1.62,1.62,0,0,1,1.5.81h0V2h.81Zm-.81-2.26V6.38a1.42,1.42,0,0,0-.4-1,1.32,1.32,0,0,0-1-.42,1.37,1.37,0,0,0-1.15.54A2.35,2.35,0,0,0,110.4,7a2.13,2.13,0,0,0,.4,1.37,1.33,1.33,0,0,0,1.08.5A1.35,1.35,0,0,0,113,8.33,1.78,1.78,0,0,0,113.38,7.11Z"/>
      <path class="cls-7" d="M119.83,7.07h-3.54a1.93,1.93,0,0,0,.45,1.29,1.54,1.54,0,0,0,1.19.46,2.46,2.46,0,0,0,1.55-.56V9a2.89,2.89,0,0,1-1.74.48,2.09,2.09,0,0,1-1.67-.68,2.8,2.8,0,0,1-.61-1.92,2.75,2.75,0,0,1,.67-1.9,2.12,2.12,0,0,1,1.64-.73,1.9,1.9,0,0,1,1.52.63,2.63,2.63,0,0,1,.54,1.76ZM119,6.4a1.59,1.59,0,0,0-.33-1.08,1.13,1.13,0,0,0-.92-.39,1.32,1.32,0,0,0-1,.41,1.91,1.91,0,0,0-.49,1.06Z"/>
      <path class="cls-7" d="M127.18,9.14a2.51,2.51,0,0,1-1.36.35,2.27,2.27,0,0,1-1.73-.69A2.54,2.54,0,0,1,123.43,7a2.78,2.78,0,0,1,.71-2A2.47,2.47,0,0,1,126,4.26a2.64,2.64,0,0,1,1.16.24v.82A2,2,0,0,0,126,4.93a1.61,1.61,0,0,0-1.26.55,2.13,2.13,0,0,0-.49,1.44,2,2,0,0,0,.46,1.39,1.61,1.61,0,0,0,1.24.51,2,2,0,0,0,1.23-.44Z"/>
      <path class="cls-7" d="M130.48,9.49a2.34,2.34,0,0,1-1.77-.7,2.61,2.61,0,0,1-.66-1.86,2.68,2.68,0,0,1,.69-2,2.45,2.45,0,0,1,1.86-.71,2.25,2.25,0,0,1,1.75.69,2.69,2.69,0,0,1,.62,1.9,2.69,2.69,0,0,1-.67,1.92A2.38,2.38,0,0,1,130.48,9.49Zm.06-4.56a1.53,1.53,0,0,0-1.22.53,2.14,2.14,0,0,0-.45,1.44,2,2,0,0,0,.46,1.41,1.54,1.54,0,0,0,1.21.51,1.47,1.47,0,0,0,1.2-.51,2.21,2.21,0,0,0,.41-1.43,2.26,2.26,0,0,0-.41-1.44A1.47,1.47,0,0,0,130.54,4.93Zm1.17-3.1-1.27,1.6h-.62l1.08-1.6Z"/>
      <path class="cls-7" d="M138.52,9.37h-.8V8.52h0a2,2,0,0,1-3.22.3A2.75,2.75,0,0,1,133.91,7a3,3,0,0,1,.63-2,2.07,2.07,0,0,1,1.66-.74,1.6,1.6,0,0,1,1.5.81h0V2h.8Zm-.8-2.26V6.38a1.42,1.42,0,0,0-.4-1,1.36,1.36,0,0,0-1-.42,1.39,1.39,0,0,0-1.15.54A2.35,2.35,0,0,0,134.73,7a2.19,2.19,0,0,0,.4,1.37,1.44,1.44,0,0,0,2.17,0A1.79,1.79,0,0,0,137.72,7.11Z"/>
      <path class="cls-7" d="M140.55,3.1a.48.48,0,0,1-.36-.14.46.46,0,0,1-.15-.37.48.48,0,0,1,.15-.38.49.49,0,0,1,.36-.15.54.54,0,0,1,.38.15.52.52,0,0,1,.15.38.49.49,0,0,1-.15.36A.54.54,0,0,1,140.55,3.1Zm.39,6.27h-.8v-5h.8Z"/>
      <path class="cls-7" d="M146.83,9c0,1.84-.88,2.76-2.63,2.76a3.66,3.66,0,0,1-1.63-.35v-.8a3.36,3.36,0,0,0,1.62.46c1.23,0,1.84-.65,1.84-2V8.53h0a2,2,0,0,1-3.22.3A2.69,2.69,0,0,1,142.22,7a3.17,3.17,0,0,1,.61-2,2.06,2.06,0,0,1,1.68-.75,1.62,1.62,0,0,1,1.5.81h0v-.7h.8ZM146,7.11V6.38a1.41,1.41,0,0,0-.4-1,1.3,1.3,0,0,0-1-.43,1.4,1.4,0,0,0-1.17.54A2.4,2.4,0,0,0,143,7a2.08,2.08,0,0,0,.41,1.34,1.29,1.29,0,0,0,1.06.5,1.4,1.4,0,0,0,1.1-.48A1.8,1.8,0,0,0,146,7.11Z"/>
      <path class="cls-7" d="M150.54,9.49a2.31,2.31,0,0,1-1.77-.7,2.61,2.61,0,0,1-.66-1.86,2.68,2.68,0,0,1,.69-2,2.45,2.45,0,0,1,1.86-.71,2.25,2.25,0,0,1,1.75.69,2.73,2.73,0,0,1,.62,1.9,2.69,2.69,0,0,1-.67,1.92A2.38,2.38,0,0,1,150.54,9.49Zm.06-4.56a1.53,1.53,0,0,0-1.22.53,2.14,2.14,0,0,0-.45,1.44,2,2,0,0,0,.46,1.41,1.53,1.53,0,0,0,1.21.51,1.43,1.43,0,0,0,1.19-.51,2.16,2.16,0,0,0,.42-1.43,2.21,2.21,0,0,0-.42-1.44A1.43,1.43,0,0,0,150.6,4.93Z"/>
      <path class="cls-7" d="M93.75,20.37H93v-.85h0a2,2,0,0,1-3.22.3A2.75,2.75,0,0,1,89.14,18a3,3,0,0,1,.63-2,2.08,2.08,0,0,1,1.66-.74,1.6,1.6,0,0,1,1.5.81h0V13h.8ZM93,18.11v-.73a1.42,1.42,0,0,0-.4-1,1.32,1.32,0,0,0-1-.42,1.39,1.39,0,0,0-1.16.54A2.35,2.35,0,0,0,90,18a2.13,2.13,0,0,0,.41,1.37,1.33,1.33,0,0,0,1.08.5,1.37,1.37,0,0,0,1.09-.49A1.84,1.84,0,0,0,93,18.11Z"/>
      <path class="cls-7" d="M99.39,18.07H95.86a1.93,1.93,0,0,0,.45,1.29,1.53,1.53,0,0,0,1.18.46,2.49,2.49,0,0,0,1.56-.56V20a2.9,2.9,0,0,1-1.75.48,2.09,2.09,0,0,1-1.66-.68A2.75,2.75,0,0,1,95,17.89a2.75,2.75,0,0,1,.66-1.9,2.14,2.14,0,0,1,1.65-.73,1.9,1.9,0,0,1,1.52.63,2.68,2.68,0,0,1,.53,1.76Zm-.82-.67a1.59,1.59,0,0,0-.33-1.08,1.14,1.14,0,0,0-.92-.39,1.3,1.3,0,0,0-1,.41,1.84,1.84,0,0,0-.49,1.06Z"/>
      <path class="cls-7" d="M107.61,20.37h-.8v-.85h0a2,2,0,0,1-3.22.3A2.75,2.75,0,0,1,103,18a3,3,0,0,1,.63-2,2.07,2.07,0,0,1,1.66-.74,1.6,1.6,0,0,1,1.5.81h0V13h.8Zm-.8-2.26v-.73a1.42,1.42,0,0,0-.4-1,1.36,1.36,0,0,0-1-.42,1.39,1.39,0,0,0-1.15.54,2.35,2.35,0,0,0-.42,1.48,2.19,2.19,0,0,0,.4,1.37,1.44,1.44,0,0,0,2.17,0A1.79,1.79,0,0,0,106.81,18.11Z"/>
      <path class="cls-7" d="M109.64,14.1a.48.48,0,0,1-.36-.14.47.47,0,0,1-.16-.37.53.53,0,0,1,.52-.53.54.54,0,0,1,.38.15.52.52,0,0,1,.15.38A.49.49,0,0,1,110,14,.54.54,0,0,1,109.64,14.1Zm.39,6.27h-.8v-5h.8Z"/>
      <path class="cls-7" d="M111.35,20.19v-.86a2.34,2.34,0,0,0,1.44.49c.7,0,1.06-.24,1.06-.71a.64.64,0,0,0-.09-.34,1,1,0,0,0-.25-.24,1.52,1.52,0,0,0-.36-.19l-.45-.18c-.22-.09-.41-.18-.58-.27a1.74,1.74,0,0,1-.42-.3,1,1,0,0,1-.25-.38,1.36,1.36,0,0,1-.09-.51,1.17,1.17,0,0,1,.16-.62,1.42,1.42,0,0,1,.43-.45,1.79,1.79,0,0,1,.61-.28,2.82,2.82,0,0,1,.71-.09,2.91,2.91,0,0,1,1.17.22v.81a2.27,2.27,0,0,0-1.27-.36,1.7,1.7,0,0,0-.41.05,1,1,0,0,0-.31.15.7.7,0,0,0-.2.22.53.53,0,0,0-.07.28.67.67,0,0,0,.07.33.79.79,0,0,0,.21.24,1.69,1.69,0,0,0,.33.18l.45.18c.22.09.42.17.59.26a1.7,1.7,0,0,1,.45.31,1.33,1.33,0,0,1,.29.38,1.39,1.39,0,0,1,.1.53,1.22,1.22,0,0,1-.17.64,1.45,1.45,0,0,1-.43.46,2,2,0,0,1-.63.26,3.08,3.08,0,0,1-.75.09A2.82,2.82,0,0,1,111.35,20.19Z"/>
      <path class="cls-7" d="M116.72,19.65h0v3h-.8v-7.3h.8v.88h0a1.89,1.89,0,0,1,1.73-1,1.81,1.81,0,0,1,1.5.67,2.74,2.74,0,0,1,.55,1.8,3.17,3.17,0,0,1-.61,2,2,2,0,0,1-1.67.75A1.67,1.67,0,0,1,116.72,19.65Zm0-2v.69a1.49,1.49,0,0,0,.4,1.06,1.37,1.37,0,0,0,1,.43,1.33,1.33,0,0,0,1.14-.56,2.53,2.53,0,0,0,.42-1.55,2,2,0,0,0-.39-1.31,1.3,1.3,0,0,0-1-.47,1.42,1.42,0,0,0-1.13.49A1.79,1.79,0,0,0,116.7,17.64Z"/>
      <path class="cls-7" d="M123.87,20.49a2.31,2.31,0,0,1-1.77-.7,2.57,2.57,0,0,1-.67-1.86,2.68,2.68,0,0,1,.69-2,2.45,2.45,0,0,1,1.86-.71,2.25,2.25,0,0,1,1.75.69,2.69,2.69,0,0,1,.63,1.9,2.7,2.7,0,0,1-.68,1.92A2.37,2.37,0,0,1,123.87,20.49Zm0-4.56a1.53,1.53,0,0,0-1.22.53,2.14,2.14,0,0,0-.45,1.44,2.08,2.08,0,0,0,.46,1.41,1.54,1.54,0,0,0,1.21.51,1.47,1.47,0,0,0,1.2-.51,2.16,2.16,0,0,0,.42-1.43,2.21,2.21,0,0,0-.42-1.44A1.47,1.47,0,0,0,123.92,15.93Z"/>
      <path class="cls-7" d="M127.33,20.19v-.86a2.34,2.34,0,0,0,1.44.49c.71,0,1.06-.24,1.06-.71a.64.64,0,0,0-.09-.34.82.82,0,0,0-.25-.24,1.52,1.52,0,0,0-.36-.19l-.45-.18c-.22-.09-.41-.18-.58-.27a1.74,1.74,0,0,1-.42-.3,1,1,0,0,1-.25-.38,1.36,1.36,0,0,1-.09-.51,1.27,1.27,0,0,1,.16-.62,1.42,1.42,0,0,1,.43-.45,1.84,1.84,0,0,1,.62-.28,2.76,2.76,0,0,1,.71-.09,2.86,2.86,0,0,1,1.16.22v.81a2.27,2.27,0,0,0-1.27-.36,1.7,1.7,0,0,0-.41.05,1,1,0,0,0-.31.15.7.7,0,0,0-.2.22.64.64,0,0,0-.07.28.81.81,0,0,0,.07.33.79.79,0,0,0,.21.24,1.69,1.69,0,0,0,.33.18l.45.18c.22.09.42.17.59.26a1.7,1.7,0,0,1,.45.31,1.17,1.17,0,0,1,.29.38,1.39,1.39,0,0,1,.1.53,1.22,1.22,0,0,1-.17.64,1.35,1.35,0,0,1-.43.46,1.78,1.78,0,0,1-.63.26,3.08,3.08,0,0,1-.75.09A2.85,2.85,0,0,1,127.33,20.19Z"/>
      <path class="cls-7" d="M132.29,14.1a.5.5,0,0,1-.37-.14.5.5,0,0,1-.15-.37.52.52,0,0,1,.15-.38.53.53,0,0,1,.74,0,.53.53,0,0,1,.16.38.5.5,0,0,1-.16.36A.51.51,0,0,1,132.29,14.1Zm.39,6.27h-.8v-5h.8Z"/>
      <path class="cls-7" d="M136.62,20.33a1.61,1.61,0,0,1-.75.15c-.87,0-1.31-.49-1.31-1.46v-3h-.86v-.69h.86V14.15l.8-.26v1.48h1.26v.69h-1.26v2.82a1.17,1.17,0,0,0,.17.71.66.66,0,0,0,.57.22.85.85,0,0,0,.52-.17Z"/>
      <path class="cls-7" d="M138.1,14.1a.5.5,0,0,1-.37-.14.5.5,0,0,1-.15-.37.52.52,0,0,1,.15-.38.51.51,0,0,1,.37-.15.5.5,0,0,1,.37.15.49.49,0,0,1,.16.38.46.46,0,0,1-.16.36A.5.5,0,0,1,138.1,14.1Zm.39,6.27h-.8v-5h.8Z"/>
      <path class="cls-7" d="M144,15.37l-2,5h-.79l-1.89-5h.88L141.52,19a3.2,3.2,0,0,1,.17.7h0a3.78,3.78,0,0,1,.16-.68l1.33-3.66Z"/>
      <path class="cls-7" d="M147,20.49a2.31,2.31,0,0,1-1.77-.7,2.61,2.61,0,0,1-.66-1.86,2.68,2.68,0,0,1,.69-2,2.45,2.45,0,0,1,1.86-.71,2.24,2.24,0,0,1,1.74.69,2.69,2.69,0,0,1,.63,1.9,2.7,2.7,0,0,1-.68,1.92A2.36,2.36,0,0,1,147,20.49Zm.06-4.56a1.53,1.53,0,0,0-1.22.53,2.14,2.14,0,0,0-.45,1.44,2.08,2.08,0,0,0,.45,1.41,1.56,1.56,0,0,0,1.22.51,1.45,1.45,0,0,0,1.19-.51,2.16,2.16,0,0,0,.42-1.43,2.21,2.21,0,0,0-.42-1.44A1.45,1.45,0,0,0,147.05,15.93Z"/>
    </g>
  </g>
  <g id="shape1100-52">
    <g id="use1353">
      <g id="lend5">
        <path id="path1350" class="cls-8" d="M159.36,20.2l8,4-8,4a9,9,0,0,0,0-8"/>
      </g>
    </g>
  </g>
  <line class="cls-9" x1="162.38" y1="24.39" x2="76.25" y2="24.39"/>
</svg>
