<svg xmlns="http://www.w3.org/2000/svg" viewBox="0 0 204.71 66.15"><defs><style>.cls-1{fill:#007efd;}.cls-2,.cls-3{fill:#008bfd;}.cls-3{stroke:gray;stroke-linecap:round;stroke-linejoin:round;stroke-width:0.75px;}.cls-4{fill:#fff;}.cls-5{fill:#505050;}.cls-6{fill:#00b0f0;}</style></defs><title>OJ104546516</title><g id="shapes"><g id="group1195-2"><g id="shape1200-7"><path class="cls-1" d="M69.66,9.34H63.58c-.23,0-.38.15-.38.46V12a.35.35,0,0,0,.38.37H67v3.39c0,.23.15.38.45.38h2.18a.35.35,0,0,0,.37-.38v-6A.35.35,0,0,0,69.66,9.34Zm-17.19,21H49V27c0-.22-.15-.37-.45-.37H46.4A.35.35,0,0,0,46,27v6a.36.36,0,0,0,.38.38h6.07c.23,0,.38-.15.38-.45V30.72A.36.36,0,0,0,52.47,30.34Zm13.58-3.69a.9.9,0,0,0-.45.08l-2.32-4.07a2.77,2.77,0,0,0-1.88-4.81,3,3,0,0,0-1.12.22L57.8,14.61a2,2,0,0,0,.53-1.5A2.33,2.33,0,1,0,56,15.44a2.38,2.38,0,0,0,.75-.15l2.48,3.54a2.82,2.82,0,0,0-.68,1.43l-7.2.6a1.78,1.78,0,0,0-1.65-1,1.88,1.88,0,0,0,0,3.76,1.92,1.92,0,0,0,1.87-1.58l7.06-.6a3.74,3.74,0,0,0,.67,1.2L57.5,25.6h-.22a1.88,1.88,0,1,0,1.87,1.88,2.13,2.13,0,0,0-.52-1.35l1.72-2.86a4,4,0,0,0,1,.15,3.38,3.38,0,0,0,.82-.15l2.33,4.06a2.34,2.34,0,0,0-.68,1.58,2.18,2.18,0,1,0,2.25-2.26Z"/></g></g><g id="group1201-12"><g id="group1202-13"><g id="group1203-14"><g id="group1204-15"><g id="shape1205-16"><path class="cls-2" d="M7.85,13.61a4.49,4.49,0,0,0-3,5.66c.66,2.56,3,4.22,5.27,3.67a4.5,4.5,0,0,0,3-5.67C12.57,14.61,10.16,12.94,7.85,13.61Z"/></g></g><g id="group1206-18"><g id="shape1207-19"><path class="cls-2" d="M12.79,23.63c-.44,0-.88.78-1.54,1.11s-1.32.89-3.18,0S6,23.08,4.44,23.08.38,25.85.38,30H16a12.14,12.14,0,0,0-1.1-4.22C13.77,23.63,13.23,23.63,12.79,23.63Z"/></g></g></g></g><g id="group1208-21"><g id="shape1209-22"><path class="cls-3" d="M14.19,18.69H10.07a.71.71,0,0,0-.65.66V22.2a.73.73,0,0,0,.76.66h.76V28a1,1,0,0,0,1,1.1,1,1,0,0,0,1-1h.21v-.65c0-.22.33-.33.33-.33V26.8c-.33-.11-.54-.33-.54-.44V26l.21-.22a3.55,3.55,0,0,0,.33-.54,2.4,2.4,0,0,1-.33-.55c-.1-.11-.1-.33-.21-.44v-.22a2.51,2.51,0,0,1,.76-1.1h.54a.7.7,0,0,0,.65-.65v-3A.63.63,0,0,0,14.19,18.69ZM11.8,28.22c0,.22,0,.33-.21.33s-.22-.22-.22-.33V23.4c0-.22.11-.33.22-.33s.21.22.21.33Zm.33-7.78a.69.69,0,0,1-.65-.65.7.7,0,0,1,.65-.66.71.71,0,0,1,.65.66A.62.62,0,0,1,12.13,20.44Z"/></g><g id="shape1210-24"><path class="cls-4" d="M11.57,28.53a.24.24,0,0,1-.22-.22v-5a.22.22,0,1,1,.44,0v5.11C11.79,28.53,11.68,28.53,11.57,28.53Z"/></g><g id="shape1211-26"><ellipse class="cls-4" cx="12.14" cy="19.77" rx="0.66" ry="0.67"/></g></g></g><path class="cls-2" d="M191.76,8.21h-20.5a1.09,1.09,0,0,0-1.09,1.1V26.05a1.1,1.1,0,0,0,1.09,1.11h5.28a3.29,3.29,0,0,0,3.21,2.27,3.38,3.38,0,0,0,0-6.75A3.29,3.29,0,0,0,176.54,25h-4.19V13h18.31V25h-3.45a7.61,7.61,0,0,0-7.46-6.56,8.25,8.25,0,0,0-3.64.92l1,2a5.27,5.27,0,0,1,2.55-.67,5.46,5.46,0,0,1,0,10.91,5.27,5.27,0,0,1-2.55-.67l-1,2a7.51,7.51,0,0,0,3.64.92,7.61,7.61,0,0,0,7.46-6.56h4.55a1.1,1.1,0,0,0,1.09-1.11V9.31A1.14,1.14,0,0,0,191.76,8.21Z"/><g id="shape1213-31"><g id="lend5"><path class="cls-5" d="M161.69,17l8.05,4-8,4a9,9,0,0,0,0-8"/></g></g></g><g id="text"><path class="cls-6" d="M75.84,9.08H73.93v1.7H75.7v.52H73.93v2.17h-.57V8.56h2.48Z"/><path class="cls-6" d="M77.05,13.47h-.56V8.28h.56Z"/><path class="cls-6" d="M80.8,13.47h-.56v-.56h0a1.14,1.14,0,0,1-1.08.64c-.83,0-1.25-.5-1.25-1.49V10h.56v2q0,1.11.84,1.11a.84.84,0,0,0,.68-.31,1.13,1.13,0,0,0,.26-.79V10h.56Z"/><path class="cls-6" d="M82.29,13.32a2.22,2.22,0,0,1-.35,1.33,1.15,1.15,0,0,1-1,.46,1,1,0,0,1-.47-.11v-.52a1,1,0,0,0,.48.15c.51,0,.77-.4.77-1.22V10h.56ZM82,9.08A.34.34,0,0,1,81.76,9a.33.33,0,0,1-.11-.25.37.37,0,0,1,.11-.27.33.33,0,0,1,.25-.1.34.34,0,0,1,.26.1.33.33,0,0,1,.11.27.31.31,0,0,1-.11.25A.35.35,0,0,1,82,9.08Z"/><path class="cls-6" d="M84.67,13.55a1.66,1.66,0,0,1-1.24-.49,1.86,1.86,0,0,1-.46-1.3,1.9,1.9,0,0,1,.48-1.38,1.75,1.75,0,0,1,1.31-.5,1.54,1.54,0,0,1,1.22.49,1.9,1.9,0,0,1,.44,1.33A1.85,1.85,0,0,1,85.94,13,1.64,1.64,0,0,1,84.67,13.55Zm0-3.19a1.07,1.07,0,0,0-.85.36,1.53,1.53,0,0,0-.31,1,1.44,1.44,0,0,0,.31,1,1.1,1.1,0,0,0,.85.36,1,1,0,0,0,.84-.36,1.47,1.47,0,0,0,.29-1,1.54,1.54,0,0,0-.29-1A1,1,0,0,0,84.71,10.36Z"/><path class="cls-6" d="M91.8,13.47h-.56v-.6h0a1.4,1.4,0,0,1-2.25.21,1.91,1.91,0,0,1-.4-1.28A2.1,2.1,0,0,1,89,10.41a1.44,1.44,0,0,1,1.16-.53,1.12,1.12,0,0,1,1,.57h0V8.28h.56Zm-.56-1.59v-.51a1,1,0,0,0-.28-.72.94.94,0,0,0-.71-.29,1,1,0,0,0-.81.37,1.63,1.63,0,0,0-.29,1,1.5,1.5,0,0,0,.28,1,.92.92,0,0,0,.75.35,1,1,0,0,0,.76-.34A1.25,1.25,0,0,0,91.24,11.88Z"/><path class="cls-6" d="M95.53,11.86H93.06a1.31,1.31,0,0,0,.32.9,1.08,1.08,0,0,0,.83.32,1.71,1.71,0,0,0,1.08-.39v.52a2,2,0,0,1-1.22.34,1.47,1.47,0,0,1-1.16-.48,1.91,1.91,0,0,1-.43-1.34A1.91,1.91,0,0,1,93,10.4a1.48,1.48,0,0,1,1.15-.52,1.31,1.31,0,0,1,1.06.45,1.84,1.84,0,0,1,.37,1.23ZM95,11.38a1.14,1.14,0,0,0-.23-.75.81.81,0,0,0-.64-.27.91.91,0,0,0-.68.28,1.31,1.31,0,0,0-.34.74Z"/><path class="cls-6" d="M100.27,13.31a1.85,1.85,0,0,1-1,.24,1.58,1.58,0,0,1-1.21-.49,1.73,1.73,0,0,1-.46-1.26,1.94,1.94,0,0,1,.5-1.39,1.73,1.73,0,0,1,1.32-.53,1.86,1.86,0,0,1,.81.17v.58a1.44,1.44,0,0,0-.83-.27,1.11,1.11,0,0,0-.88.38,1.46,1.46,0,0,0-.35,1,1.37,1.37,0,0,0,.33,1,1.09,1.09,0,0,0,.86.36,1.45,1.45,0,0,0,.87-.31Z"/><path class="cls-6" d="M102.37,13.55a1.65,1.65,0,0,1-1.24-.49,1.82,1.82,0,0,1-.47-1.3,1.86,1.86,0,0,1,.49-1.38,1.72,1.72,0,0,1,1.3-.5,1.54,1.54,0,0,1,1.22.49,1.9,1.9,0,0,1,.44,1.33,1.89,1.89,0,0,1-.47,1.34A1.66,1.66,0,0,1,102.37,13.55Zm0-3.19a1.09,1.09,0,0,0-.86.36,1.53,1.53,0,0,0-.31,1,1.4,1.4,0,0,0,.32,1,1.07,1.07,0,0,0,.85.36,1,1,0,0,0,.83-.36,1.48,1.48,0,0,0,.3-1,1.54,1.54,0,0,0-.3-1A1,1,0,0,0,102.41,10.36Zm.82-2.18-.9,1.12h-.43l.76-1.12Z"/><path class="cls-6" d="M107.78,13.47h-.56v-.6h0a1.41,1.41,0,0,1-2.26.21,2,2,0,0,1-.39-1.28,2.1,2.1,0,0,1,.43-1.39,1.44,1.44,0,0,1,1.17-.53,1.12,1.12,0,0,1,1,.57h0V8.28h.56Zm-.56-1.59v-.51a1,1,0,0,0-.28-.72.92.92,0,0,0-.71-.29,1,1,0,0,0-.81.37,1.69,1.69,0,0,0-.29,1,1.5,1.5,0,0,0,.28,1,.94.94,0,0,0,.76.35,1,1,0,0,0,.76-.34A1.3,1.3,0,0,0,107.22,11.88Z"/><path class="cls-6" d="M109,9.08a.34.34,0,0,1-.25-.11.33.33,0,0,1-.11-.25.37.37,0,0,1,.11-.27.33.33,0,0,1,.25-.1.38.38,0,0,1,.27.1.36.36,0,0,1,.1.27.33.33,0,0,1-.1.25A.39.39,0,0,1,109,9.08Zm.28,4.39h-.56V10h.56Z"/><path class="cls-6" d="M113.18,13.19c0,1.28-.62,1.92-1.85,1.92a2.51,2.51,0,0,1-1.13-.24v-.56a2.29,2.29,0,0,0,1.13.32c.86,0,1.29-.45,1.29-1.37v-.38h0a1.42,1.42,0,0,1-2.26.2,1.89,1.89,0,0,1-.4-1.25,2.21,2.21,0,0,1,.43-1.42,1.45,1.45,0,0,1,1.18-.53,1.14,1.14,0,0,1,1,.57h0V10h.56Zm-.56-1.31v-.51a1,1,0,0,0-.28-.72.92.92,0,0,0-.71-.29,1,1,0,0,0-.81.37,1.76,1.76,0,0,0-.29,1.06,1.46,1.46,0,0,0,.28.94.93.93,0,0,0,.75.35,1,1,0,0,0,.76-.34A1.23,1.23,0,0,0,112.62,11.88Z"/><path class="cls-6" d="M115.57,13.55a1.65,1.65,0,0,1-1.24-.49,1.81,1.81,0,0,1-.46-1.3,1.9,1.9,0,0,1,.48-1.38,1.72,1.72,0,0,1,1.3-.5,1.54,1.54,0,0,1,1.22.49,1.9,1.9,0,0,1,.44,1.33,1.89,1.89,0,0,1-.47,1.34A1.66,1.66,0,0,1,115.57,13.55Zm0-3.19a1.09,1.09,0,0,0-.86.36,1.53,1.53,0,0,0-.31,1,1.4,1.4,0,0,0,.32,1,1.07,1.07,0,0,0,.85.36,1,1,0,0,0,.83-.36,1.48,1.48,0,0,0,.3-1,1.54,1.54,0,0,0-.3-1A1,1,0,0,0,115.61,10.36Z"/><path class="cls-6" d="M122.69,13.47h-.56v-.6h0a1.41,1.41,0,0,1-2.26.21,2,2,0,0,1-.4-1.28,2.1,2.1,0,0,1,.44-1.39,1.44,1.44,0,0,1,1.17-.53,1.12,1.12,0,0,1,1.05.57h0V8.28h.56Zm-.56-1.59v-.51a1,1,0,0,0-.28-.72.92.92,0,0,0-.71-.29,1,1,0,0,0-.81.37,1.69,1.69,0,0,0-.29,1,1.5,1.5,0,0,0,.28,1,.94.94,0,0,0,.76.35,1,1,0,0,0,.76-.34A1.3,1.3,0,0,0,122.13,11.88Z"/><path class="cls-6" d="M126.43,11.86H124a1.3,1.3,0,0,0,.31.9,1.1,1.1,0,0,0,.83.32,1.73,1.73,0,0,0,1.09-.39v.52a2,2,0,0,1-1.22.34,1.47,1.47,0,0,1-1.17-.48,2,2,0,0,1-.42-1.34,1.91,1.91,0,0,1,.46-1.33A1.5,1.5,0,0,1,125,9.88a1.3,1.3,0,0,1,1.06.45,1.85,1.85,0,0,1,.38,1.23Zm-.58-.48a1.14,1.14,0,0,0-.23-.75.8.8,0,0,0-.64-.27.88.88,0,0,0-.67.28,1.32,1.32,0,0,0-.35.74Z"/><path class="cls-6" d="M131.76,13.47h-.56v-.6h0a1.41,1.41,0,0,1-2.26.21,2,2,0,0,1-.4-1.28,2.1,2.1,0,0,1,.44-1.39,1.44,1.44,0,0,1,1.17-.53,1.12,1.12,0,0,1,1.05.57h0V8.28h.56Zm-.56-1.59v-.51a1,1,0,0,0-.28-.72.92.92,0,0,0-.71-.29,1,1,0,0,0-.81.37,1.69,1.69,0,0,0-.29,1,1.5,1.5,0,0,0,.28,1,.94.94,0,0,0,.76.35,1,1,0,0,0,.76-.34A1.3,1.3,0,0,0,131.2,11.88Z"/><path class="cls-6" d="M133,9.08a.34.34,0,0,1-.25-.11.33.33,0,0,1-.11-.25.37.37,0,0,1,.11-.27.33.33,0,0,1,.25-.1.34.34,0,0,1,.26.1.33.33,0,0,1,.11.27.31.31,0,0,1-.11.25A.35.35,0,0,1,133,9.08Zm.28,4.39h-.56V10h.56Z"/><path class="cls-6" d="M134,13.34v-.6a1.68,1.68,0,0,0,1,.34c.49,0,.74-.17.74-.5a.42.42,0,0,0-.07-.23.58.58,0,0,0-.17-.18,1.17,1.17,0,0,0-.25-.13l-.31-.13a3.31,3.31,0,0,1-.41-.18,1.44,1.44,0,0,1-.3-.21.87.87,0,0,1-.23-.62.8.8,0,0,1,.11-.44.91.91,0,0,1,.3-.32,1.4,1.4,0,0,1,.43-.19,2,2,0,0,1,.5-.07,2.09,2.09,0,0,1,.81.16v.57a1.57,1.57,0,0,0-.89-.25,1.2,1.2,0,0,0-.28,0,.9.9,0,0,0-.22.1.52.52,0,0,0-.14.16.46.46,0,0,0-.05.2.45.45,0,0,0,.19.39,1.36,1.36,0,0,0,.24.13l.31.13.42.18a1.41,1.41,0,0,1,.31.21.86.86,0,0,1,.2.27.87.87,0,0,1,.07.37.94.94,0,0,1-.11.45,1,1,0,0,1-.31.32,1.58,1.58,0,0,1-.44.19,2.24,2.24,0,0,1-.52.06A2,2,0,0,1,134,13.34Z"/><path class="cls-6" d="M137.5,13h0v2.12h-.56V10h.56v.61h0a1.34,1.34,0,0,1,1.21-.7,1.28,1.28,0,0,1,1.06.47,2,2,0,0,1,.38,1.26,2.14,2.14,0,0,1-.43,1.41,1.42,1.42,0,0,1-1.17.53A1.19,1.19,0,0,1,137.5,13Zm0-1.41V12a1,1,0,0,0,.28.73.92.92,0,0,0,.72.31,1,1,0,0,0,.8-.39,1.81,1.81,0,0,0,.29-1.09,1.39,1.39,0,0,0-.27-.91.91.91,0,0,0-.74-.33,1,1,0,0,0-.78.34A1.23,1.23,0,0,0,137.49,11.55Z"/><path class="cls-6" d="M142.3,13.55a1.65,1.65,0,0,1-1.24-.49,1.81,1.81,0,0,1-.46-1.3,1.9,1.9,0,0,1,.48-1.38,1.72,1.72,0,0,1,1.3-.5,1.54,1.54,0,0,1,1.22.49A1.86,1.86,0,0,1,144,11.7a1.89,1.89,0,0,1-.47,1.34A1.66,1.66,0,0,1,142.3,13.55Zm0-3.19a1.07,1.07,0,0,0-.85.36,1.54,1.54,0,0,0-.32,1,1.44,1.44,0,0,0,.32,1,1.07,1.07,0,0,0,.85.36,1,1,0,0,0,.84-.36,1.53,1.53,0,0,0,.29-1,1.6,1.6,0,0,0-.29-1A1,1,0,0,0,142.34,10.36Z"/><path class="cls-6" d="M144.52,13.34v-.6a1.68,1.68,0,0,0,1,.34c.5,0,.74-.17.74-.5a.41.41,0,0,0-.06-.23.58.58,0,0,0-.17-.18,1.46,1.46,0,0,0-.25-.13l-.32-.13-.41-.18a1.67,1.67,0,0,1-.29-.21.8.8,0,0,1-.18-.27,1,1,0,0,1-.06-.35.9.9,0,0,1,.11-.44,1,1,0,0,1,.31-.32,1.3,1.3,0,0,1,.43-.19,2,2,0,0,1,.49-.07,2.1,2.1,0,0,1,.82.16v.57a1.59,1.59,0,0,0-.89-.25,1.29,1.29,0,0,0-.29,0,1,1,0,0,0-.21.1.52.52,0,0,0-.14.16.35.35,0,0,0-.05.2.41.41,0,0,0,.05.23.52.52,0,0,0,.14.16,1.26,1.26,0,0,0,.23.13l.31.13.42.18a1.27,1.27,0,0,1,.32.21.8.8,0,0,1,.27.64.84.84,0,0,1-.12.45,1,1,0,0,1-.3.32,1.53,1.53,0,0,1-.45.19,2.18,2.18,0,0,1-.52.06A1.94,1.94,0,0,1,144.52,13.34Z"/><path class="cls-6" d="M147.77,9.08a.34.34,0,0,1-.25-.11.33.33,0,0,1-.11-.25.37.37,0,0,1,.11-.27.33.33,0,0,1,.25-.1.38.38,0,0,1,.27.1.36.36,0,0,1,.1.27A.33.33,0,0,1,148,9,.39.39,0,0,1,147.77,9.08Zm.28,4.39h-.56V10h.56Z"/><path class="cls-6" d="M150.6,13.43a1.16,1.16,0,0,1-.53.11c-.61,0-.92-.34-.92-1V10.44h-.6V10h.6V9.11l.56-.18v1h.89v.47h-.89v2a.82.82,0,0,0,.12.5.49.49,0,0,0,.4.15.61.61,0,0,0,.37-.12Z"/><path class="cls-6" d="M151.42,9.08a.34.34,0,0,1-.25-.11.3.3,0,0,1-.11-.25.36.36,0,0,1,.36-.37.35.35,0,0,1,.26.1.37.37,0,0,1,.11.27.34.34,0,0,1-.11.25A.36.36,0,0,1,151.42,9.08Zm.28,4.39h-.57V10h.57Z"/><path class="cls-6" d="M155.37,10,154,13.47h-.55L152.1,10h.62l.88,2.54a2.4,2.4,0,0,1,.13.49h0a2.12,2.12,0,0,1,.11-.48l.93-2.55Z"/><path class="cls-6" d="M157.23,13.55a1.65,1.65,0,0,1-1.24-.49,1.82,1.82,0,0,1-.47-1.3,1.86,1.86,0,0,1,.49-1.38,1.72,1.72,0,0,1,1.3-.5,1.54,1.54,0,0,1,1.22.49A1.9,1.9,0,0,1,159,11.7,1.89,1.89,0,0,1,158.5,13,1.66,1.66,0,0,1,157.23,13.55Zm0-3.19a1.09,1.09,0,0,0-.86.36,1.53,1.53,0,0,0-.31,1,1.4,1.4,0,0,0,.32,1,1.07,1.07,0,0,0,.85.36,1,1,0,0,0,.83-.36,1.48,1.48,0,0,0,.3-1,1.54,1.54,0,0,0-.3-1A1,1,0,0,0,157.27,10.36Z"/><path d="M41.28,44.6h-.63l-.52-1.37H38.05l-.49,1.37h-.64l1.88-4.9h.59Zm-1.34-1.89-.77-2.09a2,2,0,0,1-.08-.33h0a1.59,1.59,0,0,1-.08.33l-.76,2.09Z"/><path d="M42.5,44.09h0v2.12h-.56V41.1h.56v.62h0a1.32,1.32,0,0,1,1.21-.7,1.31,1.31,0,0,1,1.06.47,2,2,0,0,1,.38,1.26,2.19,2.19,0,0,1-.43,1.4,1.42,1.42,0,0,1-1.17.53A1.17,1.17,0,0,1,42.5,44.09Zm0-1.41v.49a1,1,0,0,0,.28.74,1,1,0,0,0,.72.3.93.93,0,0,0,.79-.39,1.73,1.73,0,0,0,.29-1.08,1.42,1.42,0,0,0-.27-.92.89.89,0,0,0-.73-.33,1,1,0,0,0-.79.34A1.29,1.29,0,0,0,42.49,42.68Z"/><path d="M46.6,44.6H46V39.42h.56Z"/><path d="M48,40.21a.33.33,0,0,1-.25-.1.35.35,0,0,1-.11-.26.36.36,0,0,1,.11-.26.34.34,0,0,1,.25-.11.39.39,0,0,1,.27.11.39.39,0,0,1,0,.52A.38.38,0,0,1,48,40.21Zm.28,4.39h-.56V41.1h.56Z"/><path d="M51.82,44.44a1.85,1.85,0,0,1-1,.24,1.6,1.6,0,0,1-1.21-.48,1.82,1.82,0,0,1-.46-1.27,2,2,0,0,1,.5-1.39A1.73,1.73,0,0,1,51,41a1.94,1.94,0,0,1,.82.17v.57a1.45,1.45,0,0,0-.84-.27,1.12,1.12,0,0,0-.88.39,1.65,1.65,0,0,0,0,2,1.14,1.14,0,0,0,.87.35,1.43,1.43,0,0,0,.86-.3Z"/><path d="M55.17,44.6h-.56v-.55h0a1.19,1.19,0,0,1-1.08.63,1.18,1.18,0,0,1-.82-.27,1,1,0,0,1-.29-.74c0-.65.38-1,1.15-1.14l1-.15c0-.59-.24-.89-.72-.89a1.71,1.71,0,0,0-1.14.43v-.57A2.15,2.15,0,0,1,53.94,41c.82,0,1.23.43,1.23,1.3Zm-.56-1.77-.84.12a1.32,1.32,0,0,0-.59.19.57.57,0,0,0-.2.49.54.54,0,0,0,.18.42.72.72,0,0,0,.49.16.91.91,0,0,0,.69-.29,1.05,1.05,0,0,0,.27-.74Z"/><path d="M58.61,44.44a1.81,1.81,0,0,1-1,.24,1.59,1.59,0,0,1-1.21-.48A1.77,1.77,0,0,1,56,42.93a2,2,0,0,1,.49-1.39A1.75,1.75,0,0,1,57.81,41a1.89,1.89,0,0,1,.81.17v.57a1.44,1.44,0,0,0-.83-.27,1.1,1.1,0,0,0-.88.39,1.43,1.43,0,0,0-.35,1,1.38,1.38,0,0,0,.33,1,1.11,1.11,0,0,0,.86.35,1.41,1.41,0,0,0,.86-.3Z"/><path d="M59.75,40.21a.35.35,0,0,1-.26-.1.34.34,0,0,1-.1-.26.35.35,0,0,1,.1-.26.37.37,0,1,1,.52.52A.35.35,0,0,1,59.75,40.21ZM60,44.6h-.56V41.1H60Z"/><path d="M62.62,44.68a1.61,1.61,0,0,1-1.24-.49,1.8,1.8,0,0,1-.46-1.3,1.9,1.9,0,0,1,.48-1.38A1.72,1.72,0,0,1,62.7,41a1.57,1.57,0,0,1,1.22.48,2.2,2.2,0,0,1,0,2.68A1.69,1.69,0,0,1,62.62,44.68Zm0-3.19a1,1,0,0,0-.85.37,1.49,1.49,0,0,0-.32,1,1.43,1.43,0,0,0,.32,1,1.18,1.18,0,0,0,1.69,0,1.89,1.89,0,0,0,0-2A1,1,0,0,0,62.66,41.49Zm.82-2.17-.9,1.12h-.43l.76-1.12Z"/><path d="M68.16,44.6H67.6v-2q0-1.11-.81-1.11a.91.91,0,0,0-.7.32,1.17,1.17,0,0,0-.27.79v2h-.56V41.1h.56v.58h0A1.27,1.27,0,0,1,67,41a1.07,1.07,0,0,1,.88.37,1.66,1.66,0,0,1,.3,1.07Z"/><path d="M70.92,44.47v-.6a1.66,1.66,0,0,0,1,.34c.5,0,.74-.16.74-.49a.48.48,0,0,0-.06-.24.69.69,0,0,0-.17-.17,1.26,1.26,0,0,0-.26-.14l-.31-.12a3.14,3.14,0,0,1-.41-.19,1.27,1.27,0,0,1-.29-.21.8.8,0,0,1-.18-.27.91.91,0,0,1-.06-.35.93.93,0,0,1,.11-.44,1,1,0,0,1,.31-.31,1.36,1.36,0,0,1,.42-.2,2.07,2.07,0,0,1,.5-.06,1.89,1.89,0,0,1,.81.16v.56a1.62,1.62,0,0,0-.88-.25.88.88,0,0,0-.29,0,.51.51,0,0,0-.21.1.4.4,0,0,0-.14.15.35.35,0,0,0,0,.2.41.41,0,0,0,0,.23.55.55,0,0,0,.14.17,1.57,1.57,0,0,0,.23.13l.31.12.42.18A2,2,0,0,1,73,43a1.05,1.05,0,0,1,.2.27,1,1,0,0,1,.07.36.85.85,0,0,1-.12.46,1.11,1.11,0,0,1-.3.31,1.3,1.3,0,0,1-.45.19,2.18,2.18,0,0,1-.52.06A2,2,0,0,1,70.92,44.47Z"/><path d="M74.39,40.21a.33.33,0,0,1-.25-.1.35.35,0,0,1-.11-.26.36.36,0,0,1,.11-.26.34.34,0,0,1,.25-.11.39.39,0,0,1,.27.11.39.39,0,0,1,0,.52A.38.38,0,0,1,74.39,40.21Zm.28,4.39h-.56V41.1h.56Z"/><path d="M78.71,44.6h-.56v-2c0-.74-.27-1.11-.82-1.11a.87.87,0,0,0-.69.32,1.12,1.12,0,0,0-.28.79v2H75.8V41.1h.56v.58h0A1.25,1.25,0,0,1,77.52,41a1.05,1.05,0,0,1,.88.37,1.61,1.61,0,0,1,.31,1.07Z"/><path d="M44.68,51.39H42.21a1.3,1.3,0,0,0,.31.9,1.08,1.08,0,0,0,.83.32,1.71,1.71,0,0,0,1.09-.39v.53a2.07,2.07,0,0,1-1.22.33,1.51,1.51,0,0,1-1.17-.47,2,2,0,0,1-.42-1.35,1.92,1.92,0,0,1,.46-1.33,1.49,1.49,0,0,1,1.15-.51,1.34,1.34,0,0,1,1.07.44,1.87,1.87,0,0,1,.37,1.24Zm-.57-.47a1.15,1.15,0,0,0-.24-.76.78.78,0,0,0-.64-.27.93.93,0,0,0-.67.28,1.25,1.25,0,0,0-.34.75Z"/><path d="M48.09,49.5l-1.18,1.77L48.07,53h-.66l-.68-1.13a2.76,2.76,0,0,1-.16-.27h0l-.16.27L45.7,53h-.65l1.19-1.71L45.1,49.5h.65l.68,1.2.15.27h0l.88-1.47Z"/><path d="M49.32,52.5h0v2.11h-.56V49.5h.56v.62h0a1.31,1.31,0,0,1,1.21-.7,1.28,1.28,0,0,1,1,.47A1.9,1.9,0,0,1,52,51.15a2.13,2.13,0,0,1-.43,1.4,1.38,1.38,0,0,1-1.16.53A1.16,1.16,0,0,1,49.32,52.5Zm0-1.42v.49a1.08,1.08,0,0,0,.28.74,1,1,0,0,0,.72.3.94.94,0,0,0,.8-.39,1.8,1.8,0,0,0,.29-1.08,1.42,1.42,0,0,0-.27-.92.9.9,0,0,0-.73-.33,1,1,0,0,0-.79.34A1.24,1.24,0,0,0,49.3,51.08Z"/><path d="M53.42,53h-.56V47.82h.56Z"/><path d="M56,53.08a1.61,1.61,0,0,1-1.24-.49,1.8,1.8,0,0,1-.47-1.3,1.88,1.88,0,0,1,.49-1.38,1.72,1.72,0,0,1,1.3-.49,1.57,1.57,0,0,1,1.22.48,1.93,1.93,0,0,1,.44,1.34,1.9,1.9,0,0,1-.47,1.34A1.65,1.65,0,0,1,56,53.08Zm0-3.19a1.06,1.06,0,0,0-.86.37,1.49,1.49,0,0,0-.31,1,1.38,1.38,0,0,0,.32,1,1.07,1.07,0,0,0,.85.36,1,1,0,0,0,.83-.35,1.89,1.89,0,0,0,0-2A1,1,0,0,0,56.06,49.89Z"/><path d="M60.48,50.07a.66.66,0,0,0-.42-.11.72.72,0,0,0-.6.33,1.53,1.53,0,0,0-.25.93V53h-.56V49.5h.56v.72h0a1.22,1.22,0,0,1,.36-.57.84.84,0,0,1,.55-.21,1,1,0,0,1,.34.05Z"/><path d="M63.59,53H63v-.55h0a1.29,1.29,0,0,1-1.9.36,1,1,0,0,1-.29-.74c0-.65.38-1,1.15-1.14L63,50.78c0-.59-.24-.89-.72-.89a1.71,1.71,0,0,0-1.14.43v-.57a2.15,2.15,0,0,1,1.19-.33c.82,0,1.23.43,1.23,1.3ZM63,51.23l-.84.12a1.32,1.32,0,0,0-.59.19.57.57,0,0,0-.2.49.54.54,0,0,0,.18.42.72.72,0,0,0,.49.16.91.91,0,0,0,.69-.29,1.05,1.05,0,0,0,.27-.74Z"/><path d="M67.64,53h-.56v-.59h0a1.29,1.29,0,0,1-1.2.67,1.31,1.31,0,0,1-1.06-.47,1.94,1.94,0,0,1-.39-1.28,2.1,2.1,0,0,1,.44-1.39A1.43,1.43,0,0,1,66,49.42a1.12,1.12,0,0,1,1,.57h0V47.82h.56Zm-.56-1.58V50.9a1,1,0,0,0-.28-.72,1,1,0,0,0-.72-.29,1,1,0,0,0-.8.38,1.61,1.61,0,0,0-.3,1,1.46,1.46,0,0,0,.29.95.92.92,0,0,0,.75.35.93.93,0,0,0,.76-.34A1.23,1.23,0,0,0,67.08,51.42Z"/><path d="M70.23,53.08A1.59,1.59,0,0,1,69,52.59a1.8,1.8,0,0,1-.47-1.3A1.92,1.92,0,0,1,69,49.91a1.76,1.76,0,0,1,1.31-.49,1.57,1.57,0,0,1,1.22.48A1.93,1.93,0,0,1,72,51.24a1.86,1.86,0,0,1-.48,1.34A1.62,1.62,0,0,1,70.23,53.08Zm0-3.19a1.06,1.06,0,0,0-.86.37,1.49,1.49,0,0,0-.31,1,1.42,1.42,0,0,0,.31,1,1.1,1.1,0,0,0,.86.36,1,1,0,0,0,.83-.35,1.89,1.89,0,0,0,0-2A1,1,0,0,0,70.28,49.89Z"/><path d="M74.7,50.07a.67.67,0,0,0-.43-.11.73.73,0,0,0-.6.33,1.6,1.6,0,0,0-.24.93V53h-.56V49.5h.56v.72h0a1.22,1.22,0,0,1,.36-.57.84.84,0,0,1,.55-.21,1,1,0,0,1,.34.05Z"/><path d="M170.79,44.17h-.63l-.52-1.38h-2.08l-.49,1.38h-.64l1.88-4.91h.6Zm-1.34-1.89-.77-2.09a2.22,2.22,0,0,1-.07-.33h0a3,3,0,0,1-.07.33l-.77,2.09Z"/><path d="M171.81,43.66h0v2.12h-.56V40.67h.56v.61h0a1.32,1.32,0,0,1,1.21-.7,1.28,1.28,0,0,1,1,.47,2,2,0,0,1,.38,1.26,2.14,2.14,0,0,1-.43,1.41,1.42,1.42,0,0,1-1.17.53A1.16,1.16,0,0,1,171.81,43.66Zm0-1.41v.49a1.05,1.05,0,0,0,.28.73.92.92,0,0,0,.72.31.94.94,0,0,0,.8-.39,1.81,1.81,0,0,0,.29-1.09,1.39,1.39,0,0,0-.27-.91.9.9,0,0,0-.73-.33,1,1,0,0,0-.79.34A1.23,1.23,0,0,0,171.79,42.25Z"/><path d="M175.7,44.17h-.56V39h.56Z"/><path d="M176.91,39.78a.4.4,0,0,1-.26-.1.35.35,0,0,1-.1-.26.36.36,0,0,1,.1-.27.39.39,0,0,1,.52,0,.37.37,0,0,1,.11.27.36.36,0,0,1-.11.25A.36.36,0,0,1,176.91,39.78Zm.27,4.39h-.56v-3.5h.56Z"/><path d="M180.49,44a1.81,1.81,0,0,1-1,.24,1.56,1.56,0,0,1-1.21-.49,1.75,1.75,0,0,1-.46-1.26,1.94,1.94,0,0,1,.49-1.39,1.74,1.74,0,0,1,1.33-.53,1.79,1.79,0,0,1,.81.18v.57a1.44,1.44,0,0,0-.83-.27,1.1,1.1,0,0,0-.88.38,1.46,1.46,0,0,0-.35,1,1.37,1.37,0,0,0,.33,1,1.09,1.09,0,0,0,.86.36,1.36,1.36,0,0,0,.86-.31Z"/><path d="M183.64,44.17h-.56v-.55h0a1.16,1.16,0,0,1-1.07.63,1.12,1.12,0,0,1-.82-.28.94.94,0,0,1-.3-.73c0-.66.39-1,1.16-1.15l1.05-.14c0-.6-.25-.89-.73-.89a1.71,1.71,0,0,0-1.14.43v-.58a2.17,2.17,0,0,1,1.19-.33c.82,0,1.24.44,1.24,1.31Zm-.56-1.77-.85.11a1.36,1.36,0,0,0-.59.2.55.55,0,0,0-.19.49.51.51,0,0,0,.18.41.69.69,0,0,0,.49.17.88.88,0,0,0,.68-.3,1,1,0,0,0,.28-.74Z"/><path d="M186.87,44a1.85,1.85,0,0,1-1,.24,1.58,1.58,0,0,1-1.21-.49,1.79,1.79,0,0,1-.46-1.26,1.94,1.94,0,0,1,.5-1.39,1.73,1.73,0,0,1,1.32-.53,1.8,1.8,0,0,1,.82.18v.57a1.45,1.45,0,0,0-.84-.27,1.11,1.11,0,0,0-.88.38,1.45,1.45,0,0,0-.34,1,1.37,1.37,0,0,0,.32,1,1.11,1.11,0,0,0,.87.36,1.38,1.38,0,0,0,.86-.31Z"/><path d="M187.79,39.78a.37.37,0,0,1-.25-.1.33.33,0,0,1-.11-.26.36.36,0,0,1,.36-.37.35.35,0,0,1,.26.1.33.33,0,0,1,.11.27.32.32,0,0,1-.11.25A.36.36,0,0,1,187.79,39.78Zm.28,4.39h-.57v-3.5h.57Z"/><path d="M190.45,44.25a1.66,1.66,0,0,1-1.24-.49,1.86,1.86,0,0,1-.46-1.3,1.9,1.9,0,0,1,.48-1.38,1.75,1.75,0,0,1,1.31-.5,1.55,1.55,0,0,1,1.22.49,1.9,1.9,0,0,1,.44,1.33,1.85,1.85,0,0,1-.48,1.34A1.64,1.64,0,0,1,190.45,44.25Zm0-3.19a1.07,1.07,0,0,0-.85.36,1.53,1.53,0,0,0-.31,1,1.44,1.44,0,0,0,.31,1,1.1,1.1,0,0,0,.85.36,1,1,0,0,0,.84-.36,1.53,1.53,0,0,0,.29-1,1.6,1.6,0,0,0-.29-1A1,1,0,0,0,190.49,41.06Zm.82-2.18L190.42,40H190l.76-1.12Z"/><path d="M195.79,44.17h-.56v-2c0-.74-.27-1.11-.82-1.11a.86.86,0,0,0-.69.31,1.15,1.15,0,0,0-.28.8v2h-.56v-3.5h.56v.58h0a1.24,1.24,0,0,1,1.14-.67,1.06,1.06,0,0,1,.88.38,1.59,1.59,0,0,1,.31,1.07Z"/><path d="M175.4,52.57h-.56V52h0a1.4,1.4,0,0,1-2.25.21,1.91,1.91,0,0,1-.4-1.28,2.1,2.1,0,0,1,.44-1.39,1.44,1.44,0,0,1,1.16-.53,1.1,1.1,0,0,1,1,.57h0V47.38h.56ZM174.84,51v-.51a1,1,0,0,0-.28-.72.94.94,0,0,0-.71-.29,1,1,0,0,0-.81.37,1.63,1.63,0,0,0-.29,1,1.5,1.5,0,0,0,.28,1,.94.94,0,0,0,.76.35,1,1,0,0,0,.76-.34A1.3,1.3,0,0,0,174.84,51Z"/><path d="M179.14,51h-2.47a1.26,1.26,0,0,0,.31.9,1.1,1.1,0,0,0,.83.32,1.71,1.71,0,0,0,1.08-.39v.52a2,2,0,0,1-1.22.34,1.47,1.47,0,0,1-1.16-.48,2.21,2.21,0,0,1,0-2.67A1.5,1.5,0,0,1,177.7,49a1.3,1.3,0,0,1,1.06.45,1.85,1.85,0,0,1,.38,1.23Zm-.58-.48a1.14,1.14,0,0,0-.23-.75.81.81,0,0,0-.64-.27.91.91,0,0,0-.68.28,1.31,1.31,0,0,0-.34.74Z"/><path d="M185.35,52.57h-.64l-.51-1.38h-2.08l-.49,1.38H181l1.88-4.91h.59ZM184,50.68l-.77-2.09a2,2,0,0,1-.08-.33h0a1.59,1.59,0,0,1-.08.33l-.76,2.09Z"/><path d="M186.44,50.71v1.86h-.58V47.66h1.35a1.77,1.77,0,0,1,1.22.39,1.38,1.38,0,0,1,.43,1.08,1.5,1.5,0,0,1-.48,1.14,1.81,1.81,0,0,1-1.3.44Zm0-2.53v2h.6a1.33,1.33,0,0,0,.9-.27,1,1,0,0,0,.32-.77c0-.64-.38-1-1.15-1Z"/><path d="M190.15,52.57h-.58V47.66h.58Z"/><rect class="cls-5" x="64.49" y="19.99" width="99.53" height="1.75" rx="0.76"/></g></svg>