<?xml version="1.0" encoding="utf-8"?>
<!-- Generator: Adobe Illustrator 23.0.3, SVG Export Plug-In . SVG Version: 6.00 Build 0)  -->
<svg version="1.1" xmlns="http://www.w3.org/2000/svg" xmlns:xlink="http://www.w3.org/1999/xlink" x="0px" y="0px"
	 viewBox="0 0 247.3 64.5" style="enable-background:new 0 0 247.3 64.5;" xml:space="preserve">
<style type="text/css">
	.st0{fill-rule:evenodd;clip-rule:evenodd;fill:#008BFD;}
	.st1{display:none;}
	.st2{display:inline;enable-background:new    ;}
	.st3{display:none;enable-background:new    ;}
	.st4{display:inline;}
	
		.st5{fill-rule:evenodd;clip-rule:evenodd;fill:#008BFD;stroke:#808080;stroke-width:0.75;stroke-linecap:round;stroke-linejoin:round;stroke-miterlimit:3;}
	.st6{fill-rule:evenodd;clip-rule:evenodd;fill:#FFFFFF;}
	.st7{fill-rule:evenodd;clip-rule:evenodd;fill:#505050;}
	.st8{fill:#505050;}
	.st9{enable-background:new    ;}
	.st10{fill:none;}
	.st11{fill:#00B0F0;}
</style>
<g id="shapes" xmlns:ev="http://www.w3.org/2001/xml-events" xmlns:v="http://schemas.microsoft.com/visio/2003/SVGExtensions/">
	<g>
		<g id="group1550-2_1_">
			<g id="shape1551-3_1_">
				<path class="st0" d="M66,40.1c-2.2,1.7-4.8,2.5-7.3,2.5c-3.6,0-7.2-1.7-9.5-4.8c-4-5.4-3-13.1,2.2-17.3c2.2-1.7,4.8-2.5,7.3-2.5
					c3.6,0,7.2,1.7,9.5,4.8C72.3,28.3,71.3,36,66,40.1z M69.7,21.7c-2.7-3.6-6.8-5.5-11-5.5c-2.9,0-5.9,1-8.4,2.9
					c-6,4.8-7.2,13.7-2.5,19.9c2.7,3.6,6.8,5.5,11,5.5c2.9,0,5.9-0.9,8.4-2.9C73.2,36.8,74.3,27.9,69.7,21.7z"/>
			</g>
		</g>
		<g id="group1552-5_1_" transform="translate(4.95554,-4.39536)">
			<g id="group1553-6_1_" transform="translate(0.341805,-0.176482)">
				<g id="group1554-7_1_" transform="translate(0.437248,3.2685E-13)">
					<g id="shape1555-8_1_">
						<path class="st0" d="M46.8,37.5c-0.8-0.8-1.4-1.6-2-2.3c-1.2,2.4-1.6,4.9-1.7,6.9c0.1,0.2,0.1,0.3,0.2,0.4
							c0.6,0.8,1.3,1.5,2,2C45.3,42.9,45.4,40.2,46.8,37.5z"/>
					</g>
				</g>
				<g id="shape1556-10_1_" transform="translate(3.29213,-8.97695)">
					<path class="st0" d="M48.1,37c-1.1,0.8-2.2,1.8-3.3,3c-0.6,0.7-1.2,1.4-1.6,2.1c0.5,0.8,1.1,1.6,1.9,2.5
						c0.6-0.9,1.3-1.7,2.2-2.6c1.1-1.1,2.2-1.9,3.1-2.6C49.6,38.6,48.8,37.8,48.1,37z"/>
				</g>
				<g id="group1557-12_1_" transform="translate(9.93516,-15.1958)">
					<g id="shape1558-13_1_">
						<path class="st0" d="M52.9,42.4c-0.5-0.7-1.1-1.3-1.7-1.8c-1.9-0.3-4.7-0.3-8,1.5c0.8,0.8,1.5,1.6,2.2,2.4
							C49.8,42.1,52.9,42.4,52.9,42.4z"/>
					</g>
				</g>
				<g id="group1559-15_1_" transform="translate(1.10162E-13,-9.38012)">
					<g id="shape1560-16_1_">
						<path class="st0" d="M45.2,44.5c0.3-0.7,0.7-1.4,1.2-2.1c-1.9-3.1-1.8-5.6-1.6-6.8c-0.5,0.5-0.9,1-1.3,1.6
							C43.2,38.9,43.1,41.4,45.2,44.5z"/>
					</g>
				</g>
				<g id="group1561-18_1_" transform="translate(4.05148,-0.740211)">
					<g id="shape1562-19_1_">
						<path class="st0" d="M46.6,38.4c-0.9-0.7-1.6-1.4-2.3-2.1c-0.5,0.7-0.8,1.3-1.1,2c0.6,0.6,1.3,1.3,2.1,1.9
							c4.9,4,9.8,4.4,12.6,4.4c0.2,0,1-1.2,1.5-1.9C58.1,42.8,52.8,43.5,46.6,38.4z"/>
					</g>
				</g>
				<g id="group1563-21_1_" transform="translate(2.10339,-7.03041)">
					<g id="shape1564-22_1_">
						<path class="st0" d="M43.1,42.2c0.5,0.8,1.2,1.5,2,2.3c0.3-0.6,0.7-1.3,1.1-1.9c-0.8-0.8-1.4-1.7-1.9-2.5
							C43.9,40.8,43.5,41.5,43.1,42.2z"/>
					</g>
				</g>
				<g id="group1565-24_1_" transform="translate(10.5195,-5.3233)">
					<g id="shape1566-25_1_">
						<path class="st0" d="M43.1,35.7c4.5,4.3,9.8,7.9,11.1,8.8c0.1-0.3,0.2-0.7,0.3-1c-1.5-1.1-5.3-4.2-9.8-8.8
							C44.3,34.9,43.7,35.3,43.1,35.7z"/>
					</g>
				</g>
				<g id="group1567-27_1_" transform="translate(4.98729,-16.4714)">
					<g id="shape1568-28_1_">
						<path class="st0" d="M48.1,43.4c-1.1-1.2-2.2-2.4-3.4-3.8c-0.5,0.2-1.1,0.4-1.6,0.7c0.8,1.4,2,2.8,3.2,4.2
							C47,44.1,47.5,43.7,48.1,43.4z"/>
					</g>
				</g>
				<g id="shape1569-30_1_" transform="translate(8.13763,-14.0503)">
					<path class="st0" d="M45,41c-0.6,0.3-1.3,0.8-1.9,1.2c0.7,0.8,1.5,1.6,2.3,2.3c0.6-0.4,1.3-0.9,1.9-1.2
						C46.5,42.6,45.8,41.8,45,41z"/>
				</g>
				<g id="shape1570-32_1_" transform="translate(8.1369,-14.0039)">
					<path class="st0" d="M44.8,40.8c-0.6,0.3-1.1,0.7-1.7,1.1c0.7,0.8,1.7,1.8,2.5,2.6c0.6-0.4,1-0.8,1.6-1.1
						C46.5,42.7,45.6,41.7,44.8,40.8z"/>
				</g>
			</g>
			<g id="group1571-34_1_" transform="translate(14.8617,-6.23662)">
				<g id="shape1572-35_1_">
					<path class="st0" d="M44.5,39.4c-1.1,0.9-1.3,2.6-0.5,3.7c0.9,1.2,2.5,1.4,3.6,0.5c1.1-0.9,1.3-2.5,0.5-3.7
						C47.2,38.8,45.6,38.5,44.5,39.4z"/>
				</g>
			</g>
			<g id="group1573-37_1_" transform="translate(9.65099,-2.13163E-13)">
				<g id="shape1574-38_1_">
					<path class="st0" d="M44.4,39.8c-1,0.8-1.2,2.4-0.5,3.4c0.8,1.1,2.3,1.3,3.4,0.5c1-0.8,1.2-2.4,0.4-3.4
						C46.9,39.2,45.4,39,44.4,39.8z"/>
				</g>
			</g>
			<g id="group1575-40_1_" transform="translate(0,-5.36433)">
				<g id="shape1576-41_1_">
					<path class="st0" d="M45,37.4c-1.6,1.3-1.9,3.6-0.7,5.2c1.2,1.6,3.5,1.9,5.1,0.7c1.6-1.3,1.9-3.6,0.7-5.2
						C48.9,36.4,46.6,36.1,45,37.4z"/>
				</g>
			</g>
		</g>
	</g>
	<g id="shape1549-43_1_" class="st1">
		<g class="st2">
			<path d="M31.2,57.2c0,0.1,0,0.1,0,0.2s0,0.1,0,0.1s-0.1,0-0.1,0s-0.1,0-0.2,0s-0.2,0-0.2,0s-0.1,0-0.1,0c0,0-0.1,0-0.1,0
				s0,0,0-0.1l-0.5-1.5h-2.6l-0.5,1.5c0,0,0,0.1,0,0.1c0,0,0,0-0.1,0.1c0,0-0.1,0-0.1,0s-0.1,0-0.2,0c-0.1,0-0.2,0-0.2,0
				c-0.1,0-0.1,0-0.1,0s0-0.1,0-0.1s0-0.1,0-0.2l2.1-5.9c0,0,0-0.1,0.1-0.1s0.1,0,0.1-0.1s0.1,0,0.2,0s0.1,0,0.2,0
				c0.1,0,0.2,0,0.3,0s0.1,0,0.2,0s0.1,0,0.1,0.1s0,0.1,0.1,0.1L31.2,57.2z M28.5,52L28.5,52l-1.1,3.1h2.2L28.5,52z"/>
			<path d="M36.2,55.1c0,0.4,0,0.7-0.1,1s-0.2,0.6-0.4,0.8c-0.2,0.2-0.4,0.4-0.6,0.5c-0.2,0.1-0.5,0.2-0.8,0.2c-0.1,0-0.3,0-0.4,0
				s-0.2-0.1-0.3-0.1s-0.2-0.1-0.3-0.2S33.1,57.1,33,57v2.2c0,0,0,0,0,0.1s0,0-0.1,0s-0.1,0-0.1,0s-0.1,0-0.2,0c-0.1,0-0.1,0-0.2,0
				s-0.1,0-0.1,0s-0.1,0-0.1,0s0,0,0-0.1V53c0,0,0-0.1,0-0.1c0,0,0,0,0.1,0s0.1,0,0.1,0s0.1,0,0.2,0c0.1,0,0.1,0,0.2,0s0.1,0,0.1,0
				s0,0,0.1,0c0,0,0,0,0,0.1v0.6c0.1-0.1,0.3-0.3,0.4-0.4s0.2-0.2,0.4-0.3c0.1-0.1,0.3-0.1,0.4-0.2s0.3-0.1,0.4-0.1
				c0.3,0,0.6,0.1,0.8,0.2s0.4,0.3,0.5,0.5s0.2,0.5,0.3,0.7C36.2,54.5,36.2,54.8,36.2,55.1z M35.4,55.2c0-0.2,0-0.4-0.1-0.7
				c0-0.2-0.1-0.4-0.2-0.6s-0.2-0.3-0.3-0.4s-0.3-0.1-0.5-0.1c-0.1,0-0.2,0-0.3,0c-0.1,0-0.2,0.1-0.3,0.1c-0.1,0.1-0.2,0.2-0.3,0.3
				c-0.1,0.1-0.2,0.2-0.4,0.4v1.7c0.2,0.3,0.4,0.5,0.6,0.6s0.4,0.2,0.6,0.2c0.2,0,0.4,0,0.5-0.1c0.1-0.1,0.3-0.2,0.4-0.4
				c0.1-0.2,0.2-0.3,0.2-0.5S35.4,55.4,35.4,55.2z"/>
			<path d="M38.2,57.4C38.2,57.4,38.2,57.5,38.2,57.4c0,0.1-0.1,0.1-0.1,0.1s-0.1,0-0.1,0s-0.1,0-0.2,0c-0.1,0-0.1,0-0.2,0
				s-0.1,0-0.1,0s-0.1,0-0.1,0c0,0,0,0,0-0.1v-6.5c0,0,0,0,0-0.1s0,0,0.1,0s0.1,0,0.1,0s0.1,0,0.2,0c0.1,0,0.1,0,0.2,0s0.1,0,0.1,0
				s0.1,0,0.1,0s0,0,0,0.1V57.4z"/>
			<path d="M40.6,51.5c0,0.2,0,0.3-0.1,0.4S40.3,52,40.1,52c-0.2,0-0.3,0-0.4-0.1c-0.1-0.1-0.1-0.2-0.1-0.4c0-0.2,0-0.3,0.1-0.4
				s0.2-0.1,0.4-0.1c0.2,0,0.3,0,0.4,0.1C40.6,51.2,40.6,51.3,40.6,51.5z M40.5,57.4C40.5,57.4,40.5,57.5,40.5,57.4
				c0,0.1-0.1,0.1-0.1,0.1s-0.1,0-0.1,0s-0.1,0-0.2,0c-0.1,0-0.1,0-0.2,0s-0.1,0-0.1,0s-0.1,0-0.1,0c0,0,0,0,0-0.1V53c0,0,0,0,0-0.1
				s0,0,0.1,0s0.1,0,0.1,0s0.1,0,0.2,0c0.1,0,0.1,0,0.2,0s0.1,0,0.1,0s0.1,0,0.1,0s0,0,0,0.1V57.4z"/>
			<path d="M45.2,56.7c0,0.1,0,0.1,0,0.1c0,0,0,0.1,0,0.1c0,0,0,0.1,0,0.1c0,0,0,0.1-0.1,0.1c0,0-0.1,0.1-0.2,0.2
				c-0.1,0.1-0.2,0.1-0.3,0.2c-0.1,0-0.3,0.1-0.4,0.1s-0.3,0-0.4,0c-0.3,0-0.6-0.1-0.8-0.2s-0.4-0.3-0.6-0.5s-0.3-0.4-0.4-0.7
				c-0.1-0.3-0.1-0.6-0.1-1c0-0.4,0.1-0.8,0.2-1.1c0.1-0.3,0.3-0.6,0.4-0.8s0.4-0.3,0.6-0.4c0.2-0.1,0.5-0.1,0.8-0.1
				c0.1,0,0.3,0,0.4,0s0.3,0.1,0.4,0.1s0.2,0.1,0.3,0.1s0.1,0.1,0.2,0.1s0.1,0.1,0.1,0.1s0,0,0,0.1c0,0,0,0.1,0,0.1s0,0.1,0,0.1
				c0,0.1,0,0.2,0,0.3C45.1,54,45,54,45,54c0,0-0.1,0-0.2-0.1s-0.1-0.1-0.2-0.2s-0.2-0.1-0.4-0.2s-0.3-0.1-0.5-0.1
				c-0.4,0-0.7,0.1-0.9,0.4s-0.3,0.7-0.3,1.3c0,0.3,0,0.5,0.1,0.7c0.1,0.2,0.1,0.4,0.2,0.5s0.2,0.3,0.4,0.3c0.2,0.1,0.3,0.1,0.5,0.1
				c0.2,0,0.3,0,0.5-0.1s0.3-0.1,0.4-0.2c0.1-0.1,0.2-0.1,0.3-0.2c0.1-0.1,0.1-0.1,0.2-0.1c0,0,0,0,0.1,0s0,0,0,0.1c0,0,0,0.1,0,0.1
				C45.2,56.6,45.2,56.7,45.2,56.7z"/>
			<path d="M49.5,57.4C49.5,57.4,49.4,57.5,49.5,57.4c-0.1,0.1-0.1,0.1-0.1,0.1s-0.1,0-0.2,0c-0.1,0-0.2,0-0.2,0s-0.1,0-0.1,0
				s0,0,0-0.1V57c-0.2,0.2-0.4,0.4-0.6,0.5s-0.5,0.2-0.7,0.2c-0.2,0-0.4,0-0.6-0.1c-0.2-0.1-0.3-0.1-0.5-0.3S46,57,46,56.8
				s-0.1-0.4-0.1-0.6c0-0.2,0.1-0.5,0.2-0.6s0.2-0.3,0.4-0.5s0.4-0.2,0.7-0.3c0.3-0.1,0.6-0.1,0.9-0.1h0.6v-0.3c0-0.2,0-0.3-0.1-0.4
				s-0.1-0.2-0.2-0.3c-0.1-0.1-0.2-0.2-0.3-0.2s-0.3-0.1-0.5-0.1c-0.2,0-0.4,0-0.5,0.1c-0.2,0-0.3,0.1-0.4,0.2
				c-0.1,0.1-0.2,0.1-0.3,0.2c-0.1,0-0.1,0.1-0.2,0.1c0,0,0,0-0.1,0s0,0-0.1-0.1s0-0.1,0-0.1c0,0,0-0.1,0-0.1c0-0.1,0-0.1,0-0.2
				c0,0,0-0.1,0.1-0.1s0.1-0.1,0.2-0.1c0.1-0.1,0.2-0.1,0.4-0.2c0.1,0,0.3-0.1,0.5-0.1c0.2,0,0.3,0,0.5,0c0.3,0,0.6,0,0.8,0.1
				s0.4,0.2,0.5,0.3c0.1,0.1,0.2,0.3,0.3,0.5s0.1,0.4,0.1,0.7V57.4z M48.7,55.4H48c-0.2,0-0.4,0-0.6,0.1c-0.2,0-0.3,0.1-0.4,0.2
				s-0.2,0.2-0.2,0.3s-0.1,0.2-0.1,0.4c0,0.2,0.1,0.4,0.2,0.5c0.1,0.1,0.3,0.2,0.6,0.2c0.2,0,0.4-0.1,0.6-0.2s0.4-0.3,0.6-0.5V55.4z
				"/>
			<path d="M54.1,56.7c0,0.1,0,0.1,0,0.1c0,0,0,0.1,0,0.1c0,0,0,0.1,0,0.1c0,0,0,0.1-0.1,0.1c0,0-0.1,0.1-0.2,0.2
				c-0.1,0.1-0.2,0.1-0.3,0.2c-0.1,0-0.3,0.1-0.4,0.1s-0.3,0-0.4,0c-0.3,0-0.6-0.1-0.8-0.2s-0.4-0.3-0.6-0.5s-0.3-0.4-0.4-0.7
				c-0.1-0.3-0.1-0.6-0.1-1c0-0.4,0.1-0.8,0.2-1.1c0.1-0.3,0.3-0.6,0.4-0.8s0.4-0.3,0.6-0.4c0.2-0.1,0.5-0.1,0.8-0.1
				c0.1,0,0.3,0,0.4,0s0.3,0.1,0.4,0.1s0.2,0.1,0.3,0.1s0.1,0.1,0.2,0.1s0.1,0.1,0.1,0.1s0,0,0,0.1c0,0,0,0.1,0,0.1s0,0.1,0,0.1
				c0,0.1,0,0.2,0,0.3C54,54,54,54,53.9,54c0,0-0.1,0-0.2-0.1s-0.1-0.1-0.2-0.2s-0.2-0.1-0.4-0.2s-0.3-0.1-0.5-0.1
				c-0.4,0-0.7,0.1-0.9,0.4s-0.3,0.7-0.3,1.3c0,0.3,0,0.5,0.1,0.7c0.1,0.2,0.1,0.4,0.2,0.5s0.2,0.3,0.4,0.3c0.2,0.1,0.3,0.1,0.5,0.1
				c0.2,0,0.3,0,0.5-0.1s0.3-0.1,0.4-0.2c0.1-0.1,0.2-0.1,0.3-0.2c0.1-0.1,0.1-0.1,0.2-0.1c0,0,0,0,0.1,0s0,0,0,0.1c0,0,0,0.1,0,0.1
				C54.1,56.6,54.1,56.7,54.1,56.7z"/>
			<path d="M56.1,51.5c0,0.2,0,0.3-0.1,0.4S55.8,52,55.6,52c-0.2,0-0.3,0-0.4-0.1c-0.1-0.1-0.1-0.2-0.1-0.4c0-0.2,0-0.3,0.1-0.4
				s0.2-0.1,0.4-0.1c0.2,0,0.3,0,0.4,0.1C56,51.2,56.1,51.3,56.1,51.5z M56,57.4C56,57.4,56,57.5,56,57.4c0,0.1-0.1,0.1-0.1,0.1
				s-0.1,0-0.1,0s-0.1,0-0.2,0c-0.1,0-0.1,0-0.2,0s-0.1,0-0.1,0s-0.1,0-0.1,0c0,0,0,0,0-0.1V53c0,0,0,0,0-0.1s0,0,0.1,0s0.1,0,0.1,0
				s0.1,0,0.2,0c0.1,0,0.1,0,0.2,0s0.1,0,0.1,0s0.1,0,0.1,0s0,0,0,0.1V57.4z"/>
			<path d="M61.6,55.2c0,0.4,0,0.7-0.1,1c-0.1,0.3-0.2,0.6-0.4,0.8s-0.4,0.4-0.7,0.5c-0.3,0.1-0.6,0.2-1,0.2c-0.4,0-0.7-0.1-0.9-0.2
				s-0.5-0.3-0.7-0.5s-0.3-0.5-0.4-0.7s-0.1-0.6-0.1-1c0-0.4,0-0.7,0.1-1c0.1-0.3,0.2-0.6,0.4-0.8s0.4-0.4,0.7-0.5s0.6-0.2,1-0.2
				c0.4,0,0.7,0.1,0.9,0.2s0.5,0.3,0.7,0.5s0.3,0.5,0.4,0.7S61.6,54.8,61.6,55.2z M60.7,55.2c0-0.2,0-0.5-0.1-0.7s-0.1-0.4-0.2-0.6
				c-0.1-0.2-0.2-0.3-0.4-0.4s-0.4-0.1-0.7-0.1c-0.2,0-0.4,0-0.6,0.1s-0.3,0.2-0.4,0.4c-0.1,0.2-0.2,0.3-0.2,0.5S58,54.9,58,55.2
				c0,0.2,0,0.5,0.1,0.7s0.1,0.4,0.2,0.6c0.1,0.2,0.2,0.3,0.4,0.4c0.2,0.1,0.4,0.1,0.7,0.1c0.2,0,0.4,0,0.6-0.1
				c0.2-0.1,0.3-0.2,0.4-0.4s0.2-0.3,0.2-0.5C60.7,55.7,60.7,55.5,60.7,55.2z M59.8,50.9C59.8,50.8,59.8,50.8,59.8,50.9
				c0.1-0.1,0.1-0.1,0.2-0.1s0.1,0,0.1,0s0.1,0,0.2,0c0.1,0,0.2,0,0.2,0c0.1,0,0.1,0,0.1,0c0,0,0,0,0,0.1c0,0,0,0.1,0,0.1L59.7,52
				c0,0,0,0.1-0.1,0.1s0,0-0.1,0c0,0-0.1,0-0.1,0s-0.1,0-0.2,0c-0.1,0-0.1,0-0.2,0s-0.1,0-0.1,0s0,0,0-0.1s0-0.1,0-0.1L59.8,50.9z"
				/>
			<path d="M66.5,57.4C66.5,57.4,66.5,57.5,66.5,57.4c0,0.1-0.1,0.1-0.1,0.1s-0.1,0-0.1,0s-0.1,0-0.2,0c-0.1,0-0.1,0-0.2,0
				s-0.1,0-0.1,0s-0.1,0-0.1,0c0,0,0,0,0-0.1v-2.6c0-0.3,0-0.5-0.1-0.6s-0.1-0.3-0.2-0.4s-0.2-0.2-0.3-0.3s-0.3-0.1-0.4-0.1
				c-0.2,0-0.4,0.1-0.6,0.2s-0.4,0.4-0.6,0.6v3.1c0,0,0,0,0,0.1c0,0,0,0-0.1,0s-0.1,0-0.1,0s-0.1,0-0.2,0c-0.1,0-0.1,0-0.2,0
				s-0.1,0-0.1,0s-0.1,0-0.1,0c0,0,0,0,0-0.1V53c0,0,0,0,0-0.1c0,0,0,0,0.1,0s0.1,0,0.1,0s0.1,0,0.2,0c0.1,0,0.1,0,0.2,0
				s0.1,0,0.1,0s0,0,0.1,0c0,0,0,0,0,0.1v0.6c0.2-0.3,0.5-0.5,0.7-0.6c0.2-0.1,0.5-0.2,0.7-0.2c0.3,0,0.5,0,0.7,0.1
				c0.2,0.1,0.4,0.2,0.5,0.4s0.2,0.4,0.3,0.6c0.1,0.2,0.1,0.5,0.1,0.8V57.4z"/>
			<path d="M76.4,53C76.4,53,76.4,53.1,76.4,53c0,0.1,0,0.2,0,0.2l-1.3,4.2c0,0,0,0.1,0,0.1s-0.1,0-0.1,0.1s-0.1,0-0.2,0
				s-0.1,0-0.2,0c-0.1,0-0.2,0-0.3,0s-0.1,0-0.2,0s-0.1,0-0.1-0.1s0-0.1,0-0.1l-0.9-3.2l0,0l0,0l-0.9,3.2c0,0,0,0.1,0,0.1
				s-0.1,0-0.1,0.1s-0.1,0-0.2,0s-0.1,0-0.2,0c-0.1,0-0.2,0-0.2,0s-0.1,0-0.2,0s-0.1,0-0.1-0.1s0-0.1,0-0.1l-1.3-4.2
				c0,0,0-0.1,0-0.1s0-0.1,0-0.1c0,0,0-0.1,0-0.1c0,0,0,0,0.1,0c0,0,0.1,0,0.1,0s0.1,0,0.2,0c0.1,0,0.2,0,0.2,0s0.1,0,0.1,0
				c0,0,0.1,0,0.1,0c0,0,0,0,0,0.1l1.1,3.6l0,0l0,0l1-3.6c0,0,0-0.1,0-0.1c0,0,0,0,0.1,0c0,0,0.1,0,0.1,0s0.1,0,0.2,0
				c0.1,0,0.1,0,0.2,0s0.1,0,0.1,0c0,0,0.1,0,0.1,0s0,0,0,0.1l1,3.6l0,0l0,0l1-3.6c0,0,0-0.1,0-0.1c0,0,0,0,0.1,0c0,0,0.1,0,0.1,0
				s0.1,0,0.2,0c0.1,0,0.1,0,0.2,0s0.1,0,0.1,0S76.4,52.9,76.4,53C76.4,52.9,76.4,53,76.4,53z"/>
			<path d="M81.1,55c0,0.1,0,0.2-0.1,0.3s-0.1,0.1-0.2,0.1h-2.9c0,0.2,0,0.5,0.1,0.7c0,0.2,0.1,0.4,0.2,0.5c0.1,0.1,0.3,0.2,0.4,0.3
				c0.2,0.1,0.4,0.1,0.7,0.1c0.2,0,0.4,0,0.6-0.1s0.3-0.1,0.4-0.1c0.1,0,0.2-0.1,0.3-0.1c0.1,0,0.1-0.1,0.2-0.1c0,0,0,0,0.1,0
				c0,0,0,0,0,0.1s0,0.1,0,0.1c0,0,0,0.1,0,0.1c0,0,0,0.1,0,0.1c0,0,0,0.1,0,0.1s0,0,0,0.1s0,0,0,0.1c0,0-0.1,0-0.2,0.1
				c-0.1,0-0.2,0.1-0.3,0.1s-0.3,0.1-0.5,0.1c-0.2,0-0.4,0-0.6,0c-0.4,0-0.7-0.1-0.9-0.2s-0.5-0.3-0.7-0.4s-0.3-0.4-0.4-0.7
				s-0.1-0.6-0.1-1c0-0.4,0-0.7,0.1-1c0.1-0.3,0.2-0.6,0.4-0.8s0.4-0.4,0.7-0.5s0.6-0.2,0.9-0.2c0.3,0,0.6,0.1,0.9,0.2
				s0.4,0.3,0.6,0.4c0.2,0.2,0.3,0.4,0.3,0.7c0.1,0.3,0.1,0.5,0.1,0.8V55z M80.3,54.8c0-0.4-0.1-0.8-0.3-1c-0.2-0.2-0.5-0.4-0.9-0.4
				c-0.2,0-0.4,0-0.5,0.1c-0.2,0.1-0.3,0.2-0.4,0.3s-0.2,0.3-0.2,0.4c-0.1,0.2-0.1,0.3-0.1,0.5H80.3z"/>
			<path d="M86.3,55.1c0,0.4,0,0.7-0.1,1c-0.1,0.3-0.2,0.6-0.4,0.8s-0.4,0.4-0.6,0.5s-0.5,0.2-0.8,0.2c-0.1,0-0.3,0-0.4,0
				c-0.1,0-0.2-0.1-0.3-0.1s-0.2-0.1-0.3-0.2S83.1,57,83,56.9v0.5c0,0,0,0,0,0.1s0,0-0.1,0c0,0-0.1,0-0.1,0s-0.1,0-0.2,0
				c-0.1,0-0.1,0-0.2,0s-0.1,0-0.1,0c0,0,0,0-0.1,0s0,0,0-0.1v-6.5c0,0,0,0,0-0.1s0,0,0.1,0s0.1,0,0.1,0s0.1,0,0.2,0
				c0.1,0,0.1,0,0.2,0s0.1,0,0.1,0s0.1,0,0.1,0s0,0,0,0.1v2.6c0.1-0.1,0.3-0.2,0.4-0.3s0.2-0.2,0.4-0.2c0.1-0.1,0.2-0.1,0.4-0.1
				s0.2,0,0.4,0c0.3,0,0.6,0.1,0.8,0.2s0.4,0.3,0.6,0.5c0.1,0.2,0.2,0.5,0.3,0.8S86.3,54.8,86.3,55.1z M85.5,55.2
				c0-0.2,0-0.4-0.1-0.7c0-0.2-0.1-0.4-0.2-0.6s-0.2-0.3-0.3-0.4c-0.1-0.1-0.3-0.1-0.5-0.1c-0.1,0-0.2,0-0.3,0
				c-0.1,0-0.2,0.1-0.3,0.1c-0.1,0.1-0.2,0.2-0.3,0.3c-0.1,0.1-0.2,0.2-0.4,0.4v1.8c0.2,0.3,0.4,0.5,0.6,0.6s0.4,0.2,0.6,0.2
				c0.2,0,0.4,0,0.5-0.1c0.1-0.1,0.3-0.2,0.4-0.4c0.1-0.2,0.2-0.3,0.2-0.5S85.5,55.4,85.5,55.2z"/>
			<v:paragraph  v:horizAlign="1"></v:paragraph>
			<v:tabList></v:tabList>
		</g>
	</g>
	<path class="st0" d="M214.8,17.6h-20.5c-0.6,0-1.1,0.5-1.1,1.1v16.7c0,0.6,0.5,1.1,1.1,1.1h5.3c0.4,1.4,1.7,2.3,3.2,2.3
		c1.8,0,3.3-1.5,3.3-3.4s-1.5-3.4-3.3-3.4c-1.5,0-2.8,0.9-3.2,2.3h-4.2v-12h18.3v12h-3.4c-0.5-3.7-3.7-6.6-7.5-6.6
		c-1.3,0-2.6,0.4-3.6,0.9l1,2c0.7-0.4,1.7-0.7,2.6-0.7c2.9,0,5.4,2.4,5.4,5.5c0,3-2.4,5.5-5.4,5.5c-0.9,0-1.8-0.3-2.6-0.7l-1,2
		c1.1,0.6,2.4,0.9,3.6,0.9c3.8,0,7-2.9,7.5-6.6h4.6c0.6,0,1.1-0.5,1.1-1.1V18.7C215.9,18.1,215.4,17.6,214.8,17.6z"/>
	<g class="st3">
		<path class="st4" d="M215.7,55.8c0,0.1,0,0.1,0,0.2c0,0,0,0.1,0,0.1s-0.1,0-0.1,0c-0.1,0-0.1,0-0.2,0s-0.2,0-0.2,0
			c-0.1,0-0.1,0-0.1,0c0,0-0.1,0-0.1,0c0,0,0,0,0-0.1l-0.5-1.5h-2.6l-0.5,1.5c0,0,0,0.1,0,0.1c0,0,0,0-0.1,0.1c0,0-0.1,0-0.1,0
			c-0.1,0-0.1,0-0.2,0c-0.1,0-0.2,0-0.2,0c-0.1,0-0.1,0-0.1,0c0,0,0-0.1,0-0.1c0,0,0-0.1,0-0.2l2.1-5.9c0,0,0-0.1,0.1-0.1
			c0,0,0.1,0,0.1-0.1c0,0,0.1,0,0.2,0c0.1,0,0.1,0,0.2,0c0.1,0,0.2,0,0.3,0s0.1,0,0.2,0s0.1,0,0.1,0.1s0,0.1,0.1,0.1L215.7,55.8z
			 M213,50.6L213,50.6l-1.1,3.1h2.2L213,50.6z"/>
		<path class="st4" d="M220.7,53.7c0,0.4,0,0.7-0.1,1c-0.1,0.3-0.2,0.6-0.4,0.8c-0.2,0.2-0.4,0.4-0.6,0.5c-0.2,0.1-0.5,0.2-0.8,0.2
			c-0.1,0-0.3,0-0.4,0s-0.2-0.1-0.3-0.1c-0.1-0.1-0.2-0.1-0.3-0.2s-0.2-0.2-0.3-0.3v2.2c0,0,0,0,0,0.1s0,0-0.1,0s-0.1,0-0.1,0
			s-0.1,0-0.2,0c-0.1,0-0.1,0-0.2,0s-0.1,0-0.1,0c0,0-0.1,0-0.1,0c0,0,0,0,0-0.1v-6.1c0,0,0-0.1,0-0.1c0,0,0,0,0.1,0s0.1,0,0.1,0
			s0.1,0,0.2,0c0.1,0,0.1,0,0.2,0c0,0,0.1,0,0.1,0s0,0,0.1,0c0,0,0,0,0,0.1v0.6c0.1-0.1,0.3-0.3,0.4-0.4s0.2-0.2,0.4-0.3
			c0.1-0.1,0.3-0.1,0.4-0.2c0.1,0,0.3-0.1,0.4-0.1c0.3,0,0.6,0.1,0.8,0.2s0.4,0.3,0.5,0.5c0.1,0.2,0.2,0.5,0.3,0.7
			C220.7,53.1,220.7,53.4,220.7,53.7z M219.9,53.8c0-0.2,0-0.4-0.1-0.7s-0.1-0.4-0.2-0.6s-0.2-0.3-0.3-0.4s-0.3-0.1-0.5-0.1
			c-0.1,0-0.2,0-0.3,0c-0.1,0-0.2,0.1-0.3,0.1c-0.1,0.1-0.2,0.2-0.3,0.3c-0.1,0.1-0.2,0.2-0.4,0.4v1.7c0.2,0.3,0.4,0.5,0.6,0.6
			s0.4,0.2,0.6,0.2c0.2,0,0.4,0,0.5-0.1c0.1-0.1,0.3-0.2,0.4-0.4c0.1-0.2,0.2-0.3,0.2-0.5C219.8,54.2,219.9,54,219.9,53.8z"/>
		<path class="st4" d="M222.7,56C222.7,56,222.7,56,222.7,56c0,0.1-0.1,0.1-0.1,0.1s-0.1,0-0.1,0s-0.1,0-0.2,0c-0.1,0-0.1,0-0.2,0
			s-0.1,0-0.1,0c0,0-0.1,0-0.1,0c0,0,0,0,0-0.1v-6.5c0,0,0,0,0-0.1c0,0,0,0,0.1,0c0,0,0.1,0,0.1,0s0.1,0,0.2,0c0.1,0,0.1,0,0.2,0
			s0.1,0,0.1,0s0,0,0.1,0s0,0,0,0.1V56z"/>
		<path class="st4" d="M225.1,50.1c0,0.2,0,0.3-0.1,0.4s-0.2,0.1-0.4,0.1c-0.2,0-0.3,0-0.4-0.1c-0.1-0.1-0.1-0.2-0.1-0.4
			c0-0.2,0-0.3,0.1-0.4s0.2-0.1,0.4-0.1c0.2,0,0.3,0,0.4,0.1C225.1,49.8,225.1,49.9,225.1,50.1z M225,56C225,56,225,56,225,56
			c0,0.1-0.1,0.1-0.1,0.1s-0.1,0-0.1,0s-0.1,0-0.2,0c-0.1,0-0.1,0-0.2,0s-0.1,0-0.1,0c0,0-0.1,0-0.1,0c0,0,0,0,0-0.1v-4.4
			c0,0,0,0,0-0.1c0,0,0,0,0.1,0c0,0,0.1,0,0.1,0s0.1,0,0.2,0c0.1,0,0.1,0,0.2,0s0.1,0,0.1,0s0,0,0.1,0s0,0,0,0.1V56z"/>
		<path class="st4" d="M229.7,55.3c0,0.1,0,0.1,0,0.1c0,0,0,0.1,0,0.1c0,0,0,0.1,0,0.1c0,0,0,0.1-0.1,0.1c0,0-0.1,0.1-0.2,0.2
			c-0.1,0.1-0.2,0.1-0.3,0.2c-0.1,0-0.3,0.1-0.4,0.1s-0.3,0-0.4,0c-0.3,0-0.6-0.1-0.8-0.2s-0.4-0.3-0.6-0.5
			c-0.2-0.2-0.3-0.4-0.4-0.7c-0.1-0.3-0.1-0.6-0.1-1c0-0.4,0.1-0.8,0.2-1.1c0.1-0.3,0.3-0.6,0.4-0.8c0.2-0.2,0.4-0.3,0.6-0.4
			c0.3-0.1,0.5-0.1,0.8-0.1c0.1,0,0.3,0,0.4,0c0.1,0,0.3,0.1,0.4,0.1s0.2,0.1,0.3,0.1c0.1,0.1,0.1,0.1,0.2,0.1s0.1,0.1,0.1,0.1
			c0,0,0,0,0,0.1c0,0,0,0.1,0,0.1s0,0.1,0,0.1c0,0.1,0,0.2,0,0.3c0,0.1-0.1,0.1-0.1,0.1c0,0-0.1,0-0.2-0.1c-0.1-0.1-0.1-0.1-0.2-0.2
			s-0.2-0.1-0.4-0.2c-0.1-0.1-0.3-0.1-0.5-0.1c-0.4,0-0.7,0.1-0.9,0.4c-0.2,0.3-0.3,0.7-0.3,1.3c0,0.3,0,0.5,0.1,0.7
			c0.1,0.2,0.1,0.4,0.2,0.5s0.2,0.3,0.4,0.3c0.2,0.1,0.3,0.1,0.5,0.1c0.2,0,0.3,0,0.5-0.1s0.3-0.1,0.4-0.2c0.1-0.1,0.2-0.1,0.3-0.2
			c0.1-0.1,0.1-0.1,0.2-0.1c0,0,0,0,0.1,0s0,0,0,0.1c0,0,0,0.1,0,0.1C229.7,55.2,229.7,55.3,229.7,55.3z"/>
		<path class="st4" d="M234,56C234,56,233.9,56.1,234,56c-0.1,0.1-0.1,0.1-0.1,0.1s-0.1,0-0.2,0c-0.1,0-0.2,0-0.2,0
			c-0.1,0-0.1,0-0.1,0s0,0,0-0.1v-0.4c-0.2,0.2-0.4,0.4-0.6,0.5c-0.2,0.1-0.5,0.2-0.7,0.2c-0.2,0-0.4,0-0.6-0.1
			c-0.2-0.1-0.3-0.1-0.5-0.3c-0.1-0.1-0.2-0.3-0.3-0.4c-0.1-0.2-0.1-0.4-0.1-0.6c0-0.2,0-0.5,0.2-0.6s0.2-0.3,0.4-0.5
			s0.4-0.2,0.7-0.3c0.3-0.1,0.6-0.1,0.9-0.1h0.6v-0.3c0-0.2,0-0.3-0.1-0.4s-0.1-0.2-0.2-0.3c-0.1-0.1-0.2-0.2-0.3-0.2
			s-0.3-0.1-0.5-0.1c-0.2,0-0.4,0-0.5,0.1c-0.2,0-0.3,0.1-0.4,0.2c-0.1,0.1-0.2,0.1-0.3,0.2c-0.1,0-0.1,0.1-0.2,0.1c0,0,0,0-0.1,0
			s0,0-0.1-0.1c0,0,0-0.1,0-0.1c0,0,0-0.1,0-0.1c0-0.1,0-0.1,0-0.2c0,0,0-0.1,0.1-0.1c0,0,0.1-0.1,0.2-0.1c0.1-0.1,0.2-0.1,0.4-0.2
			c0.1,0,0.3-0.1,0.5-0.1c0.2,0,0.3,0,0.5,0c0.3,0,0.6,0,0.8,0.1s0.4,0.2,0.5,0.3c0.1,0.1,0.2,0.3,0.3,0.5s0.1,0.4,0.1,0.7V56z
			 M233.2,54h-0.7c-0.2,0-0.4,0-0.6,0.1c-0.2,0-0.3,0.1-0.4,0.2s-0.2,0.2-0.2,0.3c-0.1,0.1-0.1,0.2-0.1,0.4c0,0.2,0.1,0.4,0.2,0.5
			c0.1,0.1,0.3,0.2,0.6,0.2c0.2,0,0.4-0.1,0.6-0.2c0.2-0.1,0.4-0.3,0.6-0.5V54z"/>
		<path class="st4" d="M238.6,55.3c0,0.1,0,0.1,0,0.1c0,0,0,0.1,0,0.1c0,0,0,0.1,0,0.1c0,0,0,0.1-0.1,0.1c0,0-0.1,0.1-0.2,0.2
			c-0.1,0.1-0.2,0.1-0.3,0.2c-0.1,0-0.3,0.1-0.4,0.1s-0.3,0-0.4,0c-0.3,0-0.6-0.1-0.8-0.2s-0.4-0.3-0.6-0.5
			c-0.2-0.2-0.3-0.4-0.4-0.7c-0.1-0.3-0.1-0.6-0.1-1c0-0.4,0.1-0.8,0.2-1.1c0.1-0.3,0.3-0.6,0.4-0.8c0.2-0.2,0.4-0.3,0.6-0.4
			c0.3-0.1,0.5-0.1,0.8-0.1c0.1,0,0.3,0,0.4,0c0.1,0,0.3,0.1,0.4,0.1s0.2,0.1,0.3,0.1c0.1,0.1,0.1,0.1,0.2,0.1s0.1,0.1,0.1,0.1
			c0,0,0,0,0,0.1c0,0,0,0.1,0,0.1s0,0.1,0,0.1c0,0.1,0,0.2,0,0.3c0,0.1-0.1,0.1-0.1,0.1c0,0-0.1,0-0.2-0.1c-0.1-0.1-0.1-0.1-0.2-0.2
			s-0.2-0.1-0.4-0.2c-0.1-0.1-0.3-0.1-0.5-0.1c-0.4,0-0.7,0.1-0.9,0.4c-0.2,0.3-0.3,0.7-0.3,1.3c0,0.3,0,0.5,0.1,0.7
			c0.1,0.2,0.1,0.4,0.2,0.5s0.2,0.3,0.4,0.3c0.2,0.1,0.3,0.1,0.5,0.1c0.2,0,0.3,0,0.5-0.1s0.3-0.1,0.4-0.2c0.1-0.1,0.2-0.1,0.3-0.2
			c0.1-0.1,0.1-0.1,0.2-0.1c0,0,0,0,0.1,0s0,0,0,0.1c0,0,0,0.1,0,0.1C238.6,55.2,238.6,55.3,238.6,55.3z"/>
		<path class="st4" d="M240.6,50.1c0,0.2,0,0.3-0.1,0.4s-0.2,0.1-0.4,0.1c-0.2,0-0.3,0-0.4-0.1c-0.1-0.1-0.1-0.2-0.1-0.4
			c0-0.2,0-0.3,0.1-0.4s0.2-0.1,0.4-0.1c0.2,0,0.3,0,0.4,0.1C240.5,49.8,240.6,49.9,240.6,50.1z M240.5,56
			C240.5,56,240.5,56,240.5,56c0,0.1-0.1,0.1-0.1,0.1s-0.1,0-0.1,0s-0.1,0-0.2,0c-0.1,0-0.1,0-0.2,0s-0.1,0-0.1,0c0,0-0.1,0-0.1,0
			c0,0,0,0,0-0.1v-4.4c0,0,0,0,0-0.1c0,0,0,0,0.1,0c0,0,0.1,0,0.1,0s0.1,0,0.2,0c0.1,0,0.1,0,0.2,0s0.1,0,0.1,0s0,0,0.1,0s0,0,0,0.1
			V56z"/>
		<path class="st4" d="M246,53.7c0,0.4,0,0.7-0.1,1c-0.1,0.3-0.2,0.6-0.4,0.8c-0.2,0.2-0.4,0.4-0.7,0.5c-0.3,0.1-0.6,0.2-1,0.2
			c-0.4,0-0.7-0.1-0.9-0.2c-0.3-0.1-0.5-0.3-0.7-0.5s-0.3-0.5-0.4-0.7s-0.1-0.6-0.1-1c0-0.4,0-0.7,0.1-1c0.1-0.3,0.2-0.6,0.4-0.8
			c0.2-0.2,0.4-0.4,0.7-0.5s0.6-0.2,1-0.2c0.4,0,0.7,0.1,0.9,0.2c0.3,0.1,0.5,0.3,0.7,0.5s0.3,0.5,0.4,0.7C246,53,246,53.4,246,53.7
			z M245.2,53.8c0-0.2,0-0.5-0.1-0.7s-0.1-0.4-0.2-0.6s-0.2-0.3-0.4-0.4c-0.2-0.1-0.4-0.1-0.7-0.1c-0.2,0-0.4,0-0.6,0.1
			c-0.2,0.1-0.3,0.2-0.4,0.4c-0.1,0.2-0.2,0.3-0.2,0.5s-0.1,0.4-0.1,0.7c0,0.2,0,0.5,0.1,0.7s0.1,0.4,0.2,0.6
			c0.1,0.2,0.2,0.3,0.4,0.4s0.4,0.1,0.7,0.1c0.2,0,0.4,0,0.6-0.1c0.2-0.1,0.3-0.2,0.4-0.4s0.2-0.3,0.2-0.5S245.2,54,245.2,53.8z
			 M244.3,49.4C244.3,49.4,244.3,49.4,244.3,49.4c0.1-0.1,0.1-0.1,0.2-0.1c0,0,0.1,0,0.1,0s0.1,0,0.2,0c0.1,0,0.2,0,0.2,0
			c0.1,0,0.1,0,0.1,0c0,0,0,0,0,0.1c0,0,0,0.1,0,0.1l-0.9,1.1c0,0,0,0.1-0.1,0.1c0,0,0,0-0.1,0c0,0-0.1,0-0.1,0c0,0-0.1,0-0.2,0
			c-0.1,0-0.1,0-0.2,0s-0.1,0-0.1,0c0,0,0,0,0-0.1c0,0,0-0.1,0-0.1L244.3,49.4z"/>
		<path class="st4" d="M251,56C251,56,251,56,251,56c0,0.1-0.1,0.1-0.1,0.1s-0.1,0-0.1,0s-0.1,0-0.2,0c-0.1,0-0.1,0-0.2,0
			s-0.1,0-0.1,0s-0.1,0-0.1,0c0,0,0,0,0-0.1v-2.6c0-0.3,0-0.5-0.1-0.6s-0.1-0.3-0.2-0.4s-0.2-0.2-0.3-0.3c-0.1-0.1-0.3-0.1-0.4-0.1
			c-0.2,0-0.4,0.1-0.6,0.2s-0.4,0.4-0.6,0.6V56c0,0,0,0,0,0.1c0,0,0,0-0.1,0s-0.1,0-0.1,0s-0.1,0-0.2,0c-0.1,0-0.1,0-0.2,0
			s-0.1,0-0.1,0c0,0-0.1,0-0.1,0c0,0,0,0,0-0.1v-4.4c0,0,0,0,0-0.1c0,0,0,0,0.1,0s0.1,0,0.1,0s0.1,0,0.2,0c0.1,0,0.1,0,0.2,0
			c0,0,0.1,0,0.1,0s0,0,0.1,0c0,0,0,0,0,0.1v0.6c0.2-0.3,0.5-0.5,0.7-0.6c0.2-0.1,0.5-0.2,0.7-0.2c0.3,0,0.5,0,0.7,0.1
			c0.2,0.1,0.4,0.2,0.5,0.4s0.2,0.4,0.3,0.6c0.1,0.2,0.1,0.5,0.1,0.8V56z"/>
		<v:paragraph  v:horizAlign="1"></v:paragraph>
		<v:tabList></v:tabList>
	</g>
	<g id="group1580-58_1_" transform="translate(0.375,-25.6729)">
		<g id="group1581-59_1_">
			<g id="group1582-60_1_">
				<g id="group1583-61_1_" transform="translate(3.8518,-6.4617)">
					<g id="shape1584-62_1_">
						<path class="st0" d="M3.6,54.6c-2.3,0.6-3.6,3.1-3,5.7c0.7,2.6,3,4.2,5.3,3.7c2.3-0.6,3.6-3.1,3-5.7C8.3,55.6,5.9,54,3.6,54.6
							z"/>
					</g>
				</g>
				<g id="group1585-64_1_">
					<g id="shape1586-65_1_">
						<path class="st0" d="M12.4,58.2c-0.4,0-0.9,0.8-1.5,1.1c-0.7,0.3-1.3,0.9-3.2,0c-1.9-0.9-2.1-1.7-3.6-1.7
							c-1.5,0-4.1,2.8-4.1,6.9h15.6c0,0-0.2-2.8-1.1-4.2C13.4,58.2,12.9,58.2,12.4,58.2z"/>
					</g>
				</g>
			</g>
		</g>
		<g id="group1587-67_1_" transform="translate(9.0485,-0.85947)">
			<g id="shape1588-68_1_">
				<path class="st5" d="M4.8,54.1H0.7c-0.3,0-0.6,0.3-0.6,0.7v2.8c0,0.3,0.3,0.7,0.8,0.7h0.8v5.2c0,0.6,0.4,1.1,1,1.1s1-0.4,1-1
					c0.1,0,0.2,0,0.2,0s0-0.5,0-0.7c0-0.2,0.3-0.3,0.3-0.3v-0.3c-0.3-0.1-0.5-0.3-0.5-0.4v-0.3c0.1-0.1,0.2-0.2,0.2-0.2
					C3.8,61.1,4,60.7,4,60.7s-0.3-0.4-0.3-0.5c-0.1-0.1-0.1-0.3-0.2-0.4v-0.2c0.1-0.5,0.8-1.1,0.8-1.1h0.5c0.3,0,0.7-0.3,0.7-0.7v-3
					C5.4,54.4,5.2,54.1,4.8,54.1z M2.4,63.7c0,0.2,0,0.3-0.2,0.3C2,64,2,63.8,2,63.7v-4.8c0-0.2,0.1-0.3,0.2-0.3
					c0.2,0,0.2,0.2,0.2,0.3V63.7z M2.7,55.9c-0.3,0-0.7-0.3-0.7-0.7c0-0.3,0.3-0.7,0.7-0.7c0.3,0,0.6,0.3,0.6,0.7
					C3.4,55.5,3.1,55.9,2.7,55.9z"/>
			</g>
			<g id="shape1589-70_1_" transform="translate(1.92482,-0.570755)">
				<path class="st6" d="M0.2,64.5c-0.1,0-0.2-0.1-0.2-0.2v-5c0-0.1,0.1-0.2,0.2-0.2s0.2,0.1,0.2,0.2v5.1
					C0.4,64.5,0.3,64.5,0.2,64.5z"/>
			</g>
			<g id="shape1590-72_1_" transform="translate(2.05993,-8.66317)">
				<ellipse class="st6" cx="0.7" cy="63.9" rx="0.7" ry="0.7"/>
			</g>
		</g>
	</g>
	<g id="Arrow">
		<g id="shape1579-52_2_" transform="translate(73.5133,-41.2635)">
			<g transform="scale(-2.68,-2.68) ">
				<g id="lend5_2_">
					<path class="st7" d="M107.9,67.6l8,4l-8,4C109.2,73.1,109.2,70.1,107.9,67.6"/>
				</g>
			</g>
		</g>
		<path class="st8" d="M182.4,29.5c-45.8,0-104.6,0-107.1,0c-0.2,0-1.7,0.2-1.7,0.8c0,0.6,1.4,0.8,1.5,0.8c6.7,0,9.3,0,15.6,0
			c6.5,0,13.4,0,19.9,0c6.4,0,12.5,0,18.9,0c6.5,0,13.1,0,19.6,0c7.8,0,12.7,0,19.1,0c4.6,0,9.3,0,14,0V29.5z"/>
	</g>
</g>
<g id="txt" xmlns:ev="http://www.w3.org/2001/xml-events" xmlns:v="http://schemas.microsoft.com/visio/2003/SVGExtensions/">
	<g id="group1549-1_2_" transform="translate(43.141,-20.0036)">
		<g id="shape1549-43_2_">
			<g class="st9">
				<path d="M-11.9,77.2c0,0.1,0,0.1,0,0.2s0,0.1,0,0.1s-0.1,0-0.1,0s-0.1,0-0.2,0s-0.2,0-0.2,0s-0.1,0-0.1,0c0,0-0.1,0-0.1,0
					s0,0,0-0.1l-0.5-1.5H-16l-0.5,1.5c0,0,0,0.1,0,0.1c0,0,0,0-0.1,0.1c0,0-0.1,0-0.1,0s-0.1,0-0.2,0c-0.1,0-0.2,0-0.2,0
					c-0.1,0-0.1,0-0.1,0s0-0.1,0-0.1s0-0.1,0-0.2l2.1-5.9c0,0,0-0.1,0.1-0.1s0.1,0,0.1-0.1s0.1,0,0.2,0s0.1,0,0.2,0
					c0.1,0,0.2,0,0.3,0s0.1,0,0.2,0s0.1,0,0.1,0.1s0,0.1,0.1,0.1L-11.9,77.2z M-14.7,72.1L-14.7,72.1l-1.1,3.1h2.2L-14.7,72.1z"/>
				<path d="M-6.9,75.1c0,0.4,0,0.7-0.1,1s-0.2,0.6-0.4,0.8c-0.2,0.2-0.4,0.4-0.6,0.5c-0.2,0.1-0.5,0.2-0.8,0.2c-0.1,0-0.3,0-0.4,0
					s-0.2-0.1-0.3-0.1s-0.2-0.1-0.3-0.2s-0.2-0.2-0.3-0.3v2.2c0,0,0,0,0,0.1s0,0-0.1,0s-0.1,0-0.1,0s-0.1,0-0.2,0
					c-0.1,0-0.1,0-0.2,0s-0.1,0-0.1,0s-0.1,0-0.1,0s0,0,0-0.1V73c0,0,0-0.1,0-0.1c0,0,0,0,0.1,0s0.1,0,0.1,0s0.1,0,0.2,0
					c0.1,0,0.1,0,0.2,0s0.1,0,0.1,0s0,0,0.1,0c0,0,0,0,0,0.1v0.6c0.1-0.1,0.3-0.3,0.4-0.4s0.2-0.2,0.4-0.3c0.1-0.1,0.3-0.1,0.4-0.2
					s0.3-0.1,0.4-0.1c0.3,0,0.6,0.1,0.8,0.2s0.4,0.3,0.5,0.5S-7.1,74-7,74.2C-7,74.5-6.9,74.8-6.9,75.1z M-7.8,75.2
					c0-0.2,0-0.4-0.1-0.7c0-0.2-0.1-0.4-0.2-0.6s-0.2-0.3-0.3-0.4s-0.3-0.1-0.5-0.1c-0.1,0-0.2,0-0.3,0c-0.1,0-0.2,0.1-0.3,0.1
					c-0.1,0.1-0.2,0.2-0.3,0.3c-0.1,0.1-0.2,0.2-0.4,0.4v1.7c0.2,0.3,0.4,0.5,0.6,0.6s0.4,0.2,0.6,0.2c0.2,0,0.4,0,0.5-0.1
					c0.1-0.1,0.3-0.2,0.4-0.4c0.1-0.2,0.2-0.3,0.2-0.5S-7.8,75.4-7.8,75.2z"/>
				<path d="M-4.9,77.4C-4.9,77.4-4.9,77.5-4.9,77.4c0,0.1-0.1,0.1-0.1,0.1s-0.1,0-0.1,0s-0.1,0-0.2,0c-0.1,0-0.1,0-0.2,0
					s-0.1,0-0.1,0s-0.1,0-0.1,0c0,0,0,0,0-0.1v-6.5c0,0,0,0,0-0.1s0,0,0.1,0s0.1,0,0.1,0s0.1,0,0.2,0c0.1,0,0.1,0,0.2,0s0.1,0,0.1,0
					s0.1,0,0.1,0s0,0,0,0.1V77.4z"/>
				<path d="M-2.5,71.5c0,0.2,0,0.3-0.1,0.4S-2.8,72-3,72c-0.2,0-0.3,0-0.4-0.1c-0.1-0.1-0.1-0.2-0.1-0.4c0-0.2,0-0.3,0.1-0.4
					s0.2-0.1,0.4-0.1c0.2,0,0.3,0,0.4,0.1C-2.6,71.2-2.5,71.3-2.5,71.5z M-2.6,77.4C-2.6,77.4-2.6,77.5-2.6,77.4
					c0,0.1-0.1,0.1-0.1,0.1s-0.1,0-0.1,0s-0.1,0-0.2,0c-0.1,0-0.1,0-0.2,0s-0.1,0-0.1,0s-0.1,0-0.1,0c0,0,0,0,0-0.1V73
					c0,0,0,0,0-0.1s0,0,0.1,0s0.1,0,0.1,0s0.1,0,0.2,0c0.1,0,0.1,0,0.2,0s0.1,0,0.1,0s0.1,0,0.1,0s0,0,0,0.1V77.4z"/>
				<path d="M2,76.7c0,0.1,0,0.1,0,0.1c0,0,0,0.1,0,0.1c0,0,0,0.1,0,0.1c0,0,0,0.1-0.1,0.1c0,0-0.1,0.1-0.2,0.2
					c-0.1,0.1-0.2,0.1-0.3,0.2c-0.1,0-0.3,0.1-0.4,0.1s-0.3,0-0.4,0c-0.3,0-0.6-0.1-0.8-0.2s-0.4-0.3-0.6-0.5s-0.3-0.4-0.4-0.7
					c-0.1-0.3-0.1-0.6-0.1-1c0-0.4,0.1-0.8,0.2-1.1c0.1-0.3,0.3-0.6,0.4-0.8s0.4-0.3,0.6-0.4c0.2-0.1,0.5-0.1,0.8-0.1
					c0.1,0,0.3,0,0.4,0s0.3,0.1,0.4,0.1s0.2,0.1,0.3,0.1s0.1,0.1,0.2,0.1s0.1,0.1,0.1,0.1s0,0,0,0.1c0,0,0,0.1,0,0.1
					c0,0,0,0.1,0,0.1c0,0.1,0,0.2,0,0.3C1.9,74,1.9,74,1.9,74c0,0-0.1,0-0.2-0.1s-0.1-0.1-0.2-0.2s-0.2-0.1-0.4-0.2
					s-0.3-0.1-0.5-0.1c-0.4,0-0.7,0.1-0.9,0.4s-0.3,0.7-0.3,1.3c0,0.3,0,0.5,0.1,0.7c0.1,0.2,0.1,0.4,0.2,0.5s0.2,0.3,0.4,0.3
					c0.2,0.1,0.3,0.1,0.5,0.1c0.2,0,0.3,0,0.5-0.1s0.3-0.1,0.4-0.2c0.1-0.1,0.2-0.1,0.3-0.2c0.1-0.1,0.1-0.1,0.2-0.1c0,0,0,0,0.1,0
					s0,0,0,0.1c0,0,0,0.1,0,0.1C2,76.6,2,76.7,2,76.7z"/>
				<path d="M6.3,77.4C6.3,77.5,6.3,77.5,6.3,77.4c-0.1,0.1-0.1,0.1-0.1,0.1s-0.1,0-0.2,0c-0.1,0-0.2,0-0.2,0s-0.1,0-0.1,0
					s0,0,0-0.1V77c-0.2,0.2-0.4,0.4-0.6,0.5s-0.5,0.2-0.7,0.2c-0.2,0-0.4,0-0.6-0.1c-0.2-0.1-0.3-0.1-0.5-0.3S2.9,77,2.8,76.9
					s-0.1-0.4-0.1-0.6c0-0.2,0.1-0.5,0.2-0.6s0.2-0.3,0.4-0.5S3.7,75,4,74.9c0.3-0.1,0.6-0.1,0.9-0.1h0.6v-0.3c0-0.2,0-0.3-0.1-0.4
					s-0.1-0.2-0.2-0.3c-0.1-0.1-0.2-0.2-0.3-0.2s-0.3-0.1-0.5-0.1c-0.2,0-0.4,0-0.5,0.1c-0.2,0-0.3,0.1-0.4,0.2
					c-0.1,0.1-0.2,0.1-0.3,0.2c-0.1,0-0.1,0.1-0.2,0.1c0,0,0,0-0.1,0s0,0-0.1-0.1s0-0.1,0-0.1c0,0,0-0.1,0-0.1c0-0.1,0-0.1,0-0.2
					c0,0,0-0.1,0.1-0.1s0.1-0.1,0.2-0.1C3.4,73.1,3.5,73,3.6,73c0.1,0,0.3-0.1,0.5-0.1c0.2,0,0.3,0,0.5,0c0.3,0,0.6,0,0.8,0.1
					s0.4,0.2,0.5,0.3c0.1,0.1,0.2,0.3,0.3,0.5s0.1,0.4,0.1,0.7V77.4z M5.5,75.4H4.8c-0.2,0-0.4,0-0.6,0.1c-0.2,0-0.3,0.1-0.4,0.2
					s-0.2,0.2-0.2,0.3s-0.1,0.2-0.1,0.4c0,0.2,0.1,0.4,0.2,0.5C3.9,76.9,4.1,77,4.4,77c0.2,0,0.4-0.1,0.6-0.2s0.4-0.3,0.6-0.5V75.4z
					"/>
				<path d="M11,76.7c0,0.1,0,0.1,0,0.1c0,0,0,0.1,0,0.1c0,0,0,0.1,0,0.1c0,0,0,0.1-0.1,0.1c0,0-0.1,0.1-0.2,0.2
					c-0.1,0.1-0.2,0.1-0.3,0.2c-0.1,0-0.3,0.1-0.4,0.1s-0.3,0-0.4,0c-0.3,0-0.6-0.1-0.8-0.2S8.2,77.2,8,77s-0.3-0.4-0.4-0.7
					c-0.1-0.3-0.1-0.6-0.1-1c0-0.4,0.1-0.8,0.2-1.1c0.1-0.3,0.3-0.6,0.4-0.8s0.4-0.3,0.6-0.4c0.2-0.1,0.5-0.1,0.8-0.1
					c0.1,0,0.3,0,0.4,0s0.3,0.1,0.4,0.1s0.2,0.1,0.3,0.1s0.1,0.1,0.2,0.1s0.1,0.1,0.1,0.1s0,0,0,0.1c0,0,0,0.1,0,0.1s0,0.1,0,0.1
					c0,0.1,0,0.2,0,0.3c0,0.1-0.1,0.1-0.1,0.1c0,0-0.1,0-0.2-0.1s-0.1-0.1-0.2-0.2s-0.2-0.1-0.4-0.2s-0.3-0.1-0.5-0.1
					c-0.4,0-0.7,0.1-0.9,0.4s-0.3,0.7-0.3,1.3c0,0.3,0,0.5,0.1,0.7c0.1,0.2,0.1,0.4,0.2,0.5s0.2,0.3,0.4,0.3
					c0.2,0.1,0.3,0.1,0.5,0.1c0.2,0,0.3,0,0.5-0.1s0.3-0.1,0.4-0.2c0.1-0.1,0.2-0.1,0.3-0.2c0.1-0.1,0.1-0.1,0.2-0.1c0,0,0,0,0.1,0
					s0,0,0,0.1c0,0,0,0.1,0,0.1C11,76.6,11,76.7,11,76.7z"/>
				<path d="M12.9,71.5c0,0.2,0,0.3-0.1,0.4S12.6,72,12.4,72c-0.2,0-0.3,0-0.4-0.1c-0.1-0.1-0.1-0.2-0.1-0.4c0-0.2,0-0.3,0.1-0.4
					s0.2-0.1,0.4-0.1c0.2,0,0.3,0,0.4,0.1C12.9,71.2,12.9,71.3,12.9,71.5z M12.8,77.4C12.8,77.4,12.8,77.5,12.8,77.4
					c0,0.1-0.1,0.1-0.1,0.1s-0.1,0-0.1,0s-0.1,0-0.2,0c-0.1,0-0.1,0-0.2,0s-0.1,0-0.1,0s-0.1,0-0.1,0c0,0,0,0,0-0.1V73
					c0,0,0,0,0-0.1s0,0,0.1,0s0.1,0,0.1,0s0.1,0,0.2,0c0.1,0,0.1,0,0.2,0s0.1,0,0.1,0s0.1,0,0.1,0s0,0,0,0.1V77.4z"/>
				<path d="M18.4,75.2c0,0.4,0,0.7-0.1,1c-0.1,0.3-0.2,0.6-0.4,0.8s-0.4,0.4-0.7,0.5c-0.3,0.1-0.6,0.2-1,0.2
					c-0.4,0-0.7-0.1-0.9-0.2s-0.5-0.3-0.7-0.5s-0.3-0.5-0.4-0.7s-0.1-0.6-0.1-1c0-0.4,0-0.7,0.1-1c0.1-0.3,0.2-0.6,0.4-0.8
					s0.4-0.4,0.7-0.5s0.6-0.2,1-0.2c0.4,0,0.7,0.1,0.9,0.2s0.5,0.3,0.7,0.5s0.3,0.5,0.4,0.7S18.4,74.8,18.4,75.2z M17.6,75.2
					c0-0.2,0-0.5-0.1-0.7s-0.1-0.4-0.2-0.6c-0.1-0.2-0.2-0.3-0.4-0.4s-0.4-0.1-0.7-0.1c-0.2,0-0.4,0-0.6,0.1s-0.3,0.2-0.4,0.4
					c-0.1,0.2-0.2,0.3-0.2,0.5s-0.1,0.4-0.1,0.7c0,0.2,0,0.5,0.1,0.7s0.1,0.4,0.2,0.6c0.1,0.2,0.2,0.3,0.4,0.4
					c0.2,0.1,0.4,0.1,0.7,0.1c0.2,0,0.4,0,0.6-0.1c0.2-0.1,0.3-0.2,0.4-0.4s0.2-0.3,0.2-0.5C17.5,75.7,17.6,75.5,17.6,75.2z
					 M16.6,70.9C16.6,70.8,16.7,70.8,16.6,70.9c0.1-0.1,0.1-0.1,0.2-0.1s0.1,0,0.1,0s0.1,0,0.2,0c0.1,0,0.2,0,0.2,0
					c0.1,0,0.1,0,0.1,0c0,0,0,0,0,0.1c0,0,0,0.1,0,0.1L16.6,72c0,0,0,0.1-0.1,0.1s0,0-0.1,0c0,0-0.1,0-0.1,0s-0.1,0-0.2,0
					c-0.1,0-0.1,0-0.2,0s-0.1,0-0.1,0s0,0,0-0.1s0-0.1,0-0.1L16.6,70.9z"/>
				<path d="M23.4,77.4C23.4,77.4,23.4,77.5,23.4,77.4c0,0.1-0.1,0.1-0.1,0.1s-0.1,0-0.1,0s-0.1,0-0.2,0c-0.1,0-0.1,0-0.2,0
					s-0.1,0-0.1,0s-0.1,0-0.1,0c0,0,0,0,0-0.1v-2.6c0-0.3,0-0.5-0.1-0.6s-0.1-0.3-0.2-0.4s-0.2-0.2-0.3-0.3s-0.3-0.1-0.4-0.1
					c-0.2,0-0.4,0.1-0.6,0.2s-0.4,0.4-0.6,0.6v3.1c0,0,0,0,0,0.1c0,0,0,0-0.1,0s-0.1,0-0.1,0s-0.1,0-0.2,0c-0.1,0-0.1,0-0.2,0
					s-0.1,0-0.1,0s-0.1,0-0.1,0c0,0,0,0,0-0.1V73c0,0,0,0,0-0.1c0,0,0,0,0.1,0s0.1,0,0.1,0s0.1,0,0.2,0c0.1,0,0.1,0,0.2,0
					s0.1,0,0.1,0s0,0,0.1,0c0,0,0,0,0,0.1v0.6c0.2-0.3,0.5-0.5,0.7-0.6c0.2-0.1,0.5-0.2,0.7-0.2c0.3,0,0.5,0,0.7,0.1
					c0.2,0.1,0.4,0.2,0.5,0.4s0.2,0.4,0.3,0.6c0.1,0.2,0.1,0.5,0.1,0.8V77.4z"/>
				<path d="M33.3,73C33.3,73,33.3,73.1,33.3,73c0,0.1,0,0.2,0,0.2l-1.3,4.2c0,0,0,0.1,0,0.1s-0.1,0-0.1,0.1s-0.1,0-0.2,0
					s-0.1,0-0.2,0c-0.1,0-0.2,0-0.3,0s-0.1,0-0.2,0s-0.1,0-0.1-0.1s0-0.1,0-0.1l-0.9-3.2l0,0l0,0L29,77.4c0,0,0,0.1,0,0.1
					s-0.1,0-0.1,0.1s-0.1,0-0.2,0s-0.1,0-0.2,0c-0.1,0-0.2,0-0.2,0s-0.1,0-0.2,0s-0.1,0-0.1-0.1s0-0.1,0-0.1l-1.3-4.2
					c0,0,0-0.1,0-0.1s0-0.1,0-0.1c0,0,0-0.1,0-0.1c0,0,0,0,0.1,0c0,0,0.1,0,0.1,0s0.1,0,0.2,0c0.1,0,0.2,0,0.2,0s0.1,0,0.1,0
					c0,0,0.1,0,0.1,0c0,0,0,0,0,0.1l1.1,3.6l0,0l0,0l1-3.6c0,0,0-0.1,0-0.1c0,0,0,0,0.1,0c0,0,0.1,0,0.1,0s0.1,0,0.2,0
					c0.1,0,0.1,0,0.2,0s0.1,0,0.1,0c0,0,0.1,0,0.1,0s0,0,0,0.1l1,3.6l0,0l0,0l1-3.6c0,0,0-0.1,0-0.1c0,0,0,0,0.1,0c0,0,0.1,0,0.1,0
					s0.1,0,0.2,0c0.1,0,0.1,0,0.2,0s0.1,0,0.1,0S33.2,72.9,33.3,73C33.3,73,33.3,73,33.3,73z"/>
				<path d="M37.9,75c0,0.1,0,0.2-0.1,0.3s-0.1,0.1-0.2,0.1h-2.9c0,0.2,0,0.5,0.1,0.7c0,0.2,0.1,0.4,0.2,0.5
					c0.1,0.1,0.3,0.2,0.4,0.3c0.2,0.1,0.4,0.1,0.7,0.1c0.2,0,0.4,0,0.6-0.1s0.3-0.1,0.4-0.1c0.1,0,0.2-0.1,0.3-0.1
					c0.1,0,0.1-0.1,0.2-0.1c0,0,0,0,0.1,0c0,0,0,0,0,0.1s0,0.1,0,0.1c0,0,0,0.1,0,0.1c0,0,0,0.1,0,0.1c0,0,0,0.1,0,0.1s0,0,0,0.1
					s0,0,0,0.1c0,0-0.1,0-0.2,0.1c-0.1,0-0.2,0.1-0.3,0.1s-0.3,0.1-0.5,0.1c-0.2,0-0.4,0-0.6,0c-0.4,0-0.7-0.1-0.9-0.2
					s-0.5-0.3-0.7-0.4s-0.3-0.4-0.4-0.7s-0.1-0.6-0.1-1c0-0.4,0-0.7,0.1-1c0.1-0.3,0.2-0.6,0.4-0.8s0.4-0.4,0.7-0.5s0.6-0.2,0.9-0.2
					c0.3,0,0.6,0.1,0.9,0.2s0.4,0.3,0.6,0.4c0.2,0.2,0.3,0.4,0.3,0.7c0.1,0.3,0.1,0.5,0.1,0.8V75z M37.1,74.8c0-0.4-0.1-0.8-0.3-1
					c-0.2-0.2-0.5-0.4-0.9-0.4c-0.2,0-0.4,0-0.5,0.1c-0.2,0.1-0.3,0.2-0.4,0.3s-0.2,0.3-0.2,0.4c-0.1,0.2-0.1,0.3-0.1,0.5H37.1z"/>
				<path d="M43.2,75.2c0,0.4,0,0.7-0.1,1c-0.1,0.3-0.2,0.6-0.4,0.8s-0.4,0.4-0.6,0.5s-0.5,0.2-0.8,0.2c-0.1,0-0.3,0-0.4,0
					c-0.1,0-0.2-0.1-0.3-0.1s-0.2-0.1-0.3-0.2S40,77,39.9,76.9v0.5c0,0,0,0,0,0.1s0,0-0.1,0c0,0-0.1,0-0.1,0s-0.1,0-0.2,0
					c-0.1,0-0.1,0-0.2,0s-0.1,0-0.1,0c0,0,0,0-0.1,0s0,0,0-0.1v-6.5c0,0,0,0,0-0.1s0,0,0.1,0s0.1,0,0.1,0s0.1,0,0.2,0
					c0.1,0,0.1,0,0.2,0s0.1,0,0.1,0s0.1,0,0.1,0s0,0,0,0.1v2.6c0.1-0.1,0.3-0.2,0.4-0.3s0.2-0.2,0.4-0.2c0.1-0.1,0.2-0.1,0.4-0.1
					s0.2,0,0.4,0c0.3,0,0.6,0.1,0.8,0.2s0.4,0.3,0.6,0.5c0.1,0.2,0.2,0.5,0.3,0.8S43.2,74.8,43.2,75.2z M42.4,75.2
					c0-0.2,0-0.4-0.1-0.7c0-0.2-0.1-0.4-0.2-0.6s-0.2-0.3-0.3-0.4c-0.1-0.1-0.3-0.1-0.5-0.1c-0.1,0-0.2,0-0.3,0
					c-0.1,0-0.2,0.1-0.3,0.1c-0.1,0.1-0.2,0.2-0.3,0.3c-0.1,0.1-0.2,0.2-0.4,0.4v1.8c0.2,0.3,0.4,0.5,0.6,0.6s0.4,0.2,0.6,0.2
					c0.2,0,0.4,0,0.5-0.1c0.1-0.1,0.3-0.2,0.4-0.4c0.1-0.2,0.2-0.3,0.2-0.5S42.4,75.4,42.4,75.2z"/>
				<v:paragraph  v:horizAlign="1"></v:paragraph>
				<v:tabList></v:tabList>
			</g>
		</g>
	</g>
	<g id="shape1578-49_1_" transform="translate(214.796,-21.421)">
		<g class="st9">
			<path d="M-37.9,77.2c0,0.1,0,0.1,0,0.2c0,0,0,0.1,0,0.1c0,0-0.1,0-0.1,0c-0.1,0-0.1,0-0.2,0c-0.1,0-0.2,0-0.2,0
				c-0.1,0-0.1,0-0.1,0c0,0-0.1,0-0.1,0s0,0,0-0.1l-0.5-1.5H-42l-0.5,1.5c0,0,0,0.1,0,0.1c0,0,0,0-0.1,0.1c0,0-0.1,0-0.1,0
				c-0.1,0-0.1,0-0.2,0c-0.1,0-0.2,0-0.2,0c-0.1,0-0.1,0-0.1,0s0-0.1,0-0.1c0,0,0-0.1,0-0.2l2.1-5.9c0,0,0-0.1,0.1-0.1
				c0,0,0.1,0,0.1-0.1c0,0,0.1,0,0.2,0s0.1,0,0.2,0c0.1,0,0.2,0,0.3,0s0.1,0,0.2,0c0,0,0.1,0,0.1,0.1c0,0,0,0.1,0.1,0.1L-37.9,77.2z
				 M-40.7,72.1L-40.7,72.1l-1.1,3.1h2.2L-40.7,72.1z"/>
			<path d="M-32.9,75.1c0,0.4,0,0.7-0.1,1s-0.2,0.6-0.4,0.8c-0.2,0.2-0.4,0.4-0.6,0.5c-0.2,0.1-0.5,0.2-0.8,0.2c-0.1,0-0.3,0-0.4,0
				c-0.1,0-0.2-0.1-0.3-0.1c-0.1-0.1-0.2-0.1-0.3-0.2c-0.1-0.1-0.2-0.2-0.3-0.3v2.2c0,0,0,0,0,0.1c0,0,0,0-0.1,0s-0.1,0-0.1,0
				c-0.1,0-0.1,0-0.2,0c-0.1,0-0.1,0-0.2,0c-0.1,0-0.1,0-0.1,0c0,0-0.1,0-0.1,0c0,0,0,0,0-0.1V73c0,0,0-0.1,0-0.1c0,0,0,0,0.1,0
				s0.1,0,0.1,0c0,0,0.1,0,0.2,0c0.1,0,0.1,0,0.2,0s0.1,0,0.1,0s0,0,0.1,0c0,0,0,0,0,0.1v0.6c0.1-0.1,0.3-0.3,0.4-0.4
				c0.1-0.1,0.2-0.2,0.4-0.3c0.1-0.1,0.3-0.1,0.4-0.2s0.3-0.1,0.4-0.1c0.3,0,0.6,0.1,0.8,0.2s0.4,0.3,0.5,0.5s0.2,0.5,0.3,0.7
				C-33,74.5-32.9,74.8-32.9,75.1z M-33.8,75.2c0-0.2,0-0.4-0.1-0.7c0-0.2-0.1-0.4-0.2-0.6c-0.1-0.2-0.2-0.3-0.3-0.4
				s-0.3-0.1-0.5-0.1c-0.1,0-0.2,0-0.3,0c-0.1,0-0.2,0.1-0.3,0.1c-0.1,0.1-0.2,0.2-0.3,0.3c-0.1,0.1-0.2,0.2-0.4,0.4v1.7
				c0.2,0.3,0.4,0.5,0.6,0.6c0.2,0.1,0.4,0.2,0.6,0.2c0.2,0,0.4,0,0.5-0.1s0.3-0.2,0.4-0.4s0.2-0.3,0.2-0.5
				C-33.8,75.6-33.8,75.4-33.8,75.2z"/>
			<path d="M-30.9,77.4C-30.9,77.4-30.9,77.5-30.9,77.4c0,0.1-0.1,0.1-0.1,0.1s-0.1,0-0.1,0c-0.1,0-0.1,0-0.2,0c-0.1,0-0.1,0-0.2,0
				c-0.1,0-0.1,0-0.1,0c0,0-0.1,0-0.1,0c0,0,0,0,0-0.1v-6.5c0,0,0,0,0-0.1c0,0,0,0,0.1,0c0,0,0.1,0,0.1,0c0.1,0,0.1,0,0.2,0
				c0.1,0,0.1,0,0.2,0c0.1,0,0.1,0,0.1,0s0.1,0,0.1,0c0,0,0,0,0,0.1V77.4z"/>
			<path d="M-28.5,71.5c0,0.2,0,0.3-0.1,0.4C-28.7,72-28.8,72-29,72c-0.2,0-0.3,0-0.4-0.1c-0.1-0.1-0.1-0.2-0.1-0.4
				c0-0.2,0-0.3,0.1-0.4c0.1-0.1,0.2-0.1,0.4-0.1c0.2,0,0.3,0,0.4,0.1C-28.6,71.2-28.5,71.3-28.5,71.5z M-28.6,77.4
				C-28.6,77.4-28.6,77.5-28.6,77.4c0,0.1-0.1,0.1-0.1,0.1s-0.1,0-0.1,0c-0.1,0-0.1,0-0.2,0c-0.1,0-0.1,0-0.2,0c-0.1,0-0.1,0-0.1,0
				c0,0-0.1,0-0.1,0c0,0,0,0,0-0.1V73c0,0,0,0,0-0.1c0,0,0,0,0.1,0c0,0,0.1,0,0.1,0c0.1,0,0.1,0,0.2,0c0.1,0,0.1,0,0.2,0
				c0.1,0,0.1,0,0.1,0s0.1,0,0.1,0c0,0,0,0,0,0.1V77.4z"/>
			<path d="M-24,76.7c0,0.1,0,0.1,0,0.1c0,0,0,0.1,0,0.1c0,0,0,0.1,0,0.1c0,0,0,0.1-0.1,0.1c0,0-0.1,0.1-0.2,0.2
				c-0.1,0.1-0.2,0.1-0.3,0.2c-0.1,0-0.3,0.1-0.4,0.1c-0.1,0-0.3,0-0.4,0c-0.3,0-0.6-0.1-0.8-0.2s-0.4-0.3-0.6-0.5
				c-0.2-0.2-0.3-0.4-0.4-0.7c-0.1-0.3-0.1-0.6-0.1-1c0-0.4,0.1-0.8,0.2-1.1c0.1-0.3,0.3-0.6,0.4-0.8c0.2-0.2,0.4-0.3,0.6-0.4
				c0.2-0.1,0.5-0.1,0.8-0.1c0.1,0,0.3,0,0.4,0s0.3,0.1,0.4,0.1c0.1,0,0.2,0.1,0.3,0.1c0.1,0.1,0.1,0.1,0.2,0.1s0.1,0.1,0.1,0.1
				s0,0,0,0.1c0,0,0,0.1,0,0.1c0,0,0,0.1,0,0.1c0,0.1,0,0.2,0,0.3c0,0.1-0.1,0.1-0.1,0.1c0,0-0.1,0-0.2-0.1s-0.1-0.1-0.2-0.2
				s-0.2-0.1-0.4-0.2c-0.1-0.1-0.3-0.1-0.5-0.1c-0.4,0-0.7,0.1-0.9,0.4c-0.2,0.3-0.3,0.7-0.3,1.3c0,0.3,0,0.5,0.1,0.7
				c0.1,0.2,0.1,0.4,0.2,0.5c0.1,0.1,0.2,0.3,0.4,0.3c0.2,0.1,0.3,0.1,0.5,0.1c0.2,0,0.3,0,0.5-0.1c0.1-0.1,0.3-0.1,0.4-0.2
				c0.1-0.1,0.2-0.1,0.3-0.2c0.1-0.1,0.1-0.1,0.2-0.1c0,0,0,0,0.1,0c0,0,0,0,0,0.1c0,0,0,0.1,0,0.1C-24,76.6-24,76.7-24,76.7z"/>
			<path d="M-19.7,77.4C-19.7,77.5-19.7,77.5-19.7,77.4c-0.1,0.1-0.1,0.1-0.1,0.1c0,0-0.1,0-0.2,0c-0.1,0-0.2,0-0.2,0
				c-0.1,0-0.1,0-0.1,0c0,0,0,0,0-0.1V77c-0.2,0.2-0.4,0.4-0.6,0.5c-0.2,0.1-0.5,0.2-0.8,0.2c-0.2,0-0.4,0-0.6-0.1
				c-0.2-0.1-0.3-0.1-0.5-0.3s-0.2-0.3-0.3-0.4s-0.1-0.4-0.1-0.6c0-0.2,0.1-0.5,0.2-0.6c0.1-0.2,0.2-0.3,0.4-0.5
				c0.2-0.1,0.4-0.2,0.7-0.3c0.3-0.1,0.6-0.1,0.9-0.1h0.6v-0.3c0-0.2,0-0.3-0.1-0.4c0-0.1-0.1-0.2-0.2-0.3c-0.1-0.1-0.2-0.2-0.3-0.2
				s-0.3-0.1-0.5-0.1c-0.2,0-0.4,0-0.5,0.1c-0.2,0-0.3,0.1-0.4,0.2c-0.1,0.1-0.2,0.1-0.3,0.2c-0.1,0-0.1,0.1-0.2,0.1c0,0,0,0-0.1,0
				s0,0-0.1-0.1s0-0.1,0-0.1c0,0,0-0.1,0-0.1c0-0.1,0-0.1,0-0.2c0,0,0-0.1,0.1-0.1s0.1-0.1,0.2-0.1c0.1-0.1,0.2-0.1,0.4-0.2
				c0.1,0,0.3-0.1,0.5-0.1c0.2,0,0.3,0,0.5,0c0.3,0,0.6,0,0.8,0.1c0.2,0.1,0.4,0.2,0.5,0.3c0.1,0.1,0.2,0.3,0.3,0.5
				c0.1,0.2,0.1,0.4,0.1,0.7V77.4z M-20.5,75.4h-0.7c-0.2,0-0.4,0-0.6,0.1c-0.2,0-0.3,0.1-0.4,0.2s-0.2,0.2-0.2,0.3
				c-0.1,0.1-0.1,0.2-0.1,0.4c0,0.2,0.1,0.4,0.2,0.5c0.1,0.1,0.3,0.2,0.6,0.2c0.2,0,0.4-0.1,0.6-0.2s0.4-0.3,0.6-0.5V75.4z"/>
			<path d="M-15,76.7c0,0.1,0,0.1,0,0.1c0,0,0,0.1,0,0.1c0,0,0,0.1,0,0.1c0,0,0,0.1-0.1,0.1c0,0-0.1,0.1-0.2,0.2
				c-0.1,0.1-0.2,0.1-0.3,0.2c-0.1,0-0.3,0.1-0.4,0.1c-0.1,0-0.3,0-0.4,0c-0.3,0-0.6-0.1-0.8-0.2s-0.4-0.3-0.6-0.5
				c-0.2-0.2-0.3-0.4-0.4-0.7c-0.1-0.3-0.1-0.6-0.1-1c0-0.4,0.1-0.8,0.2-1.1c0.1-0.3,0.3-0.6,0.4-0.8c0.2-0.2,0.4-0.3,0.6-0.4
				c0.2-0.1,0.5-0.1,0.8-0.1c0.1,0,0.3,0,0.4,0s0.3,0.1,0.4,0.1c0.1,0,0.2,0.1,0.3,0.1c0.1,0.1,0.1,0.1,0.2,0.1s0.1,0.1,0.1,0.1
				s0,0,0,0.1c0,0,0,0.1,0,0.1c0,0,0,0.1,0,0.1c0,0.1,0,0.2,0,0.3c0,0.1-0.1,0.1-0.1,0.1c0,0-0.1,0-0.2-0.1s-0.1-0.1-0.2-0.2
				s-0.2-0.1-0.4-0.2c-0.1-0.1-0.3-0.1-0.5-0.1c-0.4,0-0.7,0.1-0.9,0.4c-0.2,0.3-0.3,0.7-0.3,1.3c0,0.3,0,0.5,0.1,0.7
				c0.1,0.2,0.1,0.4,0.2,0.5c0.1,0.1,0.2,0.3,0.4,0.3c0.2,0.1,0.3,0.1,0.5,0.1c0.2,0,0.3,0,0.5-0.1c0.1-0.1,0.3-0.1,0.4-0.2
				c0.1-0.1,0.2-0.1,0.3-0.2c0.1-0.1,0.1-0.1,0.2-0.1c0,0,0,0,0.1,0c0,0,0,0,0,0.1c0,0,0,0.1,0,0.1C-15,76.6-15,76.7-15,76.7z"/>
			<path d="M-13.1,71.5c0,0.2,0,0.3-0.1,0.4c-0.1,0.1-0.2,0.1-0.4,0.1c-0.2,0-0.3,0-0.4-0.1c-0.1-0.1-0.1-0.2-0.1-0.4
				c0-0.2,0-0.3,0.1-0.4c0.1-0.1,0.2-0.1,0.4-0.1c0.2,0,0.3,0,0.4,0.1C-13.1,71.2-13.1,71.3-13.1,71.5z M-13.2,77.4
				C-13.2,77.4-13.2,77.5-13.2,77.4c0,0.1-0.1,0.1-0.1,0.1s-0.1,0-0.1,0c-0.1,0-0.1,0-0.2,0c-0.1,0-0.1,0-0.2,0c-0.1,0-0.1,0-0.1,0
				c0,0-0.1,0-0.1,0c0,0,0,0,0-0.1V73c0,0,0,0,0-0.1c0,0,0,0,0.1,0c0,0,0.1,0,0.1,0c0.1,0,0.1,0,0.2,0c0.1,0,0.1,0,0.2,0
				c0.1,0,0.1,0,0.1,0s0.1,0,0.1,0c0,0,0,0,0,0.1V77.4z"/>
			<path d="M-7.6,75.2c0,0.4,0,0.7-0.1,1c-0.1,0.3-0.2,0.6-0.4,0.8c-0.2,0.2-0.4,0.4-0.7,0.5c-0.3,0.1-0.6,0.2-1,0.2
				c-0.4,0-0.7-0.1-0.9-0.2s-0.5-0.3-0.7-0.5c-0.2-0.2-0.3-0.5-0.4-0.7s-0.1-0.6-0.1-1c0-0.4,0-0.7,0.1-1c0.1-0.3,0.2-0.6,0.4-0.8
				c0.2-0.2,0.4-0.4,0.7-0.5c0.3-0.1,0.6-0.2,1-0.2c0.4,0,0.7,0.1,0.9,0.2s0.5,0.3,0.7,0.5c0.2,0.2,0.3,0.5,0.4,0.7
				C-7.6,74.5-7.6,74.8-7.6,75.2z M-8.4,75.2c0-0.2,0-0.5-0.1-0.7c0-0.2-0.1-0.4-0.2-0.6c-0.1-0.2-0.2-0.3-0.4-0.4
				c-0.2-0.1-0.4-0.1-0.7-0.1c-0.2,0-0.4,0-0.6,0.1c-0.2,0.1-0.3,0.2-0.4,0.4c-0.1,0.2-0.2,0.3-0.2,0.5c-0.1,0.2-0.1,0.4-0.1,0.7
				c0,0.2,0,0.5,0.1,0.7c0,0.2,0.1,0.4,0.2,0.6c0.1,0.2,0.2,0.3,0.4,0.4c0.2,0.1,0.4,0.1,0.7,0.1c0.2,0,0.4,0,0.6-0.1
				c0.2-0.1,0.3-0.2,0.4-0.4c0.1-0.2,0.2-0.3,0.2-0.5C-8.4,75.7-8.4,75.5-8.4,75.2z M-9.4,70.9C-9.4,70.8-9.3,70.8-9.4,70.9
				c0.1-0.1,0.1-0.1,0.2-0.1c0,0,0.1,0,0.1,0c0.1,0,0.1,0,0.2,0c0.1,0,0.2,0,0.2,0c0.1,0,0.1,0,0.1,0c0,0,0,0,0,0.1c0,0,0,0.1,0,0.1
				L-9.4,72c0,0,0,0.1-0.1,0.1c0,0,0,0-0.1,0c0,0-0.1,0-0.1,0s-0.1,0-0.2,0c-0.1,0-0.1,0-0.2,0c0,0-0.1,0-0.1,0c0,0,0,0,0-0.1
				s0-0.1,0-0.1L-9.4,70.9z"/>
			<path d="M-2.6,77.4C-2.6,77.4-2.6,77.5-2.6,77.4c0,0.1-0.1,0.1-0.1,0.1s-0.1,0-0.1,0c-0.1,0-0.1,0-0.2,0c-0.1,0-0.1,0-0.2,0
				c-0.1,0-0.1,0-0.1,0s0,0-0.1,0c0,0,0,0,0-0.1v-2.6c0-0.3,0-0.5-0.1-0.6s-0.1-0.3-0.2-0.4c-0.1-0.1-0.2-0.2-0.3-0.3
				c-0.1-0.1-0.3-0.1-0.4-0.1c-0.2,0-0.4,0.1-0.6,0.2c-0.2,0.1-0.4,0.4-0.6,0.6v3.1c0,0,0,0,0,0.1c0,0,0,0-0.1,0s-0.1,0-0.1,0
				c-0.1,0-0.1,0-0.2,0c-0.1,0-0.1,0-0.2,0c-0.1,0-0.1,0-0.1,0c0,0-0.1,0-0.1,0c0,0,0,0,0-0.1V73c0,0,0,0,0-0.1c0,0,0,0,0.1,0
				s0.1,0,0.1,0c0,0,0.1,0,0.2,0c0.1,0,0.1,0,0.2,0c0,0,0.1,0,0.1,0c0,0,0,0,0.1,0c0,0,0,0,0,0.1v0.6c0.2-0.3,0.5-0.5,0.7-0.6
				c0.2-0.1,0.5-0.2,0.7-0.2c0.3,0,0.5,0,0.7,0.1c0.2,0.1,0.4,0.2,0.5,0.4c0.1,0.2,0.2,0.4,0.3,0.6c0.1,0.2,0.1,0.5,0.1,0.8V77.4z"
				/>
			<path d="M4.9,77.4C4.9,77.4,4.9,77.5,4.9,77.4c0,0.1,0,0.1-0.1,0.1c0,0-0.1,0-0.1,0c0,0-0.1,0-0.2,0c-0.1,0-0.1,0-0.2,0
				c0,0-0.1,0-0.1,0c0,0,0,0-0.1,0c0,0,0,0,0-0.1v-0.6c-0.2,0.3-0.5,0.4-0.7,0.6s-0.5,0.2-0.8,0.2c-0.3,0-0.6-0.1-0.8-0.2
				c-0.2-0.1-0.4-0.3-0.6-0.5c-0.1-0.2-0.2-0.5-0.3-0.8c-0.1-0.3-0.1-0.6-0.1-0.9c0-0.4,0-0.7,0.1-1c0.1-0.3,0.2-0.6,0.4-0.8
				c0.2-0.2,0.4-0.4,0.6-0.5c0.2-0.1,0.5-0.2,0.8-0.2c0.3,0,0.5,0.1,0.7,0.2c0.2,0.1,0.4,0.3,0.6,0.5v-2.6c0,0,0,0,0-0.1
				c0,0,0,0,0.1,0c0,0,0.1,0,0.1,0c0,0,0.1,0,0.2,0c0.1,0,0.1,0,0.2,0c0.1,0,0.1,0,0.1,0c0,0,0.1,0,0.1,0c0,0,0,0,0,0.1V77.4z
				 M4.1,74.3c-0.2-0.3-0.4-0.5-0.6-0.6c-0.2-0.1-0.4-0.2-0.6-0.2c-0.2,0-0.4,0-0.5,0.1C2.1,73.7,2,73.9,1.9,74
				c-0.1,0.2-0.2,0.3-0.2,0.5c0,0.2-0.1,0.4-0.1,0.6c0,0.2,0,0.4,0.1,0.6s0.1,0.4,0.2,0.6c0.1,0.2,0.2,0.3,0.3,0.4
				c0.1,0.1,0.3,0.1,0.5,0.1c0.1,0,0.2,0,0.3,0c0.1,0,0.2-0.1,0.3-0.1c0.1-0.1,0.2-0.2,0.3-0.3c0.1-0.1,0.2-0.2,0.4-0.4V74.3z"/>
			<path d="M10.1,75c0,0.1,0,0.2-0.1,0.3c-0.1,0.1-0.1,0.1-0.2,0.1H6.9c0,0.2,0,0.5,0.1,0.7c0,0.2,0.1,0.4,0.2,0.5s0.3,0.2,0.4,0.3
				S8.1,77,8.3,77c0.2,0,0.4,0,0.6-0.1c0.2,0,0.3-0.1,0.4-0.1c0.1,0,0.2-0.1,0.3-0.1s0.1-0.1,0.2-0.1c0,0,0,0,0.1,0c0,0,0,0,0,0.1
				s0,0.1,0,0.1c0,0,0,0.1,0,0.1c0,0,0,0.1,0,0.1c0,0,0,0.1,0,0.1s0,0,0,0.1c0,0,0,0,0,0.1c0,0-0.1,0-0.2,0.1
				c-0.1,0-0.2,0.1-0.3,0.1c-0.1,0-0.3,0.1-0.5,0.1c-0.2,0-0.4,0-0.6,0c-0.4,0-0.7-0.1-0.9-0.2c-0.3-0.1-0.5-0.3-0.7-0.4
				s-0.3-0.4-0.4-0.7c-0.1-0.3-0.1-0.6-0.1-1c0-0.4,0-0.7,0.1-1c0.1-0.3,0.2-0.6,0.4-0.8c0.2-0.2,0.4-0.4,0.7-0.5
				c0.3-0.1,0.6-0.2,0.9-0.2c0.3,0,0.6,0.1,0.9,0.2c0.2,0.1,0.4,0.3,0.6,0.4c0.2,0.2,0.3,0.4,0.3,0.7c0.1,0.3,0.1,0.5,0.1,0.8V75z
				 M9.3,74.8c0-0.4-0.1-0.8-0.3-1s-0.5-0.4-0.9-0.4c-0.2,0-0.4,0-0.5,0.1c-0.2,0.1-0.3,0.2-0.4,0.3S7.1,74.1,7,74.3
				c-0.1,0.2-0.1,0.3-0.1,0.5H9.3z"/>
			<path d="M18.4,77.2c0,0.1,0,0.1,0,0.2c0,0,0,0.1,0,0.1c0,0-0.1,0-0.1,0c-0.1,0-0.1,0-0.2,0c-0.1,0-0.2,0-0.2,0
				c-0.1,0-0.1,0-0.1,0c0,0-0.1,0-0.1,0s0,0,0-0.1L17,75.9h-2.6l-0.5,1.5c0,0,0,0.1,0,0.1c0,0,0,0-0.1,0.1c0,0-0.1,0-0.1,0
				c-0.1,0-0.1,0-0.2,0c-0.1,0-0.2,0-0.2,0c-0.1,0-0.1,0-0.1,0s0-0.1,0-0.1c0,0,0-0.1,0-0.2l2.1-5.9c0,0,0-0.1,0.1-0.1
				c0,0,0.1,0,0.1-0.1c0,0,0.1,0,0.2,0s0.1,0,0.2,0c0.1,0,0.2,0,0.3,0s0.1,0,0.2,0c0,0,0.1,0,0.1,0.1c0,0,0,0.1,0.1,0.1L18.4,77.2z
				 M15.7,72.1L15.7,72.1l-1.1,3.1h2.2L15.7,72.1z"/>
			<path d="M23.4,73.1c0,0.3-0.1,0.6-0.2,0.9c-0.1,0.3-0.3,0.5-0.4,0.6c-0.2,0.2-0.4,0.3-0.7,0.4c-0.3,0.1-0.6,0.1-1,0.1h-0.7v2.3
				c0,0,0,0,0,0.1s0,0-0.1,0c0,0-0.1,0-0.1,0c-0.1,0-0.1,0-0.2,0c-0.1,0-0.1,0-0.2,0c-0.1,0-0.1,0-0.1,0c0,0-0.1,0-0.1,0
				c0,0,0,0,0-0.1v-5.8c0-0.1,0-0.2,0.1-0.3s0.1-0.1,0.2-0.1h1.4c0.1,0,0.3,0,0.4,0c0.1,0,0.3,0,0.4,0.1c0.2,0,0.3,0.1,0.5,0.2
				c0.2,0.1,0.3,0.2,0.5,0.4c0.1,0.1,0.2,0.3,0.3,0.5C23.3,72.6,23.4,72.8,23.4,73.1z M22.5,73.1c0-0.3,0-0.5-0.1-0.6
				c-0.1-0.2-0.2-0.3-0.4-0.4s-0.3-0.1-0.4-0.2s-0.3,0-0.4,0h-0.8v2.5h0.8c0.3,0,0.5,0,0.6-0.1c0.2-0.1,0.3-0.2,0.4-0.3
				c0.1-0.1,0.2-0.3,0.3-0.4S22.5,73.3,22.5,73.1z"/>
			<path d="M25.5,77.4C25.5,77.4,25.5,77.5,25.5,77.4c0,0.1-0.1,0.1-0.1,0.1c0,0-0.1,0-0.1,0c-0.1,0-0.1,0-0.2,0c-0.1,0-0.1,0-0.2,0
				c-0.1,0-0.1,0-0.1,0c0,0-0.1,0-0.1,0c0,0,0,0,0-0.1v-6.1c0,0,0,0,0-0.1s0,0,0.1,0c0,0,0.1,0,0.1,0c0.1,0,0.1,0,0.2,0
				c0.1,0,0.1,0,0.2,0c0.1,0,0.1,0,0.1,0c0,0,0.1,0,0.1,0c0,0,0,0,0,0.1V77.4z"/>
			<v:paragraph  v:horizAlign="1"></v:paragraph>
			<v:tabList></v:tabList>
		</g>
	</g>
	<g>
		<rect x="107.8" y="1.9" class="st10" width="73.6" height="36.3"/>
		<path class="st11" d="M118,2.7c0,0.1,0,0.1,0,0.2s0,0.1,0,0.1s0,0-0.1,0.1c0,0,0,0-0.1,0h-2.3v2.1h2.2c0,0,0,0,0.1,0
			c0,0,0,0,0.1,0.1s0,0.1,0,0.1c0,0,0,0.1,0,0.2c0,0.1,0,0.1,0,0.2s0,0.1,0,0.1c0,0,0,0-0.1,0.1c0,0,0,0-0.1,0h-2.2v2.6
			c0,0,0,0,0,0.1c0,0,0,0-0.1,0c0,0-0.1,0-0.1,0c-0.1,0-0.1,0-0.2,0c-0.1,0-0.1,0-0.2,0c-0.1,0-0.1,0-0.1,0c0,0-0.1,0-0.1,0
			c0,0,0,0,0-0.1V2.7c0-0.1,0-0.2,0.1-0.3c0.1-0.1,0.1-0.1,0.2-0.1h2.8c0,0,0,0,0.1,0c0,0,0,0,0.1,0.1s0,0.1,0,0.1S118,2.7,118,2.7z
			"/>
		<path class="st11" d="M120,8.6C120,8.6,120,8.6,120,8.6c0,0.1-0.1,0.1-0.1,0.1s-0.1,0-0.1,0s-0.1,0-0.2,0c-0.1,0-0.1,0-0.2,0
			s-0.1,0-0.1,0c0,0-0.1,0-0.1,0c0,0,0,0,0-0.1V2c0,0,0,0,0-0.1c0,0,0,0,0.1,0c0,0,0.1,0,0.1,0s0.1,0,0.2,0c0.1,0,0.1,0,0.2,0
			s0.1,0,0.1,0s0.1,0,0.1,0s0,0,0,0.1V8.6z"/>
		<path class="st11" d="M125.3,8.6C125.3,8.6,125.3,8.6,125.3,8.6c0,0.1,0,0.1-0.1,0.1s-0.1,0-0.1,0c0,0-0.1,0-0.2,0
			c-0.1,0-0.1,0-0.2,0c0,0-0.1,0-0.1,0c0,0,0,0-0.1,0c0,0,0,0,0-0.1V8c-0.3,0.3-0.5,0.5-0.7,0.6s-0.5,0.2-0.7,0.2
			c-0.3,0-0.5,0-0.7-0.1s-0.4-0.2-0.5-0.4c-0.1-0.2-0.2-0.4-0.3-0.6c-0.1-0.2-0.1-0.5-0.1-0.8V4.2c0,0,0,0,0-0.1c0,0,0,0,0.1,0
			s0.1,0,0.1,0s0.1,0,0.2,0s0.1,0,0.2,0s0.1,0,0.1,0c0,0,0.1,0,0.1,0s0,0,0,0.1v2.6c0,0.3,0,0.5,0.1,0.6c0,0.2,0.1,0.3,0.2,0.4
			c0.1,0.1,0.2,0.2,0.3,0.3c0.1,0.1,0.3,0.1,0.4,0.1c0.2,0,0.4-0.1,0.6-0.2s0.4-0.4,0.6-0.6V4.2c0,0,0,0,0-0.1c0,0,0,0,0.1,0
			s0.1,0,0.1,0c0,0,0.1,0,0.2,0c0.1,0,0.1,0,0.2,0s0.1,0,0.1,0s0.1,0,0.1,0s0,0,0,0.1V8.6z"/>
		<path class="st11" d="M127.7,8.8c0,0.3,0,0.6-0.1,0.8s-0.1,0.4-0.2,0.5s-0.2,0.2-0.4,0.3c-0.2,0.1-0.4,0.1-0.6,0.1
			c-0.1,0-0.2,0-0.3,0s-0.1,0-0.2,0s-0.1,0-0.1-0.1c0,0,0,0,0-0.1c0,0,0-0.1,0-0.1c0,0,0-0.1,0-0.1c0-0.1,0-0.1,0-0.2s0-0.1,0-0.1
			c0,0,0,0,0-0.1c0,0,0,0,0.1,0c0,0,0.1,0,0.1,0c0.1,0,0.1,0,0.2,0c0.1,0,0.2,0,0.3,0c0.1,0,0.1-0.1,0.2-0.2s0.1-0.2,0.1-0.3
			s0-0.3,0-0.5V4.2c0,0,0,0,0-0.1s0,0,0.1,0c0,0,0.1,0,0.1,0s0.1,0,0.2,0s0.1,0,0.2,0s0.1,0,0.1,0c0,0,0.1,0,0.1,0s0,0,0,0.1V8.8z
			 M127.7,2.7c0,0.2,0,0.3-0.1,0.4s-0.2,0.1-0.4,0.1c-0.2,0-0.3,0-0.4-0.1s-0.1-0.2-0.1-0.4c0-0.2,0-0.3,0.1-0.4
			c0.1-0.1,0.2-0.1,0.4-0.1s0.3,0,0.4,0.1S127.7,2.5,127.7,2.7z"/>
		<path class="st11" d="M133.2,6.3c0,0.4,0,0.7-0.1,1c-0.1,0.3-0.2,0.6-0.4,0.8c-0.2,0.2-0.4,0.4-0.7,0.5c-0.3,0.1-0.6,0.2-1,0.2
			c-0.4,0-0.7-0.1-0.9-0.2s-0.5-0.3-0.7-0.5s-0.3-0.5-0.4-0.7s-0.1-0.6-0.1-1c0-0.4,0-0.7,0.1-1c0.1-0.3,0.2-0.6,0.4-0.8
			c0.2-0.2,0.4-0.4,0.7-0.5s0.6-0.2,1-0.2c0.4,0,0.7,0.1,0.9,0.2s0.5,0.3,0.7,0.5s0.3,0.5,0.4,0.7C133.2,5.6,133.2,5.9,133.2,6.3z
			 M132.4,6.4c0-0.2,0-0.5-0.1-0.7c0-0.2-0.1-0.4-0.2-0.6c-0.1-0.2-0.2-0.3-0.4-0.4c-0.2-0.1-0.4-0.1-0.7-0.1c-0.2,0-0.4,0-0.6,0.1
			c-0.2,0.1-0.3,0.2-0.4,0.4s-0.2,0.3-0.2,0.5c-0.1,0.2-0.1,0.4-0.1,0.7c0,0.2,0,0.5,0.1,0.7c0,0.2,0.1,0.4,0.2,0.6
			c0.1,0.2,0.2,0.3,0.4,0.4c0.2,0.1,0.4,0.1,0.7,0.1c0.2,0,0.4,0,0.6-0.1s0.3-0.2,0.4-0.4s0.2-0.3,0.2-0.5S132.4,6.6,132.4,6.4z"/>
		<path class="st11" d="M140.4,8.6C140.4,8.6,140.4,8.6,140.4,8.6c0,0.1,0,0.1-0.1,0.1c0,0-0.1,0-0.1,0s-0.1,0-0.2,0
			c-0.1,0-0.1,0-0.2,0s-0.1,0-0.1,0c0,0-0.1,0-0.1,0s0,0,0-0.1V8c-0.2,0.3-0.5,0.4-0.7,0.6s-0.5,0.2-0.8,0.2c-0.3,0-0.6-0.1-0.8-0.2
			c-0.2-0.1-0.4-0.3-0.6-0.5c-0.1-0.2-0.2-0.5-0.3-0.8s-0.1-0.6-0.1-0.9c0-0.4,0-0.7,0.1-1c0.1-0.3,0.2-0.6,0.4-0.8s0.4-0.4,0.6-0.5
			c0.2-0.1,0.5-0.2,0.8-0.2c0.3,0,0.5,0.1,0.7,0.2c0.2,0.1,0.4,0.3,0.6,0.5V2.1c0,0,0,0,0-0.1c0,0,0,0,0.1,0s0.1,0,0.1,0
			c0,0,0.1,0,0.2,0c0.1,0,0.1,0,0.2,0s0.1,0,0.1,0s0.1,0,0.1,0s0,0,0,0.1V8.6z M139.6,5.5c-0.2-0.3-0.4-0.5-0.6-0.6
			c-0.2-0.1-0.4-0.2-0.6-0.2c-0.2,0-0.4,0-0.5,0.1s-0.3,0.2-0.3,0.4c-0.1,0.2-0.2,0.3-0.2,0.5c0,0.2-0.1,0.4-0.1,0.6
			c0,0.2,0,0.4,0.1,0.6s0.1,0.4,0.2,0.6c0.1,0.2,0.2,0.3,0.3,0.4c0.1,0.1,0.3,0.1,0.5,0.1c0.1,0,0.2,0,0.3,0c0.1,0,0.2-0.1,0.3-0.1
			s0.2-0.2,0.3-0.3c0.1-0.1,0.2-0.2,0.4-0.4V5.5z"/>
		<path class="st11" d="M145.7,6.2c0,0.1,0,0.2-0.1,0.3s-0.1,0.1-0.2,0.1h-2.9c0,0.2,0,0.5,0.1,0.7c0,0.2,0.1,0.4,0.2,0.5
			c0.1,0.1,0.3,0.2,0.4,0.3c0.2,0.1,0.4,0.1,0.7,0.1c0.2,0,0.4,0,0.6-0.1c0.2,0,0.3-0.1,0.4-0.1c0.1,0,0.2-0.1,0.3-0.1
			s0.1-0.1,0.2-0.1c0,0,0,0,0.1,0c0,0,0,0,0,0.1s0,0.1,0,0.1c0,0,0,0.1,0,0.1c0,0,0,0.1,0,0.1c0,0,0,0.1,0,0.1s0,0,0,0.1
			c0,0,0,0,0,0.1c0,0-0.1,0-0.2,0.1c-0.1,0-0.2,0.1-0.3,0.1s-0.3,0.1-0.5,0.1c-0.2,0-0.4,0-0.6,0c-0.4,0-0.7-0.1-0.9-0.2
			c-0.3-0.1-0.5-0.3-0.7-0.4s-0.3-0.4-0.4-0.7s-0.1-0.6-0.1-1c0-0.4,0-0.7,0.1-1c0.1-0.3,0.2-0.6,0.4-0.8c0.2-0.2,0.4-0.4,0.7-0.5
			s0.6-0.2,0.9-0.2c0.3,0,0.6,0.1,0.9,0.2c0.2,0.1,0.4,0.3,0.6,0.4s0.3,0.4,0.3,0.7c0.1,0.3,0.1,0.5,0.1,0.8V6.2z M144.9,5.9
			c0-0.4-0.1-0.8-0.3-1c-0.2-0.2-0.5-0.4-0.9-0.4c-0.2,0-0.4,0-0.5,0.1c-0.2,0.1-0.3,0.2-0.4,0.3s-0.2,0.3-0.2,0.4
			c-0.1,0.2-0.1,0.3-0.1,0.5H144.9z"/>
		<path class="st11" d="M152.3,7.9c0,0.1,0,0.1,0,0.1c0,0,0,0.1,0,0.1c0,0,0,0.1,0,0.1c0,0,0,0.1-0.1,0.1c0,0-0.1,0.1-0.2,0.2
			c-0.1,0.1-0.2,0.1-0.3,0.2c-0.1,0-0.3,0.1-0.4,0.1s-0.3,0-0.4,0c-0.3,0-0.6-0.1-0.8-0.2s-0.4-0.3-0.6-0.5
			c-0.2-0.2-0.3-0.4-0.4-0.7c-0.1-0.3-0.1-0.6-0.1-1c0-0.4,0.1-0.8,0.2-1.1c0.1-0.3,0.3-0.6,0.4-0.8c0.2-0.2,0.4-0.3,0.6-0.4
			s0.5-0.1,0.8-0.1c0.1,0,0.3,0,0.4,0s0.3,0.1,0.4,0.1s0.2,0.1,0.3,0.1c0.1,0.1,0.1,0.1,0.2,0.1s0.1,0.1,0.1,0.1s0,0,0,0.1
			s0,0.1,0,0.1s0,0.1,0,0.1c0,0.1,0,0.2,0,0.3s-0.1,0.1-0.1,0.1c0,0-0.1,0-0.2-0.1s-0.1-0.1-0.2-0.2s-0.2-0.1-0.4-0.2
			c-0.1-0.1-0.3-0.1-0.5-0.1c-0.4,0-0.7,0.1-0.9,0.4c-0.2,0.3-0.3,0.7-0.3,1.3c0,0.3,0,0.5,0.1,0.7c0.1,0.2,0.1,0.4,0.2,0.5
			s0.2,0.3,0.4,0.3c0.2,0.1,0.3,0.1,0.5,0.1c0.2,0,0.3,0,0.5-0.1s0.3-0.1,0.4-0.2c0.1-0.1,0.2-0.1,0.3-0.2c0.1-0.1,0.1-0.1,0.2-0.1
			c0,0,0,0,0.1,0s0,0,0,0.1c0,0,0,0.1,0,0.1C152.3,7.8,152.3,7.8,152.3,7.9z"/>
		<path class="st11" d="M157.4,6.3c0,0.4,0,0.7-0.1,1c-0.1,0.3-0.2,0.6-0.4,0.8c-0.2,0.2-0.4,0.4-0.7,0.5c-0.3,0.1-0.6,0.2-1,0.2
			c-0.4,0-0.7-0.1-0.9-0.2s-0.5-0.3-0.7-0.5s-0.3-0.5-0.4-0.7s-0.1-0.6-0.1-1c0-0.4,0-0.7,0.1-1c0.1-0.3,0.2-0.6,0.4-0.8
			c0.2-0.2,0.4-0.4,0.7-0.5s0.6-0.2,1-0.2c0.4,0,0.7,0.1,0.9,0.2s0.5,0.3,0.7,0.5s0.3,0.5,0.4,0.7C157.4,5.6,157.4,5.9,157.4,6.3z
			 M156.6,6.4c0-0.2,0-0.5-0.1-0.7c0-0.2-0.1-0.4-0.2-0.6c-0.1-0.2-0.2-0.3-0.4-0.4c-0.2-0.1-0.4-0.1-0.7-0.1c-0.2,0-0.4,0-0.6,0.1
			c-0.2,0.1-0.3,0.2-0.4,0.4s-0.2,0.3-0.2,0.5c-0.1,0.2-0.1,0.4-0.1,0.7c0,0.2,0,0.5,0.1,0.7c0,0.2,0.1,0.4,0.2,0.6
			c0.1,0.2,0.2,0.3,0.4,0.4c0.2,0.1,0.4,0.1,0.7,0.1c0.2,0,0.4,0,0.6-0.1s0.3-0.2,0.4-0.4s0.2-0.3,0.2-0.5S156.6,6.6,156.6,6.4z
			 M155.6,2C155.6,2,155.7,1.9,155.6,2c0.1-0.1,0.1-0.1,0.2-0.1c0,0,0.1,0,0.1,0s0.1,0,0.2,0c0.1,0,0.2,0,0.2,0c0.1,0,0.1,0,0.1,0
			s0,0,0,0.1s0,0.1,0,0.1l-0.9,1.1c0,0,0,0.1-0.1,0.1c0,0,0,0-0.1,0c0,0-0.1,0-0.1,0s-0.1,0-0.2,0c-0.1,0-0.1,0-0.2,0s-0.1,0-0.1,0
			c0,0,0,0,0-0.1s0-0.1,0-0.1L155.6,2z"/>
		<path class="st11" d="M162.4,8.6C162.4,8.6,162.4,8.6,162.4,8.6c0,0.1,0,0.1-0.1,0.1c0,0-0.1,0-0.1,0s-0.1,0-0.2,0
			c-0.1,0-0.1,0-0.2,0s-0.1,0-0.1,0c0,0-0.1,0-0.1,0s0,0,0-0.1V8c-0.2,0.3-0.5,0.4-0.7,0.6s-0.5,0.2-0.8,0.2c-0.3,0-0.6-0.1-0.8-0.2
			c-0.2-0.1-0.4-0.3-0.6-0.5c-0.1-0.2-0.2-0.5-0.3-0.8s-0.1-0.6-0.1-0.9c0-0.4,0-0.7,0.1-1c0.1-0.3,0.2-0.6,0.4-0.8s0.4-0.4,0.6-0.5
			c0.2-0.1,0.5-0.2,0.8-0.2c0.3,0,0.5,0.1,0.7,0.2c0.2,0.1,0.4,0.3,0.6,0.5V2.1c0,0,0,0,0-0.1c0,0,0,0,0.1,0s0.1,0,0.1,0
			c0,0,0.1,0,0.2,0c0.1,0,0.1,0,0.2,0s0.1,0,0.1,0s0.1,0,0.1,0s0,0,0,0.1V8.6z M161.5,5.5c-0.2-0.3-0.4-0.5-0.6-0.6
			c-0.2-0.1-0.4-0.2-0.6-0.2c-0.2,0-0.4,0-0.5,0.1s-0.3,0.2-0.3,0.4c-0.1,0.2-0.2,0.3-0.2,0.5c0,0.2-0.1,0.4-0.1,0.6
			c0,0.2,0,0.4,0.1,0.6s0.1,0.4,0.2,0.6c0.1,0.2,0.2,0.3,0.3,0.4c0.1,0.1,0.3,0.1,0.5,0.1c0.1,0,0.2,0,0.3,0c0.1,0,0.2-0.1,0.3-0.1
			s0.2-0.2,0.3-0.3c0.1-0.1,0.2-0.2,0.4-0.4V5.5z"/>
		<path class="st11" d="M164.7,2.7c0,0.2,0,0.3-0.1,0.4s-0.2,0.1-0.4,0.1c-0.2,0-0.3,0-0.4-0.1c-0.1-0.1-0.1-0.2-0.1-0.4
			c0-0.2,0-0.3,0.1-0.4s0.2-0.1,0.4-0.1c0.2,0,0.3,0,0.4,0.1C164.7,2.4,164.7,2.5,164.7,2.7z M164.7,8.6
			C164.7,8.6,164.6,8.6,164.7,8.6c0,0.1-0.1,0.1-0.1,0.1s-0.1,0-0.1,0s-0.1,0-0.2,0c-0.1,0-0.1,0-0.2,0s-0.1,0-0.1,0
			c0,0-0.1,0-0.1,0c0,0,0,0,0-0.1V4.2c0,0,0,0,0-0.1c0,0,0,0,0.1,0c0,0,0.1,0,0.1,0s0.1,0,0.2,0c0.1,0,0.1,0,0.2,0s0.1,0,0.1,0
			s0.1,0,0.1,0s0,0,0,0.1V8.6z"/>
		<path class="st11" d="M169.8,4.4c0,0.1,0,0.2,0,0.2c0,0.1-0.1,0.1-0.1,0.1H169c0.1,0.1,0.2,0.2,0.2,0.4c0,0.1,0.1,0.3,0.1,0.4
			c0,0.3,0,0.5-0.1,0.7s-0.2,0.4-0.3,0.5c-0.2,0.1-0.3,0.2-0.5,0.3s-0.4,0.1-0.7,0.1c-0.2,0-0.3,0-0.5-0.1c-0.2,0-0.3-0.1-0.4-0.2
			c-0.1,0.1-0.1,0.1-0.1,0.2c0,0.1-0.1,0.2-0.1,0.3c0,0.1,0.1,0.2,0.2,0.3c0.1,0.1,0.2,0.1,0.4,0.1l1.1,0c0.2,0,0.4,0,0.6,0.1
			s0.3,0.1,0.5,0.2c0.1,0.1,0.2,0.2,0.3,0.4c0.1,0.1,0.1,0.3,0.1,0.5c0,0.2,0,0.4-0.1,0.6s-0.2,0.3-0.4,0.5
			c-0.2,0.1-0.4,0.2-0.7,0.3c-0.3,0.1-0.6,0.1-1,0.1c-0.4,0-0.7,0-0.9-0.1c-0.2-0.1-0.5-0.1-0.6-0.2s-0.3-0.2-0.3-0.4
			c-0.1-0.1-0.1-0.3-0.1-0.5c0-0.1,0-0.2,0-0.3s0.1-0.2,0.1-0.3s0.1-0.2,0.2-0.3c0.1-0.1,0.2-0.2,0.3-0.2c-0.2-0.1-0.3-0.2-0.4-0.3
			c-0.1-0.1-0.1-0.3-0.1-0.4c0-0.2,0-0.4,0.1-0.5s0.2-0.3,0.3-0.4c-0.1-0.1-0.2-0.3-0.2-0.4s-0.1-0.3-0.1-0.5c0-0.3,0-0.5,0.1-0.7
			s0.2-0.4,0.4-0.5s0.3-0.2,0.5-0.3s0.4-0.1,0.7-0.1c0.1,0,0.3,0,0.4,0c0.1,0,0.2,0,0.3,0.1h1.3c0.1,0,0.1,0,0.1,0.1
			C169.8,4.2,169.8,4.2,169.8,4.4z M169,9c0-0.2-0.1-0.3-0.2-0.4c-0.2-0.1-0.4-0.2-0.6-0.2l-1.1,0c-0.1,0.1-0.2,0.2-0.3,0.2
			c-0.1,0.1-0.1,0.1-0.2,0.2c0,0.1-0.1,0.1-0.1,0.2s0,0.1,0,0.2c0,0.2,0.1,0.4,0.3,0.5c0.2,0.1,0.5,0.2,0.9,0.2c0.2,0,0.4,0,0.6-0.1
			c0.2,0,0.3-0.1,0.4-0.2s0.2-0.2,0.2-0.3S169,9.1,169,9z M168.6,5.5c0-0.3-0.1-0.5-0.2-0.7c-0.2-0.2-0.4-0.3-0.7-0.3
			c-0.2,0-0.3,0-0.4,0.1c-0.1,0.1-0.2,0.1-0.3,0.2c-0.1,0.1-0.1,0.2-0.2,0.3c0,0.1-0.1,0.2-0.1,0.4c0,0.3,0.1,0.5,0.2,0.7
			c0.2,0.2,0.4,0.2,0.7,0.2c0.2,0,0.3,0,0.4-0.1c0.1,0,0.2-0.1,0.3-0.2c0.1-0.1,0.1-0.2,0.2-0.3C168.5,5.8,168.6,5.6,168.6,5.5z"/>
		<path class="st11" d="M174.9,6.3c0,0.4,0,0.7-0.1,1c-0.1,0.3-0.2,0.6-0.4,0.8c-0.2,0.2-0.4,0.4-0.7,0.5c-0.3,0.1-0.6,0.2-1,0.2
			c-0.4,0-0.7-0.1-0.9-0.2s-0.5-0.3-0.7-0.5s-0.3-0.5-0.4-0.7s-0.1-0.6-0.1-1c0-0.4,0-0.7,0.1-1c0.1-0.3,0.2-0.6,0.4-0.8
			c0.2-0.2,0.4-0.4,0.7-0.5s0.6-0.2,1-0.2c0.4,0,0.7,0.1,0.9,0.2s0.5,0.3,0.7,0.5s0.3,0.5,0.4,0.7C174.8,5.6,174.9,5.9,174.9,6.3z
			 M174,6.4c0-0.2,0-0.5-0.1-0.7c0-0.2-0.1-0.4-0.2-0.6c-0.1-0.2-0.2-0.3-0.4-0.4c-0.2-0.1-0.4-0.1-0.7-0.1c-0.2,0-0.4,0-0.6,0.1
			c-0.2,0.1-0.3,0.2-0.4,0.4s-0.2,0.3-0.2,0.5c-0.1,0.2-0.1,0.4-0.1,0.7c0,0.2,0,0.5,0.1,0.7c0,0.2,0.1,0.4,0.2,0.6
			c0.1,0.2,0.2,0.3,0.4,0.4c0.2,0.1,0.4,0.1,0.7,0.1c0.2,0,0.4,0,0.6-0.1s0.3-0.2,0.4-0.4s0.2-0.3,0.2-0.5S174,6.6,174,6.4z"/>
		<path class="st11" d="M117.9,20.6C117.9,20.6,117.9,20.6,117.9,20.6c0,0.1,0,0.1-0.1,0.1c0,0-0.1,0-0.1,0s-0.1,0-0.2,0
			c-0.1,0-0.1,0-0.2,0s-0.1,0-0.1,0c0,0-0.1,0-0.1,0s0,0,0-0.1V20c-0.2,0.3-0.5,0.4-0.7,0.6s-0.5,0.2-0.8,0.2
			c-0.3,0-0.6-0.1-0.8-0.2c-0.2-0.1-0.4-0.3-0.6-0.5c-0.1-0.2-0.2-0.5-0.3-0.8s-0.1-0.6-0.1-0.9c0-0.4,0-0.7,0.1-1
			c0.1-0.3,0.2-0.6,0.4-0.8s0.4-0.4,0.6-0.5c0.2-0.1,0.5-0.2,0.8-0.2c0.3,0,0.5,0.1,0.7,0.2c0.2,0.1,0.4,0.3,0.6,0.5v-2.6
			c0,0,0,0,0-0.1c0,0,0,0,0.1,0c0,0,0.1,0,0.1,0c0,0,0.1,0,0.2,0c0.1,0,0.1,0,0.2,0c0.1,0,0.1,0,0.1,0c0,0,0.1,0,0.1,0
			c0,0,0,0,0,0.1V20.6z M117.1,17.5c-0.2-0.3-0.4-0.5-0.6-0.6c-0.2-0.1-0.4-0.2-0.6-0.2c-0.2,0-0.4,0-0.5,0.1s-0.3,0.2-0.3,0.4
			c-0.1,0.2-0.2,0.3-0.2,0.5c0,0.2-0.1,0.4-0.1,0.6c0,0.2,0,0.4,0.1,0.6s0.1,0.4,0.2,0.6c0.1,0.2,0.2,0.3,0.3,0.4
			c0.1,0.1,0.3,0.1,0.5,0.1c0.1,0,0.2,0,0.3,0c0.1,0,0.2-0.1,0.3-0.1s0.2-0.2,0.3-0.3c0.1-0.1,0.2-0.2,0.4-0.4V17.5z"/>
		<path class="st11" d="M123.1,18.2c0,0.1,0,0.2-0.1,0.3s-0.1,0.1-0.2,0.1h-2.9c0,0.2,0,0.5,0.1,0.7c0,0.2,0.1,0.4,0.2,0.5
			c0.1,0.1,0.3,0.2,0.4,0.3c0.2,0.1,0.4,0.1,0.7,0.1c0.2,0,0.4,0,0.6-0.1c0.2,0,0.3-0.1,0.4-0.1c0.1,0,0.2-0.1,0.3-0.1
			s0.1-0.1,0.2-0.1c0,0,0,0,0.1,0c0,0,0,0,0,0.1s0,0.1,0,0.1c0,0,0,0.1,0,0.1c0,0,0,0.1,0,0.1c0,0,0,0.1,0,0.1s0,0,0,0.1
			c0,0,0,0,0,0.1c0,0-0.1,0-0.2,0.1c-0.1,0-0.2,0.1-0.3,0.1s-0.3,0.1-0.5,0.1c-0.2,0-0.4,0-0.6,0c-0.4,0-0.7-0.1-0.9-0.2
			c-0.3-0.1-0.5-0.3-0.7-0.4s-0.3-0.4-0.4-0.7s-0.1-0.6-0.1-1c0-0.4,0-0.7,0.1-1c0.1-0.3,0.2-0.6,0.4-0.8c0.2-0.2,0.4-0.4,0.7-0.5
			s0.6-0.2,0.9-0.2c0.3,0,0.6,0.1,0.9,0.2c0.2,0.1,0.4,0.3,0.6,0.4c0.2,0.2,0.3,0.4,0.3,0.7c0.1,0.3,0.1,0.5,0.1,0.8V18.2z
			 M122.3,17.9c0-0.4-0.1-0.8-0.3-1s-0.5-0.4-0.9-0.4c-0.2,0-0.4,0-0.5,0.1c-0.2,0.1-0.3,0.2-0.4,0.3s-0.2,0.3-0.2,0.4
			c-0.1,0.2-0.1,0.3-0.1,0.5H122.3z"/>
		<path class="st11" d="M129.9,20.6C129.9,20.6,129.9,20.6,129.9,20.6c-0.1,0.1-0.1,0.1-0.1,0.1s-0.1,0-0.2,0c-0.1,0-0.2,0-0.2,0
			c-0.1,0-0.1,0-0.1,0s0,0,0-0.1v-0.4c-0.2,0.2-0.4,0.4-0.6,0.5c-0.2,0.1-0.5,0.2-0.8,0.2c-0.2,0-0.4,0-0.6-0.1
			c-0.2-0.1-0.3-0.1-0.5-0.3s-0.2-0.3-0.3-0.4s-0.1-0.4-0.1-0.6c0-0.2,0.1-0.5,0.2-0.6s0.2-0.3,0.4-0.5s0.4-0.2,0.7-0.3
			c0.3-0.1,0.6-0.1,0.9-0.1h0.6v-0.3c0-0.2,0-0.3-0.1-0.4s-0.1-0.2-0.2-0.3c-0.1-0.1-0.2-0.2-0.3-0.2s-0.3-0.1-0.5-0.1
			c-0.2,0-0.4,0-0.5,0.1c-0.2,0-0.3,0.1-0.4,0.2c-0.1,0.1-0.2,0.1-0.3,0.2c-0.1,0-0.1,0.1-0.2,0.1c0,0,0,0-0.1,0s0,0-0.1-0.1
			s0-0.1,0-0.1c0,0,0-0.1,0-0.1c0-0.1,0-0.1,0-0.2c0,0,0-0.1,0.1-0.1s0.1-0.1,0.2-0.1c0.1-0.1,0.2-0.1,0.4-0.2
			c0.1,0,0.3-0.1,0.5-0.1c0.2,0,0.3,0,0.5,0c0.3,0,0.6,0,0.8,0.1s0.4,0.2,0.5,0.3c0.1,0.1,0.2,0.3,0.3,0.5s0.1,0.4,0.1,0.7V20.6z
			 M129.1,18.6h-0.7c-0.2,0-0.4,0-0.6,0.1c-0.2,0-0.3,0.1-0.4,0.2s-0.2,0.2-0.2,0.3c-0.1,0.1-0.1,0.2-0.1,0.4c0,0.2,0.1,0.4,0.2,0.5
			c0.1,0.1,0.3,0.2,0.6,0.2c0.2,0,0.4-0.1,0.6-0.2s0.4-0.3,0.6-0.5V18.6z"/>
		<path class="st11" d="M135.1,20.6C135.1,20.6,135.1,20.6,135.1,20.6c0,0.1,0,0.1-0.1,0.1s-0.1,0-0.1,0c0,0-0.1,0-0.2,0
			c-0.1,0-0.1,0-0.2,0c0,0-0.1,0-0.1,0c0,0,0,0-0.1,0c0,0,0,0,0-0.1V20c-0.3,0.3-0.5,0.5-0.7,0.6s-0.5,0.2-0.7,0.2
			c-0.3,0-0.5,0-0.7-0.1s-0.4-0.2-0.5-0.4c-0.1-0.2-0.2-0.4-0.3-0.6c-0.1-0.2-0.1-0.5-0.1-0.8v-2.7c0,0,0,0,0-0.1c0,0,0,0,0.1,0
			s0.1,0,0.1,0s0.1,0,0.2,0s0.1,0,0.2,0s0.1,0,0.1,0c0,0,0.1,0,0.1,0c0,0,0,0,0,0.1v2.6c0,0.3,0,0.5,0.1,0.6c0,0.2,0.1,0.3,0.2,0.4
			c0.1,0.1,0.2,0.2,0.3,0.3c0.1,0.1,0.3,0.1,0.4,0.1c0.2,0,0.4-0.1,0.6-0.2s0.4-0.4,0.6-0.6v-3.1c0,0,0,0,0-0.1c0,0,0,0,0.1,0
			s0.1,0,0.1,0c0,0,0.1,0,0.2,0c0.1,0,0.1,0,0.2,0s0.1,0,0.1,0s0.1,0,0.1,0c0,0,0,0,0,0.1V20.6z"/>
		<path class="st11" d="M138.9,20.2c0,0.1,0,0.2,0,0.2s0,0.1-0.1,0.1s-0.1,0.1-0.1,0.1s-0.1,0-0.2,0.1c-0.1,0-0.1,0-0.2,0
			s-0.1,0-0.2,0c-0.2,0-0.4,0-0.6-0.1c-0.2-0.1-0.3-0.2-0.4-0.3s-0.2-0.3-0.2-0.5c0-0.2-0.1-0.4-0.1-0.7v-2.6h-0.6
			c0,0-0.1,0-0.1-0.1s0-0.1,0-0.3c0-0.1,0-0.1,0-0.2c0,0,0-0.1,0-0.1c0,0,0,0,0.1-0.1c0,0,0,0,0.1,0h0.6v-1c0,0,0,0,0-0.1
			c0,0,0,0,0.1-0.1c0,0,0.1,0,0.1,0s0.1,0,0.2,0c0.1,0,0.1,0,0.2,0s0.1,0,0.1,0s0.1,0,0.1,0.1s0,0,0,0.1v1h1.1c0,0,0,0,0.1,0
			c0,0,0,0,0.1,0.1c0,0,0,0.1,0,0.1s0,0.1,0,0.2c0,0.1,0,0.2,0,0.3s-0.1,0.1-0.1,0.1h-1.1v2.5c0,0.3,0,0.5,0.1,0.7
			c0.1,0.2,0.2,0.2,0.5,0.2c0.1,0,0.1,0,0.2,0s0.1,0,0.2,0s0.1,0,0.1,0s0.1,0,0.1,0c0,0,0,0,0,0c0,0,0,0,0,0c0,0,0,0.1,0,0.1
			S138.9,20.2,138.9,20.2z"/>
		<path class="st11" d="M144,18.3c0,0.4,0,0.7-0.1,1c-0.1,0.3-0.2,0.6-0.4,0.8c-0.2,0.2-0.4,0.4-0.7,0.5c-0.3,0.1-0.6,0.2-1,0.2
			c-0.4,0-0.7-0.1-0.9-0.2s-0.5-0.3-0.7-0.5s-0.3-0.5-0.4-0.7s-0.1-0.6-0.1-1c0-0.4,0-0.7,0.1-1c0.1-0.3,0.2-0.6,0.4-0.8
			c0.2-0.2,0.4-0.4,0.7-0.5s0.6-0.2,1-0.2c0.4,0,0.7,0.1,0.9,0.2s0.5,0.3,0.7,0.5s0.3,0.5,0.4,0.7C143.9,17.6,144,17.9,144,18.3z
			 M143.1,18.4c0-0.2,0-0.5-0.1-0.7c0-0.2-0.1-0.4-0.2-0.6c-0.1-0.2-0.2-0.3-0.4-0.4c-0.2-0.1-0.4-0.1-0.7-0.1c-0.2,0-0.4,0-0.6,0.1
			c-0.2,0.1-0.3,0.2-0.4,0.4c-0.1,0.2-0.2,0.3-0.2,0.5c-0.1,0.2-0.1,0.4-0.1,0.7c0,0.2,0,0.5,0.1,0.7c0,0.2,0.1,0.4,0.2,0.6
			c0.1,0.2,0.2,0.3,0.4,0.4c0.2,0.1,0.4,0.1,0.7,0.1c0.2,0,0.4,0,0.6-0.1s0.3-0.2,0.4-0.4s0.2-0.3,0.2-0.5S143.1,18.6,143.1,18.4z"
			/>
		<path class="st11" d="M147.7,16.4c0,0.1,0,0.1,0,0.2s0,0.1,0,0.1c0,0,0,0,0,0.1s0,0-0.1,0s-0.1,0-0.1,0c0,0-0.1,0-0.1,0
			c0,0-0.1,0-0.2,0s-0.1,0-0.2,0c-0.1,0-0.2,0-0.2,0s-0.2,0.1-0.2,0.2c-0.1,0.1-0.2,0.2-0.3,0.3s-0.2,0.3-0.3,0.5v2.9c0,0,0,0,0,0.1
			c0,0,0,0-0.1,0s-0.1,0-0.1,0s-0.1,0-0.2,0c-0.1,0-0.1,0-0.2,0s-0.1,0-0.1,0c0,0-0.1,0-0.1,0c0,0,0,0,0-0.1v-4.4c0,0,0,0,0-0.1
			c0,0,0,0,0.1,0s0.1,0,0.1,0s0.1,0,0.2,0c0.1,0,0.1,0,0.2,0c0,0,0.1,0,0.1,0s0,0,0.1,0c0,0,0,0,0,0.1v0.6c0.1-0.2,0.2-0.3,0.3-0.4
			c0.1-0.1,0.2-0.2,0.3-0.3s0.2-0.1,0.3-0.1s0.2,0,0.3,0c0,0,0.1,0,0.1,0s0.1,0,0.2,0s0.1,0,0.2,0c0,0,0.1,0,0.1,0s0,0,0,0
			s0,0,0,0.1s0,0.1,0,0.1C147.7,16.3,147.7,16.4,147.7,16.4z"/>
		<path class="st11" d="M149.5,14.7c0,0.2,0,0.3-0.1,0.4s-0.2,0.1-0.4,0.1c-0.2,0-0.3,0-0.4-0.1c-0.1-0.1-0.1-0.2-0.1-0.4
			c0-0.2,0-0.3,0.1-0.4s0.2-0.1,0.4-0.1c0.2,0,0.3,0,0.4,0.1C149.5,14.4,149.5,14.5,149.5,14.7z M149.5,20.6
			C149.5,20.6,149.4,20.6,149.5,20.6c0,0.1-0.1,0.1-0.1,0.1s-0.1,0-0.1,0s-0.1,0-0.2,0c-0.1,0-0.1,0-0.2,0s-0.1,0-0.1,0
			c0,0-0.1,0-0.1,0c0,0,0,0,0-0.1v-4.4c0,0,0,0,0-0.1c0,0,0,0,0.1,0c0,0,0.1,0,0.1,0s0.1,0,0.2,0c0.1,0,0.1,0,0.2,0s0.1,0,0.1,0
			s0.1,0,0.1,0s0,0,0,0.1V20.6z"/>
		<path class="st11" d="M153.7,20.3c0,0.1,0,0.1,0,0.2s0,0.1,0,0.1c0,0,0,0-0.1,0.1c0,0,0,0-0.1,0h-2.7c-0.1,0-0.1,0-0.2-0.1
			s-0.1-0.1-0.1-0.2v-0.2c0,0,0-0.1,0-0.1s0-0.1,0-0.1s0-0.1,0.1-0.1c0,0,0.1-0.1,0.1-0.1l1.9-3h-1.9c-0.1,0-0.1,0-0.1-0.1
			c0-0.1,0-0.1,0-0.3c0-0.1,0-0.1,0-0.2s0-0.1,0-0.1c0,0,0,0,0.1-0.1c0,0,0,0,0.1,0h2.5c0,0,0.1,0,0.1,0c0,0,0.1,0,0.1,0
			s0,0.1,0,0.1c0,0,0,0.1,0,0.1v0.2c0,0,0,0.1,0,0.1s0,0.1,0,0.1c0,0,0,0.1-0.1,0.1s-0.1,0.1-0.1,0.1l-1.9,3h2.1c0,0,0,0,0.1,0
			c0,0,0,0,0.1,0.1s0,0.1,0,0.1S153.7,20.3,153.7,20.3z"/>
		<path class="st11" d="M158,20.6C158,20.6,158,20.6,158,20.6c-0.1,0.1-0.1,0.1-0.1,0.1s-0.1,0-0.2,0c-0.1,0-0.2,0-0.2,0
			c-0.1,0-0.1,0-0.1,0s0,0,0-0.1v-0.4c-0.2,0.2-0.4,0.4-0.6,0.5c-0.2,0.1-0.5,0.2-0.8,0.2c-0.2,0-0.4,0-0.6-0.1
			c-0.2-0.1-0.3-0.1-0.5-0.3s-0.2-0.3-0.3-0.4s-0.1-0.4-0.1-0.6c0-0.2,0.1-0.5,0.2-0.6s0.2-0.3,0.4-0.5s0.4-0.2,0.7-0.3
			c0.3-0.1,0.6-0.1,0.9-0.1h0.6v-0.3c0-0.2,0-0.3-0.1-0.4s-0.1-0.2-0.2-0.3c-0.1-0.1-0.2-0.2-0.3-0.2s-0.3-0.1-0.5-0.1
			c-0.2,0-0.4,0-0.5,0.1c-0.2,0-0.3,0.1-0.4,0.2c-0.1,0.1-0.2,0.1-0.3,0.2c-0.1,0-0.1,0.1-0.2,0.1c0,0,0,0-0.1,0s0,0-0.1-0.1
			s0-0.1,0-0.1c0,0,0-0.1,0-0.1c0-0.1,0-0.1,0-0.2c0,0,0-0.1,0.1-0.1s0.1-0.1,0.2-0.1c0.1-0.1,0.2-0.1,0.4-0.2
			c0.1,0,0.3-0.1,0.5-0.1c0.2,0,0.3,0,0.5,0c0.3,0,0.6,0,0.8,0.1s0.4,0.2,0.5,0.3c0.1,0.1,0.2,0.3,0.3,0.5s0.1,0.4,0.1,0.7V20.6z
			 M157.2,18.6h-0.7c-0.2,0-0.4,0-0.6,0.1c-0.2,0-0.3,0.1-0.4,0.2s-0.2,0.2-0.2,0.3c-0.1,0.1-0.1,0.2-0.1,0.4c0,0.2,0.1,0.4,0.2,0.5
			c0.1,0.1,0.3,0.2,0.6,0.2c0.2,0,0.4-0.1,0.6-0.2s0.4-0.3,0.6-0.5V18.6z"/>
		<path class="st11" d="M162.7,19.9c0,0.1,0,0.1,0,0.1c0,0,0,0.1,0,0.1c0,0,0,0.1,0,0.1c0,0,0,0.1-0.1,0.1c0,0-0.1,0.1-0.2,0.2
			c-0.1,0.1-0.2,0.1-0.3,0.2c-0.1,0-0.3,0.1-0.4,0.1s-0.3,0-0.4,0c-0.3,0-0.6-0.1-0.8-0.2s-0.4-0.3-0.6-0.5
			c-0.2-0.2-0.3-0.4-0.4-0.7c-0.1-0.3-0.1-0.6-0.1-1c0-0.4,0.1-0.8,0.2-1.1c0.1-0.3,0.3-0.6,0.4-0.8c0.2-0.2,0.4-0.3,0.6-0.4
			c0.2-0.1,0.5-0.1,0.8-0.1c0.1,0,0.3,0,0.4,0s0.3,0.1,0.4,0.1s0.2,0.1,0.3,0.1c0.1,0.1,0.1,0.1,0.2,0.1s0.1,0.1,0.1,0.1s0,0,0,0.1
			c0,0,0,0.1,0,0.1s0,0.1,0,0.1c0,0.1,0,0.2,0,0.3c0,0.1-0.1,0.1-0.1,0.1c0,0-0.1,0-0.2-0.1s-0.1-0.1-0.2-0.2s-0.2-0.1-0.4-0.2
			c-0.1-0.1-0.3-0.1-0.5-0.1c-0.4,0-0.7,0.1-0.9,0.4c-0.2,0.3-0.3,0.7-0.3,1.3c0,0.3,0,0.5,0.1,0.7c0.1,0.2,0.1,0.4,0.2,0.5
			s0.2,0.3,0.4,0.3c0.2,0.1,0.3,0.1,0.5,0.1c0.2,0,0.3,0,0.5-0.1s0.3-0.1,0.4-0.2c0.1-0.1,0.2-0.1,0.3-0.2c0.1-0.1,0.1-0.1,0.2-0.1
			c0,0,0,0,0.1,0s0,0,0,0.1c0,0,0,0.1,0,0.1C162.7,19.8,162.7,19.8,162.7,19.9z"/>
		<path class="st11" d="M164.6,14.7c0,0.2,0,0.3-0.1,0.4s-0.2,0.1-0.4,0.1c-0.2,0-0.3,0-0.4-0.1c-0.1-0.1-0.1-0.2-0.1-0.4
			c0-0.2,0-0.3,0.1-0.4s0.2-0.1,0.4-0.1c0.2,0,0.3,0,0.4,0.1C164.6,14.4,164.6,14.5,164.6,14.7z M164.5,20.6
			C164.5,20.6,164.5,20.6,164.5,20.6c0,0.1-0.1,0.1-0.1,0.1s-0.1,0-0.1,0s-0.1,0-0.2,0c-0.1,0-0.1,0-0.2,0s-0.1,0-0.1,0
			c0,0-0.1,0-0.1,0c0,0,0,0,0-0.1v-4.4c0,0,0,0,0-0.1c0,0,0,0,0.1,0c0,0,0.1,0,0.1,0s0.1,0,0.2,0c0.1,0,0.1,0,0.2,0s0.1,0,0.1,0
			s0.1,0,0.1,0s0,0,0,0.1V20.6z"/>
		<path class="st11" d="M170.1,18.3c0,0.4,0,0.7-0.1,1c-0.1,0.3-0.2,0.6-0.4,0.8c-0.2,0.2-0.4,0.4-0.7,0.5c-0.3,0.1-0.6,0.2-1,0.2
			c-0.4,0-0.7-0.1-0.9-0.2s-0.5-0.3-0.7-0.5s-0.3-0.5-0.4-0.7s-0.1-0.6-0.1-1c0-0.4,0-0.7,0.1-1c0.1-0.3,0.2-0.6,0.4-0.8
			c0.2-0.2,0.4-0.4,0.7-0.5s0.6-0.2,1-0.2c0.4,0,0.7,0.1,0.9,0.2s0.5,0.3,0.7,0.5s0.3,0.5,0.4,0.7C170.1,17.6,170.1,17.9,170.1,18.3
			z M169.3,18.4c0-0.2,0-0.5-0.1-0.7c0-0.2-0.1-0.4-0.2-0.6c-0.1-0.2-0.2-0.3-0.4-0.4c-0.2-0.1-0.4-0.1-0.7-0.1
			c-0.2,0-0.4,0-0.6,0.1c-0.2,0.1-0.3,0.2-0.4,0.4c-0.1,0.2-0.2,0.3-0.2,0.5c-0.1,0.2-0.1,0.4-0.1,0.7c0,0.2,0,0.5,0.1,0.7
			c0,0.2,0.1,0.4,0.2,0.6c0.1,0.2,0.2,0.3,0.4,0.4c0.2,0.1,0.4,0.1,0.7,0.1c0.2,0,0.4,0,0.6-0.1s0.3-0.2,0.4-0.4s0.2-0.3,0.2-0.5
			S169.3,18.6,169.3,18.4z M168.3,14C168.3,14,168.4,13.9,168.3,14c0.1-0.1,0.1-0.1,0.2-0.1c0,0,0.1,0,0.1,0s0.1,0,0.2,0
			c0.1,0,0.2,0,0.2,0c0.1,0,0.1,0,0.1,0c0,0,0,0,0,0.1c0,0,0,0.1,0,0.1l-0.9,1.1c0,0,0,0.1-0.1,0.1c0,0,0,0-0.1,0c0,0-0.1,0-0.1,0
			s-0.1,0-0.2,0c-0.1,0-0.1,0-0.2,0s-0.1,0-0.1,0c0,0,0,0,0-0.1s0-0.1,0-0.1L168.3,14z"/>
		<path class="st11" d="M175.1,20.6C175.1,20.6,175.1,20.6,175.1,20.6c0,0.1-0.1,0.1-0.1,0.1s-0.1,0-0.1,0s-0.1,0-0.2,0
			c-0.1,0-0.1,0-0.2,0s-0.1,0-0.1,0s-0.1,0-0.1,0c0,0,0,0,0-0.1V18c0-0.3,0-0.5-0.1-0.6s-0.1-0.3-0.2-0.4s-0.2-0.2-0.3-0.3
			c-0.1-0.1-0.3-0.1-0.4-0.1c-0.2,0-0.4,0.1-0.6,0.2s-0.4,0.4-0.6,0.6v3.1c0,0,0,0,0,0.1c0,0,0,0-0.1,0s-0.1,0-0.1,0s-0.1,0-0.2,0
			c-0.1,0-0.1,0-0.2,0s-0.1,0-0.1,0c0,0-0.1,0-0.1,0c0,0,0,0,0-0.1v-4.4c0,0,0,0,0-0.1c0,0,0,0,0.1,0s0.1,0,0.1,0s0.1,0,0.2,0
			c0.1,0,0.1,0,0.2,0c0,0,0.1,0,0.1,0s0,0,0.1,0c0,0,0,0,0,0.1v0.6c0.2-0.3,0.5-0.5,0.7-0.6c0.2-0.1,0.5-0.2,0.7-0.2
			c0.3,0,0.5,0,0.7,0.1c0.2,0.1,0.4,0.2,0.5,0.4s0.2,0.4,0.3,0.6c0.1,0.2,0.1,0.5,0.1,0.8V20.6z"/>
	</g>
</g>
<g id="source" xmlns:ev="http://www.w3.org/2001/xml-events" xmlns:v="http://schemas.microsoft.com/visio/2003/SVGExtensions/">
	<g>
		<path class="st8" d="M182.6,30.6c0-2.1-0.9-3.2-1.5-4.5c3,1.5,5.8,3,8.7,4.5c-2.9,1.5-5.7,2.9-8.7,4.5
			C181.7,33.6,182.5,32.4,182.6,30.6z"/>
	</g>
</g>
</svg>
