<svg xmlns="http://www.w3.org/2000/svg" viewBox="0 0 204.71 64.78"><title>OJ104440671</title><path d="M183.71,17.85h-20.5A1.1,1.1,0,0,0,162.12,19V35.7a1.09,1.09,0,0,0,1.09,1.1h5.28a3.29,3.29,0,0,0,3.21,2.27,3.37,3.37,0,0,0,0-6.74,3.29,3.29,0,0,0-3.21,2.26H164.3v-12h18.31v12h-3.45A7.61,7.61,0,0,0,171.7,28a8.25,8.25,0,0,0-3.64.92l1,2a5.39,5.39,0,0,1,2.55-.67,5.46,5.46,0,0,1,0,10.92,5.28,5.28,0,0,1-2.55-.68l-1,2a7.4,7.4,0,0,0,3.64.92,7.61,7.61,0,0,0,7.46-6.56h4.55a1.09,1.09,0,0,0,1.09-1.1V19A1.14,1.14,0,0,0,183.71,17.85Z" fill="#008bfd" fill-rule="evenodd"/><path d="M153.65,26.59l8,4-8,4a9,9,0,0,0,0-8" fill="#505050" fill-rule="evenodd"/><path d="M7.85,22.77a4.5,4.5,0,0,0-3,5.67c.66,2.55,3,4.21,5.27,3.66a4.49,4.49,0,0,0,3-5.66C12.57,23.77,10.16,22.11,7.85,22.77Z" fill="#008bfd" fill-rule="evenodd"/><path d="M12.79,32.79c-.44,0-.88.77-1.54,1.11s-1.32.88-3.18,0S6,32.23,4.44,32.23.38,35,.38,39.11H16a12.05,12.05,0,0,0-1.1-4.21C13.77,32.79,13.23,32.79,12.79,32.79Z" fill="#008bfd" fill-rule="evenodd"/><path d="M14.19,27.84H10.07a.71.71,0,0,0-.65.66v2.85a.73.73,0,0,0,.76.66h.76v5.15a1,1,0,0,0,1,1.09,1,1,0,0,0,1-1h.21v-.66c0-.22.33-.33.33-.33V36c-.33-.11-.54-.33-.54-.44v-.32L13.1,35a3.53,3.53,0,0,0,.33-.55,2.4,2.4,0,0,1-.33-.55c-.1-.11-.1-.33-.21-.44v-.22a2.52,2.52,0,0,1,.76-1.09h.54a.71.71,0,0,0,.65-.66v-3A.63.63,0,0,0,14.19,27.84ZM11.8,37.38c0,.22,0,.33-.21.33s-.22-.22-.22-.33V32.56c0-.22.11-.33.22-.33s.21.22.21.33Zm.33-7.78a.66.66,0,0,1,0-1.32.71.71,0,0,1,.65.66A.63.63,0,0,1,12.13,29.6Z" fill="#008bfd" stroke="gray" stroke-linecap="round" stroke-linejoin="round" stroke-width="0.75" fill-rule="evenodd"/><path d="M11.57,37.68a.24.24,0,0,1-.22-.22v-5a.22.22,0,1,1,.44,0v5.1C11.79,37.68,11.68,37.68,11.57,37.68Z" fill="#fff" fill-rule="evenodd"/><ellipse cx="12.14" cy="28.92" rx="0.66" ry="0.67" fill="#fff"/><rect x="72.98" y="29.81" width="83.11" height="1.6" rx="0.76" fill="#505050"/><path d="M52.06,33.18a16.47,16.47,0,0,1-2-2.35,18.32,18.32,0,0,0-1.66,6.89c.11.16.11.28.23.44a13.4,13.4,0,0,0,2,2.05A14.18,14.18,0,0,1,52.06,33.18Z" fill="#008bfd" fill-rule="evenodd"/><path d="M56.67,23.75a21,21,0,0,0-3.33,3,16.41,16.41,0,0,0-1.61,2.05,15,15,0,0,0,1.9,2.47,16.84,16.84,0,0,1,2.2-2.57A27.32,27.32,0,0,1,59,26.07C58.16,25.31,57.38,24.54,56.67,23.75Z" fill="#008bfd" fill-rule="evenodd"/><path d="M68.14,23a12.55,12.55,0,0,0-1.73-1.83,12.55,12.55,0,0,0-8,1.54c.76.84,1.51,1.62,2.24,2.36C65,22.59,68.14,23,68.14,23Z" fill="#008bfd" fill-rule="evenodd"/><path d="M50.54,30.59a18.83,18.83,0,0,1,1.19-2.06,9.86,9.86,0,0,1-1.6-6.8,13.19,13.19,0,0,0-1.29,1.61C48.46,25,48.44,27.5,50.54,30.59Z" fill="#008bfd" fill-rule="evenodd"/><path d="M55.9,33.36a21.57,21.57,0,0,1-2.27-2.13,13.68,13.68,0,0,0-1.14,1.95,23.54,23.54,0,0,0,2.09,1.91,19.18,19.18,0,0,0,12.56,4.38,9,9,0,0,0,1.54-1.94C67.45,37.79,62.19,38.47,55.9,33.36Z" fill="#008bfd" fill-rule="evenodd"/><path d="M50.54,30.83a16.24,16.24,0,0,0,2,2.35,14.7,14.7,0,0,1,1.14-1.95,15,15,0,0,1-1.9-2.47A16.34,16.34,0,0,0,50.54,30.83Z" fill="#008bfd" fill-rule="evenodd"/><path d="M59,26.07a98.21,98.21,0,0,0,11.15,8.82,9.82,9.82,0,0,0,.33-1A96.8,96.8,0,0,1,60.61,25,16,16,0,0,0,59,26.07Z" fill="#008bfd" fill-rule="evenodd"/><path d="M58.38,22.65Q56.73,20.88,55,18.86a10.05,10.05,0,0,0-1.59.66,26.74,26.74,0,0,0,3.24,4.22A15.69,15.69,0,0,1,58.38,22.65Z" fill="#008bfd" fill-rule="evenodd"/><path d="M58.45,22.62a18.74,18.74,0,0,0-1.87,1.19c.72.78,1.45,1.59,2.25,2.35.57-.4,1.34-.89,1.87-1.19C60,24.24,59.21,23.46,58.45,22.62Z" fill="#008bfd" fill-rule="evenodd"/><path d="M58.25,22.51a14.89,14.89,0,0,0-1.67,1.13c.72.79,1.74,1.81,2.54,2.57.57-.4,1.05-.81,1.58-1.11C60,24.37,59,23.35,58.25,22.51Z" fill="#008bfd" fill-rule="evenodd"/><path d="M64.3,29.07a2.7,2.7,0,0,0-.48,3.7,2.55,2.55,0,0,0,3.63.5,2.71,2.71,0,0,0,.48-3.71A2.54,2.54,0,0,0,64.3,29.07Z" fill="#008bfd" fill-rule="evenodd"/><path d="M49.18,35.81A2.52,2.52,0,0,0,49,39.27a2.38,2.38,0,0,0,3.39.18A2.51,2.51,0,0,0,52.56,36,2.35,2.35,0,0,0,49.18,35.81Z" fill="#008bfd" fill-rule="evenodd"/><path d="M50,27.87a3.79,3.79,0,0,0-.68,5.21,3.58,3.58,0,0,0,5.1.7,3.8,3.8,0,0,0,.67-5.23A3.58,3.58,0,0,0,50,27.87Z" fill="#008bfd" fill-rule="evenodd"/><path d="M66,40.41a11.81,11.81,0,0,1-16.84-2.29,12.55,12.55,0,0,1,2.24-17.29,11.72,11.72,0,0,1,7.29-2.54,11.89,11.89,0,0,1,9.55,4.84A12.54,12.54,0,0,1,66,40.41ZM69.69,22a13.57,13.57,0,0,0-19.36-2.64,14.45,14.45,0,0,0-2.55,19.88,13.65,13.65,0,0,0,11,5.55,13.45,13.45,0,0,0,8.39-2.92A14.44,14.44,0,0,0,69.69,22Z" fill="#008bfd" fill-rule="evenodd"/><rect x="65.1" y="0.38" width="114.21" height="20" fill="none"/><path d="M38.4,57.79h-.73l-.59-1.57H34.7l-.56,1.57h-.73l2.15-5.61h.68Zm-1.54-2.16L36,53.24c0-.08,0-.2-.08-.38h0a1.41,1.41,0,0,1-.09.38l-.87,2.39Z"/><path d="M39.55,57.21h0v2.42H38.9V53.79h.64v.7h0a1.53,1.53,0,0,1,1.39-.8,1.46,1.46,0,0,1,1.2.54,2.23,2.23,0,0,1,.44,1.44,2.53,2.53,0,0,1-.49,1.61,1.64,1.64,0,0,1-1.34.6A1.33,1.33,0,0,1,39.55,57.21Zm0-1.62v.56a1.2,1.2,0,0,0,.32.85,1.06,1.06,0,0,0,.82.34,1.08,1.08,0,0,0,.91-.44,2.05,2.05,0,0,0,.33-1.24,1.58,1.58,0,0,0-.31-1,1,1,0,0,0-.83-.38,1.12,1.12,0,0,0-.9.39A1.4,1.4,0,0,0,39.54,55.59Z"/><path d="M44,57.79h-.64V51.86H44Z"/><path d="M45.39,52.77a.41.41,0,0,1-.3-.12.37.37,0,0,1-.12-.29.41.41,0,0,1,.42-.42.4.4,0,0,1,.29.12.38.38,0,0,1,.13.3.37.37,0,0,1-.13.29A.4.4,0,0,1,45.39,52.77Zm.31,5h-.64v-4h.64Z"/><path d="M49.48,57.6a2,2,0,0,1-1.09.28A1.82,1.82,0,0,1,47,57.32a2,2,0,0,1-.53-1.44,2.21,2.21,0,0,1,.57-1.59,2,2,0,0,1,1.51-.6,2.12,2.12,0,0,1,.93.2v.65a1.68,1.68,0,0,0-1-.31,1.3,1.3,0,0,0-1,.44,1.68,1.68,0,0,0-.39,1.16,1.56,1.56,0,0,0,.37,1.1,1.23,1.23,0,0,0,1,.41,1.61,1.61,0,0,0,1-.35Z"/><path d="M53.07,57.79h-.64v-.63h0a1.46,1.46,0,0,1-2.17.4,1.11,1.11,0,0,1-.34-.84c0-.74.44-1.18,1.32-1.3l1.2-.17c0-.68-.27-1-.82-1a2,2,0,0,0-1.31.49v-.65a2.51,2.51,0,0,1,1.36-.38c.94,0,1.41.5,1.41,1.49Zm-.64-2-1,.14a1.46,1.46,0,0,0-.67.22.61.61,0,0,0-.23.56.63.63,0,0,0,.21.48.81.81,0,0,0,.55.18,1,1,0,0,0,.79-.33,1.2,1.2,0,0,0,.31-.85Z"/><path d="M56.77,57.6a2.07,2.07,0,0,1-1.1.28,1.82,1.82,0,0,1-1.38-.56,2,2,0,0,1-.52-1.44,2.25,2.25,0,0,1,.56-1.59,2,2,0,0,1,1.51-.6,2.06,2.06,0,0,1,.93.2v.65a1.66,1.66,0,0,0-1-.31,1.28,1.28,0,0,0-1,.44,1.64,1.64,0,0,0-.4,1.16,1.61,1.61,0,0,0,.37,1.1,1.26,1.26,0,0,0,1,.41,1.64,1.64,0,0,0,1-.35Z"/><path d="M57.82,52.77a.4.4,0,0,1-.29-.12.37.37,0,0,1-.12-.29.41.41,0,0,1,.12-.3.4.4,0,0,1,.29-.12.41.41,0,0,1,.3.12.38.38,0,0,1,.13.3.37.37,0,0,1-.13.29A.41.41,0,0,1,57.82,52.77Zm.32,5H57.5v-4h.64Z"/><path d="M60.87,57.88a1.86,1.86,0,0,1-1.42-.56,2.09,2.09,0,0,1-.53-1.49,2.15,2.15,0,0,1,.55-1.57A2,2,0,0,1,61,53.69a1.83,1.83,0,0,1,1.4.55,2.22,2.22,0,0,1,.5,1.53,2.13,2.13,0,0,1-.54,1.53A1.88,1.88,0,0,1,60.87,57.88Zm0-3.65a1.19,1.19,0,0,0-1,.42,1.73,1.73,0,0,0-.36,1.16,1.64,1.64,0,0,0,.36,1.12,1.25,1.25,0,0,0,1,.41,1.18,1.18,0,0,0,1-.4,2.17,2.17,0,0,0,0-2.3A1.18,1.18,0,0,0,60.91,54.23Zm.94-2.48-1,1.28h-.5l.87-1.28Z"/><path d="M67,57.79h-.64V55.5c0-.84-.31-1.27-.93-1.27a1,1,0,0,0-.79.36,1.35,1.35,0,0,0-.32.91v2.29h-.64v-4h.64v.66h0a1.45,1.45,0,0,1,1.31-.76,1.19,1.19,0,0,1,1,.43A1.89,1.89,0,0,1,67,55.34Z"/><path d="M74.92,53.79l-1.2,4h-.66l-.83-2.87a1.91,1.91,0,0,1-.06-.37h0a1.24,1.24,0,0,1-.08.37l-.89,2.87h-.64l-1.21-4H70l.83,3a2.39,2.39,0,0,1,0,.36h0a1.75,1.75,0,0,1,.07-.36l.92-3h.59l.83,3q0,.15.06.36h0a1.34,1.34,0,0,1,.06-.36l.82-3Z"/><path d="M78.64,56H75.81a1.49,1.49,0,0,0,.36,1,1.24,1.24,0,0,0,1,.36,2,2,0,0,0,1.24-.44v.6a2.37,2.37,0,0,1-1.4.38,1.69,1.69,0,0,1-1.33-.55,2.23,2.23,0,0,1-.48-1.53,2.15,2.15,0,0,1,.53-1.52A1.7,1.7,0,0,1,77,53.69a1.52,1.52,0,0,1,1.22.51,2.16,2.16,0,0,1,.43,1.41ZM78,55.4a1.27,1.27,0,0,0-.27-.86.89.89,0,0,0-.73-.31,1,1,0,0,0-.77.33,1.44,1.44,0,0,0-.39.84Z"/><path d="M80,57.21h0v.58h-.64V51.86H80v2.63h0a1.53,1.53,0,0,1,1.38-.8,1.46,1.46,0,0,1,1.21.54A2.23,2.23,0,0,1,83,55.67a2.53,2.53,0,0,1-.48,1.61,1.64,1.64,0,0,1-1.34.6A1.31,1.31,0,0,1,80,57.21Zm0-1.62v.56a1.21,1.21,0,0,0,.33.85,1.05,1.05,0,0,0,.82.34,1.09,1.09,0,0,0,.91-.44,2.05,2.05,0,0,0,.33-1.24,1.58,1.58,0,0,0-.31-1,1,1,0,0,0-.84-.38,1.14,1.14,0,0,0-.9.39A1.45,1.45,0,0,0,80,55.59Z"/><path d="M151.52,56.37h-.73l-.59-1.57h-2.38l-.56,1.57h-.73l2.15-5.6h.68ZM150,54.21l-.88-2.39a1.62,1.62,0,0,1-.08-.37h0a1.81,1.81,0,0,1-.09.37L148,54.21Z"/><path d="M152.67,55.79h0v2.42H152V52.37h.65v.7h0a1.52,1.52,0,0,1,1.38-.79,1.46,1.46,0,0,1,1.21.53,2.23,2.23,0,0,1,.43,1.44,2.51,2.51,0,0,1-.48,1.61,1.64,1.64,0,0,1-1.34.6A1.33,1.33,0,0,1,152.67,55.79Zm0-1.61v.56a1.16,1.16,0,0,0,.32.84,1.05,1.05,0,0,0,.82.34,1.07,1.07,0,0,0,.91-.44,2.05,2.05,0,0,0,.33-1.24,1.6,1.6,0,0,0-.31-1.05,1,1,0,0,0-.84-.38,1.11,1.11,0,0,0-.89.39A1.43,1.43,0,0,0,152.66,54.18Z"/><path d="M157.12,56.37h-.64V50.45h.64Z"/><path d="M158.5,51.35a.44.44,0,0,1-.29-.11.44.44,0,0,1,0-.6.4.4,0,0,1,.29-.12.41.41,0,0,1,.3.12.42.42,0,0,1,.13.3.43.43,0,0,1-.43.41Zm.32,5h-.64v-4h.64Z"/><path d="M162.6,56.19a2.12,2.12,0,0,1-1.09.27,1.81,1.81,0,0,1-1.38-.55,2,2,0,0,1-.53-1.45,2.17,2.17,0,0,1,.57-1.58,2,2,0,0,1,1.51-.6,2.12,2.12,0,0,1,.93.19v.66a1.65,1.65,0,0,0-1-.32,1.3,1.3,0,0,0-1,.44,1.7,1.7,0,0,0-.39,1.16,1.57,1.57,0,0,0,.37,1.11,1.25,1.25,0,0,0,1,.4,1.62,1.62,0,0,0,1-.34Z"/><path d="M166.19,56.37h-.64v-.63h0a1.35,1.35,0,0,1-1.24.72,1.31,1.31,0,0,1-.93-.31,1.08,1.08,0,0,1-.34-.84c0-.75.44-1.19,1.32-1.31l1.2-.17c0-.68-.27-1-.82-1a2,2,0,0,0-1.31.5v-.66a2.5,2.5,0,0,1,1.36-.37c.94,0,1.41.49,1.41,1.49Zm-.64-2-1,.13a1.55,1.55,0,0,0-.68.22.63.63,0,0,0-.22.56.61.61,0,0,0,.21.48.81.81,0,0,0,.55.18,1,1,0,0,0,.79-.33,1.19,1.19,0,0,0,.31-.85Z"/><path d="M169.88,56.19a2.1,2.1,0,0,1-1.09.27,1.81,1.81,0,0,1-1.38-.55,2,2,0,0,1-.53-1.45,2.17,2.17,0,0,1,.57-1.58,2,2,0,0,1,1.51-.6,2.12,2.12,0,0,1,.93.19v.66a1.6,1.6,0,0,0-.95-.32,1.32,1.32,0,0,0-1,.44,1.7,1.7,0,0,0-.39,1.16,1.57,1.57,0,0,0,.37,1.11,1.28,1.28,0,0,0,1,.4,1.58,1.58,0,0,0,1-.34Z"/><path d="M170.94,51.35a.44.44,0,0,1-.29-.11.44.44,0,0,1,0-.6.4.4,0,0,1,.29-.12.41.41,0,0,1,.42.42.4.4,0,0,1-.12.29A.41.41,0,0,1,170.94,51.35Zm.31,5h-.64v-4h.64Z"/><path d="M174,56.46a1.82,1.82,0,0,1-1.41-.56,2,2,0,0,1-.53-1.48,2.16,2.16,0,0,1,.55-1.58,2,2,0,0,1,1.49-.56,1.77,1.77,0,0,1,1.39.55,2.13,2.13,0,0,1,.51,1.52,2.18,2.18,0,0,1-.55,1.54A1.9,1.9,0,0,1,174,56.46Zm.05-3.65a1.23,1.23,0,0,0-1,.42,1.73,1.73,0,0,0-.36,1.16,1.62,1.62,0,0,0,.37,1.12,1.35,1.35,0,0,0,1.93,0,1.76,1.76,0,0,0,.33-1.14,1.8,1.8,0,0,0-.33-1.16A1.2,1.2,0,0,0,174,52.81Zm.94-2.48-1,1.28h-.49l.87-1.28Z"/><path d="M180.08,56.37h-.64V54.09c0-.85-.31-1.28-.93-1.28a1,1,0,0,0-.8.37,1.32,1.32,0,0,0-.31.91v2.28h-.64v-4h.64V53h0a1.43,1.43,0,0,1,1.31-.75,1.22,1.22,0,0,1,1,.42,1.89,1.89,0,0,1,.35,1.22Z"/><path d="M186.41,56.37h-.64v-.68h0a1.48,1.48,0,0,1-1.38.77,1.51,1.51,0,0,1-1.2-.53,2.23,2.23,0,0,1-.46-1.47,2.42,2.42,0,0,1,.5-1.59,1.66,1.66,0,0,1,1.34-.59,1.28,1.28,0,0,1,1.2.64h0V50.45h.64Zm-.64-1.81V54a1.12,1.12,0,0,0-.32-.82,1.08,1.08,0,0,0-.81-.34,1.12,1.12,0,0,0-.92.43,1.87,1.87,0,0,0-.34,1.19,1.7,1.7,0,0,0,.32,1.09,1.06,1.06,0,0,0,.87.4,1.14,1.14,0,0,0,.87-.38A1.47,1.47,0,0,0,185.77,54.56Z"/><path d="M190.68,54.53h-2.82a1.49,1.49,0,0,0,.36,1,1.24,1.24,0,0,0,.94.36,2,2,0,0,0,1.25-.44v.6a2.39,2.39,0,0,1-1.4.38,1.7,1.7,0,0,1-1.33-.54,2.27,2.27,0,0,1-.48-1.54,2.19,2.19,0,0,1,.52-1.52,1.72,1.72,0,0,1,1.32-.58,1.48,1.48,0,0,1,1.21.5,2.1,2.1,0,0,1,.43,1.41ZM190,54a1.35,1.35,0,0,0-.27-.87.94.94,0,0,0-.73-.31,1,1,0,0,0-.77.33,1.47,1.47,0,0,0-.39.85Z"/><path d="M197.79,56.37h-.73l-.6-1.57h-2.37l-.56,1.57h-.73l2.15-5.6h.68Zm-1.54-2.16-.88-2.39a1.62,1.62,0,0,1-.08-.37h0a2.87,2.87,0,0,1-.09.37l-.87,2.39Z"/><path d="M199,54.25v2.12h-.66v-5.6h1.54a2,2,0,0,1,1.39.44,1.55,1.55,0,0,1,.5,1.23,1.7,1.7,0,0,1-.55,1.3,2.11,2.11,0,0,1-1.49.51Zm0-2.89v2.3h.68a1.57,1.57,0,0,0,1-.31,1.1,1.1,0,0,0,.36-.88c0-.74-.44-1.11-1.31-1.11Z"/><path d="M203.27,56.37h-.66v-5.6h.66Z"/><path d="M68.47,8.36H66.28V10.3h2v.59h-2v2.48h-.65V7.77h2.84Z" fill="#00b0f0"/><path d="M70.09,13.37h-.64V7.45h.64Z" fill="#00b0f0"/><path d="M74.62,13.37H74v-.63h0a1.31,1.31,0,0,1-1.23.72c-1,0-1.43-.56-1.43-1.7V9.37h.63v2.29c0,.84.33,1.27,1,1.27a1,1,0,0,0,.77-.35,1.28,1.28,0,0,0,.31-.9V9.37h.64Z" fill="#00b0f0"/><path d="M76.55,13.2a2.46,2.46,0,0,1-.4,1.52,1.3,1.3,0,0,1-1.13.53,1.24,1.24,0,0,1-.53-.12v-.6a1,1,0,0,0,.55.18c.58,0,.87-.47.87-1.4V9.37h.64Zm-.31-4.84A.38.38,0,0,1,76,8.24a.41.41,0,0,1,0-.6.38.38,0,0,1,.29-.12.41.41,0,0,1,.42.42.38.38,0,0,1-.12.29A.38.38,0,0,1,76.24,8.36Z" fill="#00b0f0"/><path d="M79.52,13.46a1.85,1.85,0,0,1-1.42-.56,2.06,2.06,0,0,1-.53-1.48,2.18,2.18,0,0,1,.56-1.58,2,2,0,0,1,1.48-.56,1.79,1.79,0,0,1,1.4.55,2.2,2.2,0,0,1,.5,1.53A2.17,2.17,0,0,1,81,12.89,1.9,1.9,0,0,1,79.52,13.46Zm0-3.64a1.23,1.23,0,0,0-1,.42,1.7,1.7,0,0,0-.36,1.15,1.67,1.67,0,0,0,.36,1.13,1.27,1.27,0,0,0,1,.41,1.16,1.16,0,0,0,1-.41,1.76,1.76,0,0,0,.34-1.14,1.8,1.8,0,0,0-.34-1.16A1.16,1.16,0,0,0,79.57,9.82Z" fill="#00b0f0"/><path d="M88.14,13.37H87.5v-.68h0a1.45,1.45,0,0,1-1.37.77,1.51,1.51,0,0,1-1.21-.53,2.23,2.23,0,0,1-.45-1.47A2.37,2.37,0,0,1,85,9.88a1.66,1.66,0,0,1,1.34-.6,1.26,1.26,0,0,1,1.19.65h0V7.45h.64Zm-.64-1.81V11a1.17,1.17,0,0,0-.32-.82,1.07,1.07,0,0,0-.81-.33,1.09,1.09,0,0,0-.92.43,1.82,1.82,0,0,0-.34,1.18,1.75,1.75,0,0,0,.32,1.1,1.08,1.08,0,0,0,.87.4,1.11,1.11,0,0,0,.87-.39A1.45,1.45,0,0,0,87.5,11.56Z" fill="#00b0f0"/><path d="M92.65,11.53H89.83a1.47,1.47,0,0,0,.36,1,1.24,1.24,0,0,0,.94.37,2,2,0,0,0,1.25-.45v.6a2.32,2.32,0,0,1-1.4.38,1.7,1.7,0,0,1-1.33-.54,2.23,2.23,0,0,1-.49-1.53,2.18,2.18,0,0,1,.53-1.52A1.69,1.69,0,0,1,91,9.28a1.49,1.49,0,0,1,1.21.51,2.07,2.07,0,0,1,.43,1.41ZM92,11a1.36,1.36,0,0,0-.27-.86A.9.9,0,0,0,91,9.82a1,1,0,0,0-.77.32,1.5,1.5,0,0,0-.39.85Z" fill="#00b0f0"/><path d="M98.54,13.19a2.12,2.12,0,0,1-1.09.27,1.85,1.85,0,0,1-1.39-.55,2,2,0,0,1-.52-1.45,2.2,2.2,0,0,1,.57-1.58,2,2,0,0,1,1.51-.6,2.12,2.12,0,0,1,.93.19v.66a1.64,1.64,0,0,0-1-.31,1.25,1.25,0,0,0-1,.44,1.65,1.65,0,0,0-.39,1.15,1.61,1.61,0,0,0,.36,1.11,1.29,1.29,0,0,0,1,.41,1.64,1.64,0,0,0,1-.35Z" fill="#00b0f0"/><path d="M101.18,13.46a1.85,1.85,0,0,1-1.42-.56,2.06,2.06,0,0,1-.53-1.48,2.18,2.18,0,0,1,.56-1.58,2,2,0,0,1,1.48-.56,1.79,1.79,0,0,1,1.4.55,2.2,2.2,0,0,1,.5,1.53,2.17,2.17,0,0,1-.54,1.53A1.9,1.9,0,0,1,101.18,13.46Zm0-3.64a1.23,1.23,0,0,0-1,.42,1.7,1.7,0,0,0-.36,1.15,1.67,1.67,0,0,0,.36,1.13,1.27,1.27,0,0,0,1,.41,1.16,1.16,0,0,0,1-.41,1.76,1.76,0,0,0,.34-1.14,1.8,1.8,0,0,0-.34-1.16A1.16,1.16,0,0,0,101.23,9.82Zm.93-2.49-1,1.28h-.5l.88-1.28Z" fill="#00b0f0"/><path d="M107.61,13.37H107v-.68h0a1.45,1.45,0,0,1-1.37.77,1.49,1.49,0,0,1-1.21-.53,2.23,2.23,0,0,1-.45-1.47,2.37,2.37,0,0,1,.5-1.58,1.64,1.64,0,0,1,1.33-.6,1.27,1.27,0,0,1,1.2.65h0V7.45h.64ZM107,11.56V11a1.17,1.17,0,0,0-.32-.82,1.1,1.1,0,0,0-.81-.33,1.12,1.12,0,0,0-.93.43,1.88,1.88,0,0,0-.33,1.18,1.75,1.75,0,0,0,.32,1.1,1.14,1.14,0,0,0,1.73,0A1.41,1.41,0,0,0,107,11.56Z" fill="#00b0f0"/><path d="M109.23,8.36a.4.4,0,0,1-.29-.12.44.44,0,0,1,0-.6.4.4,0,0,1,.29-.12.41.41,0,0,1,.3.12.38.38,0,0,1,.13.3.36.36,0,0,1-.13.29A.38.38,0,0,1,109.23,8.36Zm.32,5h-.64v-4h.64Z" fill="#00b0f0"/><path d="M114.26,13.05c0,1.47-.71,2.2-2.11,2.2a2.8,2.8,0,0,1-1.3-.28v-.64a2.67,2.67,0,0,0,1.29.38c1,0,1.48-.53,1.48-1.57V12.7h0a1.62,1.62,0,0,1-2.57.23,2.08,2.08,0,0,1-.46-1.43,2.47,2.47,0,0,1,.49-1.62,1.64,1.64,0,0,1,1.34-.6,1.29,1.29,0,0,1,1.2.65h0V9.37h.64Zm-.64-1.49V11a1.12,1.12,0,0,0-.33-.81,1,1,0,0,0-.8-.34,1.12,1.12,0,0,0-.93.43,2,2,0,0,0-.33,1.21,1.64,1.64,0,0,0,.32,1.07,1.05,1.05,0,0,0,.85.4,1.12,1.12,0,0,0,.88-.39A1.44,1.44,0,0,0,113.62,11.56Z" fill="#00b0f0"/><path d="M117.23,13.46a1.84,1.84,0,0,1-1.42-.56,2.06,2.06,0,0,1-.53-1.48,2.17,2.17,0,0,1,.55-1.58,2,2,0,0,1,1.49-.56,1.79,1.79,0,0,1,1.4.55,2.2,2.2,0,0,1,.5,1.53,2.17,2.17,0,0,1-.54,1.53A1.91,1.91,0,0,1,117.23,13.46Zm0-3.64a1.21,1.21,0,0,0-1,.42,1.7,1.7,0,0,0-.36,1.15,1.67,1.67,0,0,0,.36,1.13,1.25,1.25,0,0,0,1,.41,1.17,1.17,0,0,0,1-.41,1.76,1.76,0,0,0,.33-1.14,1.8,1.8,0,0,0-.33-1.16A1.16,1.16,0,0,0,117.27,9.82Z" fill="#00b0f0"/><path d="M120,13.23v-.69a1.88,1.88,0,0,0,1.15.39c.56,0,.85-.19.85-.57a.5.5,0,0,0-.08-.27.71.71,0,0,0-.19-.2l-.29-.15-.36-.14a3.3,3.3,0,0,1-.46-.22,1.28,1.28,0,0,1-.34-.24.83.83,0,0,1-.2-.3,1,1,0,0,1-.07-.41.9.9,0,0,1,.13-.49,1.09,1.09,0,0,1,.34-.37,1.56,1.56,0,0,1,.49-.22,2.12,2.12,0,0,1,.57-.07,2.27,2.27,0,0,1,.93.18v.65a1.77,1.77,0,0,0-1-.29,1.08,1.08,0,0,0-.32,0,.64.64,0,0,0-.25.11.55.55,0,0,0-.16.18.46.46,0,0,0-.06.23.53.53,0,0,0,.06.26.6.6,0,0,0,.17.19l.26.15.36.14.47.21a1.25,1.25,0,0,1,.36.24,1,1,0,0,1,.23.31.93.93,0,0,1,.08.42,1,1,0,0,1-.13.52,1.2,1.2,0,0,1-.35.36,1.33,1.33,0,0,1-.5.21,2.35,2.35,0,0,1-.6.07A2.25,2.25,0,0,1,120,13.23Z" fill="#00b0f0"/><path d="M129.24,13.37h-.64v-.68h0a1.62,1.62,0,0,1-2.58.24,2.23,2.23,0,0,1-.46-1.47,2.37,2.37,0,0,1,.5-1.58,1.66,1.66,0,0,1,1.34-.6,1.27,1.27,0,0,1,1.2.65h0V7.45h.64Zm-.64-1.81V11a1.13,1.13,0,0,0-.32-.82,1.07,1.07,0,0,0-.81-.33,1.09,1.09,0,0,0-.92.43,1.82,1.82,0,0,0-.34,1.18,1.75,1.75,0,0,0,.32,1.1,1.09,1.09,0,0,0,.87.4,1.11,1.11,0,0,0,.87-.39A1.45,1.45,0,0,0,128.6,11.56Z" fill="#00b0f0"/><path d="M133.75,11.53h-2.82a1.47,1.47,0,0,0,.36,1,1.24,1.24,0,0,0,.94.37,2,2,0,0,0,1.25-.45v.6a2.3,2.3,0,0,1-1.4.38,1.7,1.7,0,0,1-1.33-.54,2.23,2.23,0,0,1-.48-1.53,2.18,2.18,0,0,1,.52-1.52,1.7,1.7,0,0,1,1.32-.59,1.49,1.49,0,0,1,1.21.51,2.07,2.07,0,0,1,.43,1.41ZM133.1,11a1.3,1.3,0,0,0-.27-.86.9.9,0,0,0-.73-.31,1,1,0,0,0-.77.32,1.5,1.5,0,0,0-.39.85Z" fill="#00b0f0"/><path d="M139.78,13.37h-.64v-.62h0a1.33,1.33,0,0,1-1.23.71,1.29,1.29,0,0,1-.93-.31,1.08,1.08,0,0,1-.34-.84c0-.75.44-1.18,1.32-1.31l1.2-.16c0-.68-.28-1-.83-1a2,2,0,0,0-1.3.49V9.65a2.45,2.45,0,0,1,1.36-.37c.94,0,1.41.49,1.41,1.49Zm-.64-2-1,.13a1.64,1.64,0,0,0-.67.22.64.64,0,0,0-.23.56.6.6,0,0,0,.21.48.84.84,0,0,0,.56.19,1,1,0,0,0,.79-.34,1.21,1.21,0,0,0,.31-.84Z" fill="#00b0f0"/><path d="M144.22,13.37h-.64v-.63h0a1.3,1.3,0,0,1-1.23.72c-1,0-1.43-.56-1.43-1.7V9.37h.64v2.29c0,.84.32,1.27,1,1.27a1,1,0,0,0,.78-.35,1.32,1.32,0,0,0,.3-.9V9.37h.64Z" fill="#00b0f0"/><path d="M147.37,13.33a1.16,1.16,0,0,1-.6.13q-1.05,0-1.05-1.17V9.92H145V9.37h.69v-1l.64-.2V9.37h1v.55h-1v2.25a1,1,0,0,0,.14.58.55.55,0,0,0,.45.17.75.75,0,0,0,.42-.13Z" fill="#00b0f0"/><path d="M149.89,13.46a1.82,1.82,0,0,1-1.41-.56,2.06,2.06,0,0,1-.53-1.48,2.17,2.17,0,0,1,.55-1.58A2,2,0,0,1,150,9.28a1.77,1.77,0,0,1,1.39.55,2.16,2.16,0,0,1,.51,1.53,2.17,2.17,0,0,1-.54,1.53A1.92,1.92,0,0,1,149.89,13.46Zm.05-3.64a1.23,1.23,0,0,0-1,.42,1.75,1.75,0,0,0-.35,1.15,1.67,1.67,0,0,0,.36,1.13,1.25,1.25,0,0,0,1,.41,1.18,1.18,0,0,0,1-.41,1.76,1.76,0,0,0,.33-1.14,1.8,1.8,0,0,0-.33-1.16A1.18,1.18,0,0,0,149.94,9.82Z" fill="#00b0f0"/><path d="M155,10a.79.79,0,0,0-.49-.13.81.81,0,0,0-.68.39,1.74,1.74,0,0,0-.28,1.05v2h-.64v-4h.64v.83h0a1.36,1.36,0,0,1,.41-.66,1,1,0,0,1,.63-.24,1,1,0,0,1,.39.06Z" fill="#00b0f0"/><path d="M156,8.36a.4.4,0,0,1-.29-.12.43.43,0,0,1,0-.6.4.4,0,0,1,.29-.12.41.41,0,0,1,.42.42.38.38,0,0,1-.12.29A.38.38,0,0,1,156,8.36Zm.31,5h-.64v-4h.64Z" fill="#00b0f0"/><path d="M160.42,9.55l-2.37,3.27h2.34v.55h-3.28v-.2l2.37-3.25h-2.15V9.37h3.09Z" fill="#00b0f0"/><path d="M164.11,13.37h-.64v-.62h0a1.33,1.33,0,0,1-1.23.71,1.29,1.29,0,0,1-.93-.31,1.08,1.08,0,0,1-.34-.84c0-.75.44-1.18,1.32-1.31l1.2-.16c0-.68-.28-1-.83-1a2,2,0,0,0-1.3.49V9.65a2.48,2.48,0,0,1,1.36-.37c.94,0,1.41.49,1.41,1.49Zm-.64-2-1,.13a1.64,1.64,0,0,0-.67.22.64.64,0,0,0-.22.56.59.59,0,0,0,.2.48.84.84,0,0,0,.56.19,1,1,0,0,0,.79-.34,1.16,1.16,0,0,0,.31-.84Z" fill="#00b0f0"/><path d="M168,13.19a2.1,2.1,0,0,1-1.09.27,1.81,1.81,0,0,1-1.38-.55,2,2,0,0,1-.53-1.45,2.2,2.2,0,0,1,.57-1.58,2,2,0,0,1,1.51-.6,2.12,2.12,0,0,1,.93.19v.66a1.61,1.61,0,0,0-1-.31,1.27,1.27,0,0,0-1,.44,1.65,1.65,0,0,0-.39,1.15,1.57,1.57,0,0,0,.37,1.11,1.26,1.26,0,0,0,1,.41,1.59,1.59,0,0,0,1-.35Z" fill="#00b0f0"/><path d="M169.34,8.36a.4.4,0,0,1-.29-.12.43.43,0,0,1,0-.6.4.4,0,0,1,.29-.12.41.41,0,0,1,.42.42.38.38,0,0,1-.12.29A.38.38,0,0,1,169.34,8.36Zm.31,5H169v-4h.64Z" fill="#00b0f0"/><path d="M172.62,13.46a1.82,1.82,0,0,1-1.41-.56,2,2,0,0,1-.53-1.48,2.17,2.17,0,0,1,.55-1.58,2,2,0,0,1,1.48-.56,1.78,1.78,0,0,1,1.4.55,2.16,2.16,0,0,1,.5,1.53,2.17,2.17,0,0,1-.54,1.53A1.9,1.9,0,0,1,172.62,13.46Zm0-3.64a1.23,1.23,0,0,0-1,.42,1.7,1.7,0,0,0-.36,1.15,1.62,1.62,0,0,0,.37,1.13,1.23,1.23,0,0,0,1,.41,1.16,1.16,0,0,0,1-.41,1.71,1.71,0,0,0,.34-1.14,1.75,1.75,0,0,0-.34-1.16A1.16,1.16,0,0,0,172.67,9.82Zm.94-2.49-1,1.28h-.49L173,7.33Z" fill="#00b0f0"/><path d="M179,13.37h-.64V11.09c0-.85-.31-1.27-.93-1.27a1,1,0,0,0-.8.36,1.32,1.32,0,0,0-.31.91v2.28h-.64v-4h.64V10h0a1.44,1.44,0,0,1,1.32-.76,1.23,1.23,0,0,1,1,.42,1.9,1.9,0,0,1,.35,1.23Z" fill="#00b0f0"/></svg>