<svg xmlns="http://www.w3.org/2000/svg" viewBox="0 0 205.55 55.68"><defs><style>.cls-1,.cls-4{fill:#fff;}.cls-1{stroke:#000;stroke-width:0.24px;}.cls-1,.cls-3{stroke-linecap:round;stroke-linejoin:round;}.cls-2,.cls-3{fill:#008bfd;}.cls-3{stroke:gray;stroke-width:0.75px;}.cls-5{fill:#505050;}.cls-6{fill:#00b0f0;}</style></defs><title>OJ104546506</title><g id="shapes"><g id="shape1000-1"><path class="cls-1" d="M16,9.82.12,21.25,6.2,39.73H25.86l6.08-18.48Z"/></g><g id="group1216-3"><g id="group1217-4"><g id="group1218-5"><g id="group1219-6"><g id="shape1220-7"><path class="cls-2" d="M15.7,16.94a4.49,4.49,0,0,0-3,5.66c.66,2.55,3,4.22,5.27,3.67a4.5,4.5,0,0,0,3-5.67C20.42,17.94,18,16.27,15.7,16.94Z"/></g></g><g id="group1221-9"><g id="shape1222-10"><path class="cls-2" d="M20.64,27c-.44,0-.88.78-1.54,1.11s-1.32.89-3.18,0-2.09-1.66-3.63-1.66-4.06,2.77-4.06,6.88H23.82a12.09,12.09,0,0,0-1.1-4.22C21.62,27,21.08,27,20.64,27Z"/></g></g></g></g><g id="group1223-12"><g id="shape1224-13"><path class="cls-3" d="M22.05,22H17.93a.71.71,0,0,0-.65.66v2.85a.72.72,0,0,0,.76.65h.76v5.15a1,1,0,0,0,1,1.1,1,1,0,0,0,1-1H21v-.65c0-.22.33-.33.33-.33v-.33c-.33-.11-.54-.33-.54-.44v-.33l.21-.22a3.55,3.55,0,0,0,.33-.54A2.4,2.4,0,0,1,21,28c-.1-.11-.1-.33-.21-.44v-.22a2.51,2.51,0,0,1,.76-1.1h.54a.7.7,0,0,0,.65-.65v-3A.63.63,0,0,0,22.05,22Zm-2.39,9.53c0,.22,0,.33-.21.33s-.22-.22-.22-.33V26.72c0-.22.11-.33.22-.33s.21.22.21.33ZM20,23.76a.69.69,0,0,1-.65-.65.7.7,0,0,1,.65-.66.71.71,0,0,1,.65.66A.62.62,0,0,1,20,23.76Z"/></g><g id="shape1225-15"><path class="cls-4" d="M19.43,31.85a.24.24,0,0,1-.22-.22v-5a.22.22,0,0,1,.44,0v5.11C19.65,31.85,19.54,31.85,19.43,31.85Z"/></g><g id="shape1226-17"><ellipse class="cls-4" cx="20" cy="23.09" rx="0.66" ry="0.67"/></g></g></g><g id="shape1229-25"><path class="cls-2" d="M77.23,9.3H56.73a1.09,1.09,0,0,0-1.09,1.1V27.14a1.1,1.1,0,0,0,1.09,1.11H62a3.29,3.29,0,0,0,3.21,2.27,3.38,3.38,0,0,0,0-6.75A3.29,3.29,0,0,0,62,26H57.82v-12H76.13V26H72.68a7.61,7.61,0,0,0-7.46-6.56,8.25,8.25,0,0,0-3.64.92l1,2a5.27,5.27,0,0,1,2.55-.67,5.46,5.46,0,0,1,0,10.91,5.27,5.27,0,0,1-2.55-.67l-1,2a7.51,7.51,0,0,0,3.64.92,7.61,7.61,0,0,0,7.46-6.56h4.55a1.1,1.1,0,0,0,1.09-1.11V10.4A1.14,1.14,0,0,0,77.23,9.3Z"/></g><g id="shape1227-19"><path class="cls-2" d="M192.6,8.81H172.1A1.09,1.09,0,0,0,171,9.91V26.65a1.1,1.1,0,0,0,1.09,1.11h5.28A3.29,3.29,0,0,0,180.59,30a3.38,3.38,0,0,0,0-6.75,3.29,3.29,0,0,0-3.21,2.27h-4.19v-12H191.5v12h-3.45A7.61,7.61,0,0,0,180.59,19a8.25,8.25,0,0,0-3.64.92l1,2a5.27,5.27,0,0,1,2.55-.67,5.46,5.46,0,0,1,0,10.91,5.27,5.27,0,0,1-2.55-.67l-1,2a7.51,7.51,0,0,0,3.64.92,7.61,7.61,0,0,0,7.46-6.56h4.55a1.1,1.1,0,0,0,1.09-1.11V9.91A1.14,1.14,0,0,0,192.6,8.81Z"/></g><g id="shape1230-28"><g id="lend5"><path class="cls-5" d="M162.52,17.59l8.06,4-7.94,4a9,9,0,0,0-.06-8"/></g></g></g><g id="text"><path d="M169,43.46h-.82l-.67-1.77h-2.67l-.63,1.77h-.82l2.41-6.3h.77ZM167.27,41l-1-2.69a2.15,2.15,0,0,1-.1-.42h0a2.07,2.07,0,0,1-.11.42l-1,2.69Z"/><path d="M170.34,42.81h0v2.72h-.72V39h.72v.79h0a1.69,1.69,0,0,1,1.55-.9,1.66,1.66,0,0,1,1.36.61,2.47,2.47,0,0,1,.49,1.62,2.79,2.79,0,0,1-.55,1.81,1.83,1.83,0,0,1-1.5.68A1.53,1.53,0,0,1,170.34,42.81Zm0-1.82v.63a1.34,1.34,0,0,0,.36,1,1.3,1.3,0,0,0,1.95-.11,2.31,2.31,0,0,0,.37-1.4,1.79,1.79,0,0,0-.34-1.17,1.16,1.16,0,0,0-.95-.43,1.3,1.3,0,0,0-1,.44A1.61,1.61,0,0,0,170.32,41Z"/><path d="M175.39,43.46h-.72V36.8h.72Z"/><path d="M177,37.82a.49.49,0,0,1-.33-.13.45.45,0,0,1-.13-.34.43.43,0,0,1,.13-.33.45.45,0,0,1,.33-.14.48.48,0,0,1,.34.14.44.44,0,0,1,.14.33.45.45,0,0,1-.14.33A.48.48,0,0,1,177,37.82Zm.35,5.64h-.72V39h.72Z"/><path d="M181.64,43.25a2.3,2.3,0,0,1-1.23.32,2,2,0,0,1-1.55-.63,2.29,2.29,0,0,1-.59-1.62,2.47,2.47,0,0,1,.64-1.79,2.22,2.22,0,0,1,1.7-.68,2.45,2.45,0,0,1,1,.22v.74a1.85,1.85,0,0,0-1.07-.35,1.44,1.44,0,0,0-1.13.5,1.84,1.84,0,0,0-.44,1.29,1.81,1.81,0,0,0,.41,1.25,1.43,1.43,0,0,0,1.12.46,1.78,1.78,0,0,0,1.1-.39Z"/><path d="M185.73,43.46H185v-.7h0a1.64,1.64,0,0,1-2.44.45,1.25,1.25,0,0,1-.38-1c0-.84.5-1.33,1.49-1.46l1.35-.19c0-.77-.31-1.15-.93-1.15a2.28,2.28,0,0,0-1.47.55v-.73a2.84,2.84,0,0,1,1.53-.43q1.59,0,1.59,1.68ZM185,41.18l-1.09.15a1.78,1.78,0,0,0-.75.25.72.72,0,0,0-.26.63.68.68,0,0,0,.24.54.88.88,0,0,0,.62.21,1.16,1.16,0,0,0,.89-.38,1.34,1.34,0,0,0,.35-.95Z"/><path d="M189.93,43.25a2.35,2.35,0,0,1-1.23.32,2,2,0,0,1-1.55-.63,2.25,2.25,0,0,1-.6-1.62,2.51,2.51,0,0,1,.64-1.79,2.24,2.24,0,0,1,1.7-.68,2.46,2.46,0,0,1,1.05.22v.74a1.87,1.87,0,0,0-1.07-.35,1.48,1.48,0,0,0-1.14.5,1.89,1.89,0,0,0-.44,1.29,1.77,1.77,0,0,0,.42,1.25,1.42,1.42,0,0,0,1.11.46,1.83,1.83,0,0,0,1.11-.39Z"/><path d="M191.16,37.82a.51.51,0,0,1-.33-.13.45.45,0,0,1-.13-.34.43.43,0,0,1,.13-.33.47.47,0,0,1,.33-.14.46.46,0,0,1,.34.14.44.44,0,0,1,.14.33.45.45,0,0,1-.14.33A.46.46,0,0,1,191.16,37.82Zm.36,5.64h-.73V39h.73Z"/><path d="M194.63,43.57a2.05,2.05,0,0,1-1.59-.64,2.31,2.31,0,0,1-.6-1.67,2.46,2.46,0,0,1,.62-1.77,2.25,2.25,0,0,1,1.68-.64,2,2,0,0,1,1.57.62,2.51,2.51,0,0,1,.56,1.72,2.41,2.41,0,0,1-.61,1.73A2.13,2.13,0,0,1,194.63,43.57Zm.05-4.11a1.39,1.39,0,0,0-1.1.47,2,2,0,0,0-.4,1.31,1.85,1.85,0,0,0,.41,1.26,1.41,1.41,0,0,0,1.09.46,1.33,1.33,0,0,0,1.08-.45,2.45,2.45,0,0,0,0-2.59A1.3,1.3,0,0,0,194.68,39.46Zm1.06-2.79-1.15,1.44H194l1-1.44Z"/><path d="M201.53,43.46h-.72V40.89c0-1-.35-1.43-1-1.43a1.16,1.16,0,0,0-.9.41,1.52,1.52,0,0,0-.35,1v2.57h-.72V39h.72v.75h0a1.62,1.62,0,0,1,1.47-.86,1.38,1.38,0,0,1,1.13.48,2.14,2.14,0,0,1,.39,1.38Z"/><path d="M175,53.46h-.72V52.7h0a1.65,1.65,0,0,1-1.54.87,1.7,1.7,0,0,1-1.36-.61,2.46,2.46,0,0,1-.51-1.64,2.65,2.65,0,0,1,.57-1.79,1.84,1.84,0,0,1,1.5-.68,1.45,1.45,0,0,1,1.34.73h0V46.8H175Zm-.72-2v-.67a1.28,1.28,0,0,0-.36-.92,1.21,1.21,0,0,0-.91-.38,1.25,1.25,0,0,0-1,.48,2.16,2.16,0,0,0-.38,1.34,1.86,1.86,0,0,0,.37,1.23,1.17,1.17,0,0,0,1,.45,1.24,1.24,0,0,0,1-.44A1.6,1.6,0,0,0,174.28,51.43Z"/><path d="M179.85,51.39h-3.17a1.66,1.66,0,0,0,.4,1.16,1.4,1.4,0,0,0,1.06.41,2.22,2.22,0,0,0,1.4-.5v.67a2.59,2.59,0,0,1-1.57.44,1.92,1.92,0,0,1-1.5-.62,2.52,2.52,0,0,1-.54-1.72,2.44,2.44,0,0,1,.6-1.71,1.91,1.91,0,0,1,1.47-.67,1.7,1.7,0,0,1,1.37.58,2.39,2.39,0,0,1,.48,1.58Zm-.73-.61a1.48,1.48,0,0,0-.31-1,1,1,0,0,0-.82-.35,1.12,1.12,0,0,0-.86.37,1.59,1.59,0,0,0-.44,1Z"/><path d="M187.93,53.46h-.81l-.67-1.77h-2.67l-.63,1.77h-.82l2.41-6.3h.77ZM186.21,51l-1-2.69a2.15,2.15,0,0,1-.1-.42h0a2.17,2.17,0,0,1-.1.42L184,51Z"/><path d="M189.37,51.08v2.38h-.73v-6.3h1.73a2.26,2.26,0,0,1,1.56.49,1.76,1.76,0,0,1,.56,1.39,1.92,1.92,0,0,1-.62,1.47,2.34,2.34,0,0,1-1.66.57Zm0-3.25v2.58h.78a1.71,1.71,0,0,0,1.16-.35,1.23,1.23,0,0,0,.41-1c0-.83-.5-1.24-1.48-1.24Z"/><path d="M194.19,53.46h-.74v-6.3h.74Z"/><path d="M52.23,43.46h-.81l-.67-1.77H48.08l-.63,1.77h-.82L49,37.16h.77ZM50.51,41l-1-2.69a2.15,2.15,0,0,1-.1-.42h0a2.17,2.17,0,0,1-.1.42l-1,2.69Z"/><path d="M53.8,42.81h0v2.72h-.72V39h.72v.79h0a1.72,1.72,0,0,1,1.56-.9,1.67,1.67,0,0,1,1.36.61,2.52,2.52,0,0,1,.48,1.62,2.79,2.79,0,0,1-.55,1.81,1.82,1.82,0,0,1-1.5.68A1.53,1.53,0,0,1,53.8,42.81Zm0-1.81v.62a1.35,1.35,0,0,0,.37,1,1.29,1.29,0,0,0,1.94-.11,2.29,2.29,0,0,0,.38-1.39,1.8,1.8,0,0,0-.35-1.18,1.14,1.14,0,0,0-.94-.43,1.27,1.27,0,0,0-1,.44A1.59,1.59,0,0,0,53.78,41Z"/><path d="M59.08,43.46h-.73V36.8h.73Z"/><path d="M60.9,37.82a.51.51,0,0,1-.33-.13.45.45,0,0,1-.13-.34.44.44,0,0,1,.13-.33.47.47,0,0,1,.33-.14.46.46,0,0,1,.34.14.46.46,0,0,1,0,.66A.46.46,0,0,1,60.9,37.82Zm.36,5.64h-.73V39h.73Z"/><path d="M65.78,43.25a2.3,2.3,0,0,1-1.23.32A2,2,0,0,1,63,42.94a2.25,2.25,0,0,1-.59-1.62A2.51,2.51,0,0,1,63,39.53a2.25,2.25,0,0,1,1.7-.68,2.46,2.46,0,0,1,1.05.22v.74a1.85,1.85,0,0,0-1.07-.35,1.44,1.44,0,0,0-1.13.5,1.84,1.84,0,0,0-.44,1.29,1.76,1.76,0,0,0,.41,1.25,1.42,1.42,0,0,0,1.11.46,1.79,1.79,0,0,0,1.11-.39Z"/><path d="M70.09,43.46h-.72v-.7h0a1.5,1.5,0,0,1-1.38.81,1.45,1.45,0,0,1-1-.36,1.21,1.21,0,0,1-.38-1c0-.84.49-1.33,1.48-1.46l1.35-.19c0-.77-.31-1.15-.93-1.15A2.23,2.23,0,0,0,67,40v-.73a2.79,2.79,0,0,1,1.53-.43c1,0,1.58.56,1.58,1.68Zm-.72-2.28-1.08.15a1.78,1.78,0,0,0-.76.25.72.72,0,0,0-.25.63.68.68,0,0,0,.23.54.92.92,0,0,0,.63.21,1.16,1.16,0,0,0,.88-.38,1.3,1.3,0,0,0,.35-.95Z"/><path d="M74.52,43.25a2.35,2.35,0,0,1-1.23.32,2.06,2.06,0,0,1-1.56-.63,2.29,2.29,0,0,1-.59-1.62,2.51,2.51,0,0,1,.64-1.79,2.24,2.24,0,0,1,1.7-.68,2.46,2.46,0,0,1,1,.22v.74a1.88,1.88,0,0,0-1.08-.35,1.46,1.46,0,0,0-1.13.5,1.89,1.89,0,0,0-.44,1.29,1.77,1.77,0,0,0,.42,1.25,1.39,1.39,0,0,0,1.11.46,1.83,1.83,0,0,0,1.11-.39Z"/><path d="M76,37.82a.49.49,0,0,1-.33-.13.46.46,0,0,1-.14-.34.47.47,0,0,1,.8-.33.46.46,0,0,1,0,.66A.45.45,0,0,1,76,37.82Zm.35,5.64h-.72V39h.72Z"/><path d="M79.67,43.57a2,2,0,0,1-1.59-.64,2.31,2.31,0,0,1-.6-1.67,2.46,2.46,0,0,1,.62-1.77,2.24,2.24,0,0,1,1.67-.64,2.06,2.06,0,0,1,1.58.62,2.51,2.51,0,0,1,.56,1.72,2.41,2.41,0,0,1-.61,1.73A2.13,2.13,0,0,1,79.67,43.57Zm0-4.11a1.39,1.39,0,0,0-1.1.47,2,2,0,0,0-.4,1.31,1.81,1.81,0,0,0,.41,1.26,1.36,1.36,0,0,0,1.09.46,1.33,1.33,0,0,0,1.08-.45,2,2,0,0,0,.37-1.29,2,2,0,0,0-.37-1.3A1.3,1.3,0,0,0,79.72,39.46Zm1.06-2.79-1.16,1.44h-.55l1-1.44Z"/><path d="M86.8,43.46h-.72V40.89c0-1-.35-1.43-1-1.43a1.12,1.12,0,0,0-.89.41,1.48,1.48,0,0,0-.36,1v2.57h-.72V39h.72v.75h0a1.63,1.63,0,0,1,1.48-.86,1.39,1.39,0,0,1,1.13.48,2.14,2.14,0,0,1,.39,1.38Z"/><path d="M58.69,53.46H58V52.7h0a1.66,1.66,0,0,1-1.54.87A1.7,1.7,0,0,1,55.05,53a2.46,2.46,0,0,1-.51-1.64,2.72,2.72,0,0,1,.56-1.79,1.87,1.87,0,0,1,1.5-.68,1.45,1.45,0,0,1,1.35.73h0V46.8h.72Zm-.72-2v-.67a1.28,1.28,0,0,0-.36-.92,1.22,1.22,0,0,0-.91-.38,1.25,1.25,0,0,0-1,.48,2.16,2.16,0,0,0-.38,1.34,1.92,1.92,0,0,0,.36,1.23,1.21,1.21,0,0,0,1,.45,1.22,1.22,0,0,0,1-.44A1.56,1.56,0,0,0,58,51.43Z"/><path d="M63.77,51.39H60.59a1.71,1.71,0,0,0,.4,1.16,1.42,1.42,0,0,0,1.07.41,2.22,2.22,0,0,0,1.39-.5v.67a2.55,2.55,0,0,1-1.56.44,1.89,1.89,0,0,1-1.5-.62,2.47,2.47,0,0,1-.55-1.72,2.44,2.44,0,0,1,.6-1.71,1.91,1.91,0,0,1,1.48-.67,1.68,1.68,0,0,1,1.36.58A2.34,2.34,0,0,1,63.77,51ZM63,50.78a1.43,1.43,0,0,0-.3-1,1.05,1.05,0,0,0-.83-.35,1.12,1.12,0,0,0-.86.37,1.59,1.59,0,0,0-.44,1Z"/><path d="M72.3,53.46h-.82l-.67-1.77H68.14l-.63,1.77h-.82l2.42-6.3h.76ZM70.57,51l-1-2.69a3.3,3.3,0,0,1-.1-.42h0a3.3,3.3,0,0,1-.1.42l-1,2.69Z"/><path d="M74,51.08v2.38h-.74v-6.3H75a2.26,2.26,0,0,1,1.56.49A1.76,1.76,0,0,1,77.08,49a1.92,1.92,0,0,1-.62,1.47,2.37,2.37,0,0,1-1.67.57Zm0-3.25v2.58h.78a1.73,1.73,0,0,0,1.16-.35,1.23,1.23,0,0,0,.4-1c0-.83-.49-1.24-1.47-1.24Z"/><path d="M79,53.46h-.74v-6.3H79Z"/><path class="cls-6" d="M89.49,2H87V4.2H89.3v.66H87V7.65h-.74V1.35h3.2Z"/><path class="cls-6" d="M91.08,7.65h-.72V1h.72Z"/><path class="cls-6" d="M96,7.65h-.73V6.94h0a1.49,1.49,0,0,1-1.39.82c-1.07,0-1.61-.64-1.61-1.92V3.15h.72V5.73c0,.95.36,1.42,1.09,1.42a1.08,1.08,0,0,0,.86-.39,1.48,1.48,0,0,0,.34-1V3.15H96Z"/><path class="cls-6" d="M97.91,7.46a2.81,2.81,0,0,1-.45,1.71,1.5,1.5,0,0,1-1.28.6,1.38,1.38,0,0,1-.59-.14V9a1.17,1.17,0,0,0,.61.19c.66,0,1-.52,1-1.57V3.15h.72ZM97.55,2a.48.48,0,0,1-.32-.13.42.42,0,0,1-.14-.34.42.42,0,0,1,.14-.33.45.45,0,0,1,.32-.14.46.46,0,0,1,.34.14.46.46,0,0,1,0,.66A.46.46,0,0,1,97.55,2Z"/><path class="cls-6" d="M101,7.76a2.08,2.08,0,0,1-1.59-.63,2.33,2.33,0,0,1-.6-1.68,2.46,2.46,0,0,1,.62-1.77,2.25,2.25,0,0,1,1.68-.63,2,2,0,0,1,1.57.62,2.46,2.46,0,0,1,.56,1.71,2.41,2.41,0,0,1-.61,1.73A2.13,2.13,0,0,1,101,7.76Zm0-4.11a1.36,1.36,0,0,0-1.09.47,2,2,0,0,0-.41,1.31A1.85,1.85,0,0,0,100,6.69a1.38,1.38,0,0,0,1.09.46,1.33,1.33,0,0,0,1.08-.45,2,2,0,0,0,.37-1.29,2,2,0,0,0-.37-1.3A1.3,1.3,0,0,0,101.07,3.65Z"/><path class="cls-6" d="M109.5,7.44a2.35,2.35,0,0,1-1.23.32,2,2,0,0,1-1.56-.63,2.29,2.29,0,0,1-.59-1.62,2.49,2.49,0,0,1,.64-1.79,2.21,2.21,0,0,1,1.7-.67,2.31,2.31,0,0,1,1,.22V4a1.85,1.85,0,0,0-1.07-.35,1.46,1.46,0,0,0-1.13.5,1.89,1.89,0,0,0-.44,1.3,1.8,1.8,0,0,0,.41,1.24,1.43,1.43,0,0,0,1.12.46,1.83,1.83,0,0,0,1.11-.39Z"/><path class="cls-6" d="M112.24,7.76a2.09,2.09,0,0,1-1.59-.63,2.33,2.33,0,0,1-.6-1.68,2.46,2.46,0,0,1,.62-1.77,2.25,2.25,0,0,1,1.68-.63,2,2,0,0,1,1.57.62,2.46,2.46,0,0,1,.56,1.71,2.44,2.44,0,0,1-.6,1.73A2.17,2.17,0,0,1,112.24,7.76Zm.05-4.11a1.37,1.37,0,0,0-1.09.47,2,2,0,0,0-.41,1.31,1.85,1.85,0,0,0,.41,1.26,1.38,1.38,0,0,0,1.09.46,1.33,1.33,0,0,0,1.08-.45,2,2,0,0,0,.38-1.29,2,2,0,0,0-.38-1.3A1.3,1.3,0,0,0,112.29,3.65Z"/><path class="cls-6" d="M119.15,7.65h-.73V5.08c0-1-.34-1.43-1-1.43a1.16,1.16,0,0,0-.9.41,1.52,1.52,0,0,0-.35,1V7.65h-.72V3.15h.72V3.9h0a1.62,1.62,0,0,1,1.48-.85,1.35,1.35,0,0,1,1.12.47,2.14,2.14,0,0,1,.4,1.38Z"/><path class="cls-6" d="M126.36,7.65h-.72V6.89h0a1.81,1.81,0,0,1-2.9.26,2.46,2.46,0,0,1-.51-1.64,2.72,2.72,0,0,1,.56-1.79,1.86,1.86,0,0,1,1.5-.67,1.43,1.43,0,0,1,1.35.73h0V1h.72Zm-.72-2V5a1.28,1.28,0,0,0-.36-.92,1.23,1.23,0,0,0-.92-.38,1.21,1.21,0,0,0-1,.49A2.1,2.1,0,0,0,123,5.47a1.92,1.92,0,0,0,.36,1.23,1.19,1.19,0,0,0,1,.45,1.21,1.21,0,0,0,1-.43A1.63,1.63,0,0,0,125.64,5.62Z"/><path class="cls-6" d="M131.21,5.58H128a1.66,1.66,0,0,0,.41,1.16,1.39,1.39,0,0,0,1.06.41,2.24,2.24,0,0,0,1.4-.5v.68a2.68,2.68,0,0,1-1.57.43,1.89,1.89,0,0,1-1.5-.62,2.5,2.5,0,0,1-.54-1.72,2.44,2.44,0,0,1,.59-1.71,1.92,1.92,0,0,1,1.48-.66,1.71,1.71,0,0,1,1.37.57,2.39,2.39,0,0,1,.48,1.58ZM130.47,5a1.43,1.43,0,0,0-.3-1,1,1,0,0,0-.82-.35,1.16,1.16,0,0,0-.87.37A1.65,1.65,0,0,0,128,5Z"/><path class="cls-6" d="M134.42,3.88a.87.87,0,0,0-.54-.14.93.93,0,0,0-.78.43,2.07,2.07,0,0,0-.31,1.19V7.65h-.72V3.15h.72v.93h0a1.63,1.63,0,0,1,.47-.74,1.07,1.07,0,0,1,.71-.27,1.19,1.19,0,0,1,.43.06Z"/><path class="cls-6" d="M138.6,5.58h-3.18a1.66,1.66,0,0,0,.4,1.16,1.41,1.41,0,0,0,1.07.41,2.22,2.22,0,0,0,1.39-.5v.68a2.63,2.63,0,0,1-1.57.43,1.89,1.89,0,0,1-1.49-.62,2.45,2.45,0,0,1-.55-1.72,2.44,2.44,0,0,1,.6-1.71,1.9,1.9,0,0,1,1.48-.66,1.69,1.69,0,0,1,1.36.57,2.39,2.39,0,0,1,.49,1.58ZM137.86,5a1.54,1.54,0,0,0-.3-1,1.05,1.05,0,0,0-.83-.35,1.12,1.12,0,0,0-.86.37,1.59,1.59,0,0,0-.44,1Z"/><path class="cls-6" d="M142.53,7.44a2.35,2.35,0,0,1-1.23.32,2.06,2.06,0,0,1-1.56-.63,2.29,2.29,0,0,1-.59-1.62,2.53,2.53,0,0,1,.64-1.79,2.21,2.21,0,0,1,1.7-.67,2.35,2.35,0,0,1,1,.22V4a1.9,1.9,0,0,0-1.08-.35,1.46,1.46,0,0,0-1.13.5,1.89,1.89,0,0,0-.44,1.3,1.76,1.76,0,0,0,.42,1.24,1.39,1.39,0,0,0,1.11.46,1.83,1.83,0,0,0,1.11-.39Z"/><path class="cls-6" d="M147.13,7.65h-.72V5.06q0-1.41-1-1.41a1.15,1.15,0,0,0-.89.41,1.51,1.51,0,0,0-.36,1V7.65h-.72V1h.72V3.9h0a1.64,1.64,0,0,1,1.48-.85c1,0,1.52.61,1.52,1.83Z"/><path class="cls-6" d="M150.14,7.76a2.09,2.09,0,0,1-1.59-.63,2.33,2.33,0,0,1-.6-1.68,2.46,2.46,0,0,1,.62-1.77,2.25,2.25,0,0,1,1.68-.63,2,2,0,0,1,1.57.62,2.46,2.46,0,0,1,.56,1.71,2.41,2.41,0,0,1-.61,1.73A2.13,2.13,0,0,1,150.14,7.76Zm.05-4.11a1.37,1.37,0,0,0-1.09.47,2,2,0,0,0-.41,1.31,1.85,1.85,0,0,0,.41,1.26,1.38,1.38,0,0,0,1.09.46,1.33,1.33,0,0,0,1.08-.45,2,2,0,0,0,.37-1.29,2,2,0,0,0-.37-1.3A1.3,1.3,0,0,0,150.19,3.65Z"/><path class="cls-6" d="M153,7.49V6.72a2.11,2.11,0,0,0,1.29.43c.64,0,.95-.21.95-.63a.62.62,0,0,0-.08-.31A.77.77,0,0,0,155,6a1.91,1.91,0,0,0-.32-.17l-.41-.16a5.2,5.2,0,0,1-.52-.24,1.63,1.63,0,0,1-.38-.28,1,1,0,0,1-.23-.34,1.25,1.25,0,0,1-.08-.45,1,1,0,0,1,.15-.56,1.27,1.27,0,0,1,.39-.41,1.63,1.63,0,0,1,.55-.25,2.25,2.25,0,0,1,.64-.08,2.44,2.44,0,0,1,1,.2V4a2,2,0,0,0-1.14-.33,1.36,1.36,0,0,0-.36.05.73.73,0,0,0-.28.13.49.49,0,0,0-.18.2.45.45,0,0,0-.07.25.56.56,0,0,0,.07.3.6.6,0,0,0,.18.21,2.14,2.14,0,0,0,.3.17l.4.16a4.58,4.58,0,0,1,.54.24,1.75,1.75,0,0,1,.4.27,1,1,0,0,1,.26.35,1.13,1.13,0,0,1,.09.47,1.11,1.11,0,0,1-.15.58,1.38,1.38,0,0,1-.39.41,2.13,2.13,0,0,1-.57.24,2.93,2.93,0,0,1-.67.08A2.53,2.53,0,0,1,153,7.49Z"/><path class="cls-6" d="M105.82,17.65h-.72v-.76h0a1.81,1.81,0,0,1-2.9.26,2.46,2.46,0,0,1-.51-1.64,2.72,2.72,0,0,1,.56-1.79,1.86,1.86,0,0,1,1.5-.67,1.43,1.43,0,0,1,1.35.73h0V11h.72Zm-.72-2V15a1.28,1.28,0,0,0-.36-.92,1.23,1.23,0,0,0-.92-.38,1.21,1.21,0,0,0-1,.49,2.1,2.1,0,0,0-.38,1.33,1.92,1.92,0,0,0,.36,1.23,1.19,1.19,0,0,0,1,.45,1.21,1.21,0,0,0,1-.43A1.63,1.63,0,0,0,105.1,15.62Z"/><path class="cls-6" d="M110.67,15.58h-3.18a1.66,1.66,0,0,0,.41,1.16,1.4,1.4,0,0,0,1.06.41,2.24,2.24,0,0,0,1.4-.5v.68a2.68,2.68,0,0,1-1.57.43,1.89,1.89,0,0,1-1.5-.62,2.5,2.5,0,0,1-.54-1.72,2.44,2.44,0,0,1,.59-1.71,1.92,1.92,0,0,1,1.48-.66,1.71,1.71,0,0,1,1.37.57,2.39,2.39,0,0,1,.48,1.58Zm-.74-.61a1.43,1.43,0,0,0-.3-1,1,1,0,0,0-.82-.35,1.16,1.16,0,0,0-.87.37,1.65,1.65,0,0,0-.44,1Z"/><path class="cls-6" d="M112.26,17.65h-.72V11h.72Z"/><path class="cls-6" d="M117.11,15.58h-3.18a1.71,1.71,0,0,0,.4,1.16,1.42,1.42,0,0,0,1.07.41,2.22,2.22,0,0,0,1.39-.5v.68a2.62,2.62,0,0,1-1.56.43,1.89,1.89,0,0,1-1.5-.62,2.45,2.45,0,0,1-.55-1.72,2.44,2.44,0,0,1,.6-1.71,1.9,1.9,0,0,1,1.48-.66,1.68,1.68,0,0,1,1.36.57,2.34,2.34,0,0,1,.49,1.58Zm-.74-.61a1.43,1.43,0,0,0-.3-1,1.05,1.05,0,0,0-.83-.35,1.14,1.14,0,0,0-.86.37,1.59,1.59,0,0,0-.44,1Z"/><path class="cls-6" d="M121.81,17.29c0,1.65-.79,2.48-2.37,2.48a3.2,3.2,0,0,1-1.46-.32v-.72a3,3,0,0,0,1.45.42c1.11,0,1.66-.58,1.66-1.76V16.9h0a1.81,1.81,0,0,1-2.89.26,2.36,2.36,0,0,1-.52-1.61,2.8,2.8,0,0,1,.56-1.83,1.82,1.82,0,0,1,1.5-.67,1.45,1.45,0,0,1,1.35.73h0v-.63h.72Zm-.72-1.67V15a1.32,1.32,0,0,0-.36-.92,1.2,1.2,0,0,0-.9-.38,1.24,1.24,0,0,0-1,.49,2.16,2.16,0,0,0-.38,1.36,1.87,1.87,0,0,0,.36,1.2,1.19,1.19,0,0,0,1,.45,1.24,1.24,0,0,0,1-.43A1.63,1.63,0,0,0,121.09,15.62Z"/><path class="cls-6" d="M126.27,17.65h-.72V17h0a1.51,1.51,0,0,1-1.39.81,1.49,1.49,0,0,1-1-.36,1.24,1.24,0,0,1-.38-.94c0-.85.5-1.33,1.49-1.47l1.35-.19c0-.77-.31-1.15-.93-1.15a2.23,2.23,0,0,0-1.47.56v-.74a2.79,2.79,0,0,1,1.53-.42c1.06,0,1.59.56,1.59,1.67Zm-.72-2.28-1.09.15a1.78,1.78,0,0,0-.75.25.72.72,0,0,0-.26.63.68.68,0,0,0,.24.54.88.88,0,0,0,.62.21,1.14,1.14,0,0,0,.89-.38,1.34,1.34,0,0,0,.35-.95Z"/><path class="cls-6" d="M131.24,17.65h-.72v-.76h0a1.81,1.81,0,0,1-2.9.26,2.46,2.46,0,0,1-.51-1.64,2.67,2.67,0,0,1,.57-1.79,1.83,1.83,0,0,1,1.49-.67,1.43,1.43,0,0,1,1.35.73h0V11h.72Zm-.72-2V15a1.28,1.28,0,0,0-.36-.92,1.21,1.21,0,0,0-.91-.38,1.23,1.23,0,0,0-1,.49,2.1,2.1,0,0,0-.38,1.33,1.92,1.92,0,0,0,.36,1.23,1.3,1.3,0,0,0,1.95,0A1.59,1.59,0,0,0,130.52,15.62Z"/><path class="cls-6" d="M134.36,17.76a2.1,2.1,0,0,1-1.6-.63,2.37,2.37,0,0,1-.59-1.68,2.42,2.42,0,0,1,.62-1.77,2.23,2.23,0,0,1,1.67-.63,2,2,0,0,1,1.57.62,2.42,2.42,0,0,1,.57,1.71,2.45,2.45,0,0,1-.61,1.73A2.15,2.15,0,0,1,134.36,17.76Zm0-4.11a1.39,1.39,0,0,0-1.1.47,2,2,0,0,0-.4,1.31,1.85,1.85,0,0,0,.4,1.26,1.4,1.4,0,0,0,1.1.46,1.32,1.32,0,0,0,1.07-.45,2,2,0,0,0,.38-1.29,2,2,0,0,0-.38-1.3A1.3,1.3,0,0,0,134.41,13.65Z"/><path class="cls-6" d="M137.25,17.49v-.77a2.14,2.14,0,0,0,1.3.43c.63,0,.95-.21.95-.63a.62.62,0,0,0-.08-.31.92.92,0,0,0-.22-.22,2,2,0,0,0-.33-.17l-.4-.16a5.46,5.46,0,0,1-.53-.24,1.56,1.56,0,0,1-.37-.28.86.86,0,0,1-.23-.34,1.25,1.25,0,0,1-.08-.45,1,1,0,0,1,.15-.56,1.15,1.15,0,0,1,.38-.41,1.72,1.72,0,0,1,.55-.25,2.29,2.29,0,0,1,.64-.08,2.52,2.52,0,0,1,1.05.2V14a2,2,0,0,0-1.14-.33,1.38,1.38,0,0,0-.37,0,.8.8,0,0,0-.28.13.49.49,0,0,0-.18.2.54.54,0,0,0-.06.25.67.67,0,0,0,.06.3.63.63,0,0,0,.19.21,1.39,1.39,0,0,0,.3.17l.4.16a3.79,3.79,0,0,1,.53.24,1.82,1.82,0,0,1,.41.27,1,1,0,0,1,.25.35,1,1,0,0,1,.1.47,1.11,1.11,0,0,1-.15.58,1.3,1.3,0,0,1-.4.41,2.2,2.2,0,0,1-.56.24,3,3,0,0,1-.67.08A2.54,2.54,0,0,1,137.25,17.49Z"/><rect class="cls-5" x="78.32" y="20.68" width="85.23" height="1.75"/></g></svg>