<svg id="svg95" xmlns="http://www.w3.org/2000/svg" viewBox="0 0 205.55 55.68">
  <defs>
    <style>
      .cls-1, .cls-4, .cls-5 {
        fill: #fff;
      }

      .cls-1 {
        stroke: #000;
        stroke-width: 0.24px;
      }

      .cls-1, .cls-3 {
        stroke-linecap: round;
        stroke-linejoin: round;
      }

      .cls-1, .cls-2, .cls-3, .cls-4, .cls-7 {
        fill-rule: evenodd;
      }

      .cls-10, .cls-2, .cls-3 {
        fill: #008bfd;
      }

      .cls-3 {
        stroke: gray;
        stroke-width: 0.75px;
      }

      .cls-6, .cls-7 {
        fill: #505050;
      }

      .cls-8 {
        isolation: isolate;
      }

      .cls-9 {
        fill: #00b0f0;
      }
    </style>
  </defs>
  <title>OJ104546506</title>
  <g>
    <g id="shape1000-1">
      <path id="path15" class="cls-1" d="M16,9.82.12,21.25,6.2,39.73H25.86l6.08-18.48Z"/>
    </g>
    <g id="group1216-3">
      <g id="group1217-4">
        <g id="group1218-5">
          <g id="group1219-6">
            <g id="shape1220-7">
              <path id="path28" class="cls-2" d="M15.7,16.94a4.49,4.49,0,0,0-3,5.66c.66,2.55,3,4.22,5.27,3.67a4.5,4.5,0,0,0,3-5.67C20.42,17.94,18,16.27,15.7,16.94Z"/>
            </g>
          </g>
          <g id="group1221-9">
            <g id="shape1222-10">
              <path id="path36" class="cls-2" d="M20.64,27c-.44,0-.88.78-1.54,1.11s-1.32.89-3.18,0-2.09-1.66-3.63-1.66-4.06,2.77-4.06,6.88H23.82a12.09,12.09,0,0,0-1.1-4.22C21.62,27,21.08,27,20.64,27Z"/>
            </g>
          </g>
        </g>
      </g>
      <g id="group1223-12">
        <g id="shape1224-13">
          <path id="path46" class="cls-3" d="M22.05,22H17.93a.71.71,0,0,0-.65.66v2.85a.72.72,0,0,0,.76.65h.76v5.15a1,1,0,0,0,1,1.1,1,1,0,0,0,1-1H21v-.65c0-.22.33-.33.33-.33v-.33c-.33-.11-.54-.33-.54-.44v-.33l.21-.22a3.55,3.55,0,0,0,.33-.54A2.4,2.4,0,0,1,21,28c-.1-.11-.1-.33-.21-.44v-.22a2.51,2.51,0,0,1,.76-1.1h.54a.7.7,0,0,0,.65-.65v-3A.63.63,0,0,0,22.05,22Zm-2.39,9.53c0,.22,0,.33-.21.33s-.22-.22-.22-.33V26.72c0-.22.11-.33.22-.33s.21.22.21.33ZM20,23.76a.69.69,0,0,1-.65-.65.7.7,0,0,1,.65-.66.71.71,0,0,1,.65.66A.62.62,0,0,1,20,23.76Z"/>
        </g>
        <g id="shape1225-15">
          <path id="path51" class="cls-4" d="M19.43,31.85a.24.24,0,0,1-.22-.22v-5a.22.22,0,0,1,.44,0v5.11C19.65,31.85,19.54,31.85,19.43,31.85Z"/>
        </g>
        <g id="shape1226-17">
          <ellipse id="ellipse56" class="cls-5" cx="20" cy="23.09" rx="0.66" ry="0.67"/>
        </g>
      </g>
    </g>
  </g>
  <path id="path65" class="cls-2" d="M192.6,9.81H172.1a1.09,1.09,0,0,0-1.09,1.1V27.65a1.1,1.1,0,0,0,1.09,1.11h5.28A3.29,3.29,0,0,0,180.59,31a3.38,3.38,0,0,0,0-6.75,3.29,3.29,0,0,0-3.21,2.27h-4.19v-12H191.5v12h-3.45A7.61,7.61,0,0,0,180.59,20a8.25,8.25,0,0,0-3.64.92l1,2a5.27,5.27,0,0,1,2.55-.67,5.46,5.46,0,0,1,0,10.91,5.27,5.27,0,0,1-2.55-.67l-1,2a7.51,7.51,0,0,0,3.64.92,7.61,7.61,0,0,0,7.46-6.56h4.55a1.1,1.1,0,0,0,1.09-1.11V10.91A1.14,1.14,0,0,0,192.6,9.81Z"/>
  <path id="path83" class="cls-2" d="M77.23,10.3H56.73a1.09,1.09,0,0,0-1.09,1.1V28.14a1.1,1.1,0,0,0,1.09,1.11H62a3.29,3.29,0,0,0,3.21,2.27,3.38,3.38,0,0,0,0-6.75A3.29,3.29,0,0,0,62,27H57.82v-12H76.13V27H72.68a7.61,7.61,0,0,0-7.46-6.56,8.25,8.25,0,0,0-3.64.92l1,2a5.27,5.27,0,0,1,2.55-.67,5.46,5.46,0,0,1,0,10.91,5.27,5.27,0,0,1-2.55-.67l-1,2a7.51,7.51,0,0,0,3.64.92,7.61,7.61,0,0,0,7.46-6.56h4.55a1.1,1.1,0,0,0,1.09-1.11V11.4A1.14,1.14,0,0,0,77.23,10.3Z"/>
  <g>
    <rect class="cls-6" x="78.32" y="22.08" width="85.85" height="0.96" rx="0.42"/>
    <g id="shape1230-28">
      <g id="use7">
        <g id="lend5">
          <path id="path4" class="cls-7" d="M162.52,18.59l8.06,4-7.94,4a9,9,0,0,0-.06-8"/>
        </g>
      </g>
    </g>
  </g>
  <g id="text76" class="cls-8">
    <path class="cls-9" d="M87.73,2.33H85V4.75h2.53v.74H85v3.1h-.82v-7h3.56Z"/>
    <path class="cls-9" d="M89.75,8.59H89V1.19h.8Z"/>
    <path class="cls-9" d="M95.41,8.59h-.8V7.8h0a1.65,1.65,0,0,1-1.54.91c-1.19,0-1.79-.71-1.79-2.13v-3h.8V6.45c0,1,.4,1.58,1.21,1.58a1.21,1.21,0,0,0,1-.43,1.61,1.61,0,0,0,.38-1.13V3.59h.8Z"/>
    <path class="cls-9" d="M97.83,8.38a3.09,3.09,0,0,1-.5,1.9,1.66,1.66,0,0,1-1.41.66,1.59,1.59,0,0,1-.67-.15V10a1.3,1.3,0,0,0,.69.22c.72,0,1.09-.58,1.09-1.75V3.59h.8Zm-.39-6.06a.51.51,0,0,1-.37-.15.48.48,0,0,1-.15-.37.5.5,0,0,1,.15-.37.51.51,0,0,1,.37-.15.5.5,0,0,1,.37.15A.47.47,0,0,1,98,1.8a.47.47,0,0,1-.16.37A.5.5,0,0,1,97.44,2.32Z"/>
    <path class="cls-9" d="M101.54,8.71A2.31,2.31,0,0,1,99.77,8a2.57,2.57,0,0,1-.66-1.85,2.7,2.7,0,0,1,.69-2,2.49,2.49,0,0,1,1.86-.71,2.22,2.22,0,0,1,1.74.69A2.73,2.73,0,0,1,104,6.07,2.65,2.65,0,0,1,103.35,8,2.36,2.36,0,0,1,101.54,8.71Zm.06-4.56a1.52,1.52,0,0,0-1.22.52,2.15,2.15,0,0,0-.45,1.45,2,2,0,0,0,.45,1.4A1.56,1.56,0,0,0,101.6,8a1.46,1.46,0,0,0,1.19-.5,2.18,2.18,0,0,0,.42-1.43,2.22,2.22,0,0,0-.42-1.45A1.43,1.43,0,0,0,101.6,4.15Z"/>
    <path class="cls-9" d="M111.46,8.36a2.63,2.63,0,0,1-1.37.35,2.3,2.3,0,0,1-1.73-.7,2.53,2.53,0,0,1-.65-1.8,2.74,2.74,0,0,1,.71-2,2.47,2.47,0,0,1,1.89-.75,2.54,2.54,0,0,1,1.16.25v.82a2,2,0,0,0-1.19-.39,1.62,1.62,0,0,0-1.26.54,2.09,2.09,0,0,0-.49,1.45A2,2,0,0,0,109,7.52a1.59,1.59,0,0,0,1.24.51,2,2,0,0,0,1.23-.43Z"/>
    <path class="cls-9" d="M114.76,8.71A2.31,2.31,0,0,1,113,8a2.57,2.57,0,0,1-.66-1.85,2.7,2.7,0,0,1,.69-2,2.46,2.46,0,0,1,1.86-.71,2.24,2.24,0,0,1,1.74.69,2.73,2.73,0,0,1,.63,1.91A2.7,2.7,0,0,1,116.57,8,2.36,2.36,0,0,1,114.76,8.71Zm.06-4.56a1.51,1.51,0,0,0-1.22.52,2.15,2.15,0,0,0-.45,1.45,2,2,0,0,0,.45,1.4,1.55,1.55,0,0,0,1.22.51,1.48,1.48,0,0,0,1.19-.5,2.18,2.18,0,0,0,.42-1.43A2.22,2.22,0,0,0,116,4.65,1.45,1.45,0,0,0,114.82,4.15Z"/>
    <path class="cls-9" d="M122.68,8.59h-.8V5.74c0-1.06-.39-1.59-1.16-1.59a1.27,1.27,0,0,0-1,.45,1.68,1.68,0,0,0-.39,1.14V8.59h-.8v-5h.8v.83h0A1.81,1.81,0,0,1,121,3.47a1.53,1.53,0,0,1,1.25.53,2.36,2.36,0,0,1,.44,1.53Z"/>
    <path class="cls-9" d="M131.19,8.59h-.8V7.74h0a2,2,0,0,1-3.22.29,2.7,2.7,0,0,1-.57-1.82,3,3,0,0,1,.63-2,2.06,2.06,0,0,1,1.67-.75,1.59,1.59,0,0,1,1.49.81h0V1.19h.8Zm-.8-2.26V5.59a1.41,1.41,0,0,0-.4-1,1.32,1.32,0,0,0-1-.42,1.35,1.35,0,0,0-1.15.53,2.32,2.32,0,0,0-.42,1.49,2.1,2.1,0,0,0,.4,1.36,1.3,1.3,0,0,0,1.08.5A1.39,1.39,0,0,0,130,7.55,1.84,1.84,0,0,0,130.39,6.33Z"/>
    <path class="cls-9" d="M136.83,6.29H133.3a1.93,1.93,0,0,0,.45,1.29,1.56,1.56,0,0,0,1.18.45,2.48,2.48,0,0,0,1.56-.55v.75a2.9,2.9,0,0,1-1.75.48A2.09,2.09,0,0,1,133.08,8a2.74,2.74,0,0,1-.61-1.91,2.73,2.73,0,0,1,.66-1.9,2.14,2.14,0,0,1,1.65-.74,1.87,1.87,0,0,1,1.52.64,2.68,2.68,0,0,1,.53,1.76ZM136,5.61a1.62,1.62,0,0,0-.33-1.08,1.14,1.14,0,0,0-.92-.38,1.31,1.31,0,0,0-1,.4,1.91,1.91,0,0,0-.49,1.06Z"/>
    <path class="cls-9" d="M140.65,4.4a1,1,0,0,0-.6-.16,1,1,0,0,0-.86.48A2.23,2.23,0,0,0,138.85,6V8.59H138v-5h.81v1h0a1.64,1.64,0,0,1,.52-.82,1.16,1.16,0,0,1,.78-.3,1.22,1.22,0,0,1,.48.07Z"/>
    <path class="cls-9" d="M145.54,6.29H142a1.83,1.83,0,0,0,.45,1.29,1.56,1.56,0,0,0,1.18.45,2.45,2.45,0,0,0,1.55-.55v.75a2.89,2.89,0,0,1-1.74.48A2.08,2.08,0,0,1,141.79,8a2.74,2.74,0,0,1-.61-1.91,2.73,2.73,0,0,1,.66-1.9,2.12,2.12,0,0,1,1.64-.74,1.86,1.86,0,0,1,1.52.64,2.63,2.63,0,0,1,.54,1.76Zm-.82-.68a1.62,1.62,0,0,0-.34-1.08,1.1,1.1,0,0,0-.91-.38,1.28,1.28,0,0,0-1,.4A1.78,1.78,0,0,0,142,5.61Z"/>
    <path class="cls-9" d="M150.16,8.36a2.63,2.63,0,0,1-1.37.35,2.26,2.26,0,0,1-1.72-.7,2.5,2.5,0,0,1-.66-1.8,2.74,2.74,0,0,1,.71-2A2.47,2.47,0,0,1,149,3.47a2.54,2.54,0,0,1,1.16.25v.82A2,2,0,0,0,149,4.15a1.63,1.63,0,0,0-1.26.54,2.09,2.09,0,0,0-.49,1.45,2,2,0,0,0,.46,1.38,1.59,1.59,0,0,0,1.24.51,2,2,0,0,0,1.23-.43Z"/>
    <path class="cls-9" d="M155.52,8.59h-.8V5.71c0-1-.39-1.56-1.16-1.56a1.28,1.28,0,0,0-1,.45,1.67,1.67,0,0,0-.4,1.16V8.59h-.8V1.19h.8V4.42h0a1.82,1.82,0,0,1,1.64-.95c1.13,0,1.69.68,1.69,2Z"/>
    <path class="cls-9" d="M159.12,8.71A2.31,2.31,0,0,1,157.35,8a2.57,2.57,0,0,1-.66-1.85,2.7,2.7,0,0,1,.69-2,2.47,2.47,0,0,1,1.86-.71,2.24,2.24,0,0,1,1.74.69,2.73,2.73,0,0,1,.63,1.91A2.7,2.7,0,0,1,160.93,8,2.36,2.36,0,0,1,159.12,8.71Zm.06-4.56a1.51,1.51,0,0,0-1.22.52,2.15,2.15,0,0,0-.45,1.45,2,2,0,0,0,.45,1.4,1.55,1.55,0,0,0,1.22.51,1.47,1.47,0,0,0,1.19-.5,2.18,2.18,0,0,0,.42-1.43,2.22,2.22,0,0,0-.42-1.45A1.44,1.44,0,0,0,159.18,4.15Z"/>
    <path class="cls-9" d="M162.59,8.41V7.55A2.35,2.35,0,0,0,164,8c.7,0,1.05-.23,1.05-.7A.62.62,0,0,0,165,7a.94.94,0,0,0-.24-.25,2.55,2.55,0,0,0-.37-.19l-.44-.18c-.22-.09-.42-.17-.59-.26a1.9,1.9,0,0,1-.42-.31,1.19,1.19,0,0,1-.25-.38,1.28,1.28,0,0,1-.08-.5,1.18,1.18,0,0,1,.16-.63,1.32,1.32,0,0,1,.43-.45,2.28,2.28,0,0,1,.61-.28,2.82,2.82,0,0,1,.71-.09,2.86,2.86,0,0,1,1.16.23v.81a2.27,2.27,0,0,0-1.27-.36,1.25,1.25,0,0,0-.4,0,.89.89,0,0,0-.31.14.59.59,0,0,0-.2.22.57.57,0,0,0-.07.29.67.67,0,0,0,.07.33.7.7,0,0,0,.2.23,2.17,2.17,0,0,0,.34.19l.44.18a5.68,5.68,0,0,1,.6.26,2.52,2.52,0,0,1,.45.3,1.18,1.18,0,0,1,.38.91,1.25,1.25,0,0,1-.16.65,1.45,1.45,0,0,1-.44.45,2,2,0,0,1-.63.27,3.08,3.08,0,0,1-.75.09A2.78,2.78,0,0,1,162.59,8.41Z"/>
    <path class="cls-9" d="M107,18.59h-.8v-.85h0A2,2,0,0,1,103,18a2.75,2.75,0,0,1-.56-1.82,3,3,0,0,1,.62-2,2.06,2.06,0,0,1,1.67-.75,1.61,1.61,0,0,1,1.5.81h0V11.19h.8Zm-.8-2.26v-.74a1.45,1.45,0,0,0-.4-1,1.48,1.48,0,0,0-2.17.11,2.38,2.38,0,0,0-.42,1.49,2.1,2.1,0,0,0,.4,1.36,1.3,1.3,0,0,0,1.08.5,1.38,1.38,0,0,0,1.09-.48A1.79,1.79,0,0,0,106.2,16.33Z"/>
    <path class="cls-9" d="M112.64,16.29h-3.53a1.83,1.83,0,0,0,.45,1.29,1.54,1.54,0,0,0,1.18.45,2.45,2.45,0,0,0,1.55-.55v.75a2.89,2.89,0,0,1-1.74.48,2.11,2.11,0,0,1-1.67-.69,2.79,2.79,0,0,1-.6-1.91,2.73,2.73,0,0,1,.66-1.9,2.12,2.12,0,0,1,1.64-.74,1.86,1.86,0,0,1,1.52.64,2.63,2.63,0,0,1,.54,1.76Zm-.82-.68a1.68,1.68,0,0,0-.34-1.08,1.12,1.12,0,0,0-.91-.38,1.31,1.31,0,0,0-1,.4,1.83,1.83,0,0,0-.48,1.06Z"/>
    <path class="cls-9" d="M114.65,18.59h-.8v-7.4h.8Z"/>
    <path class="cls-9" d="M120.29,16.29h-3.53a1.83,1.83,0,0,0,.45,1.29,1.54,1.54,0,0,0,1.18.45,2.45,2.45,0,0,0,1.55-.55v.75a2.89,2.89,0,0,1-1.74.48,2.11,2.11,0,0,1-1.67-.69,2.79,2.79,0,0,1-.6-1.91,2.73,2.73,0,0,1,.66-1.9,2.12,2.12,0,0,1,1.64-.74,1.86,1.86,0,0,1,1.52.64,2.63,2.63,0,0,1,.54,1.76Zm-.82-.68a1.68,1.68,0,0,0-.34-1.08,1.12,1.12,0,0,0-.91-.38,1.28,1.28,0,0,0-1,.4,1.78,1.78,0,0,0-.49,1.06Z"/>
    <path class="cls-9" d="M125.77,18.19c0,1.83-.88,2.75-2.64,2.75a3.45,3.45,0,0,1-1.62-.35v-.8a3.35,3.35,0,0,0,1.61.47c1.23,0,1.85-.66,1.85-2v-.55h0a2,2,0,0,1-3.22.29,2.67,2.67,0,0,1-.57-1.79,3.11,3.11,0,0,1,.61-2,2.06,2.06,0,0,1,1.68-.75,1.64,1.64,0,0,1,1.5.81h0v-.69h.8Zm-.8-1.86v-.74a1.42,1.42,0,0,0-.41-1,1.33,1.33,0,0,0-1-.42,1.41,1.41,0,0,0-1.16.53A2.43,2.43,0,0,0,122,16.2a2,2,0,0,0,.4,1.33,1.28,1.28,0,0,0,1.07.5,1.38,1.38,0,0,0,1.09-.48A1.73,1.73,0,0,0,125,16.33Z"/>
    <path class="cls-9" d="M131,18.59h-.8v-.78h0a1.68,1.68,0,0,1-1.54.9,1.66,1.66,0,0,1-1.17-.4,1.36,1.36,0,0,1-.42-1c0-.93.55-1.48,1.65-1.63l1.5-.21c0-.85-.35-1.27-1-1.27a2.47,2.47,0,0,0-1.64.61v-.82a3.15,3.15,0,0,1,1.7-.47c1.18,0,1.77.62,1.77,1.87Zm-.8-2.53-1.21.17a2,2,0,0,0-.84.27.79.79,0,0,0-.28.7.73.73,0,0,0,.26.6,1,1,0,0,0,.69.23,1.29,1.29,0,0,0,1-.42,1.47,1.47,0,0,0,.39-1.05Z"/>
    <path class="cls-9" d="M136.74,18.59h-.8v-.85h0a2,2,0,0,1-3.22.29,2.7,2.7,0,0,1-.57-1.82,3,3,0,0,1,.63-2,2.06,2.06,0,0,1,1.66-.75,1.6,1.6,0,0,1,1.5.81h0V11.19h.8Zm-.8-2.26v-.74a1.41,1.41,0,0,0-.4-1,1.32,1.32,0,0,0-1-.42,1.38,1.38,0,0,0-1.16.53,2.38,2.38,0,0,0-.42,1.49,2.1,2.1,0,0,0,.41,1.36,1.3,1.3,0,0,0,1.08.5,1.39,1.39,0,0,0,1.09-.48A1.84,1.84,0,0,0,135.94,16.33Z"/>
    <path class="cls-9" d="M140.45,18.71a2.34,2.34,0,0,1-1.77-.71,2.57,2.57,0,0,1-.66-1.85,2.7,2.7,0,0,1,.69-2,2.49,2.49,0,0,1,1.86-.71,2.25,2.25,0,0,1,1.75.69,2.73,2.73,0,0,1,.62,1.91,2.69,2.69,0,0,1-.67,1.92A2.38,2.38,0,0,1,140.45,18.71Zm.06-4.56a1.52,1.52,0,0,0-1.22.52,2.15,2.15,0,0,0-.45,1.45,2,2,0,0,0,.46,1.4,1.53,1.53,0,0,0,1.21.51,1.49,1.49,0,0,0,1.2-.5,2.18,2.18,0,0,0,.41-1.43,2.22,2.22,0,0,0-.41-1.45A1.46,1.46,0,0,0,140.51,14.15Z"/>
    <path class="cls-9" d="M143.92,18.41v-.86a2.4,2.4,0,0,0,1.44.48c.7,0,1.06-.23,1.06-.7a.62.62,0,0,0-.09-.34,1,1,0,0,0-.25-.25,2,2,0,0,0-.36-.19l-.45-.18c-.22-.09-.41-.17-.58-.26a1.53,1.53,0,0,1-.42-.31,1,1,0,0,1-.25-.38,1.28,1.28,0,0,1-.09-.5,1.18,1.18,0,0,1,.16-.63,1.42,1.42,0,0,1,.43-.45,2.43,2.43,0,0,1,.61-.28,2.82,2.82,0,0,1,.71-.09,2.87,2.87,0,0,1,1.17.23v.81a2.27,2.27,0,0,0-1.27-.36,1.32,1.32,0,0,0-.41,0,1,1,0,0,0-.31.14.83.83,0,0,0-.2.22.57.57,0,0,0-.07.29.67.67,0,0,0,.07.33.9.9,0,0,0,.21.23,1.69,1.69,0,0,0,.33.19l.45.18a4.72,4.72,0,0,1,.59.26,2,2,0,0,1,.45.3,1.24,1.24,0,0,1,.29.39,1.38,1.38,0,0,1,.1.52,1.26,1.26,0,0,1-.17.65,1.42,1.42,0,0,1-.43.45,2.22,2.22,0,0,1-.63.27,3.08,3.08,0,0,1-.75.09A2.85,2.85,0,0,1,143.92,18.41Z"/>
  </g>
  <g id="text67" class="cls-8">
    <path class="cls-10" d="M166,44.32h-.91l-.74-2h-3l-.7,2h-.91l2.68-7h.85Zm-1.92-2.7-1.1-3a4.26,4.26,0,0,1-.11-.47h0a2.53,2.53,0,0,1-.11.47l-1.09,3Z"/>
    <path class="cls-10" d="M167.71,43.59h0v3h-.8v-7.3h.8v.87h0a1.9,1.9,0,0,1,1.73-1,1.83,1.83,0,0,1,1.51.67,2.8,2.8,0,0,1,.54,1.8,3.09,3.09,0,0,1-.61,2,2,2,0,0,1-1.67.75A1.67,1.67,0,0,1,167.71,43.59Zm0-2v.69a1.5,1.5,0,0,0,.41,1.06,1.43,1.43,0,0,0,2.16-.13,2.57,2.57,0,0,0,.41-1.55,2,2,0,0,0-.38-1.3,1.28,1.28,0,0,0-1-.48,1.4,1.4,0,0,0-1.12.49A1.75,1.75,0,0,0,167.69,41.58Z"/>
    <path class="cls-10" d="M173.57,44.32h-.8V36.91h.8Z"/>
    <path class="cls-10" d="M175.6,38.05a.49.49,0,0,1-.36-.15.51.51,0,0,1-.16-.37.51.51,0,0,1,.52-.52.57.57,0,0,1,.38.14.52.52,0,0,1,.15.38.49.49,0,0,1-.15.36A.51.51,0,0,1,175.6,38.05Zm.39,6.27h-.8v-5h.8Z"/>
    <path class="cls-10" d="M181,44.09a2.59,2.59,0,0,1-1.36.34,2.27,2.27,0,0,1-1.73-.69,2.54,2.54,0,0,1-.66-1.81,2.78,2.78,0,0,1,.71-2,2.47,2.47,0,0,1,1.89-.75,2.64,2.64,0,0,1,1.16.24v.82a2,2,0,0,0-1.19-.39,1.61,1.61,0,0,0-1.26.55,2.13,2.13,0,0,0-.49,1.44,2,2,0,0,0,.46,1.39,1.59,1.59,0,0,0,1.24.51,2,2,0,0,0,1.23-.44Z"/>
    <path class="cls-10" d="M185.81,44.32H185v-.79h0a1.68,1.68,0,0,1-1.54.9,1.64,1.64,0,0,1-1.16-.39,1.37,1.37,0,0,1-.43-1c0-.94.55-1.48,1.65-1.63l1.5-.21c0-.85-.34-1.28-1-1.28a2.48,2.48,0,0,0-1.63.62v-.82a3,3,0,0,1,1.7-.47c1.18,0,1.76.62,1.76,1.86Zm-.8-2.53-1.2.16a1.92,1.92,0,0,0-.84.28.9.9,0,0,0,0,1.3,1.05,1.05,0,0,0,.7.23,1.26,1.26,0,0,0,1-.42,1.49,1.49,0,0,0,.39-1.06Z"/>
    <path class="cls-10" d="M190.73,44.09a2.6,2.6,0,0,1-1.37.34,2.25,2.25,0,0,1-1.72-.69,2.54,2.54,0,0,1-.66-1.81,2.78,2.78,0,0,1,.71-2,2.47,2.47,0,0,1,1.89-.75,2.67,2.67,0,0,1,1.16.24v.82a2,2,0,0,0-1.19-.39,1.61,1.61,0,0,0-1.26.55,2.08,2.08,0,0,0-.49,1.44,2,2,0,0,0,.46,1.39,1.59,1.59,0,0,0,1.24.51,2,2,0,0,0,1.23-.44Z"/>
    <path class="cls-10" d="M192.35,38.05a.53.53,0,0,1-.37-.15.5.5,0,0,1-.15-.37.52.52,0,0,1,.15-.38.57.57,0,0,1,.37-.14.53.53,0,0,1,.37.14.49.49,0,0,1,.16.38.46.46,0,0,1-.16.36A.47.47,0,0,1,192.35,38.05Zm.39,6.27h-.8v-5h.8Z"/>
    <path class="cls-10" d="M196.45,44.43a2.31,2.31,0,0,1-1.77-.7,2.6,2.6,0,0,1-.66-1.86,2.68,2.68,0,0,1,.69-2,2.45,2.45,0,0,1,1.86-.71,2.25,2.25,0,0,1,1.75.69,2.76,2.76,0,0,1,.62,1.91,2.68,2.68,0,0,1-.67,1.91A2.38,2.38,0,0,1,196.45,44.43Zm.06-4.56a1.53,1.53,0,0,0-1.22.53,2.14,2.14,0,0,0-.45,1.44,2.08,2.08,0,0,0,.45,1.41,1.56,1.56,0,0,0,1.22.51,1.49,1.49,0,0,0,1.2-.5,2.73,2.73,0,0,0,0-2.88A1.47,1.47,0,0,0,196.51,39.87Zm1.17-3.1-1.28,1.6h-.62l1.09-1.6Z"/>
    <path class="cls-10" d="M204.37,44.32h-.8V41.46c0-1.06-.39-1.59-1.16-1.59a1.25,1.25,0,0,0-1,.45,1.65,1.65,0,0,0-.4,1.14v2.86h-.8v-5h.8v.83h0a1.8,1.8,0,0,1,1.64-.95,1.55,1.55,0,0,1,1.26.53,2.34,2.34,0,0,1,.43,1.53Z"/>
    <path class="cls-10" d="M173.14,54.32h-.8v-.85h0a2,2,0,0,1-3.22.29,2.74,2.74,0,0,1-.56-1.83,3,3,0,0,1,.62-2,2.06,2.06,0,0,1,1.67-.75,1.59,1.59,0,0,1,1.49.81h0v-3.1h.8Zm-.8-2.27v-.73a1.42,1.42,0,0,0-.4-1,1.32,1.32,0,0,0-1-.42,1.36,1.36,0,0,0-1.15.54,2.35,2.35,0,0,0-.42,1.48,2.13,2.13,0,0,0,.4,1.37,1.33,1.33,0,0,0,1.08.5,1.38,1.38,0,0,0,1.09-.48A1.86,1.86,0,0,0,172.34,52.05Z"/>
    <path class="cls-10" d="M178.78,52h-3.53a1.92,1.92,0,0,0,.45,1.28,1.53,1.53,0,0,0,1.18.46,2.49,2.49,0,0,0,1.56-.56V54a2.9,2.9,0,0,1-1.75.48,2.09,2.09,0,0,1-1.66-.68,2.8,2.8,0,0,1-.61-1.92,2.75,2.75,0,0,1,.66-1.9,2.14,2.14,0,0,1,1.65-.73,1.9,1.9,0,0,1,1.52.63,2.71,2.71,0,0,1,.53,1.77Zm-.82-.68a1.6,1.6,0,0,0-.33-1.08,1.14,1.14,0,0,0-.92-.39,1.32,1.32,0,0,0-1,.41,1.91,1.91,0,0,0-.49,1.06Z"/>
    <path class="cls-10" d="M188.26,54.32h-.91l-.74-2h-3l-.7,2H182l2.69-7h.85Zm-1.92-2.7-1.1-3a3,3,0,0,1-.1-.47h0a2.42,2.42,0,0,1-.12.47l-1.08,3Z"/>
    <path class="cls-10" d="M190.11,51.67v2.65h-.82v-7h1.93a2.59,2.59,0,0,1,1.74.55,2,2,0,0,1,.61,1.54,2.09,2.09,0,0,1-.68,1.63,2.6,2.6,0,0,1-1.85.64Zm0-3.61v2.87H191a1.92,1.92,0,0,0,1.3-.39,1.38,1.38,0,0,0,.44-1.1c0-.92-.54-1.38-1.64-1.38Z"/>
    <path class="cls-10" d="M195.71,54.32h-.82v-7h.82Z"/>
  </g>
  <g id="text85" class="cls-8">
    <path class="cls-10" d="M50.6,44.32h-.91l-.75-2H46l-.7,2h-.92l2.69-7h.85Zm-1.92-2.7-1.1-3a2.75,2.75,0,0,1-.11-.47h0a2.53,2.53,0,0,1-.11.47l-1.09,3Z"/>
    <path class="cls-10" d="M52.34,43.59h0v3h-.8v-7.3h.8v.87h0a1.89,1.89,0,0,1,1.73-1,1.84,1.84,0,0,1,1.51.67,2.8,2.8,0,0,1,.54,1.8,3.15,3.15,0,0,1-.61,2,2,2,0,0,1-1.67.75A1.67,1.67,0,0,1,52.34,43.59Zm0-2v.69a1.49,1.49,0,0,0,.4,1.06,1.37,1.37,0,0,0,1,.43,1.33,1.33,0,0,0,1.14-.56,2.51,2.51,0,0,0,.42-1.55,2,2,0,0,0-.39-1.3,1.26,1.26,0,0,0-1-.48,1.42,1.42,0,0,0-1.13.49A1.79,1.79,0,0,0,52.32,41.58Z"/>
    <path class="cls-10" d="M58.2,44.32h-.8V36.91h.8Z"/>
    <path class="cls-10" d="M60.23,38.05a.51.51,0,0,1-.37-.15.5.5,0,0,1-.15-.37.52.52,0,0,1,.15-.38.55.55,0,0,1,.37-.14.53.53,0,0,1,.37.14.49.49,0,0,1,.16.38.46.46,0,0,1-.16.36A.47.47,0,0,1,60.23,38.05Zm.39,6.27h-.8v-5h.8Z"/>
    <path class="cls-10" d="M65.65,44.09a2.63,2.63,0,0,1-1.37.34,2.25,2.25,0,0,1-1.72-.69,2.54,2.54,0,0,1-.66-1.81,2.73,2.73,0,0,1,.71-2,2.47,2.47,0,0,1,1.89-.75,2.67,2.67,0,0,1,1.16.24v.82a2,2,0,0,0-1.19-.39,1.61,1.61,0,0,0-1.26.55,2.08,2.08,0,0,0-.49,1.44,2,2,0,0,0,.46,1.39,1.59,1.59,0,0,0,1.24.51,2,2,0,0,0,1.23-.44Z"/>
    <path class="cls-10" d="M70.44,44.32h-.8v-.79h0a1.68,1.68,0,0,1-1.54.9A1.65,1.65,0,0,1,66.91,44a1.39,1.39,0,0,1-.42-1c0-.94.55-1.48,1.65-1.63l1.5-.21c0-.85-.35-1.28-1-1.28a2.46,2.46,0,0,0-1.63.62v-.82a3,3,0,0,1,1.7-.47c1.17,0,1.76.62,1.76,1.86Zm-.8-2.53L68.43,42a2,2,0,0,0-.84.28.78.78,0,0,0-.28.7.79.79,0,0,0,.26.6,1,1,0,0,0,.7.23,1.29,1.29,0,0,0,1-.42,1.49,1.49,0,0,0,.39-1.06Z"/>
    <path class="cls-10" d="M75.36,44.09a2.63,2.63,0,0,1-1.37.34,2.29,2.29,0,0,1-1.73-.69,2.53,2.53,0,0,1-.65-1.81,2.77,2.77,0,0,1,.7-2,2.5,2.5,0,0,1,1.89-.75,2.72,2.72,0,0,1,1.17.24v.82a2.07,2.07,0,0,0-1.2-.39,1.57,1.57,0,0,0-1.25.55,2.08,2.08,0,0,0-.49,1.44,2,2,0,0,0,.46,1.39,1.59,1.59,0,0,0,1.24.51,2,2,0,0,0,1.23-.44Z"/>
    <path class="cls-10" d="M77,38.05a.51.51,0,0,1-.52-.52.52.52,0,0,1,.15-.38A.53.53,0,0,1,77,37a.55.55,0,0,1,.37.14.52.52,0,0,1,.15.38.49.49,0,0,1-.15.36A.49.49,0,0,1,77,38.05Zm.39,6.27h-.8v-5h.8Z"/>
    <path class="cls-10" d="M81.08,44.43a2.31,2.31,0,0,1-1.77-.7,2.6,2.6,0,0,1-.66-1.86,2.68,2.68,0,0,1,.69-2,2.42,2.42,0,0,1,1.86-.71,2.24,2.24,0,0,1,1.74.69,2.72,2.72,0,0,1,.63,1.91,2.69,2.69,0,0,1-.68,1.91A2.36,2.36,0,0,1,81.08,44.43Zm.06-4.56a1.52,1.52,0,0,0-1.22.53,2.14,2.14,0,0,0-.45,1.44,2.08,2.08,0,0,0,.45,1.41,1.55,1.55,0,0,0,1.22.51,1.48,1.48,0,0,0,1.19-.5,2.2,2.2,0,0,0,.42-1.43,2.22,2.22,0,0,0-.42-1.45A1.46,1.46,0,0,0,81.14,39.87Zm1.17-3.1L81,38.37h-.62l1.09-1.6Z"/>
    <path class="cls-10" d="M89,44.32h-.8V41.46c0-1.06-.39-1.59-1.16-1.59a1.27,1.27,0,0,0-1,.45,1.7,1.7,0,0,0-.39,1.14v2.86h-.8v-5h.8v.83h0a1.79,1.79,0,0,1,1.64-.95,1.53,1.53,0,0,1,1.25.53A2.35,2.35,0,0,1,89,41.26Z"/>
    <path class="cls-10" d="M57.77,54.32H57v-.85h0a2,2,0,0,1-3.22.29,2.75,2.75,0,0,1-.57-1.83,3,3,0,0,1,.63-2,2,2,0,0,1,1.66-.75A1.6,1.6,0,0,1,57,50h0v-3.1h.8ZM57,52.05v-.73a1.42,1.42,0,0,0-.4-1,1.36,1.36,0,0,0-1-.42,1.39,1.39,0,0,0-1.15.54A2.35,2.35,0,0,0,54,51.89a2.19,2.19,0,0,0,.4,1.37,1.33,1.33,0,0,0,1.09.5,1.37,1.37,0,0,0,1.08-.48A1.82,1.82,0,0,0,57,52.05Z"/>
    <path class="cls-10" d="M63.41,52H59.88a1.82,1.82,0,0,0,.45,1.28,1.53,1.53,0,0,0,1.18.46,2.46,2.46,0,0,0,1.55-.56V54a2.89,2.89,0,0,1-1.74.48,2.07,2.07,0,0,1-1.66-.68,3.19,3.19,0,0,1,.05-3.82,2.12,2.12,0,0,1,1.64-.73,1.87,1.87,0,0,1,1.52.63,2.66,2.66,0,0,1,.54,1.77Zm-.82-.68a1.6,1.6,0,0,0-.33-1.08,1.14,1.14,0,0,0-.92-.39,1.28,1.28,0,0,0-1,.41,1.78,1.78,0,0,0-.49,1.06Z"/>
    <path class="cls-10" d="M72.89,54.32H72l-.74-2h-3l-.7,2h-.91l2.68-7h.85ZM71,51.62l-1.1-3a2.75,2.75,0,0,1-.11-.47h0a2.53,2.53,0,0,1-.11.47l-1.09,3Z"/>
    <path class="cls-10" d="M74.74,51.67v2.65h-.82v-7h1.92a2.56,2.56,0,0,1,1.74.55,2,2,0,0,1,.62,1.54A2.1,2.1,0,0,1,77.51,51a2.57,2.57,0,0,1-1.85.64Zm0-3.61v2.87h.86a1.89,1.89,0,0,0,1.29-.39,1.38,1.38,0,0,0,.45-1.1c0-.92-.55-1.38-1.64-1.38Z"/>
    <path class="cls-10" d="M80.34,54.32h-.82v-7h.82Z"/>
  </g>
</svg>
