<svg xmlns="http://www.w3.org/2000/svg" xmlns:xlink="http://www.w3.org/1999/xlink" viewBox="0 0 316 315.2"><defs><style>.cls-1,.cls-4{fill:#fff;}.cls-16,.cls-2,.cls-6{fill:#3c3c41;}.cls-2{opacity:0.05;}.cls-2,.cls-4,.cls-5,.cls-6{isolation:isolate;}.cls-15,.cls-17,.cls-18,.cls-3,.cls-5{fill:none;}.cls-4{opacity:0.6;}.cls-5{stroke:#75757a;stroke-width:0.5px;opacity:0.5;}.cls-15,.cls-17,.cls-18,.cls-5{stroke-miterlimit:10;}.cls-6{opacity:0.2;}.cls-7{fill:#ccc;fill-opacity:0.3;}.cls-8{fill:url(#Degradado_sin_nombre);}.cls-9{fill:#50e6ff;}.cls-10{fill:#c3f1ff;}.cls-11{fill:#9cebff;}.cls-12{fill:url(#Degradado_sin_nombre_2);}.cls-13{fill:url(#Degradado_sin_nombre_3);}.cls-14{fill:url(#Degradado_sin_nombre_4);}.cls-15,.cls-17,.cls-18{stroke:#3c3c41;}.cls-17{stroke-dasharray:1.46 2.43;}.cls-18{stroke-dasharray:1.31 2.19;}.cls-19{fill:url(#Degradado_sin_nombre_5);}.cls-20{fill:url(#Degradado_sin_nombre_6);}.cls-21{fill:url(#Degradado_sin_nombre_7);}.cls-22{fill:#1490df;}.cls-23{fill:url(#Degradado_sin_nombre_8);}.cls-24{fill:url(#Degradado_sin_nombre_9);}.cls-25{fill:url(#Degradado_sin_nombre_10);}.cls-26{fill:url(#Degradado_sin_nombre_11);}.cls-27{fill:url(#Degradado_sin_nombre_12);}.cls-28{fill:url(#Degradado_sin_nombre_13);}.cls-29{fill:url(#Degradado_sin_nombre_14);}.cls-30{fill:url(#Degradado_sin_nombre_15);}.cls-31{fill:#e81122;}.cls-32{fill:#6ebcdb;}.cls-33{fill:#5db4d7;}.cls-34{fill:#e6e6e6;}.cls-35{fill:#86d633;}.cls-36{font-size:12px;}.cls-36,.cls-38,.cls-39,.cls-40,.cls-42{fill:#1e1e1e;}.cls-36,.cls-38,.cls-39,.cls-40{font-family:SegoeUI, Segoe UI;}.cls-37{letter-spacing:0.03em;}.cls-38{font-size:12.44px;letter-spacing:0em;}.cls-39,.cls-40{font-size:12.19px;}.cls-39{letter-spacing:0em;}.cls-41{letter-spacing:-0.03em;}.cls-42{font-size:12.5px;font-family:MyriadPro-Regular, Myriad Pro;letter-spacing:0.01em;}.cls-43{letter-spacing:0em;}.cls-44{letter-spacing:0em;}.cls-45{letter-spacing:0.01em;}.cls-46{letter-spacing:0em;}.cls-47{letter-spacing:0.01em;}.cls-48{letter-spacing:0.01em;}.cls-49{letter-spacing:0em;}.cls-50{letter-spacing:0em;}.cls-51{letter-spacing:0em;}</style><linearGradient id="Degradado_sin_nombre" x1="39.57" y1="450.22" x2="39.57" y2="431.46" gradientTransform="translate(0 -284.26)" gradientUnits="userSpaceOnUse"><stop offset="0" stop-color="#0078d4"/><stop offset="0.82" stop-color="#5ea0ef"/></linearGradient><linearGradient id="Degradado_sin_nombre_2" x1="39.57" y1="457.46" x2="39.57" y2="450.22" gradientTransform="translate(0 -284.26)" gradientUnits="userSpaceOnUse"><stop offset="0.15" stop-color="#ccc"/><stop offset="1" stop-color="#707070"/></linearGradient><linearGradient id="Degradado_sin_nombre_3" x1="76.43" y1="450.22" x2="76.43" y2="431.46" xlink:href="#Degradado_sin_nombre"/><linearGradient id="Degradado_sin_nombre_4" x1="76.43" y1="457.46" x2="76.43" y2="450.22" xlink:href="#Degradado_sin_nombre_2"/><linearGradient id="Degradado_sin_nombre_5" x1="24" y1="511.25" x2="26.37" y2="513.62" gradientTransform="translate(2.88 -284.87)" gradientUnits="userSpaceOnUse"><stop offset="0" stop-color="#86d633"/><stop offset="0.24" stop-color="#83d232"/><stop offset="0.5" stop-color="#7cc52f"/><stop offset="0.76" stop-color="#6fb02a"/><stop offset="1" stop-color="#5e9624"/></linearGradient><linearGradient id="Degradado_sin_nombre_6" x1="18.65" y1="511.26" x2="21.01" y2="513.63" xlink:href="#Degradado_sin_nombre_5"/><linearGradient id="Degradado_sin_nombre_7" x1="13.31" y1="511.26" x2="15.67" y2="513.63" xlink:href="#Degradado_sin_nombre_5"/><linearGradient id="Degradado_sin_nombre_8" x1="139.57" y1="450.22" x2="139.57" y2="431.46" xlink:href="#Degradado_sin_nombre"/><linearGradient id="Degradado_sin_nombre_9" x1="139.57" y1="457.46" x2="139.57" y2="450.22" xlink:href="#Degradado_sin_nombre_2"/><linearGradient id="Degradado_sin_nombre_10" x1="176.43" y1="450.22" x2="176.43" y2="431.46" xlink:href="#Degradado_sin_nombre"/><linearGradient id="Degradado_sin_nombre_11" x1="176.43" y1="457.46" x2="176.43" y2="450.22" xlink:href="#Degradado_sin_nombre_2"/><linearGradient id="Degradado_sin_nombre_12" x1="239.57" y1="450.22" x2="239.57" y2="431.46" xlink:href="#Degradado_sin_nombre"/><linearGradient id="Degradado_sin_nombre_13" x1="239.57" y1="457.46" x2="239.57" y2="450.22" xlink:href="#Degradado_sin_nombre_2"/><linearGradient id="Degradado_sin_nombre_14" x1="276.43" y1="450.22" x2="276.43" y2="431.46" xlink:href="#Degradado_sin_nombre"/><linearGradient id="Degradado_sin_nombre_15" x1="276.43" y1="457.46" x2="276.43" y2="450.22" xlink:href="#Degradado_sin_nombre_2"/></defs><title>OJ104903205</title><g id="Target"><g id="Shapes"><rect class="cls-1" width="316" height="315.2"/><rect class="cls-1" x="0.5" y="75.2" width="315" height="151.85" rx="5"/><rect class="cls-2" x="0.5" y="75.2" width="315" height="151.85" rx="5"/><rect class="cls-3" x="0.5" y="75.2" width="315" height="151.85" rx="5"/><rect class="cls-4" x="110.5" y="15.2" width="95" height="200"/><rect class="cls-5" x="110.5" y="15.2" width="95" height="200"/><rect class="cls-4" x="210.5" y="15.2" width="95" height="200"/><rect class="cls-5" x="210.5" y="15.2" width="95" height="200"/><rect class="cls-4" x="10.5" y="15.2" width="95" height="200"/><rect class="cls-5" x="10.5" y="15.2" width="95" height="200"/><rect class="cls-1" x="15.99" y="120.2" width="284.01" height="90" rx="0.3"/><rect class="cls-6" x="15.99" y="120.2" width="284.01" height="90" rx="0.3"/><rect class="cls-7" x="140.5" y="240.2" width="174.94" height="35"/><rect class="cls-7" x="140.5" y="280.2" width="174.94" height="35"/><rect class="cls-8" x="25.5" y="147.2" width="28.14" height="18.76" rx="0.94"/><polygon class="cls-9" points="44.26 153.85 44.26 159.3 39.57 162.05 39.57 156.58 44.26 153.85"/><polygon class="cls-10" points="44.26 153.85 39.57 156.6 34.88 153.85 39.57 151.11 44.26 153.85"/><polygon class="cls-11" points="39.57 156.6 39.57 162.05 34.88 159.3 34.88 153.85 39.57 156.6"/><polygon class="cls-10" points="34.88 159.3 39.57 156.58 39.57 162.05 34.88 159.3"/><polygon class="cls-11" points="44.26 159.3 39.57 156.58 39.57 162.05 44.26 159.3"/><path class="cls-12" d="M45.21,171.64c-2.78-.44-2.89-2.44-2.89-5.68H36.8c0,3.24-.09,5.24-2.87,5.68a1.55,1.55,0,0,0-1.39,1.56H46.61A1.57,1.57,0,0,0,45.21,171.64Z"/><rect class="cls-13" x="62.36" y="147.2" width="28.14" height="18.76" rx="0.94"/><polygon class="cls-9" points="81.12 153.85 81.12 159.3 76.43 162.05 76.43 156.58 81.12 153.85"/><polygon class="cls-10" points="81.12 153.85 76.43 156.6 71.74 153.85 76.43 151.11 81.12 153.85"/><polygon class="cls-11" points="76.43 156.6 76.43 162.05 71.74 159.3 71.74 153.85 76.43 156.6"/><polygon class="cls-10" points="71.74 159.3 76.43 156.58 76.43 162.05 71.74 159.3"/><polygon class="cls-11" points="81.12 159.3 76.43 156.58 76.43 162.05 81.12 159.3"/><path class="cls-14" d="M82.07,171.64c-2.78-.44-2.89-2.44-2.89-5.68H73.66c0,3.24-.09,5.24-2.87,5.68a1.57,1.57,0,0,0-1.4,1.56H83.46A1.55,1.55,0,0,0,82.07,171.64Z"/><line class="cls-15" x1="58.25" y1="120.2" x2="58.25" y2="55.2"/><line class="cls-15" x1="50.72" y1="112.67" x2="50.72" y2="100.98"/><polygon class="cls-16" points="53.71 101.85 50.72 96.67 47.73 101.85 53.71 101.85"/><line class="cls-15" x1="65.77" y1="108.37" x2="65.77" y2="107.62"/><line class="cls-17" x1="65.77" y1="105.19" x2="65.77" y2="98.64"/><line class="cls-15" x1="65.77" y1="97.42" x2="65.77" y2="96.67"/><polygon class="cls-16" points="68.76 107.49 65.77 112.67 62.78 107.49 68.76 107.49"/><line class="cls-15" x1="149.81" y1="250.2" x2="160.93" y2="250.2"/><polygon class="cls-16" points="150.68 253.19 145.5 250.2 150.68 247.21 150.68 253.19"/><line class="cls-15" x1="156.19" y1="290.2" x2="155.44" y2="290.2"/><line class="cls-18" x1="153.25" y1="290.2" x2="147.34" y2="290.2"/><line class="cls-15" x1="146.25" y1="290.2" x2="145.5" y2="290.2"/><polygon class="cls-16" points="155.32 287.21 160.5 290.2 155.32 293.19 155.32 287.21"/><circle class="cls-19" cx="27.9" cy="227.4" r="1.67"/><circle class="cls-20" cx="22.56" cy="227.42" r="1.67"/><circle class="cls-21" cx="17.22" cy="227.42" r="1.67"/><path class="cls-9" d="M18.43,234.11l-1,1a.43.43,0,0,1-.61,0h0l-7-7.11a.89.89,0,0,1,0-1.23h0l1-1h0l7.71,7.69a.43.43,0,0,1,0,.61h0Z"/><path class="cls-22" d="M17.33,219.78l1,.95a.44.44,0,0,1,0,.62l-7.57,7.59h0l-1-1a.88.88,0,0,1,0-1.22h0l7-7A.43.43,0,0,1,17.33,219.78Z"/><path class="cls-9" d="M34.28,225.8l1,1a.87.87,0,0,1,0,1.23h0l-7.1,7.07a.43.43,0,0,1-.61,0h0l-1-1a.43.43,0,0,1,0-.61h0Z"/><path class="cls-22" d="M35.24,228l-1,1h0l-7.57-7.59a.44.44,0,0,1,0-.62h0l1-1a.43.43,0,0,1,.61,0h0l7,7a.88.88,0,0,1,0,1.22h0Z"/><rect class="cls-1" x="40.75" y="20.2" width="35" height="35"/><rect class="cls-6" x="40.75" y="20.2" width="35" height="35"/><rect class="cls-23" x="125.5" y="147.2" width="28.14" height="18.76" rx="0.94"/><polygon class="cls-9" points="144.26 153.85 144.26 159.3 139.57 162.05 139.57 156.58 144.26 153.85"/><polygon class="cls-10" points="144.26 153.85 139.57 156.6 134.88 153.85 139.57 151.11 144.26 153.85"/><polygon class="cls-11" points="139.57 156.6 139.57 162.05 134.88 159.3 134.88 153.85 139.57 156.6"/><polygon class="cls-10" points="134.88 159.3 139.57 156.58 139.57 162.05 134.88 159.3"/><polygon class="cls-11" points="144.26 159.3 139.57 156.58 139.57 162.05 144.26 159.3"/><path class="cls-24" d="M145.21,171.64c-2.78-.44-2.89-2.44-2.89-5.68H136.8c0,3.24-.09,5.24-2.87,5.68a1.55,1.55,0,0,0-1.39,1.56h14.07A1.57,1.57,0,0,0,145.21,171.64Z"/><rect class="cls-25" x="162.36" y="147.2" width="28.14" height="18.76" rx="0.94"/><polygon class="cls-9" points="181.12 153.85 181.12 159.3 176.43 162.05 176.43 156.58 181.12 153.85"/><polygon class="cls-10" points="181.12 153.85 176.43 156.6 171.74 153.85 176.43 151.11 181.12 153.85"/><polygon class="cls-11" points="176.43 156.6 176.43 162.05 171.74 159.3 171.74 153.85 176.43 156.6"/><polygon class="cls-10" points="171.74 159.3 176.43 156.58 176.43 162.05 171.74 159.3"/><polygon class="cls-11" points="181.12 159.3 176.43 156.58 176.43 162.05 181.12 159.3"/><path class="cls-26" d="M182.07,171.64c-2.78-.44-2.89-2.44-2.89-5.68h-5.52c0,3.24-.09,5.24-2.87,5.68a1.57,1.57,0,0,0-1.4,1.56h14.07A1.55,1.55,0,0,0,182.07,171.64Z"/><line class="cls-15" x1="158.25" y1="120.2" x2="158.25" y2="55.2"/><line class="cls-15" x1="150.72" y1="112.67" x2="150.72" y2="100.98"/><polygon class="cls-16" points="153.71 101.85 150.72 96.67 147.73 101.85 153.71 101.85"/><line class="cls-15" x1="165.77" y1="108.37" x2="165.77" y2="107.62"/><line class="cls-17" x1="165.77" y1="105.19" x2="165.77" y2="98.64"/><line class="cls-15" x1="165.77" y1="97.42" x2="165.77" y2="96.67"/><polygon class="cls-16" points="168.76 107.49 165.77 112.67 162.78 107.49 168.76 107.49"/><rect class="cls-1" x="140.75" y="20.2" width="35" height="35"/><rect class="cls-6" x="140.75" y="20.2" width="35" height="35"/><rect class="cls-27" x="225.5" y="147.2" width="28.14" height="18.76" rx="0.94"/><polygon class="cls-9" points="244.26 153.85 244.26 159.3 239.57 162.05 239.57 156.58 244.26 153.85"/><polygon class="cls-10" points="244.26 153.85 239.57 156.6 234.88 153.85 239.57 151.11 244.26 153.85"/><polygon class="cls-11" points="239.57 156.6 239.57 162.05 234.88 159.3 234.88 153.85 239.57 156.6"/><polygon class="cls-10" points="234.88 159.3 239.57 156.58 239.57 162.05 234.88 159.3"/><polygon class="cls-11" points="244.26 159.3 239.57 156.58 239.57 162.05 244.26 159.3"/><path class="cls-28" d="M245.21,171.64c-2.78-.44-2.89-2.44-2.89-5.68H236.8c0,3.24-.09,5.24-2.87,5.68a1.55,1.55,0,0,0-1.39,1.56h14.07A1.57,1.57,0,0,0,245.21,171.64Z"/><rect class="cls-29" x="262.36" y="147.2" width="28.14" height="18.76" rx="0.94"/><polygon class="cls-9" points="281.12 153.85 281.12 159.3 276.43 162.05 276.43 156.58 281.12 153.85"/><polygon class="cls-10" points="281.12 153.85 276.43 156.6 271.74 153.85 276.43 151.11 281.12 153.85"/><polygon class="cls-11" points="276.43 156.6 276.43 162.05 271.74 159.3 271.74 153.85 276.43 156.6"/><polygon class="cls-10" points="271.74 159.3 276.43 156.58 276.43 162.05 271.74 159.3"/><polygon class="cls-11" points="281.12 159.3 276.43 156.58 276.43 162.05 281.12 159.3"/><path class="cls-30" d="M282.07,171.64c-2.78-.44-2.89-2.44-2.89-5.68h-5.52c0,3.24-.09,5.24-2.87,5.68a1.57,1.57,0,0,0-1.4,1.56h14.07A1.55,1.55,0,0,0,282.07,171.64Z"/><line class="cls-15" x1="258.25" y1="120.2" x2="258.25" y2="55.2"/><line class="cls-15" x1="250.72" y1="112.67" x2="250.72" y2="100.98"/><polygon class="cls-16" points="253.71 101.85 250.72 96.67 247.73 101.85 253.71 101.85"/><line class="cls-15" x1="265.77" y1="108.37" x2="265.77" y2="107.62"/><line class="cls-17" x1="265.77" y1="105.19" x2="265.77" y2="98.64"/><line class="cls-15" x1="265.77" y1="97.42" x2="265.77" y2="96.67"/><polygon class="cls-16" points="268.76 107.49 265.77 112.67 262.78 107.49 268.76 107.49"/><rect class="cls-1" x="240.75" y="20.2" width="35" height="35"/><rect class="cls-6" x="240.75" y="20.2" width="35" height="35"/><path class="cls-16" d="M309.34,227.55h-1v-1h1Zm-3,0h-1v-1h1Zm-3,0h-1v-1h1Zm-3,0h-1v-1h1Zm-3,0h-1v-1h1Zm-3,0h-1v-1h1Zm-3,0h-1v-1h1Zm-3,0h-1v-1h1Zm-3,0h-1v-1h1Zm-3,0h-1v-1h1Zm-3,0h-1v-1h1Zm-3,0h-1v-1h1Zm-3,0h-1v-1h1Zm-3,0h-1v-1h1Zm-3,0h-1v-1h1Zm-3,0h-1v-1h1Zm-3,0h-1v-1h1Zm-3,0h-1v-1h1Zm-3,0h-1v-1h1Zm-3,0h-1v-1h1Zm-3,0h-1v-1h1Zm-3,0h-1v-1h1Zm-3,0h-1v-1h1Zm-3,0h-1v-1h1Zm-3,0h-1v-1h1Zm-3,0h-1v-1h1Zm-3,0h-1v-1h1Zm-3,0h-1v-1h1Zm-3,0h-1v-1h1Zm-3,0h-1v-1h1Zm-3,0h-1v-1h1Zm-3,0h-1v-1h1Zm-3,0h-1v-1h1Zm-3,0h-1v-1h1Zm-3,0h-1v-1h1Zm-3,0h-1v-1h1Zm-3,0h-1v-1h1Zm-3,0h-1v-1h1Zm-3,0h-1v-1h1Zm-3,0h-1v-1h1Zm-3,0h-1v-1h1Zm-3,0h-1v-1h1Zm-3,0h-1v-1h1Zm-3,0h-1v-1h1Zm-3,0h-1v-1h1Zm-3,0h-1v-1h1Zm-3,0h-1v-1h1Zm-3,0h-1v-1h1Zm-3,0h-1v-1h1Zm-3,0h-1v-1h1Zm-3,0h-1v-1h1Zm-3,0h-1v-1h1Zm-3,0h-1v-1h1Zm-3,0h-1v-1h1Zm-3,0h-1v-1h1Zm-3,0h-1v-1h1Zm-3,0h-1v-1h1Zm-3,0h-1v-1h1Zm-3,0h-1v-1h1Zm-3,0h-1v-1h1Zm-3,0h-1v-1h1Zm-3,0h-1v-1h1Zm-3,0h-1v-1h1Zm-3,0h-1v-1h1Zm-3,0h-1v-1h1Zm-3,0h-1v-1h1Zm-3,0h-1v-1h1Zm-3,0h-1v-1h1Zm-3,0h-1v-1h1Zm-3,0h-1v-1h1Zm-3,0h-1v-1h1Zm-3,0h-1v-1h1Zm-3,0h-1v-1h1Zm-3,0h-1v-1h1Zm-3,0h-1v-1h1Zm-3,0h-1v-1h1Zm-3,0h-1v-1h1Zm-3,0h-1v-1h1Zm-3,0h-1v-1h1Zm-3,0h-1v-1h1Zm-3,0h-1v-1h1Zm-3,0h-1v-1h1Zm-3,0h-1v-1h1Zm-3,0h-1v-1h1Zm-3,0h-1v-1h1Zm-3,0h-1v-1h1Zm-3,0h-1v-1h1Zm-3,0H47v-1h1Zm-3,0H44v-1h1Zm-3,0H41v-1h1Zm-3,0H38v-1h1Zm-33,0H5l.1-1H6Zm305.42-.08-.16-1a4.4,4.4,0,0,0,.86-.24l.37.93a5.64,5.64,0,0,1-1.41.31ZM3.2,226.87a6.34,6.34,0,0,1-.91-.62l.65-.77a4.7,4.7,0,0,0,.74.52ZM314.32,226l-.69-.72a4.82,4.82,0,0,0,.58-.69l.82.57A5.18,5.18,0,0,1,314.32,226ZM.6,224.54a5.09,5.09,0,0,1-.4-1l1-.27a4.31,4.31,0,0,0,.33.84Zm315.29-1.39-1-.2a4.58,4.58,0,0,0,.09-.9l1-.06v.06A5.06,5.06,0,0,1,315.89,223.15ZM1,221.39H0v-1H1ZM316,220h-1v-1h1ZM1,218.39H0v-1H1ZM316,217h-1v-1h1ZM1,215.38H0v-1H1ZM316,214h-1v-1h1ZM1,212.38H0v-1H1ZM316,211h-1v-1h1ZM1,209.38H0v-1H1ZM316,208h-1v-1h1ZM1,206.37H0v-1H1ZM316,205h-1v-1h1ZM1,203.37H0v-1H1ZM316,202h-1v-1h1ZM1,200.37H0v-1H1ZM316,199h-1v-1h1ZM1,197.36H0v-1H1ZM316,196h-1v-1h1ZM1,194.36H0v-1H1ZM316,193h-1v-1h1ZM1,191.36H0v-1H1ZM316,190h-1v-1h1ZM1,188.35H0v-1H1ZM316,187h-1v-1h1ZM1,185.35H0v-1H1ZM316,184h-1v-1h1ZM1,182.35H0v-1H1ZM316,181h-1v-1h1ZM1,179.34H0v-1H1Zm315-1.4h-1v-1h1ZM1,176.34H0v-1H1Zm315-1.4h-1v-1h1ZM1,173.34H0v-1H1Zm315-1.4h-1v-1h1ZM1,170.33H0v-1H1Zm315-1.4h-1v-1h1ZM1,167.33H0v-1H1Zm315-1.4h-1v-1h1ZM1,164.33H0v-1H1Zm315-1.4h-1v-1h1ZM1,161.32H0v-1H1Zm315-1.4h-1v-1h1ZM1,158.32H0v-1H1Zm315-1.4h-1v-1h1ZM1,155.32H0v-1H1Zm315-1.4h-1v-1h1ZM1,152.31H0v-1H1Zm315-1.4h-1v-1h1ZM1,149.31H0v-1H1Zm315-1.4h-1v-1h1ZM1,146.3H0v-1H1Zm315-1.39h-1v-1h1ZM1,143.3H0v-1H1Zm315-1.4h-1v-1h1ZM1,140.3H0v-1H1Zm315-1.4h-1v-1h1ZM1,137.3H0v-1H1Zm315-1.4h-1v-1h1ZM1,134.29H0v-1H1Zm315-1.4h-1v-1h1ZM1,131.29H0v-1H1Zm315-1.4h-1v-1h1ZM1,128.28H0v-1H1Zm315-1.39h-1v-1h1ZM1,125.28H0v-1H1Zm315-1.4h-1v-1h1ZM1,122.28H0v-1H1Zm315-1.4h-1v-1h1ZM1,119.27H0v-1H1Zm315-1.39h-1v-1h1ZM1,116.27H0v-1H1Zm315-1.4h-1v-1h1ZM1,113.27H0v-1H1Zm315-1.4h-1v-1h1ZM1,110.26H0v-1H1Zm315-1.39h-1v-1h1ZM1,107.26H0v-1H1Zm315-1.4h-1v-1h1ZM1,104.26H0v-1H1Zm315-1.4h-1v-1h1ZM1,101.25H0v-1H1Zm315-1.39h-1v-1h1ZM1,98.25H0v-1H1Zm315-1.4h-1v-1h1ZM1,95.25H0v-1H1Zm315-1.4h-1v-1h1ZM1,92.24H0v-1H1Zm315-1.4h-1v-1h1ZM1,89.24H0v-1H1Zm315-1.4h-1v-1h1ZM1,86.24H0v-1H1Zm315-1.4h-1v-1h1ZM1,83.23H0v-1H1Zm315-1.39h-1v-1h1ZM0,80.23H0a6.24,6.24,0,0,1,.1-1.06l1,.19a4.81,4.81,0,0,0-.1.84ZM314.83,79a4,4,0,0,0-.33-.83l.89-.46a5.09,5.09,0,0,1,.4,1Zm-313-1.3L1,77.12a6.24,6.24,0,0,1,.7-.84l.7.71a5.09,5.09,0,0,0-.62.69Zm311.6-.93a4.58,4.58,0,0,0-.74-.5l.48-.88a5.48,5.48,0,0,1,.9.61ZM3.85,76l-.36-.92a4.43,4.43,0,0,1,1-.3l.18,1A4.73,4.73,0,0,0,3.85,76Zm307.08-.29H310v-1h1.05Zm-3,0h-1v-1h1Zm-3,0h-1v-1h1Zm-3,0h-1v-1h1Zm-3,0h-1v-1h1Zm-3,0h-1v-1h1Zm-3,0h-1v-1h1Zm-3,0h-1v-1h1Zm-3,0h-1v-1h1Zm-3,0h-1v-1h1Zm-3,0h-1v-1h1Zm-3,0h-1v-1h1Zm-3,0h-1v-1h1Zm-3,0h-1v-1h1Zm-3,0h-1v-1h1Zm-3,0h-1v-1h1Zm-3,0h-1v-1h1Zm-3,0h-1v-1h1Zm-3,0h-1v-1h1Zm-3,0h-1v-1h1Zm-3,0h-1v-1h1Zm-3,0h-1v-1h1Zm-3,0h-1v-1h1Zm-3,0h-1v-1h1Zm-3,0h-1v-1h1Zm-3,0h-1v-1h1Zm-3,0h-1v-1h1Zm-3,0h-1v-1h1Zm-3,0h-1v-1h1Zm-3,0h-1v-1h1Zm-3,0h-1v-1h1Zm-3,0h-1v-1h1Zm-3,0h-1v-1h1Zm-3,0h-1v-1h1Zm-3,0h-1v-1h1Zm-3,0h-1v-1h1Zm-3,0h-1v-1h1Zm-3,0h-1v-1h1Zm-3,0h-1v-1h1Zm-3,0h-1v-1h1Zm-3,0h-1v-1h1Zm-3,0h-1v-1h1Zm-3,0h-1v-1h1Zm-3,0h-1v-1h1Zm-3,0h-1v-1h1Zm-3,0h-1v-1h1Zm-3,0h-1v-1h1Zm-3,0h-1v-1h1Zm-3,0h-1v-1h1Zm-3,0h-1v-1h1Zm-3,0h-1v-1h1Zm-3,0h-1v-1h1Zm-3,0h-1v-1h1Zm-3,0h-1v-1h1Zm-3,0h-1v-1h1Zm-3,0h-1v-1h1Zm-3,0h-1v-1h1Zm-3,0h-1v-1h1Zm-3,0h-1v-1h1Zm-3,0h-1v-1h1Zm-3,0h-1v-1h1Zm-3,0h-1v-1h1Zm-3,0h-1v-1h1Zm-3,0h-1v-1h1Zm-3,0h-1v-1h1Zm-3,0h-1v-1h1Zm-3,0h-1v-1h1Zm-3,0h-1v-1h1Zm-3,0h-1v-1h1Zm-3,0h-1v-1h1Zm-3,0h-1v-1h1Zm-3,0h-1v-1h1Zm-3,0h-1v-1h1Zm-3,0h-1v-1h1Zm-3,0h-1v-1h1Zm-3,0h-1v-1h1Zm-3,0h-1v-1h1Zm-3,0h-1v-1h1Zm-3,0h-1v-1h1Zm-3,0h-1v-1h1Zm-3,0h-1v-1h1Zm-3,0h-1v-1h1Zm-3,0h-1v-1h1Zm-3,0h-1v-1h1Zm-3,0h-1v-1h1Zm-3,0h-1v-1h1Zm-3,0h-1v-1h1Zm-3,0h-1v-1h1Zm-3,0h-1v-1h1Zm-3,0h-1v-1h1Zm-3,0h-1v-1h1Zm-3,0h-1v-1h1Zm-3,0h-1v-1h1Zm-3,0h-1v-1h1Zm-3,0h-1v-1h1Zm-3,0h-1v-1h1Zm-3,0h-1v-1h1Zm-3,0h-1v-1h1Zm-3,0h-1v-1h1Zm-3,0h-1v-1h1Zm-3,0h-1v-1h1Zm-3,0h-1v-1h1Z"/><polygon class="cls-31" points="266.98 102.88 263.82 99.7 258 105.52 252.18 99.7 249 102.88 254.81 108.7 249 114.51 252.18 117.69 257.98 111.88 263.81 117.7 266.98 114.52 261.16 108.7 266.98 102.88"/><polygon class="cls-31" points="167.5 102.88 164.34 99.7 158.52 105.52 152.69 99.7 149.52 102.88 155.32 108.7 149.52 114.51 152.69 117.69 158.5 111.88 164.32 117.7 167.5 114.52 161.68 108.7 167.5 102.88"/><g id="ad94e297-0e86-4eaf-aac0-d146ee9aea65"><path class="cls-32" d="M54.08,82.59,49.4,77.75a2.29,2.29,0,0,1-.78.14,2.43,2.43,0,1,1,2.24-3.32h4.62v1.61H50.93a3.68,3.68,0,0,1-.26.57L55,81.22l2.34-3.57V66.47H54.19l4-4,3.94,4H59V75.2l5.93-9-6-6a1,1,0,0,0-1.41-.06l-.06.06h0L43,74.63A1,1,0,0,0,42.94,76l.06.06h0L57.44,90.59l-5.17-5.17Z"/><path class="cls-33" d="M57.34,82.8V77.63L55,81.22l1.72,1.84A1.78,1.78,0,0,1,57.34,82.8Z"/><path class="cls-33" d="M73.36,74.63l-8.47-8.47L59,75.2v7.62a2.1,2.1,0,0,1,.53.29l6.22-6.29a2.91,2.91,0,0,1-.31-.64H60.73V74.57h4.74a2.41,2.41,0,1,1,2.24,3.32,3,3,0,0,1-.67-.1l-6.62,6.66a2.18,2.18,0,0,1,.11.62,2.43,2.43,0,0,1-4.86.19,2.25,2.25,0,0,1,.14-.89l-1.73-1.72L52.24,85.4l5.17,5.17a1,1,0,0,0,1.41,0l0,0L73.33,76.1a1,1,0,0,0,0-1.41l0,0Z"/><path class="cls-34" d="M65.47,74.57H60.73v1.61H65.4a2.22,2.22,0,0,1-.12-.72A2.26,2.26,0,0,1,65.47,74.57Z"/><path class="cls-34" d="M50.93,76.18h4.55V74.57H50.86a2.26,2.26,0,0,1,.19.89A2.18,2.18,0,0,1,50.93,76.18Z"/><path class="cls-34" d="M60.42,84.45,67,77.79a2.43,2.43,0,0,1-1.33-1l-6.22,6.29A2.29,2.29,0,0,1,60.42,84.45Z"/><path class="cls-34" d="M56.77,83.06l-1.72-1.84-4.38-4.47a2.46,2.46,0,0,1-1.27,1l4.68,4.84,1.73,1.73A2.28,2.28,0,0,1,56.77,83.06Z"/><path class="cls-1" d="M62.09,66.47l-3.92-4-4,4h3.15V82.8a1.73,1.73,0,0,0-.57.26,2.34,2.34,0,0,0-1,1.31,2.41,2.41,0,0,0,4.57,1.54s0-.09,0-.14a2.38,2.38,0,0,0,.11-.7,2.66,2.66,0,0,0-1-2,2.1,2.1,0,0,0-.53-.29V66.47Zm-3.92,20a1.35,1.35,0,1,1,1.34-1.36h0a1.35,1.35,0,0,1-1.34,1.3Z"/><path class="cls-1" d="M50.67,76.75a3.68,3.68,0,0,0,.26-.57,2.18,2.18,0,0,0,.12-.72,2.26,2.26,0,0,0-.19-.89,2.41,2.41,0,1,0-2.24,3.32,2.29,2.29,0,0,0,.78-.14A2.46,2.46,0,0,0,50.67,76.75Zm-2.05,0A1.34,1.34,0,1,1,50,75.41h0a1.33,1.33,0,0,1-1.27,1.39h-.07Z"/><path class="cls-1" d="M67,77.79a3,3,0,0,0,.67.1,2.43,2.43,0,1,0-2.24-3.32,2.26,2.26,0,0,0-.19.89,2.22,2.22,0,0,0,.12.72,2.91,2.91,0,0,0,.31.64A2.45,2.45,0,0,0,67,77.79Zm.67-3.66a1.34,1.34,0,0,1,1.18,1.48h0a1.34,1.34,0,1,1-1.48-1.49Z"/><path class="cls-35" d="M58.17,83.73a1.35,1.35,0,1,0,1.34,1.36v0h0A1.34,1.34,0,0,0,58.17,83.73Z"/><circle class="cls-35" cx="48.62" cy="75.46" r="1.34"/><path class="cls-35" d="M67.71,76.81a1.35,1.35,0,1,0-1.34-1.36h0A1.36,1.36,0,0,0,67.71,76.81Z"/></g><g id="ad94e297-0e86-4eaf-aac0-d146ee9aea65-2"><path class="cls-32" d="M154.14,82.59l-4.68-4.84a2.29,2.29,0,0,1-.78.14,2.43,2.43,0,1,1,2.24-3.32h4.62v1.61H151a3.68,3.68,0,0,1-.26.57l4.33,4.47,2.34-3.57V66.47h-3.15l4-4,3.94,4H159V75.2l5.92-9-6-6a1,1,0,0,0-1.41-.06l-.06.06h0L143,74.63a1,1,0,0,0-.06,1.41l.06.06h0l14.5,14.49-5.17-5.17Z"/><path class="cls-33" d="M157.4,82.8V77.63l-2.34,3.59,1.72,1.84A1.78,1.78,0,0,1,157.4,82.8Z"/><path class="cls-33" d="M173.42,74.63l-8.48-8.47-5.92,9v7.62a2.1,2.1,0,0,1,.53.29l6.22-6.29a2.91,2.91,0,0,1-.31-.64h-4.67V74.57h4.74a2.41,2.41,0,1,1,2.24,3.32,3,3,0,0,1-.67-.1l-6.62,6.66a2.6,2.6,0,0,1,.11.62,2.43,2.43,0,0,1-4.86.16,2.53,2.53,0,0,1,.13-.86l-1.72-1.72L152.3,85.4l5.17,5.17a1,1,0,0,0,1.41,0l0,0L173.39,76.1a1,1,0,0,0,.05-1.41s0,0-.05,0Z"/><path class="cls-34" d="M165.53,74.57h-4.74v1.61h4.67a2.18,2.18,0,0,1-.12-.72A2.26,2.26,0,0,1,165.53,74.57Z"/><path class="cls-34" d="M151,76.18h4.55V74.57h-4.62a2.26,2.26,0,0,1,.19.89A2.18,2.18,0,0,1,151,76.18Z"/><path class="cls-34" d="M160.48,84.45l6.62-6.66a2.43,2.43,0,0,1-1.33-1l-6.22,6.29A2.27,2.27,0,0,1,160.48,84.45Z"/><path class="cls-34" d="M156.83,83.06l-1.72-1.84-4.38-4.47a2.46,2.46,0,0,1-1.27,1l4.68,4.84,1.72,1.73A2.38,2.38,0,0,1,156.83,83.06Z"/><path class="cls-1" d="M162.15,66.47l-3.92-4-4,4h3.15V82.8a1.73,1.73,0,0,0-.57.26,2.38,2.38,0,0,0-1,1.31,2.41,2.41,0,1,0,4.62,1.4h0a2.76,2.76,0,0,0,.11-.7,2.6,2.6,0,0,0-.11-.62,2.24,2.24,0,0,0-.93-1.34,2.1,2.1,0,0,0-.53-.29V66.47Zm-3.92,20a1.35,1.35,0,1,1,1.34-1.36h0a1.35,1.35,0,0,1-1.34,1.3Z"/><path class="cls-1" d="M150.73,76.75a3.68,3.68,0,0,0,.26-.57,2.18,2.18,0,0,0,.12-.72,2.26,2.26,0,0,0-.19-.89,2.41,2.41,0,1,0-2.24,3.32,2.29,2.29,0,0,0,.78-.14A2.46,2.46,0,0,0,150.73,76.75Zm-2,0A1.34,1.34,0,1,1,150,75.34v.07h0a1.33,1.33,0,0,1-1.27,1.39h0Z"/><path class="cls-1" d="M167.1,77.79a3,3,0,0,0,.67.1,2.43,2.43,0,1,0-2.24-3.32,2.26,2.26,0,0,0-.19.89,2.18,2.18,0,0,0,.12.72,2.91,2.91,0,0,0,.31.64A2.45,2.45,0,0,0,167.1,77.79Zm.67-3.66A1.35,1.35,0,0,1,169,75.57v.05a1.34,1.34,0,1,1-1.48-1.49Z"/><path class="cls-35" d="M158.23,83.73a1.35,1.35,0,1,0,1.34,1.36v0h0A1.34,1.34,0,0,0,158.23,83.73Z"/><circle class="cls-35" cx="148.68" cy="75.46" r="1.34"/><path class="cls-35" d="M167.77,76.81a1.35,1.35,0,1,0-1.34-1.36h0A1.36,1.36,0,0,0,167.77,76.81Z"/></g><g id="ad94e297-0e86-4eaf-aac0-d146ee9aea65-3"><path class="cls-32" d="M254.18,82.59l-4.69-4.84a2.28,2.28,0,0,1-.77.14A2.43,2.43,0,1,1,251,74.57h4.61v1.61H251a3.68,3.68,0,0,1-.26.57l4.32,4.47,2.35-3.57V66.47h-3.16l4-4,3.95,4H259V75.2l5.93-9-6-6a1,1,0,0,0-1.41-.05l-.05.05h0L243.07,74.63A1,1,0,0,0,243,76l.06.06h0l14.47,14.47-5.17-5.17Z"/><path class="cls-33" d="M257.44,82.8V77.63l-2.35,3.59,1.72,1.84A1.59,1.59,0,0,1,257.44,82.8Z"/><path class="cls-33" d="M273.46,74.63,265,66.16l-5.93,9v7.62a2.16,2.16,0,0,1,.54.29l6.22-6.29a2.53,2.53,0,0,1-.31-.64h-4.67V74.57h4.74a2.41,2.41,0,1,1,2.24,3.32,3.1,3.1,0,0,1-.68-.1l-6.61,6.66a2.17,2.17,0,0,1,.1.62,2.43,2.43,0,1,1-4.84.44,2.18,2.18,0,0,1,0-.25,2.47,2.47,0,0,1,.13-.89l-1.72-1.72-1.84,2.75,5.16,5.17a1,1,0,0,0,1.41,0l0,0L273.42,76.1a1,1,0,0,0,.05-1.41l-.05,0Z"/><path class="cls-34" d="M265.57,74.57h-4.74v1.61h4.67a2.18,2.18,0,0,1-.12-.72A2.09,2.09,0,0,1,265.57,74.57Z"/><path class="cls-34" d="M251,76.18h4.54V74.57H251a2.26,2.26,0,0,1,.19.89A2.94,2.94,0,0,1,251,76.18Z"/><path class="cls-34" d="M260.52,84.45l6.61-6.66a2.44,2.44,0,0,1-1.32-1l-6.22,6.29A2.3,2.3,0,0,1,260.52,84.45Z"/><path class="cls-34" d="M256.87,83.06l-1.73-1.84-4.37-4.47a2.45,2.45,0,0,1-1.28,1l4.69,4.84,1.72,1.73A2.38,2.38,0,0,1,256.87,83.06Z"/><path class="cls-1" d="M262.19,66.47l-3.93-4-4,4h3.16V82.8a1.73,1.73,0,0,0-.57.26,2.38,2.38,0,0,0-1,1.31,2.41,2.41,0,0,0,4.62,1.4h0a2.37,2.37,0,0,0,.1-.7,2.17,2.17,0,0,0-.1-.62,2.36,2.36,0,0,0-.93-1.34,2.16,2.16,0,0,0-.54-.29V66.47Zm-3.93,20a1.35,1.35,0,1,1,1.35-1.35h0a1.35,1.35,0,0,1-1.35,1.3Z"/><path class="cls-1" d="M250.77,76.75a3.68,3.68,0,0,0,.26-.57,2.93,2.93,0,0,0,.12-.72,2.26,2.26,0,0,0-.19-.89,2.41,2.41,0,1,0-2.24,3.32,2.28,2.28,0,0,0,.77-.14A2.45,2.45,0,0,0,250.77,76.75Zm-2.05,0a1.34,1.34,0,1,1,1.34-1.34h0a1.33,1.33,0,0,1-1.27,1.39h-.07Z"/><path class="cls-1" d="M267.13,77.79a3.1,3.1,0,0,0,.68.1,2.43,2.43,0,1,0-2.24-3.32,2.09,2.09,0,0,0-.19.89,2.18,2.18,0,0,0,.12.72,2.53,2.53,0,0,0,.31.64A2.39,2.39,0,0,0,267.13,77.79Zm.68-3.66a1.34,1.34,0,1,1-.31,0Z"/><path class="cls-35" d="M258.26,83.73a1.35,1.35,0,1,0,1.35,1.35h0A1.36,1.36,0,0,0,258.26,83.73Z"/><circle class="cls-35" cx="248.72" cy="75.46" r="1.34"/><path class="cls-35" d="M267.81,76.81a1.35,1.35,0,1,0-1.35-1.35h0a1.34,1.34,0,0,0,1.35,1.35Z"/></g></g></g><g id="Text"><text class="cls-36" transform="translate(50.05 35.2)">PIP</text><text class="cls-36" transform="translate(47.49 48.35)"><tspan class="cls-37">A</tspan><tspan x="8.09" y="0">Z1</tspan></text><text class="cls-36" transform="translate(149.97 35.2)">PIP</text><text class="cls-36" transform="translate(147.41 48.35)"><tspan class="cls-37">A</tspan><tspan x="8.09" y="0">Z2</tspan></text><text class="cls-36" transform="translate(10.45 10.27)"><tspan class="cls-37">A</tspan><tspan x="8.09" y="0">Z1</tspan></text><text class="cls-36" transform="translate(110.49 10.27)"><tspan class="cls-37">A</tspan><tspan x="8.09" y="0">Z2</tspan></text><text class="cls-36" transform="translate(250.01 35.2)">PIP</text><text class="cls-36" transform="translate(247.45 48.35)"><tspan class="cls-37">A</tspan><tspan x="8.09" y="0">Z3</tspan></text><text class="cls-36" transform="translate(75.58 90.37)"><tspan class="cls-37">A</tspan><tspan x="8.09" y="0">Z1</tspan></text><text class="cls-36" transform="translate(28.91 203.39)"><tspan class="cls-37">A</tspan><tspan x="8.09" y="0">Z1</tspan></text><text class="cls-36" transform="translate(175.5 90.37)"><tspan class="cls-37">A</tspan><tspan x="8.09" y="0">Z2</tspan></text><text class="cls-36" transform="translate(275.54 90.37)"><tspan class="cls-37">A</tspan><tspan x="8.09" y="0">Z3</tspan></text><text class="cls-36" transform="translate(210.53 10.27)"><tspan class="cls-37">A</tspan><tspan x="8.09" y="0">Z3</tspan></text><text class="cls-38" transform="translate(133.36 135.2) scale(0.99 1)">Subred A</text><text class="cls-39" transform="translate(30.42 190.25) scale(0.99 1)">VM</text><text class="cls-36" transform="translate(65.57 203.39)"><tspan class="cls-37">A</tspan><tspan x="8.09" y="0">Z1</tspan></text><text class="cls-39" transform="translate(67.08 190.25) scale(0.99 1)">VM</text><text class="cls-36" transform="translate(128.86 203.39)"><tspan class="cls-37">A</tspan><tspan x="8.09" y="0">Z2</tspan></text><text class="cls-39" transform="translate(130.37 190.25) scale(0.99 1)">VM</text><text class="cls-36" transform="translate(165.71 203.39)"><tspan class="cls-37">A</tspan><tspan x="8.09" y="0">Z2</tspan></text><text class="cls-39" transform="translate(167.22 190.25) scale(0.99 1)">VM</text><text class="cls-36" transform="translate(228.99 203.39)"><tspan class="cls-37">A</tspan><tspan x="8.09" y="0">Z3</tspan></text><text class="cls-39" transform="translate(230.5 190.25) scale(0.99 1)">VM</text><text class="cls-36" transform="translate(265.75 203.39)"><tspan class="cls-37">A</tspan><tspan x="8.09" y="0">Z3</tspan></text><text class="cls-39" transform="translate(267.26 190.25) scale(0.99 1)">VM</text><text class="cls-40" transform="translate(9.6 249.8) scale(0.99 1)"><tspan class="cls-41">R</tspan><tspan x="6.94" y="0">ed</tspan><tspan x="0" y="13.2">virtual</tspan></text><text class="cls-42" transform="translate(169.28 254.29)">Di<tspan class="cls-43" x="11.42" y="0">r</tspan><tspan x="15.47" y="0">e</tspan><tspan class="cls-44" x="21.82" y="0">c</tspan><tspan class="cls-45" x="27.44" y="0">ción de flujo pa</tspan><tspan class="cls-46" x="108.8" y="0">r</tspan><tspan class="cls-47" x="112.91" y="0">a el </tspan><tspan x="0" y="13.2">o</tspan><tspan class="cls-48" x="6.95" y="13.2">r</tspan><tspan class="cls-45" x="11.17" y="13.2">igen (&quot;solicitud&quot;)</tspan></text><text class="cls-42" transform="translate(169.37 295.03)">Di<tspan class="cls-43" x="11.42" y="0">r</tspan><tspan x="15.47" y="0">e</tspan><tspan class="cls-44" x="21.82" y="0">c</tspan><tspan class="cls-45" x="27.44" y="0">ción del flujo pa</tspan><tspan class="cls-49" x="111.83" y="0">r</tspan><tspan class="cls-45" x="115.95" y="0">a la </tspan><tspan x="0" y="13.2">de</tspan><tspan class="cls-43" x="13.49" y="13.2">v</tspan><tspan class="cls-47" x="19.46" y="13.2">olución (&quot;</tspan><tspan class="cls-50" x="69.77" y="13.2">r</tspan><tspan class="cls-45" x="73.82" y="13.2">espuest</tspan><tspan class="cls-51" x="115" y="13.2">a</tspan><tspan class="cls-45" x="120.98" y="13.2">&quot;)</tspan></text></g></svg>