<svg xmlns="http://www.w3.org/2000/svg" xmlns:xlink="http://www.w3.org/1999/xlink" viewBox="0 0 316 315.2"><defs><style>.cls-1,.cls-3{fill:#fff;}.cls-15,.cls-2,.cls-5{fill:#3c3c41;}.cls-2{opacity:0.05;}.cls-2,.cls-3,.cls-4,.cls-5{isolation:isolate;}.cls-3{opacity:0.6;}.cls-14,.cls-16,.cls-17,.cls-30,.cls-4{fill:none;}.cls-4{stroke:#75757a;stroke-width:0.5px;opacity:0.5;}.cls-14,.cls-16,.cls-17,.cls-4{stroke-miterlimit:10;}.cls-5{opacity:0.2;}.cls-6{fill:#ccc;fill-opacity:0.3;}.cls-7{fill:url(#Degradado_sin_nombre);}.cls-8{fill:#50e6ff;}.cls-9{fill:#c3f1ff;}.cls-10{fill:#9cebff;}.cls-11{fill:url(#Degradado_sin_nombre_2);}.cls-12{fill:url(#Degradado_sin_nombre_3);}.cls-13{fill:url(#Degradado_sin_nombre_4);}.cls-14,.cls-16,.cls-17{stroke:#3c3c41;}.cls-16{stroke-dasharray:1.46 2.43;}.cls-17{stroke-dasharray:1.31 2.19;}.cls-18{fill:url(#Degradado_sin_nombre_5);}.cls-19{fill:url(#Degradado_sin_nombre_6);}.cls-20{fill:url(#Degradado_sin_nombre_7);}.cls-21{fill:#1490df;}.cls-22{fill:url(#Degradado_sin_nombre_8);}.cls-23{fill:url(#Degradado_sin_nombre_9);}.cls-24{fill:url(#Degradado_sin_nombre_10);}.cls-25{fill:url(#Degradado_sin_nombre_11);}.cls-26{fill:url(#Degradado_sin_nombre_12);}.cls-27{fill:url(#Degradado_sin_nombre_13);}.cls-28{fill:url(#Degradado_sin_nombre_14);}.cls-29{fill:url(#Degradado_sin_nombre_15);}.cls-31{fill:#6ebcdb;}.cls-32{fill:#5db4d7;}.cls-33{fill:#e6e6e6;}.cls-34{fill:#86d633;}.cls-35{font-size:12px;}.cls-35,.cls-37,.cls-38,.cls-39,.cls-41{fill:#1e1e1e;}.cls-35,.cls-37,.cls-38,.cls-39{font-family:SegoeUI, Segoe UI;}.cls-36{letter-spacing:0.03em;}.cls-37{font-size:12.44px;letter-spacing:0em;}.cls-38,.cls-39{font-size:12.19px;}.cls-38{letter-spacing:0em;}.cls-40{letter-spacing:-0.03em;}.cls-41{font-size:12.5px;font-family:MyriadPro-Regular, Myriad Pro;letter-spacing:0.01em;}.cls-42{letter-spacing:0em;}.cls-43{letter-spacing:0.01em;}.cls-44{letter-spacing:0em;}.cls-45{letter-spacing:0em;}.cls-46{letter-spacing:0.01em;}.cls-47{letter-spacing:0.01em;}.cls-48{letter-spacing:0em;}.cls-49{letter-spacing:0em;}.cls-50{letter-spacing:0em;}.cls-51{letter-spacing:0em;}.cls-52{letter-spacing:0em;}</style><linearGradient id="Degradado_sin_nombre" x1="39.57" y1="240.22" x2="39.57" y2="221.46" gradientTransform="translate(0 -74.26)" gradientUnits="userSpaceOnUse"><stop offset="0" stop-color="#0078d4"/><stop offset="0.82" stop-color="#5ea0ef"/></linearGradient><linearGradient id="Degradado_sin_nombre_2" x1="39.57" y1="247.46" x2="39.57" y2="240.22" gradientTransform="translate(0 -74.26)" gradientUnits="userSpaceOnUse"><stop offset="0.15" stop-color="#ccc"/><stop offset="1" stop-color="#707070"/></linearGradient><linearGradient id="Degradado_sin_nombre_3" x1="76.43" y1="240.22" x2="76.43" y2="221.46" xlink:href="#Degradado_sin_nombre"/><linearGradient id="Degradado_sin_nombre_4" x1="76.43" y1="247.46" x2="76.43" y2="240.22" xlink:href="#Degradado_sin_nombre_2"/><linearGradient id="Degradado_sin_nombre_5" x1="24.5" y1="301.79" x2="26.87" y2="304.15" gradientTransform="translate(3.03 -74.68)" gradientUnits="userSpaceOnUse"><stop offset="0" stop-color="#86d633"/><stop offset="0.24" stop-color="#83d232"/><stop offset="0.5" stop-color="#7cc52f"/><stop offset="0.76" stop-color="#6fb02a"/><stop offset="1" stop-color="#5e9624"/></linearGradient><linearGradient id="Degradado_sin_nombre_6" x1="19.15" y1="301.79" x2="21.51" y2="304.15" xlink:href="#Degradado_sin_nombre_5"/><linearGradient id="Degradado_sin_nombre_7" x1="13.81" y1="301.78" x2="16.17" y2="304.15" xlink:href="#Degradado_sin_nombre_5"/><linearGradient id="Degradado_sin_nombre_8" x1="139.57" y1="240.22" x2="139.57" y2="221.46" xlink:href="#Degradado_sin_nombre"/><linearGradient id="Degradado_sin_nombre_9" x1="139.57" y1="247.46" x2="139.57" y2="240.22" xlink:href="#Degradado_sin_nombre_2"/><linearGradient id="Degradado_sin_nombre_10" x1="176.43" y1="240.22" x2="176.43" y2="221.46" xlink:href="#Degradado_sin_nombre"/><linearGradient id="Degradado_sin_nombre_11" x1="176.43" y1="247.46" x2="176.43" y2="240.22" xlink:href="#Degradado_sin_nombre_2"/><linearGradient id="Degradado_sin_nombre_12" x1="239.57" y1="240.22" x2="239.57" y2="221.46" xlink:href="#Degradado_sin_nombre"/><linearGradient id="Degradado_sin_nombre_13" x1="239.57" y1="247.46" x2="239.57" y2="240.22" xlink:href="#Degradado_sin_nombre_2"/><linearGradient id="Degradado_sin_nombre_14" x1="276.43" y1="240.22" x2="276.43" y2="221.46" xlink:href="#Degradado_sin_nombre"/><linearGradient id="Degradado_sin_nombre_15" x1="276.43" y1="247.46" x2="276.43" y2="240.22" xlink:href="#Degradado_sin_nombre_2"/></defs><title>OJ104903206</title><g id="Target"><g id="Shapes"><rect class="cls-1" width="316" height="315.2"/><rect class="cls-1" x="0.5" y="75.2" width="315" height="151.85" rx="5"/><rect class="cls-2" x="0.5" y="75.2" width="315" height="151.85" rx="5"/><rect class="cls-3" x="10.5" y="15.2" width="95" height="200"/><rect class="cls-4" x="10.5" y="15.2" width="95" height="200"/><rect class="cls-1" x="15.99" y="120.2" width="84.51" height="90" rx="0.3"/><rect class="cls-5" x="15.99" y="120.2" width="84.51" height="90" rx="0.3"/><rect class="cls-6" x="139.57" y="240.2" width="175.93" height="35"/><rect class="cls-6" x="139.57" y="280.2" width="175.93" height="35"/><rect class="cls-7" x="25.5" y="147.2" width="28.14" height="18.76" rx="0.94"/><polygon class="cls-8" points="44.26 153.85 44.26 159.3 39.57 162.05 39.57 156.58 44.26 153.85"/><polygon class="cls-9" points="44.26 153.85 39.57 156.6 34.88 153.85 39.57 151.11 44.26 153.85"/><polygon class="cls-10" points="39.57 156.6 39.57 162.05 34.88 159.3 34.88 153.85 39.57 156.6"/><polygon class="cls-9" points="34.88 159.3 39.57 156.58 39.57 162.05 34.88 159.3"/><polygon class="cls-10" points="44.26 159.3 39.57 156.58 39.57 162.05 44.26 159.3"/><path class="cls-11" d="M45.21,171.64c-2.78-.44-2.89-2.44-2.89-5.68H36.8c0,3.24-.09,5.24-2.87,5.68a1.55,1.55,0,0,0-1.39,1.56H46.61A1.57,1.57,0,0,0,45.21,171.64Z"/><rect class="cls-12" x="62.36" y="147.2" width="28.14" height="18.76" rx="0.94"/><polygon class="cls-8" points="81.12 153.85 81.12 159.3 76.43 162.05 76.43 156.58 81.12 153.85"/><polygon class="cls-9" points="81.12 153.85 76.43 156.6 71.74 153.85 76.43 151.11 81.12 153.85"/><polygon class="cls-10" points="76.43 156.6 76.43 162.05 71.74 159.3 71.74 153.85 76.43 156.6"/><polygon class="cls-9" points="71.74 159.3 76.43 156.58 76.43 162.05 71.74 159.3"/><polygon class="cls-10" points="81.12 159.3 76.43 156.58 76.43 162.05 81.12 159.3"/><path class="cls-13" d="M82.07,171.64c-2.78-.44-2.89-2.44-2.89-5.68H73.66c0,3.24-.09,5.24-2.87,5.68a1.57,1.57,0,0,0-1.4,1.56H83.46A1.55,1.55,0,0,0,82.07,171.64Z"/><line class="cls-14" x1="58.25" y1="120.2" x2="58.25" y2="55.2"/><line class="cls-14" x1="50.72" y1="112.67" x2="50.72" y2="100.98"/><polygon class="cls-15" points="53.71 101.85 50.72 96.67 47.73 101.85 53.71 101.85"/><line class="cls-14" x1="65.77" y1="108.37" x2="65.77" y2="107.62"/><line class="cls-16" x1="65.77" y1="105.19" x2="65.77" y2="98.64"/><line class="cls-14" x1="65.77" y1="97.42" x2="65.77" y2="96.67"/><polygon class="cls-15" points="68.76 107.49 65.77 112.67 62.78 107.49 68.76 107.49"/><line class="cls-14" x1="149.81" y1="250.2" x2="160.93" y2="250.2"/><polygon class="cls-15" points="150.68 253.19 145.5 250.2 150.68 247.21 150.68 253.19"/><line class="cls-14" x1="156.19" y1="290.2" x2="155.44" y2="290.2"/><line class="cls-17" x1="153.25" y1="290.2" x2="147.34" y2="290.2"/><line class="cls-14" x1="146.25" y1="290.2" x2="145.5" y2="290.2"/><polygon class="cls-15" points="155.32 287.21 160.5 290.2 155.32 293.19 155.32 287.21"/><circle class="cls-18" cx="28.4" cy="227.97" r="1.67"/><circle class="cls-19" cx="23.06" cy="227.99" r="1.67"/><circle class="cls-20" cx="17.72" cy="227.99" r="1.67"/><path class="cls-8" d="M18.93,234.68l-1,1a.43.43,0,0,1-.61,0h0l-7.09-7.08a.88.88,0,0,1,0-1.22h0l1-1h0l7.71,7.69a.43.43,0,0,1,0,.61h0Z"/><path class="cls-21" d="M17.83,220.35l1,1a.43.43,0,0,1,0,.61h0l-7.57,7.6h0l-1-1a.89.89,0,0,1,0-1.23h0l7-7A.43.43,0,0,1,17.83,220.35Z"/><path class="cls-8" d="M34.78,226.37l1,1a.87.87,0,0,1,0,1.23h0l-7.1,7.07a.43.43,0,0,1-.61,0h0l-1-1a.43.43,0,0,1,0-.61h0Z"/><path class="cls-21" d="M35.74,228.55l-1,1h0L27.17,222a.43.43,0,0,1,0-.61h0l1-1a.43.43,0,0,1,.61,0h0l7,7a.89.89,0,0,1,0,1.23h0Z"/><rect class="cls-1" x="40.75" y="20.2" width="35" height="35"/><rect class="cls-5" x="40.75" y="20.2" width="35" height="35"/><rect class="cls-3" x="110.5" y="15.2" width="95" height="200"/><rect class="cls-4" x="110.5" y="15.2" width="95" height="200"/><rect class="cls-1" x="115.99" y="120.2" width="84.51" height="90" rx="0.3"/><rect class="cls-5" x="115.99" y="120.2" width="84.51" height="90" rx="0.3"/><rect class="cls-22" x="125.5" y="147.2" width="28.14" height="18.76" rx="0.94"/><polygon class="cls-8" points="144.26 153.85 144.26 159.3 139.57 162.05 139.57 156.58 144.26 153.85"/><polygon class="cls-9" points="144.26 153.85 139.57 156.6 134.88 153.85 139.57 151.11 144.26 153.85"/><polygon class="cls-10" points="139.57 156.6 139.57 162.05 134.88 159.3 134.88 153.85 139.57 156.6"/><polygon class="cls-9" points="134.88 159.3 139.57 156.58 139.57 162.05 134.88 159.3"/><polygon class="cls-10" points="144.26 159.3 139.57 156.58 139.57 162.05 144.26 159.3"/><path class="cls-23" d="M145.21,171.64c-2.78-.44-2.89-2.44-2.89-5.68H136.8c0,3.24-.09,5.24-2.87,5.68a1.55,1.55,0,0,0-1.39,1.56h14.07A1.57,1.57,0,0,0,145.21,171.64Z"/><rect class="cls-24" x="162.36" y="147.2" width="28.14" height="18.76" rx="0.94"/><polygon class="cls-8" points="181.12 153.85 181.12 159.3 176.43 162.05 176.43 156.58 181.12 153.85"/><polygon class="cls-9" points="181.12 153.85 176.43 156.6 171.74 153.85 176.43 151.11 181.12 153.85"/><polygon class="cls-10" points="176.43 156.6 176.43 162.05 171.74 159.3 171.74 153.85 176.43 156.6"/><polygon class="cls-9" points="171.74 159.3 176.43 156.58 176.43 162.05 171.74 159.3"/><polygon class="cls-10" points="181.12 159.3 176.43 156.58 176.43 162.05 181.12 159.3"/><path class="cls-25" d="M182.07,171.64c-2.78-.44-2.89-2.44-2.89-5.68h-5.52c0,3.24-.09,5.24-2.87,5.68a1.57,1.57,0,0,0-1.4,1.56h14.07A1.55,1.55,0,0,0,182.07,171.64Z"/><line class="cls-14" x1="158.25" y1="120.2" x2="158.25" y2="55.2"/><line class="cls-14" x1="150.72" y1="112.67" x2="150.72" y2="100.98"/><polygon class="cls-15" points="153.71 101.85 150.72 96.67 147.73 101.85 153.71 101.85"/><line class="cls-14" x1="165.77" y1="108.37" x2="165.77" y2="107.62"/><line class="cls-16" x1="165.77" y1="105.19" x2="165.77" y2="98.64"/><line class="cls-14" x1="165.77" y1="97.42" x2="165.77" y2="96.67"/><polygon class="cls-15" points="168.76 107.49 165.77 112.67 162.78 107.49 168.76 107.49"/><rect class="cls-1" x="140.75" y="20.2" width="35" height="35"/><rect class="cls-5" x="140.75" y="20.2" width="35" height="35"/><rect class="cls-3" x="210.5" y="15.2" width="95" height="200"/><rect class="cls-4" x="210.5" y="15.2" width="95" height="200"/><rect class="cls-1" x="215.99" y="120.2" width="84.51" height="90" rx="0.3"/><rect class="cls-5" x="215.99" y="120.2" width="84.51" height="90" rx="0.3"/><rect class="cls-26" x="225.5" y="147.2" width="28.14" height="18.76" rx="0.94"/><polygon class="cls-8" points="244.26 153.85 244.26 159.3 239.57 162.05 239.57 156.58 244.26 153.85"/><polygon class="cls-9" points="244.26 153.85 239.57 156.6 234.88 153.85 239.57 151.11 244.26 153.85"/><polygon class="cls-10" points="239.57 156.6 239.57 162.05 234.88 159.3 234.88 153.85 239.57 156.6"/><polygon class="cls-9" points="234.88 159.3 239.57 156.58 239.57 162.05 234.88 159.3"/><polygon class="cls-10" points="244.26 159.3 239.57 156.58 239.57 162.05 244.26 159.3"/><path class="cls-27" d="M245.21,171.64c-2.78-.44-2.89-2.44-2.89-5.68H236.8c0,3.24-.09,5.24-2.87,5.68a1.55,1.55,0,0,0-1.39,1.56h14.07A1.57,1.57,0,0,0,245.21,171.64Z"/><rect class="cls-28" x="262.36" y="147.2" width="28.14" height="18.76" rx="0.94"/><polygon class="cls-8" points="281.12 153.85 281.12 159.3 276.43 162.05 276.43 156.58 281.12 153.85"/><polygon class="cls-9" points="281.12 153.85 276.43 156.6 271.74 153.85 276.43 151.11 281.12 153.85"/><polygon class="cls-10" points="276.43 156.6 276.43 162.05 271.74 159.3 271.74 153.85 276.43 156.6"/><polygon class="cls-9" points="271.74 159.3 276.43 156.58 276.43 162.05 271.74 159.3"/><polygon class="cls-10" points="281.12 159.3 276.43 156.58 276.43 162.05 281.12 159.3"/><path class="cls-29" d="M282.07,171.64c-2.78-.44-2.89-2.44-2.89-5.68h-5.52c0,3.24-.09,5.24-2.87,5.68a1.57,1.57,0,0,0-1.4,1.56h14.07A1.55,1.55,0,0,0,282.07,171.64Z"/><line class="cls-14" x1="258.25" y1="120.2" x2="258.25" y2="55.2"/><line class="cls-14" x1="250.72" y1="112.67" x2="250.72" y2="100.98"/><polygon class="cls-15" points="253.71 101.85 250.72 96.67 247.73 101.85 253.71 101.85"/><line class="cls-14" x1="265.77" y1="108.37" x2="265.77" y2="107.62"/><line class="cls-16" x1="265.77" y1="105.19" x2="265.77" y2="98.64"/><line class="cls-14" x1="265.77" y1="97.42" x2="265.77" y2="96.67"/><polygon class="cls-15" points="268.76 107.49 265.77 112.67 262.78 107.49 268.76 107.49"/><rect class="cls-1" x="240.75" y="20.2" width="35" height="35"/><rect class="cls-5" x="240.75" y="20.2" width="35" height="35"/><rect class="cls-30" x="0.5" y="75.2" width="315" height="151.85" rx="5"/><path class="cls-15" d="M309.34,227.55h-1v-1h1Zm-3,0h-1v-1h1Zm-3,0h-1v-1h1Zm-3,0h-1v-1h1Zm-3,0h-1v-1h1Zm-3,0h-1v-1h1Zm-3,0h-1v-1h1Zm-3,0h-1v-1h1Zm-3,0h-1v-1h1Zm-3,0h-1v-1h1Zm-3,0h-1v-1h1Zm-3,0h-1v-1h1Zm-3,0h-1v-1h1Zm-3,0h-1v-1h1Zm-3,0h-1v-1h1Zm-3,0h-1v-1h1Zm-3,0h-1v-1h1Zm-3,0h-1v-1h1Zm-3,0h-1v-1h1Zm-3,0h-1v-1h1Zm-3,0h-1v-1h1Zm-3,0h-1v-1h1Zm-3,0h-1v-1h1Zm-3,0h-1v-1h1Zm-3,0h-1v-1h1Zm-3,0h-1v-1h1Zm-3,0h-1v-1h1Zm-3,0h-1v-1h1Zm-3,0h-1v-1h1Zm-3,0h-1v-1h1Zm-3,0h-1v-1h1Zm-3,0h-1v-1h1Zm-3,0h-1v-1h1Zm-3,0h-1v-1h1Zm-3,0h-1v-1h1Zm-3,0h-1v-1h1Zm-3,0h-1v-1h1Zm-3,0h-1v-1h1Zm-3,0h-1v-1h1Zm-3,0h-1v-1h1Zm-3,0h-1v-1h1Zm-3,0h-1v-1h1Zm-3,0h-1v-1h1Zm-3,0h-1v-1h1Zm-3,0h-1v-1h1Zm-3,0h-1v-1h1Zm-3,0h-1v-1h1Zm-3,0h-1v-1h1Zm-3,0h-1v-1h1Zm-3,0h-1v-1h1Zm-3,0h-1v-1h1Zm-3,0h-1v-1h1Zm-3,0h-1v-1h1Zm-3,0h-1v-1h1Zm-3,0h-1v-1h1Zm-3,0h-1v-1h1Zm-3,0h-1v-1h1Zm-3,0h-1v-1h1Zm-3,0h-1v-1h1Zm-3,0h-1v-1h1Zm-3,0h-1v-1h1Zm-3,0h-1v-1h1Zm-3,0h-1v-1h1Zm-3,0h-1v-1h1Zm-3,0h-1v-1h1Zm-3,0h-1v-1h1Zm-3,0h-1v-1h1Zm-3,0h-1v-1h1Zm-3,0h-1v-1h1Zm-3,0h-1v-1h1Zm-3,0h-1v-1h1Zm-3,0h-1v-1h1Zm-3,0h-1v-1h1Zm-3,0h-1v-1h1Zm-3,0h-1v-1h1Zm-3,0h-1v-1h1Zm-3,0h-1v-1h1Zm-3,0h-1v-1h1Zm-3,0h-1v-1h1Zm-3,0h-1v-1h1Zm-3,0h-1v-1h1Zm-3,0h-1v-1h1Zm-3,0h-1v-1h1Zm-3,0h-1v-1h1Zm-3,0h-1v-1h1Zm-3,0h-1v-1h1Zm-3,0h-1v-1h1Zm-3,0H47v-1h1Zm-3,0H44v-1h1Zm-3,0H41v-1h1Zm-3,0H38v-1h1Zm-33,0H5l.1-1H6Zm305.42-.08-.16-1a4.4,4.4,0,0,0,.86-.24l.37.93a5.64,5.64,0,0,1-1.41.31ZM3.2,226.87a6.34,6.34,0,0,1-.91-.62l.65-.77a4.7,4.7,0,0,0,.74.52ZM314.32,226l-.69-.72a4.82,4.82,0,0,0,.58-.69l.82.57A5.18,5.18,0,0,1,314.32,226ZM.6,224.54a5.09,5.09,0,0,1-.4-1l1-.27a4.31,4.31,0,0,0,.33.84Zm315.29-1.39-1-.2a4.58,4.58,0,0,0,.09-.9l1-.06v.06A5.06,5.06,0,0,1,315.89,223.15ZM1,221.39H0v-1H1ZM316,220h-1v-1h1ZM1,218.39H0v-1H1ZM316,217h-1v-1h1ZM1,215.38H0v-1H1ZM316,214h-1v-1h1ZM1,212.38H0v-1H1ZM316,211h-1v-1h1ZM1,209.38H0v-1H1ZM316,208h-1v-1h1ZM1,206.37H0v-1H1ZM316,205h-1v-1h1ZM1,203.37H0v-1H1ZM316,202h-1v-1h1ZM1,200.37H0v-1H1ZM316,199h-1v-1h1ZM1,197.36H0v-1H1ZM316,196h-1v-1h1ZM1,194.36H0v-1H1ZM316,193h-1v-1h1ZM1,191.36H0v-1H1ZM316,190h-1v-1h1ZM1,188.35H0v-1H1ZM316,187h-1v-1h1ZM1,185.35H0v-1H1ZM316,184h-1v-1h1ZM1,182.35H0v-1H1ZM316,181h-1v-1h1ZM1,179.34H0v-1H1Zm315-1.4h-1v-1h1ZM1,176.34H0v-1H1Zm315-1.4h-1v-1h1ZM1,173.34H0v-1H1Zm315-1.4h-1v-1h1ZM1,170.33H0v-1H1Zm315-1.4h-1v-1h1ZM1,167.33H0v-1H1Zm315-1.4h-1v-1h1ZM1,164.33H0v-1H1Zm315-1.4h-1v-1h1ZM1,161.32H0v-1H1Zm315-1.4h-1v-1h1ZM1,158.32H0v-1H1Zm315-1.4h-1v-1h1ZM1,155.32H0v-1H1Zm315-1.4h-1v-1h1ZM1,152.31H0v-1H1Zm315-1.4h-1v-1h1ZM1,149.31H0v-1H1Zm315-1.4h-1v-1h1ZM1,146.3H0v-1H1Zm315-1.39h-1v-1h1ZM1,143.3H0v-1H1Zm315-1.4h-1v-1h1ZM1,140.3H0v-1H1Zm315-1.4h-1v-1h1ZM1,137.29H0v-1H1Zm315-1.39h-1v-1h1ZM1,134.29H0v-1H1Zm315-1.4h-1v-1h1ZM1,131.29H0v-1H1Zm315-1.4h-1v-1h1ZM1,128.28H0v-1H1Zm315-1.39h-1v-1h1ZM1,125.28H0v-1H1Zm315-1.4h-1v-1h1ZM1,122.28H0v-1H1Zm315-1.4h-1v-1h1ZM1,119.27H0v-1H1Zm315-1.39h-1v-1h1ZM1,116.27H0v-1H1Zm315-1.4h-1v-1h1ZM1,113.27H0v-1H1Zm315-1.4h-1v-1h1ZM1,110.26H0v-1H1Zm315-1.39h-1v-1h1ZM1,107.26H0v-1H1Zm315-1.4h-1v-1h1ZM1,104.26H0v-1H1Zm315-1.4h-1v-1h1ZM1,101.25H0v-1H1Zm315-1.39h-1v-1h1ZM1,98.25H0v-1H1Zm315-1.4h-1v-1h1ZM1,95.25H0v-1H1Zm315-1.4h-1v-1h1ZM1,92.24H0v-1H1Zm315-1.4h-1v-1h1ZM1,89.24H0v-1H1Zm315-1.4h-1v-1h1ZM1,86.24H0v-1H1Zm315-1.4h-1v-1h1ZM1,83.23H0v-1H1Zm315-1.4h-1v-1h1ZM0,80.23H0a6.24,6.24,0,0,1,.1-1.06l1,.19a4.81,4.81,0,0,0-.1.84ZM314.83,79a4,4,0,0,0-.33-.83l.89-.46a5.09,5.09,0,0,1,.4,1Zm-313-1.3L1,77.12a6.24,6.24,0,0,1,.7-.84l.7.71a5.09,5.09,0,0,0-.62.69Zm311.6-.93a4.58,4.58,0,0,0-.74-.5l.48-.88a5.48,5.48,0,0,1,.9.61ZM3.85,76l-.36-.93a5,5,0,0,1,1-.29l.18,1A4.73,4.73,0,0,0,3.85,76Zm307.08-.29H310v-1h1.05Zm-3,0h-1v-1h1Zm-3,0h-1v-1h1Zm-3,0h-1v-1h1Zm-3,0h-1v-1h1Zm-3,0h-1v-1h1Zm-3,0h-1v-1h1Zm-3,0h-1v-1h1Zm-3,0h-1v-1h1Zm-3,0h-1v-1h1Zm-3,0h-1v-1h1Zm-3,0h-1v-1h1Zm-3,0h-1v-1h1Zm-3,0h-1v-1h1Zm-3,0h-1v-1h1Zm-3,0h-1v-1h1Zm-3,0h-1v-1h1Zm-3,0h-1v-1h1Zm-3,0h-1v-1h1Zm-3,0h-1v-1h1Zm-3,0h-1v-1h1Zm-3,0h-1v-1h1Zm-3,0h-1v-1h1Zm-3,0h-1v-1h1Zm-3,0h-1v-1h1Zm-3,0h-1v-1h1Zm-3,0h-1v-1h1Zm-3,0h-1v-1h1Zm-3,0h-1v-1h1Zm-3,0h-1v-1h1Zm-3,0h-1v-1h1Zm-3,0h-1v-1h1Zm-3,0h-1v-1h1Zm-3,0h-1v-1h1Zm-3,0h-1v-1h1Zm-3,0h-1v-1h1Zm-3,0h-1v-1h1Zm-3,0h-1v-1h1Zm-3,0h-1v-1h1Zm-3,0h-1v-1h1Zm-3,0h-1v-1h1Zm-3,0h-1v-1h1Zm-3,0h-1v-1h1Zm-3,0h-1v-1h1Zm-3,0h-1v-1h1Zm-3,0h-1v-1h1Zm-3,0h-1v-1h1Zm-3,0h-1v-1h1Zm-3,0h-1v-1h1Zm-3,0h-1v-1h1Zm-3,0h-1v-1h1Zm-3,0h-1v-1h1Zm-3,0h-1v-1h1Zm-3,0h-1v-1h1Zm-3,0h-1v-1h1Zm-3,0h-1v-1h1Zm-3,0h-1v-1h1Zm-3,0h-1v-1h1Zm-3,0h-1v-1h1Zm-3,0h-1v-1h1Zm-3,0h-1v-1h1Zm-3,0h-1v-1h1Zm-3,0h-1v-1h1Zm-3,0h-1v-1h1Zm-3,0h-1v-1h1Zm-3,0h-1v-1h1Zm-3,0h-1v-1h1Zm-3,0h-1v-1h1Zm-3,0h-1v-1h1Zm-3,0h-1v-1h1Zm-3,0h-1v-1h1Zm-3,0h-1v-1h1Zm-3,0h-1v-1h1Zm-3,0h-1v-1h1Zm-3,0h-1v-1h1Zm-3,0h-1v-1h1Zm-3,0h-1v-1h1Zm-3,0h-1v-1h1Zm-3,0h-1v-1h1Zm-3,0h-1v-1h1Zm-3,0h-1v-1h1Zm-3,0h-1v-1h1Zm-3,0h-1v-1h1Zm-3,0h-1v-1h1Zm-3,0h-1v-1h1Zm-3,0h-1v-1h1Zm-3,0h-1v-1h1Zm-3,0h-1v-1h1Zm-3,0h-1v-1h1Zm-3,0h-1v-1h1Zm-3,0h-1v-1h1Zm-3,0h-1v-1h1Zm-3,0h-1v-1h1Zm-3,0h-1v-1h1Zm-3,0h-1v-1h1Zm-3,0h-1v-1h1Zm-3,0h-1v-1h1Zm-3,0h-1v-1h1Zm-3,0h-1v-1h1Zm-3,0h-1v-1h1Zm-3,0h-1v-1h1Zm-3,0h-1v-1h1Z"/><g id="ad94e297-0e86-4eaf-aac0-d146ee9aea65"><path class="cls-31" d="M54.12,83.24,49.43,78.4a2.28,2.28,0,0,1-.77.14,2.43,2.43,0,1,1,2.24-3.33h4.61v1.62H51a3.64,3.64,0,0,1-.25.57L55,81.86l2.34-3.56V67.12H54.22l4-4,4,4H59v8.73l5.93-9-6-6a1,1,0,0,0-1.41-.05l-.05.05h0L43,75.28a1,1,0,0,0,0,1.41l0,0h0l14.48,14.5-5.17-5.17Z"/><path class="cls-32" d="M57.37,83.45V78.28L55,81.86l1.72,1.85A1.68,1.68,0,0,1,57.37,83.45Z"/><path class="cls-32" d="M73.4,75.28l-8.48-8.47-5.93,9v7.62a1.57,1.57,0,0,1,.54.29l6.22-6.29a2.53,2.53,0,0,1-.31-.64H60.77V75.21h4.74a2.41,2.41,0,1,1,2.24,3.33,3.1,3.1,0,0,1-.68-.1L60.46,85.1a2.59,2.59,0,0,1,.1.62,2.43,2.43,0,1,1-4.84.44,2.18,2.18,0,0,1,0-.25,2.24,2.24,0,0,1,.13-.89l-1.72-1.73-1.85,2.76,5.17,5.17a1,1,0,0,0,1.41,0l0,0L73.36,76.75a1,1,0,0,0,0-1.41s0,0,0,0Z"/><path class="cls-33" d="M65.51,75.21H60.77v1.62h4.67A2.21,2.21,0,0,1,65.51,75.21Z"/><path class="cls-33" d="M51,76.83h4.55V75.21H50.9a2.54,2.54,0,0,1,.19.9A2.19,2.19,0,0,1,51,76.83Z"/><path class="cls-33" d="M60.46,85.1l6.61-6.66a2.44,2.44,0,0,1-1.32-1l-6.22,6.29A2.33,2.33,0,0,1,60.46,85.1Z"/><path class="cls-33" d="M56.81,83.71l-1.73-1.85L50.71,77.4a2.45,2.45,0,0,1-1.28,1l4.69,4.84L55.84,85A2.32,2.32,0,0,1,56.81,83.71Z"/><path class="cls-1" d="M62.13,67.12l-3.93-4-4,4h3.15V83.45a1.68,1.68,0,0,0-.56.26,2.38,2.38,0,0,0-1,1.31,2.41,2.41,0,0,0,4.62,1.39,2.3,2.3,0,0,0,.1-.69,2.59,2.59,0,0,0-.1-.62,2.36,2.36,0,0,0-.93-1.34,1.57,1.57,0,0,0-.54-.29V67.12ZM58.2,87.07a1.35,1.35,0,1,1,1.34-1.36h0a1.34,1.34,0,0,1-1.33,1.35Z"/><path class="cls-1" d="M50.71,77.4a3.64,3.64,0,0,0,.25-.57,2.48,2.48,0,0,0,.13-.72,2.54,2.54,0,0,0-.19-.9,2.42,2.42,0,1,0-2.24,3.33,2.28,2.28,0,0,0,.77-.14A2.45,2.45,0,0,0,50.71,77.4Zm-2.05,0A1.35,1.35,0,1,1,50,76v0h0a1.34,1.34,0,0,1-1.29,1.39h-.05Z"/><path class="cls-1" d="M67.07,78.44a3.1,3.1,0,0,0,.68.1,2.43,2.43,0,1,0-2.24-3.33,2.21,2.21,0,0,0-.07,1.62,2.53,2.53,0,0,0,.31.64A2.39,2.39,0,0,0,67.07,78.44Zm.68-3.66a1.33,1.33,0,1,1-.31,0A1.61,1.61,0,0,1,67.75,74.78Z"/><path class="cls-34" d="M58.2,84.38a1.35,1.35,0,1,0,1.34,1.36v0h0A1.34,1.34,0,0,0,58.2,84.38Z"/><circle class="cls-34" cx="48.66" cy="76.11" r="1.34"/><path class="cls-34" d="M67.75,77.45a1.34,1.34,0,1,0-1.35-1.34h0a1.34,1.34,0,0,0,1.34,1.34Z"/></g><g id="ad94e297-0e86-4eaf-aac0-d146ee9aea65-2"><path class="cls-31" d="M154.18,83.24l-4.69-4.84a2.28,2.28,0,0,1-.77.14A2.43,2.43,0,1,1,151,75.21h4.61v1.62H151a3.64,3.64,0,0,1-.25.57l4.32,4.46,2.34-3.56V67.12h-3.15l4-4,4,4H159.1v8.73l5.93-9-6-6a1,1,0,0,0-1.41-.05l-.05.05h0L143.06,75.28a1,1,0,0,0-.05,1.41l.05,0h0l14.48,14.48-5.17-5.17Z"/><path class="cls-32" d="M157.43,83.45V78.28l-2.34,3.58,1.72,1.85A1.61,1.61,0,0,1,157.43,83.45Z"/><path class="cls-32" d="M173.46,75.28,165,66.81l-5.93,9v7.62a2.16,2.16,0,0,1,.54.29l6.22-6.29a2.53,2.53,0,0,1-.31-.64h-4.67V75.21h4.74a2.41,2.41,0,1,1,2.23,3.33,3,3,0,0,1-.67-.1l-6.61,6.66a2.59,2.59,0,0,1,.1.62,2.43,2.43,0,1,1-4.84.44,2.18,2.18,0,0,1,0-.25,2.24,2.24,0,0,1,.13-.89l-1.72-1.73-1.85,2.76,5.17,5.17a1,1,0,0,0,1.41,0l0,0,14.47-14.47a1,1,0,0,0,.05-1.41s0,0-.05,0Z"/><path class="cls-33" d="M165.57,75.21h-4.74v1.62h4.67A2.21,2.21,0,0,1,165.57,75.21Z"/><path class="cls-33" d="M151,76.83h4.55V75.21H151a2.33,2.33,0,0,1,.18.9A2.24,2.24,0,0,1,151,76.83Z"/><path class="cls-33" d="M160.52,85.1l6.61-6.66a2.41,2.41,0,0,1-1.32-1l-6.22,6.29A2.33,2.33,0,0,1,160.52,85.1Z"/><path class="cls-33" d="M156.86,83.71l-1.72-1.85-4.37-4.46a2.45,2.45,0,0,1-1.28,1l4.69,4.84L155.9,85A2.39,2.39,0,0,1,156.86,83.71Z"/><path class="cls-1" d="M162.19,67.12l-3.93-4-4,4h3.15V83.45a1.73,1.73,0,0,0-.57.26,2.41,2.41,0,1,0,2.71,4,2.35,2.35,0,0,0,.95-1.28,2.25,2.25,0,0,0,0-1.31,2.36,2.36,0,0,0-.93-1.34,2.16,2.16,0,0,0-.54-.29V67.12Zm-3.93,19.95a1.35,1.35,0,1,1,1.34-1.36h0a1.34,1.34,0,0,1-1.33,1.35Z"/><path class="cls-1" d="M150.77,77.4a3.64,3.64,0,0,0,.25-.57,2.18,2.18,0,0,0,.12-.72,2.33,2.33,0,0,0-.18-.9,2.42,2.42,0,1,0-2.24,3.33,2.28,2.28,0,0,0,.77-.14A2.45,2.45,0,0,0,150.77,77.4Zm-2.05,0A1.35,1.35,0,1,1,150.06,76v0h0a1.34,1.34,0,0,1-1.29,1.39h-.05Z"/><path class="cls-1" d="M167.13,78.44a3,3,0,0,0,.67.1,2.43,2.43,0,1,0-2.23-3.33,2.21,2.21,0,0,0-.07,1.62,2.53,2.53,0,0,0,.31.64A2.39,2.39,0,0,0,167.13,78.44Zm.67-3.66a1.35,1.35,0,0,1,1.2,1.48h0a1.34,1.34,0,1,1-1.49-1.49A1.41,1.41,0,0,1,167.8,74.78Z"/><path class="cls-34" d="M158.26,84.38a1.35,1.35,0,1,0,1.34,1.36v0h0A1.34,1.34,0,0,0,158.26,84.38Z"/><circle class="cls-34" cx="148.72" cy="76.11" r="1.34"/><path class="cls-34" d="M167.8,77.45a1.34,1.34,0,1,0-1.34-1.34h0A1.34,1.34,0,0,0,167.8,77.45Z"/></g><g id="ad94e297-0e86-4eaf-aac0-d146ee9aea65-3"><path class="cls-31" d="M254.21,83.24l-4.68-4.84a2.29,2.29,0,0,1-.78.14A2.43,2.43,0,1,1,251,75.21h4.62v1.62h-4.55a3.68,3.68,0,0,1-.26.57l4.33,4.46,2.34-3.56V67.12h-3.15l4-4,3.94,4h-3.15v8.73l5.93-9-6-6a1,1,0,0,0-1.41-.05l-.05.05h0L243.1,75.28a1,1,0,0,0,0,1.41l0,0h0l14.47,14.48-5.17-5.17Z"/><path class="cls-32" d="M257.47,83.45V78.28l-2.34,3.58,1.72,1.85A1.61,1.61,0,0,1,257.47,83.45Z"/><path class="cls-32" d="M273.49,75.28,265,66.81l-5.93,9v7.62a1.83,1.83,0,0,1,.53.29l6.22-6.29a2.91,2.91,0,0,1-.31-.64h-4.67V75.21h4.74a2.42,2.42,0,1,1,2.24,3.33,3,3,0,0,1-.67-.1l-6.62,6.66a2.18,2.18,0,0,1,.11.62,2.43,2.43,0,0,1-4.86.21,2.55,2.55,0,0,1,.14-.91l-1.73-1.73-1.84,2.76,5.17,5.17a1,1,0,0,0,1.41,0l0,0,14.47-14.47a1,1,0,0,0,.05-1.41l-.05,0Z"/><path class="cls-33" d="M265.6,75.21h-4.74v1.62h4.67a2.93,2.93,0,0,1-.12-.72A2.3,2.3,0,0,1,265.6,75.21Z"/><path class="cls-33" d="M251.06,76.83h4.55V75.21H251a2.21,2.21,0,0,1,.07,1.62Z"/><path class="cls-33" d="M260.55,85.1l6.62-6.66a2.43,2.43,0,0,1-1.33-1l-6.22,6.29A2.27,2.27,0,0,1,260.55,85.1Z"/><path class="cls-33" d="M256.9,83.71l-1.72-1.85L250.8,77.4a2.46,2.46,0,0,1-1.27,1l4.68,4.84L255.94,85A2.35,2.35,0,0,1,256.9,83.71Z"/><path class="cls-1" d="M262.23,67.12l-3.93-4-4,4h3.15V83.45a1.73,1.73,0,0,0-.57.26,2.34,2.34,0,0,0-1,1.31,2.41,2.41,0,0,0,4.55,1.6l.06-.21a2.31,2.31,0,0,0,.11-.69,2.18,2.18,0,0,0-.11-.62,2.24,2.24,0,0,0-.93-1.34,1.83,1.83,0,0,0-.53-.29V67.12ZM258.3,87.07a1.35,1.35,0,1,1,1.34-1.36h0a1.34,1.34,0,0,1-1.33,1.35Z"/><path class="cls-1" d="M250.8,77.4a3.68,3.68,0,0,0,.26-.57,2.21,2.21,0,0,0-.07-1.62,2.41,2.41,0,1,0-2.24,3.33,2.29,2.29,0,0,0,.78-.14A2.46,2.46,0,0,0,250.8,77.4Zm-2.05,0a1.35,1.35,0,0,1,0-2.69,1.37,1.37,0,0,1,1.35,1.35h0a1.36,1.36,0,0,1-1.3,1.39h-.05Z"/><path class="cls-1" d="M267.17,78.44a3,3,0,0,0,.67.1,2.43,2.43,0,1,0-2.24-3.33,2.3,2.3,0,0,0-.19.9,2.53,2.53,0,0,0,.43,1.36A2.45,2.45,0,0,0,267.17,78.44Zm.67-3.66a1.34,1.34,0,1,1-1.49,1.5h0a1.35,1.35,0,0,1,1.19-1.49,1.5,1.5,0,0,1,.3,0Z"/><path class="cls-34" d="M258.3,84.38a1.35,1.35,0,1,0,1.34,1.36v0h0A1.34,1.34,0,0,0,258.3,84.38Z"/><circle class="cls-34" cx="248.75" cy="76.11" r="1.34"/><path class="cls-34" d="M267.84,77.45a1.34,1.34,0,1,0-1.34-1.34h0A1.34,1.34,0,0,0,267.84,77.45Z"/></g></g></g><g id="Text"><text class="cls-35" transform="translate(50.12 35.09)">PIP</text><text class="cls-35" transform="translate(47.57 48.25)"><tspan class="cls-36">A</tspan><tspan x="8.09" y="0">Z1</tspan></text><text class="cls-35" transform="translate(150.04 35.09)">PIP</text><text class="cls-35" transform="translate(147.48 48.25)"><tspan class="cls-36">A</tspan><tspan x="8.09" y="0">Z2</tspan></text><text class="cls-35" transform="translate(10.52 10.16)"><tspan class="cls-36">A</tspan><tspan x="8.09" y="0">Z1</tspan></text><text class="cls-35" transform="translate(110.56 10.16)"><tspan class="cls-36">A</tspan><tspan x="8.09" y="0">Z2</tspan></text><text class="cls-35" transform="translate(250.08 35.09)">PIP</text><text class="cls-35" transform="translate(247.52 48.25)"><tspan class="cls-36">A</tspan><tspan x="8.09" y="0">Z3</tspan></text><text class="cls-35" transform="translate(75.66 90.26)"><tspan class="cls-36">A</tspan><tspan x="8.09" y="0">Z1</tspan></text><text class="cls-35" transform="translate(28.98 203.28)"><tspan class="cls-36">A</tspan><tspan x="8.09" y="0">Z1</tspan></text><text class="cls-35" transform="translate(175.57 90.26)"><tspan class="cls-36">A</tspan><tspan x="8.09" y="0">Z2</tspan></text><text class="cls-35" transform="translate(275.61 90.26)"><tspan class="cls-36">A</tspan><tspan x="8.09" y="0">Z3</tspan></text><text class="cls-35" transform="translate(210.61 10.16)"><tspan class="cls-36">A</tspan><tspan x="8.09" y="0">Z3</tspan></text><text class="cls-37" transform="translate(133.87 135.1) scale(0.99 1)">Subred B</text><text class="cls-37" transform="translate(33.38 135.28) scale(0.99 1)">Subred A</text><text class="cls-37" transform="translate(233.6 135.1) scale(0.99 1)">Subred C</text><text class="cls-38" transform="translate(30.49 190.14) scale(0.99 1)">VM</text><text class="cls-35" transform="translate(65.65 203.28)"><tspan class="cls-36">A</tspan><tspan x="8.09" y="0">Z1</tspan></text><text class="cls-38" transform="translate(67.16 190.14) scale(0.99 1)">VM</text><text class="cls-35" transform="translate(128.93 203.28)"><tspan class="cls-36">A</tspan><tspan x="8.09" y="0">Z2</tspan></text><text class="cls-38" transform="translate(130.44 190.14) scale(0.99 1)">VM</text><text class="cls-35" transform="translate(165.78 203.28)"><tspan class="cls-36">A</tspan><tspan x="8.09" y="0">Z2</tspan></text><text class="cls-38" transform="translate(167.29 190.14) scale(0.99 1)">VM</text><text class="cls-35" transform="translate(229.07 203.28)"><tspan class="cls-36">A</tspan><tspan x="8.09" y="0">Z3</tspan></text><text class="cls-38" transform="translate(230.58 190.14) scale(0.99 1)">VM</text><text class="cls-35" transform="translate(265.82 203.28)"><tspan class="cls-36">A</tspan><tspan x="8.09" y="0">Z3</tspan></text><text class="cls-38" transform="translate(267.33 190.14) scale(0.99 1)">VM</text><text class="cls-39" transform="translate(9.67 249.69) scale(0.99 1)"><tspan class="cls-40">R</tspan><tspan x="6.94" y="0">ed</tspan><tspan x="0" y="13.2">virtual</tspan></text><text class="cls-41" transform="translate(169.35 254.19)">Di<tspan class="cls-42" x="11.42" y="0">r</tspan><tspan class="cls-43" x="15.47" y="0">e</tspan><tspan class="cls-44" x="21.82" y="0">c</tspan><tspan class="cls-43" x="27.44" y="0">ción de flujo pa</tspan><tspan class="cls-45" x="108.8" y="0">r</tspan><tspan class="cls-46" x="112.91" y="0">a </tspan><tspan class="cls-43"><tspan x="0" y="13.2">el o</tspan><tspan class="cls-47" x="19.07" y="13.2">r</tspan><tspan class="cls-46" x="23.3" y="13.2">igen (&quot;solicitud&quot;)</tspan></tspan></text><text class="cls-41" transform="translate(169.45 294.93)">Di<tspan class="cls-48" x="11.42" y="0">r</tspan><tspan x="15.47" y="0">e</tspan><tspan class="cls-49" x="21.82" y="0">c</tspan><tspan class="cls-43" x="27.44" y="0">ción del flujo pa</tspan><tspan class="cls-50" x="111.83" y="0">r</tspan><tspan class="cls-43" x="115.95" y="0">a </tspan><tspan x="0" y="13.2">la de</tspan><tspan class="cls-48" x="25.37" y="13.2">v</tspan><tspan class="cls-46" x="31.35" y="13.2">olución (&quot;</tspan><tspan class="cls-51" x="81.66" y="13.2">r</tspan><tspan class="cls-43" x="85.71" y="13.2">espuest</tspan><tspan class="cls-52" x="126.89" y="13.2">a</tspan><tspan class="cls-43" x="132.86" y="13.2">&quot;)</tspan></text></g></svg>