<svg xmlns="http://www.w3.org/2000/svg" xmlns:xlink="http://www.w3.org/1999/xlink" viewBox="0 0 332.33 285.86"><defs><style>.cls-1{fill:#fff;}.cls-2{fill:#ccc;fill-opacity:0.3;}.cls-23,.cls-24,.cls-26,.cls-3,.cls-35,.cls-37,.cls-4,.cls-9{fill:none;stroke-miterlimit:10;}.cls-23,.cls-3,.cls-4{stroke:#3c3c41;}.cls-4{stroke-dasharray:1.31 2.19;}.cls-5,.cls-6,.cls-7,.cls-8{fill:#3c3c41;}.cls-6{opacity:0.05;}.cls-34,.cls-38,.cls-39,.cls-6,.cls-7,.cls-8,.cls-9{isolation:isolate;}.cls-7{opacity:0.2;}.cls-8{opacity:0.02;}.cls-24,.cls-26,.cls-9{stroke:#365615;}.cls-9{stroke-width:0.5px;opacity:0.5;}.cls-10{fill:url(#Degradado_sin_nombre);}.cls-11{fill:#50e6ff;}.cls-12{fill:#c3f1ff;}.cls-13{fill:#9cebff;}.cls-14{fill:url(#Degradado_sin_nombre_2);}.cls-15{fill:url(#Degradado_sin_nombre_3);}.cls-16{fill:url(#Degradado_sin_nombre_4);}.cls-17{fill:#005ba1;}.cls-18{fill:#0078d4;}.cls-19{fill:url(#Degradado_sin_nombre_5);}.cls-20{fill:url(#Degradado_sin_nombre_6);}.cls-21{fill:url(#Degradado_sin_nombre_7);}.cls-22{fill:url(#Degradado_sin_nombre_8);}.cls-23,.cls-26,.cls-37{stroke-dasharray:1.46 2.43;}.cls-25{fill:#365615;}.cls-27{fill:url(#Degradado_sin_nombre_9);}.cls-28{fill:url(#Degradado_sin_nombre_10);}.cls-29{fill:url(#Degradado_sin_nombre_11);}.cls-30{fill:#1490df;}.cls-31{fill:url(#Degradado_sin_nombre_12);}.cls-32{fill:#b4ec36;}.cls-33{fill:#5ea0ef;}.cls-34{fill:#9bf00b;}.cls-34,.cls-38,.cls-39{opacity:0.4;}.cls-35,.cls-37{stroke:#003067;}.cls-36{fill:#003067;}.cls-38{fill:#83b9f9;}.cls-39,.cls-40{fill:#6ebcdb;}.cls-41{fill:#5db4d7;}.cls-42{fill:#e6e6e6;}.cls-43{fill:#86d633;}.cls-44,.cls-51{font-size:12.19px;}.cls-44,.cls-45,.cls-47,.cls-49,.cls-50,.cls-51,.cls-53,.cls-63{fill:#1e1e1e;}.cls-44,.cls-45,.cls-46,.cls-47,.cls-49,.cls-50,.cls-51,.cls-63{font-family:SegoeUI, Segoe UI;}.cls-44{letter-spacing:0em;}.cls-45,.cls-46{font-size:12px;}.cls-46{fill:#767676;}.cls-47,.cls-63{font-size:11px;}.cls-48{letter-spacing:-0.07em;}.cls-49{font-size:12.44px;letter-spacing:0em;}.cls-50{font-size:11.97px;letter-spacing:0em;}.cls-52{letter-spacing:-0.03em;}.cls-53{font-size:12.5px;font-family:MyriadPro-Regular, Myriad Pro;letter-spacing:0.01em;}.cls-54{letter-spacing:0em;}.cls-55{letter-spacing:0em;}.cls-56{letter-spacing:0.01em;}.cls-57{letter-spacing:0em;}.cls-58{letter-spacing:0.01em;}.cls-59{letter-spacing:0.01em;}.cls-60{letter-spacing:0em;}.cls-61{letter-spacing:0em;}.cls-62{letter-spacing:0em;}.cls-63{letter-spacing:-0.02em;}</style><linearGradient id="Degradado_sin_nombre" x1="132.84" y1="445.76" x2="132.84" y2="427" gradientTransform="translate(0 -292.14)" gradientUnits="userSpaceOnUse"><stop offset="0" stop-color="#0078d4"/><stop offset="0.82" stop-color="#5ea0ef"/></linearGradient><linearGradient id="Degradado_sin_nombre_2" x1="132.84" y1="453" x2="132.84" y2="445.76" gradientTransform="translate(0 -292.14)" gradientUnits="userSpaceOnUse"><stop offset="0.15" stop-color="#ccc"/><stop offset="1" stop-color="#707070"/></linearGradient><linearGradient id="Degradado_sin_nombre_3" x1="173.92" y1="445.76" x2="173.92" y2="427" xlink:href="#Degradado_sin_nombre"/><linearGradient id="Degradado_sin_nombre_4" x1="173.94" y1="453" x2="173.94" y2="445.76" xlink:href="#Degradado_sin_nombre_2"/><linearGradient id="Degradado_sin_nombre_5" x1="300.19" y1="433.76" x2="300.19" y2="423.44" xlink:href="#Degradado_sin_nombre"/><linearGradient id="Degradado_sin_nombre_6" x1="300.24" y1="437.77" x2="300.24" y2="433.77" xlink:href="#Degradado_sin_nombre_2"/><linearGradient id="Degradado_sin_nombre_7" x1="252.5" y1="433.76" x2="252.5" y2="415" xlink:href="#Degradado_sin_nombre"/><linearGradient id="Degradado_sin_nombre_8" x1="252.5" y1="441" x2="252.5" y2="433.76" xlink:href="#Degradado_sin_nombre_2"/><linearGradient id="Degradado_sin_nombre_9" x1="75.68" y1="492.87" x2="78.04" y2="495.24" gradientTransform="translate(2.87 -293.36)" gradientUnits="userSpaceOnUse"><stop offset="0" stop-color="#86d633"/><stop offset="0.24" stop-color="#83d232"/><stop offset="0.5" stop-color="#7cc52f"/><stop offset="0.76" stop-color="#6fb02a"/><stop offset="1" stop-color="#5e9624"/></linearGradient><linearGradient id="Degradado_sin_nombre_10" x1="70.33" y1="492.87" x2="72.69" y2="495.24" xlink:href="#Degradado_sin_nombre_9"/><linearGradient id="Degradado_sin_nombre_11" x1="64.99" y1="492.87" x2="67.35" y2="495.24" xlink:href="#Degradado_sin_nombre_9"/><linearGradient id="Degradado_sin_nombre_12" x1="84.67" y1="357.92" x2="84.67" y2="321.98" gradientTransform="translate(0 -292.14)" gradientUnits="userSpaceOnUse"><stop offset="0" stop-color="#5e9624"/><stop offset="0.02" stop-color="#5f9724"/><stop offset="1" stop-color="#76bc2d"/></linearGradient></defs><title>OJ104903191</title><g id="Target"><rect class="cls-1" width="332.33" height="285.86"/><rect class="cls-2" x="156.33" y="210.86" width="171.42" height="35"/><rect class="cls-2" x="156.33" y="250.86" width="171.42" height="35"/><line class="cls-3" x1="172.02" y1="260.86" x2="171.27" y2="260.86"/><line class="cls-4" x1="169.08" y1="260.86" x2="163.17" y2="260.86"/><line class="cls-3" x1="162.08" y1="260.86" x2="161.33" y2="260.86"/><polygon class="cls-5" points="171.15 257.86 176.33 260.86 171.15 263.85 171.15 257.86"/><path class="cls-1" d="M331.83,46.5v149a5,5,0,0,1-5,5h-270a5,5,0,0,1-5-5V46.5"/><path class="cls-6" d="M331.83,46.5v149a5,5,0,0,1-5,5h-270a5,5,0,0,1-5-5V46.5"/><path class="cls-5" d="M325.67,201h-1v-1h1Zm-3,0h-1v-1h1Zm-3,0h-1v-1h1Zm-3,0h-1v-1h1Zm-3,0h-1v-1h1Zm-3,0h-1v-1h1Zm-3,0h-1v-1h1Zm-3,0h-1v-1h1Zm-3,0h-1v-1h1Zm-3,0h-1v-1h1Zm-3,0h-1v-1h1Zm-3,0h-1v-1h1Zm-3,0h-1v-1h1Zm-3,0h-1v-1h1Zm-3,0h-1v-1h1Zm-3,0h-1v-1h1Zm-3,0h-1v-1h1Zm-3,0h-1v-1h1Zm-3,0h-1v-1h1Zm-3,0h-1v-1h1Zm-3,0h-1v-1h1Zm-3,0h-1v-1h1Zm-3,0h-1v-1h1Zm-3,0h-1v-1h1Zm-3,0h-1v-1h1Zm-3,0h-1v-1h1Zm-3,0h-1v-1h1Zm-3,0h-1v-1h1Zm-3,0h-1v-1h1Zm-3,0h-1v-1h1Zm-3,0h-1v-1h1Zm-3,0h-1v-1h1Zm-3,0h-1v-1h1Zm-3,0h-1v-1h1Zm-3,0h-1v-1h1Zm-3,0h-1v-1h1Zm-3,0h-1v-1h1Zm-3,0h-1v-1h1Zm-3,0h-1v-1h1Zm-3,0h-1v-1h1Zm-3,0h-1v-1h1Zm-3,0h-1v-1h1Zm-3,0h-1v-1h1Zm-3,0h-1v-1h1Zm-3,0h-1v-1h1Zm-3,0h-1v-1h1Zm-3,0h-1v-1h1Zm-3,0h-1v-1h1Zm-3,0h-1v-1h1Zm-3,0h-1v-1h1Zm-3,0h-1v-1h1Zm-3,0h-1v-1h1Zm-3,0h-1v-1h1Zm-3,0h-1v-1h1Zm-3,0h-1v-1h1Zm-3,0h-1v-1h1Zm-3,0h-1v-1h1Zm-3,0h-1v-1h1Zm-3,0h-1v-1h1Zm-3,0h-1v-1h1Zm-3,0h-1v-1h1Zm-3,0h-1v-1h1Zm-3,0h-1v-1h1Zm-3,0h-1v-1h1Zm-3,0h-1v-1h1Zm-3,0h-1v-1h1Zm-3,0h-1v-1h1Zm-3,0h-1v-1h1Zm-3,0h-1v-1h1Zm-3,0h-1v-1h1Zm-3,0h-1v-1h1Zm-3,0h-1v-1h1Zm-3,0h-1v-1h1Zm-3,0h-1v-1h1Zm-3,0h-1v-1h1Zm-3,0h-1v-1h1Zm-3,0h-1v-1h1Zm-3,0h-1v-1h1Zm-3,0h-1v-1h1Zm-33,0h-1v-1h1Zm269.5-.08-.17-1a4.31,4.31,0,0,0,.87-.24l.36.93a5.74,5.74,0,0,1-1.48.31Zm-272.64-.2a4.5,4.5,0,0,1-1-.45l.5-.86a4,4,0,0,0,.82.37Zm275.54-1.27-.69-.72A4.82,4.82,0,0,0,331,198l.82.57a6.26,6.26,0,0,1-1.13.84Zm-278.19-.61a6.1,6.1,0,0,1-.58-.94l.9-.44a4.66,4.66,0,0,0,.47.77Zm279.76-2.24-1-.21a4.41,4.41,0,0,0,.09-.89l1-.06v.06a5.77,5.77,0,0,1-.51,1.1Zm-280.88-.82v-1h1v1Zm281-2.34h-1v-1h1Zm-280-.69h-1v-1h1Zm280-2.32h-1v-1h1Zm-280-.68h-1v-1h1Zm280-2.32h-1v-1h1Zm-280-.69h-1v-1h1Zm280-2.32h-1v-1h1Zm-280-.68h-1v-1h1Zm280-2.32h-1v-1h1Zm-280-.69h-1v-1h1Zm280-2.31h-1v-1h1Zm-280-.69h-1v-1h1Zm280-2.32h-1v-1h1Zm-280-.69h-1v-1h1Zm280-2.31h-1v-1h1Zm-280-.69h-1v-1h1Zm280-2.32h-1v-1h1Zm-280-.69h-1v-1h1Zm280-2.31h-1v-1h1Zm-280-.69h-1v-1h1Zm280-2.32h-1v-1h1Zm-280-.69h-1v-1h1Zm280-2.31h-1v-1h1Zm-280-.69h-1v-1h1Zm280-2.32h-1v-1h1Zm-280-.69h-1v-1h1Zm280-2.31h-1v-1h1Zm-280-.69h-1v-1h1Zm280-2.32h-1v-1h1Zm-280-.69h-1v-1h1Zm280-2.31h-1v-1h1Zm-280-.69h-1v-1h1Zm280-2.32h-1v-1h1Zm-280-.68h-1v-1h1Zm280-2.32h-1v-1h1Zm-280-.69h-1v-1h1Zm280-2.32h-1v-1h1Zm-280-.68h-1v-1h1Zm280-2.32h-1v-1h1Zm-280-.69h-1v-1h1Zm280-2.32h-1v-1h1Zm-280-.68h-1v-1h1Zm280-2.32h-1v-1h1Zm-280-.69h-1v-1h1Zm280-2.32h-1v-1h1Zm-280-.68h-1v-1h1Zm280-2.32h-1v-1h1Zm-280-.69h-1v-1h1Zm280-2.31h-1v-1h1Zm-280-.69h-1v-1h1Zm280-2.32h-1v-1h1Zm-280-.69h-1v-1h1Zm280-2.31h-1v-1h1Zm-280-.69h-1v-1h1Zm280-2.32h-1v-1h1Zm-280-.69h-1v-1h1Zm280-2.31h-1v-1h1Zm-280-.69h-1v-1h1Zm280-2.32h-1v-1h1Zm-280-.69h-1v-1h1Zm280-2.31h-1v-1h1Zm-280-.69h-1v-1h1Zm280-2.32h-1v-1h1Zm-280-.69h-1v-1h1Zm280-2.31h-1v-1h1Zm-280-.69h-1v-1h1Zm280-2.32h-1v-1h1Zm-280-.69h-1v-1h1Zm280-2.31h-1v-1h1Zm-280-.69h-1v-1h1Zm280-2.32h-1v-1h1Zm-280-.68h-1v-1h1Zm280-2.32h-1v-1h1Zm-280-.69h-1v-1h1Zm280-2.32h-1v-1h1Zm-280-.68h-1v-1h1Zm280-2.32h-1v-1h1Zm-280-.69h-1v-1h1Zm280-2.32h-1v-1h1Zm-280-.68h-1v-1h1Zm280-2.32h-1v-1h1Zm-280-.69h-1v-1h1Zm280-2.31h-1v-1h1Zm-280-.69h-1v-1h1Zm280-2.32h-1v-1h1Zm-280-.69h-1v-1h1Zm280-2.31h-1v-1h1Zm-280-.69h-1v-1h1Zm280-2.32h-1v-1h1Zm-280-.69h-1v-1h1Zm280-2.31h-1v-1h1Zm-280-.69h-1v-1h1Zm280-2.32h-1v-1h1Zm-280-.69h-1v-1h1Zm280-2.31h-1v-1l1-.05v1Zm-281-.69h0a5.36,5.36,0,0,1,.1-1.06l1,.19a5.12,5.12,0,0,0-.08.87Zm279.53-2a4,4,0,0,0-.48-.76l.79-.61a5,5,0,0,1,.59.93ZM53.1,49l-.82-.56a6.24,6.24,0,0,1,.7-.84l.7.71A4.82,4.82,0,0,0,53.1,49ZM329,47.58a4,4,0,0,0-.82-.36l.3-.95a5.24,5.24,0,0,1,1,.44ZM55.18,47.31l-.36-.93a6.41,6.41,0,0,1,1.06-.3l.17,1A4.29,4.29,0,0,0,55.18,47.31ZM326.38,47h-1V46h1Zm-3,0h-1V46h1Zm-3,0h-1V46h1Zm-3,0h-1V46h1Zm-3,0h-1V46h1Zm-3,0h-1V46h1Zm-3,0h-1V46h1Zm-3,0h-1V46h1Zm-3,0h-1V46h1Zm-3,0h-1V46h1Zm-3,0h-1V46h1Zm-3,0h-1V46h1Zm-3,0h-1V46h1Zm-3,0h-1V46h1Zm-3,0h-1V46h1Zm-3,0h-1V46h1Zm-3,0h-1V46h1Zm-3,0h-1V46h1Zm-3,0h-1V46h1Zm-3,0h-1V46h1Zm-27,0h-1V46h1Zm-3,0h-1V46h1Zm-3,0h-1V46h1Zm-3,0h-1V46h1Zm-3,0h-1V46h1Zm-3,0h-1V46h1Zm-3,0h-1V46h1Zm-3,0h-1V46h1Zm-3,0h-1V46h1Zm-3,0h-1V46h1Zm-3,0h-1V46h1Zm-3,0h-1V46h1Zm-3,0h-1V46h1Zm-3,0h-1V46h1Zm-3,0h-1V46h1Zm-3,0h-1V46h1Zm-3,0h-1V46h1Zm-3,0h-1V46h1Zm-3,0h-1V46h1Zm-3,0h-1V46h1Zm-3,0h-1V46h1Zm-3,0h-1V46h1Zm-3,0h-1V46h1Zm-3,0h-1V46h1Zm-3,0h-1V46h1Zm-3,0h-1V46h1Zm-3,0h-1V46h1Zm-3,0h-1V46h1Zm-3,0h-1V46h1Zm-3,0h-1V46h1Zm-3,0h-1V46h1Zm-3,0h-1V46h1Zm-3,0h-1V46h1Zm-3,0h-1V46h1Zm-3,0h-1V46h1Zm-3,0h-1V46h1Zm-3,0h-1V46h1Zm-3,0h-1V46h1Zm-3,0h-1V46h1Zm-3,0h-1V46h1Zm-3,0h-1V46h1Zm-3,0h-1V46h1Zm-3,0h-1V46h1Zm-3,0h-1V46h1Zm-3,0h-1V46h1Zm-3,0h-1V46h1Zm-3,0h-1V46h1Zm-3,0h-1V46h1Zm-3,0H97V46h1Zm-3,0H94V46h1Zm-3,0H91V46h1Zm-3,0H88V46h1Zm-3,0H85V46h1Zm-3,0H82V46h1Zm-3,0H79V46h1Zm-3,0H76V46h1Zm-3,0H73V46h1Zm-3,0H70V46h1Zm-3,0H67V46h1Zm-3,0H64V46h1Zm-3,0H61V46h1Zm-3,0H58V46h1Z"/><rect class="cls-1" x="61.33" y="90.86" width="155" height="95"/><rect class="cls-7" x="61.33" y="90.86" width="155" height="95"/><rect class="cls-1" x="66.33" y="110.86" width="145" height="70"/><rect class="cls-8" x="66.33" y="110.86" width="145" height="70"/><rect class="cls-9" x="66.33" y="110.86" width="145" height="70"/><rect class="cls-10" x="118.77" y="134.86" width="28.14" height="18.76" rx="0.94"/><polygon class="cls-11" points="137.53 141.5 137.53 146.96 132.84 149.71 132.84 144.24 137.53 141.5"/><polygon class="cls-12" points="137.53 141.5 132.84 144.25 128.15 141.5 132.84 138.76 137.53 141.5"/><polygon class="cls-13" points="132.84 144.25 132.84 149.71 128.15 146.96 128.15 141.5 132.84 144.25"/><polygon class="cls-12" points="128.15 146.96 132.84 144.24 132.84 149.71 128.15 146.96"/><polygon class="cls-13" points="137.53 146.96 132.84 144.24 132.84 149.71 137.53 146.96"/><path class="cls-14" d="M138.48,159.29c-2.78-.44-2.89-2.44-2.89-5.67h-5.52c0,3.23-.09,5.23-2.88,5.67a1.56,1.56,0,0,0-1.39,1.57h14.07A1.56,1.56,0,0,0,138.48,159.29Z"/><rect class="cls-15" x="159.85" y="134.86" width="28.14" height="18.76" rx="0.94"/><polygon class="cls-11" points="178.61 141.5 178.61 146.96 173.92 149.71 173.92 144.24 178.61 141.5"/><polygon class="cls-12" points="178.61 141.5 173.92 144.25 169.23 141.5 173.92 138.76 178.61 141.5"/><polygon class="cls-13" points="173.92 144.25 173.92 149.71 169.23 146.96 169.23 141.5 173.92 144.25"/><polygon class="cls-12" points="169.23 146.96 173.92 144.24 173.92 149.71 169.23 146.96"/><polygon class="cls-13" points="178.61 146.96 173.92 144.24 173.92 149.71 178.61 146.96"/><path class="cls-16" d="M179.56,159.29c-2.78-.44-2.89-2.44-2.89-5.67h-5.52c0,3.23-.09,5.23-2.87,5.67a1.58,1.58,0,0,0-1.4,1.57H181A1.57,1.57,0,0,0,179.56,159.29Z"/><rect class="cls-1" x="226.33" y="90.86" width="95" height="95"/><rect class="cls-7" x="226.33" y="90.86" width="95" height="95"/><rect class="cls-17" x="281.93" y="119.63" width="15.46" height="10.32" rx="0.52"/><polygon class="cls-11" points="292.24 123.28 292.24 126.3 289.67 127.79 289.67 124.8 292.24 123.28"/><polygon class="cls-12" points="292.24 123.28 289.67 124.8 287.08 123.28 289.67 121.77 292.24 123.28"/><polygon class="cls-13" points="289.67 124.8 289.67 127.79 287.08 126.3 287.08 123.28 289.67 124.8"/><rect class="cls-18" x="288" y="125.55" width="15.46" height="10.32" rx="0.52"/><polygon class="cls-11" points="298.31 129.22 298.31 132.21 295.74 133.73 295.74 130.72 298.31 129.22"/><polygon class="cls-12" points="298.31 129.22 295.74 130.72 293.15 129.22 295.74 127.7 298.31 129.22"/><polygon class="cls-13" points="295.74 130.72 295.74 133.73 293.15 132.21 293.15 129.22 295.74 130.72"/><rect class="cls-19" x="292.46" y="131.3" width="15.46" height="10.32" rx="0.52"/><polygon class="cls-11" points="302.77 134.97 302.77 137.96 300.2 139.48 300.2 136.47 302.77 134.97"/><polygon class="cls-12" points="302.77 134.97 300.2 136.48 297.62 134.97 300.2 133.45 302.77 134.97"/><polygon class="cls-13" points="300.2 136.48 300.2 139.48 297.62 137.96 297.62 134.97 300.2 136.48"/><polygon class="cls-12" points="297.62 137.96 300.2 136.47 300.2 139.48 297.62 137.96"/><polygon class="cls-13" points="302.77 137.96 300.2 136.47 300.2 139.48 302.77 137.96"/><path class="cls-20" d="M303.29,144.75c-1.53-.24-1.53-1.34-1.53-3.05H298.7c0,1.77,0,2.87-1.52,3.05a.91.91,0,0,0-.77.88h7.65A.91.91,0,0,0,303.29,144.75Z"/><rect class="cls-21" x="238.43" y="122.86" width="28.14" height="18.76" rx="0.94"/><polygon class="cls-11" points="257.19 129.5 257.19 134.96 252.5 137.71 252.5 132.24 257.19 129.5"/><polygon class="cls-12" points="257.19 129.5 252.5 132.25 247.81 129.5 252.5 126.76 257.19 129.5"/><polygon class="cls-13" points="252.5 132.25 252.5 137.71 247.81 134.96 247.81 129.5 252.5 132.25"/><polygon class="cls-12" points="247.81 134.96 252.5 132.24 252.5 137.71 247.81 134.96"/><polygon class="cls-13" points="257.19 134.96 252.5 132.24 252.5 137.71 257.19 134.96"/><path class="cls-22" d="M258.14,147.29c-2.78-.44-2.89-2.44-2.89-5.67h-5.52c0,3.23-.09,5.23-2.88,5.67a1.56,1.56,0,0,0-1.39,1.57h14.07A1.56,1.56,0,0,0,258.14,147.29Z"/><line class="cls-3" x1="203.19" y1="91.21" x2="203.19" y2="64.14"/><line class="cls-3" x1="195.67" y1="85.68" x2="195.67" y2="73.98"/><polygon class="cls-5" points="198.66 74.86 195.67 69.68 192.68 74.86 198.66 74.86"/><line class="cls-3" x1="210.72" y1="81.37" x2="210.72" y2="80.62"/><line class="cls-23" x1="210.72" y1="78.19" x2="210.72" y2="71.64"/><line class="cls-3" x1="210.72" y1="70.43" x2="210.72" y2="69.68"/><polygon class="cls-5" points="213.71 80.5 210.72 85.68 207.73 80.5 213.71 80.5"/><line class="cls-3" x1="243.85" y1="91.21" x2="243.85" y2="64.14"/><line class="cls-3" x1="236.33" y1="85.68" x2="236.33" y2="73.98"/><polygon class="cls-5" points="239.32 74.86 236.33 69.68 233.34 74.86 239.32 74.86"/><line class="cls-3" x1="251.38" y1="81.37" x2="251.38" y2="80.62"/><line class="cls-23" x1="251.38" y1="78.19" x2="251.38" y2="71.64"/><line class="cls-3" x1="251.38" y1="70.43" x2="251.38" y2="69.68"/><polygon class="cls-5" points="254.37 80.5 251.38 85.68 248.39 80.5 254.37 80.5"/><line class="cls-24" x1="84.57" y1="110.86" x2="84.57" y2="19.87"/><line class="cls-24" x1="78.2" y1="79.27" x2="78.2" y2="67.58"/><polygon class="cls-25" points="81.2 78.4 78.2 83.58 75.21 78.4 81.2 78.4"/><line class="cls-24" x1="91.31" y1="83.58" x2="91.31" y2="82.83"/><line class="cls-26" x1="91.31" y1="80.4" x2="91.31" y2="73.85"/><line class="cls-24" x1="91.31" y1="72.63" x2="91.31" y2="71.88"/><polygon class="cls-25" points="94.3 72.76 91.31 67.58 88.32 72.76 94.3 72.76"/><line class="cls-3" x1="225.03" y1="38.29" x2="225.03" y2="18.79"/><line class="cls-3" x1="167.34" y1="222.93" x2="178.46" y2="222.93"/><polygon class="cls-5" points="168.21 225.93 163.03 222.93 168.21 219.94 168.21 225.93"/><path class="cls-3" d="M221.15,41,183.41,29.65a4.3,4.3,0,0,1-2.88-3.86v-7"/><path class="cls-3" d="M229.35,41l43.28-11.43a4.1,4.1,0,0,0,2.9-3.76v-7"/><circle class="cls-27" cx="79.53" cy="200.49" r="1.67"/><circle class="cls-28" cx="74.18" cy="200.5" r="1.67"/><circle class="cls-29" cx="68.84" cy="200.5" r="1.67"/><path class="cls-11" d="M70.06,207.2l-1,1a.43.43,0,0,1-.61,0h0l-7.1-7.08a.86.86,0,0,1,0-1.22h0l1-1h0l7.71,7.69a.43.43,0,0,1,0,.61Z"/><path class="cls-30" d="M69,192.86l1,1a.43.43,0,0,1,0,.61h0L62.34,202h0l-1-1a.87.87,0,0,1,0-1.23h0l7-7a.44.44,0,0,1,.61,0Z"/><path class="cls-11" d="M85.9,198.88l1,1a.86.86,0,0,1,0,1.22h0l-7.09,7.08a.44.44,0,0,1-.62,0h0l-1-1a.45.45,0,0,1,0-.61h0l7.7-7.69Z"/><path class="cls-30" d="M86.86,201.06l-1,1h0l-7.58-7.6a.43.43,0,0,1,0-.61h0l1-1a.43.43,0,0,1,.61,0h0l7,7a.87.87,0,0,1,0,1.23h0Z"/><path class="cls-31" d="M69.48,46.35,83.93,31.9a1,1,0,0,1,1.41,0l0,0h0L99.85,46.35a1,1,0,0,1,.05,1.41l-.05.05h0L85.39,62.3a1,1,0,0,1-1.41,0l0,0L69.48,47.83a1,1,0,0,1,0-1.41s0,0,0-.05Z"/><path class="cls-32" d="M88.46,38.48,84.8,34.85a.2.2,0,0,0-.27,0l-3.65,3.63a.17.17,0,0,0,.14.31h2.13a.2.2,0,0,1,.19.19h0v3.45a.21.21,0,0,0,.19.19H85.8a.2.2,0,0,0,.19-.19h0V39a.21.21,0,0,1,.19-.19h2.14a.17.17,0,0,0,.21-.12h0A.19.19,0,0,0,88.46,38.48Z"/><path class="cls-32" d="M76.06,43l-3.62,3.66a.19.19,0,0,0,0,.26l3.62,3.64a.19.19,0,0,0,.27,0h0a.17.17,0,0,0,0-.14V48.28a.2.2,0,0,1,.19-.19H80a.18.18,0,0,0,.17-.17V45.63a.18.18,0,0,0-.06-.24H76.63a.17.17,0,0,1-.19-.15h0V43.11a.21.21,0,0,0-.12-.25.19.19,0,0,0-.25.12Z"/><path class="cls-32" d="M93.41,50.54l3.67-3.65a.19.19,0,0,0,0-.26L93.41,43a.18.18,0,0,0-.25,0h0a.22.22,0,0,0-.05.11v2.16a.18.18,0,0,1-.17.17H89.47a.18.18,0,0,0-.17.17V47.9a.17.17,0,0,0,.15.19h3.47a.19.19,0,0,1,.18.19v2.14a.21.21,0,0,0,.22.16Z"/><path class="cls-1" d="M89.47,47.09a4.81,4.81,0,1,0-6.09,4.6v1.64a2.94,2.94,0,1,0,2.7,0V51.6A4.76,4.76,0,0,0,89.47,47.09Z"/><circle id="e99c3387-15c3-4f28-bd4b-cb209b430e06" class="cls-33" cx="84.68" cy="47.08" r="2.79"/><rect class="cls-1" x="163" width="35" height="20.86"/><rect class="cls-7" x="163" width="35" height="20.86"/><rect class="cls-1" x="66.33" width="35" height="20.86"/><rect class="cls-34" x="66.33" width="35" height="20.86"/><rect class="cls-1" x="208.03" width="35" height="20.86"/><rect class="cls-7" x="208.03" width="35" height="20.86"/><rect class="cls-1" x="253.03" width="45" height="20.86"/><rect class="cls-7" x="253.03" width="45" height="20.86"/><line class="cls-35" x1="127.18" y1="79.27" x2="127.18" y2="67.58"/><polygon class="cls-36" points="130.17 78.4 127.18 83.58 124.19 78.4 130.17 78.4"/><line class="cls-35" x1="140.93" y1="83.58" x2="140.93" y2="82.83"/><line class="cls-37" x1="140.93" y1="80.4" x2="140.93" y2="73.85"/><line class="cls-35" x1="140.93" y1="72.63" x2="140.93" y2="71.88"/><polygon class="cls-36" points="143.93 72.76 140.93 67.58 137.94 72.76 143.93 72.76"/><line class="cls-35" x1="134.06" y1="135" x2="134.06" y2="19.86"/><rect class="cls-1" x="122.83" width="23.5" height="20.86"/><rect class="cls-38" x="122.83" width="23.5" height="20.86"/><rect class="cls-1" x="190.03" y="53.97" width="70" height="10"/><rect class="cls-39" x="190.03" y="53.97" width="70" height="10"/><g id="ad94e297-0e86-4eaf-aac0-d146ee9aea65"><path class="cls-40" d="M221,54.32l-4.68-4.84a2.29,2.29,0,0,1-.78.14,2.43,2.43,0,1,1,2.24-3.33h4.62v1.62h-4.55a3.68,3.68,0,0,1-.26.57l4.33,4.46,2.34-3.56V38.19h-3.15l4-4,3.94,4H225.9v8.74l5.92-9-6-6a1,1,0,0,0-1.41-.06l-.06.06h0l-14.5,14.43a1,1,0,0,0,0,1.41l0,0h0l14.47,14.47-5.17-5.16Z"/><path class="cls-41" d="M224.22,54.53V49.36l-2.34,3.58,1.72,1.85A1.61,1.61,0,0,1,224.22,54.53Z"/><path class="cls-41" d="M240.24,46.36l-8.48-8.48-5.92,9v7.61a1.86,1.86,0,0,1,.53.3l6.22-6.29a2.91,2.91,0,0,1-.31-.64h-4.67V46.29h4.74a2.42,2.42,0,1,1,2.24,3.33,2.54,2.54,0,0,1-.67-.11l-6.62,6.67a2.6,2.6,0,0,1,.11.62,2.43,2.43,0,0,1-4.86.19h0a2.3,2.3,0,0,1,.14-.9L221,54.37l-1.84,2.76,5.17,5.17a1,1,0,0,0,1.41,0l0,0,14.48-14.48a1,1,0,0,0,.05-1.41s0,0-.05,0Z"/><path class="cls-42" d="M232.35,46.29h-4.74v1.62h4.67a2.53,2.53,0,0,1-.12-.72A2.3,2.3,0,0,1,232.35,46.29Z"/><path class="cls-42" d="M217.81,47.91h4.55V46.29h-4.62a2.3,2.3,0,0,1,.19.9A2.22,2.22,0,0,1,217.81,47.91Z"/><path class="cls-42" d="M227.3,56.18l6.62-6.67a2.43,2.43,0,0,1-1.33-1l-6.22,6.29A2.21,2.21,0,0,1,227.3,56.18Z"/><path class="cls-42" d="M223.65,54.79l-1.72-1.85-4.38-4.46a2.46,2.46,0,0,1-1.27,1L221,54.32,222.69,56A2.3,2.3,0,0,1,223.65,54.79Z"/><path class="cls-1" d="M229,38.19l-3.92-4-4,4h3.15V54.53a1.35,1.35,0,0,0-.57.26,2.28,2.28,0,0,0-1,1.3,2.41,2.41,0,0,0,4.57,1.54c0-.05,0-.09,0-.14a2.31,2.31,0,0,0,.11-.69,2.6,2.6,0,0,0-.11-.62,2.21,2.21,0,0,0-.93-1.34,1.86,1.86,0,0,0-.53-.3V38.19Zm-3.92,20a1.34,1.34,0,1,1,1.34-1.34h0a1.34,1.34,0,0,1-1.37,1.29Z"/><path class="cls-1" d="M217.55,48.48a3.68,3.68,0,0,0,.26-.57,2.22,2.22,0,0,0,.12-.72,2.3,2.3,0,0,0-.19-.9,2.41,2.41,0,1,0-2.24,3.33,2.29,2.29,0,0,0,.78-.14A2.46,2.46,0,0,0,217.55,48.48Zm-2.05,0a1.35,1.35,0,1,1,1.34-1.36v0h0a1.33,1.33,0,0,1-1.27,1.39h-.07Z"/><path class="cls-1" d="M233.92,49.51a2.54,2.54,0,0,0,.67.11,2.43,2.43,0,1,0-2.24-3.33,2.3,2.3,0,0,0-.19.9,2.53,2.53,0,0,0,.12.72,2.91,2.91,0,0,0,.31.64A2.48,2.48,0,0,0,233.92,49.51Zm.67-3.65a1.35,1.35,0,1,1-.3,0Z"/><path class="cls-43" d="M225.05,55.46a1.34,1.34,0,1,0,1.34,1.34h0A1.34,1.34,0,0,0,225.05,55.46Z"/><circle class="cls-43" cx="215.5" cy="47.19" r="1.34"/><path class="cls-43" d="M234.59,48.53a1.35,1.35,0,1,0-1.34-1.36v0h0A1.34,1.34,0,0,0,234.59,48.53Z"/></g></g><g id="Text"><text class="cls-44" transform="translate(122.16 173.34) scale(0.99 1)">VM</text><text class="cls-44" transform="translate(167.16 173.34) scale(0.99 1)">VM</text><text class="cls-44" transform="translate(243.27 165.76) scale(0.99 1)">VM</text><text class="cls-44" transform="translate(279.41 165.95) scale(0.99 1)">VMSS</text><text class="cls-45" transform="translate(258.59 14.08)">Prefijo</text><text class="cls-45" transform="translate(217.23 14.08)">PIP</text><text class="cls-45" transform="translate(172.26 14.08)">PIP</text><text class="cls-45" transform="translate(126.72 14.08)">PIP</text><text class="cls-46" transform="translate(112.18 14.08)">IL</text><text class="cls-45" transform="translate(75.57 14.08)">PIP</text><text class="cls-47" transform="translate(7.37 28.54)">Equilibrador<tspan x="8.54" y="13.2">de carga</tspan></text><text class="cls-45" transform="translate(244.9 49.72)">N<tspan class="cls-48" x="8.98" y="0">A</tspan><tspan x="15.86" y="0">T</tspan></text><text class="cls-49" transform="translate(151.62 106.02) scale(0.99 1)">Subred A</text><text class="cls-50" transform="translate(250.74 105.8)">Subred B</text><text class="cls-51" transform="translate(60.92 222.51) scale(0.99 1)"><tspan class="cls-52">R</tspan><tspan x="6.94" y="0">ed</tspan><tspan x="0" y="13.2">virtual</tspan></text><text class="cls-53" transform="translate(185.35 224.83)">Di<tspan class="cls-54" x="11.42" y="0">r</tspan><tspan x="15.47" y="0">e</tspan><tspan class="cls-55" x="21.82" y="0">c</tspan><tspan class="cls-56" x="27.44" y="0">ción de flujo pa</tspan><tspan class="cls-57" x="108.8" y="0">r</tspan><tspan class="cls-58" x="112.91" y="0">a el </tspan><tspan x="0" y="13.2">o</tspan><tspan class="cls-59" x="6.95" y="13.2">r</tspan><tspan class="cls-56" x="11.17" y="13.2">igen (&quot;solicitud&quot;)</tspan></text><text class="cls-53" transform="translate(185.26 265.69)">Di<tspan class="cls-54" x="11.42" y="0">r</tspan><tspan x="15.47" y="0">e</tspan><tspan class="cls-55" x="21.82" y="0">c</tspan><tspan class="cls-56" x="27.44" y="0">ción del flujo pa</tspan><tspan class="cls-60" x="111.83" y="0">r</tspan><tspan class="cls-56" x="115.95" y="0">a la </tspan><tspan x="0" y="13.2">de</tspan><tspan class="cls-54" x="13.49" y="13.2">v</tspan><tspan class="cls-58" x="19.46" y="13.2">olución (&quot;</tspan><tspan class="cls-61" x="69.77" y="13.2">r</tspan><tspan class="cls-56" x="73.82" y="13.2">espuest</tspan><tspan class="cls-62" x="115" y="13.2">a</tspan><tspan class="cls-56" x="120.97" y="13.2">&quot;)</tspan></text><text class="cls-63" transform="translate(71.03 125.83) scale(0.99 1)">Grupo de LB</text></g></svg>