<svg xmlns="http://www.w3.org/2000/svg" xmlns:xlink="http://www.w3.org/1999/xlink" viewBox="0 0 299.16 285.86"><defs><style>.cls-1{fill:#fff;}.cls-2{fill:#ccc;fill-opacity:0.3;}.cls-22,.cls-23,.cls-25,.cls-3,.cls-4,.cls-8{fill:none;stroke-miterlimit:10;}.cls-22,.cls-3,.cls-4{stroke:#3c3c41;}.cls-4{stroke-dasharray:1.31 2.19;}.cls-5,.cls-6,.cls-7{fill:#3c3c41;}.cls-6{opacity:0.2;}.cls-33,.cls-34,.cls-6,.cls-7,.cls-8{isolation:isolate;}.cls-7{opacity:0.02;}.cls-23,.cls-25,.cls-8{stroke:#365615;}.cls-8{stroke-width:0.5px;opacity:0.5;}.cls-9{fill:url(#Degradado_sin_nombre);}.cls-10{fill:#50e6ff;}.cls-11{fill:#c3f1ff;}.cls-12{fill:#9cebff;}.cls-13{fill:url(#Degradado_sin_nombre_2);}.cls-14{fill:url(#Degradado_sin_nombre_3);}.cls-15{fill:url(#Degradado_sin_nombre_4);}.cls-16{fill:#005ba1;}.cls-17{fill:#0078d4;}.cls-18{fill:url(#Degradado_sin_nombre_5);}.cls-19{fill:url(#Degradado_sin_nombre_6);}.cls-20{fill:url(#Degradado_sin_nombre_7);}.cls-21{fill:url(#Degradado_sin_nombre_8);}.cls-22,.cls-25{stroke-dasharray:1.46 2.43;}.cls-24{fill:#365615;}.cls-26{fill:url(#Degradado_sin_nombre_9);}.cls-27{fill:url(#Degradado_sin_nombre_10);}.cls-28{fill:url(#Degradado_sin_nombre_11);}.cls-29{fill:#1490df;}.cls-30{fill:url(#Degradado_sin_nombre_12);}.cls-31{fill:#b4ec36;}.cls-32{fill:#5ea0ef;}.cls-33{fill:#9bf00b;}.cls-33,.cls-34{opacity:0.4;}.cls-34,.cls-35{fill:#6ebcdb;}.cls-36{fill:#5db4d7;}.cls-37{fill:#e6e6e6;}.cls-38{fill:#86d633;}.cls-39,.cls-45{font-size:12.19px;}.cls-39,.cls-40,.cls-41,.cls-43,.cls-44,.cls-45,.cls-47,.cls-57{fill:#1e1e1e;}.cls-39,.cls-40,.cls-41,.cls-43,.cls-44,.cls-45,.cls-57{font-family:SegoeUI, Segoe UI;}.cls-39{letter-spacing:0em;}.cls-40{font-size:12px;}.cls-41{font-size:11px;}.cls-42{letter-spacing:-0.07em;}.cls-43,.cls-57{font-size:12.44px;}.cls-43{letter-spacing:0em;}.cls-44{font-size:11.97px;letter-spacing:0em;}.cls-46{letter-spacing:-0.03em;}.cls-47{font-size:12.5px;font-family:MyriadPro-Regular, Myriad Pro;letter-spacing:0.01em;}.cls-48{letter-spacing:0em;}.cls-49{letter-spacing:0em;}.cls-50{letter-spacing:0.01em;}.cls-51{letter-spacing:0em;}.cls-52{letter-spacing:0.01em;}.cls-53{letter-spacing:0.01em;}.cls-54{letter-spacing:0em;}.cls-55{letter-spacing:0em;}.cls-56{letter-spacing:0em;}.cls-57{letter-spacing:0em;}</style><linearGradient id="Degradado_sin_nombre" x1="99.67" y1="476.24" x2="99.67" y2="457.48" gradientTransform="translate(0 -322.62)" gradientUnits="userSpaceOnUse"><stop offset="0" stop-color="#0078d4"/><stop offset="0.82" stop-color="#5ea0ef"/></linearGradient><linearGradient id="Degradado_sin_nombre_2" x1="99.67" y1="483.48" x2="99.67" y2="476.24" gradientTransform="translate(0 -322.62)" gradientUnits="userSpaceOnUse"><stop offset="0.15" stop-color="#ccc"/><stop offset="1" stop-color="#707070"/></linearGradient><linearGradient id="Degradado_sin_nombre_3" x1="140.38" y1="476.24" x2="140.38" y2="457.48" xlink:href="#Degradado_sin_nombre"/><linearGradient id="Degradado_sin_nombre_4" x1="140.36" y1="483.48" x2="140.36" y2="476.24" xlink:href="#Degradado_sin_nombre_2"/><linearGradient id="Degradado_sin_nombre_5" x1="267.03" y1="464.26" x2="267.03" y2="453.92" xlink:href="#Degradado_sin_nombre"/><linearGradient id="Degradado_sin_nombre_6" x1="267.07" y1="468.25" x2="267.07" y2="464.26" xlink:href="#Degradado_sin_nombre_2"/><linearGradient id="Degradado_sin_nombre_7" x1="219.33" y1="464.24" x2="219.33" y2="445.48" xlink:href="#Degradado_sin_nombre"/><linearGradient id="Degradado_sin_nombre_8" x1="219.35" y1="471.48" x2="219.35" y2="464.24" xlink:href="#Degradado_sin_nombre_2"/><linearGradient id="Degradado_sin_nombre_9" x1="71.05" y1="523.53" x2="73.42" y2="525.9" gradientTransform="translate(2.85 -323.95)" gradientUnits="userSpaceOnUse"><stop offset="0" stop-color="#86d633"/><stop offset="0.24" stop-color="#83d232"/><stop offset="0.5" stop-color="#7cc52f"/><stop offset="0.76" stop-color="#6fb02a"/><stop offset="1" stop-color="#5e9624"/></linearGradient><linearGradient id="Degradado_sin_nombre_10" x1="65.71" y1="523.53" x2="68.06" y2="525.9" xlink:href="#Degradado_sin_nombre_9"/><linearGradient id="Degradado_sin_nombre_11" x1="60.36" y1="523.53" x2="62.72" y2="525.9" xlink:href="#Degradado_sin_nombre_9"/><linearGradient id="Degradado_sin_nombre_12" x1="86.49" y1="388.4" x2="86.49" y2="352.46" gradientTransform="translate(0 -322.62)" gradientUnits="userSpaceOnUse"><stop offset="0" stop-color="#5e9624"/><stop offset="0.02" stop-color="#5f9724"/><stop offset="1" stop-color="#76bc2d"/></linearGradient></defs><title>OJ104903209</title><g id="Target"><g id="Shapes"><rect class="cls-1" width="299.16" height="285.86"/><rect class="cls-2" x="120.5" y="210.86" width="177.66" height="35"/><rect class="cls-2" x="120.5" y="250.86" width="177.66" height="35"/><line class="cls-3" x1="138.86" y1="260.86" x2="138.11" y2="260.86"/><line class="cls-4" x1="135.92" y1="260.86" x2="130.01" y2="260.86"/><line class="cls-3" x1="128.91" y1="260.86" x2="128.16" y2="260.86"/><polygon class="cls-5" points="137.98 257.86 143.16 260.86 137.98 263.85 137.98 257.86"/><path class="cls-5" d="M292.5,200.86h-1v-1h1Zm-3,0h-1v-1h1Zm-3,0h-1v-1h1Zm-3,0h-1v-1h1Zm-3,0h-1v-1h1Zm-3,0h-1v-1h1Zm-3,0h-1v-1h1Zm-3,0h-1v-1h1Zm-3,0h-1v-1h1Zm-3,0h-1v-1h1Zm-3,0h-1v-1h1Zm-3,0h-1v-1h1Zm-3,0h-1v-1h1Zm-3,0h-1v-1h1Zm-3,0h-1v-1h1Zm-3,0h-1v-1h1Zm-3,0h-1v-1h1Zm-3,0h-1v-1h1Zm-3,0h-1v-1h1Zm-3,0h-1v-1h1Zm-3,0h-1v-1h1Zm-3,0h-1v-1h1Zm-3,0h-1v-1h1Zm-3,0h-1v-1h1Zm-3,0h-1v-1h1Zm-3,0h-1v-1h1Zm-3,0h-1v-1h1Zm-3,0h-1v-1h1Zm-3,0h-1v-1h1Zm-3,0h-1v-1h1Zm-3,0h-1v-1h1Zm-3,0h-1v-1h1Zm-3,0h-1v-1h1Zm-3,0h-1v-1h1Zm-3,0h-1v-1h1Zm-3,0h-1v-1h1Zm-3,0h-1v-1h1Zm-3,0h-1v-1h1Zm-3,0h-1v-1h1Zm-3,0h-1v-1h1Zm-3,0h-1v-1h1Zm-3,0h-1v-1h1Zm-3,0h-1v-1h1Zm-3,0h-1v-1h1Zm-3,0h-1v-1h1Zm-3,0h-1v-1h1Zm-3,0h-1v-1h1Zm-3,0h-1v-1h1Zm-3,0h-1v-1h1Zm-3,0h-1v-1h1Zm-3,0h-1v-1h1Zm-3,0h-1v-1h1Zm-3,0h-1v-1h1Zm-3,0h-1v-1h1Zm-3,0h-1v-1h1Zm-3,0h-1v-1h1Zm-3,0h-1v-1h1Zm-3,0h-1v-1h1Zm-3,0h-1v-1h1Zm-3,0h-1v-1h1Zm-3,0h-1v-1h1Zm-3,0h-1v-1h1Zm-3,0h-1v-1h1Zm-3,0h-1v-1h1Zm-3,0h-1v-1h1Zm-3,0h-1v-1h1Zm-3,0h-1v-1h1Zm-3,0h-1v-1h1Zm-3,0h-1v-1h1Zm-3,0h-1v-1h1Zm-30,0h-1v-1h1Zm239.48-.08-.16-1a4.4,4.4,0,0,0,.86-.24l.37.93a4.94,4.94,0,0,1-1.42.31ZM52,200.59a6,6,0,0,1-1-.45l.49-.87a4.09,4.09,0,0,0,.83.36Zm245.52-1.29-.7-.72a5.35,5.35,0,0,0,.58-.68l.83.56a6.54,6.54,0,0,1-.74.84Zm-248.18-.59a5.06,5.06,0,0,1-.58-.94l.89-.44a5.41,5.41,0,0,0,.48.76Zm249.74-2.26-1-.2a4.41,4.41,0,0,0,.09-.89l1-.06v.06a5,5,0,0,1-.12,1.09Zm-250.88-.8v-1h1v1Zm251-2.36h-1v-1h1Zm-250-.67h-1v-1h1Zm250-2.33h-1v-1h1Zm-250-.67h-1v-1h1Zm250-2.34h-1v-1h1Zm-250-.67h-1v-1h1Zm250-2.33h-1v-1h1Zm-250-.67h-1v-1h1Zm250-2.34h-1v-1h1Zm-250-.67h-1v-1h1Zm250-2.33h-1v-1h1Zm-250-.67h-1v-1h1Zm250-2.34h-1v-1h1Zm-250-.67h-1v-1h1Zm250-2.33h-1v-1h1Zm-250-.67h-1v-1h1Zm250-2.34h-1v-1h1Zm-250-.67h-1v-1h1Zm250-2.33h-1v-1h1Zm-250-.67h-1v-1h1Zm250-2.34h-1v-1h1Zm-250-.67h-1v-1h1Zm250-2.33h-1v-1h1Zm-250-.67h-1v-1h1Zm250-2.34h-1v-1h1Zm-250-.67h-1v-1h1Zm250-2.33h-1v-1h1Zm-250-.67h-1v-1h1Zm250-2.34h-1v-1h1Zm-250-.67h-1v-1h1Zm250-2.33h-1v-1h1Zm-250-.67h-1v-1h1Zm250-2.34h-1v-1h1Zm-250-.67h-1v-1h1Zm250-2.33h-1v-1h1Zm-250-.67h-1v-1h1Zm250-2.34h-1v-1h1Zm-250-.67h-1v-1h1Zm250-2.33h-1v-1h1Zm-250-.67h-1v-1h1Zm250-2.34h-1v-1h1Zm-250-.67h-1v-1h1Zm250-2.33h-1v-1h1Zm-250-.67h-1v-1h1Zm250-2.34h-1v-1h1Zm-250-.67h-1v-1h1Zm250-2.33h-1v-1h1Zm-250-.67h-1v-1h1Zm250-2.34h-1v-1h1Zm-250-.67h-1v-1h1Zm250-2.33h-1v-1h1Zm-250-.67h-1v-1h1Zm250-2.34h-1v-1h1Zm-250-.67h-1v-1h1Zm250-2.33h-1v-1h1Zm-250-.67h-1v-1h1Zm250-2.34h-1v-1h1Zm-250-.67h-1v-1h1Zm250-2.33h-1v-1h1Zm-250-.67h-1v-1h1Zm250-2.34h-1v-1h1Zm-250-.67h-1v-1h1Zm250-2.33h-1v-1h1Zm-250-.67h-1v-1h1Zm250-2.34h-1v-1h1Zm-250-.67h-1v-1h1Zm250-2.33h-1v-1h1Zm-250-.67h-1v-1h1Zm250-2.34h-1v-1h1Zm-250-.67h-1v-1h1Zm250-2.33h-1v-1h1Zm-250-.67h-1v-1h1Zm250-2.34h-1v-1h1Zm-250-.67h-1v-1h1Zm250-2.33h-1v-1h1Zm-250-.68h-1v-1h1Zm250-2.33h-1v-1h1Zm-250-.67h-1v-1h1Zm250-2.33h-1v-1h1Zm-250-.67h-1v-1h1Zm250-2.34h-1v-1h1Zm-250-.67h-1v-1h1Zm250-2.33h-1v-1h1Zm-250-.68h-1v-1h1Zm250-2.33h-1v-1h1Zm-250-.67h-1v-1h1Zm250-2.33h-1v-1h1Zm-250-.68h-1v-1h1Zm250-2.33h-1v-1h1Zm-250-.67h-1v-1h1Zm250-2.33h-1v-1h1Zm-250-.68h-1v-1h1Zm250-2.33h-1v-1h1Zm-250-.67h-1v-1h1Zm250-2.34h-1v-1l1-.06v1.06Zm-251-.67h0a5.47,5.47,0,0,1,.11-1.07l1,.2a4.28,4.28,0,0,0-.09.87Zm249.53-2a3.75,3.75,0,0,0-.48-.76L298,48a5.62,5.62,0,0,1,.59.93ZM49.94,48.84l-.83-.57a6.31,6.31,0,0,1,.71-.84l.7.72A4.24,4.24,0,0,0,49.94,48.84Zm245.91-1.41a4,4,0,0,0-.82-.36l.3-1a5.2,5.2,0,0,1,1,.43ZM52,47.17l-.37-.93a4.92,4.92,0,0,1,1.06-.3l.18,1A4.29,4.29,0,0,0,52,47.17Zm241.18-.31h-1v-1h1Zm-3,0h-1v-1h1Zm-3,0h-1v-1h1Zm-3,0h-1v-1h1Zm-3,0h-1v-1h1Zm-3,0h-1v-1h1Zm-3,0h-1v-1h1Zm-3,0h-1v-1h1Zm-3,0h-1v-1h1Zm-3,0h-1v-1h1Zm-3,0h-1v-1h1Zm-3,0h-1v-1h1Zm-3,0h-1v-1h1Zm-3,0h-1v-1h1Zm-3,0h-1v-1h1Zm-3,0h-1v-1h1Zm-3,0h-1v-1h1Zm-3,0h-1v-1h1Zm-3,0h-1v-1h1Zm-3,0h-1v-1h1Zm-27,0h-1v-1h1Zm-3,0h-1v-1h1Zm-3,0h-1v-1h1Zm-3,0h-1v-1h1Zm-3,0h-1v-1h1Zm-3,0h-1v-1h1Zm-3,0h-1v-1h1Zm-3,0h-1v-1h1Zm-3,0h-1v-1h1Zm-3,0h-1v-1h1Zm-3,0h-1v-1h1Zm-3,0h-1v-1h1Zm-3,0h-1v-1h1Zm-3,0h-1v-1h1Zm-3,0h-1v-1h1Zm-3,0h-1v-1h1Zm-3,0h-1v-1h1Zm-3,0h-1v-1h1Zm-3,0h-1v-1h1Zm-3,0h-1v-1h1Zm-3,0h-1v-1h1Zm-3,0h-1v-1h1Zm-3,0h-1v-1h1Zm-3,0h-1v-1h1Zm-3,0h-1v-1h1Zm-3,0h-1v-1h1Zm-3,0h-1v-1h1Zm-3,0h-1v-1h1Zm-3,0h-1v-1h1Zm-3,0h-1v-1h1Zm-3,0h-1v-1h1Zm-3,0h-1v-1h1Zm-3,0h-1v-1h1Zm-3,0h-1v-1h1Zm-3,0h-1v-1h1Zm-3,0h-1v-1h1Zm-3,0h-1v-1h1Zm-3,0h-1v-1h1Zm-3,0h-1v-1h1Zm-3,0h-1v-1h1Zm-3,0h-1v-1h1Zm-3,0h-1v-1h1Zm-3,0h-1v-1h1Zm-3,0h-1v-1h1Zm-3,0h-1v-1h1Zm-3,0h-1v-1h1Zm-3,0h-1v-1h1Zm-3,0h-1v-1h1Zm-3,0h-1v-1h1Zm-3,0h-1v-1h1Zm-3,0h-1v-1h1Zm-3,0h-1v-1h1Z"/><rect class="cls-1" x="58.16" y="90.86" width="125" height="95"/><rect class="cls-6" x="58.16" y="90.86" width="125" height="95"/><rect class="cls-1" x="63.16" y="110.86" width="115" height="70"/><rect class="cls-7" x="63.16" y="110.86" width="115" height="70"/><rect class="cls-8" x="63.16" y="110.86" width="115" height="70"/><rect class="cls-9" x="85.6" y="134.86" width="28.14" height="18.76" rx="0.94"/><polygon class="cls-10" points="104.36 141.5 104.36 146.96 99.67 149.71 99.67 144.24 104.36 141.5"/><polygon class="cls-11" points="104.36 141.5 99.67 144.25 94.98 141.5 99.67 138.76 104.36 141.5"/><polygon class="cls-12" points="99.67 144.25 99.67 149.71 94.98 146.96 94.98 141.5 99.67 144.25"/><polygon class="cls-11" points="94.98 146.96 99.67 144.24 99.67 149.71 94.98 146.96"/><polygon class="cls-12" points="104.36 146.96 99.67 144.24 99.67 149.71 104.36 146.96"/><path class="cls-13" d="M105.32,159.29c-2.79-.44-2.89-2.44-2.89-5.67H96.91c0,3.23-.1,5.23-2.88,5.67a1.56,1.56,0,0,0-1.39,1.57h14.07A1.56,1.56,0,0,0,105.32,159.29Z"/><rect class="cls-14" x="126.31" y="134.86" width="28.14" height="18.76" rx="0.94"/><polygon class="cls-10" points="145.07 141.5 145.07 146.96 140.38 149.71 140.38 144.24 145.07 141.5"/><polygon class="cls-11" points="145.07 141.5 140.38 144.25 135.69 141.5 140.38 138.76 145.07 141.5"/><polygon class="cls-12" points="140.38 144.25 140.38 149.71 135.69 146.96 135.69 141.5 140.38 144.25"/><polygon class="cls-11" points="135.69 146.96 140.38 144.24 140.38 149.71 135.69 146.96"/><polygon class="cls-12" points="145.07 146.96 140.38 144.24 140.38 149.71 145.07 146.96"/><path class="cls-15" d="M146,159.29c-2.78-.44-2.89-2.44-2.89-5.67h-5.52c0,3.23-.09,5.23-2.88,5.67a1.56,1.56,0,0,0-1.39,1.57h14.07A1.56,1.56,0,0,0,146,159.29Z"/><rect class="cls-1" x="193.16" y="90.86" width="95" height="95"/><rect class="cls-6" x="193.16" y="90.86" width="95" height="95"/><rect class="cls-16" x="248.76" y="119.63" width="15.46" height="10.32" rx="0.52"/><polygon class="cls-10" points="259.07 123.28 259.07 126.3 256.5 127.79 256.5 124.8 259.07 123.28"/><polygon class="cls-11" points="259.07 123.28 256.5 124.8 253.92 123.28 256.5 121.77 259.07 123.28"/><polygon class="cls-12" points="256.5 124.8 256.5 127.79 253.92 126.3 253.92 123.28 256.5 124.8"/><rect class="cls-17" x="254.83" y="125.55" width="15.46" height="10.32" rx="0.52"/><polygon class="cls-10" points="265.14 129.22 265.14 132.21 262.57 133.73 262.57 130.72 265.14 129.22"/><polygon class="cls-11" points="265.14 129.22 262.57 130.72 259.99 129.22 262.57 127.7 265.14 129.22"/><polygon class="cls-12" points="262.57 130.72 262.57 133.73 259.99 132.21 259.99 129.22 262.57 130.72"/><rect class="cls-18" x="259.3" y="131.3" width="15.46" height="10.32" rx="0.52"/><polygon class="cls-10" points="269.61 134.97 269.61 137.96 267.04 139.48 267.04 136.47 269.61 134.97"/><polygon class="cls-11" points="269.61 134.97 267.04 136.48 264.45 134.97 267.04 133.45 269.61 134.97"/><polygon class="cls-12" points="267.04 136.48 267.04 139.48 264.45 137.96 264.45 134.97 267.04 136.48"/><polygon class="cls-11" points="264.45 137.96 267.04 136.47 267.04 139.48 264.45 137.96"/><polygon class="cls-12" points="269.61 137.96 267.04 136.47 267.04 139.48 269.61 137.96"/><path class="cls-19" d="M270.13,144.75c-1.53-.24-1.53-1.34-1.53-3.05h-3.06c0,1.77,0,2.87-1.53,3.05a.91.91,0,0,0-.76.88h7.64A.91.91,0,0,0,270.13,144.75Z"/><rect class="cls-20" x="205.26" y="122.86" width="28.14" height="18.76" rx="0.94"/><polygon class="cls-10" points="224.02 129.5 224.02 134.96 219.33 137.71 219.33 132.24 224.02 129.5"/><polygon class="cls-11" points="224.02 129.5 219.33 132.25 214.64 129.5 219.33 126.76 224.02 129.5"/><polygon class="cls-12" points="219.33 132.25 219.33 137.71 214.64 134.96 214.64 129.5 219.33 132.25"/><polygon class="cls-11" points="214.64 134.96 219.33 132.24 219.33 137.71 214.64 134.96"/><polygon class="cls-12" points="224.02 134.96 219.33 132.24 219.33 137.71 224.02 134.96"/><path class="cls-21" d="M225,147.29c-2.78-.44-2.89-2.44-2.89-5.67h-5.52c0,3.23-.1,5.23-2.88,5.67a1.56,1.56,0,0,0-1.39,1.57h14.07A1.56,1.56,0,0,0,225,147.29Z"/><line class="cls-3" x1="170.03" y1="91.21" x2="170.03" y2="64.14"/><line class="cls-3" x1="162.5" y1="85.68" x2="162.5" y2="73.98"/><polygon class="cls-5" points="165.5 74.86 162.5 69.68 159.51 74.86 165.5 74.86"/><line class="cls-3" x1="177.55" y1="81.37" x2="177.55" y2="80.62"/><line class="cls-22" x1="177.55" y1="78.19" x2="177.55" y2="71.64"/><line class="cls-3" x1="177.55" y1="70.43" x2="177.55" y2="69.68"/><polygon class="cls-5" points="180.55 80.5 177.55 85.68 174.56 80.5 180.55 80.5"/><line class="cls-3" x1="210.69" y1="91.21" x2="210.69" y2="64.14"/><line class="cls-3" x1="203.16" y1="85.68" x2="203.16" y2="73.98"/><polygon class="cls-5" points="206.16 74.86 203.16 69.68 200.17 74.86 206.16 74.86"/><line class="cls-3" x1="218.21" y1="81.37" x2="218.21" y2="80.62"/><line class="cls-22" x1="218.21" y1="78.19" x2="218.21" y2="71.64"/><line class="cls-3" x1="218.21" y1="70.43" x2="218.21" y2="69.68"/><polygon class="cls-5" points="221.21 80.5 218.21 85.68 215.22 80.5 221.21 80.5"/><line class="cls-23" x1="86.41" y1="110.86" x2="86.41" y2="19.87"/><line class="cls-23" x1="80.04" y1="82.55" x2="80.04" y2="70.86"/><polygon class="cls-24" points="83.03 81.67 80.04 86.86 77.05 81.67 83.03 81.67"/><line class="cls-23" x1="93.15" y1="86.86" x2="93.15" y2="86.11"/><line class="cls-25" x1="93.15" y1="83.68" x2="93.15" y2="77.12"/><line class="cls-23" x1="93.15" y1="75.91" x2="93.15" y2="75.16"/><polygon class="cls-24" points="96.14 76.04 93.15 70.86 90.16 76.04 96.14 76.04"/><line class="cls-3" x1="191.87" y1="38.29" x2="191.87" y2="18.79"/><line class="cls-3" x1="134.17" y1="222.93" x2="145.3" y2="222.93"/><polygon class="cls-5" points="135.05 225.93 129.87 222.93 135.05 219.94 135.05 225.93"/><path class="cls-3" d="M188,41,150.24,29.65a4.28,4.28,0,0,1-2.87-3.86v-7"/><path class="cls-3" d="M196.18,41l43.29-11.43a4.12,4.12,0,0,0,2.9-3.76v-7"/><circle class="cls-26" cx="74.9" cy="200.57" r="1.67"/><circle class="cls-27" cx="69.56" cy="200.59" r="1.67"/><circle class="cls-28" cx="64.22" cy="200.59" r="1.67"/><path class="cls-10" d="M65.44,207.28l-1,1a.44.44,0,0,1-.62,0h0l-7.09-7.07a.87.87,0,0,1,0-1.23h0l1-1h0l7.7,7.69a.45.45,0,0,1,0,.61Z"/><path class="cls-29" d="M64.33,193l1,1a.44.44,0,0,1,0,.62l-7.57,7.59h0l-1-1a.86.86,0,0,1,0-1.22h0l7-7A.43.43,0,0,1,64.33,193Z"/><path class="cls-10" d="M81.28,199l1,1a.87.87,0,0,1,0,1.23h0l-7.1,7.07a.43.43,0,0,1-.61,0h0l-1-1a.43.43,0,0,1,0-.61h0Z"/><path class="cls-29" d="M82.24,201.15l-1,.95h0l-7.58-7.59a.44.44,0,0,1,0-.62h0l1-1a.44.44,0,0,1,.62,0h0l7,7a.87.87,0,0,1,0,1.23h0Z"/><path class="cls-30" d="M71.32,46.35,85.76,31.9a1,1,0,0,1,1.41,0l0,0h0l14.45,14.45a1,1,0,0,1,0,1.41l0,.05h0L87.23,62.3a1,1,0,0,1-1.41,0l0,0L71.32,47.83a1,1,0,0,1,0-1.41l0-.05Z"/><path class="cls-31" d="M90.29,38.48l-3.65-3.63a.2.2,0,0,0-.27,0l-3.66,3.63a.16.16,0,0,0,0,.24.16.16,0,0,0,.18.07H85a.21.21,0,0,1,.19.19v3.45a.2.2,0,0,0,.19.19h2.27a.21.21,0,0,0,.19-.19V39a.2.2,0,0,1,.19-.19h2.13a.15.15,0,0,0,.2-.1v0A.18.18,0,0,0,90.29,38.48Z"/><path class="cls-31" d="M77.89,43l-3.61,3.66a.19.19,0,0,0,0,.26l3.61,3.64a.19.19,0,0,0,.27,0h0a.2.2,0,0,0,.06-.14V48.28a.2.2,0,0,1,.19-.19h3.44a.18.18,0,0,0,.18-.17V45.63a.19.19,0,0,0-.06-.24H78.46a.18.18,0,0,1-.19-.15V43.11a.19.19,0,0,0-.11-.25h0a.19.19,0,0,0-.25.12Z"/><path class="cls-31" d="M95.25,50.54l3.67-3.65a.19.19,0,0,0,0-.26L95.25,43A.2.2,0,0,0,95,43a.21.21,0,0,0,0,.11v2.16a.18.18,0,0,1-.17.17H91.31a.18.18,0,0,0-.18.17V47.9a.17.17,0,0,0,.16.19h3.46a.2.2,0,0,1,.19.19h0v2.14a.2.2,0,0,0,.21.16Z"/><path class="cls-1" d="M91.31,47.09a4.81,4.81,0,1,0-6.1,4.6v1.64a3,3,0,1,0,4,1.33,3.05,3.05,0,0,0-1.33-1.33V51.6A4.78,4.78,0,0,0,91.31,47.09Z"/><circle id="e99c3387-15c3-4f28-bd4b-cb209b430e06" class="cls-32" cx="86.52" cy="47.08" r="2.79"/><rect class="cls-1" x="130.02" width="35" height="20.86"/><rect class="cls-6" x="130.02" width="35" height="20.86"/><rect class="cls-1" x="68.16" width="35" height="20.86"/><rect class="cls-33" x="68.16" width="35" height="20.86"/><rect class="cls-1" x="174.87" width="35" height="20.86"/><rect class="cls-6" x="174.87" width="35" height="20.86"/><rect class="cls-1" x="219.87" width="45" height="20.86"/><rect class="cls-6" x="219.87" width="45" height="20.86"/><rect class="cls-1" x="156.87" y="53.97" width="70" height="10"/><rect class="cls-34" x="156.87" y="53.97" width="70" height="10"/><g id="ad94e297-0e86-4eaf-aac0-d146ee9aea65"><path class="cls-35" d="M187.8,54.32l-4.69-4.84a2.28,2.28,0,0,1-.77.14,2.43,2.43,0,1,1,2.24-3.33h4.61v1.62h-4.54a3.68,3.68,0,0,1-.26.57l4.32,4.46,2.34-3.56V38.19H187.9l4-4,4,4h-3.16v8.74l5.93-9-6-6a1,1,0,0,0-1.41-.05s0,0,0,.05h0L176.69,46.36a1,1,0,0,0-.05,1.41l.05,0h0l14.47,14.47L186,57.15Z"/><path class="cls-36" d="M191.05,54.53V49.36l-2.34,3.58,1.72,1.85A1.61,1.61,0,0,1,191.05,54.53Z"/><path class="cls-36" d="M207.08,46.36l-8.48-8.48-5.93,9v7.61a1.78,1.78,0,0,1,.54.3l6.22-6.29a2.53,2.53,0,0,1-.31-.64h-4.67V46.29h4.74a2.41,2.41,0,1,1,2.24,3.33,2.61,2.61,0,0,1-.68-.11l-6.61,6.67a2.17,2.17,0,0,1,.1.62,2.43,2.43,0,1,1-4.84.44,2.18,2.18,0,0,1,0-.25,2.49,2.49,0,0,1,.13-.9l-1.72-1.72L186,57.13l5.17,5.17a1,1,0,0,0,1.41,0l0,0L207,47.82a1,1,0,0,0,.05-1.41s0,0-.05,0Z"/><path class="cls-37" d="M199.19,46.29h-4.74v1.62h4.67a2.22,2.22,0,0,1-.12-.72A2.14,2.14,0,0,1,199.19,46.29Z"/><path class="cls-37" d="M184.65,47.91h4.54V46.29h-4.61a2.54,2.54,0,0,1,.19.9A2.93,2.93,0,0,1,184.65,47.91Z"/><path class="cls-37" d="M194.14,56.18l6.61-6.67a2.44,2.44,0,0,1-1.32-1l-6.22,6.29A2.25,2.25,0,0,1,194.14,56.18Z"/><path class="cls-37" d="M190.49,54.79l-1.73-1.85-4.37-4.46a2.45,2.45,0,0,1-1.28,1l4.69,4.84L189.52,56A2.37,2.37,0,0,1,190.49,54.79Z"/><path class="cls-1" d="M195.81,38.19l-3.93-4-4,4H191V54.53a1.68,1.68,0,0,0-.56.26,2.36,2.36,0,0,0-1,1.3,2.41,2.41,0,1,0,4.62,1.4,2.3,2.3,0,0,0,.1-.69,2.17,2.17,0,0,0-.1-.62,2.21,2.21,0,0,0-.93-1.34,1.78,1.78,0,0,0-.54-.3V38.19Zm-3.93,20a1.34,1.34,0,1,1,1.35-1.34h0a1.35,1.35,0,0,1-1.35,1.29Z"/><path class="cls-1" d="M184.39,48.48a3.68,3.68,0,0,0,.26-.57,2.93,2.93,0,0,0,.12-.72,2.54,2.54,0,0,0-.19-.9,2.42,2.42,0,1,0-2.24,3.33,2.28,2.28,0,0,0,.77-.14A2.45,2.45,0,0,0,184.39,48.48Zm-2,0a1.35,1.35,0,1,1,1.34-1.36v0h0a1.34,1.34,0,0,1-1.29,1.39h0Z"/><path class="cls-1" d="M200.75,49.51a2.61,2.61,0,0,0,.68.11,2.43,2.43,0,1,0-2.24-3.33,2.14,2.14,0,0,0-.19.9,2.22,2.22,0,0,0,.12.72,2.53,2.53,0,0,0,.31.64A2.46,2.46,0,0,0,200.75,49.51Zm.68-3.65a1.34,1.34,0,1,1-.31,0Z"/><path class="cls-38" d="M191.88,55.46a1.34,1.34,0,1,0,1.35,1.34h0A1.36,1.36,0,0,0,191.88,55.46Z"/><circle class="cls-38" cx="182.34" cy="47.19" r="1.34"/><path class="cls-38" d="M201.43,48.53a1.35,1.35,0,1,0-1.35-1.35h0a1.34,1.34,0,0,0,1.34,1.34Z"/></g></g></g><g id="Text"><text class="cls-39" transform="translate(89.44 173.34) scale(0.99 1)">VM</text><text class="cls-39" transform="translate(131.29 173.34) scale(0.99 1)">VM</text><text class="cls-39" transform="translate(210.3 165.76) scale(0.99 1)">VM</text><text class="cls-39" transform="translate(246.31 165.95) scale(0.99 1)">VMSS</text><text class="cls-40" transform="translate(225.62 14.08)">Prefijo</text><text class="cls-40" transform="translate(183.82 14.08)">PIP</text><text class="cls-40" transform="translate(139.23 14.08)">PIP</text><text class="cls-40" transform="translate(77.46 14.08)">PIP</text><text class="cls-41" transform="translate(6.8 29.9)">Equilibrador<tspan x="8.54" y="13.2">de carga</tspan></text><text class="cls-40" transform="translate(211.74 49.72)">N<tspan class="cls-42" x="8.98" y="0">A</tspan><tspan x="15.86" y="0">T</tspan></text><text class="cls-43" transform="translate(96.8 106.02) scale(0.99 1)">Subred A</text><text class="cls-44" transform="translate(217.89 105.8)">Subred B</text><text class="cls-45" transform="translate(55.74 223.52) scale(0.99 1)"><tspan class="cls-46">R</tspan><tspan x="6.94" y="0">ed</tspan><tspan x="0" y="13.2">virtual</tspan></text><text class="cls-47" transform="translate(152.26 224.83)">Di<tspan class="cls-48" x="11.42" y="0">r</tspan><tspan x="15.47" y="0">e</tspan><tspan class="cls-49" x="21.82" y="0">c</tspan><tspan class="cls-50" x="27.44" y="0">ción de flujo pa</tspan><tspan class="cls-51" x="108.8" y="0">r</tspan><tspan class="cls-52" x="112.91" y="0">a </tspan><tspan x="0" y="13.2">el o</tspan><tspan class="cls-53" x="19.07" y="13.2">r</tspan><tspan class="cls-50" x="23.3" y="13.2">igen (&quot;solicitud&quot;)</tspan></text><text class="cls-47" transform="translate(152.04 265.69)">Di<tspan class="cls-48" x="11.42" y="0">r</tspan><tspan x="15.47" y="0">e</tspan><tspan class="cls-49" x="21.82" y="0">c</tspan><tspan class="cls-50" x="27.44" y="0">ción del flujo pa</tspan><tspan class="cls-54" x="111.83" y="0">r</tspan><tspan class="cls-50" x="115.95" y="0">a</tspan><tspan x="0" y="13.2">la de</tspan><tspan class="cls-48" x="25.37" y="13.2">v</tspan><tspan class="cls-52" x="31.35" y="13.2">olución (&quot;</tspan><tspan class="cls-55" x="81.66" y="13.2">r</tspan><tspan class="cls-50" x="85.71" y="13.2">espuest</tspan><tspan class="cls-56" x="126.89" y="13.2">a</tspan><tspan class="cls-50" x="132.86" y="13.2">&quot;)</tspan></text><text class="cls-57" transform="translate(87.1 125.83) scale(0.99 1)">Grupo de LB</text></g></svg>