<svg xmlns="http://www.w3.org/2000/svg" xmlns:xlink="http://www.w3.org/1999/xlink" viewBox="0 0 221 285.86"><defs><style>.cls-1{fill:#fff;}.cls-2,.cls-3{fill:#3c3c41;}.cls-3{opacity:0.2;}.cls-25,.cls-29,.cls-3{isolation:isolate;}.cls-4{fill:#ccc;fill-opacity:0.3;}.cls-5{fill:url(#Degradado_sin_nombre);}.cls-6{fill:#50e6ff;}.cls-7{fill:#c3f1ff;}.cls-8{fill:#9cebff;}.cls-9{fill:url(#Degradado_sin_nombre_2);}.cls-10{fill:url(#Degradado_sin_nombre_3);}.cls-11{fill:url(#Degradado_sin_nombre_4);}.cls-12{fill:#005ba1;}.cls-13{fill:#0078d4;}.cls-14{fill:url(#Degradado_sin_nombre_5);}.cls-15{fill:url(#Degradado_sin_nombre_6);}.cls-16{fill:url(#Degradado_sin_nombre_7);}.cls-17{fill:url(#Degradado_sin_nombre_8);}.cls-18,.cls-19,.cls-20,.cls-26,.cls-28{fill:none;stroke-miterlimit:10;}.cls-18,.cls-19,.cls-20{stroke:#3c3c41;}.cls-19,.cls-28{stroke-dasharray:1.46 2.43;}.cls-20{stroke-dasharray:1.31 2.19;}.cls-21{fill:url(#Degradado_sin_nombre_9);}.cls-22{fill:url(#Degradado_sin_nombre_10);}.cls-23{fill:url(#Degradado_sin_nombre_11);}.cls-24{fill:#1490df;}.cls-25{fill:#83b9f9;}.cls-25,.cls-29{opacity:0.4;}.cls-26,.cls-28{stroke:#003067;}.cls-27{fill:#003067;}.cls-29,.cls-30{fill:#6ebcdb;}.cls-31{fill:#5db4d7;}.cls-32{fill:#e6e6e6;}.cls-33{fill:#86d633;}.cls-34,.cls-40{font-size:12.19px;}.cls-34,.cls-35,.cls-38,.cls-39,.cls-40,.cls-42{fill:#1e1e1e;}.cls-34,.cls-35,.cls-36,.cls-38,.cls-39,.cls-40{font-family:SegoeUI, Segoe UI;}.cls-34{letter-spacing:0em;}.cls-35,.cls-36{font-size:12px;}.cls-36{fill:#767676;}.cls-37{letter-spacing:-0.07em;}.cls-38{font-size:12.44px;letter-spacing:0em;}.cls-39{font-size:11.97px;letter-spacing:0em;}.cls-41{letter-spacing:-0.03em;}.cls-42{font-size:12.5px;font-family:MyriadPro-Regular, Myriad Pro;letter-spacing:0.01em;}.cls-43{letter-spacing:0em;}.cls-44{letter-spacing:0em;}.cls-45{letter-spacing:0.01em;}.cls-46{letter-spacing:0em;}.cls-47{letter-spacing:0.01em;}.cls-48{letter-spacing:0.01em;}.cls-49{letter-spacing:0em;}.cls-50{letter-spacing:0em;}.cls-51{letter-spacing:0em;}</style><linearGradient id="Degradado_sin_nombre" x1="37.07" y1="418.22" x2="37.07" y2="399.46" gradientTransform="translate(0 -276.6)" gradientUnits="userSpaceOnUse"><stop offset="0" stop-color="#0078d4"/><stop offset="0.82" stop-color="#5ea0ef"/></linearGradient><linearGradient id="Degradado_sin_nombre_2" x1="37.05" y1="425.46" x2="37.05" y2="418.22" gradientTransform="translate(0 -276.6)" gradientUnits="userSpaceOnUse"><stop offset="0.15" stop-color="#ccc"/><stop offset="1" stop-color="#707070"/></linearGradient><linearGradient id="Degradado_sin_nombre_3" x1="77.43" y1="418.22" x2="77.43" y2="399.46" xlink:href="#Degradado_sin_nombre"/><linearGradient id="Degradado_sin_nombre_4" x1="77.43" y1="425.46" x2="77.43" y2="418.22" xlink:href="#Degradado_sin_nombre_2"/><linearGradient id="Degradado_sin_nombre_5" x1="188.87" y1="421.46" x2="188.87" y2="411.12" xlink:href="#Degradado_sin_nombre"/><linearGradient id="Degradado_sin_nombre_6" x1="188.94" y1="425.46" x2="188.94" y2="421.46" xlink:href="#Degradado_sin_nombre_2"/><linearGradient id="Degradado_sin_nombre_7" x1="141.17" y1="418.22" x2="141.17" y2="399.46" xlink:href="#Degradado_sin_nombre"/><linearGradient id="Degradado_sin_nombre_8" x1="141.17" y1="425.46" x2="141.17" y2="418.22" xlink:href="#Degradado_sin_nombre_2"/><linearGradient id="Degradado_sin_nombre_9" x1="23.52" y1="477.64" x2="25.89" y2="480.01" gradientTransform="translate(2.88 -278.01)" gradientUnits="userSpaceOnUse"><stop offset="0" stop-color="#86d633"/><stop offset="0.24" stop-color="#83d232"/><stop offset="0.5" stop-color="#7cc52f"/><stop offset="0.76" stop-color="#6fb02a"/><stop offset="1" stop-color="#5e9624"/></linearGradient><linearGradient id="Degradado_sin_nombre_10" x1="18.18" y1="477.64" x2="20.53" y2="480.01" xlink:href="#Degradado_sin_nombre_9"/><linearGradient id="Degradado_sin_nombre_11" x1="12.83" y1="477.64" x2="15.19" y2="480.01" xlink:href="#Degradado_sin_nombre_9"/></defs><title>OJ104903192</title><g id="Target"><g id="Shapes"><rect class="cls-1" width="221" height="285.86"/><path class="cls-2" d="M214.34,201.17h-1v-1h1Zm-3,0h-1v-1h1Zm-3,0h-1v-1h1Zm-3,0h-1v-1h1Zm-3,0h-1v-1h1Zm-3,0h-1v-1h1Zm-3,0h-1v-1h1Zm-3,0h-1v-1h1Zm-3,0h-1v-1h1Zm-3,0h-1v-1h1Zm-3,0h-1v-1h1Zm-3,0h-1v-1h1Zm-3,0h-1v-1h1Zm-3,0h-1v-1h1Zm-3,0h-1v-1h1Zm-3,0h-1v-1h1Zm-3,0h-1v-1h1Zm-3,0h-1v-1h1Zm-3,0h-1v-1h1Zm-3,0h-1v-1h1Zm-3,0h-1v-1h1Zm-3,0h-1v-1h1Zm-3,0h-1v-1h1Zm-3,0h-1v-1h1Zm-3,0h-1v-1h1Zm-3,0h-1v-1h1Zm-3,0h-1v-1h1Zm-3,0h-1v-1h1Zm-3,0h-1v-1h1Zm-3,0h-1v-1h1Zm-3,0h-1v-1h1Zm-3,0h-1v-1h1Zm-3,0h-1v-1h1Zm-3,0h-1v-1h1Zm-3,0h-1v-1h1Zm-3,0h-1v-1h1Zm-3,0h-1v-1h1Zm-3,0h-1v-1h1Zm-3,0h-1v-1h1Zm-3,0h-1v-1h1Zm-3,0h-1v-1h1Zm-3,0h-1v-1h1Zm-3,0h-1v-1h1Zm-3,0h-1v-1h1Zm-3,0h-1v-1h1Zm-3,0h-1v-1h1Zm-3,0h-1v-1h1Zm-3,0h-1v-1h1Zm-3,0h-1v-1h1Zm-3,0h-1v-1h1Zm-3,0h-1v-1h1Zm-3,0h-1v-1h1Zm-3,0h-1v-1h1Zm-3,0H54v-1h1Zm-3,0H51v-1h1Zm-3,0H48v-1h1Zm-3,0H45v-1h1Zm-3,0H42v-1h1Zm-3,0H39v-1h1Zm-3,0H36v-1h1Zm-30,0H6v-1H7Zm209.46-.08-.17-1a4.29,4.29,0,0,0,.87-.23l.36.93a5.86,5.86,0,0,1-1.44.3Zm-213-.19a5.91,5.91,0,0,1-1-.43l.49-.88a4,4,0,0,0,.82.36Zm215.5-1.29-.69-.71a4.82,4.82,0,0,0,.58-.69l.82.57A5.65,5.65,0,0,1,219.32,199.61ZM1.16,199a5.71,5.71,0,0,1-.59-.94l.9-.44a3.75,3.75,0,0,0,.48.76Zm219.73-2.28-1-.2a4.41,4.41,0,0,0,.09-.89l1-.06v.06a5.33,5.33,0,0,1-.09,1.13ZM0,196v-1H1v1Zm221-2.38h-1v-1h1ZM1,193H0v-1H1Zm220-2.35h-1v-1h1ZM1,190H0v-1H1Zm220-2.36h-1v-1h1Zm-220-.7H0v-1H1Zm220-2.35h-1v-1h1ZM1,183.94H0v-1H1Zm220-2.36h-1v-1h1ZM1,180.93H0v-1H1Zm220-2.35h-1v-1h1ZM1,177.93H0v-1H1Zm220-2.36h-1v-1h1ZM1,174.92H0v-1H1Zm220-2.35h-1v-1h1ZM1,171.92H0v-1H1Zm220-2.36h-1v-1h1ZM1,168.91H0v-1H1Zm220-2.35h-1v-1h1ZM1,165.9H0v-1H1Zm220-2.35h-1v-1h1ZM1,162.9H0v-1H1Zm220-2.35h-1v-1h1ZM1,159.89H0v-1H1Zm220-2.35h-1v-1h1ZM1,156.89H0v-1H1Zm220-2.36h-1v-1h1ZM1,153.88H0v-1H1Zm220-2.35h-1v-1h1ZM1,150.88H0v-1H1Zm220-2.36h-1v-1h1ZM1,147.87H0v-1H1Zm220-2.35h-1v-1h1ZM1,144.87H0v-1H1Zm220-2.36h-1v-1h1ZM1,141.86H0v-1H1Zm220-2.35h-1v-1h1ZM1,138.86H0v-1H1Zm220-2.36h-1v-1h1ZM1,135.85H0v-1H1Zm220-2.35h-1v-1h1ZM1,132.85H0v-1H1Zm220-2.36h-1v-1h1ZM1,129.84H0v-1H1Zm220-2.36h-1v-1h1ZM1,126.83H0v-1H1Zm220-2.35h-1v-1h1ZM1,123.83H0v-1H1Zm220-2.36h-1v-1h1ZM1,120.82H0v-1H1Zm220-2.35h-1v-1h1ZM1,117.82H0v-1H1Zm220-2.36h-1v-1h1ZM1,114.81H0v-1H1Zm220-2.35h-1v-1h1ZM1,111.81H0v-1H1Zm220-2.36h-1v-1h1ZM1,108.8H0v-1H1Zm220-2.35h-1v-1h1ZM1,105.8H0v-1H1Zm220-2.36h-1v-1h1ZM1,102.79H0v-1H1Zm220-2.35h-1v-1h1ZM1,99.78H0v-1H1Zm220-2.35h-1v-1h1ZM1,96.78H0v-1H1Zm220-2.36h-1v-1h1ZM1,93.77H0v-1H1Zm220-2.35h-1v-1h1ZM1,90.77H0v-1H1Zm220-2.36h-1v-1h1ZM1,87.76H0v-1H1Zm220-2.35h-1v-1h1ZM1,84.76H0v-1H1ZM221,82.4h-1v-1h1ZM1,81.75H0v-1H1ZM221,79.4h-1v-1h1ZM1,78.75H0v-1H1Zm220-2.36h-1v-1h1ZM1,75.74H0v-1H1Zm220-2.35h-1v-1h1ZM1,72.73H0v-1H1Zm220-2.35h-1v-1h1ZM1,69.73H0v-1H1Zm220-2.35h-1v-1h1ZM1,66.72H0v-1H1Zm220-2.35h-1v-1h1ZM1,63.72H0v-1H1Zm220-2.36h-1v-1h1ZM1,60.71H0v-1H1Zm220-2.35h-1v-1h1ZM1,57.71H0v-1H1Zm220-2.36h-1v-1h1ZM1,54.7H0v-1H1Zm220-2.35h-1v-.68a1.41,1.41,0,0,0,0-.29l1-.07v1ZM0,51.7H0a5.77,5.77,0,0,1,.1-1.1l1,.2a5.12,5.12,0,0,0-.08.87Zm219.52-2.05a5.41,5.41,0,0,0-.48-.76l.78-.62a5,5,0,0,1,.59.93ZM1.78,49.15,1,48.59a5.25,5.25,0,0,1,.71-.85l.7.72A4.57,4.57,0,0,0,1.78,49.15Zm215.89-1.42a4.09,4.09,0,0,0-.83-.36l.31-.95a5.91,5.91,0,0,1,1,.43ZM3.86,47.48l-.37-.93a4.92,4.92,0,0,1,1.06-.3l.17,1A5.2,5.2,0,0,0,3.86,47.48ZM215,47.17h-1v-1h1Zm-3,0h-1v-1h1Zm-3,0h-1v-1h1Zm-3,0h-1v-1h1Zm-3,0h-1v-1h1Zm-3,0h-1v-1h1Zm-3,0h-1v-1h1Zm-3,0h-1v-1h1Zm-3,0h-1v-1h1Zm-3,0h-1v-1h1Zm-3,0h-1v-1h1Zm-3,0h-1v-1h1Zm-3,0h-1v-1h1Zm-3,0h-1v-1h1Zm-3,0h-1v-1h1Zm-3,0h-1v-1h1Zm-3,0h-1v-1h1Zm-3,0h-1v-1h1Zm-3,0h-1v-1h1Zm-3,0h-1v-1h1Zm-3,0h-1v-1h1Zm-27,0h-1v-1h1Zm-3,0h-1v-1h1Zm-3,0h-1v-1h1Zm-3,0h-1v-1h1Zm-3,0h-1v-1h1Zm-3,0h-1v-1h1Zm-3,0h-1v-1h1Zm-3,0h-1v-1h1Zm-3,0h-1v-1h1Zm-3,0h-1v-1h1Zm-3,0H97v-1h1Zm-3,0H94v-1h1Zm-3,0H91v-1h1Zm-3,0H88v-1h1Zm-3,0H85v-1h1Zm-3,0H82v-1h1Zm-3,0H79v-1h1Zm-3,0H76v-1h1Zm-3,0H73v-1h1Zm-3,0H70v-1h1Zm-3,0H67v-1h1Zm-3,0H64v-1h1Zm-3,0H61v-1h1Zm-3,0H58v-1h1Zm-3,0H55v-1h1Zm-3,0H52v-1h1Zm-3,0H49v-1h1Zm-3,0H46v-1h1Zm-3,0H43v-1h1Zm-3,0H40v-1h1Zm-3,0H37v-1h1Zm-3,0H34v-1h1Zm-3,0H31v-1h1Zm-3,0H28v-1h1Zm-3,0H25v-1h1Zm-3,0H22v-1h1Zm-3,0H19v-1h1Zm-3,0H16v-1h1Zm-3,0H13v-1h1Zm-3,0H10v-1h1Zm-3,0H7v-1H8Z"/><rect class="cls-1" x="10" y="90.86" width="95" height="95" rx="0.3"/><rect class="cls-3" x="10" y="90.86" width="95" height="95" rx="0.3"/><rect class="cls-4" x="45" y="210.86" width="166.34" height="35"/><rect class="cls-4" x="45" y="250.86" width="166.34" height="35"/><rect class="cls-5" x="23" y="122.86" width="28.14" height="18.76" rx="0.94"/><polygon class="cls-6" points="41.76 129.5 41.76 134.96 37.07 137.71 37.07 132.24 41.76 129.5"/><polygon class="cls-7" points="41.76 129.5 37.07 132.25 32.38 129.5 37.07 126.76 41.76 129.5"/><polygon class="cls-8" points="37.07 132.25 37.07 137.71 32.38 134.96 32.38 129.5 37.07 132.25"/><polygon class="cls-7" points="32.38 134.96 37.07 132.24 37.07 137.71 32.38 134.96"/><polygon class="cls-8" points="41.76 134.96 37.07 132.24 37.07 137.71 41.76 134.96"/><path class="cls-9" d="M42.71,147.29c-2.78-.44-2.89-2.44-2.89-5.67H34.3c0,3.23-.09,5.23-2.87,5.67A1.56,1.56,0,0,0,30,148.86H44.11A1.58,1.58,0,0,0,42.71,147.29Z"/><rect class="cls-10" x="63.36" y="122.86" width="28.14" height="18.76" rx="0.94"/><polygon class="cls-6" points="82.12 129.5 82.12 134.96 77.43 137.71 77.43 132.24 82.12 129.5"/><polygon class="cls-7" points="82.12 129.5 77.43 132.25 72.74 129.5 77.43 126.76 82.12 129.5"/><polygon class="cls-8" points="77.43 132.25 77.43 137.71 72.74 134.96 72.74 129.5 77.43 132.25"/><polygon class="cls-7" points="72.74 134.96 77.43 132.24 77.43 137.71 72.74 134.96"/><polygon class="cls-8" points="82.12 134.96 77.43 132.24 77.43 137.71 82.12 134.96"/><path class="cls-11" d="M83.07,147.29c-2.78-.44-2.89-2.44-2.89-5.67H74.66c0,3.23-.09,5.23-2.88,5.67a1.56,1.56,0,0,0-1.39,1.57H84.46A1.56,1.56,0,0,0,83.07,147.29Z"/><rect class="cls-1" x="115" y="90.86" width="95" height="95"/><rect class="cls-3" x="115" y="90.86" width="95" height="95"/><rect class="cls-12" x="170.6" y="122.86" width="15.46" height="10.32" rx="0.52"/><polygon class="cls-6" points="180.91 126.51 180.91 129.52 178.34 131.02 178.34 128.03 180.91 126.51"/><polygon class="cls-7" points="180.91 126.51 178.34 128.03 175.75 126.51 178.34 125 180.91 126.51"/><polygon class="cls-8" points="178.34 128.03 178.34 131.02 175.75 129.52 175.75 126.51 178.34 128.03"/><rect class="cls-13" x="176.67" y="128.77" width="15.46" height="10.32" rx="0.52"/><polygon class="cls-6" points="186.98 132.44 186.98 135.44 184.41 136.96 184.41 133.94 186.98 132.44"/><polygon class="cls-7" points="186.98 132.44 184.41 133.94 181.82 132.44 184.41 130.93 186.98 132.44"/><polygon class="cls-8" points="184.41 133.94 184.41 136.96 181.82 135.44 181.82 132.44 184.41 133.94"/><rect class="cls-14" x="181.14" y="134.52" width="15.46" height="10.32" rx="0.52"/><polygon class="cls-6" points="191.44 138.19 191.44 141.19 188.88 142.71 188.88 139.69 191.44 138.19"/><polygon class="cls-7" points="191.44 138.19 188.88 139.71 186.29 138.19 188.88 136.68 191.44 138.19"/><polygon class="cls-8" points="188.88 139.71 188.88 142.71 186.29 141.19 186.29 138.19 188.88 139.71"/><polygon class="cls-7" points="186.29 141.19 188.88 139.69 188.88 142.71 186.29 141.19"/><polygon class="cls-8" points="191.44 141.19 188.88 139.69 188.88 142.71 191.44 141.19"/><path class="cls-15" d="M192,148c-1.52-.24-1.52-1.34-1.52-3.06h-3.06c0,1.78,0,2.88-1.53,3.06a.91.91,0,0,0-.77.88h7.65A.91.91,0,0,0,192,148Z"/><rect class="cls-16" x="127.1" y="122.86" width="28.14" height="18.76" rx="0.94"/><polygon class="cls-6" points="145.86 129.5 145.86 134.96 141.17 137.71 141.17 132.24 145.86 129.5"/><polygon class="cls-7" points="145.86 129.5 141.17 132.25 136.48 129.5 141.17 126.76 145.86 129.5"/><polygon class="cls-8" points="141.17 132.25 141.17 137.71 136.48 134.96 136.48 129.5 141.17 132.25"/><polygon class="cls-7" points="136.48 134.96 141.17 132.24 141.17 137.71 136.48 134.96"/><polygon class="cls-8" points="145.86 134.96 141.17 132.24 141.17 137.71 145.86 134.96"/><path class="cls-17" d="M146.81,147.29c-2.78-.44-2.89-2.44-2.89-5.67H138.4c0,3.23-.09,5.23-2.87,5.67a1.58,1.58,0,0,0-1.4,1.57h14.08A1.58,1.58,0,0,0,146.81,147.29Z"/><line class="cls-18" x1="90.37" y1="90.71" x2="90.37" y2="63.64"/><line class="cls-18" x1="82.84" y1="85.18" x2="82.84" y2="73.48"/><polygon class="cls-2" points="85.83 74.36 82.84 69.18 79.85 74.36 85.83 74.36"/><line class="cls-18" x1="97.89" y1="80.87" x2="97.89" y2="80.12"/><line class="cls-19" x1="97.89" y1="77.69" x2="97.89" y2="71.14"/><line class="cls-18" x1="97.89" y1="69.93" x2="97.89" y2="69.18"/><polygon class="cls-2" points="100.88 80 97.89 85.18 94.9 80 100.88 80"/><line class="cls-18" x1="129.52" y1="90.71" x2="129.52" y2="63.64"/><line class="cls-18" x1="122" y1="85.18" x2="122" y2="73.48"/><polygon class="cls-2" points="124.99 74.36 122 69.18 119.01 74.36 124.99 74.36"/><line class="cls-18" x1="137.05" y1="80.87" x2="137.05" y2="80.12"/><line class="cls-19" x1="137.05" y1="77.69" x2="137.05" y2="71.14"/><line class="cls-18" x1="137.05" y1="69.93" x2="137.05" y2="69.18"/><polygon class="cls-2" points="140.04 80 137.05 85.18 134.06 80 140.04 80"/><line class="cls-18" x1="109.7" y1="38.29" x2="109.7" y2="18.79"/><line class="cls-18" x1="54.31" y1="220.86" x2="65.43" y2="220.86"/><polygon class="cls-2" points="55.18 223.85 50 220.85 55.18 217.86 55.18 223.85"/><line class="cls-18" x1="60.69" y1="260.86" x2="59.94" y2="260.86"/><line class="cls-20" x1="57.75" y1="260.86" x2="51.84" y2="260.86"/><line class="cls-18" x1="50.75" y1="260.86" x2="50" y2="260.86"/><polygon class="cls-2" points="59.82 257.86 65 260.86 59.82 263.85 59.82 257.86"/><path class="cls-18" d="M105.83,41,65.74,29.61a4.21,4.21,0,0,1-2.89-3.82v-7"/><path class="cls-18" d="M114,41l43.3-11.45a4.1,4.1,0,0,0,2.9-3.76v-7"/><circle class="cls-21" cx="27.4" cy="200.63" r="1.67"/><circle class="cls-22" cx="22.06" cy="200.64" r="1.67"/><circle class="cls-23" cx="16.72" cy="200.64" r="1.67"/><path class="cls-6" d="M17.93,207.34l-1,1a.43.43,0,0,1-.61,0h0l-7.09-7.08a.88.88,0,0,1,0-1.22h0l1-1h0l7.71,7.69a.43.43,0,0,1,0,.61h0Z"/><path class="cls-24" d="M16.83,193l1,1a.43.43,0,0,1,0,.61h0l-7.57,7.6h0l-1-1a.88.88,0,0,1,0-1.22h0l7-7A.43.43,0,0,1,16.83,193Z"/><path class="cls-6" d="M33.78,199l1,1a.86.86,0,0,1,0,1.22h0l-7.1,7.08a.43.43,0,0,1-.61,0h0l-1-1a.44.44,0,0,1,0-.62h0Z"/><path class="cls-24" d="M34.74,201.2l-1,1h0l-7.57-7.6a.43.43,0,0,1,0-.61h0l1-1a.43.43,0,0,1,.61,0h0l7,7a.88.88,0,0,1,0,1.22h0Z"/><rect class="cls-1" x="45.35" width="35" height="20.86"/><rect class="cls-3" x="45.35" width="35" height="20.86"/><rect class="cls-1" x="92.7" width="35" height="20.86"/><rect class="cls-3" x="92.7" width="35" height="20.86"/><rect class="cls-1" x="137.7" width="45" height="20.86"/><rect class="cls-3" x="137.7" width="45" height="20.86"/><rect class="cls-1" x="13.69" width="23.5" height="20.86"/><rect class="cls-25" x="13.69" width="23.5" height="20.86"/><line class="cls-26" x1="24.92" y1="90.71" x2="24.92" y2="21.02"/><line class="cls-26" x1="18.04" y1="80.44" x2="18.04" y2="68.74"/><polygon class="cls-27" points="21.03 79.56 18.04 84.75 15.05 79.56 21.03 79.56"/><line class="cls-26" x1="31.8" y1="84.74" x2="31.8" y2="83.99"/><line class="cls-28" x1="31.8" y1="81.57" x2="31.8" y2="75.01"/><line class="cls-26" x1="31.8" y1="73.8" x2="31.8" y2="73.05"/><polygon class="cls-27" points="34.79 73.93 31.8 68.75 28.8 73.93 34.79 73.93"/><rect class="cls-1" x="74.82" y="53.67" width="70" height="10"/><rect class="cls-29" x="74.82" y="53.67" width="70" height="10"/><g id="ad94e297-0e86-4eaf-aac0-d146ee9aea65"><path class="cls-30" d="M105.75,54l-4.68-4.84a2.28,2.28,0,0,1-.78.13A2.43,2.43,0,1,1,102.53,46h4.62v1.62H102.6a3.68,3.68,0,0,1-.26.57l4.33,4.46L109,49.07V37.89h-3.15l4-4,3.94,4h-3.15v8.74l5.93-9.05-6-6a1,1,0,0,0-1.41,0l0,0h0L94.64,46.06a1,1,0,0,0,0,1.41l0,.05h0L109.11,62l-5.17-5.17Z"/><path class="cls-31" d="M109,54.22V49.05l-2.34,3.59,1.72,1.84A2,2,0,0,1,109,54.22Z"/><path class="cls-31" d="M125,46.06l-8.47-8.48-5.93,9.05v7.61a2.1,2.1,0,0,1,.53.29l6.22-6.28a3.15,3.15,0,0,1-.31-.64H112.4V46h4.74a2.41,2.41,0,1,1,2.24,3.32,2.53,2.53,0,0,1-.67-.1l-6.62,6.67a2.18,2.18,0,0,1,.11.62,2.43,2.43,0,0,1-4.86.19,2.5,2.5,0,0,1,.14-.9l-1.73-1.72-1.84,2.76L109.08,62a1,1,0,0,0,1.41,0l0,0L125,47.52a1,1,0,0,0,0-1.41Z"/><path class="cls-32" d="M117.14,46H112.4v1.62h4.67a3,3,0,0,1-.12-.73A2.26,2.26,0,0,1,117.14,46Z"/><path class="cls-32" d="M102.6,47.61h4.55V46h-4.62a2.09,2.09,0,0,1,.19.89A2.22,2.22,0,0,1,102.6,47.61Z"/><path class="cls-32" d="M112.09,55.88l6.62-6.67a2.43,2.43,0,0,1-1.33-1l-6.22,6.28A2.24,2.24,0,0,1,112.09,55.88Z"/><path class="cls-32" d="M108.44,54.48l-1.72-1.84-4.38-4.46a2.51,2.51,0,0,1-1.27,1L105.75,54l1.73,1.72A2.37,2.37,0,0,1,108.44,54.48Z"/><path class="cls-1" d="M113.76,37.89l-3.92-4-4,4H109V54.22a1.73,1.73,0,0,0-.57.26,2.41,2.41,0,1,0,3.65,2.71,2.31,2.31,0,0,0,.11-.69,2.18,2.18,0,0,0-.11-.62,2.26,2.26,0,0,0-.93-1.35,2.1,2.1,0,0,0-.53-.29V37.89Zm-3.92,20a1.35,1.35,0,1,1,1.34-1.36v0h0a1.34,1.34,0,0,1-1.34,1.29Z"/><path class="cls-1" d="M102.34,48.18a3.68,3.68,0,0,0,.26-.57,2.28,2.28,0,0,0,.12-.73,2.09,2.09,0,0,0-.19-.89,2.41,2.41,0,1,0-2.24,3.32,2.28,2.28,0,0,0,.78-.13A2.51,2.51,0,0,0,102.34,48.18Zm-2,0a1.35,1.35,0,1,1,1.35-1.35h0a1.36,1.36,0,0,1-1.3,1.4h0Z"/><path class="cls-1" d="M118.71,49.21a2.53,2.53,0,0,0,.67.1A2.43,2.43,0,1,0,117.14,46a2.26,2.26,0,0,0-.19.89,3,3,0,0,0,.12.73,3.15,3.15,0,0,0,.31.64A2.46,2.46,0,0,0,118.71,49.21Zm.67-3.65a1.34,1.34,0,0,1,0,2.67,1.34,1.34,0,1,1-.3-2.67A1.5,1.5,0,0,1,119.38,45.56Z"/><path class="cls-33" d="M109.84,55.15a1.35,1.35,0,1,0,1.34,1.36h0A1.36,1.36,0,0,0,109.84,55.15Z"/><circle class="cls-33" cx="100.29" cy="46.88" r="1.34"/><path class="cls-33" d="M119.38,48.23A1.35,1.35,0,1,0,118,46.88h0a1.34,1.34,0,0,0,1.33,1.35Z"/></g></g></g><g id="Text"><text class="cls-34" transform="translate(132.13 165.9) scale(0.99 1)">VM</text><text class="cls-34" transform="translate(68.21 165.9) scale(0.99 1)">VM</text><text class="cls-34" transform="translate(26.4 165.9) scale(0.99 1)">VM</text><text class="cls-34" transform="translate(168.21 165.9) scale(0.99 1)">VMSS</text><text class="cls-35" transform="translate(143.16 14.16)">Prefijo</text><text class="cls-35" transform="translate(101.89 14.16)">PIP</text><text class="cls-35" transform="translate(54.52 14.16)">PIP</text><text class="cls-35" transform="translate(17.45 14.16)">PIP</text><text class="cls-36" transform="translate(3 14.16)">IL</text><text class="cls-35" transform="translate(130.98 49.99)">N<tspan class="cls-37" x="8.98" y="0">A</tspan><tspan x="15.86" y="0">T</tspan></text><text class="cls-38" transform="translate(35.23 105.97) scale(0.99 1)">Subred A</text><text class="cls-39" transform="translate(139.6 105.75)">Subred B</text><text class="cls-40" transform="translate(9.02 223.47) scale(0.99 1)"><tspan class="cls-41">R</tspan><tspan x="6.94" y="0">ed</tspan><tspan x="0" y="13.2">virtual</tspan></text><text class="cls-42" transform="translate(73.96 224.65)">Di<tspan class="cls-43" x="11.42" y="0">r</tspan><tspan x="15.47" y="0">e</tspan><tspan class="cls-44" x="21.82" y="0">c</tspan><tspan class="cls-45" x="27.44" y="0">ción de flujo pa</tspan><tspan class="cls-46" x="108.8" y="0">r</tspan><tspan class="cls-47" x="112.91" y="0">a </tspan><tspan x="0" y="13.2">el o</tspan><tspan class="cls-48" x="19.07" y="13.2">r</tspan><tspan class="cls-45" x="23.3" y="13.2">igen (&quot;solicitud&quot;)</tspan></text><text class="cls-42" transform="translate(73.87 265.52)">Di<tspan class="cls-43" x="11.42" y="0">r</tspan><tspan x="15.47" y="0">e</tspan><tspan class="cls-44" x="21.82" y="0">c</tspan><tspan class="cls-45" x="27.44" y="0">ción del flujo pa</tspan><tspan class="cls-49" x="111.83" y="0">r</tspan><tspan class="cls-45" x="115.95" y="0">a la </tspan><tspan x="0" y="13.2">de</tspan><tspan class="cls-43" x="13.49" y="13.2">v</tspan><tspan class="cls-47" x="19.46" y="13.2">olución (&quot;</tspan><tspan class="cls-50" x="69.77" y="13.2">r</tspan><tspan class="cls-45" x="73.82" y="13.2">espuest</tspan><tspan class="cls-51" x="115" y="13.2">a</tspan><tspan class="cls-45" x="120.97" y="13.2">&quot;)</tspan></text></g></svg>