<svg xmlns="http://www.w3.org/2000/svg" xmlns:xlink="http://www.w3.org/1999/xlink" viewBox="0 0 171.02 202.65"><defs><style>.cls-1{fill:#fff;}.cls-2,.cls-3,.cls-4{fill:#3c3c41;}.cls-2{opacity:0.05;}.cls-2,.cls-4{isolation:isolate;}.cls-4{opacity:0.2;}.cls-5{fill:url(#Degradado_sin_nombre);}.cls-6{fill:#767676;}.cls-7{fill:#f2f2f2;}.cls-8{fill:url(#Degradado_sin_nombre_2);}.cls-9{fill:url(#Degradado_sin_nombre_3);}.cls-10{fill:url(#Degradado_sin_nombre_4);}.cls-11{fill:none;stroke:#3c3c41;stroke-miterlimit:10;}.cls-12{fill:url(#Degradado_sin_nombre_5);}.cls-13{fill:url(#Degradado_sin_nombre_6);}.cls-14{fill:url(#Degradado_sin_nombre_7);}.cls-15{fill:#50e6ff;}.cls-16{fill:#1490df;}.cls-17{fill:#6ebcdb;}.cls-18{fill:#5db4d7;}.cls-19{fill:#e6e6e6;}.cls-20{fill:#86d633;}.cls-21,.cls-22{font-size:12.44px;}.cls-21,.cls-22,.cls-24,.cls-27,.cls-28{fill:#1e1e1e;font-family:SegoeUI, Segoe UI;}.cls-21{letter-spacing:0em;}.cls-22{letter-spacing:-0.02em;}.cls-23{letter-spacing:0.01em;}.cls-24,.cls-27,.cls-28{font-size:12.19px;}.cls-24{letter-spacing:0em;}.cls-25{letter-spacing:-0.07em;}.cls-26{letter-spacing:0.01em;}.cls-27{letter-spacing:-0.01em;}</style><linearGradient id="Degradado_sin_nombre" x1="83.55" y1="-2014.2" x2="83.55" y2="-2001.41" gradientTransform="matrix(1, 0, 0, -1, 0, -1978.98)" gradientUnits="userSpaceOnUse"><stop offset="0" stop-color="#32bedd"/><stop offset="0.18" stop-color="#32caea"/><stop offset="0.41" stop-color="#32d2f2"/><stop offset="0.78" stop-color="#32d4f5"/></linearGradient><linearGradient id="Degradado_sin_nombre_2" x1="92.01" y1="-2020.48" x2="92.01" y2="-2007.69" xlink:href="#Degradado_sin_nombre"/><linearGradient id="Degradado_sin_nombre_3" x1="100.46" y1="-2026.76" x2="100.46" y2="-2013.96" xlink:href="#Degradado_sin_nombre"/><linearGradient id="Degradado_sin_nombre_4" x1="22.57" y1="299.48" x2="22.57" y2="278.9" gradientTransform="translate(0 -252.68)" xlink:href="#Degradado_sin_nombre"/><linearGradient id="Degradado_sin_nombre_5" x1="38.26" y1="428.03" x2="40.63" y2="430.4" gradientTransform="translate(2.9 -253.22)" gradientUnits="userSpaceOnUse"><stop offset="0" stop-color="#86d633"/><stop offset="0.24" stop-color="#83d232"/><stop offset="0.5" stop-color="#7cc52f"/><stop offset="0.76" stop-color="#6fb02a"/><stop offset="1" stop-color="#5e9624"/></linearGradient><linearGradient id="Degradado_sin_nombre_6" x1="32.91" y1="428.03" x2="35.27" y2="430.4" xlink:href="#Degradado_sin_nombre_5"/><linearGradient id="Degradado_sin_nombre_7" x1="27.56" y1="428.03" x2="29.92" y2="430.4" xlink:href="#Degradado_sin_nombre_5"/></defs><title>OJ104903208</title><g id="Target"><g id="Shapes"><rect class="cls-1" width="170.48" height="202.65"/><rect class="cls-1" x="15.52" y="120.49" width="155" height="55" rx="5"/><rect class="cls-2" x="15.52" y="120.49" width="155" height="55" rx="5"/><path class="cls-3" d="M164.37,176h-1v-1h1Zm-3,0h-1v-1h1Zm-3,0h-1v-1h1Zm-3,0h-1v-1h1Zm-3,0h-1v-1h1Zm-3,0h-1v-1h1Zm-3,0h-1v-1h1Zm-3,0h-1v-1h1Zm-3,0h-1v-1h1Zm-3,0h-1v-1h1Zm-3,0h-1v-1h1Zm-3,0h-1v-1h1Zm-3,0h-1v-1h1Zm-3,0h-1v-1h1Zm-3,0h-1v-1h1Zm-3,0h-1v-1h1Zm-3,0h-1v-1h1Zm-3,0h-1v-1h1Zm-3,0h-1v-1h1Zm-3,0h-1v-1h1Zm-3,0h-1v-1h1Zm-3,0h-1v-1h1Zm-3,0h-1v-1h1Zm-3,0h-1v-1h1Zm-3,0h-1v-1h1Zm-3,0h-1v-1h1Zm-3,0h-1v-1h1Zm-3,0h-1v-1h1Zm-3,0h-1v-1h1Zm-3,0h-1v-1h1Zm-3,0h-1v-1h1Zm-3,0h-1v-1h1Zm-3,0h-1v-1h1Zm-3,0h-1v-1h1Zm-3,0h-1v-1h1Zm-3,0h-1v-1h1Zm-3,0h-1v-1h1Zm-3,0h-1v-1h1Zm-33,0a5.75,5.75,0,0,1-1.09-.17l.26-1a3.76,3.76,0,0,0,.88.14Zm146.23-.07-.17-1a5.11,5.11,0,0,0,.87-.25l.36.94a5.19,5.19,0,0,1-1.16.29ZM17.17,174.84a5.16,5.16,0,0,1-.8-.75l.76-.66a4.77,4.77,0,0,0,.65.62Zm152.18-.41-.7-.71a4.24,4.24,0,0,0,.58-.69l.83.57a5.65,5.65,0,0,1-.71.83ZM15.29,172.19a5.61,5.61,0,0,1-.23-1.08l1-.11a5.31,5.31,0,0,0,.19.88Zm155.62-.61-1-.2a4.41,4.41,0,0,0,.09-.89l1-.06v.06a5,5,0,0,1-.09,1.09ZM16,169.06H15v-1h1Zm155-.63h-1v-1h1ZM16,166.05H15v-1h1Zm155-.62h-1v-1h1ZM16,163.05H15v-1h1Zm155-.63h-1v-1h1ZM16,160.05H15v-1h1Zm155-.63h-1v-1h1ZM16,157.05H15v-1h1Zm155-.63h-1v-1h1ZM16,154H15v-1h1Zm155-.62h-1v-1h1ZM16,151H15v-1h1Zm155-.63h-1v-1h1ZM16,148H15v-1h1Zm155-.63h-1v-1h1ZM16,145H15v-1h1Zm155-.63h-1v-1h1ZM16,142H15v-1h1Zm155-.62h-1v-1h1ZM16,139H15v-1h1Zm155-.63h-1v-1h1ZM16,136H15v-1h1Zm155-.63h-1v-1h1ZM16,133H15v-1h1Zm155-.63h-1v-1h1ZM16,130H15v-1h1Zm155-.62h-1v-1h1ZM16,127H15v-1h1Zm155-.63h-1v-.9l1-.11Zm-154.8-2.2-1-.3a5.2,5.2,0,0,1,.43-1l.88.48a4.17,4.17,0,0,0-.29.84Zm153.41-.53a3.77,3.77,0,0,0-.45-.78l.82-.58a4.83,4.83,0,0,1,.54,1ZM17.71,122l-.62-.78a5.2,5.2,0,0,1,.92-.6l.46.89A4.69,4.69,0,0,0,17.71,122Zm150.16-.32a4.6,4.6,0,0,0-.8-.4l.34-.93a4.6,4.6,0,0,1,1,.48ZM20.19,121l-.08-1h1v1h-1Zm145.08,0h-1v-1h1Zm-3,0h-1v-1h1Zm-3,0h-1v-1h1Zm-3,0h-1v-1h1Zm-3,0h-1v-1h1Zm-3,0h-1v-1h1Zm-3,0h-1v-1h1Zm-3,0h-1v-1h1Zm-3,0h-1v-1h1Zm-3,0h-1v-1h1Zm-3,0h-1v-1h1Zm-3,0h-1v-1h1Zm-3,0h-1v-1h1Zm-3,0h-1v-1h1Zm-3,0h-1v-1h1Zm-3,0h-1v-1h1Zm-3,0h-1v-1h1Zm-3,0h-1v-1h1Zm-3,0h-1v-1h1Zm-3,0h-1v-1h1Zm-3,0h-1v-1h1Zm-3,0h-1v-1h1Zm-3,0h-1v-1h1Zm-3,0h-1v-1h1Zm-3,0h-1v-1h1Zm-3,0h-1v-1h1Zm-3,0h-1v-1h1Zm-3,0h-1v-1h1Zm-3,0h-1v-1h1Zm-3,0h-1v-1h1Zm-3,0h-1v-1h1Zm-3,0h-1v-1h1Zm-3,0h-1v-1h1Zm-3,0h-1v-1h1Zm-3,0h-1v-1h1Zm-3,0h-1v-1h1Zm-3,0h-1v-1h1Zm-3,0h-1v-1h1Zm-3,0h-1v-1h1Zm-3,0h-1v-1h1Zm-3,0h-1v-1h1Zm-3,0h-1v-1h1Zm-3,0h-1v-1h1Zm-3,0h-1v-1h1Zm-3,0h-1v-1h1Zm-3,0h-1v-1h1Zm-3,0h-1v-1h1Zm-3,0h-1v-1h1Z"/><rect class="cls-1" x="25.22" y="130.51" width="65.69" height="30" rx="0.3"/><rect class="cls-4" x="25.22" y="130.51" width="65.69" height="30" rx="0.3"/><rect class="cls-1" x="95.59" y="130.51" width="65.69" height="30" rx="0.3"/><rect class="cls-4" x="95.59" y="130.51" width="65.69" height="30" rx="0.3"/><path class="cls-5" d="M72.72,22.43H94.39V34.52a.73.73,0,0,1-.73.72H73.45a.73.73,0,0,1-.73-.72h0Z"/><path class="cls-6" d="M73.45,17.8H93.66a.73.73,0,0,1,.73.73h0v3.9H72.72v-3.9A.73.73,0,0,1,73.45,17.8Z"/><rect class="cls-7" x="75.64" y="19.19" width="15.84" height="1.86" rx="0.36"/><path class="cls-8" d="M81.17,28.69h21.68V40.77a.73.73,0,0,1-.73.73H81.89a.72.72,0,0,1-.72-.72h0Z"/><path class="cls-6" d="M81.89,24.08H102.1a.73.73,0,0,1,.73.73h0v3.88H81.19V24.81A.72.72,0,0,1,81.89,24.08Z"/><rect class="cls-7" x="84.08" y="25.47" width="15.84" height="1.86" rx="0.36"/><path class="cls-9" d="M89.63,35h21.66V47.07a.72.72,0,0,1-.71.73H90.36a.73.73,0,0,1-.73-.73h0Z"/><path class="cls-6" d="M90.36,30.36h20.21a.72.72,0,0,1,.72.72h0V35H89.63V31.1a.73.73,0,0,1,.72-.74Z"/><circle class="cls-7" cx="105.34" cy="40.6" r="1.76"/><circle class="cls-7" cx="100.54" cy="40.6" r="1.76"/><circle class="cls-7" cx="95.59" cy="40.6" r="1.76"/><rect class="cls-7" x="92.54" y="31.75" width="15.84" height="1.86" rx="0.36"/><path class="cls-10" d="M5.14,26.22H40V45.63a1.17,1.17,0,0,1-1.17,1.17H6.31a1.17,1.17,0,0,1-1.17-1.17Z"/><path class="cls-6" d="M6.31,18.8H38.79A1.17,1.17,0,0,1,40,19.93v6.32H5.14V20a1.17,1.17,0,0,1,1.14-1.2Z"/><circle class="cls-7" cx="30.38" cy="35.23" r="2.83"/><circle class="cls-7" cx="22.67" cy="35.23" r="2.83"/><circle class="cls-7" cx="14.73" cy="35.23" r="2.83"/><rect class="cls-7" x="9.83" y="21.01" width="25.46" height="2.99" rx="0.57"/><line class="cls-11" x1="58.09" y1="130.51" x2="58.09" y2="107.89"/><polygon class="cls-3" points="61.83 108.99 58.09 102.51 54.35 108.99 61.83 108.99"/><path class="cls-11" d="M45.59,75.61H24.33a5,5,0,0,1-5-5V55.29"/><polygon class="cls-3" points="23.07 56.39 19.33 49.91 15.59 56.39 23.07 56.39"/><path class="cls-11" d="M97.34,55.29V70.61a5,5,0,0,1-5,5H69"/><polygon class="cls-3" points="93.6 56.39 97.34 49.91 101.08 56.39 93.6 56.39"/><circle class="cls-12" cx="42.11" cy="175.76" r="1.67"/><circle class="cls-13" cx="36.77" cy="175.78" r="1.67"/><circle class="cls-14" cx="31.43" cy="175.78" r="1.67"/><path class="cls-15" d="M32.64,182.47l-.95,1a.44.44,0,0,1-.62,0h0L24,176.36a.87.87,0,0,1,0-1.23h0l.95-1h0l7.71,7.69a.43.43,0,0,1,0,.61h0Z"/><path class="cls-16" d="M31.54,168.14l1,1a.44.44,0,0,1,0,.62L25,177.35h0l-1-1a.89.89,0,0,1,0-1.23h0l7-7A.43.43,0,0,1,31.54,168.14Z"/><path class="cls-15" d="M48.49,174.16l1,1a.87.87,0,0,1,0,1.23h0l-7.1,7.07a.43.43,0,0,1-.61,0h0l-1-1a.43.43,0,0,1,0-.61h0Z"/><path class="cls-16" d="M49.45,176.34l-1,.95h0l-7.58-7.59a.44.44,0,0,1,0-.62h0l1-1a.43.43,0,0,1,.61,0h0l7,7a.87.87,0,0,1,0,1.23h0Z"/><g id="ad94e297-0e86-4eaf-aac0-d146ee9aea65"><path class="cls-17" d="M54,92.24,49.31,87.4a2.56,2.56,0,0,1-.78.14,2.43,2.43,0,1,1,2.24-3.33h4.62v1.62H50.84a2.94,2.94,0,0,1-.26.57l4.33,4.46,2.34-3.57V76.11H54.1l4-4,3.94,4H58.87v8.74l5.93-9-6-6a1,1,0,0,0-1.41,0s0,0,0,0h0L42.88,84.28a1,1,0,0,0-.05,1.41l.05,0h0l14.48,14.47L52.19,95Z"/><path class="cls-18" d="M57.25,92.45V87.28l-2.34,3.58,1.72,1.84A1.76,1.76,0,0,1,57.25,92.45Z"/><path class="cls-18" d="M73.28,84.28,64.8,75.8l-5.93,9v7.61a1.91,1.91,0,0,1,.54.3l6.22-6.29a2.53,2.53,0,0,1-.31-.64H60.65V84.21h4.73a2.42,2.42,0,1,1,2.24,3.33,3,3,0,0,1-.67-.11L60.34,94.1a2.59,2.59,0,0,1,.1.62,2.43,2.43,0,1,1-4.84.44,2.18,2.18,0,0,1,0-.25,2.29,2.29,0,0,1,.13-.9L54,92.29l-1.85,2.76,5.17,5.17a1,1,0,0,0,1.41,0l0,0L73.24,85.74a1,1,0,0,0,.05-1.41s0,0-.05,0Z"/><path class="cls-19" d="M65.38,84.21H60.65v1.62h4.67a2.22,2.22,0,0,1-.12-.72A2.3,2.3,0,0,1,65.38,84.21Z"/><path class="cls-19" d="M50.84,85.83h4.55V84.21H50.77a2.14,2.14,0,0,1,.19.9A2.22,2.22,0,0,1,50.84,85.83Z"/><path class="cls-19" d="M60.34,94.1,67,87.43a2.44,2.44,0,0,1-1.32-1l-6.22,6.29A2.31,2.31,0,0,1,60.34,94.1Z"/><path class="cls-19" d="M56.68,92.7,55,90.86,50.58,86.4a2.42,2.42,0,0,1-1.27,1L54,92.24,55.72,94A2.41,2.41,0,0,1,56.68,92.7Z"/><path class="cls-1" d="M62,76.11l-3.93-4-4,4h3.15V92.45a1.71,1.71,0,0,0-.57.25,2.41,2.41,0,1,0,3.62,2.71,2.68,2.68,0,0,0,.1-.69,2.59,2.59,0,0,0-.1-.62,2.32,2.32,0,0,0-.93-1.34,1.91,1.91,0,0,0-.54-.3V76.11Zm-3.93,20a1.34,1.34,0,1,1,1.34-1.34h0a1.33,1.33,0,0,1-1.33,1.29Z"/><path class="cls-1" d="M50.58,86.4a2.94,2.94,0,0,0,.26-.57,2.22,2.22,0,0,0,.12-.72,2.14,2.14,0,0,0-.19-.9,2.41,2.41,0,1,0-2.24,3.33,2.56,2.56,0,0,0,.78-.14A2.42,2.42,0,0,0,50.58,86.4Zm-2,0a1.35,1.35,0,1,1,1.35-1.35h0a1.34,1.34,0,0,1-1.28,1.4h-.07Z"/><path class="cls-1" d="M67,87.43a3,3,0,0,0,.67.11,2.43,2.43,0,1,0-2.24-3.33,2.3,2.3,0,0,0-.18.9,2.22,2.22,0,0,0,.12.72,2.53,2.53,0,0,0,.31.64A2.46,2.46,0,0,0,67,87.43Zm.67-3.65a1.33,1.33,0,1,1-.33,0h0a1,1,0,0,1,.25,0Z"/><path class="cls-20" d="M58.08,93.38a1.34,1.34,0,1,0,1.34,1.34h0A1.34,1.34,0,0,0,58.08,93.38Z"/><circle class="cls-20" cx="48.53" cy="85.11" r="1.34"/><path class="cls-20" d="M67.62,86.45a1.35,1.35,0,1,0-1.34-1.36v0h0A1.34,1.34,0,0,0,67.62,86.45Z"/></g></g></g><g id="Text"><text class="cls-21" transform="translate(33.86 148.95) scale(0.99 1)">Subred 1</text><text class="cls-22" transform="translate(23.81 197.64) scale(0.99 1)">R<tspan class="cls-23" x="7.14" y="0">ed virtual</tspan></text><text class="cls-24" transform="translate(46.17 65.3) scale(0.98 1)">N<tspan class="cls-25" x="9.18" y="0">A</tspan><tspan class="cls-26" x="16.23" y="0">T</tspan></text><text class="cls-27" transform="translate(0.99 10.23) scale(0.98 1)">IP pública</text><text class="cls-28" transform="translate(68.15 10.23) scale(0.98 1)">Prefijo IP</text><text class="cls-21" transform="translate(104.44 148.95) scale(0.99 1)">Subred 2</text></g></svg>