<svg xmlns="http://www.w3.org/2000/svg" xmlns:xlink="http://www.w3.org/1999/xlink" viewBox="0 0 578 216.17"><defs><style>.cls-1,.cls-2{fill:#fff;}.cls-18,.cls-2{stroke:#e6e6e6;stroke-width:0.75px;}.cls-3{fill:#3c3c41;opacity:0.08;}.cls-29,.cls-3,.cls-30,.cls-31,.cls-35,.cls-36,.cls-37,.cls-38,.cls-46,.cls-47,.cls-54,.cls-55,.cls-56{isolation:isolate;}.cls-4{fill:url(#Degradado_sin_nombre);}.cls-5{fill:#b4ec36;}.cls-6{fill:#5ea0ef;}.cls-7{fill:url(#Degradado_sin_nombre_2);}.cls-8{fill:#50e6ff;}.cls-9{fill:#c3f1ff;}.cls-10{fill:#9cebff;}.cls-11{fill:url(#Degradado_sin_nombre_3);}.cls-12{fill:url(#Degradado_sin_nombre_4);}.cls-13{fill:url(#Degradado_sin_nombre_5);}.cls-14{fill:url(#Degradado_sin_nombre_6);}.cls-15{fill:url(#Degradado_sin_nombre_7);}.cls-16{fill:url(#Degradado_sin_nombre_8);}.cls-17{fill:url(#Degradado_sin_nombre_9);}.cls-18{fill:none;}.cls-19{fill:url(#Degradado_sin_nombre_10);}.cls-20{fill:url(#Degradado_sin_nombre_11);}.cls-21{fill:url(#Degradado_sin_nombre_12);}.cls-22{fill:url(#Degradado_sin_nombre_13);}.cls-23{fill:url(#Degradado_sin_nombre_14);}.cls-24{fill:url(#Degradado_sin_nombre_15);}.cls-25{fill:url(#Degradado_sin_nombre_16);}.cls-26{fill:url(#Degradado_sin_nombre_17);}.cls-27{fill:url(#Degradado_sin_nombre_18);}.cls-28{fill:url(#Degradado_sin_nombre_19);}.cls-29,.cls-30,.cls-31,.cls-35,.cls-36,.cls-37,.cls-38,.cls-46,.cls-47,.cls-54,.cls-55,.cls-56{opacity:0.5;}.cls-29{fill:url(#Degradado_sin_nombre_20);}.cls-30{fill:url(#Degradado_sin_nombre_21);}.cls-31{fill:url(#Degradado_sin_nombre_22);}.cls-32{fill:url(#Degradado_sin_nombre_23);}.cls-33{fill:url(#Degradado_sin_nombre_24);}.cls-34{fill:url(#Degradado_sin_nombre_25);}.cls-35{fill:url(#Degradado_sin_nombre_26);}.cls-36{fill:url(#Degradado_sin_nombre_27);}.cls-37{fill:url(#Degradado_sin_nombre_28);}.cls-38{fill:url(#Degradado_sin_nombre_29);}.cls-39{fill:url(#Degradado_sin_nombre_30);}.cls-40{fill:url(#Degradado_sin_nombre_31);}.cls-41{fill:url(#Degradado_sin_nombre_32);}.cls-42{fill:url(#Degradado_sin_nombre_33);}.cls-43{fill:url(#Degradado_sin_nombre_34);}.cls-44{fill:url(#Degradado_sin_nombre_35);}.cls-45{fill:url(#Degradado_sin_nombre_36);}.cls-46{fill:url(#Degradado_sin_nombre_37);}.cls-47{fill:url(#Degradado_sin_nombre_38);}.cls-48{fill:url(#Degradado_sin_nombre_39);}.cls-49{fill:url(#Degradado_sin_nombre_40);}.cls-50{fill:url(#Degradado_sin_nombre_41);}.cls-51{fill:url(#Degradado_sin_nombre_42);}.cls-52{fill:url(#Degradado_sin_nombre_43);}.cls-53{fill:url(#Degradado_sin_nombre_44);}.cls-54{fill:url(#Degradado_sin_nombre_45);}.cls-55{fill:url(#Degradado_sin_nombre_46);}.cls-56{fill:url(#Degradado_sin_nombre_47);}.cls-57{fill:#e62323;}.cls-58{fill:#e6e6e6;}.cls-59{fill:#107c10;}.cls-60{fill:#faa21d;}.cls-61{fill:url(#Degradado_sin_nombre_48);}.cls-62{fill:url(#Degradado_sin_nombre_49);}.cls-63{fill:url(#Degradado_sin_nombre_50);}.cls-64{fill:url(#Degradado_sin_nombre_51);}.cls-65{fill:url(#Degradado_sin_nombre_52);}.cls-66{fill:url(#Degradado_sin_nombre_53);}.cls-67{fill:url(#Degradado_sin_nombre_54);}.cls-68{fill:url(#Degradado_sin_nombre_55);}.cls-69{fill:url(#Degradado_sin_nombre_56);}.cls-70{fill:url(#Degradado_sin_nombre_57);}.cls-71{fill:url(#Degradado_sin_nombre_58);}.cls-72{fill:url(#Degradado_sin_nombre_59);}.cls-73{fill:url(#Degradado_sin_nombre_60);}.cls-74{fill:url(#Degradado_sin_nombre_61);}.cls-75{fill:url(#Degradado_sin_nombre_62);}.cls-76{fill:url(#Degradado_sin_nombre_63);}.cls-77{fill:url(#Degradado_sin_nombre_64);}.cls-78{fill:url(#Degradado_sin_nombre_65);}.cls-79{fill:url(#Degradado_sin_nombre_66);}.cls-80{fill:url(#Degradado_sin_nombre_67);}.cls-81{fill:url(#Degradado_sin_nombre_68);}.cls-82{fill:url(#Degradado_sin_nombre_69);}.cls-83{fill:url(#Degradado_sin_nombre_70);}.cls-84{fill:url(#Degradado_sin_nombre_71);}.cls-85{fill:url(#Degradado_sin_nombre_72);}.cls-86{fill:url(#Degradado_sin_nombre_73);}.cls-87{fill:url(#Degradado_sin_nombre_74);}.cls-88{fill:url(#Degradado_sin_nombre_75);}.cls-89{fill:url(#Degradado_sin_nombre_76);}.cls-90{fill:url(#Degradado_sin_nombre_77);}.cls-91{fill:url(#Degradado_sin_nombre_78);}.cls-92{fill:url(#Degradado_sin_nombre_79);}.cls-93{fill:url(#Degradado_sin_nombre_80);}.cls-94{fill:#6ebcdb;}.cls-95{fill:#5db4d7;}.cls-96{fill:#86d633;}.cls-103,.cls-106,.cls-97{font-size:12px;font-family:SegoeUI-Bold, Segoe UI;font-weight:700;}.cls-104,.cls-105,.cls-111,.cls-97{fill:#1e1e1e;}.cls-103,.cls-108,.cls-97{letter-spacing:0em;}.cls-98{letter-spacing:0em;}.cls-99{letter-spacing:0em;}.cls-100{letter-spacing:0.03em;}.cls-101{letter-spacing:0em;}.cls-102{letter-spacing:-0.07em;}.cls-103,.cls-106{fill:#3b3b3b;}.cls-104,.cls-105{font-size:12.19px;}.cls-104,.cls-105,.cls-111{font-family:SegoeUI, Segoe UI;}.cls-104{letter-spacing:0em;}.cls-105{letter-spacing:0em;}.cls-106{letter-spacing:0em;}.cls-107{letter-spacing:0em;}.cls-109{letter-spacing:-0.01em;}.cls-110{letter-spacing:0em;}.cls-111{font-size:11.97px;letter-spacing:0em;}.cls-112{letter-spacing:-0.07em;}.cls-113{letter-spacing:-0.07em;}</style><linearGradient id="Degradado_sin_nombre" x1="36.12" y1="210.23" x2="36.12" y2="170.82" gradientTransform="translate(0 -162.33)" gradientUnits="userSpaceOnUse"><stop offset="0" stop-color="#5e9624"/><stop offset="0.02" stop-color="#5f9724"/><stop offset="1" stop-color="#76bc2d"/></linearGradient><linearGradient id="Degradado_sin_nombre_2" x1="85.83" y1="324.45" x2="85.83" y2="312.9" gradientTransform="translate(0 -162.33)" gradientUnits="userSpaceOnUse"><stop offset="0" stop-color="#0078d4"/><stop offset="0.82" stop-color="#5ea0ef"/></linearGradient><linearGradient id="Degradado_sin_nombre_3" x1="85.83" y1="328.9" x2="85.83" y2="324.44" gradientTransform="translate(0 -162.33)" gradientUnits="userSpaceOnUse"><stop offset="0.15" stop-color="#ccc"/><stop offset="1" stop-color="#707070"/></linearGradient><linearGradient id="Degradado_sin_nombre_4" x1="142.21" y1="324.45" x2="142.21" y2="312.9" xlink:href="#Degradado_sin_nombre_2"/><linearGradient id="Degradado_sin_nombre_5" x1="142.21" y1="328.9" x2="142.21" y2="324.44" xlink:href="#Degradado_sin_nombre_3"/><linearGradient id="Degradado_sin_nombre_6" x1="197.38" y1="324.45" x2="197.38" y2="312.9" xlink:href="#Degradado_sin_nombre_2"/><linearGradient id="Degradado_sin_nombre_7" x1="197.38" y1="328.9" x2="197.38" y2="324.44" xlink:href="#Degradado_sin_nombre_3"/><linearGradient id="Degradado_sin_nombre_8" x1="252.4" y1="324.45" x2="252.4" y2="312.9" xlink:href="#Degradado_sin_nombre_2"/><linearGradient id="Degradado_sin_nombre_9" x1="252.4" y1="328.9" x2="252.4" y2="324.44" xlink:href="#Degradado_sin_nombre_3"/><linearGradient id="Degradado_sin_nombre_10" x1="81.17" y1="120.49" x2="81.17" y2="130.49" gradientTransform="matrix(1, 0, 0, -1, 0, 216.66)" gradientUnits="userSpaceOnUse"><stop offset="0" stop-color="#0078d4"/><stop offset="0.16" stop-color="#1380da"/><stop offset="0.53" stop-color="#3c91e5"/><stop offset="0.82" stop-color="#559cec"/><stop offset="1" stop-color="#5ea0ef"/></linearGradient><linearGradient id="Degradado_sin_nombre_11" x1="96.17" y1="120.49" x2="96.17" y2="130.49" xlink:href="#Degradado_sin_nombre_10"/><linearGradient id="Degradado_sin_nombre_12" x1="111.17" y1="120.49" x2="111.17" y2="130.49" xlink:href="#Degradado_sin_nombre_10"/><linearGradient id="Degradado_sin_nombre_13" x1="81.17" y1="105.49" x2="81.17" y2="115.49" xlink:href="#Degradado_sin_nombre_10"/><linearGradient id="Degradado_sin_nombre_14" x1="17.66" y1="7.99" x2="17.66" y2="17.99" xlink:href="#Degradado_sin_nombre_10"/><linearGradient id="Degradado_sin_nombre_15" x1="96.17" y1="105.49" x2="96.17" y2="115.49" xlink:href="#Degradado_sin_nombre_10"/><linearGradient id="Degradado_sin_nombre_16" x1="111.17" y1="105.49" x2="111.17" y2="115.49" xlink:href="#Degradado_sin_nombre_10"/><linearGradient id="Degradado_sin_nombre_17" x1="81.17" y1="135.49" x2="81.17" y2="145.49" xlink:href="#Degradado_sin_nombre_10"/><linearGradient id="Degradado_sin_nombre_18" x1="96.17" y1="135.49" x2="96.17" y2="145.49" xlink:href="#Degradado_sin_nombre_10"/><linearGradient id="Degradado_sin_nombre_19" x1="111.17" y1="135.49" x2="111.17" y2="145.49" xlink:href="#Degradado_sin_nombre_10"/><linearGradient id="Degradado_sin_nombre_20" x1="136.17" y1="120.49" x2="136.17" y2="130.49" xlink:href="#Degradado_sin_nombre_10"/><linearGradient id="Degradado_sin_nombre_21" x1="151.17" y1="120.49" x2="151.17" y2="130.49" xlink:href="#Degradado_sin_nombre_10"/><linearGradient id="Degradado_sin_nombre_22" x1="166.17" y1="120.49" x2="166.17" y2="130.49" xlink:href="#Degradado_sin_nombre_10"/><linearGradient id="Degradado_sin_nombre_23" x1="136.17" y1="105.49" x2="136.17" y2="115.49" xlink:href="#Degradado_sin_nombre_10"/><linearGradient id="Degradado_sin_nombre_24" x1="151.17" y1="105.49" x2="151.17" y2="115.49" xlink:href="#Degradado_sin_nombre_10"/><linearGradient id="Degradado_sin_nombre_25" x1="166.17" y1="105.49" x2="166.17" y2="115.49" xlink:href="#Degradado_sin_nombre_10"/><linearGradient id="Degradado_sin_nombre_26" x1="136.17" y1="135.49" x2="136.17" y2="145.49" xlink:href="#Degradado_sin_nombre_10"/><linearGradient id="Degradado_sin_nombre_27" x1="17.66" y1="22.99" x2="17.66" y2="32.99" xlink:href="#Degradado_sin_nombre_10"/><linearGradient id="Degradado_sin_nombre_28" x1="151.17" y1="135.49" x2="151.17" y2="145.49" xlink:href="#Degradado_sin_nombre_10"/><linearGradient id="Degradado_sin_nombre_29" x1="166.17" y1="135.49" x2="166.17" y2="145.49" xlink:href="#Degradado_sin_nombre_10"/><linearGradient id="Degradado_sin_nombre_30" x1="191.17" y1="120.49" x2="191.17" y2="130.49" xlink:href="#Degradado_sin_nombre_10"/><linearGradient id="Degradado_sin_nombre_31" x1="206.17" y1="120.49" x2="206.17" y2="130.49" xlink:href="#Degradado_sin_nombre_10"/><linearGradient id="Degradado_sin_nombre_32" x1="221.17" y1="120.49" x2="221.17" y2="130.49" xlink:href="#Degradado_sin_nombre_10"/><linearGradient id="Degradado_sin_nombre_33" x1="191.17" y1="105.49" x2="191.17" y2="115.49" xlink:href="#Degradado_sin_nombre_10"/><linearGradient id="Degradado_sin_nombre_34" x1="206.17" y1="105.49" x2="206.17" y2="115.49" xlink:href="#Degradado_sin_nombre_10"/><linearGradient id="Degradado_sin_nombre_35" x1="221.17" y1="105.49" x2="221.17" y2="115.49" xlink:href="#Degradado_sin_nombre_10"/><linearGradient id="Degradado_sin_nombre_36" x1="191.17" y1="135.49" x2="191.17" y2="145.49" xlink:href="#Degradado_sin_nombre_10"/><linearGradient id="Degradado_sin_nombre_37" x1="206.17" y1="135.49" x2="206.17" y2="145.49" xlink:href="#Degradado_sin_nombre_10"/><linearGradient id="Degradado_sin_nombre_38" x1="221.17" y1="135.49" x2="221.17" y2="145.49" xlink:href="#Degradado_sin_nombre_10"/><linearGradient id="Degradado_sin_nombre_39" x1="246.17" y1="120.49" x2="246.17" y2="130.49" xlink:href="#Degradado_sin_nombre_10"/><linearGradient id="Degradado_sin_nombre_40" x1="261.17" y1="120.49" x2="261.17" y2="130.49" xlink:href="#Degradado_sin_nombre_10"/><linearGradient id="Degradado_sin_nombre_41" x1="276.17" y1="120.49" x2="276.17" y2="130.49" xlink:href="#Degradado_sin_nombre_10"/><linearGradient id="Degradado_sin_nombre_42" x1="246.17" y1="105.49" x2="246.17" y2="115.49" xlink:href="#Degradado_sin_nombre_10"/><linearGradient id="Degradado_sin_nombre_43" x1="261.17" y1="105.49" x2="261.17" y2="115.49" xlink:href="#Degradado_sin_nombre_10"/><linearGradient id="Degradado_sin_nombre_44" x1="276.17" y1="105.49" x2="276.17" y2="115.49" xlink:href="#Degradado_sin_nombre_10"/><linearGradient id="Degradado_sin_nombre_45" x1="246.17" y1="135.49" x2="246.17" y2="145.49" xlink:href="#Degradado_sin_nombre_10"/><linearGradient id="Degradado_sin_nombre_46" x1="261.17" y1="135.49" x2="261.17" y2="145.49" xlink:href="#Degradado_sin_nombre_10"/><linearGradient id="Degradado_sin_nombre_47" x1="276.17" y1="135.49" x2="276.17" y2="145.49" xlink:href="#Degradado_sin_nombre_10"/><linearGradient id="Degradado_sin_nombre_48" x1="308.33" y1="324.45" x2="308.33" y2="312.9" xlink:href="#Degradado_sin_nombre_2"/><linearGradient id="Degradado_sin_nombre_49" x1="308.33" y1="328.9" x2="308.33" y2="324.44" xlink:href="#Degradado_sin_nombre_3"/><linearGradient id="Degradado_sin_nombre_50" x1="364.71" y1="324.45" x2="364.71" y2="312.9" xlink:href="#Degradado_sin_nombre_2"/><linearGradient id="Degradado_sin_nombre_51" x1="364.69" y1="328.9" x2="364.69" y2="324.44" xlink:href="#Degradado_sin_nombre_3"/><linearGradient id="Degradado_sin_nombre_52" x1="419.88" y1="324.45" x2="419.88" y2="312.9" xlink:href="#Degradado_sin_nombre_2"/><linearGradient id="Degradado_sin_nombre_53" x1="419.88" y1="328.9" x2="419.88" y2="324.44" xlink:href="#Degradado_sin_nombre_3"/><linearGradient id="Degradado_sin_nombre_54" x1="474.9" y1="324.45" x2="474.9" y2="312.9" xlink:href="#Degradado_sin_nombre_2"/><linearGradient id="Degradado_sin_nombre_55" x1="474.9" y1="328.9" x2="474.9" y2="324.44" xlink:href="#Degradado_sin_nombre_3"/><linearGradient id="Degradado_sin_nombre_56" x1="303.67" y1="120.49" x2="303.67" y2="130.49" xlink:href="#Degradado_sin_nombre_10"/><linearGradient id="Degradado_sin_nombre_57" x1="318.67" y1="120.49" x2="318.67" y2="130.49" xlink:href="#Degradado_sin_nombre_10"/><linearGradient id="Degradado_sin_nombre_58" x1="333.67" y1="120.49" x2="333.67" y2="130.49" xlink:href="#Degradado_sin_nombre_10"/><linearGradient id="Degradado_sin_nombre_59" x1="303.67" y1="105.49" x2="303.67" y2="115.49" xlink:href="#Degradado_sin_nombre_10"/><linearGradient id="Degradado_sin_nombre_60" x1="318.67" y1="105.49" x2="318.67" y2="115.49" xlink:href="#Degradado_sin_nombre_10"/><linearGradient id="Degradado_sin_nombre_61" x1="333.67" y1="105.49" x2="333.67" y2="115.49" xlink:href="#Degradado_sin_nombre_10"/><linearGradient id="Degradado_sin_nombre_62" x1="303.67" y1="135.49" x2="303.67" y2="145.49" xlink:href="#Degradado_sin_nombre_10"/><linearGradient id="Degradado_sin_nombre_63" x1="318.67" y1="135.49" x2="318.67" y2="145.49" xlink:href="#Degradado_sin_nombre_10"/><linearGradient id="Degradado_sin_nombre_64" x1="333.67" y1="135.49" x2="333.67" y2="145.49" xlink:href="#Degradado_sin_nombre_10"/><linearGradient id="Degradado_sin_nombre_65" x1="358.67" y1="105.49" x2="358.67" y2="115.49" xlink:href="#Degradado_sin_nombre_10"/><linearGradient id="Degradado_sin_nombre_66" x1="373.67" y1="105.49" x2="373.67" y2="115.49" xlink:href="#Degradado_sin_nombre_10"/><linearGradient id="Degradado_sin_nombre_67" x1="388.67" y1="105.49" x2="388.67" y2="115.49" xlink:href="#Degradado_sin_nombre_10"/><linearGradient id="Degradado_sin_nombre_68" x1="413.67" y1="120.49" x2="413.67" y2="130.49" xlink:href="#Degradado_sin_nombre_10"/><linearGradient id="Degradado_sin_nombre_69" x1="428.67" y1="120.49" x2="428.67" y2="130.49" xlink:href="#Degradado_sin_nombre_10"/><linearGradient id="Degradado_sin_nombre_70" x1="443.67" y1="120.49" x2="443.67" y2="130.49" xlink:href="#Degradado_sin_nombre_10"/><linearGradient id="Degradado_sin_nombre_71" x1="413.67" y1="105.49" x2="413.67" y2="115.49" xlink:href="#Degradado_sin_nombre_10"/><linearGradient id="Degradado_sin_nombre_72" x1="428.67" y1="105.49" x2="428.67" y2="115.49" xlink:href="#Degradado_sin_nombre_10"/><linearGradient id="Degradado_sin_nombre_73" x1="443.67" y1="105.49" x2="443.67" y2="115.49" xlink:href="#Degradado_sin_nombre_10"/><linearGradient id="Degradado_sin_nombre_74" x1="413.67" y1="135.49" x2="413.67" y2="145.49" xlink:href="#Degradado_sin_nombre_10"/><linearGradient id="Degradado_sin_nombre_75" x1="468.67" y1="120.49" x2="468.67" y2="130.49" xlink:href="#Degradado_sin_nombre_10"/><linearGradient id="Degradado_sin_nombre_76" x1="483.67" y1="120.49" x2="483.67" y2="130.49" xlink:href="#Degradado_sin_nombre_10"/><linearGradient id="Degradado_sin_nombre_77" x1="498.67" y1="120.49" x2="498.67" y2="130.49" xlink:href="#Degradado_sin_nombre_10"/><linearGradient id="Degradado_sin_nombre_78" x1="468.67" y1="105.49" x2="468.67" y2="115.49" xlink:href="#Degradado_sin_nombre_10"/><linearGradient id="Degradado_sin_nombre_79" x1="483.67" y1="105.49" x2="483.67" y2="115.49" xlink:href="#Degradado_sin_nombre_10"/><linearGradient id="Degradado_sin_nombre_80" x1="498.67" y1="105.49" x2="498.67" y2="115.49" xlink:href="#Degradado_sin_nombre_10"/></defs><title>OJ104903204</title><g id="Target"><rect class="cls-1" width="578" height="216.17"/><rect class="cls-2" x="291.17" y="1.17" width="285.67" height="175"/><rect class="cls-2" x="1.17" y="1.17" width="285" height="175"/><rect class="cls-1" x="291.83" y="1.17" width="285" height="55"/><rect class="cls-3" x="291.83" y="1.17" width="285" height="55"/><rect class="cls-1" x="1.17" y="1.17" width="285" height="55"/><rect class="cls-3" x="1.17" y="1.17" width="285" height="55"/><path class="cls-4" d="M19.47,26.6,35.31,10.76a1.15,1.15,0,0,1,1.61,0h0L52.78,26.6a1.15,1.15,0,0,1,0,1.61h0L36.92,44.09a1.14,1.14,0,0,1-1.59,0L19.47,28.23a1.13,1.13,0,0,1,0-1.6h0Z"/><path class="cls-5" d="M40.28,18l-4-4A.24.24,0,0,0,36,14l-4,4a.19.19,0,0,0,0,.27.18.18,0,0,0,.19.07h2.34a.21.21,0,0,1,.21.21V22.3a.21.21,0,0,0,.21.21H37.4a.21.21,0,0,0,.21-.21V18.52a.21.21,0,0,1,.21-.21h2.34a.19.19,0,0,0,.23-.13A.19.19,0,0,0,40.28,18Z"/><path class="cls-5" d="M26.68,22.9l-4,4a.19.19,0,0,0,0,.27h0l4,4a.22.22,0,0,0,.3,0h0A.22.22,0,0,0,27,31V28.72a.23.23,0,0,1,.21-.21H31a.2.2,0,0,0,.19-.19h0V25.81a.2.2,0,0,0-.07-.26H27.31a.19.19,0,0,1-.21-.17h0V23.05a.22.22,0,0,0-.13-.28A.23.23,0,0,0,26.68,22.9Z"/><path class="cls-5" d="M45.72,31.19l4-4a.19.19,0,0,0,0-.27h0l-4-4a.22.22,0,0,0-.3,0,.28.28,0,0,0,0,.12v2.36a.18.18,0,0,1-.17.19H41.4a.2.2,0,0,0-.19.19v2.5a.19.19,0,0,0,.17.21h3.79a.21.21,0,0,1,.21.21v2.34a.2.2,0,0,0,.22.18h0A.16.16,0,0,0,45.72,31.19Z"/><path class="cls-1" d="M41.4,27.42a5.27,5.27,0,1,0-6.69,5v1.79a3.23,3.23,0,1,0,4.35,1.39h0a3.33,3.33,0,0,0-1.39-1.39V32.36A5.24,5.24,0,0,0,41.4,27.42Z"/><circle id="e99c3387-15c3-4f28-bd4b-cb209b430e06" class="cls-6" cx="36.14" cy="27.4" r="3.06"/><rect class="cls-7" x="77.17" y="150.57" width="17.32" height="11.55" rx="0.58"/><polygon class="cls-8" points="88.71 154.66 88.71 158.02 85.83 159.71 85.83 156.34 88.71 154.66"/><polygon class="cls-9" points="88.71 154.66 85.83 156.35 82.94 154.66 85.83 152.98 88.71 154.66"/><polygon class="cls-10" points="85.83 156.35 85.83 159.71 82.94 158.02 82.94 154.66 85.83 156.35"/><polygon class="cls-9" points="82.94 158.02 85.83 156.34 85.83 159.71 82.94 158.02"/><polygon class="cls-10" points="88.71 158.02 85.83 156.34 85.83 159.71 88.71 158.02"/><path class="cls-11" d="M89.3,165.61c-1.71-.27-1.78-1.5-1.78-3.49h-3.4c0,2-.05,3.22-1.77,3.49a1,1,0,0,0-.85,1h8.66A1,1,0,0,0,89.3,165.61Z"/><rect class="cls-12" x="133.55" y="150.57" width="17.32" height="11.55" rx="0.58"/><polygon class="cls-8" points="145.09 154.66 145.09 158.02 142.21 159.71 142.21 156.34 145.09 154.66"/><polygon class="cls-9" points="145.09 154.66 142.21 156.35 139.32 154.66 142.21 152.98 145.09 154.66"/><polygon class="cls-10" points="142.21 156.35 142.21 159.71 139.32 158.02 139.32 154.66 142.21 156.35"/><polygon class="cls-9" points="139.32 158.02 142.21 156.34 142.21 159.71 139.32 158.02"/><polygon class="cls-10" points="145.09 158.02 142.21 156.34 142.21 159.71 145.09 158.02"/><path class="cls-13" d="M145.68,165.61c-1.71-.27-1.78-1.5-1.78-3.49h-3.39c0,2-.06,3.22-1.77,3.49a1,1,0,0,0-.86,1h8.66A1,1,0,0,0,145.68,165.61Z"/><rect class="cls-14" x="188.72" y="150.57" width="17.32" height="11.55" rx="0.58"/><polygon class="cls-8" points="200.26 154.66 200.26 158.02 197.38 159.71 197.38 156.34 200.26 154.66"/><polygon class="cls-9" points="200.26 154.66 197.38 156.35 194.49 154.66 197.38 152.98 200.26 154.66"/><polygon class="cls-10" points="197.38 156.35 197.38 159.71 194.49 158.02 194.49 154.66 197.38 156.35"/><polygon class="cls-9" points="194.49 158.02 197.38 156.34 197.38 159.71 194.49 158.02"/><polygon class="cls-10" points="200.26 158.02 197.38 156.34 197.38 159.71 200.26 158.02"/><path class="cls-15" d="M200.85,165.61c-1.71-.27-1.78-1.5-1.78-3.49h-3.4c0,2-.06,3.22-1.77,3.49a1,1,0,0,0-.85,1h8.65A1,1,0,0,0,200.85,165.61Z"/><rect class="cls-16" x="243.74" y="150.57" width="17.32" height="11.55" rx="0.58"/><polygon class="cls-8" points="255.28 154.66 255.28 158.02 252.4 159.71 252.4 156.34 255.28 154.66"/><polygon class="cls-9" points="255.28 154.66 252.4 156.35 249.51 154.66 252.4 152.98 255.28 154.66"/><polygon class="cls-10" points="252.4 156.35 252.4 159.71 249.51 158.02 249.51 154.66 252.4 156.35"/><polygon class="cls-9" points="249.51 158.02 252.4 156.34 252.4 159.71 249.51 158.02"/><polygon class="cls-10" points="255.28 158.02 252.4 156.34 252.4 159.71 255.28 158.02"/><path class="cls-17" d="M255.87,165.61c-1.71-.27-1.78-1.5-1.78-3.49h-3.4c0,2-.05,3.22-1.77,3.49a1,1,0,0,0-.85,1h8.66A1,1,0,0,0,255.87,165.61Z"/><line class="cls-18" x1="1.17" y1="121.17" x2="286.17" y2="121.17"/><circle class="cls-19" cx="81.17" cy="91.17" r="5"/><circle class="cls-20" cx="96.17" cy="91.17" r="5"/><circle class="cls-21" cx="111.17" cy="91.17" r="5"/><circle class="cls-22" cx="81.17" cy="106.17" r="5"/><circle class="cls-23" cx="17.66" cy="203.67" r="5"/><circle class="cls-24" cx="96.17" cy="106.17" r="5"/><circle class="cls-25" cx="111.17" cy="106.17" r="5"/><circle class="cls-26" cx="81.17" cy="76.17" r="5"/><circle class="cls-27" cx="96.17" cy="76.17" r="5"/><circle class="cls-28" cx="111.17" cy="76.17" r="5"/><circle class="cls-29" cx="136.17" cy="91.17" r="5"/><circle class="cls-30" cx="151.17" cy="91.17" r="5"/><circle class="cls-31" cx="166.17" cy="91.17" r="5"/><circle class="cls-32" cx="136.17" cy="106.17" r="5"/><circle class="cls-33" cx="151.17" cy="106.17" r="5"/><circle class="cls-34" cx="166.17" cy="106.17" r="5"/><circle class="cls-35" cx="136.17" cy="76.17" r="5"/><circle class="cls-36" cx="17.66" cy="188.67" r="5"/><circle class="cls-37" cx="151.17" cy="76.17" r="5"/><circle class="cls-38" cx="166.17" cy="76.17" r="5"/><circle class="cls-39" cx="191.17" cy="91.17" r="5"/><circle class="cls-40" cx="206.17" cy="91.17" r="5"/><circle class="cls-41" cx="221.17" cy="91.17" r="5"/><circle class="cls-42" cx="191.17" cy="106.17" r="5"/><circle class="cls-43" cx="206.17" cy="106.17" r="5"/><circle class="cls-44" cx="221.17" cy="106.17" r="5"/><circle class="cls-45" cx="191.17" cy="76.17" r="5"/><circle class="cls-46" cx="206.17" cy="76.17" r="5"/><circle class="cls-47" cx="221.17" cy="76.17" r="5"/><circle class="cls-48" cx="246.17" cy="91.17" r="5"/><circle class="cls-49" cx="261.17" cy="91.17" r="5"/><circle class="cls-50" cx="276.17" cy="91.17" r="5"/><circle class="cls-51" cx="246.17" cy="106.17" r="5"/><circle class="cls-52" cx="261.17" cy="106.17" r="5"/><circle class="cls-53" cx="276.17" cy="106.17" r="5"/><circle class="cls-54" cx="246.17" cy="76.17" r="5"/><circle class="cls-55" cx="261.17" cy="76.17" r="5"/><circle class="cls-56" cx="276.17" cy="76.17" r="5"/><rect class="cls-57" x="76.53" y="131.17" width="40" height="10"/><rect class="cls-58" x="131.72" y="131.17" width="40" height="10"/><rect class="cls-59" x="131.72" y="131.17" width="10" height="10"/><rect class="cls-58" x="186.72" y="131.17" width="40" height="10"/><rect class="cls-60" x="186.72" y="131.17" width="25" height="10"/><rect class="cls-58" x="241.72" y="131.17" width="40" height="10"/><rect class="cls-59" x="241.72" y="131.17" width="25" height="10"/><line class="cls-18" x1="71.17" y1="56.17" x2="71.17" y2="176.17"/><line class="cls-18" x1="125.04" y1="56.17" x2="125.04" y2="176.17"/><line class="cls-18" x1="178.92" y1="56.17" x2="178.92" y2="176.17"/><line class="cls-18" x1="232.79" y1="56.17" x2="232.79" y2="176.17"/><rect class="cls-61" x="299.67" y="150.57" width="17.32" height="11.55" rx="0.58"/><polygon class="cls-8" points="311.21 154.66 311.21 158.02 308.33 159.71 308.33 156.34 311.21 154.66"/><polygon class="cls-9" points="311.21 154.66 308.33 156.35 305.44 154.66 308.33 152.98 311.21 154.66"/><polygon class="cls-10" points="308.33 156.35 308.33 159.71 305.44 158.02 305.44 154.66 308.33 156.35"/><polygon class="cls-9" points="305.44 158.02 308.33 156.34 308.33 159.71 305.44 158.02"/><polygon class="cls-10" points="311.21 158.02 308.33 156.34 308.33 159.71 311.21 158.02"/><path class="cls-62" d="M311.8,165.61c-1.71-.27-1.78-1.5-1.78-3.49h-3.4c0,2-.05,3.22-1.77,3.49a1,1,0,0,0-.85,1h8.66A1,1,0,0,0,311.8,165.61Z"/><rect class="cls-63" x="356.05" y="150.57" width="17.32" height="11.55" rx="0.58"/><polygon class="cls-8" points="367.6 154.66 367.6 158.02 364.71 159.71 364.71 156.34 367.6 154.66"/><polygon class="cls-9" points="367.6 154.66 364.71 156.35 361.82 154.66 364.71 152.98 367.6 154.66"/><polygon class="cls-10" points="364.71 156.35 364.71 159.71 361.82 158.02 361.82 154.66 364.71 156.35"/><polygon class="cls-9" points="361.82 158.02 364.71 156.34 364.71 159.71 361.82 158.02"/><polygon class="cls-10" points="367.6 158.02 364.71 156.34 364.71 159.71 367.6 158.02"/><path class="cls-64" d="M368.18,165.61c-1.71-.27-1.78-1.5-1.78-3.49H363c0,2-.06,3.22-1.77,3.49a1,1,0,0,0-.86,1H369A1,1,0,0,0,368.18,165.61Z"/><rect class="cls-65" x="411.22" y="150.57" width="17.32" height="11.55" rx="0.58"/><polygon class="cls-8" points="422.76 154.66 422.76 158.02 419.88 159.71 419.88 156.34 422.76 154.66"/><polygon class="cls-9" points="422.76 154.66 419.88 156.35 416.99 154.66 419.88 152.98 422.76 154.66"/><polygon class="cls-10" points="419.88 156.35 419.88 159.71 416.99 158.02 416.99 154.66 419.88 156.35"/><polygon class="cls-9" points="416.99 158.02 419.88 156.34 419.88 159.71 416.99 158.02"/><polygon class="cls-10" points="422.76 158.02 419.88 156.34 419.88 159.71 422.76 158.02"/><path class="cls-66" d="M423.35,165.61c-1.71-.27-1.78-1.5-1.78-3.49h-3.4c0,2-.06,3.22-1.77,3.49a1,1,0,0,0-.85,1h8.65A1,1,0,0,0,423.35,165.61Z"/><rect class="cls-67" x="466.24" y="150.57" width="17.32" height="11.55" rx="0.58"/><polygon class="cls-8" points="477.78 154.66 477.78 158.02 474.9 159.71 474.9 156.34 477.78 154.66"/><polygon class="cls-9" points="477.78 154.66 474.9 156.35 472.01 154.66 474.9 152.98 477.78 154.66"/><polygon class="cls-10" points="474.9 156.35 474.9 159.71 472.01 158.02 472.01 154.66 474.9 156.35"/><polygon class="cls-9" points="472.01 158.02 474.9 156.34 474.9 159.71 472.01 158.02"/><polygon class="cls-10" points="477.78 158.02 474.9 156.34 474.9 159.71 477.78 158.02"/><path class="cls-68" d="M478.37,165.61c-1.71-.27-1.78-1.5-1.78-3.49h-3.4c0,2-.05,3.22-1.77,3.49a1,1,0,0,0-.85,1h8.66A1,1,0,0,0,478.37,165.61Z"/><line class="cls-18" x1="291.17" y1="121.17" x2="576.83" y2="121.17"/><circle class="cls-69" cx="303.67" cy="91.17" r="5"/><circle class="cls-70" cx="318.67" cy="91.17" r="5"/><circle class="cls-71" cx="333.67" cy="91.17" r="5"/><circle class="cls-72" cx="303.67" cy="106.17" r="5"/><circle class="cls-73" cx="318.67" cy="106.17" r="5"/><circle class="cls-74" cx="333.67" cy="106.17" r="5"/><circle class="cls-75" cx="303.67" cy="76.17" r="5"/><circle class="cls-76" cx="318.67" cy="76.17" r="5"/><circle class="cls-77" cx="333.67" cy="76.17" r="5"/><circle class="cls-78" cx="358.67" cy="106.17" r="5"/><circle class="cls-79" cx="373.67" cy="106.17" r="5"/><circle class="cls-80" cx="388.67" cy="106.17" r="5"/><circle class="cls-81" cx="413.67" cy="91.17" r="5"/><circle class="cls-82" cx="428.67" cy="91.17" r="5"/><circle class="cls-83" cx="443.67" cy="91.17" r="5"/><circle class="cls-84" cx="413.67" cy="106.17" r="5"/><circle class="cls-85" cx="428.67" cy="106.17" r="5"/><circle class="cls-86" cx="443.67" cy="106.17" r="5"/><circle class="cls-87" cx="413.67" cy="76.17" r="5"/><circle class="cls-88" cx="468.67" cy="91.17" r="5"/><circle class="cls-89" cx="483.67" cy="91.17" r="5"/><circle class="cls-90" cx="498.67" cy="91.17" r="5"/><circle class="cls-91" cx="468.67" cy="106.17" r="5"/><circle class="cls-92" cx="483.67" cy="106.17" r="5"/><circle class="cls-93" cx="498.67" cy="106.17" r="5"/><rect class="cls-59" x="299.03" y="131.17" width="40" height="10"/><rect class="cls-58" x="354.22" y="131.17" width="40" height="10"/><rect class="cls-59" x="354.22" y="131.17" width="10" height="10"/><rect class="cls-58" x="409.22" y="131.17" width="40" height="10"/><rect class="cls-59" x="409.22" y="131.17" width="25" height="10"/><rect class="cls-58" x="464.22" y="131.17" width="40" height="10"/><rect class="cls-59" x="464.22" y="131.17" width="25" height="10"/><line class="cls-18" x1="347.54" y1="56.17" x2="347.54" y2="176.17"/><line class="cls-18" x1="401.42" y1="56.17" x2="401.42" y2="176.17"/><line class="cls-18" x1="455.29" y1="56.17" x2="455.29" y2="176.17"/><line class="cls-18" x1="511.83" y1="56.17" x2="511.83" y2="176.17"/><g id="ad94e297-0e86-4eaf-aac0-d146ee9aea65"><path class="cls-94" d="M313.87,35.34,308.73,30a2.45,2.45,0,0,1-.85.15,2.66,2.66,0,1,1,2.45-3.64h5.07v1.77h-5a4.51,4.51,0,0,1-.29.63l4.75,4.89,2.57-3.91V17.66H314l4.36-4.42,4.33,4.42h-3.46v9.58l6.5-9.92-6.55-6.56a1.15,1.15,0,0,0-1.61,0h0L301.68,26.61a1.15,1.15,0,0,0,0,1.61h0l15.87,15.87-5.67-5.67Z"/><path class="cls-95" d="M317.44,35.57V29.9l-2.57,3.93,1.89,2A1.88,1.88,0,0,1,317.44,35.57Z"/><path class="cls-95" d="M335,26.61l-9.3-9.29-6.5,9.92v8.35a2.25,2.25,0,0,1,.59.32l6.82-6.9a3,3,0,0,1-.34-.7h-5.12V26.54h5.2a2.64,2.64,0,1,1,2.45,3.64,2.58,2.58,0,0,1-.73-.11l-7.26,7.31a2.25,2.25,0,0,1,.11.68,2.66,2.66,0,0,1-5.32.21h0a2.44,2.44,0,0,1,.15-1l-1.89-1.89-2,3,5.67,5.67a1.14,1.14,0,0,0,1.59,0L335,28.22a1.13,1.13,0,0,0,0-1.6h0Z"/><path class="cls-58" d="M326.36,26.54h-5.2v1.77h5.12a2.67,2.67,0,0,1-.13-.79A2.37,2.37,0,0,1,326.36,26.54Z"/><path class="cls-58" d="M310.41,28.31h5V26.54h-5.07a2.46,2.46,0,0,1,.21,1A2.9,2.9,0,0,1,310.41,28.31Z"/><path class="cls-58" d="M320.82,37.38l7.26-7.31A2.62,2.62,0,0,1,326.62,29l-6.82,6.9A2.54,2.54,0,0,1,320.82,37.38Z"/><path class="cls-58" d="M316.81,35.85l-1.89-2L310.12,29a2.67,2.67,0,0,1-1.39,1l5.14,5.31,1.89,1.89A2.65,2.65,0,0,1,316.81,35.85Z"/><path class="cls-1" d="M322.65,17.66l-4.31-4.42L314,17.66h3.46V35.57a2.09,2.09,0,0,0-.63.28,2.59,2.59,0,0,0-1.05,1.44,2.64,2.64,0,0,0,5.06,1.53h0a2.79,2.79,0,0,0,.11-.76,2.25,2.25,0,0,0-.11-.68,2.49,2.49,0,0,0-1-1.47,2.25,2.25,0,0,0-.59-.32V17.66Zm-4.31,21.88a1.48,1.48,0,1,1,1.48-1.48h0a1.48,1.48,0,0,1-1.48,1.48Z"/><path class="cls-1" d="M310.12,28.94a4.51,4.51,0,0,0,.29-.63,2.67,2.67,0,0,0,.13-.79,2.46,2.46,0,0,0-.21-1,2.65,2.65,0,1,0-2.45,3.64,2.45,2.45,0,0,0,.85-.15A2.69,2.69,0,0,0,310.12,28.94Zm-2.24,0a1.48,1.48,0,1,1,1.47-1.49h0A1.47,1.47,0,0,1,308,29h-.07Z"/><path class="cls-1" d="M328.08,30.07a2.58,2.58,0,0,0,.73.11,2.66,2.66,0,1,0-2.45-3.64,2.46,2.46,0,0,0-.21,1,2.67,2.67,0,0,0,.13.79,3,3,0,0,0,.34.7A2.65,2.65,0,0,0,328.08,30.07Zm.73-4a1.47,1.47,0,1,1-.33,0A.92.92,0,0,1,328.81,26.07Z"/><path class="cls-96" d="M318.34,36.59a1.48,1.48,0,1,0,1.48,1.48h0a1.47,1.47,0,0,0-1.47-1.47Z"/><circle class="cls-96" cx="307.88" cy="27.52" r="1.47"/><path class="cls-96" d="M328.81,29a1.47,1.47,0,1,0-1.47-1.47h0A1.47,1.47,0,0,0,328.81,29Z"/></g></g><g id="Text"><text class="cls-97" transform="translate(64.34 18.36)">Equilibrador de ca<tspan class="cls-98" x="102.5" y="0">r</tspan><tspan class="cls-99" x="107.24" y="0">ga</tspan></text><text class="cls-97" transform="translate(343.11 24.38)">Vi<tspan class="cls-100" x="11.44" y="0">r</tspan><tspan x="16.57" y="0">tual Net</tspan><tspan class="cls-101" x="62.42" y="0">w</tspan><tspan class="cls-99" x="71.94" y="0">ork N</tspan><tspan class="cls-102" x="103.61" y="0">A</tspan><tspan x="111.22" y="0">T</tspan></text><text class="cls-103" transform="translate(343.11 38.53)">SN<tspan class="cls-102" x="16.23" y="0">A</tspan><tspan x="23.84" y="0">T salien</tspan><tspan class="cls-98" x="66.59" y="0">t</tspan><tspan class="cls-99" x="71.22" y="0">e a petición</tspan></text><text class="cls-104" transform="translate(98.14 160.64) scale(0.99 1)">VM</text><text class="cls-104" transform="translate(154.61 160.64) scale(0.99 1)">VM</text><text class="cls-104" transform="translate(209.7 160.64) scale(0.99 1)">VM</text><text class="cls-104" transform="translate(264.7 160.64) scale(0.99 1)">VM</text><text class="cls-104" transform="translate(320.63 160.64) scale(0.99 1)">VM</text><text class="cls-104" transform="translate(377.08 160.64) scale(0.99 1)">VM</text><text class="cls-104" transform="translate(432.04 160.64) scale(0.99 1)">VM</text><text class="cls-104" transform="translate(487.22 160.64) scale(0.99 1)">VM</text><text class="cls-105" transform="translate(7.85 95.21) scale(0.99 1)">Asignación</text><text class="cls-105" transform="translate(11.26 141.14) scale(0.99 1)">Demanda</text><text class="cls-105" transform="translate(515.06 95.27) scale(0.99 1)">Asignación</text><text class="cls-105" transform="translate(518.42 140.19) scale(0.99 1)">Demanda</text><text class="cls-106" transform="translate(64.26 33.01)">Un SN<tspan class="cls-102" x="35.52" y="0">A</tspan><tspan x="43.13" y="0">T de salida p</tspan><tspan class="cls-107" x="114.05" y="0">r</tspan><tspan class="cls-108" x="118.79" y="0">easignado </tspan><tspan class="cls-109"><tspan x="0" y="14.4">b</tspan><tspan class="cls-108" x="7.34" y="14.4">asado en g</tspan><tspan class="cls-110" x="68.22" y="14.4">r</tspan><tspan class="cls-108" x="73.04" y="14.4">upos de LB</tspan></tspan></text><text class="cls-111" transform="translate(26.89 192.89)">Puerto SN<tspan class="cls-112" x="53.23" y="0">A</tspan><tspan x="60.05" y="0">T sin usar asignado previamente</tspan></text><text class="cls-111" transform="translate(26.89 208.68)">Puertos SN<tspan class="cls-113" x="58.27" y="0">A</tspan><tspan x="65.1" y="0">T usados</tspan></text></g></svg>