<svg xmlns="http://www.w3.org/2000/svg" xmlns:xlink="http://www.w3.org/1999/xlink" viewBox="0 0 475.66 150.2"><defs><style>.cls-1{fill:#505050;}.cls-12,.cls-2{fill:#fff;}.cls-3,.cls-9{fill:#ebebeb;}.cls-13,.cls-4{fill:#0072c6;}.cls-5{fill:#d2d2d2;}.cls-6{fill:none;}.cls-10,.cls-6,.cls-9{stroke:#000;}.cls-10,.cls-11,.cls-12,.cls-13,.cls-6,.cls-9{stroke-miterlimit:10;}.cls-7{fill:#1a1a1f;}.cls-8{fill:#0078d4;}.cls-9{stroke-width:0.75px;}.cls-10,.cls-12,.cls-13{stroke-width:0.05px;}.cls-11{fill:#1e1e1e;stroke:#1e1e1e;stroke-width:0.06px;}.cls-12{stroke:#fff;}.cls-13{stroke:#0072c6;}</style><symbol id="New_Symbol_44" data-name="New Symbol 44" viewBox="0 0 20 20"><circle class="cls-1" cx="10" cy="10" r="10"/><path class="cls-2" d="M12,14V8.58h1.25V7.45H12V5.6H10.65V7.42H6.85V8.56q.51.58,1.05,1.26a12.66,12.66,0,0,1,1,1.38c.29.47.64.94.93,1.41A13,13,0,0,1,10.55,14ZM10.65,8.58v3.5a19.76,19.76,0,0,0-1.26-2C9,9.51,8.58,9,8.22,8.56Z"/></symbol><symbol id="New_Symbol_43" data-name="New Symbol 43" viewBox="0 0 20 20"><circle class="cls-1" cx="10" cy="10" r="10"/><path class="cls-2" d="M7.39,5.88V7.16a3,3,0,0,1,1.85-.65,2.19,2.19,0,0,1,1.34.38,1.23,1.23,0,0,1,.5,1c0,1-.73,1.43-2.18,1.43H8.24v1.12h.63c1.29,0,1.94.45,1.94,1.35S10.3,13,9.29,13a2.48,2.48,0,0,1-1.58-.6v1.23a4.08,4.08,0,0,0,2,.48,2.64,2.64,0,0,0,1.79-.56,1.76,1.76,0,0,0,.67-1.44A2,2,0,0,0,10.5,10h0a2.19,2.19,0,0,0,1.43-.63A1.89,1.89,0,0,0,12.5,8a2.22,2.22,0,0,0-.85-1.82,3.4,3.4,0,0,0-2.24-.7A3.84,3.84,0,0,0,7.39,5.88Z"/></symbol><symbol id="New_Symbol_42" data-name="New Symbol 42" viewBox="0 0 20 20"><circle class="cls-1" cx="10" cy="10" r="10"/><path class="cls-2" d="M12.5,5.57H7.24v.65A2.58,2.58,0,0,0,7.35,7a3.93,3.93,0,0,0,.3.66,4.92,4.92,0,0,0,.44.58c.17.18.35.35.54.52l.59.5c.2.15.39.31.58.47s.35.3.5.45a4.11,4.11,0,0,1,.38.45,2.55,2.55,0,0,1,.24.5,1.84,1.84,0,0,1,.09.57,1.42,1.42,0,0,1-.1.58,1.33,1.33,0,0,1-.29.41,1.17,1.17,0,0,1-.44.26,2.05,2.05,0,0,1-.55.05,2.73,2.73,0,0,1-1.05-.24,3.75,3.75,0,0,1-1-.72v1.31a2.85,2.85,0,0,0,.52.33,2.7,2.7,0,0,0,.55.24,3,3,0,0,0,.59.15,3.64,3.64,0,0,0,.66,0,3.77,3.77,0,0,0,1-.14,2.2,2.2,0,0,0,.79-.44,2,2,0,0,0,.51-.73,2.46,2.46,0,0,0,.18-1,2.88,2.88,0,0,0-.13-.92,2.65,2.65,0,0,0-.36-.76,4,4,0,0,0-.56-.67c-.21-.21-.46-.43-.73-.65l-.67-.53c-.23-.18-.43-.35-.61-.51a3.5,3.5,0,0,1-.44-.5.9.9,0,0,1-.16-.5H12.5Z"/></symbol><symbol id="New_Symbol_41" data-name="New Symbol 41" viewBox="0 0 20 20"><circle class="cls-1" cx="10" cy="10" r="10"/><path class="cls-2" d="M11.19,14.16V5.57H9.83V12.5A4.06,4.06,0,0,0,9,12a9,9,0,0,0-1-.33v1.21l.65.24.63.27.62.34c.21.13.42.27.64.43Z"/></symbol></defs><title>OJ104329348</title><g id="bg"><g id="Shapes"><rect class="cls-2" y="0.2" width="475.66" height="150"/><rect class="cls-3" width="105" height="150"/><rect class="cls-4" x="371" width="104.66" height="90"/><rect class="cls-5" x="371" y="95" width="104.66" height="55"/><line class="cls-6" x1="105" y1="15" x2="365.57" y2="15"/><polygon points="364.48 18.74 370.95 15 364.48 11.26 364.48 18.74"/><line class="cls-6" x1="110.38" y1="44.88" x2="370.95" y2="44.88"/><polygon points="111.48 48.62 105 44.88 111.48 41.14 111.48 48.62"/><line class="cls-6" x1="105" y1="105.16" x2="365.57" y2="105.16"/><polygon points="364.48 108.9 370.95 105.16 364.48 101.42 364.48 108.9"/><line class="cls-6" x1="110.43" y1="140.47" x2="371" y2="140.47"/><polygon points="111.52 144.21 105.05 140.47 111.52 136.73 111.52 144.21"/><use width="20" height="20" transform="matrix(1, 0, 0, -1, 158.88, 150)" xlink:href="#New_Symbol_44"/><use width="20" height="20" transform="matrix(1, 0, 0, -1, 158.88, 115.16)" xlink:href="#New_Symbol_43"/><use width="20" height="20" transform="matrix(1, 0, 0, -1, 158.88, 54.88)" xlink:href="#New_Symbol_42"/><use width="20" height="20" transform="matrix(1, 0, 0, -1, 158.88, 25)" xlink:href="#New_Symbol_41"/><path class="cls-7" d="M19.53,28.47A1.52,1.52,0,0,1,21,26.94h62.9a1.52,1.52,0,0,1,1.53,1.51V65.67A1.52,1.52,0,0,1,84,67.2H21.06a1.52,1.52,0,0,1-1.53-1.51V28.47Zm-3.48-1.78V67.37a3.29,3.29,0,0,0,3.28,3.3H85.66A3.29,3.29,0,0,0,89,67.43V26.69a3.29,3.29,0,0,0-3.28-3.3H19.34a3.29,3.29,0,0,0-3.29,3.29Z"/><path class="cls-7" d="M13.37,74.17H91.63a.87.87,0,0,1,.87.87h0v2.57a.87.87,0,0,1-.87.87H13.37a.87.87,0,0,1-.87-.87h0V75.05a.87.87,0,0,1,.86-.88Z"/><path class="cls-2" d="M43.57,75.71H61.43a.25.25,0,0,1,.25.25v.74a.26.26,0,0,1-.25.26H43.57a.26.26,0,0,1-.25-.26V76a.26.26,0,0,1,.21-.29Z"/><path class="cls-8" d="M37,36.09l12.67-1.72V46.55L37,46.62ZM49.66,48V60.15L37,58.41V47.87ZM51.2,34.15,68,31.7V46.4l-16.8.13ZM68,48.07V62.7L51.2,60.34V48Z"/><polygon class="cls-9" points="192.55 26 184.99 31.44 187.88 40.25 197.22 40.25 200.11 31.44 192.55 26"/></g><polygon class="cls-9" points="192.53 84.86 184.98 90.3 187.86 99.11 197.21 99.11 200.09 90.3 192.53 84.86"/></g><g id="txt"><path class="cls-10" d="M23.66,95.38v2.89H21.77v-8.4h3c2.12,0,3.18.89,3.18,2.68a2.58,2.58,0,0,1-.91,2,3.58,3.58,0,0,1-2.44.79Zm0-4.06v2.62h.74c1,0,1.51-.44,1.51-1.32s-.5-1.3-1.51-1.3Z"/><path class="cls-10" d="M30.81,98.27H29V89.39h1.85Z"/><path class="cls-10" d="M37.36,98.27H35.61v-.86h0a2,2,0,0,1-1.79,1,1.86,1.86,0,0,1-1.37-.5,1.79,1.79,0,0,1-.5-1.32q0-1.74,2.07-2l1.63-.22c0-.66-.36-1-1.07-1a3.72,3.72,0,0,0-2,.64V92.63a4.67,4.67,0,0,1,1.06-.35,5.63,5.63,0,0,1,1.22-.15,2.27,2.27,0,0,1,2.57,2.56Zm-1.74-2.44v-.4l-1.09.14q-.9.12-.9.81a.67.67,0,0,0,.21.52.84.84,0,0,0,.6.21,1.1,1.1,0,0,0,.85-.36A1.33,1.33,0,0,0,35.62,95.83Z"/><path class="cls-10" d="M42.45,98.2a2.67,2.67,0,0,1-1.24.22q-2,0-2-2V93.64h-1V92.27h1V91l1.84-.53v1.82h1.35v1.37H41.1v2.42c0,.63.25.94.75.94a1.31,1.31,0,0,0,.6-.17Z"/><path class="cls-10" d="M48.48,98.27H46.73v-.86h0a2,2,0,0,1-1.79,1,1.86,1.86,0,0,1-1.37-.5,1.75,1.75,0,0,1-.5-1.32q0-1.74,2.07-2l1.62-.22c0-.66-.35-1-1.06-1a3.67,3.67,0,0,0-2,.64V92.63a4.67,4.67,0,0,1,1.06-.35,5.56,5.56,0,0,1,1.22-.15,2.26,2.26,0,0,1,2.56,2.56Zm-1.74-2.44v-.4l-1.09.14q-.9.12-.9.81a.68.68,0,0,0,.22.52.84.84,0,0,0,.6.21,1.11,1.11,0,0,0,.85-.36A1.37,1.37,0,0,0,46.74,95.83Z"/><path class="cls-10" d="M53.86,90.81a1.69,1.69,0,0,0-.68-.14c-.6,0-.89.32-.89,1v.64h1.37v1.37H52.29v4.63H50.44V93.64h-1V92.27h1v-.74a2.12,2.12,0,0,1,.67-1.65,2.53,2.53,0,0,1,1.82-.63,3.09,3.09,0,0,1,.93.12Z"/><path class="cls-10" d="M57.41,98.42a3.23,3.23,0,0,1-2.36-.84,3.47,3.47,0,0,1,0-4.61,3.38,3.38,0,0,1,2.41-.84,3.16,3.16,0,0,1,2.34.84,3,3,0,0,1,.85,2.22,3.18,3.18,0,0,1-.87,2.36A3.27,3.27,0,0,1,57.41,98.42Zm.05-4.88a1.23,1.23,0,0,0-1,.45,2,2,0,0,0-.37,1.28c0,1.15.47,1.73,1.4,1.73s1.33-.59,1.33-1.78S58.35,93.54,57.46,93.54Z"/><path class="cls-10" d="M65.8,93.94a1.61,1.61,0,0,0-.78-.18,1.12,1.12,0,0,0-.94.44,1.93,1.93,0,0,0-.34,1.21v2.86H61.88v-6h1.86v1.11h0a1.59,1.59,0,0,1,1.58-1.21,1.14,1.14,0,0,1,.46.07Z"/><path class="cls-10" d="M76.22,98.27H74.38V94.85c0-.87-.32-1.31-1-1.31a.87.87,0,0,0-.75.4,1.6,1.6,0,0,0-.29,1v3.36H70.53V94.81c0-.84-.31-1.27-.94-1.27a.91.91,0,0,0-.76.38,1.65,1.65,0,0,0-.28,1v3.33H66.7v-6h1.85v.94h0a2.17,2.17,0,0,1,.81-.78,2.2,2.2,0,0,1,1.13-.3,1.72,1.72,0,0,1,1.74,1.11,2.23,2.23,0,0,1,2-1.11c1.3,0,2,.8,2,2.41Z"/><path class="cls-10" d="M82.68,98.27H80.93v-.86h0a2,2,0,0,1-1.78,1,1.9,1.9,0,0,1-1.38-.5,1.79,1.79,0,0,1-.5-1.32q0-1.74,2.07-2l1.63-.22c0-.66-.36-1-1.07-1a3.72,3.72,0,0,0-2,.64V92.63a4.67,4.67,0,0,1,1.06-.35,5.7,5.7,0,0,1,1.22-.15,2.27,2.27,0,0,1,2.57,2.56Zm-1.74-2.44v-.4l-1.09.14q-.9.12-.9.81a.65.65,0,0,0,.22.52.8.8,0,0,0,.59.21,1.1,1.1,0,0,0,.85-.36A1.33,1.33,0,0,0,80.94,95.83Z"/><path class="cls-10" d="M24.55,112.67H22.7v-.91h0a2.09,2.09,0,0,1-1.83,1.06c-1.39,0-2.09-.84-2.09-2.53v-3.62H20.6v3.46c0,.85.34,1.27,1,1.27a1,1,0,0,0,.79-.35,1.4,1.4,0,0,0,.3-.94v-3.44h1.85Z"/><path class="cls-10" d="M31.9,112.67H30.06v-3.33c0-.93-.34-1.4-1-1.4a1,1,0,0,0-.79.37,1.4,1.4,0,0,0-.31.94v3.42H26.11v-6H28v1h0a2.12,2.12,0,0,1,1.93-1.09c1.33,0,2,.82,2,2.47Z"/><path class="cls-10" d="M34.3,105.72a1.05,1.05,0,0,1-.76-.28.88.88,0,0,1-.3-.68.87.87,0,0,1,.3-.68,1.13,1.13,0,0,1,.76-.26,1.17,1.17,0,0,1,.78.26.89.89,0,0,1,.29.68.91.91,0,0,1-.29.69A1.12,1.12,0,0,1,34.3,105.72Zm.92,7H33.37v-6h1.85Z"/><path class="cls-10" d="M42.49,106.67l-2.23,6H38.15l-2.13-6h2l1,3.7a5.25,5.25,0,0,1,.21,1.07h0a6.11,6.11,0,0,1,.22-1l1.07-3.73Z"/><path class="cls-10" d="M48.55,110.2H44.64c.06.87.61,1.31,1.65,1.31A3.24,3.24,0,0,0,48,111v1.33a4.56,4.56,0,0,1-2.16.45,3,3,0,0,1-2.26-.81,3,3,0,0,1-.8-2.24,3.24,3.24,0,0,1,.86-2.37,2.9,2.9,0,0,1,2.14-.87,2.66,2.66,0,0,1,2,.77,3,3,0,0,1,.71,2.12Zm-1.71-1.14q0-1.29-1.05-1.29a1,1,0,0,0-.77.37,1.78,1.78,0,0,0-.39.92Z"/><path class="cls-10" d="M53.57,108.34a1.61,1.61,0,0,0-.78-.18,1.12,1.12,0,0,0-.94.44,1.93,1.93,0,0,0-.34,1.21v2.86H49.66v-6h1.85v1.12h0a1.59,1.59,0,0,1,1.58-1.22,1.14,1.14,0,0,1,.46.07Z"/><path class="cls-10" d="M54.11,112.51V111a3.66,3.66,0,0,0,.91.41,3,3,0,0,0,.86.14,1.84,1.84,0,0,0,.78-.14.44.44,0,0,0,.28-.41.37.37,0,0,0-.13-.29,1.08,1.08,0,0,0-.33-.2,2.85,2.85,0,0,0-.44-.16l-.47-.16a6.21,6.21,0,0,1-.63-.29,1.62,1.62,0,0,1-.45-.36,1.29,1.29,0,0,1-.28-.48,1.74,1.74,0,0,1-.1-.63,1.61,1.61,0,0,1,.22-.87,1.88,1.88,0,0,1,.59-.6,3,3,0,0,1,.83-.34,4.53,4.53,0,0,1,1-.1,5.52,5.52,0,0,1,.81.06,5.3,5.3,0,0,1,.81.18v1.43a2.76,2.76,0,0,0-.75-.31,3.11,3.11,0,0,0-.79-.1,1.87,1.87,0,0,0-.34,0,1.23,1.23,0,0,0-.29.09.49.49,0,0,0-.19.16.34.34,0,0,0-.07.22.41.41,0,0,0,.11.28.79.79,0,0,0,.27.2,1.88,1.88,0,0,0,.38.15l.41.14a6.16,6.16,0,0,1,.67.28,2.21,2.21,0,0,1,.51.36,1.42,1.42,0,0,1,.33.48,2,2,0,0,1-.12,1.57,1.78,1.78,0,0,1-.61.61,2.72,2.72,0,0,1-.89.35,5,5,0,0,1-1,.11A5.17,5.17,0,0,1,54.11,112.51Z"/><path class="cls-10" d="M64.77,112.67H63v-.86h0a2,2,0,0,1-1.79,1,1.86,1.86,0,0,1-1.37-.5,1.75,1.75,0,0,1-.5-1.32c0-1.16.69-1.83,2.06-2l1.63-.22c0-.66-.35-1-1.06-1a3.65,3.65,0,0,0-2,.63V107a4.67,4.67,0,0,1,1.06-.35,5.56,5.56,0,0,1,1.22-.15,2.26,2.26,0,0,1,2.56,2.56ZM63,110.23v-.4l-1.09.14c-.6.08-.9.35-.9.82a.64.64,0,0,0,.22.51.84.84,0,0,0,.6.21,1.11,1.11,0,0,0,.85-.36A1.36,1.36,0,0,0,63,110.23Z"/><path class="cls-10" d="M68.09,112.67H66.24v-8.88h1.85Z"/><path class="cls-10" d="M78.83,112.67H77v-.82h0a2.11,2.11,0,0,1-1.86,1,2.27,2.27,0,0,1-1.81-.8,3.23,3.23,0,0,1-.69-2.21,3.55,3.55,0,0,1,.76-2.39,2.44,2.44,0,0,1,2-.89,1.69,1.69,0,0,1,1.62.83h0v-3.57h1.85ZM77,109.75v-.45a1.4,1.4,0,0,0-.34-1,1.19,1.19,0,0,0-1.84.1,2.22,2.22,0,0,0-.35,1.32,1.89,1.89,0,0,0,.34,1.22,1.09,1.09,0,0,0,.92.43,1.12,1.12,0,0,0,.92-.45A1.86,1.86,0,0,0,77,109.75Z"/><path class="cls-10" d="M85.78,110.2H81.87c.06.87.61,1.31,1.64,1.31a3.24,3.24,0,0,0,1.74-.47v1.33a4.5,4.5,0,0,1-2.16.45,2.79,2.79,0,0,1-3.06-3,3.2,3.2,0,0,1,.87-2.37,2.9,2.9,0,0,1,2.13-.87,2.65,2.65,0,0,1,2,.77,3,3,0,0,1,.72,2.12Zm-1.72-1.14c0-.86-.35-1.29-1-1.29a1,1,0,0,0-.77.37,1.72,1.72,0,0,0-.4.92Z"/><path class="cls-10" d="M37.87,118.67l-2.22,8.4h-2.1l-1.4-5.39a5.2,5.2,0,0,1-.13-.94h0a5.85,5.85,0,0,1-.16.94l-1.43,5.39H28.23L26,118.67h2.07l1.18,5.59a6.39,6.39,0,0,1,.11,1h0a4.2,4.2,0,0,1,.17-1l1.52-5.57h2l1.38,5.64a7.58,7.58,0,0,1,.13.9h0a6.11,6.11,0,0,1,.13-.93L36,118.67Z"/><path class="cls-10" d="M39.69,120.12a1.07,1.07,0,0,1-.77-.28.88.88,0,0,1-.3-.68.87.87,0,0,1,.3-.68,1.16,1.16,0,0,1,.77-.26,1.14,1.14,0,0,1,.77.26.87.87,0,0,1,.3.68.89.89,0,0,1-.3.69A1.1,1.1,0,0,1,39.69,120.12Zm.91,6.95H38.75v-6H40.6Z"/><path class="cls-10" d="M48,127.07H46.11v-3.33c0-.93-.33-1.4-1-1.4a1,1,0,0,0-.8.37,1.46,1.46,0,0,0-.31.94v3.42H42.16v-6H44v1h0a2.12,2.12,0,0,1,1.92-1.1c1.33,0,2,.83,2,2.48Z"/><path class="cls-10" d="M55.29,127.07H53.44v-.82h0a2.09,2.09,0,0,1-1.86,1,2.28,2.28,0,0,1-1.81-.8,3.25,3.25,0,0,1-.69-2.21,3.6,3.6,0,0,1,.76-2.39,2.45,2.45,0,0,1,2-.9,1.69,1.69,0,0,1,1.62.84h0v-3.57h1.85Zm-1.81-2.92v-.45a1.45,1.45,0,0,0-.34-1,1.12,1.12,0,0,0-.89-.39,1.1,1.1,0,0,0-1,.49,2.23,2.23,0,0,0-.34,1.32,2,2,0,0,0,.33,1.22,1.18,1.18,0,0,0,1.84,0A1.87,1.87,0,0,0,53.48,124.15Z"/><path class="cls-10" d="M59.71,127.22a3.23,3.23,0,0,1-2.36-.84,3.47,3.47,0,0,1,0-4.61,3.39,3.39,0,0,1,2.41-.85,3.21,3.21,0,0,1,2.35.85A3,3,0,0,1,63,124a3.18,3.18,0,0,1-.88,2.36A3.24,3.24,0,0,1,59.71,127.22Zm0-4.88a1.23,1.23,0,0,0-1,.45,2,2,0,0,0-.36,1.28c0,1.15.46,1.73,1.39,1.73s1.33-.59,1.33-1.78S60.65,122.34,59.76,122.34Z"/><path class="cls-10" d="M72.88,121.07l-1.73,6h-2l-.88-3.51a3.68,3.68,0,0,1-.1-.77h0a4,4,0,0,1-.11.74l-.95,3.54H65.2l-1.7-6h1.89l.82,3.92a4.8,4.8,0,0,1,.09.66h0a3.92,3.92,0,0,1,.1-.69l1-3.89h1.77l.92,3.92a5.62,5.62,0,0,1,.09.68h0c0-.23,0-.46.09-.68l.78-3.92Z"/><path class="cls-10" d="M73.36,126.91v-1.5a3.82,3.82,0,0,0,.91.41,3.08,3.08,0,0,0,.86.14,1.84,1.84,0,0,0,.78-.14.42.42,0,0,0,.28-.41.37.37,0,0,0-.13-.29.88.88,0,0,0-.33-.2,2.52,2.52,0,0,0-.44-.16l-.46-.16a4.68,4.68,0,0,1-.63-.29,1.89,1.89,0,0,1-.46-.36,1.44,1.44,0,0,1-.28-.48,2,2,0,0,1-.1-.64,1.69,1.69,0,0,1,.22-.86,1.88,1.88,0,0,1,.59-.6A2.9,2.9,0,0,1,75,121a4.46,4.46,0,0,1,1-.11,5.78,5.78,0,0,1,.81.07,5.88,5.88,0,0,1,.81.18v1.42a3.34,3.34,0,0,0-.76-.3,3.13,3.13,0,0,0-.79-.11,1.86,1.86,0,0,0-.34,0,1,1,0,0,0-.28.09.53.53,0,0,0-.2.16.4.4,0,0,0,0,.5.79.79,0,0,0,.27.2,2.15,2.15,0,0,0,.38.15l.42.14a6.9,6.9,0,0,1,.66.28,2.18,2.18,0,0,1,.52.36,1.39,1.39,0,0,1,.32.48,1.62,1.62,0,0,1,.12.66,1.76,1.76,0,0,1-.23.91,1.81,1.81,0,0,1-.62.61,2.66,2.66,0,0,1-.88.35,5.1,5.1,0,0,1-1,.11A5.27,5.27,0,0,1,73.36,126.91Z"/><path class="cls-11" d="M212.42,84.29h-1V80.46h-4.35v3.83h-1v-8.4h1v3.69h4.35V75.89h1Z"/><path class="cls-11" d="M219.52,76.78H217.1v7.51h-1V76.78h-2.42v-.89h5.83Z"/><path class="cls-11" d="M226,76.78h-2.42v7.51h-1V76.78h-2.42v-.89H226Z"/><path class="cls-11" d="M228.2,81.12v3.17h-1v-8.4h2.31a3,3,0,0,1,2.09.66,2.34,2.34,0,0,1,.74,1.85,2.55,2.55,0,0,1-.83,2,3.18,3.18,0,0,1-2.22.76Zm0-4.34v3.45h1a2.33,2.33,0,0,0,1.56-.47,1.64,1.64,0,0,0,.54-1.31c0-1.11-.66-1.67-2-1.67Z"/><path class="cls-11" d="M243.36,83.72a5.56,5.56,0,0,1-2.81.71,3.82,3.82,0,0,1-2.91-1.16,4.24,4.24,0,0,1-1.11-3.07,4.37,4.37,0,0,1,1.23-3.2,4.24,4.24,0,0,1,3.13-1.25,5.27,5.27,0,0,1,2.3.45v1.09a4.41,4.41,0,0,0-2.41-.65,3,3,0,0,0-2.32,1,4.07,4.07,0,0,0-.06,5,2.93,2.93,0,0,0,2.27.91,3.54,3.54,0,0,0,1.71-.39V80.8h-1.84v-.89h2.82Z"/><path class="cls-11" d="M249.7,84.29h-4.46v-8.4h4.27v.89h-3.28v2.8h3v.88h-3V83.4h3.47Z"/><path class="cls-11" d="M256.21,76.78h-2.43v7.51h-1V76.78h-2.42v-.89h5.83Z"/><path class="cls-11" d="M266.44,81.19h-2.37v2.36h-.78V81.19h-2.36V80.4h2.36V78h.78V80.4h2.37Z"/><path class="cls-11" d="M211.07,91h-2.42v7.51h-1V91h-2.42v-.89h5.83Z"/><path class="cls-11" d="M213.53,98.63a2.79,2.79,0,0,1-2.13-.84,3.15,3.15,0,0,1-.79-2.23,3.26,3.26,0,0,1,.83-2.36,3,3,0,0,1,2.23-.85,2.69,2.69,0,0,1,2.09.83,3.75,3.75,0,0,1,0,4.59A2.85,2.85,0,0,1,213.53,98.63Zm.07-5.47a1.84,1.84,0,0,0-1.47.63,2.59,2.59,0,0,0-.54,1.74,2.46,2.46,0,0,0,.55,1.68,1.85,1.85,0,0,0,1.46.62,1.76,1.76,0,0,0,1.43-.61,2.58,2.58,0,0,0,.5-1.72,2.62,2.62,0,0,0-.5-1.73A1.73,1.73,0,0,0,213.6,93.16Z"/><path class="cls-11" d="M223,98.49h-1.35L219,95.61h0v2.88h-1V89.61h1v5.63h0l2.52-2.75h1.26L220,95.39Z"/><path class="cls-11" d="M228.69,95.73h-4.23a2.19,2.19,0,0,0,.54,1.55,1.86,1.86,0,0,0,1.42.55,3,3,0,0,0,1.86-.67v.9a3.52,3.52,0,0,1-2.09.57,2.54,2.54,0,0,1-2-.81,3.34,3.34,0,0,1-.73-2.3,3.29,3.29,0,0,1,.8-2.29,2.56,2.56,0,0,1,2-.88,2.28,2.28,0,0,1,1.82.76,3.19,3.19,0,0,1,.64,2.12Zm-1-.81a2,2,0,0,0-.4-1.3,1.39,1.39,0,0,0-1.1-.46,1.52,1.52,0,0,0-1.15.49,2.16,2.16,0,0,0-.59,1.27Z"/><path class="cls-11" d="M235.06,98.49h-1V95.07c0-1.27-.47-1.91-1.4-1.91a1.5,1.5,0,0,0-1.19.54,2,2,0,0,0-.47,1.37v3.42h-1v-6h1v1h0a2.16,2.16,0,0,1,2-1.14,1.79,1.79,0,0,1,1.5.64,2.8,2.8,0,0,1,.53,1.84Z"/><path class="cls-11" d="M245.13,98.49h-1v-1h0a2.43,2.43,0,0,1-3.87.36,3.33,3.33,0,0,1-.68-2.2,3.59,3.59,0,0,1,.75-2.38,2.48,2.48,0,0,1,2-.9,1.94,1.94,0,0,1,1.8,1h0V89.61h1Zm-1-2.71V94.9a1.7,1.7,0,0,0-.48-1.23,1.61,1.61,0,0,0-1.22-.51,1.64,1.64,0,0,0-1.38.65,2.79,2.79,0,0,0-.51,1.78,2.53,2.53,0,0,0,.49,1.63,1.55,1.55,0,0,0,1.3.61,1.67,1.67,0,0,0,1.3-.58A2.2,2.2,0,0,0,244.17,95.78Z"/><path class="cls-11" d="M251.83,95.73h-4.24a2.28,2.28,0,0,0,.54,1.55,1.87,1.87,0,0,0,1.42.55,3,3,0,0,0,1.86-.67v.9a3.5,3.5,0,0,1-2.09.57,2.54,2.54,0,0,1-2-.81,3.39,3.39,0,0,1-.73-2.3,3.29,3.29,0,0,1,.8-2.29,2.56,2.56,0,0,1,2-.88,2.28,2.28,0,0,1,1.82.76,3.2,3.2,0,0,1,.65,2.12Zm-1-.81a2,2,0,0,0-.4-1.3,1.39,1.39,0,0,0-1.1-.46,1.52,1.52,0,0,0-1.15.49,2.22,2.22,0,0,0-.59,1.27Z"/><path class="cls-11" d="M260.72,98.49h-1v-.93h0a2,2,0,0,1-1.84,1.07,2,2,0,0,1-1.41-.47,1.68,1.68,0,0,1-.5-1.26c0-1.12.66-1.77,2-2l1.8-.25c0-1-.42-1.53-1.24-1.53a3,3,0,0,0-2,.74v-1a3.68,3.68,0,0,1,2-.57c1.41,0,2.12.75,2.12,2.24Zm-1-3-1.45.2a2.3,2.3,0,0,0-1,.33,1,1,0,0,0-.34.84.93.93,0,0,0,.32.72,1.21,1.21,0,0,0,.83.28,1.52,1.52,0,0,0,1.18-.51,1.77,1.77,0,0,0,.47-1.26Z"/><path class="cls-11" d="M266.55,98.22a3.12,3.12,0,0,1-1.64.41,2.72,2.72,0,0,1-2.08-.83,3.06,3.06,0,0,1-.78-2.17,3.32,3.32,0,0,1,.85-2.38,3,3,0,0,1,2.26-.9,3.1,3.1,0,0,1,1.4.3v1a2.47,2.47,0,0,0-1.43-.47,1.92,1.92,0,0,0-1.51.66,2.52,2.52,0,0,0-.59,1.73,2.4,2.4,0,0,0,.55,1.67,1.94,1.94,0,0,0,1.49.61,2.44,2.44,0,0,0,1.48-.53Z"/><path class="cls-11" d="M272,98.22a3.1,3.1,0,0,1-1.64.41,2.72,2.72,0,0,1-2.08-.83,3.06,3.06,0,0,1-.78-2.17,3.32,3.32,0,0,1,.85-2.38,3,3,0,0,1,2.26-.9,3.1,3.1,0,0,1,1.4.3v1a2.47,2.47,0,0,0-1.43-.47,1.93,1.93,0,0,0-1.51.66,2.52,2.52,0,0,0-.59,1.73,2.45,2.45,0,0,0,.55,1.67,1.94,1.94,0,0,0,1.49.61A2.42,2.42,0,0,0,272,97.3Z"/><path class="cls-11" d="M278.22,95.73H274a2.28,2.28,0,0,0,.54,1.55,1.89,1.89,0,0,0,1.42.55,3,3,0,0,0,1.86-.67v.9a3.47,3.47,0,0,1-2.09.57,2.57,2.57,0,0,1-2-.81,3.39,3.39,0,0,1-.72-2.3,3.29,3.29,0,0,1,.79-2.29,2.58,2.58,0,0,1,2-.88,2.29,2.29,0,0,1,1.83.76,3.19,3.19,0,0,1,.64,2.12Zm-1-.81a2,2,0,0,0-.41-1.3,1.37,1.37,0,0,0-1.09-.46,1.54,1.54,0,0,0-1.16.49,2.21,2.21,0,0,0-.58,1.27Z"/><path class="cls-11" d="M279.24,98.28v-1a2.88,2.88,0,0,0,1.73.58c.84,0,1.26-.29,1.26-.85a.7.7,0,0,0-.11-.41,1,1,0,0,0-.29-.29,2.18,2.18,0,0,0-.43-.23l-.54-.22a5.79,5.79,0,0,1-.7-.32,1.74,1.74,0,0,1-.5-.36,1.29,1.29,0,0,1-.31-.46,1.57,1.57,0,0,1-.1-.6,1.44,1.44,0,0,1,.19-.75,1.7,1.7,0,0,1,.52-.55,2.71,2.71,0,0,1,.73-.33,3.49,3.49,0,0,1,.86-.11,3.41,3.41,0,0,1,1.39.27v1a2.78,2.78,0,0,0-1.52-.43,1.88,1.88,0,0,0-.49.06,1.06,1.06,0,0,0-.37.18.85.85,0,0,0-.24.26.69.69,0,0,0-.09.34.82.82,0,0,0,.09.4.94.94,0,0,0,.25.28,2.11,2.11,0,0,0,.4.22l.53.22a6,6,0,0,1,.71.31,2.3,2.3,0,0,1,.54.36,1.45,1.45,0,0,1,.35.47,1.54,1.54,0,0,1,.12.63,1.5,1.5,0,0,1-.2.77,1.82,1.82,0,0,1-.52.55,2.49,2.49,0,0,1-.76.32,3.71,3.71,0,0,1-.9.1A3.49,3.49,0,0,1,279.24,98.28Z"/><path class="cls-11" d="M287.13,98.63a2.79,2.79,0,0,1-2.13-.84,3.15,3.15,0,0,1-.79-2.23A3.26,3.26,0,0,1,285,93.2a3,3,0,0,1,2.23-.85,2.69,2.69,0,0,1,2.09.83,3.75,3.75,0,0,1-.05,4.59A2.85,2.85,0,0,1,287.13,98.63Zm.07-5.47a1.84,1.84,0,0,0-1.47.63,2.64,2.64,0,0,0-.53,1.74,2.46,2.46,0,0,0,.54,1.68,1.85,1.85,0,0,0,1.46.62,1.76,1.76,0,0,0,1.43-.61,2.58,2.58,0,0,0,.5-1.72,2.62,2.62,0,0,0-.5-1.73A1.73,1.73,0,0,0,287.2,93.16Z"/><path class="cls-12" d="M394.41,30.32v2.89h-1.89v-8.4h3c2.11,0,3.17.89,3.17,2.68a2.58,2.58,0,0,1-.91,2.05,3.62,3.62,0,0,1-2.43.78Zm0-4.06v2.62h.75c1,0,1.51-.44,1.51-1.32s-.5-1.3-1.51-1.3Z"/><path class="cls-12" d="M401.56,33.21h-1.85V24.33h1.85Z"/><path class="cls-12" d="M408.11,33.21h-1.75v-.86h0a2,2,0,0,1-1.79,1,1.86,1.86,0,0,1-1.37-.5,1.75,1.75,0,0,1-.5-1.32c0-1.16.69-1.83,2.06-2l1.63-.22c0-.66-.35-1-1.06-1a3.65,3.65,0,0,0-2,.63V27.57a4.67,4.67,0,0,1,1.06-.35,5.56,5.56,0,0,1,1.22-.15,2.26,2.26,0,0,1,2.56,2.56Zm-1.74-2.43v-.41l-1.09.14c-.6.08-.9.35-.9.82a.64.64,0,0,0,.22.51.84.84,0,0,0,.6.21,1.07,1.07,0,0,0,.84-.36A1.31,1.31,0,0,0,406.37,30.78Z"/><path class="cls-12" d="M413.21,33.14a2.7,2.7,0,0,1-1.24.22,1.76,1.76,0,0,1-2-2V28.58h-1V27.21h1V25.92l1.85-.53v1.82h1.35v1.37h-1.35V31c0,.63.25.94.74.94a1.31,1.31,0,0,0,.61-.17Z"/><path class="cls-12" d="M419.24,33.21h-1.75v-.86h0a2,2,0,0,1-1.78,1,1.9,1.9,0,0,1-1.38-.5,1.79,1.79,0,0,1-.5-1.32q0-1.74,2.07-2l1.63-.22c0-.66-.36-1-1.07-1a3.7,3.7,0,0,0-2,.63V27.57a4.67,4.67,0,0,1,1.06-.35,5.7,5.7,0,0,1,1.22-.15,2.27,2.27,0,0,1,2.57,2.56Zm-1.74-2.43v-.41l-1.09.14c-.6.08-.9.35-.9.82a.64.64,0,0,0,.22.51.8.8,0,0,0,.59.21,1.1,1.1,0,0,0,.85-.36A1.31,1.31,0,0,0,417.5,30.78Z"/><path class="cls-12" d="M424.62,25.75a1.77,1.77,0,0,0-.69-.14c-.59,0-.89.32-.89,1v.64h1.37v1.37H423v4.63H421.2V28.58h-1V27.21h1v-.74a2.13,2.13,0,0,1,.67-1.65,2.52,2.52,0,0,1,1.81-.63,3.11,3.11,0,0,1,.94.12Z"/><path class="cls-12" d="M428.16,33.36a3.2,3.2,0,0,1-2.35-.84,3,3,0,0,1-.86-2.28,3,3,0,0,1,.89-2.33,3.35,3.35,0,0,1,2.41-.84,3.19,3.19,0,0,1,2.34.84,3,3,0,0,1,.85,2.22,3.15,3.15,0,0,1-.88,2.36A3.24,3.24,0,0,1,428.16,33.36Zm0-4.88a1.21,1.21,0,0,0-1,.46,2,2,0,0,0-.36,1.27c0,1.16.46,1.73,1.39,1.73s1.33-.59,1.33-1.77S429.11,28.48,428.21,28.48Z"/><path class="cls-12" d="M436.55,28.88a1.59,1.59,0,0,0-.77-.18,1.14,1.14,0,0,0-.95.44,2,2,0,0,0-.34,1.21v2.86h-1.85v-6h1.85v1.12h0a1.59,1.59,0,0,1,1.58-1.22,1.09,1.09,0,0,1,.45.07Z"/><path class="cls-12" d="M447,33.21h-1.85V29.79c0-.87-.32-1.31-1-1.31a.89.89,0,0,0-.74.4,1.61,1.61,0,0,0-.29,1v3.35h-1.85V29.76c0-.85-.32-1.28-.94-1.28a.91.91,0,0,0-.76.38,1.65,1.65,0,0,0-.29,1v3.33h-1.85v-6h1.85v.94h0a2.22,2.22,0,0,1,.8-.78,2.26,2.26,0,0,1,1.14-.3A1.74,1.74,0,0,1,443,28.19a2.19,2.19,0,0,1,2-1.12c1.31,0,2,.8,2,2.41Z"/><path class="cls-12" d="M453.44,33.21h-1.76v-.86h0a2,2,0,0,1-1.79,1,1.86,1.86,0,0,1-1.37-.5,1.79,1.79,0,0,1-.5-1.32q0-1.74,2.07-2l1.63-.22c0-.66-.36-1-1.07-1a3.65,3.65,0,0,0-2,.63V27.57a4.67,4.67,0,0,1,1.06-.35,5.56,5.56,0,0,1,1.22-.15,2.27,2.27,0,0,1,2.57,2.56Zm-1.74-2.43v-.41l-1.09.14c-.61.08-.91.35-.91.82a.67.67,0,0,0,.22.51.84.84,0,0,0,.6.21,1.1,1.1,0,0,0,.85-.36A1.31,1.31,0,0,0,451.7,30.78Z"/><path class="cls-12" d="M393.88,47.61H392v-.82h0a2.09,2.09,0,0,1-1.86,1,2.26,2.26,0,0,1-1.81-.79,3.28,3.28,0,0,1-.69-2.22,3.57,3.57,0,0,1,.76-2.39,2.47,2.47,0,0,1,2-.89,1.69,1.69,0,0,1,1.62.83h0V38.73h1.85Zm-1.82-2.91v-.46a1.4,1.4,0,0,0-.34-1,1.1,1.1,0,0,0-.88-.39,1.12,1.12,0,0,0-1,.49,2.24,2.24,0,0,0-.35,1.33,1.87,1.87,0,0,0,.34,1.21,1.09,1.09,0,0,0,.92.43,1.12,1.12,0,0,0,.92-.45A1.85,1.85,0,0,0,392.06,44.7Z"/><path class="cls-12" d="M400.83,45.14h-3.91c.06.87.61,1.31,1.64,1.31A3.24,3.24,0,0,0,400.3,46v1.33a4.5,4.5,0,0,1-2.16.45,2.79,2.79,0,0,1-3.06-3,3.2,3.2,0,0,1,.87-2.37,2.9,2.9,0,0,1,2.13-.87,2.62,2.62,0,0,1,2,.78,3,3,0,0,1,.72,2.11ZM399.11,44c0-.86-.34-1.29-1-1.29a1,1,0,0,0-.77.37,1.72,1.72,0,0,0-.4.92Z"/><path class="cls-12" d="M406.18,40.66a1.11,1.11,0,0,1-.77-.27.92.92,0,0,1-.3-.69.88.88,0,0,1,.3-.68,1.16,1.16,0,0,1,.77-.26A1.14,1.14,0,0,1,407,39a.93.93,0,0,1,0,1.37A1.1,1.1,0,0,1,406.18,40.66Zm.91,7h-1.85v-6h1.85Z"/><path class="cls-12" d="M414.52,47.61h-1.85v-.82h0a2.07,2.07,0,0,1-1.86,1A2.27,2.27,0,0,1,409,47a3.28,3.28,0,0,1-.69-2.22,3.62,3.62,0,0,1,.76-2.39,2.47,2.47,0,0,1,2-.89,1.69,1.69,0,0,1,1.62.83h0V38.73h1.85Zm-1.81-2.91v-.46a1.45,1.45,0,0,0-.34-1,1.2,1.2,0,0,0-1.85.1,2.24,2.24,0,0,0-.34,1.33,1.94,1.94,0,0,0,.33,1.21,1.18,1.18,0,0,0,1.84,0A1.86,1.86,0,0,0,412.71,44.7Z"/><path class="cls-12" d="M421.47,45.14h-3.91c.06.87.61,1.31,1.65,1.31A3.24,3.24,0,0,0,421,46v1.33a4.57,4.57,0,0,1-2.17.45,2.81,2.81,0,0,1-3.06-3,3.2,3.2,0,0,1,.87-2.37,2.9,2.9,0,0,1,2.13-.87,2.6,2.6,0,0,1,2,.78,3,3,0,0,1,.72,2.11ZM419.76,44q0-1.29-1.05-1.29a1,1,0,0,0-.77.37,1.71,1.71,0,0,0-.39.92Z"/><path class="cls-12" d="M428.37,47.61h-1.85V44.28c0-.93-.33-1.4-1-1.4a1,1,0,0,0-.79.37,1.4,1.4,0,0,0-.31.94v3.42h-1.86v-6h1.86v1h0a2.11,2.11,0,0,1,1.93-1.09c1.33,0,2,.82,2,2.47Z"/><path class="cls-12" d="M433.46,47.54a2.64,2.64,0,0,1-1.24.22c-1.3,0-2-.68-2-2V43h-1V41.61h1V40.32l1.84-.53v1.82h1.35V43h-1.35V45.4c0,.63.25.94.75.94a1.19,1.19,0,0,0,.6-.17Z"/><path class="cls-12" d="M435.44,40.66a1.11,1.11,0,0,1-.77-.27.91.91,0,0,1-.29-.69.87.87,0,0,1,.29-.68,1.16,1.16,0,0,1,.77-.26,1.14,1.14,0,0,1,.77.26.93.93,0,0,1,0,1.37A1.1,1.1,0,0,1,435.44,40.66Zm.92,7H434.5v-6h1.86Z"/><path class="cls-12" d="M443.79,47.61h-1.86v-.82h0a2.07,2.07,0,0,1-1.86,1,2.27,2.27,0,0,1-1.81-.79,3.33,3.33,0,0,1-.68-2.22,3.62,3.62,0,0,1,.75-2.39,2.5,2.5,0,0,1,2-.89,1.67,1.67,0,0,1,1.62.83h0V38.73h1.86ZM442,44.7v-.46a1.4,1.4,0,0,0-.34-1,1.2,1.2,0,0,0-1.85.1,2.24,2.24,0,0,0-.34,1.33,1.94,1.94,0,0,0,.33,1.21,1.18,1.18,0,0,0,1.84,0A1.86,1.86,0,0,0,442,44.7Z"/><path class="cls-12" d="M450.34,47.61h-1.76v-.86h0a2,2,0,0,1-1.79,1,1.86,1.86,0,0,1-1.37-.5,1.79,1.79,0,0,1-.5-1.32q0-1.74,2.07-2l1.63-.22c0-.66-.36-1-1.07-1a3.59,3.59,0,0,0-2,.64V42a4.67,4.67,0,0,1,1.06-.35,5.63,5.63,0,0,1,1.22-.15A2.27,2.27,0,0,1,450.34,44Zm-1.74-2.43v-.41l-1.09.14c-.61.08-.91.35-.91.82a.71.71,0,0,0,.22.52.89.89,0,0,0,.6.2,1.1,1.1,0,0,0,.85-.36A1.31,1.31,0,0,0,448.6,45.18Z"/><path class="cls-12" d="M457.67,47.61h-1.85v-.82h0a2.07,2.07,0,0,1-1.86,1,2.27,2.27,0,0,1-1.81-.79,3.28,3.28,0,0,1-.69-2.22,3.62,3.62,0,0,1,.76-2.39,2.47,2.47,0,0,1,2-.89,1.69,1.69,0,0,1,1.62.83h0V38.73h1.85Zm-1.81-2.91v-.46a1.45,1.45,0,0,0-.34-1,1.14,1.14,0,0,0-.89-.39,1.12,1.12,0,0,0-1,.49,2.24,2.24,0,0,0-.35,1.33,1.94,1.94,0,0,0,.34,1.21,1.09,1.09,0,0,0,.92.43,1.12,1.12,0,0,0,.92-.45A1.86,1.86,0,0,0,455.86,44.7Z"/><path class="cls-12" d="M393.55,62H391.7v-.82h0a2.08,2.08,0,0,1-1.85,1,2.29,2.29,0,0,1-1.81-.79,3.28,3.28,0,0,1-.69-2.22,3.57,3.57,0,0,1,.76-2.39,2.47,2.47,0,0,1,2-.89,1.66,1.66,0,0,1,1.61.83h0V53.13h1.85Zm-1.82-2.92v-.45a1.4,1.4,0,0,0-.34-1,1.1,1.1,0,0,0-.88-.39,1.12,1.12,0,0,0-1,.49,2.22,2.22,0,0,0-.35,1.32,1.89,1.89,0,0,0,.34,1.22,1.09,1.09,0,0,0,.92.43,1.12,1.12,0,0,0,.92-.45A1.86,1.86,0,0,0,391.73,59.09Z"/><path class="cls-12" d="M400.5,59.54h-3.92c.07.87.62,1.31,1.65,1.31a3.24,3.24,0,0,0,1.74-.47v1.33a4.5,4.5,0,0,1-2.16.45,2.79,2.79,0,0,1-3.06-3,3.2,3.2,0,0,1,.87-2.37,2.9,2.9,0,0,1,2.13-.87,2.62,2.62,0,0,1,2,.78,3,3,0,0,1,.72,2.11Zm-1.72-1.14c0-.86-.35-1.29-1-1.29a1,1,0,0,0-.77.37,1.72,1.72,0,0,0-.4.92Z"/><path class="cls-12" d="M414.67,62H412.8V57c0-.55,0-1.15.07-1.8h-.05a9.45,9.45,0,0,1-.26,1.11l-2,5.71H409l-2-5.65a11,11,0,0,1-.27-1.17h0c0,.82.08,1.55.08,2.18V62h-1.71v-8.4h2.77l1.72,5a6.58,6.58,0,0,1,.3,1.2h0a10.27,10.27,0,0,1,.33-1.21l1.72-5h2.7Z"/><path class="cls-12" d="M417.33,55.06a1.07,1.07,0,0,1-.76-.27.92.92,0,0,1-.3-.69.88.88,0,0,1,.3-.68,1.26,1.26,0,0,1,1.53,0,.93.93,0,0,1,0,1.37A1.08,1.08,0,0,1,417.33,55.06Zm.92,6.95H416.4V56h1.85Z"/><path class="cls-12" d="M424.35,61.8a3.69,3.69,0,0,1-1.81.36,3.06,3.06,0,0,1-2.24-.84,2.89,2.89,0,0,1-.85-2.16,3.16,3.16,0,0,1,.92-2.41,3.36,3.36,0,0,1,2.45-.88,3.1,3.1,0,0,1,1.53.28v1.57a2.1,2.1,0,0,0-1.29-.44,1.82,1.82,0,0,0-1.29,3,1.66,1.66,0,0,0,1.23.45,2.42,2.42,0,0,0,1.35-.43Z"/><path class="cls-12" d="M429.48,57.68a1.61,1.61,0,0,0-.78-.18,1.12,1.12,0,0,0-.94.44,1.93,1.93,0,0,0-.34,1.21V62h-1.85V56h1.85v1.12h0A1.59,1.59,0,0,1,429,55.91a1.14,1.14,0,0,1,.46.07Z"/><path class="cls-12" d="M433.15,62.16a3.24,3.24,0,0,1-2.36-.84,3,3,0,0,1-.85-2.28,3,3,0,0,1,.89-2.33,3.35,3.35,0,0,1,2.41-.84,3.19,3.19,0,0,1,2.34.84,3,3,0,0,1,.85,2.22,3.15,3.15,0,0,1-.88,2.36A3.24,3.24,0,0,1,433.15,62.16Zm.05-4.88a1.21,1.21,0,0,0-1,.46,2,2,0,0,0-.36,1.27c0,1.16.46,1.73,1.39,1.73s1.33-.59,1.33-1.77S434.09,57.28,433.2,57.28Z"/><path class="cls-12" d="M437.24,61.85v-1.5a3.66,3.66,0,0,0,.91.41,3,3,0,0,0,.86.14,1.83,1.83,0,0,0,.77-.14.43.43,0,0,0,.29-.41.41.41,0,0,0-.13-.29,1.32,1.32,0,0,0-.33-.2l-.44-.16-.47-.16a4.68,4.68,0,0,1-.63-.29,1.62,1.62,0,0,1-.45-.36,1.53,1.53,0,0,1-.29-.47,2.06,2.06,0,0,1-.09-.64,1.61,1.61,0,0,1,.22-.87,1.84,1.84,0,0,1,.58-.6,3.15,3.15,0,0,1,.84-.34,4.53,4.53,0,0,1,1-.1,5.52,5.52,0,0,1,.81.06,5.88,5.88,0,0,1,.81.18v1.43a2.9,2.9,0,0,0-.75-.31,3.11,3.11,0,0,0-.79-.1,1.79,1.79,0,0,0-.34,0,1.1,1.1,0,0,0-.29.09.6.6,0,0,0-.19.16.34.34,0,0,0-.07.22.4.4,0,0,0,.1.28.84.84,0,0,0,.28.2,2.72,2.72,0,0,0,.38.16l.41.13a6.16,6.16,0,0,1,.67.28,2.55,2.55,0,0,1,.51.36,1.58,1.58,0,0,1,.33.48,1.86,1.86,0,0,1,.11.66,1.67,1.67,0,0,1-.23.91,1.9,1.9,0,0,1-.61.62,3,3,0,0,1-.89.34,5,5,0,0,1-1,.11A5.17,5.17,0,0,1,437.24,61.85Z"/><path class="cls-12" d="M445.77,62.16a3.23,3.23,0,0,1-2.36-.84,3.47,3.47,0,0,1,0-4.61,3.38,3.38,0,0,1,2.41-.84,3.16,3.16,0,0,1,2.34.84,3,3,0,0,1,.85,2.22,3.18,3.18,0,0,1-.87,2.36A3.27,3.27,0,0,1,445.77,62.16Zm.05-4.88a1.21,1.21,0,0,0-1,.46,1.92,1.92,0,0,0-.37,1.27c0,1.16.47,1.73,1.4,1.73s1.33-.59,1.33-1.77S446.71,57.28,445.82,57.28Z"/><path class="cls-12" d="M454,54.55a1.77,1.77,0,0,0-.69-.14c-.59,0-.89.32-.89,1V56h1.37v1.37H452.4V62h-1.84V57.38h-1V56h1v-.74a2.15,2.15,0,0,1,.66-1.65A2.55,2.55,0,0,1,453,53a3.11,3.11,0,0,1,.94.12Z"/><path class="cls-12" d="M458.52,61.94a2.67,2.67,0,0,1-1.24.22c-1.3,0-1.95-.68-1.95-2V57.38h-1V56h1V54.72l1.84-.53V56h1.35v1.37h-1.35V59.8c0,.63.25.94.75.94a1.31,1.31,0,0,0,.6-.17Z"/><path class="cls-13" d="M406.05,118.23h-1.87v-5c0-.55,0-1.15.07-1.8h-.05a7.75,7.75,0,0,1-.26,1.11l-2,5.71h-1.55l-2-5.65c-.05-.15-.14-.54-.26-1.17h-.06c.06.82.08,1.55.08,2.18v4.64h-1.7v-8.4h2.77l1.71,5a6.58,6.58,0,0,1,.3,1.2h0a10.27,10.27,0,0,1,.33-1.21l1.72-5h2.7Z"/><path class="cls-13" d="M408.72,111.28A1.06,1.06,0,0,1,408,111a.88.88,0,0,1-.3-.68.87.87,0,0,1,.3-.68,1.14,1.14,0,0,1,.77-.26,1.16,1.16,0,0,1,.77.26.89.89,0,0,1,.29.68.91.91,0,0,1-.29.69A1.11,1.11,0,0,1,408.72,111.28Zm.91,7h-1.85v-6h1.85Z"/><path class="cls-13" d="M415.74,118a3.73,3.73,0,0,1-1.82.36,3,3,0,0,1-2.23-.84,2.9,2.9,0,0,1-.86-2.16,3.19,3.19,0,0,1,.92-2.41,3.38,3.38,0,0,1,2.45-.88,3.14,3.14,0,0,1,1.54.28v1.57a2.13,2.13,0,0,0-1.3-.44,1.71,1.71,0,0,0-1.26.47,1.75,1.75,0,0,0-.47,1.29,1.71,1.71,0,0,0,.45,1.25,1.62,1.62,0,0,0,1.22.45,2.47,2.47,0,0,0,1.36-.43Z"/><path class="cls-13" d="M420.86,113.9a1.61,1.61,0,0,0-.78-.18,1.14,1.14,0,0,0-.94.44,1.93,1.93,0,0,0-.34,1.21v2.86H417v-6h1.85v1.12h0a1.6,1.6,0,0,1,1.59-1.22,1.12,1.12,0,0,1,.45.07Z"/><path class="cls-13" d="M424.54,118.38a3.23,3.23,0,0,1-2.36-.84,3.47,3.47,0,0,1,0-4.61,3.37,3.37,0,0,1,2.41-.84,3.18,3.18,0,0,1,2.34.84,3,3,0,0,1,.85,2.22,3.18,3.18,0,0,1-.87,2.36A3.27,3.27,0,0,1,424.54,118.38Zm0-4.88a1.24,1.24,0,0,0-1,.46,2,2,0,0,0-.36,1.27c0,1.15.47,1.73,1.39,1.73s1.33-.59,1.33-1.77S425.48,113.5,424.58,113.5Z"/><path class="cls-13" d="M428.62,118.07v-1.5a3.66,3.66,0,0,0,.91.41,3,3,0,0,0,.86.14,1.84,1.84,0,0,0,.78-.14.42.42,0,0,0,.28-.41.37.37,0,0,0-.13-.29.88.88,0,0,0-.33-.2,2.52,2.52,0,0,0-.44-.16l-.47-.16a5.16,5.16,0,0,1-.62-.29,1.54,1.54,0,0,1-.46-.36,1.44,1.44,0,0,1-.28-.48,1.7,1.7,0,0,1-.1-.63,1.61,1.61,0,0,1,.22-.87,1.88,1.88,0,0,1,.59-.6,3,3,0,0,1,.83-.34,4.62,4.62,0,0,1,1-.1,5.49,5.49,0,0,1,.8.06,5.3,5.3,0,0,1,.81.18v1.43a2.76,2.76,0,0,0-.75-.31,3.11,3.11,0,0,0-.79-.1,1.87,1.87,0,0,0-.34,0,1.23,1.23,0,0,0-.29.09.6.6,0,0,0-.19.16.34.34,0,0,0-.07.22.41.41,0,0,0,.11.28.79.79,0,0,0,.27.2,2.72,2.72,0,0,0,.38.16l.41.13a6.16,6.16,0,0,1,.67.28,2.55,2.55,0,0,1,.51.36,1.29,1.29,0,0,1,.33.48,1.86,1.86,0,0,1-.12,1.57,1.78,1.78,0,0,1-.61.61,2.72,2.72,0,0,1-.89.35,5,5,0,0,1-1,.11A5.17,5.17,0,0,1,428.62,118.07Z"/><path class="cls-13" d="M437.15,118.38a3.24,3.24,0,0,1-2.36-.84,3.05,3.05,0,0,1-.86-2.28,3,3,0,0,1,.9-2.33,3.34,3.34,0,0,1,2.4-.84,3.2,3.2,0,0,1,2.35.84,3,3,0,0,1,.85,2.22,3.18,3.18,0,0,1-.88,2.36A3.24,3.24,0,0,1,437.15,118.38Zm.05-4.88a1.21,1.21,0,0,0-1,.46,2,2,0,0,0-.36,1.27c0,1.15.46,1.73,1.39,1.73s1.33-.59,1.33-1.77S438.09,113.5,437.2,113.5Z"/><path class="cls-13" d="M445.36,110.77a1.77,1.77,0,0,0-.69-.14c-.59,0-.89.32-.89,1v.64h1.38v1.37h-1.38v4.63h-1.84V113.6h-1v-1.37h1v-.74a2.12,2.12,0,0,1,.67-1.65,2.52,2.52,0,0,1,1.81-.63,3.11,3.11,0,0,1,.94.12Z"/><path class="cls-13" d="M449.9,118.16a2.62,2.62,0,0,1-1.23.22,1.76,1.76,0,0,1-2-2V113.6h-1v-1.37h1v-1.29l1.84-.53v1.82h1.35v1.37h-1.35V116c0,.63.25.94.75.94a1.31,1.31,0,0,0,.6-.17Z"/><path class="cls-13" d="M402,132.07a6.08,6.08,0,0,1-3.06.71,4.4,4.4,0,0,1-3.19-1.12,4.08,4.08,0,0,1-1.17-3.09,4.29,4.29,0,0,1,1.28-3.23,4.65,4.65,0,0,1,3.39-1.25,6.84,6.84,0,0,1,2.36.37v1.77a4.73,4.73,0,0,0-2.38-.56,2.56,2.56,0,0,0-1.92.77,3.27,3.27,0,0,0-.08,4,2.34,2.34,0,0,0,1.8.71,2.52,2.52,0,0,0,1.08-.19v-1.64h-1.68v-1.51H402Z"/><path class="cls-13" d="M407.39,128.3a1.61,1.61,0,0,0-.78-.18,1.12,1.12,0,0,0-.94.44,1.93,1.93,0,0,0-.34,1.21v2.86h-1.86v-6h1.86v1.12h0a1.59,1.59,0,0,1,1.58-1.22,1.14,1.14,0,0,1,.46.07Z"/><path class="cls-13" d="M413.24,132.63h-1.75v-.86h0a2,2,0,0,1-1.79,1,1.86,1.86,0,0,1-1.37-.5,1.76,1.76,0,0,1-.51-1.32q0-1.74,2.07-2l1.63-.22c0-.66-.35-1-1.06-1a3.65,3.65,0,0,0-2,.63V127a4.57,4.57,0,0,1,1.05-.35,5.71,5.71,0,0,1,1.23-.15,2.26,2.26,0,0,1,2.56,2.56Zm-1.74-2.43v-.41l-1.09.14c-.6.08-.9.35-.9.82a.64.64,0,0,0,.22.51.82.82,0,0,0,.59.21,1.08,1.08,0,0,0,.85-.36A1.31,1.31,0,0,0,411.5,130.2Z"/><path class="cls-13" d="M416.58,131.94h0v3.45h-1.85v-8.76h1.85v.91h0a2.18,2.18,0,0,1,1.93-1.05,2.14,2.14,0,0,1,1.8.8,3.34,3.34,0,0,1,.64,2.17,3.71,3.71,0,0,1-.74,2.41,2.43,2.43,0,0,1-2,.91A1.87,1.87,0,0,1,416.58,131.94Zm-.05-2.47V130a1.52,1.52,0,0,0,.33,1,1.06,1.06,0,0,0,.86.39,1.12,1.12,0,0,0,1-.49,2.36,2.36,0,0,0,.35-1.38q0-1.59-1.23-1.59a1.18,1.18,0,0,0-.93.43A1.73,1.73,0,0,0,416.53,129.47Z"/><path class="cls-13" d="M427.91,132.63h-1.85v-3.41q0-1.32-1-1.32a1,1,0,0,0-.8.37,1.45,1.45,0,0,0-.3.94v3.42h-1.85v-8.88H424v3.77h0a2.11,2.11,0,0,1,1.85-1q2,0,2,2.46Z"/><path class="cls-13" d="M440.25,132.63h-2.06l-.6-1.87h-3l-.6,1.87H432l3.06-8.4h2.25Zm-3.09-3.32-.9-2.82a3.12,3.12,0,0,1-.14-.76h-.05a3.06,3.06,0,0,1-.15.73l-.91,2.85Z"/><path class="cls-13" d="M443.2,129.74v2.89h-1.9v-8.4h3c2.11,0,3.17.89,3.17,2.68a2.58,2.58,0,0,1-.91,2.05,3.62,3.62,0,0,1-2.43.78Zm0-4.06v2.62h.74c1,0,1.51-.44,1.51-1.32s-.5-1.3-1.51-1.3Z"/><path class="cls-13" d="M450.57,132.63h-1.9v-8.4h1.9Z"/><path class="cls-11" d="M192.51,9.57h-1.09l-.89-2.36H187l-.83,2.36H185l3.22-8.4h1ZM190.2,6.33l-1.31-3.58a2.75,2.75,0,0,1-.13-.56h0a3.36,3.36,0,0,1-.13.56l-1.31,3.58Z"/><path class="cls-11" d="M198.64,9.57h-1v-1h0a2.21,2.21,0,0,1-2.06,1.16,2.26,2.26,0,0,1-1.81-.81,3.28,3.28,0,0,1-.67-2.19,3.57,3.57,0,0,1,.75-2.38,2.46,2.46,0,0,1,2-.9,1.9,1.9,0,0,1,1.79,1h0V.69h1Zm-1-2.71V6a1.73,1.73,0,0,0-.48-1.23,1.78,1.78,0,0,0-2.6.14,2.81,2.81,0,0,0-.51,1.78,2.51,2.51,0,0,0,.49,1.64,1.57,1.57,0,0,0,1.29.6,1.65,1.65,0,0,0,1.31-.58A2.16,2.16,0,0,0,197.68,6.86Z"/><path class="cls-11" d="M205.61,12.33h-1V8.54h0a2.14,2.14,0,0,1-2.05,1.17,2.26,2.26,0,0,1-1.81-.81,3.28,3.28,0,0,1-.68-2.19,3.6,3.6,0,0,1,.75-2.39,2.5,2.5,0,0,1,2-.89,1.88,1.88,0,0,1,1.78,1h0V3.57h1Zm-1-5.46V6a1.71,1.71,0,0,0-.49-1.25,1.61,1.61,0,0,0-1.22-.51,1.63,1.63,0,0,0-1.37.64,2.85,2.85,0,0,0-.51,1.81,2.43,2.43,0,0,0,.49,1.62,1.52,1.52,0,0,0,1.25.59,1.7,1.7,0,0,0,1.35-.58A2.15,2.15,0,0,0,204.65,6.87Z"/><path class="cls-11" d="M212.31,9.57h-1v-1h0a2,2,0,0,1-1.86,1.09c-1.43,0-2.14-.85-2.14-2.55V3.57h.95V7c0,1.27.49,1.9,1.46,1.9a1.47,1.47,0,0,0,1.16-.52A2,2,0,0,0,211.35,7V3.57h1Z"/><path class="cls-11" d="M214.65,2.05a.59.59,0,0,1-.44-.18.62.62,0,0,1,0-.89.59.59,0,0,1,.44-.18.6.6,0,0,1,.44.18.58.58,0,0,1,.19.45.56.56,0,0,1-.19.43A.58.58,0,0,1,214.65,2.05Zm.46,7.52h-1v-6h1Z"/><path class="cls-11" d="M220.09,4.54a1.16,1.16,0,0,0-.72-.19,1.21,1.21,0,0,0-1,.58,2.64,2.64,0,0,0-.42,1.58V9.57h-1v-6h1V4.81h0a2,2,0,0,1,.62-1,1.45,1.45,0,0,1,1-.36,1.41,1.41,0,0,1,.57.09Z"/><path class="cls-11" d="M221.53,2.05a.61.61,0,0,1-.62-.62.61.61,0,0,1,.18-.45.6.6,0,0,1,.44-.18.62.62,0,0,1,.63.63.58.58,0,0,1-.18.43A.58.58,0,0,1,221.53,2.05ZM222,9.57h-1v-6h1Z"/><path class="cls-11" d="M227,4.54a1.18,1.18,0,0,0-.73-.19,1.23,1.23,0,0,0-1,.58,2.72,2.72,0,0,0-.41,1.58V9.57h-1v-6h1V4.81h0a2.12,2.12,0,0,1,.63-1,1.42,1.42,0,0,1,.94-.36,1.46,1.46,0,0,1,.58.09Z"/><path class="cls-11" d="M233.9,9.51a1.82,1.82,0,0,1-.9.19c-1.05,0-1.57-.59-1.57-1.76V4.39h-1V3.57h1V2.1l1-.31V3.57h1.51v.82h-1.51V7.77a1.45,1.45,0,0,0,.2.86.84.84,0,0,0,.68.26,1,1,0,0,0,.63-.2Z"/><path class="cls-11" d="M237.6,9.71a2.79,2.79,0,0,1-2.13-.84,3.1,3.1,0,0,1-.79-2.23,3.24,3.24,0,0,1,.82-2.36,3,3,0,0,1,2.24-.85,2.66,2.66,0,0,1,2.09.83,3.27,3.27,0,0,1,.75,2.29,3.25,3.25,0,0,1-.81,2.3A2.85,2.85,0,0,1,237.6,9.71Zm.07-5.47a1.84,1.84,0,0,0-1.47.63,2.58,2.58,0,0,0-.54,1.73,2.42,2.42,0,0,0,.55,1.69,1.85,1.85,0,0,0,1.46.61,1.77,1.77,0,0,0,1.43-.6,2.65,2.65,0,0,0,.5-1.72,2.66,2.66,0,0,0-.5-1.73A1.74,1.74,0,0,0,237.67,4.24Z"/><path class="cls-11" d="M247,9.57h-1.34L243,6.69h0V9.57h-1V.69h1V6.32h0l2.52-2.75h1.26L244,6.46Z"/><path class="cls-11" d="M252.71,6.81h-4.23A2.21,2.21,0,0,0,249,8.36a1.85,1.85,0,0,0,1.41.54,2.94,2.94,0,0,0,1.87-.67v.91a3.52,3.52,0,0,1-2.09.57,2.52,2.52,0,0,1-2-.82,3.31,3.31,0,0,1-.73-2.3,3.29,3.29,0,0,1,.8-2.28,2.51,2.51,0,0,1,2-.88,2.25,2.25,0,0,1,1.82.76,3.18,3.18,0,0,1,.64,2.12Zm-1-.81a2,2,0,0,0-.4-1.3,1.37,1.37,0,0,0-1.1-.46,1.55,1.55,0,0,0-1.15.48A2.19,2.19,0,0,0,248.49,6Z"/><path class="cls-11" d="M259.05,9.57h-1V6.15c0-1.28-.46-1.91-1.39-1.91a1.54,1.54,0,0,0-1.2.54A2,2,0,0,0,255,6.15V9.57h-1v-6h1v1h0a2.16,2.16,0,0,1,2-1.14,1.85,1.85,0,0,1,1.51.63,2.84,2.84,0,0,1,.52,1.84Z"/><path class="cls-11" d="M209.47,30h-2.42v7.51h-1V30h-2.42v-.89h5.83Z"/><path class="cls-11" d="M211.93,37.6a2.79,2.79,0,0,1-2.13-.84,3.1,3.1,0,0,1-.79-2.23,3.25,3.25,0,0,1,.83-2.36,3,3,0,0,1,2.23-.85,2.66,2.66,0,0,1,2.09.83,3.23,3.23,0,0,1,.76,2.29,3.21,3.21,0,0,1-.82,2.3A2.85,2.85,0,0,1,211.93,37.6Zm.07-5.47a1.84,1.84,0,0,0-1.47.63A2.59,2.59,0,0,0,210,34.5a2.46,2.46,0,0,0,.55,1.68,1.85,1.85,0,0,0,1.46.61,1.75,1.75,0,0,0,1.43-.6,3.23,3.23,0,0,0,0-3.45A1.73,1.73,0,0,0,212,32.13Z"/><path class="cls-11" d="M221.36,37.46H220l-2.65-2.88h0v2.88h-1V28.58h1v5.63h0l2.52-2.75h1.26l-2.78,2.89Z"/><path class="cls-11" d="M227.09,34.7h-4.23a2.21,2.21,0,0,0,.54,1.55,1.85,1.85,0,0,0,1.42.54,2.93,2.93,0,0,0,1.86-.67V37a3.52,3.52,0,0,1-2.09.57,2.52,2.52,0,0,1-2-.82,3.31,3.31,0,0,1-.73-2.3,3.29,3.29,0,0,1,.8-2.28,2.53,2.53,0,0,1,2-.88,2.25,2.25,0,0,1,1.82.76,3.18,3.18,0,0,1,.64,2.12Zm-1-.81a2,2,0,0,0-.4-1.3,1.36,1.36,0,0,0-1.1-.46,1.55,1.55,0,0,0-1.15.48,2.19,2.19,0,0,0-.59,1.28Z"/><path class="cls-11" d="M233.46,37.46h-1V34c0-1.28-.47-1.91-1.4-1.91a1.5,1.5,0,0,0-1.19.54,2,2,0,0,0-.47,1.37v3.42h-1v-6h1v1h0a2.16,2.16,0,0,1,2-1.14,1.81,1.81,0,0,1,1.5.64,2.79,2.79,0,0,1,.53,1.83Z"/><path class="cls-11" d="M243.53,37.46h-1v-1h0a2.42,2.42,0,0,1-3.87.35A3.28,3.28,0,0,1,238,34.6a3.57,3.57,0,0,1,.75-2.38,2.48,2.48,0,0,1,2-.9,1.93,1.93,0,0,1,1.8,1h0V28.58h1Zm-1-2.71v-.89a1.73,1.73,0,0,0-.48-1.23,1.78,1.78,0,0,0-2.6.14,2.81,2.81,0,0,0-.51,1.78,2.54,2.54,0,0,0,.49,1.64,1.57,1.57,0,0,0,1.3.6,1.63,1.63,0,0,0,1.3-.58A2.16,2.16,0,0,0,242.57,34.75Z"/><path class="cls-11" d="M250.23,34.7H246a2.3,2.3,0,0,0,.54,1.55,1.87,1.87,0,0,0,1.42.54,2.93,2.93,0,0,0,1.86-.67V37a3.5,3.5,0,0,1-2.09.57,2.53,2.53,0,0,1-2-.82,3.36,3.36,0,0,1-.73-2.3,3.29,3.29,0,0,1,.8-2.28,2.53,2.53,0,0,1,2-.88,2.25,2.25,0,0,1,1.82.76,3.18,3.18,0,0,1,.65,2.12Zm-1-.81a2,2,0,0,0-.4-1.3,1.36,1.36,0,0,0-1.1-.46,1.55,1.55,0,0,0-1.15.48,2.25,2.25,0,0,0-.59,1.28Z"/><path class="cls-11" d="M259.12,37.46h-1v-.94h0a2.2,2.2,0,0,1-3.25.61,1.68,1.68,0,0,1-.5-1.26c0-1.12.66-1.78,2-2l1.8-.25c0-1-.42-1.53-1.24-1.53a2.92,2.92,0,0,0-2,.74v-1a3.76,3.76,0,0,1,2-.56c1.41,0,2.12.75,2.12,2.24Zm-1-3-1.45.2a2.43,2.43,0,0,0-1,.34,1.08,1.08,0,0,0,0,1.55,1.2,1.2,0,0,0,.84.28,1.51,1.51,0,0,0,1.18-.5,1.8,1.8,0,0,0,.47-1.27Z"/><path class="cls-11" d="M265,37.18a3.1,3.1,0,0,1-1.64.42,2.76,2.76,0,0,1-2.08-.83,3.06,3.06,0,0,1-.78-2.17,3.3,3.3,0,0,1,.85-2.38,3,3,0,0,1,2.26-.9,3.24,3.24,0,0,1,1.4.29v1a2.4,2.4,0,0,0-1.43-.47,1.93,1.93,0,0,0-1.51.66,2.5,2.5,0,0,0-.59,1.73,2.41,2.41,0,0,0,.55,1.66,1.91,1.91,0,0,0,1.49.61,2.41,2.41,0,0,0,1.48-.52Z"/><path class="cls-11" d="M270.42,37.18a3.1,3.1,0,0,1-1.64.42,2.72,2.72,0,0,1-2.07-.83,3,3,0,0,1-.79-2.17,3.3,3.3,0,0,1,.85-2.38,3,3,0,0,1,2.26-.9,3.24,3.24,0,0,1,1.4.29v1a2.4,2.4,0,0,0-1.43-.47,1.93,1.93,0,0,0-1.51.66,2.5,2.5,0,0,0-.59,1.73,2.36,2.36,0,0,0,.56,1.66,1.87,1.87,0,0,0,1.48.61,2.41,2.41,0,0,0,1.48-.52Z"/><path class="cls-11" d="M276.62,34.7h-4.24a2.3,2.3,0,0,0,.54,1.55,1.88,1.88,0,0,0,1.42.54,2.89,2.89,0,0,0,1.86-.67V37a3.47,3.47,0,0,1-2.09.57,2.53,2.53,0,0,1-2-.82,3.35,3.35,0,0,1-.72-2.3,3.28,3.28,0,0,1,.79-2.28,2.54,2.54,0,0,1,2-.88,2.26,2.26,0,0,1,1.83.76,3.18,3.18,0,0,1,.64,2.12Zm-1-.81a2,2,0,0,0-.41-1.3,1.35,1.35,0,0,0-1.09-.46,1.57,1.57,0,0,0-1.16.48,2.24,2.24,0,0,0-.58,1.28Z"/><path class="cls-11" d="M277.64,37.24v-1a2.82,2.82,0,0,0,1.73.58q1.26,0,1.26-.84a.68.68,0,0,0-.11-.41,1,1,0,0,0-.29-.29,2.19,2.19,0,0,0-.43-.24l-.54-.21c-.26-.11-.5-.21-.7-.32a2.22,2.22,0,0,1-.5-.36,1.38,1.38,0,0,1-.31-.46,1.63,1.63,0,0,1-.1-.61,1.38,1.38,0,0,1,.19-.74,1.7,1.7,0,0,1,.52-.55,2.43,2.43,0,0,1,.73-.33,3.49,3.49,0,0,1,.86-.11,3.41,3.41,0,0,1,1.39.27v1a2.7,2.7,0,0,0-1.52-.43,1.88,1.88,0,0,0-.49.06,1.26,1.26,0,0,0-.37.17,1,1,0,0,0-.24.27.67.67,0,0,0-.09.34.75.75,0,0,0,.09.39,1,1,0,0,0,.25.29,2.11,2.11,0,0,0,.4.22l.53.21c.27.11.5.21.72.32a2.45,2.45,0,0,1,.53.36,1.37,1.37,0,0,1,.47,1.09,1.51,1.51,0,0,1-.2.78,1.58,1.58,0,0,1-.52.54,2.5,2.5,0,0,1-.76.33,3.71,3.71,0,0,1-.9.1A3.37,3.37,0,0,1,277.64,37.24Z"/><path class="cls-11" d="M285.53,37.6a2.76,2.76,0,0,1-2.12-.84,3.11,3.11,0,0,1-.8-2.23,3.25,3.25,0,0,1,.83-2.36,3,3,0,0,1,2.23-.85,2.66,2.66,0,0,1,2.09.83,3.23,3.23,0,0,1,.76,2.29,3.25,3.25,0,0,1-.81,2.3A2.87,2.87,0,0,1,285.53,37.6Zm.07-5.47a1.84,1.84,0,0,0-1.47.63,2.64,2.64,0,0,0-.53,1.74,2.46,2.46,0,0,0,.54,1.68,1.85,1.85,0,0,0,1.46.61,1.75,1.75,0,0,0,1.43-.6,2.59,2.59,0,0,0,.5-1.72,2.61,2.61,0,0,0-.5-1.73A1.73,1.73,0,0,0,285.6,32.13Z"/><path class="cls-11" d="M192,135.43h-1.18l-1.4-2.36c-.13-.21-.26-.4-.38-.56a1.85,1.85,0,0,0-.37-.37,1.36,1.36,0,0,0-.41-.22,1.88,1.88,0,0,0-.49-.06H187v3.57h-1V127h2.51a3.31,3.31,0,0,1,1,.14,2.38,2.38,0,0,1,.81.41,2.06,2.06,0,0,1,.53.7,2.33,2.33,0,0,1,.19,1,2.28,2.28,0,0,1-.13.8,1.9,1.9,0,0,1-.37.65,2,2,0,0,1-.59.49,3,3,0,0,1-.77.32v0a1.88,1.88,0,0,1,.37.21,2,2,0,0,1,.29.29,2.75,2.75,0,0,1,.28.37l.31.48Zm-5-7.51v3h1.33a1.92,1.92,0,0,0,.69-.11,1.55,1.55,0,0,0,.54-.32,1.26,1.26,0,0,0,.35-.51,1.6,1.6,0,0,0,.13-.67,1.31,1.31,0,0,0-.43-1,1.84,1.84,0,0,0-1.27-.38Z"/><path class="cls-11" d="M197.49,132.67h-4.24a2.25,2.25,0,0,0,.54,1.55,1.85,1.85,0,0,0,1.42.54,2.93,2.93,0,0,0,1.86-.67V135a3.5,3.5,0,0,1-2.09.57,2.52,2.52,0,0,1-2-.82,3.36,3.36,0,0,1-.73-2.3,3.29,3.29,0,0,1,.8-2.28,2.53,2.53,0,0,1,2-.88,2.25,2.25,0,0,1,1.82.76,3.18,3.18,0,0,1,.65,2.12Zm-1-.81a2,2,0,0,0-.4-1.3,1.36,1.36,0,0,0-1.1-.46,1.55,1.55,0,0,0-1.15.48,2.25,2.25,0,0,0-.59,1.28Z"/><path class="cls-11" d="M198.54,135.21v-1a2.82,2.82,0,0,0,1.73.58q1.26,0,1.26-.84a.76.76,0,0,0-.1-.41,1.22,1.22,0,0,0-.3-.3,2.86,2.86,0,0,0-.43-.23l-.54-.21c-.26-.11-.5-.21-.7-.32a2.22,2.22,0,0,1-.5-.36,1.38,1.38,0,0,1-.31-.46,1.85,1.85,0,0,1-.1-.61,1.48,1.48,0,0,1,.19-.74,1.82,1.82,0,0,1,.52-.55,2.26,2.26,0,0,1,.74-.33,3.56,3.56,0,0,1,2.24.16v1a2.7,2.7,0,0,0-1.52-.43,1.88,1.88,0,0,0-.49.06,1.26,1.26,0,0,0-.37.17,1,1,0,0,0-.24.27.66.66,0,0,0-.08.34.75.75,0,0,0,.08.39,1,1,0,0,0,.25.29,2.11,2.11,0,0,0,.4.22l.53.21c.27.11.51.21.72.32a2.82,2.82,0,0,1,.54.36,1.57,1.57,0,0,1,.34.47,1.46,1.46,0,0,1,.12.62,1.51,1.51,0,0,1-.2.78,1.58,1.58,0,0,1-.52.54,2.26,2.26,0,0,1-.76.32,3.24,3.24,0,0,1-.89.11A3.39,3.39,0,0,1,198.54,135.21Z"/><path class="cls-11" d="M204.94,134.56h0v3.63h-1v-8.76h1v1h0a2.3,2.3,0,0,1,2.08-1.19,2.23,2.23,0,0,1,1.81.8,3.37,3.37,0,0,1,.65,2.16,3.79,3.79,0,0,1-.73,2.42,2.46,2.46,0,0,1-2,.9A2,2,0,0,1,204.94,134.56Zm0-2.42V133a1.77,1.77,0,0,0,.48,1.26,1.73,1.73,0,0,0,2.6-.15,3,3,0,0,0,.49-1.85,2.39,2.39,0,0,0-.46-1.57,1.53,1.53,0,0,0-1.25-.57,1.7,1.7,0,0,0-1.35.58A2.15,2.15,0,0,0,204.92,132.14Z"/><path class="cls-11" d="M215.83,135.43h-1v-1h0a2,2,0,0,1-1.86,1.09c-1.43,0-2.14-.85-2.14-2.55v-3.59h1v3.43c0,1.27.49,1.9,1.46,1.9a1.44,1.44,0,0,0,1.15-.52,1.92,1.92,0,0,0,.46-1.35v-3.46h1Z"/><path class="cls-11" d="M222.56,132.67h-4.24a2.21,2.21,0,0,0,.54,1.55,1.85,1.85,0,0,0,1.42.54,2.93,2.93,0,0,0,1.86-.67V135a3.52,3.52,0,0,1-2.09.57,2.52,2.52,0,0,1-2-.82,3.81,3.81,0,0,1,.07-4.58,2.53,2.53,0,0,1,2-.88,2.25,2.25,0,0,1,1.82.76,3.18,3.18,0,0,1,.65,2.12Zm-1-.81a2,2,0,0,0-.4-1.3,1.36,1.36,0,0,0-1.1-.46,1.55,1.55,0,0,0-1.15.48,2.19,2.19,0,0,0-.59,1.28Z"/><path class="cls-11" d="M230.92,135.37a1.82,1.82,0,0,1-.9.19c-1.05,0-1.58-.59-1.58-1.76v-3.55h-2.65a2.49,2.49,0,0,0-.49,0,1,1,0,0,0-.37.12.61.61,0,0,0-.24.21.57.57,0,0,0-.09.32.75.75,0,0,0,.09.39,1,1,0,0,0,.25.29,2.11,2.11,0,0,0,.4.22l.53.21c.27.11.5.21.72.32a2.45,2.45,0,0,1,.53.36,1.45,1.45,0,0,1,.35.47,1.52,1.52,0,0,1,.12.62,1.51,1.51,0,0,1-.2.78,1.58,1.58,0,0,1-.52.54,2.26,2.26,0,0,1-.76.32,3.74,3.74,0,0,1-2.5-.25v-1a2.8,2.8,0,0,0,1.73.58q1.26,0,1.26-.84a.62.62,0,0,0-.11-.39,1.17,1.17,0,0,0-.29-.3,2.19,2.19,0,0,0-.43-.24l-.54-.22c-.26-.11-.5-.21-.7-.32a2.22,2.22,0,0,1-.5-.36,1.38,1.38,0,0,1-.31-.46,1.63,1.63,0,0,1-.1-.61,1.37,1.37,0,0,1,.18-.72,1.5,1.5,0,0,1,.47-.5,2.19,2.19,0,0,1,.66-.28,3.06,3.06,0,0,1,.74-.09h2.77V128l1-.31v1.78h1.52v.82H229.4v3.38a1.37,1.37,0,0,0,.21.86.83.83,0,0,0,.68.26,1.05,1.05,0,0,0,.63-.2Z"/><path class="cls-11" d="M236.46,135.43h-1v-.94h0a2.2,2.2,0,0,1-3.25.61,1.68,1.68,0,0,1-.5-1.26c0-1.13.66-1.78,2-2l1.8-.25c0-1-.42-1.53-1.24-1.53a2.94,2.94,0,0,0-2,.74v-1a3.76,3.76,0,0,1,2-.56c1.41,0,2.12.75,2.12,2.24Zm-1-3-1.45.2a2.59,2.59,0,0,0-1,.33,1,1,0,0,0-.34.85.9.9,0,0,0,.32.71,1.16,1.16,0,0,0,.83.28,1.55,1.55,0,0,0,1.18-.5,1.8,1.8,0,0,0,.47-1.27Z"/><path class="cls-11" d="M247.93,135.43h-1V131.6H242.6v3.83h-1V127h1v3.68h4.34V127h1Z"/><path class="cls-11" d="M255.06,127.92h-2.42v7.51h-1v-7.51h-2.42V127h5.83Z"/><path class="cls-11" d="M261.55,127.92h-2.43v7.51h-1v-7.51h-2.42V127h5.83Z"/><path class="cls-11" d="M263.82,132.25v3.18h-1V127h2.31a3.08,3.08,0,0,1,2.09.65,2.37,2.37,0,0,1,.74,1.86,2.54,2.54,0,0,1-.82,2,3.14,3.14,0,0,1-2.23.76Zm0-4.33v3.44h1a2.28,2.28,0,0,0,1.55-.46,1.65,1.65,0,0,0,.54-1.32c0-1.11-.66-1.66-2-1.66Z"/></g></svg>