<svg xmlns="http://www.w3.org/2000/svg" xmlns:xlink="http://www.w3.org/1999/xlink" viewBox="0 0 475.49 150.76"><defs><style>.cls-1{fill:#505050;}.cls-10,.cls-14,.cls-2{fill:#fff;}.cls-3,.cls-7{fill:#ebebeb;}.cls-15,.cls-4{fill:#0072c6;}.cls-5{fill:#d2d2d2;}.cls-6{fill:none;}.cls-12,.cls-6,.cls-7{stroke:#000;}.cls-12,.cls-13,.cls-14,.cls-15,.cls-6,.cls-7{stroke-miterlimit:10;}.cls-7{stroke-width:0.75px;}.cls-8{fill:#3e3e3e;}.cls-9{fill:#b8d432;}.cls-10{opacity:0.15;isolation:isolate;}.cls-11,.cls-13{fill:#1e1e1e;}.cls-12,.cls-14,.cls-15{stroke-width:0.05px;}.cls-13{stroke:#1e1e1e;stroke-width:0.06px;}.cls-14{stroke:#fff;}.cls-15{stroke:#0072c6;}</style><symbol id="New_Symbol_44" data-name="New Symbol 44" viewBox="0 0 20 20"><circle class="cls-1" cx="10" cy="10" r="10"/><path class="cls-2" d="M12,14V8.58h1.25V7.45H12V5.6H10.65V7.42H6.85V8.56q.51.58,1.05,1.26a12.66,12.66,0,0,1,1,1.38c.29.47.64.94.93,1.41A13,13,0,0,1,10.55,14ZM10.65,8.58v3.5a19.76,19.76,0,0,0-1.26-2C9,9.51,8.58,9,8.22,8.56Z"/></symbol><symbol id="New_Symbol_43" data-name="New Symbol 43" viewBox="0 0 20 20"><circle class="cls-1" cx="10" cy="10" r="10"/><path class="cls-2" d="M7.39,5.88V7.16a3,3,0,0,1,1.85-.65,2.19,2.19,0,0,1,1.34.38,1.23,1.23,0,0,1,.5,1c0,1-.73,1.43-2.18,1.43H8.24v1.12h.63c1.29,0,1.94.45,1.94,1.35S10.3,13,9.29,13a2.48,2.48,0,0,1-1.58-.6v1.23a4.08,4.08,0,0,0,2,.48,2.64,2.64,0,0,0,1.79-.56,1.76,1.76,0,0,0,.67-1.44A2,2,0,0,0,10.5,10h0a2.19,2.19,0,0,0,1.43-.63A1.89,1.89,0,0,0,12.5,8a2.22,2.22,0,0,0-.85-1.82,3.4,3.4,0,0,0-2.24-.7A3.84,3.84,0,0,0,7.39,5.88Z"/></symbol><symbol id="New_Symbol_42" data-name="New Symbol 42" viewBox="0 0 20 20"><circle class="cls-1" cx="10" cy="10" r="10"/><path class="cls-2" d="M12.5,5.57H7.24v.65A2.58,2.58,0,0,0,7.35,7a3.93,3.93,0,0,0,.3.66,4.92,4.92,0,0,0,.44.58c.17.18.35.35.54.52l.59.5c.2.15.39.31.58.47s.35.3.5.45a4.11,4.11,0,0,1,.38.45,2.55,2.55,0,0,1,.24.5,1.84,1.84,0,0,1,.09.57,1.42,1.42,0,0,1-.1.58,1.33,1.33,0,0,1-.29.41,1.17,1.17,0,0,1-.44.26,2.05,2.05,0,0,1-.55.05,2.73,2.73,0,0,1-1.05-.24,3.75,3.75,0,0,1-1-.72v1.31a2.85,2.85,0,0,0,.52.33,2.7,2.7,0,0,0,.55.24,3,3,0,0,0,.59.15,3.64,3.64,0,0,0,.66,0,3.77,3.77,0,0,0,1-.14,2.2,2.2,0,0,0,.79-.44,2,2,0,0,0,.51-.73,2.46,2.46,0,0,0,.18-1,2.88,2.88,0,0,0-.13-.92,2.65,2.65,0,0,0-.36-.76,4,4,0,0,0-.56-.67c-.21-.21-.46-.43-.73-.65l-.67-.53c-.23-.18-.43-.35-.61-.51a3.5,3.5,0,0,1-.44-.5.9.9,0,0,1-.16-.5H12.5Z"/></symbol><symbol id="New_Symbol_41" data-name="New Symbol 41" viewBox="0 0 20 20"><circle class="cls-1" cx="10" cy="10" r="10"/><path class="cls-2" d="M11.19,14.16V5.57H9.83V12.5A4.06,4.06,0,0,0,9,12a9,9,0,0,0-1-.33v1.21l.65.24.63.27.62.34c.21.13.42.27.64.43Z"/></symbol></defs><title>OJ104329346</title><g id="bg"><g id="Shapes"><rect class="cls-2" width="475.49" height="150"/><rect class="cls-3" y="0.48" width="105" height="150"/><rect class="cls-4" x="370.83" y="0.48" width="104.66" height="90"/><rect class="cls-5" x="370.83" y="95.48" width="104.66" height="55"/><line class="cls-6" x1="104.74" y1="15.76" x2="365.31" y2="15.76"/><polygon points="364.22 19.5 370.69 15.76 364.22 12.02 364.22 19.5"/><line class="cls-6" x1="110.12" y1="45.64" x2="370.69" y2="45.64"/><polygon points="111.22 49.38 104.74 45.64 111.22 41.9 111.22 49.38"/><line class="cls-6" x1="104.74" y1="105.07" x2="365.31" y2="105.07"/><polygon points="364.22 108.81 370.69 105.07 364.22 101.33 364.22 108.81"/><line class="cls-6" x1="110.17" y1="141.23" x2="370.74" y2="141.23"/><polygon points="111.26 144.97 104.78 141.23 111.26 137.49 111.26 144.97"/><use width="20" height="20" transform="matrix(1, 0, 0, -1, 159.62, 150.76)" xlink:href="#New_Symbol_44"/><use width="20" height="20" transform="matrix(1, 0, 0, -1, 159.62, 115.07)" xlink:href="#New_Symbol_43"/><use width="20" height="20" transform="matrix(1, 0, 0, -1, 159.62, 55.64)" xlink:href="#New_Symbol_42"/><use width="20" height="20" transform="matrix(1, 0, 0, -1, 159.62, 25.76)" xlink:href="#New_Symbol_41"/><polygon class="cls-7" points="192.5 26.76 184.94 32.2 187.83 41.01 197.17 41.01 200.06 32.2 192.5 26.76"/><path class="cls-8" d="M76.61,87.07a4.2,4.2,0,0,1-4.2,4.2H32.59a4.2,4.2,0,0,1-4.2-4.2V25.47a4.2,4.2,0,0,1,4.2-4.2H72.41a4.2,4.2,0,0,1,4.2,4.2Z"/><rect class="cls-2" x="31.5" y="28.27" width="42" height="49.31"/><path class="cls-2" d="M56.55,84.43a4,4,0,1,1-4-4.05,4,4,0,0,1,4,4.05"/><path class="cls-9" d="M55.15,84.43a2.65,2.65,0,1,1-2.65-2.65,2.65,2.65,0,0,1,2.65,2.65h0"/><path class="cls-10" d="M31.5,77.58V28.27H63.37l2.85-7H32.59a4.2,4.2,0,0,0-4.2,4.2h0v61.6a4.2,4.2,0,0,0,4.18,4.2h5.19l5.57-13.69Z"/><path class="cls-11" d="M59.66,25.22a1,1,0,0,1-1,1H46.38a1,1,0,0,1,0-2.07H58.62a1,1,0,0,1,1,1"/><path class="cls-2" d="M59.66,25.22a1,1,0,0,1-1,1H46.38a1,1,0,0,1,0-2.07H58.62a1,1,0,0,1,1,1"/><path d="M38.48,46.88a.93.93,0,0,1-.69-.27,1,1,0,0,1-.29-.71.93.93,0,0,1,.29-.7,1,1,0,0,1,.69-.27,1.3,1.3,0,0,1,.39.09,1,1,0,0,1,.32.2,1,1,0,0,1,.21.31,1.05,1.05,0,0,1,0,.78.84.84,0,0,1-.22.31A.79.79,0,0,1,38.48,46.88Zm-.67,13.78v-11h1.37v11Z"/><path d="M49.11,60.93a7,7,0,0,1-3-.61,6.54,6.54,0,0,1-2.27-1.66,7.34,7.34,0,0,1-1.42-2.47,9.08,9.08,0,0,1-.49-3.06,10.28,10.28,0,0,1,.49-3.3,7,7,0,0,1,1.46-2.56,6.29,6.29,0,0,1,2.34-1.67,8,8,0,0,1,3.16-.6,7.17,7.17,0,0,1,2.93.59,6.46,6.46,0,0,1,2.22,1.62,7.43,7.43,0,0,1,1.4,2.44,9.56,9.56,0,0,1,.49,3.09A10.92,10.92,0,0,1,55.93,56a7.35,7.35,0,0,1-1.41,2.59,6.35,6.35,0,0,1-2.29,1.72A7.44,7.44,0,0,1,49.11,60.93Zm.12-14.63a5.56,5.56,0,0,0-2.47.54,5.41,5.41,0,0,0-1.82,1.43,6.33,6.33,0,0,0-1.13,2.13,8.81,8.81,0,0,0-.39,2.6,8.54,8.54,0,0,0,.34,2.51,6.19,6.19,0,0,0,1.07,2.11,5.08,5.08,0,0,0,1.78,1.47,5.44,5.44,0,0,0,2.51.55,6.1,6.1,0,0,0,2.53-.49,5.16,5.16,0,0,0,1.8-1.41,6,6,0,0,0,1.09-2.11A9.33,9.33,0,0,0,54.92,53a9.88,9.88,0,0,0-.32-2.54,5.91,5.91,0,0,0-1-2.12,4.86,4.86,0,0,0-1.77-1.44A5.82,5.82,0,0,0,49.23,46.3Z"/><path d="M58.78,58.41a5.78,5.78,0,0,0,.86.52,6.73,6.73,0,0,0,2,.62,6,6,0,0,0,.94.08A4.24,4.24,0,0,0,65.15,59,2.29,2.29,0,0,0,66,57a2.35,2.35,0,0,0-.84-1.92,5.89,5.89,0,0,0-1.1-.77c-.43-.26-1-.56-1.54-.89s-1.22-.7-1.69-1a6.45,6.45,0,0,1-1.15-1A3.06,3.06,0,0,1,59,50.34,3.82,3.82,0,0,1,58.84,49a3.52,3.52,0,0,1,.39-1.68,4.09,4.09,0,0,1,1.08-1.26,4.91,4.91,0,0,1,1.58-.8,6.76,6.76,0,0,1,2-.28,8.08,8.08,0,0,1,3,.49v1.58a6.27,6.27,0,0,0-3.2-.78,4.88,4.88,0,0,0-1.31.19,3.2,3.2,0,0,0-1.06.49,2.4,2.4,0,0,0-.72.8,2.24,2.24,0,0,0-.26,1.11,2.46,2.46,0,0,0,.18,1,2.33,2.33,0,0,0,.57.82,5.78,5.78,0,0,0,1,.77q.64.38,1.56.87c.58.31,1.14.64,1.68,1a6.78,6.78,0,0,1,1.2,1,3.79,3.79,0,0,1,.71,1.13,3.37,3.37,0,0,1,.24,1.33,4.07,4.07,0,0,1-.38,1.78,3.4,3.4,0,0,1-1,1.27,4.77,4.77,0,0,1-1.61.76,7.89,7.89,0,0,1-2,.26,6.36,6.36,0,0,1-.87-.06,4.54,4.54,0,0,1-1-.17,8.68,8.68,0,0,1-1-.27,3.46,3.46,0,0,1-.76-.34Z"/></g><polygon class="cls-7" points="192.57 86.69 185.01 92.14 187.9 100.94 197.24 100.94 200.13 92.14 192.57 86.69"/></g><g id="txt"><path class="cls-12" d="M31.24,111.68H29.18l-.6-1.87h-3L25,111.68H23l3.06-8.4h2.24Zm-3.1-3.32-.9-2.82a4.51,4.51,0,0,1-.14-.76h-.05a2.62,2.62,0,0,1-.14.73L26,108.36Z"/><path class="cls-12" d="M34,111h0v3.45H32.11v-8.76H34v.9h0a2.19,2.19,0,0,1,1.93-1,2.14,2.14,0,0,1,1.8.8,3.4,3.4,0,0,1,.64,2.17,3.66,3.66,0,0,1-.75,2.41,2.4,2.4,0,0,1-2,.91A1.87,1.87,0,0,1,34,111Zm0-2.47V109a1.53,1.53,0,0,0,.33,1,1.05,1.05,0,0,0,.86.39,1.12,1.12,0,0,0,1-.49,2.36,2.36,0,0,0,.35-1.38q0-1.59-1.23-1.59a1.18,1.18,0,0,0-.93.43A1.73,1.73,0,0,0,33.93,108.52Z"/><path class="cls-12" d="M41.4,111.68H39.55V102.8H41.4Z"/><path class="cls-12" d="M43.89,104.73a1.09,1.09,0,0,1-.76-.27.92.92,0,0,1-.3-.69.88.88,0,0,1,.3-.68,1.13,1.13,0,0,1,.76-.26,1.17,1.17,0,0,1,.78.26,1,1,0,0,1,0,1.37A1.12,1.12,0,0,1,43.89,104.73Zm.92,7H43v-6h1.85Z"/><path class="cls-12" d="M50.91,111.47a3.66,3.66,0,0,1-1.81.36,3,3,0,0,1-2.23-.84,2.86,2.86,0,0,1-.86-2.16,3.19,3.19,0,0,1,.92-2.41,3.38,3.38,0,0,1,2.45-.88,3.07,3.07,0,0,1,1.53.28v1.57a2.08,2.08,0,0,0-1.29-.44,1.71,1.71,0,0,0-1.26.47,1.75,1.75,0,0,0-.47,1.29,1.71,1.71,0,0,0,.45,1.25,1.62,1.62,0,0,0,1.22.45,2.42,2.42,0,0,0,1.35-.43Z"/><path class="cls-12" d="M57.12,111.68H55.37v-.86h0a2,2,0,0,1-1.78,1,1.88,1.88,0,0,1-1.38-.5,1.79,1.79,0,0,1-.5-1.32q0-1.74,2.07-2l1.63-.22c0-.66-.36-1-1.07-1a3.7,3.7,0,0,0-2,.63V106a4.67,4.67,0,0,1,1.06-.35,5.7,5.7,0,0,1,1.22-.15,2.27,2.27,0,0,1,2.57,2.56Zm-1.74-2.43v-.41l-1.09.14c-.6.08-.9.35-.9.82a.64.64,0,0,0,.22.51.8.8,0,0,0,.59.21,1.1,1.1,0,0,0,.85-.36A1.31,1.31,0,0,0,55.38,109.25Z"/><path class="cls-12" d="M63.13,111.47a3.69,3.69,0,0,1-1.81.36,3.06,3.06,0,0,1-2.24-.84,2.89,2.89,0,0,1-.85-2.16,3.19,3.19,0,0,1,.91-2.41,3.39,3.39,0,0,1,2.46-.88,3.12,3.12,0,0,1,1.53.28v1.57a2.12,2.12,0,0,0-1.29-.44,1.71,1.71,0,0,0-1.27.47,2,2,0,0,0,0,2.54,1.66,1.66,0,0,0,1.23.45,2.42,2.42,0,0,0,1.35-.43Z"/><path class="cls-12" d="M65.28,104.73a1.11,1.11,0,0,1-.77-.27.92.92,0,0,1-.3-.69.88.88,0,0,1,.3-.68,1.16,1.16,0,0,1,.77-.26,1.14,1.14,0,0,1,.77.26.93.93,0,0,1,0,1.37A1.1,1.1,0,0,1,65.28,104.73Zm.92,7H64.34v-6H66.2Z"/><path class="cls-12" d="M70.61,111.83a3.24,3.24,0,0,1-2.36-.84,3,3,0,0,1-.85-2.28,3,3,0,0,1,.89-2.33,3.35,3.35,0,0,1,2.41-.84,3.19,3.19,0,0,1,2.34.84,3,3,0,0,1,.85,2.22A3.15,3.15,0,0,1,73,111,3.24,3.24,0,0,1,70.61,111.83Zm0-4.88a1.21,1.21,0,0,0-1,.46,2,2,0,0,0-.36,1.27c0,1.15.46,1.73,1.39,1.73s1.33-.59,1.33-1.77S71.55,107,70.66,107Zm2-4.11-1.84,1.89H69.48L71,102.84Z"/><path class="cls-12" d="M80.88,111.68H79v-3.33c0-.93-.33-1.4-1-1.4a1,1,0,0,0-.79.37,1.4,1.4,0,0,0-.31.94v3.42H75.08v-6h1.86v.95h0a2.11,2.11,0,0,1,1.93-1.09c1.32,0,2,.82,2,2.47Z"/><path class="cls-12" d="M41.51,126.08H39.67v-3.33c0-.93-.34-1.4-1-1.4a1,1,0,0,0-.79.37,1.4,1.4,0,0,0-.31.94v3.42H35.72v-6h1.85v1h0a2.12,2.12,0,0,1,1.93-1.09c1.33,0,2,.82,2,2.47Z"/><path class="cls-12" d="M48,126.08H46.22v-.86h0a2,2,0,0,1-1.78,1,1.9,1.9,0,0,1-1.38-.5,1.79,1.79,0,0,1-.5-1.32q0-1.74,2.07-2l1.63-.22c0-.66-.36-1-1.07-1a3.7,3.7,0,0,0-2,.63v-1.39a4.67,4.67,0,0,1,1.06-.35,5.7,5.7,0,0,1,1.22-.15A2.27,2.27,0,0,1,48,122.5Zm-1.74-2.43v-.41l-1.09.14c-.6.08-.9.35-.9.82a.64.64,0,0,0,.22.51.8.8,0,0,0,.59.21,1.1,1.1,0,0,0,.85-.36A1.31,1.31,0,0,0,46.23,123.65Z"/><path class="cls-12" d="M53.06,126a2.62,2.62,0,0,1-1.23.22,1.76,1.76,0,0,1-2-2v-2.75h-1v-1.37h1v-1.29l1.84-.53v1.82h1.35v1.37H51.71v2.42c0,.63.25.94.75.94a1.31,1.31,0,0,0,.6-.17Z"/><path class="cls-12" d="M55,119.13a1.11,1.11,0,0,1-.77-.27.94.94,0,0,1-.29-.69.91.91,0,0,1,.29-.68,1.16,1.16,0,0,1,.77-.26,1.12,1.12,0,0,1,.77.26.93.93,0,0,1,0,1.37A1.08,1.08,0,0,1,55,119.13Zm.92,7H54.1v-6H56Z"/><path class="cls-12" d="M63.23,120.08l-2.23,6H58.89l-2.13-6h2l1,3.7a5.25,5.25,0,0,1,.21,1.07h0a6,6,0,0,1,.22-1l1.06-3.74Z"/><path class="cls-12" d="M68.83,126.08H67.08v-.86h0a2,2,0,0,1-1.78,1,1.88,1.88,0,0,1-1.38-.5,1.79,1.79,0,0,1-.5-1.32q0-1.74,2.07-2l1.63-.22c0-.66-.36-1-1.07-1a3.7,3.7,0,0,0-2,.63v-1.39a4.67,4.67,0,0,1,1.06-.35,5.7,5.7,0,0,1,1.22-.15,2.27,2.27,0,0,1,2.57,2.56Zm-1.74-2.43v-.41l-1.09.14c-.6.08-.9.35-.9.82a.64.64,0,0,0,.22.51.8.8,0,0,0,.59.21,1.1,1.1,0,0,0,.85-.36A1.31,1.31,0,0,0,67.09,123.65Z"/><path class="cls-13" d="M212.94,86h-1V82.21h-4.34V86h-1v-8.4h1v3.69H212V77.64h1Z"/><path class="cls-13" d="M220,78.53h-2.43V86h-1V78.53h-2.42v-.89H220Z"/><path class="cls-13" d="M226.49,78.53h-2.43V86h-1V78.53h-2.42v-.89h5.83Z"/><path class="cls-13" d="M228.72,82.87V86h-1v-8.4H230a3,3,0,0,1,2.09.66,2.31,2.31,0,0,1,.74,1.85,2.54,2.54,0,0,1-.82,2,3.18,3.18,0,0,1-2.22.76Zm0-4.34V82h1a2.33,2.33,0,0,0,1.56-.47,1.67,1.67,0,0,0,.53-1.31c0-1.11-.65-1.67-2-1.67Z"/><path class="cls-13" d="M243.88,85.47a5.56,5.56,0,0,1-2.81.71A3.82,3.82,0,0,1,238.16,85,4.24,4.24,0,0,1,237.05,82a4.37,4.37,0,0,1,1.23-3.2,4.21,4.21,0,0,1,3.13-1.25,5.27,5.27,0,0,1,2.3.45V79a4.44,4.44,0,0,0-2.42-.65,3,3,0,0,0-2.31,1,4.07,4.07,0,0,0-.06,5,2.9,2.9,0,0,0,2.27.91,3.5,3.5,0,0,0,1.7-.39V82.55h-1.84v-.89h2.83Z"/><path class="cls-13" d="M250.21,86h-4.45v-8.4H250v.89h-3.28v2.8h3v.88h-3v2.94h3.47Z"/><path class="cls-13" d="M256.72,78.53H254.3V86h-1V78.53h-2.42v-.89h5.83Z"/><path class="cls-13" d="M267,82.94h-2.37V85.3h-.77V82.94h-2.37v-.79h2.37V79.79h.77v2.36H267Z"/><path class="cls-13" d="M211.59,92.73h-2.43v7.51h-1V92.73h-2.42v-.89h5.83Z"/><path class="cls-13" d="M214,100.38a2.79,2.79,0,0,1-2.12-.84,3.1,3.1,0,0,1-.79-2.23A3.26,3.26,0,0,1,212,95a3,3,0,0,1,2.23-.85,2.7,2.7,0,0,1,2.1.83,3.27,3.27,0,0,1,.75,2.29,3.23,3.23,0,0,1-.81,2.3A2.83,2.83,0,0,1,214,100.38Zm.07-5.47a1.83,1.83,0,0,0-1.46.63,2.59,2.59,0,0,0-.54,1.74,2.41,2.41,0,0,0,.55,1.68,1.83,1.83,0,0,0,1.45.62,1.78,1.78,0,0,0,1.44-.61,2.63,2.63,0,0,0,.5-1.72,2.68,2.68,0,0,0-.5-1.73A1.75,1.75,0,0,0,214.11,94.91Z"/><path class="cls-13" d="M223.48,100.24h-1.35l-2.65-2.88h0v2.88h-1V91.36h1V97h0L222,94.24h1.26l-2.78,2.9Z"/><path class="cls-13" d="M229.21,97.48H225a2.28,2.28,0,0,0,.54,1.55,1.89,1.89,0,0,0,1.42.55,3,3,0,0,0,1.86-.67v.9a3.47,3.47,0,0,1-2.09.57,2.56,2.56,0,0,1-2-.81,3.39,3.39,0,0,1-.72-2.3,3.29,3.29,0,0,1,.79-2.29,2.58,2.58,0,0,1,2-.88,2.29,2.29,0,0,1,1.83.76,3.19,3.19,0,0,1,.64,2.12Zm-1-.81a2,2,0,0,0-.41-1.3,1.38,1.38,0,0,0-1.09-.46,1.54,1.54,0,0,0-1.16.49,2.21,2.21,0,0,0-.58,1.27Z"/><path class="cls-13" d="M235.57,100.24h-1V96.82c0-1.27-.46-1.91-1.39-1.91a1.54,1.54,0,0,0-1.2.54,2,2,0,0,0-.47,1.37v3.42h-1v-6h1v1h0a2.16,2.16,0,0,1,2-1.14,1.83,1.83,0,0,1,1.51.64,2.8,2.8,0,0,1,.52,1.84Z"/><path class="cls-13" d="M245.65,100.24h-1v-1h0a2.2,2.2,0,0,1-2.06,1.16,2.24,2.24,0,0,1-1.81-.8,3.32,3.32,0,0,1-.67-2.2,3.59,3.59,0,0,1,.75-2.38,2.46,2.46,0,0,1,2-.9,1.92,1.92,0,0,1,1.8,1h0V91.36h1Zm-1-2.71v-.88a1.7,1.7,0,0,0-.48-1.23,1.62,1.62,0,0,0-1.22-.51,1.68,1.68,0,0,0-1.39.65,2.85,2.85,0,0,0-.5,1.78,2.53,2.53,0,0,0,.48,1.63,1.58,1.58,0,0,0,1.3.61,1.64,1.64,0,0,0,1.3-.58A2.16,2.16,0,0,0,244.69,97.53Z"/><path class="cls-13" d="M252.34,97.48h-4.23a2.23,2.23,0,0,0,.53,1.55,1.89,1.89,0,0,0,1.42.55,3,3,0,0,0,1.87-.67v.9a3.53,3.53,0,0,1-2.1.57,2.53,2.53,0,0,1-2-.81,3.34,3.34,0,0,1-.73-2.3A3.29,3.29,0,0,1,247.9,95a2.58,2.58,0,0,1,2-.88,2.28,2.28,0,0,1,1.82.76,3.19,3.19,0,0,1,.64,2.12Zm-1-.81a2,2,0,0,0-.4-1.3,1.4,1.4,0,0,0-1.1-.46,1.54,1.54,0,0,0-1.16.49,2.21,2.21,0,0,0-.58,1.27Z"/><path class="cls-13" d="M261.23,100.24h-1v-.93h0a2,2,0,0,1-1.85,1.07,2,2,0,0,1-1.4-.47,1.65,1.65,0,0,1-.51-1.26c0-1.12.66-1.77,2-2l1.8-.25q0-1.53-1.23-1.53a3,3,0,0,0-2,.74v-1a3.68,3.68,0,0,1,2-.57c1.41,0,2.11.75,2.11,2.24Zm-1-3-1.44.2a2.25,2.25,0,0,0-1,.33,1,1,0,0,0-.34.84.92.92,0,0,0,.31.72,1.25,1.25,0,0,0,.84.28,1.54,1.54,0,0,0,1.18-.51,1.76,1.76,0,0,0,.46-1.26Z"/><path class="cls-13" d="M267.06,100a3.1,3.1,0,0,1-1.64.41,2.71,2.71,0,0,1-2.07-.83,3,3,0,0,1-.79-2.17,3.32,3.32,0,0,1,.85-2.38,3,3,0,0,1,2.27-.9,3.06,3.06,0,0,1,1.39.3v1a2.45,2.45,0,0,0-1.43-.47,2,2,0,0,0-1.51.66,2.51,2.51,0,0,0-.58,1.73A2.4,2.4,0,0,0,264.1,99a1.92,1.92,0,0,0,1.48.61,2.4,2.4,0,0,0,1.48-.53Z"/><path class="cls-13" d="M272.53,100a3.1,3.1,0,0,1-1.64.41,2.71,2.71,0,0,1-2.07-.83,3,3,0,0,1-.79-2.17,3.36,3.36,0,0,1,.85-2.38,3,3,0,0,1,2.27-.9,3.06,3.06,0,0,1,1.39.3v1a2.45,2.45,0,0,0-1.43-.47,1.91,1.91,0,0,0-1.5.66A2.47,2.47,0,0,0,269,97.3a2.4,2.4,0,0,0,.55,1.67,1.93,1.93,0,0,0,1.49.61,2.39,2.39,0,0,0,1.47-.53Z"/><path class="cls-13" d="M278.74,97.48H274.5A2.28,2.28,0,0,0,275,99a1.87,1.87,0,0,0,1.42.55,3,3,0,0,0,1.86-.67v.9a3.5,3.5,0,0,1-2.09.57,2.54,2.54,0,0,1-2-.81,3.39,3.39,0,0,1-.73-2.3,3.29,3.29,0,0,1,.8-2.29,2.56,2.56,0,0,1,2-.88,2.28,2.28,0,0,1,1.82.76,3.2,3.2,0,0,1,.65,2.12Zm-1-.81a2,2,0,0,0-.4-1.3,1.39,1.39,0,0,0-1.1-.46,1.52,1.52,0,0,0-1.15.49,2.22,2.22,0,0,0-.59,1.27Z"/><path class="cls-13" d="M279.75,100V99a2.9,2.9,0,0,0,1.73.58c.85,0,1.27-.29,1.27-.85a.78.78,0,0,0-.11-.41,1,1,0,0,0-.29-.29,2.27,2.27,0,0,0-.44-.23l-.53-.22a5.16,5.16,0,0,1-.7-.32,1.94,1.94,0,0,1-.51-.36,1.41,1.41,0,0,1-.3-.46,1.57,1.57,0,0,1-.1-.6,1.44,1.44,0,0,1,.19-.75,1.78,1.78,0,0,1,.51-.55,2.77,2.77,0,0,1,.74-.33,3.59,3.59,0,0,1,2.25.16v1a2.79,2.79,0,0,0-1.53-.43,1.75,1.75,0,0,0-.48.06,1,1,0,0,0-.37.18.77.77,0,0,0-.25.26.81.81,0,0,0-.08.34,1,1,0,0,0,.08.4.94.94,0,0,0,.25.28,2.48,2.48,0,0,0,.4.22l.54.22a6.85,6.85,0,0,1,.71.31,2.82,2.82,0,0,1,.54.36,1.41,1.41,0,0,1,.34.47,1.54,1.54,0,0,1,.12.63,1.49,1.49,0,0,1-.19.77,1.74,1.74,0,0,1-.53.55,2.54,2.54,0,0,1-.75.32,3.82,3.82,0,0,1-.9.1A3.54,3.54,0,0,1,279.75,100Z"/><path class="cls-13" d="M287.64,100.38a2.79,2.79,0,0,1-2.12-.84,3.1,3.1,0,0,1-.79-2.23,3.26,3.26,0,0,1,.82-2.36,3,3,0,0,1,2.24-.85,2.69,2.69,0,0,1,2.09.83,3.27,3.27,0,0,1,.75,2.29,3.23,3.23,0,0,1-.81,2.3A2.83,2.83,0,0,1,287.64,100.38Zm.07-5.47a1.83,1.83,0,0,0-1.46.63,2.59,2.59,0,0,0-.54,1.74,2.41,2.41,0,0,0,.55,1.68,1.85,1.85,0,0,0,1.45.62,1.78,1.78,0,0,0,1.44-.61,2.63,2.63,0,0,0,.5-1.72,2.68,2.68,0,0,0-.5-1.73A1.75,1.75,0,0,0,287.71,94.91Z"/><path class="cls-14" d="M394.41,31.32v2.89h-1.89v-8.4h3c2.11,0,3.17.89,3.17,2.68a2.58,2.58,0,0,1-.91,2.05,3.62,3.62,0,0,1-2.43.78Zm0-4.06v2.62h.75c1,0,1.51-.44,1.51-1.32s-.5-1.3-1.51-1.3Z"/><path class="cls-14" d="M401.56,34.21h-1.85V25.33h1.85Z"/><path class="cls-14" d="M408.11,34.21h-1.75v-.86h0a2,2,0,0,1-1.79,1,1.86,1.86,0,0,1-1.37-.5,1.76,1.76,0,0,1-.51-1.32q0-1.74,2.07-2l1.63-.22c0-.66-.35-1-1.06-1a3.65,3.65,0,0,0-2,.63V28.57a4.57,4.57,0,0,1,1.05-.35,5.71,5.71,0,0,1,1.23-.15,2.26,2.26,0,0,1,2.56,2.56Zm-1.74-2.43v-.41l-1.09.14c-.6.08-.9.35-.9.82a.64.64,0,0,0,.22.51.82.82,0,0,0,.59.21,1.08,1.08,0,0,0,.85-.36A1.31,1.31,0,0,0,406.37,31.78Z"/><path class="cls-14" d="M413.2,34.14a2.62,2.62,0,0,1-1.23.22,1.76,1.76,0,0,1-2-2V29.58h-1V28.21h1V26.92l1.85-.53v1.82h1.34v1.37h-1.34V32c0,.63.24.94.74.94a1.24,1.24,0,0,0,.6-.17Z"/><path class="cls-14" d="M419.24,34.21h-1.75v-.86h0a2,2,0,0,1-1.78,1,1.88,1.88,0,0,1-1.38-.5,1.79,1.79,0,0,1-.5-1.32q0-1.74,2.07-2l1.63-.22c0-.66-.36-1-1.07-1a3.7,3.7,0,0,0-2,.63V28.57a4.67,4.67,0,0,1,1.06-.35,5.7,5.7,0,0,1,1.22-.15,2.27,2.27,0,0,1,2.57,2.56Zm-1.74-2.43v-.41l-1.09.14c-.6.08-.9.35-.9.82a.64.64,0,0,0,.22.51.8.8,0,0,0,.59.21,1.1,1.1,0,0,0,.85-.36A1.31,1.31,0,0,0,417.5,31.78Z"/><path class="cls-14" d="M424.62,26.75a1.77,1.77,0,0,0-.69-.14c-.59,0-.89.32-.89,1v.64h1.37v1.37H423v4.63H421.2V29.58h-1V28.21h1v-.74a2.16,2.16,0,0,1,.66-1.65,2.57,2.57,0,0,1,1.82-.63,3.11,3.11,0,0,1,.94.12Z"/><path class="cls-14" d="M428.16,34.36a3.24,3.24,0,0,1-2.36-.84,3,3,0,0,1-.85-2.28,3,3,0,0,1,.89-2.33,3.35,3.35,0,0,1,2.41-.84,3.19,3.19,0,0,1,2.34.84,3,3,0,0,1,.85,2.22,3.15,3.15,0,0,1-.88,2.36A3.24,3.24,0,0,1,428.16,34.36Zm0-4.88a1.21,1.21,0,0,0-1,.46,2,2,0,0,0-.36,1.27c0,1.16.46,1.73,1.39,1.73s1.33-.59,1.33-1.77S429.1,29.48,428.21,29.48Z"/><path class="cls-14" d="M436.55,29.88a1.61,1.61,0,0,0-.78-.18,1.14,1.14,0,0,0-.94.44,1.93,1.93,0,0,0-.34,1.21v2.86h-1.85v-6h1.85v1.12h0a1.6,1.6,0,0,1,1.59-1.22,1.12,1.12,0,0,1,.45.07Z"/><path class="cls-14" d="M447,34.21h-1.85V30.79c0-.87-.32-1.31-1-1.31a.89.89,0,0,0-.74.4,1.61,1.61,0,0,0-.29,1v3.35h-1.85V30.76c0-.85-.32-1.28-1-1.28a.9.9,0,0,0-.75.38,1.65,1.65,0,0,0-.29,1v3.33h-1.85v-6h1.85v.94h0a2.25,2.25,0,0,1,1.93-1.08A1.72,1.72,0,0,1,443,29.19a2.22,2.22,0,0,1,2-1.12c1.31,0,2,.8,2,2.41Z"/><path class="cls-14" d="M453.43,34.21h-1.75v-.86h0a2,2,0,0,1-1.79,1,1.86,1.86,0,0,1-1.37-.5,1.75,1.75,0,0,1-.5-1.32q0-1.74,2.07-2l1.62-.22c0-.66-.35-1-1.06-1a3.65,3.65,0,0,0-2,.63V28.57a4.67,4.67,0,0,1,1.06-.35,5.56,5.56,0,0,1,1.22-.15,2.26,2.26,0,0,1,2.56,2.56Zm-1.74-2.43v-.41l-1.09.14c-.6.08-.9.35-.9.82a.67.67,0,0,0,.22.51.84.84,0,0,0,.6.21,1.11,1.11,0,0,0,.85-.36A1.35,1.35,0,0,0,451.69,31.78Z"/><path class="cls-14" d="M393.88,48.61H392v-.82h0a2.06,2.06,0,0,1-1.85,1,2.26,2.26,0,0,1-1.81-.79,3.28,3.28,0,0,1-.69-2.22,3.57,3.57,0,0,1,.76-2.39,2.47,2.47,0,0,1,2-.89,1.66,1.66,0,0,1,1.61.83h0V39.73h1.85Zm-1.82-2.91v-.46a1.4,1.4,0,0,0-.34-1,1.1,1.1,0,0,0-.88-.39,1.12,1.12,0,0,0-1,.49,2.24,2.24,0,0,0-.35,1.33,1.87,1.87,0,0,0,.34,1.21,1.09,1.09,0,0,0,.92.43,1.12,1.12,0,0,0,.92-.45A1.85,1.85,0,0,0,392.06,45.7Z"/><path class="cls-14" d="M400.83,46.14h-3.91c.06.87.61,1.31,1.64,1.31A3.24,3.24,0,0,0,400.3,47v1.33a4.5,4.5,0,0,1-2.16.45,2.79,2.79,0,0,1-3.06-3,3.2,3.2,0,0,1,.87-2.37,2.9,2.9,0,0,1,2.13-.87,2.62,2.62,0,0,1,2,.78,3,3,0,0,1,.72,2.11ZM399.11,45c0-.86-.35-1.29-1-1.29a1,1,0,0,0-.77.37,1.72,1.72,0,0,0-.4.92Z"/><path class="cls-14" d="M406.18,41.66a1.11,1.11,0,0,1-.77-.27.92.92,0,0,1-.3-.69.88.88,0,0,1,.3-.68,1.16,1.16,0,0,1,.77-.26A1.14,1.14,0,0,1,407,40a.93.93,0,0,1,0,1.37A1.1,1.1,0,0,1,406.18,41.66Zm.91,7h-1.85v-6h1.85Z"/><path class="cls-14" d="M414.52,48.61h-1.85v-.82h0a2.07,2.07,0,0,1-1.86,1A2.27,2.27,0,0,1,409,48a3.28,3.28,0,0,1-.69-2.22,3.62,3.62,0,0,1,.76-2.39,2.47,2.47,0,0,1,2-.89,1.69,1.69,0,0,1,1.62.83h0V39.73h1.85Zm-1.81-2.91v-.46a1.45,1.45,0,0,0-.34-1,1.14,1.14,0,0,0-.89-.39,1.12,1.12,0,0,0-1,.49,2.24,2.24,0,0,0-.35,1.33,1.94,1.94,0,0,0,.34,1.21,1.09,1.09,0,0,0,.92.43,1.11,1.11,0,0,0,.92-.45A1.86,1.86,0,0,0,412.71,45.7Z"/><path class="cls-14" d="M421.47,46.14h-3.91c.06.87.61,1.31,1.64,1.31a3.24,3.24,0,0,0,1.74-.47v1.33a4.5,4.5,0,0,1-2.16.45,2.81,2.81,0,0,1-3.06-3,3.2,3.2,0,0,1,.87-2.37,2.9,2.9,0,0,1,2.13-.87,2.6,2.6,0,0,1,2,.78,3,3,0,0,1,.72,2.11ZM419.75,45c0-.86-.34-1.29-1-1.29a1,1,0,0,0-.77.37,1.63,1.63,0,0,0-.39.92Z"/><path class="cls-14" d="M428.37,48.61h-1.85V45.28c0-.93-.33-1.4-1-1.4a1,1,0,0,0-.79.37,1.41,1.41,0,0,0-.32.94v3.42h-1.85v-6h1.85v1h0a2.11,2.11,0,0,1,1.93-1.09c1.32,0,2,.82,2,2.47Z"/><path class="cls-14" d="M433.46,48.54a2.67,2.67,0,0,1-1.24.22c-1.3,0-2-.68-2-2V44h-1V42.61h1V41.32l1.84-.53v1.82h1.35V44h-1.35V46.4c0,.63.25.94.75.94a1.19,1.19,0,0,0,.6-.17Z"/><path class="cls-14" d="M435.44,41.66a1.11,1.11,0,0,1-.77-.27.92.92,0,0,1-.3-.69.88.88,0,0,1,.3-.68,1.16,1.16,0,0,1,.77-.26,1.14,1.14,0,0,1,.77.26.93.93,0,0,1,0,1.37A1.1,1.1,0,0,1,435.44,41.66Zm.91,7H434.5v-6h1.85Z"/><path class="cls-14" d="M443.78,48.61h-1.85v-.82h0a2.07,2.07,0,0,1-1.86,1,2.27,2.27,0,0,1-1.81-.79,3.28,3.28,0,0,1-.68-2.22,3.62,3.62,0,0,1,.75-2.39,2.5,2.5,0,0,1,2-.89,1.68,1.68,0,0,1,1.62.83h0V39.73h1.85ZM442,45.7v-.46a1.45,1.45,0,0,0-.34-1,1.2,1.2,0,0,0-1.85.1,2.24,2.24,0,0,0-.34,1.33,1.94,1.94,0,0,0,.33,1.21,1.18,1.18,0,0,0,1.84,0A1.86,1.86,0,0,0,442,45.7Z"/><path class="cls-14" d="M450.33,48.61h-1.75v-.86h0a2,2,0,0,1-1.79,1,1.86,1.86,0,0,1-1.37-.5,1.75,1.75,0,0,1-.5-1.32q0-1.74,2.07-2l1.62-.22c0-.66-.35-1-1.06-1a3.59,3.59,0,0,0-2,.64V43a4.67,4.67,0,0,1,1.06-.35,5.56,5.56,0,0,1,1.22-.15A2.26,2.26,0,0,1,450.33,45Zm-1.74-2.43v-.41l-1.09.14c-.6.08-.9.35-.9.82a.71.71,0,0,0,.22.52.89.89,0,0,0,.6.2,1.11,1.11,0,0,0,.85-.36A1.3,1.3,0,0,0,448.59,46.18Z"/><path class="cls-14" d="M457.67,48.61h-1.85v-.82h0a2.09,2.09,0,0,1-1.86,1,2.26,2.26,0,0,1-1.81-.79,3.28,3.28,0,0,1-.69-2.22,3.57,3.57,0,0,1,.76-2.39,2.47,2.47,0,0,1,2-.89,1.69,1.69,0,0,1,1.62.83h0V39.73h1.85Zm-1.82-2.91v-.46a1.4,1.4,0,0,0-.34-1,1.1,1.1,0,0,0-.88-.39,1.12,1.12,0,0,0-1,.49,2.24,2.24,0,0,0-.35,1.33,1.87,1.87,0,0,0,.34,1.21,1.09,1.09,0,0,0,.92.43,1.12,1.12,0,0,0,.92-.45A1.85,1.85,0,0,0,455.85,45.7Z"/><path class="cls-14" d="M393.55,63H391.7v-.82h0a2.08,2.08,0,0,1-1.85,1,2.29,2.29,0,0,1-1.81-.79,3.28,3.28,0,0,1-.69-2.22,3.57,3.57,0,0,1,.76-2.39,2.47,2.47,0,0,1,2-.89,1.66,1.66,0,0,1,1.61.83h0V54.13h1.85Zm-1.82-2.92v-.45a1.4,1.4,0,0,0-.34-1,1.1,1.1,0,0,0-.88-.39,1.12,1.12,0,0,0-1,.49,2.22,2.22,0,0,0-.35,1.32,1.89,1.89,0,0,0,.34,1.22,1.09,1.09,0,0,0,.92.43,1.12,1.12,0,0,0,.92-.45A1.92,1.92,0,0,0,391.73,60.09Z"/><path class="cls-14" d="M400.5,60.54h-3.92c.07.87.62,1.31,1.65,1.31a3.24,3.24,0,0,0,1.74-.47v1.33a4.5,4.5,0,0,1-2.16.45,2.79,2.79,0,0,1-3.06-3,3.2,3.2,0,0,1,.87-2.37,2.9,2.9,0,0,1,2.13-.87,2.62,2.62,0,0,1,2,.78,3,3,0,0,1,.72,2.11Zm-1.72-1.14c0-.86-.35-1.29-1-1.29a1,1,0,0,0-.77.37,1.72,1.72,0,0,0-.4.92Z"/><path class="cls-14" d="M414.67,63H412.8V58c0-.55,0-1.15.07-1.8h-.05c-.1.51-.19.88-.26,1.11l-2,5.71H409l-2-5.65a8.85,8.85,0,0,1-.27-1.17h0c0,.82.08,1.55.08,2.18V63h-1.71v-8.4h2.77l1.72,5a6.58,6.58,0,0,1,.3,1.2h0a12.46,12.46,0,0,1,.34-1.21l1.71-5h2.71Z"/><path class="cls-14" d="M417.33,56.06a1.11,1.11,0,0,1-.77-.27.94.94,0,0,1-.29-.69.91.91,0,0,1,.29-.68,1.16,1.16,0,0,1,.77-.26,1.12,1.12,0,0,1,.77.26.93.93,0,0,1,0,1.37A1.08,1.08,0,0,1,417.33,56.06Zm.92,6.95h-1.86V57h1.86Z"/><path class="cls-14" d="M424.35,62.8a3.69,3.69,0,0,1-1.81.36,3.06,3.06,0,0,1-2.24-.84,2.89,2.89,0,0,1-.85-2.16,3.19,3.19,0,0,1,.91-2.41,3.4,3.4,0,0,1,2.46-.88,3.1,3.1,0,0,1,1.53.28v1.57a2.12,2.12,0,0,0-1.29-.44A1.61,1.61,0,0,0,421.33,60a1.75,1.75,0,0,0,.44,1.25,1.66,1.66,0,0,0,1.23.45,2.42,2.42,0,0,0,1.35-.43Z"/><path class="cls-14" d="M429.48,58.68a1.61,1.61,0,0,0-.78-.18,1.12,1.12,0,0,0-.94.44,1.93,1.93,0,0,0-.34,1.21V63h-1.86V57h1.86v1.12h0A1.59,1.59,0,0,1,429,56.91a1.14,1.14,0,0,1,.46.07Z"/><path class="cls-14" d="M433.15,63.16a3.24,3.24,0,0,1-2.36-.84,3,3,0,0,1-.85-2.28,3,3,0,0,1,.89-2.33,3.34,3.34,0,0,1,2.4-.84,3.2,3.2,0,0,1,2.35.84,3,3,0,0,1,.85,2.22,3.15,3.15,0,0,1-.88,2.36A3.24,3.24,0,0,1,433.15,63.16Zm.05-4.88a1.21,1.21,0,0,0-1,.46,2,2,0,0,0-.36,1.27c0,1.16.46,1.73,1.39,1.73s1.33-.59,1.33-1.77S434.09,58.28,433.2,58.28Z"/><path class="cls-14" d="M437.24,62.85v-1.5a3.5,3.5,0,0,0,.91.41,3,3,0,0,0,.86.14,1.83,1.83,0,0,0,.77-.14.43.43,0,0,0,.29-.41.41.41,0,0,0-.13-.29,1.32,1.32,0,0,0-.33-.2,4.72,4.72,0,0,0-.45-.16l-.46-.16a4.68,4.68,0,0,1-.63-.29,1.84,1.84,0,0,1-.46-.36,1.72,1.72,0,0,1-.28-.47,2.06,2.06,0,0,1-.09-.64,1.61,1.61,0,0,1,.22-.87,1.84,1.84,0,0,1,.58-.6,3.15,3.15,0,0,1,.84-.34,4.46,4.46,0,0,1,1-.1,5.52,5.52,0,0,1,.81.06,5.88,5.88,0,0,1,.81.18v1.43a3,3,0,0,0-.75-.31,3.11,3.11,0,0,0-.79-.1,2,2,0,0,0-.35,0,1.15,1.15,0,0,0-.28.09.51.51,0,0,0-.19.16.34.34,0,0,0-.07.22.4.4,0,0,0,.1.28.75.75,0,0,0,.28.2,2.72,2.72,0,0,0,.38.16l.41.13a7.13,7.13,0,0,1,.67.28,2.55,2.55,0,0,1,.51.36,1.58,1.58,0,0,1,.33.48,1.86,1.86,0,0,1,.11.66,1.76,1.76,0,0,1-.23.91,1.9,1.9,0,0,1-.61.62,3.05,3.05,0,0,1-.89.34,5,5,0,0,1-1,.11A5.17,5.17,0,0,1,437.24,62.85Z"/><path class="cls-14" d="M445.77,63.16a3.23,3.23,0,0,1-2.36-.84,3.47,3.47,0,0,1,0-4.61,3.38,3.38,0,0,1,2.41-.84,3.16,3.16,0,0,1,2.34.84,3,3,0,0,1,.85,2.22,3.18,3.18,0,0,1-.87,2.36A3.27,3.27,0,0,1,445.77,63.16Zm0-4.88a1.24,1.24,0,0,0-1,.46,2,2,0,0,0-.36,1.27c0,1.16.47,1.73,1.4,1.73s1.33-.59,1.33-1.77S446.71,58.28,445.81,58.28Z"/><path class="cls-14" d="M454,55.55a1.77,1.77,0,0,0-.69-.14c-.59,0-.89.32-.89,1V57h1.37v1.37H452.4V63h-1.85V58.38h-1V57h1v-.74a2.15,2.15,0,0,1,.67-1.65A2.55,2.55,0,0,1,453,54a3.16,3.16,0,0,1,.94.12Z"/><path class="cls-14" d="M458.52,62.94a2.7,2.7,0,0,1-1.24.22,1.77,1.77,0,0,1-2-2V58.38h-1V57h1V55.72l1.85-.53V57h1.35v1.37h-1.35V60.8c0,.63.25.94.74.94a1.31,1.31,0,0,0,.61-.17Z"/><path class="cls-15" d="M406.05,119.23h-1.87v-5c0-.55,0-1.15.07-1.8h-.05a7.75,7.75,0,0,1-.26,1.11l-2,5.71h-1.55l-2-5.65c-.05-.15-.14-.54-.26-1.17h-.06c.06.82.08,1.55.08,2.18v4.64h-1.7v-8.4h2.77l1.71,5a6.58,6.58,0,0,1,.3,1.2h0a10.27,10.27,0,0,1,.33-1.21l1.72-5h2.7Z"/><path class="cls-15" d="M408.72,112.28A1.06,1.06,0,0,1,408,112a.88.88,0,0,1-.3-.68.87.87,0,0,1,.3-.68,1.14,1.14,0,0,1,.77-.26,1.16,1.16,0,0,1,.77.26.89.89,0,0,1,.29.68.91.91,0,0,1-.29.69A1.11,1.11,0,0,1,408.72,112.28Zm.91,7h-1.85v-6h1.85Z"/><path class="cls-15" d="M415.74,119a3.73,3.73,0,0,1-1.82.36,3,3,0,0,1-2.23-.84,2.9,2.9,0,0,1-.86-2.16,3.19,3.19,0,0,1,.92-2.41,3.38,3.38,0,0,1,2.45-.88,3.14,3.14,0,0,1,1.54.28v1.57a2.13,2.13,0,0,0-1.3-.44,1.71,1.71,0,0,0-1.26.47,1.75,1.75,0,0,0-.47,1.29,1.71,1.71,0,0,0,.45,1.25,1.62,1.62,0,0,0,1.22.45,2.47,2.47,0,0,0,1.36-.43Z"/><path class="cls-15" d="M420.86,114.9a1.61,1.61,0,0,0-.78-.18,1.14,1.14,0,0,0-.94.44,1.93,1.93,0,0,0-.34,1.21v2.86H417v-6h1.85v1.12h0a1.6,1.6,0,0,1,1.59-1.22,1.12,1.12,0,0,1,.45.07Z"/><path class="cls-15" d="M424.54,119.38a3.23,3.23,0,0,1-2.36-.84,3.47,3.47,0,0,1,0-4.61,3.37,3.37,0,0,1,2.41-.84,3.18,3.18,0,0,1,2.34.84,3,3,0,0,1,.85,2.22,3.18,3.18,0,0,1-.87,2.36A3.27,3.27,0,0,1,424.54,119.38Zm0-4.88a1.24,1.24,0,0,0-1,.46,2,2,0,0,0-.36,1.27c0,1.15.47,1.73,1.39,1.73s1.33-.59,1.33-1.77S425.48,114.5,424.58,114.5Z"/><path class="cls-15" d="M428.62,119.07v-1.5a3.66,3.66,0,0,0,.91.41,3,3,0,0,0,.86.14,1.84,1.84,0,0,0,.78-.14.42.42,0,0,0,.28-.41.37.37,0,0,0-.13-.29.88.88,0,0,0-.33-.2,2.52,2.52,0,0,0-.44-.16l-.47-.16a5.16,5.16,0,0,1-.62-.29,1.54,1.54,0,0,1-.46-.36,1.44,1.44,0,0,1-.28-.48,1.7,1.7,0,0,1-.1-.63,1.61,1.61,0,0,1,.22-.87,1.88,1.88,0,0,1,.59-.6,3,3,0,0,1,.83-.34,4.62,4.62,0,0,1,1-.1,5.49,5.49,0,0,1,.8.06,5.3,5.3,0,0,1,.81.18v1.43a2.76,2.76,0,0,0-.75-.31,3.11,3.11,0,0,0-.79-.1,1.87,1.87,0,0,0-.34,0,1.23,1.23,0,0,0-.29.09.6.6,0,0,0-.19.16.34.34,0,0,0-.07.22.41.41,0,0,0,.11.28.79.79,0,0,0,.27.2,2.72,2.72,0,0,0,.38.16l.41.13a6.16,6.16,0,0,1,.67.28,2.55,2.55,0,0,1,.51.36,1.29,1.29,0,0,1,.33.48,1.86,1.86,0,0,1-.12,1.57,1.78,1.78,0,0,1-.61.61,2.72,2.72,0,0,1-.89.35,5,5,0,0,1-1,.11A5.17,5.17,0,0,1,428.62,119.07Z"/><path class="cls-15" d="M437.15,119.38a3.24,3.24,0,0,1-2.36-.84,3.05,3.05,0,0,1-.86-2.28,3,3,0,0,1,.9-2.33,3.34,3.34,0,0,1,2.4-.84,3.2,3.2,0,0,1,2.35.84,3,3,0,0,1,.85,2.22,3.18,3.18,0,0,1-.88,2.36A3.24,3.24,0,0,1,437.15,119.38Zm.05-4.88a1.21,1.21,0,0,0-1,.46,2,2,0,0,0-.36,1.27c0,1.15.46,1.73,1.39,1.73s1.33-.59,1.33-1.77S438.09,114.5,437.2,114.5Z"/><path class="cls-15" d="M445.36,111.77a1.77,1.77,0,0,0-.69-.14c-.59,0-.89.32-.89,1v.64h1.38v1.37h-1.38v4.63h-1.84V114.6h-1v-1.37h1v-.74a2.12,2.12,0,0,1,.67-1.65,2.52,2.52,0,0,1,1.81-.63,3.11,3.11,0,0,1,.94.12Z"/><path class="cls-15" d="M449.9,119.16a2.62,2.62,0,0,1-1.23.22,1.76,1.76,0,0,1-2-2V114.6h-1v-1.37h1v-1.29l1.84-.53v1.82h1.35v1.37h-1.35V117c0,.63.25.94.75.94a1.31,1.31,0,0,0,.6-.17Z"/><path class="cls-15" d="M402,133.07a6.08,6.08,0,0,1-3.06.71,4.4,4.4,0,0,1-3.19-1.12,4.08,4.08,0,0,1-1.17-3.09,4.29,4.29,0,0,1,1.28-3.23,4.65,4.65,0,0,1,3.39-1.25,6.84,6.84,0,0,1,2.36.37v1.77a4.73,4.73,0,0,0-2.38-.56,2.56,2.56,0,0,0-1.92.77,3.27,3.27,0,0,0-.08,4,2.34,2.34,0,0,0,1.8.71,2.52,2.52,0,0,0,1.08-.19v-1.64h-1.68v-1.51H402Z"/><path class="cls-15" d="M407.39,129.3a1.61,1.61,0,0,0-.78-.18,1.12,1.12,0,0,0-.94.44,1.93,1.93,0,0,0-.34,1.21v2.86h-1.86v-6h1.86v1.12h0a1.59,1.59,0,0,1,1.58-1.22,1.14,1.14,0,0,1,.46.07Z"/><path class="cls-15" d="M413.24,133.63h-1.75v-.86h0a2,2,0,0,1-1.79,1,1.86,1.86,0,0,1-1.37-.5,1.76,1.76,0,0,1-.51-1.32q0-1.74,2.07-2l1.63-.22c0-.66-.35-1-1.06-1a3.65,3.65,0,0,0-2,.63V128a4.57,4.57,0,0,1,1.05-.35,5.71,5.71,0,0,1,1.23-.15,2.26,2.26,0,0,1,2.56,2.56Zm-1.74-2.43v-.41l-1.09.14c-.6.08-.9.35-.9.82a.64.64,0,0,0,.22.51.82.82,0,0,0,.59.21,1.08,1.08,0,0,0,.85-.36A1.31,1.31,0,0,0,411.5,131.2Z"/><path class="cls-15" d="M416.58,132.94h0v3.45h-1.85v-8.76h1.85v.91h0a2.18,2.18,0,0,1,1.93-1,2.14,2.14,0,0,1,1.8.8,3.34,3.34,0,0,1,.64,2.17,3.71,3.71,0,0,1-.74,2.41,2.43,2.43,0,0,1-2,.91A1.87,1.87,0,0,1,416.58,132.94Zm-.05-2.47V131a1.52,1.52,0,0,0,.33,1,1.06,1.06,0,0,0,.86.39,1.12,1.12,0,0,0,1-.49,2.36,2.36,0,0,0,.35-1.38q0-1.59-1.23-1.59a1.18,1.18,0,0,0-.93.43A1.73,1.73,0,0,0,416.53,130.47Z"/><path class="cls-15" d="M427.91,133.63h-1.85v-3.41q0-1.32-1-1.32a1,1,0,0,0-.8.37,1.45,1.45,0,0,0-.3.94v3.42h-1.85v-8.88H424v3.77h0a2.11,2.11,0,0,1,1.85-1q2,0,2,2.46Z"/><path class="cls-15" d="M440.25,133.63h-2.06l-.6-1.87h-3l-.6,1.87H432l3.06-8.4h2.25Zm-3.09-3.32-.9-2.82a3.12,3.12,0,0,1-.14-.76h-.05a3.06,3.06,0,0,1-.15.73l-.91,2.85Z"/><path class="cls-15" d="M443.2,130.74v2.89h-1.9v-8.4h3c2.11,0,3.17.89,3.17,2.68a2.58,2.58,0,0,1-.91,2.05,3.62,3.62,0,0,1-2.43.78Zm0-4.06v2.62h.74c1,0,1.51-.44,1.51-1.32s-.5-1.3-1.51-1.3Z"/><path class="cls-15" d="M450.57,133.63h-1.9v-8.4h1.9Z"/><path class="cls-13" d="M192,10.32h-1.09L190,8h-3.56l-.84,2.36h-1.09l3.22-8.4h1Zm-2.3-3.24L188.4,3.5a5.45,5.45,0,0,1-.13-.56h0a2.52,2.52,0,0,1-.14.56l-1.3,3.58Z"/><path class="cls-13" d="M198.16,10.32h-1v-1h0a2.42,2.42,0,0,1-3.87.35,3.28,3.28,0,0,1-.68-2.19,3.57,3.57,0,0,1,.75-2.38,2.48,2.48,0,0,1,2-.9,1.91,1.91,0,0,1,1.8,1h0V1.44h1Zm-1-2.71V6.72a1.73,1.73,0,0,0-.48-1.23A1.61,1.61,0,0,0,195.5,5a1.67,1.67,0,0,0-1.39.64,2.87,2.87,0,0,0-.5,1.78,2.56,2.56,0,0,0,.48,1.64,1.59,1.59,0,0,0,1.3.6,1.63,1.63,0,0,0,1.3-.58A2.11,2.11,0,0,0,197.19,7.61Z"/><path class="cls-13" d="M205.13,13.08h-1V9.29h0a2.15,2.15,0,0,1-2,1.17,2.24,2.24,0,0,1-1.81-.81,3.23,3.23,0,0,1-.69-2.19,3.6,3.6,0,0,1,.75-2.39,2.52,2.52,0,0,1,2-.89,1.89,1.89,0,0,1,1.78,1h0V4.32h1Zm-1-5.46V6.75a1.74,1.74,0,0,0-.48-1.25A1.61,1.61,0,0,0,202.45,5a1.66,1.66,0,0,0-1.37.64,2.91,2.91,0,0,0-.5,1.81,2.48,2.48,0,0,0,.48,1.62,1.55,1.55,0,0,0,1.26.59,1.66,1.66,0,0,0,1.34-.58A2.1,2.1,0,0,0,204.16,7.62Z"/><path class="cls-13" d="M211.83,10.32h-1v-1h0A2,2,0,0,1,209,10.46c-1.43,0-2.14-.85-2.14-2.55V4.32h1V7.75c0,1.27.49,1.9,1.45,1.9a1.46,1.46,0,0,0,1.16-.52,2,2,0,0,0,.46-1.35V4.32h1Z"/><path class="cls-13" d="M214.16,2.8a.61.61,0,0,1-.62-.62.61.61,0,0,1,.18-.45.6.6,0,0,1,.44-.18.62.62,0,0,1,.63.63.58.58,0,0,1-.18.43A.58.58,0,0,1,214.16,2.8Zm.47,7.52h-1v-6h1Z"/><path class="cls-13" d="M219.61,5.29a1.18,1.18,0,0,0-.73-.19,1.23,1.23,0,0,0-1,.58,2.72,2.72,0,0,0-.41,1.58v3.06h-1v-6h1V5.56h0a2.12,2.12,0,0,1,.63-1,1.42,1.42,0,0,1,.94-.36,1.46,1.46,0,0,1,.58.09Z"/><path class="cls-13" d="M221.05,2.8a.61.61,0,0,1-.62-.62.61.61,0,0,1,.18-.45.6.6,0,0,1,.44-.18.64.64,0,0,1,.45.18.61.61,0,0,1,.18.45.58.58,0,0,1-.18.43A.61.61,0,0,1,221.05,2.8Zm.47,7.52h-1v-6h1Z"/><path class="cls-13" d="M226.5,5.29a1.2,1.2,0,0,0-.73-.19,1.23,1.23,0,0,0-1,.58,2.64,2.64,0,0,0-.41,1.58v3.06h-1v-6h1V5.56h0a2.12,2.12,0,0,1,.63-1,1.4,1.4,0,0,1,.94-.36,1.5,1.5,0,0,1,.58.09Z"/><path class="cls-13" d="M233.42,10.26a1.82,1.82,0,0,1-.9.19c-1.05,0-1.58-.59-1.58-1.76V5.14h-1V4.32h1V2.85l1-.31V4.32h1.52v.82H231.9V8.52a1.37,1.37,0,0,0,.21.86.83.83,0,0,0,.68.26,1.05,1.05,0,0,0,.63-.2Z"/><path class="cls-13" d="M237.11,10.46A2.77,2.77,0,0,1,235,9.62a3.11,3.11,0,0,1-.8-2.23A3.25,3.25,0,0,1,235,5a3,3,0,0,1,2.23-.85,2.68,2.68,0,0,1,2.1.83,3.27,3.27,0,0,1,.75,2.29,3.25,3.25,0,0,1-.81,2.3A2.87,2.87,0,0,1,237.11,10.46ZM237.18,5a1.81,1.81,0,0,0-1.46.63,2.58,2.58,0,0,0-.54,1.73A2.47,2.47,0,0,0,235.72,9a1.86,1.86,0,0,0,1.46.61,1.75,1.75,0,0,0,1.43-.6,2.6,2.6,0,0,0,.51-1.72,2.61,2.61,0,0,0-.51-1.73A1.73,1.73,0,0,0,237.18,5Z"/><path class="cls-13" d="M246.52,10.32h-1.35l-2.65-2.88h0v2.88h-1V1.44h1V7.07h0L245,4.32h1.26l-2.78,2.89Z"/><path class="cls-13" d="M252.23,7.56H248a2.3,2.3,0,0,0,.54,1.55,1.88,1.88,0,0,0,1.42.54A2.89,2.89,0,0,0,251.81,9v.91a3.47,3.47,0,0,1-2.09.57,2.53,2.53,0,0,1-2-.82,3.35,3.35,0,0,1-.72-2.3,3.28,3.28,0,0,1,.79-2.28,2.54,2.54,0,0,1,2-.88,2.22,2.22,0,0,1,1.82.76,3.18,3.18,0,0,1,.65,2.12Zm-1-.81a2,2,0,0,0-.41-1.3A1.35,1.35,0,0,0,249.75,5a1.57,1.57,0,0,0-1.16.48A2.25,2.25,0,0,0,248,6.75Z"/><path class="cls-13" d="M258.57,10.32h-1V6.9c0-1.28-.47-1.91-1.4-1.91a1.5,1.5,0,0,0-1.19.54,2,2,0,0,0-.47,1.37v3.42h-1v-6h1v1h0a2.16,2.16,0,0,1,2-1.14,1.85,1.85,0,0,1,1.51.63,2.9,2.9,0,0,1,.52,1.84Z"/><path class="cls-13" d="M210,30.7h-2.43v7.51h-1V30.7h-2.42v-.89H210Z"/><path class="cls-13" d="M212.44,38.35a2.79,2.79,0,0,1-2.12-.84,3.1,3.1,0,0,1-.79-2.23,3.24,3.24,0,0,1,.82-2.36,3,3,0,0,1,2.23-.85,2.66,2.66,0,0,1,2.1.83,3.77,3.77,0,0,1-.06,4.59A2.87,2.87,0,0,1,212.44,38.35Zm.07-5.47a1.83,1.83,0,0,0-1.46.63,2.59,2.59,0,0,0-.54,1.74,2.46,2.46,0,0,0,.54,1.68,1.86,1.86,0,0,0,1.46.61,1.79,1.79,0,0,0,1.44-.6,3.23,3.23,0,0,0,0-3.45A1.76,1.76,0,0,0,212.51,32.88Z"/><path class="cls-13" d="M221.88,38.21h-1.35l-2.65-2.88h0v2.88h-1V29.33h1V35h0l2.52-2.75h1.26l-2.78,2.89Z"/><path class="cls-13" d="M227.61,35.45h-4.24a2.3,2.3,0,0,0,.54,1.55,1.88,1.88,0,0,0,1.42.54,2.89,2.89,0,0,0,1.86-.67v.91a3.47,3.47,0,0,1-2.09.57,2.53,2.53,0,0,1-2-.82,3.35,3.35,0,0,1-.72-2.3,3.28,3.28,0,0,1,.79-2.28,2.54,2.54,0,0,1,2-.88,2.26,2.26,0,0,1,1.83.76,3.18,3.18,0,0,1,.64,2.12Zm-1-.81a2,2,0,0,0-.41-1.3,1.35,1.35,0,0,0-1.09-.46,1.57,1.57,0,0,0-1.16.48,2.24,2.24,0,0,0-.58,1.28Z"/><path class="cls-13" d="M234,38.21h-1V34.79c0-1.28-.46-1.91-1.39-1.91a1.54,1.54,0,0,0-1.2.54,2,2,0,0,0-.47,1.37v3.42h-1v-6h1v1h0a2.15,2.15,0,0,1,2-1.14,1.83,1.83,0,0,1,1.51.64,2.79,2.79,0,0,1,.52,1.83Z"/><path class="cls-13" d="M244.05,38.21h-1v-1h0A2.21,2.21,0,0,1,241,38.35a2.24,2.24,0,0,1-1.81-.81,3.28,3.28,0,0,1-.67-2.19,3.57,3.57,0,0,1,.75-2.38,2.46,2.46,0,0,1,2-.9,1.91,1.91,0,0,1,1.8,1h0V29.33h1Zm-1-2.71v-.89a1.73,1.73,0,0,0-.48-1.23,1.64,1.64,0,0,0-1.22-.5,1.67,1.67,0,0,0-1.39.64,2.87,2.87,0,0,0-.5,1.78,2.54,2.54,0,0,0,.48,1.64,1.73,1.73,0,0,0,2.6,0A2.11,2.11,0,0,0,243.09,35.5Z"/><path class="cls-13" d="M250.74,35.45h-4.23A2.25,2.25,0,0,0,247,37a1.88,1.88,0,0,0,1.42.54,2.94,2.94,0,0,0,1.87-.67v.91a3.53,3.53,0,0,1-2.1.57,2.51,2.51,0,0,1-2-.82,3.31,3.31,0,0,1-.73-2.3A3.28,3.28,0,0,1,246.3,33a2.55,2.55,0,0,1,2-.88,2.25,2.25,0,0,1,1.82.76,3.18,3.18,0,0,1,.64,2.12Zm-1-.81a2,2,0,0,0-.4-1.3,1.37,1.37,0,0,0-1.1-.46,1.57,1.57,0,0,0-1.16.48,2.24,2.24,0,0,0-.58,1.28Z"/><path class="cls-13" d="M259.63,38.21h-1v-.94h0a2.2,2.2,0,0,1-3.25.61,1.65,1.65,0,0,1-.51-1.26c0-1.12.66-1.78,2-2l1.8-.25q0-1.53-1.23-1.53a2.91,2.91,0,0,0-2,.74v-1a3.76,3.76,0,0,1,2-.56c1.41,0,2.11.75,2.11,2.24Zm-1-3-1.45.2a2.37,2.37,0,0,0-1,.34.93.93,0,0,0-.34.84.89.89,0,0,0,.31.71,1.2,1.2,0,0,0,.84.28,1.53,1.53,0,0,0,1.18-.5,1.79,1.79,0,0,0,.46-1.27Z"/><path class="cls-13" d="M265.46,37.93a3.1,3.1,0,0,1-1.64.42,2.75,2.75,0,0,1-2.07-.83,3,3,0,0,1-.79-2.17,3.35,3.35,0,0,1,.85-2.38,3,3,0,0,1,2.27-.9,3.2,3.2,0,0,1,1.39.29v1a2.38,2.38,0,0,0-1.43-.47,1.91,1.91,0,0,0-1.5.66,2.46,2.46,0,0,0-.59,1.73,2.36,2.36,0,0,0,.55,1.66,1.89,1.89,0,0,0,1.49.61,2.38,2.38,0,0,0,1.47-.52Z"/><path class="cls-13" d="M270.93,37.93a3.1,3.1,0,0,1-1.64.42,2.75,2.75,0,0,1-2.07-.83,3.06,3.06,0,0,1-.79-2.17,3.35,3.35,0,0,1,.85-2.38,3,3,0,0,1,2.27-.9,3.2,3.2,0,0,1,1.39.29v1a2.38,2.38,0,0,0-1.43-.47,1.91,1.91,0,0,0-1.5.66,2.46,2.46,0,0,0-.59,1.73,2.36,2.36,0,0,0,.55,1.66,1.89,1.89,0,0,0,1.49.61,2.38,2.38,0,0,0,1.47-.52Z"/><path class="cls-13" d="M277.14,35.45H272.9a2.25,2.25,0,0,0,.54,1.55,1.85,1.85,0,0,0,1.42.54,2.93,2.93,0,0,0,1.86-.67v.91a3.5,3.5,0,0,1-2.09.57,2.52,2.52,0,0,1-2-.82,3.36,3.36,0,0,1-.73-2.3,3.29,3.29,0,0,1,.8-2.28,2.53,2.53,0,0,1,2-.88,2.25,2.25,0,0,1,1.82.76,3.18,3.18,0,0,1,.65,2.12Zm-1-.81a2,2,0,0,0-.4-1.3,1.36,1.36,0,0,0-1.1-.46,1.55,1.55,0,0,0-1.15.48,2.25,2.25,0,0,0-.59,1.28Z"/><path class="cls-13" d="M278.15,38V37a2.84,2.84,0,0,0,1.73.58c.85,0,1.27-.28,1.27-.84a.76.76,0,0,0-.11-.41,1,1,0,0,0-.29-.29,2.28,2.28,0,0,0-.44-.24l-.53-.21a6.76,6.76,0,0,1-.7-.32,2.55,2.55,0,0,1-.51-.36,1.52,1.52,0,0,1-.3-.46,1.63,1.63,0,0,1-.1-.61,1.38,1.38,0,0,1,.19-.74,1.7,1.7,0,0,1,.52-.55,2.32,2.32,0,0,1,.73-.33,3.59,3.59,0,0,1,2.25.16v1a2.71,2.71,0,0,0-1.53-.43,1.75,1.75,0,0,0-.48.06,1.15,1.15,0,0,0-.37.17.76.76,0,0,0-.24.27.67.67,0,0,0-.09.34.75.75,0,0,0,.09.39.93.93,0,0,0,.24.29,2.48,2.48,0,0,0,.4.22l.54.21c.26.11.5.21.71.32a2.82,2.82,0,0,1,.54.36A1.41,1.41,0,0,1,282,36a1.46,1.46,0,0,1,.12.62,1.5,1.5,0,0,1-.19.78,1.61,1.61,0,0,1-.53.54,2.55,2.55,0,0,1-.75.33,3.82,3.82,0,0,1-.9.1A3.41,3.41,0,0,1,278.15,38Z"/><path class="cls-13" d="M286,38.35a2.79,2.79,0,0,1-2.12-.84,3.1,3.1,0,0,1-.79-2.23,3.24,3.24,0,0,1,.82-2.36,3,3,0,0,1,2.24-.85,2.66,2.66,0,0,1,2.09.83,3.77,3.77,0,0,1-.06,4.59A2.85,2.85,0,0,1,286,38.35Zm.08-5.47a1.84,1.84,0,0,0-1.47.63,2.59,2.59,0,0,0-.54,1.74,2.41,2.41,0,0,0,.55,1.68,1.85,1.85,0,0,0,1.46.61,1.77,1.77,0,0,0,1.43-.6,3.23,3.23,0,0,0,0-3.45A1.74,1.74,0,0,0,286.12,32.88Z"/><path class="cls-13" d="M191.54,135.18h-1.17L189,132.82c-.13-.21-.25-.4-.37-.56a2.15,2.15,0,0,0-.37-.37,1.49,1.49,0,0,0-.41-.22,2,2,0,0,0-.5-.06h-.81v3.57h-1v-8.4H188a3.29,3.29,0,0,1,1,.14,2.38,2.38,0,0,1,.81.41,2,2,0,0,1,.54.7,2.33,2.33,0,0,1,.19,1,2.28,2.28,0,0,1-.13.8,1.92,1.92,0,0,1-.38.65,2,2,0,0,1-.58.49,3.12,3.12,0,0,1-.77.32v0a1.55,1.55,0,0,1,.36.21,1.64,1.64,0,0,1,.3.29,4,4,0,0,1,.28.37l.31.48Zm-5-7.51v3h1.34a1.9,1.9,0,0,0,.68-.11,1.46,1.46,0,0,0,.54-.32,1.28,1.28,0,0,0,.36-.51,1.6,1.6,0,0,0,.13-.67,1.32,1.32,0,0,0-.44-1,1.83,1.83,0,0,0-1.26-.38Z"/><path class="cls-13" d="M197,132.42h-4.23a2.25,2.25,0,0,0,.53,1.55,1.88,1.88,0,0,0,1.42.54,2.94,2.94,0,0,0,1.87-.67v.91a3.53,3.53,0,0,1-2.1.57,2.51,2.51,0,0,1-2-.82,3.83,3.83,0,0,1,.06-4.58,2.54,2.54,0,0,1,2-.88,2.26,2.26,0,0,1,1.83.76,3.18,3.18,0,0,1,.64,2.12Zm-1-.81a2,2,0,0,0-.4-1.3,1.37,1.37,0,0,0-1.1-.46,1.57,1.57,0,0,0-1.16.48,2.24,2.24,0,0,0-.58,1.28Z"/><path class="cls-13" d="M198.06,135v-1a2.79,2.79,0,0,0,1.72.58c.85,0,1.27-.28,1.27-.84a.76.76,0,0,0-.11-.41,1.17,1.17,0,0,0-.29-.3,3,3,0,0,0-.44-.23l-.53-.21a6.76,6.76,0,0,1-.7-.32,2.55,2.55,0,0,1-.51-.36,1.52,1.52,0,0,1-.3-.46,1.63,1.63,0,0,1-.1-.61,1.38,1.38,0,0,1,.19-.74,1.7,1.7,0,0,1,.52-.55,2.21,2.21,0,0,1,.73-.33,3.59,3.59,0,0,1,2.25.16v1a2.71,2.71,0,0,0-1.53-.43,1.8,1.8,0,0,0-.48.06,1.15,1.15,0,0,0-.37.17.76.76,0,0,0-.24.27.67.67,0,0,0-.09.34.75.75,0,0,0,.09.39.84.84,0,0,0,.25.29,2,2,0,0,0,.39.22l.54.21c.26.11.5.21.71.32a2.82,2.82,0,0,1,.54.36,1.41,1.41,0,0,1,.34.47,1.46,1.46,0,0,1,.12.62,1.5,1.5,0,0,1-.19.78,1.61,1.61,0,0,1-.53.54,2.3,2.3,0,0,1-.75.32,3.74,3.74,0,0,1-2.5-.25Z"/><path class="cls-13" d="M204.46,134.31h0v3.63h-1v-8.76h1v1h0a2.27,2.27,0,0,1,2.07-1.19,2.2,2.2,0,0,1,1.81.8A3.31,3.31,0,0,1,209,132a3.73,3.73,0,0,1-.73,2.42,2.45,2.45,0,0,1-2,.9A2,2,0,0,1,204.46,134.31Zm0-2.42v.84a1.77,1.77,0,0,0,.48,1.26,1.72,1.72,0,0,0,2.59-.15A3,3,0,0,0,208,132a2.45,2.45,0,0,0-.46-1.57,1.54,1.54,0,0,0-1.26-.57,1.7,1.7,0,0,0-1.35.58A2.14,2.14,0,0,0,204.44,131.89Z"/><path class="cls-13" d="M215.35,135.18h-1v-1h0a2,2,0,0,1-1.85,1.09c-1.43,0-2.15-.85-2.15-2.55v-3.59h1v3.43c0,1.27.48,1.9,1.45,1.9a1.46,1.46,0,0,0,1.16-.52,2,2,0,0,0,.45-1.35v-3.46h1Z"/><path class="cls-13" d="M222.07,132.42h-4.24a2.3,2.3,0,0,0,.54,1.55,1.88,1.88,0,0,0,1.42.54,2.89,2.89,0,0,0,1.86-.67v.91a3.47,3.47,0,0,1-2.09.57,2.54,2.54,0,0,1-2-.82,3.35,3.35,0,0,1-.72-2.3,3.28,3.28,0,0,1,.79-2.28,2.54,2.54,0,0,1,2-.88,2.26,2.26,0,0,1,1.83.76,3.18,3.18,0,0,1,.64,2.12Zm-1-.81a2,2,0,0,0-.4-1.3,1.37,1.37,0,0,0-1.1-.46,1.57,1.57,0,0,0-1.16.48,2.24,2.24,0,0,0-.58,1.28Z"/><path class="cls-13" d="M230.43,135.12a1.82,1.82,0,0,1-.9.19c-1.05,0-1.57-.59-1.57-1.76V130H225.3a2.33,2.33,0,0,0-.48,0,1,1,0,0,0-.37.12.5.5,0,0,0-.24.21.57.57,0,0,0-.09.32.75.75,0,0,0,.09.39.93.93,0,0,0,.24.29,2.48,2.48,0,0,0,.4.22l.54.21c.26.11.5.21.71.32a2.82,2.82,0,0,1,.54.36,1.41,1.41,0,0,1,.34.47,1.52,1.52,0,0,1,.12.62,1.5,1.5,0,0,1-.19.78,1.61,1.61,0,0,1-.53.54,2.26,2.26,0,0,1-.76.32,3.24,3.24,0,0,1-.89.11,3.39,3.39,0,0,1-1.61-.36v-1a2.82,2.82,0,0,0,1.73.58c.85,0,1.27-.28,1.27-.84a.69.69,0,0,0-.11-.39,1.17,1.17,0,0,0-.29-.3,2.28,2.28,0,0,0-.44-.24l-.53-.22a6.76,6.76,0,0,1-.7-.32,2.55,2.55,0,0,1-.51-.36,1.52,1.52,0,0,1-.3-.46,1.63,1.63,0,0,1-.1-.61,1.47,1.47,0,0,1,.17-.72,1.6,1.6,0,0,1,.47-.5,2.43,2.43,0,0,1,.66-.28,3.2,3.2,0,0,1,.75-.09H228v-1.47l1-.31v1.78h1.51V130h-1.51v3.38a1.45,1.45,0,0,0,.2.86.84.84,0,0,0,.68.26,1,1,0,0,0,.63-.2Z"/><path class="cls-13" d="M236,135.18h-1v-.94h0a2.2,2.2,0,0,1-3.25.61,1.65,1.65,0,0,1-.51-1.26c0-1.13.66-1.78,2-2l1.8-.25q0-1.53-1.23-1.53a2.91,2.91,0,0,0-2,.74v-1a3.76,3.76,0,0,1,2-.56c1.41,0,2.11.75,2.11,2.24Zm-1-3-1.45.2a2.54,2.54,0,0,0-1,.33,1,1,0,0,0-.34.85.89.89,0,0,0,.31.71,1.2,1.2,0,0,0,.84.28,1.56,1.56,0,0,0,1.18-.5,1.79,1.79,0,0,0,.46-1.27Z"/><path class="cls-13" d="M247.44,135.18h-1v-3.83h-4.35v3.83h-1v-8.4h1v3.68h4.35v-3.68h1Z"/><path class="cls-13" d="M254.58,127.67h-2.43v7.51h-1v-7.51h-2.42v-.89h5.83Z"/><path class="cls-13" d="M261.07,127.67h-2.43v7.51h-1v-7.51h-2.42v-.89h5.83Z"/><path class="cls-13" d="M263.33,132v3.18h-1v-8.4h2.31a3.09,3.09,0,0,1,2.09.65,2.37,2.37,0,0,1,.74,1.86,2.55,2.55,0,0,1-.83,2,3.12,3.12,0,0,1-2.22.76Zm0-4.33v3.44h1a2.32,2.32,0,0,0,1.56-.46,1.65,1.65,0,0,0,.54-1.32c0-1.11-.66-1.66-2-1.66Z"/></g></svg>