<?xml version="1.0" encoding="utf-8"?>
<!-- Generator: Adobe Illustrator 22.1.0, SVG Export Plug-In . SVG Version: 6.00 Build 0)  -->
<svg version="1.1" id="Layer_1" xmlns="http://www.w3.org/2000/svg" xmlns:xlink="http://www.w3.org/1999/xlink" x="0px" y="0px"
	 viewBox="0 0 145 41" style="enable-background:new 0 0 145 41;" xml:space="preserve">
<style type="text/css">
	.st0{enable-background:new    ;}
	.st1{fill:#FFFFFF;}
</style>
<image style="overflow:visible;enable-background:new    ;" width="145" height="41" id="Target" xlink:href="448E975B.jpg"  transform="matrix(1 0 0 1 0 1.682073e-05)">
</image>
<g id="Sign_in" class="st0">
	<path class="st1" d="M48,25.3h-1.7V15.2H48V25.3z"/>
	<path class="st1" d="M56.7,25.3H55v-4.1c0-1.3-0.5-2-1.4-2c-0.5,0-0.9,0.2-1.2,0.6c-0.3,0.4-0.5,0.8-0.5,1.4v4.1h-1.6v-7.2h1.6v1.2
		h0c0.5-0.9,1.3-1.4,2.3-1.4c0.8,0,1.4,0.3,1.8,0.8s0.6,1.2,0.6,2.2V25.3z"/>
	<path class="st1" d="M59.5,16.6c-0.3,0-0.5-0.1-0.7-0.3c-0.2-0.2-0.3-0.4-0.3-0.7c0-0.3,0.1-0.5,0.3-0.7s0.4-0.3,0.7-0.3
		c0.3,0,0.5,0.1,0.7,0.3c0.2,0.2,0.3,0.4,0.3,0.7c0,0.3-0.1,0.5-0.3,0.7C60,16.5,59.8,16.6,59.5,16.6z M60.3,25.3h-1.6v-7.2h1.6
		V25.3z"/>
	<path class="st1" d="M67.6,25c-0.6,0.3-1.3,0.5-2,0.5c-1.1,0-1.9-0.3-2.6-1s-1-1.5-1-2.6c0-1.2,0.4-2.1,1.1-2.9s1.6-1.1,2.8-1.1
		c0.7,0,1.2,0.1,1.7,0.3v1.5c-0.5-0.4-1-0.6-1.6-0.6c-0.7,0-1.3,0.2-1.7,0.7c-0.4,0.5-0.7,1.1-0.7,1.8c0,0.7,0.2,1.3,0.6,1.8
		c0.4,0.4,1,0.6,1.7,0.6c0.6,0,1.1-0.2,1.7-0.6V25z"/>
	<path class="st1" d="M70,16.6c-0.3,0-0.5-0.1-0.7-0.3C69.1,16.2,69,16,69,15.7c0-0.3,0.1-0.5,0.3-0.7s0.4-0.3,0.7-0.3
		c0.3,0,0.5,0.1,0.7,0.3c0.2,0.2,0.3,0.4,0.3,0.7c0,0.3-0.1,0.5-0.3,0.7C70.5,16.5,70.3,16.6,70,16.6z M70.8,25.3h-1.6v-7.2h1.6
		V25.3z"/>
	<path class="st1" d="M78.5,25.3h-1.6v-1.1h0c-0.5,0.9-1.2,1.3-2.2,1.3c-0.7,0-1.3-0.2-1.7-0.6c-0.4-0.4-0.6-0.9-0.6-1.5
		c0-1.4,0.8-2.2,2.3-2.4l2.1-0.3c0-1-0.5-1.5-1.5-1.5c-0.9,0-1.6,0.3-2.3,0.9v-1.4c0.8-0.5,1.6-0.7,2.6-0.7c1.8,0,2.7,0.9,2.7,2.7
		V25.3z M76.9,21.8L75.4,22c-0.5,0.1-0.8,0.2-1.1,0.3c-0.2,0.2-0.4,0.5-0.4,0.9c0,0.3,0.1,0.6,0.3,0.7c0.2,0.2,0.5,0.3,0.9,0.3
		c0.5,0,0.9-0.2,1.2-0.5c0.3-0.3,0.5-0.8,0.5-1.3V21.8z"/>
	<path class="st1" d="M84.7,19.7c-0.2-0.2-0.5-0.2-0.9-0.2c-0.5,0-0.9,0.2-1.2,0.7c-0.3,0.4-0.5,1-0.5,1.8v3.4h-1.6v-7.2h1.6v1.5h0
		c0.2-0.5,0.4-0.9,0.7-1.2c0.3-0.3,0.7-0.4,1.1-0.4c0.3,0,0.5,0,0.7,0.1V19.7z"/>
	<path class="st1" d="M89.3,25.1v-1.5c0.6,0.5,1.3,0.7,2,0.7c1,0,1.5-0.3,1.5-0.9c0-0.2,0-0.3-0.1-0.4c-0.1-0.1-0.2-0.2-0.3-0.3
		c-0.1-0.1-0.3-0.2-0.5-0.2c-0.2-0.1-0.4-0.1-0.7-0.2c-0.3-0.1-0.6-0.2-0.8-0.4c-0.2-0.1-0.4-0.3-0.6-0.4c-0.2-0.2-0.3-0.4-0.4-0.6
		c-0.1-0.2-0.1-0.5-0.1-0.7c0-0.3,0.1-0.7,0.2-0.9c0.2-0.3,0.4-0.5,0.7-0.7c0.3-0.2,0.6-0.3,0.9-0.4c0.4-0.1,0.7-0.1,1.1-0.1
		c0.7,0,1.3,0.1,1.8,0.3v1.4c-0.5-0.3-1.1-0.5-1.7-0.5c-0.2,0-0.4,0-0.6,0.1c-0.2,0-0.3,0.1-0.4,0.2c-0.1,0.1-0.2,0.2-0.3,0.3
		c-0.1,0.1-0.1,0.2-0.1,0.3c0,0.2,0,0.3,0.1,0.4c0.1,0.1,0.2,0.2,0.3,0.3s0.3,0.2,0.5,0.2c0.2,0.1,0.4,0.1,0.6,0.2
		c0.3,0.1,0.6,0.3,0.8,0.4c0.2,0.1,0.5,0.3,0.6,0.4c0.2,0.2,0.3,0.4,0.4,0.6c0.1,0.2,0.1,0.5,0.1,0.8c0,0.4-0.1,0.7-0.3,1
		c-0.2,0.3-0.4,0.5-0.7,0.7s-0.6,0.3-1,0.4c-0.4,0.1-0.8,0.1-1.2,0.1C90.6,25.5,89.9,25.4,89.3,25.1z"/>
	<path class="st1" d="M102.1,22.2h-4.9c0,0.7,0.2,1.2,0.6,1.5s0.9,0.5,1.6,0.5c0.8,0,1.5-0.2,2.1-0.7v1.3c-0.7,0.4-1.5,0.6-2.6,0.6
		c-1.1,0-1.9-0.3-2.5-1c-0.6-0.7-0.9-1.6-0.9-2.8c0-1.1,0.3-2,1-2.7s1.5-1.1,2.5-1.1s1.7,0.3,2.3,0.9s0.8,1.5,0.8,2.6V22.2z
		 M100.5,21c0-0.6-0.1-1-0.4-1.4s-0.6-0.5-1.1-0.5c-0.5,0-0.9,0.2-1.2,0.5c-0.3,0.3-0.5,0.8-0.6,1.3H100.5z"/>
	<path class="st1" d="M103.2,25.1v-1.5c0.6,0.5,1.3,0.7,2,0.7c1,0,1.5-0.3,1.5-0.9c0-0.2,0-0.3-0.1-0.4c-0.1-0.1-0.2-0.2-0.3-0.3
		s-0.3-0.2-0.5-0.2c-0.2-0.1-0.4-0.1-0.7-0.2c-0.3-0.1-0.6-0.2-0.8-0.4c-0.2-0.1-0.4-0.3-0.6-0.4c-0.2-0.2-0.3-0.4-0.4-0.6
		s-0.1-0.5-0.1-0.7c0-0.3,0.1-0.7,0.2-0.9c0.2-0.3,0.4-0.5,0.7-0.7c0.3-0.2,0.6-0.3,0.9-0.4c0.4-0.1,0.7-0.1,1.1-0.1
		c0.7,0,1.3,0.1,1.8,0.3v1.4c-0.5-0.3-1.1-0.5-1.7-0.5c-0.2,0-0.4,0-0.6,0.1s-0.3,0.1-0.4,0.2c-0.1,0.1-0.2,0.2-0.3,0.3
		c-0.1,0.1-0.1,0.2-0.1,0.3c0,0.2,0,0.3,0.1,0.4c0.1,0.1,0.2,0.2,0.3,0.3s0.3,0.2,0.5,0.2c0.2,0.1,0.4,0.1,0.6,0.2
		c0.3,0.1,0.6,0.3,0.8,0.4c0.2,0.1,0.5,0.3,0.6,0.4c0.2,0.2,0.3,0.4,0.4,0.6c0.1,0.2,0.1,0.5,0.1,0.8c0,0.4-0.1,0.7-0.3,1
		c-0.2,0.3-0.4,0.5-0.7,0.7s-0.6,0.3-1,0.4c-0.4,0.1-0.8,0.1-1.2,0.1C104.4,25.5,103.7,25.4,103.2,25.1z"/>
	<path class="st1" d="M110.7,16.6c-0.3,0-0.5-0.1-0.7-0.3c-0.2-0.2-0.3-0.4-0.3-0.7c0-0.3,0.1-0.5,0.3-0.7s0.4-0.3,0.7-0.3
		c0.3,0,0.5,0.1,0.7,0.3s0.3,0.4,0.3,0.7c0,0.3-0.1,0.5-0.3,0.7C111.2,16.5,110.9,16.6,110.7,16.6z M111.5,25.3h-1.6v-7.2h1.6V25.3z
		"/>
	<path class="st1" d="M116.8,25.5c-1.1,0-2-0.3-2.7-1c-0.7-0.7-1-1.6-1-2.7c0-1.2,0.3-2.2,1-2.8s1.6-1,2.8-1c1.1,0,2,0.3,2.6,1
		c0.6,0.7,0.9,1.6,0.9,2.7c0,1.1-0.3,2.1-1,2.8C118.8,25.1,117.9,25.5,116.8,25.5z M116.9,19.3c-0.6,0-1.1,0.2-1.5,0.7
		s-0.6,1.1-0.6,1.8c0,0.8,0.2,1.3,0.6,1.8s0.9,0.7,1.5,0.7c0.6,0,1.1-0.2,1.5-0.6c0.3-0.4,0.5-1,0.5-1.8c0-0.8-0.2-1.4-0.5-1.8
		C118,19.5,117.5,19.3,116.9,19.3z M118.9,14.4l-2,2.3h-1.2l1.7-2.3H118.9z"/>
	<path class="st1" d="M128.6,25.3H127v-4.1c0-1.3-0.5-2-1.4-2c-0.5,0-0.9,0.2-1.2,0.6s-0.5,0.8-0.5,1.4v4.1h-1.6v-7.2h1.6v1.2h0
		c0.5-0.9,1.3-1.4,2.3-1.4c0.8,0,1.4,0.3,1.8,0.8c0.4,0.5,0.6,1.2,0.6,2.2V25.3z"/>
</g>
</svg>
