<?xml version="1.0" encoding="utf-8"?>
<!-- Generator: Adobe Illustrator 22.1.0, SVG Export Plug-In . SVG Version: 6.00 Build 0)  -->
<svg version="1.1" id="Layer_1" xmlns="http://www.w3.org/2000/svg" xmlns:xlink="http://www.w3.org/1999/xlink" x="0px" y="0px"
	 viewBox="0 0 146 41" style="enable-background:new 0 0 146 41;" xml:space="preserve">
<style type="text/css">
	.st0{enable-background:new    ;}
	.st1{fill:#5E5E5E;}
</style>
<image style="overflow:visible;enable-background:new    ;" width="146" height="41" id="Target" xlink:href="555026D1.jpg"  transform="matrix(1 0 0 1 0 1.682073e-05)">
</image>
<g id="Sign_in" class="st0">
	<path class="st1" d="M48,25.4h-1.7V15.3H48V25.4z"/>
	<path class="st1" d="M56.8,25.4h-1.6v-4.1c0-1.4-0.5-2-1.4-2c-0.5,0-0.9,0.2-1.2,0.6c-0.3,0.4-0.5,0.9-0.5,1.4v4.1h-1.7v-7.3H52
		v1.2h0c0.5-0.9,1.3-1.4,2.4-1.4c0.8,0,1.4,0.3,1.8,0.8c0.4,0.5,0.6,1.3,0.6,2.2V25.4z"/>
	<path class="st1" d="M59.6,16.6c-0.3,0-0.5-0.1-0.7-0.3c-0.2-0.2-0.3-0.4-0.3-0.7c0-0.3,0.1-0.5,0.3-0.7c0.2-0.2,0.4-0.3,0.7-0.3
		c0.3,0,0.5,0.1,0.7,0.3s0.3,0.4,0.3,0.7c0,0.3-0.1,0.5-0.3,0.7S59.9,16.6,59.6,16.6z M60.4,25.4h-1.6v-7.3h1.6V25.4z"/>
	<path class="st1" d="M67.8,25.1c-0.6,0.3-1.3,0.5-2.1,0.5c-1.1,0-1.9-0.3-2.6-1c-0.7-0.7-1-1.5-1-2.6c0-1.2,0.4-2.2,1.1-2.9
		c0.7-0.7,1.7-1.1,2.9-1.1c0.7,0,1.2,0.1,1.8,0.3v1.5c-0.5-0.4-1-0.6-1.6-0.6c-0.7,0-1.3,0.2-1.7,0.7s-0.7,1.1-0.7,1.8
		c0,0.8,0.2,1.3,0.6,1.8s1,0.7,1.7,0.7c0.6,0,1.1-0.2,1.7-0.6V25.1z"/>
	<path class="st1" d="M70.3,16.6c-0.3,0-0.5-0.1-0.7-0.3c-0.2-0.2-0.3-0.4-0.3-0.7c0-0.3,0.1-0.5,0.3-0.7c0.2-0.2,0.4-0.3,0.7-0.3
		c0.3,0,0.5,0.1,0.7,0.3s0.3,0.4,0.3,0.7c0,0.3-0.1,0.5-0.3,0.7S70.5,16.6,70.3,16.6z M71.1,25.4h-1.6v-7.3h1.6V25.4z"/>
	<path class="st1" d="M78.8,25.4h-1.6v-1.1h0c-0.5,0.9-1.2,1.3-2.2,1.3c-0.7,0-1.3-0.2-1.7-0.6c-0.4-0.4-0.6-0.9-0.6-1.5
		c0-1.4,0.8-2.2,2.4-2.4l2.2-0.3c0-1-0.5-1.6-1.5-1.6c-0.9,0-1.6,0.3-2.3,0.9v-1.4C74.2,18.2,75,18,76,18c1.8,0,2.8,0.9,2.8,2.7
		V25.4z M77.2,21.9l-1.5,0.2c-0.5,0.1-0.8,0.2-1.1,0.3c-0.2,0.2-0.4,0.5-0.4,0.9c0,0.3,0.1,0.6,0.3,0.8c0.2,0.2,0.5,0.3,0.9,0.3
		c0.5,0,0.9-0.2,1.2-0.5c0.3-0.4,0.5-0.8,0.5-1.3V21.9z"/>
	<path class="st1" d="M85,19.7c-0.2-0.2-0.5-0.2-0.9-0.2c-0.5,0-0.9,0.2-1.2,0.7s-0.5,1-0.5,1.8v3.5h-1.6v-7.3h1.6v1.5h0
		c0.2-0.5,0.4-0.9,0.7-1.2c0.3-0.3,0.7-0.4,1.1-0.4c0.3,0,0.5,0,0.7,0.1V19.7z"/>
	<path class="st1" d="M89.7,25.2v-1.5c0.6,0.5,1.3,0.7,2,0.7c1,0,1.5-0.3,1.5-0.9c0-0.2,0-0.3-0.1-0.4c-0.1-0.1-0.2-0.2-0.3-0.3
		c-0.1-0.1-0.3-0.2-0.5-0.2c-0.2-0.1-0.4-0.2-0.7-0.2c-0.3-0.1-0.6-0.2-0.8-0.4c-0.2-0.1-0.4-0.3-0.6-0.5s-0.3-0.4-0.4-0.6
		c-0.1-0.2-0.1-0.5-0.1-0.7c0-0.4,0.1-0.7,0.2-0.9c0.2-0.3,0.4-0.5,0.7-0.7s0.6-0.3,1-0.4C92,18,92.3,18,92.7,18
		c0.7,0,1.3,0.1,1.8,0.3v1.4c-0.5-0.4-1.1-0.5-1.8-0.5c-0.2,0-0.4,0-0.6,0.1s-0.3,0.1-0.4,0.2s-0.2,0.2-0.3,0.3s-0.1,0.2-0.1,0.4
		c0,0.2,0,0.3,0.1,0.4s0.2,0.2,0.3,0.3c0.1,0.1,0.3,0.2,0.5,0.2c0.2,0.1,0.4,0.1,0.6,0.2c0.3,0.1,0.6,0.3,0.8,0.4
		c0.2,0.1,0.5,0.3,0.6,0.5c0.2,0.2,0.3,0.4,0.4,0.6c0.1,0.2,0.1,0.5,0.1,0.8c0,0.4-0.1,0.7-0.3,1c-0.2,0.3-0.4,0.5-0.7,0.7
		c-0.3,0.2-0.6,0.3-1,0.4c-0.4,0.1-0.8,0.1-1.2,0.1C91,25.6,90.3,25.5,89.7,25.2z"/>
	<path class="st1" d="M102.6,22.2h-5c0,0.7,0.2,1.2,0.6,1.6c0.4,0.4,0.9,0.5,1.6,0.5c0.8,0,1.5-0.2,2.1-0.7V25
		c-0.7,0.4-1.5,0.6-2.6,0.6c-1.1,0-1.9-0.3-2.5-1C96.3,24,96,23,96,21.8c0-1.1,0.3-2.1,1-2.8c0.7-0.7,1.5-1.1,2.5-1.1s1.8,0.3,2.3,1
		c0.5,0.6,0.8,1.5,0.8,2.7V22.2z M101,21.1c0-0.6-0.1-1.1-0.4-1.4c-0.3-0.3-0.7-0.5-1.1-0.5c-0.5,0-0.9,0.2-1.2,0.5
		c-0.3,0.3-0.5,0.8-0.6,1.4H101z"/>
	<path class="st1" d="M103.7,25.2v-1.5c0.6,0.5,1.3,0.7,2,0.7c1,0,1.5-0.3,1.5-0.9c0-0.2,0-0.3-0.1-0.4c-0.1-0.1-0.2-0.2-0.3-0.3
		s-0.3-0.2-0.5-0.2c-0.2-0.1-0.4-0.2-0.7-0.2c-0.3-0.1-0.6-0.2-0.8-0.4c-0.2-0.1-0.4-0.3-0.6-0.5c-0.2-0.2-0.3-0.4-0.4-0.6
		c-0.1-0.2-0.1-0.5-0.1-0.7c0-0.4,0.1-0.7,0.2-0.9c0.2-0.3,0.4-0.5,0.7-0.7s0.6-0.3,1-0.4c0.4-0.1,0.7-0.1,1.1-0.1
		c0.7,0,1.3,0.1,1.8,0.3v1.4c-0.5-0.4-1.1-0.5-1.8-0.5c-0.2,0-0.4,0-0.6,0.1s-0.3,0.1-0.4,0.2c-0.1,0.1-0.2,0.2-0.3,0.3
		c-0.1,0.1-0.1,0.2-0.1,0.4c0,0.2,0,0.3,0.1,0.4c0.1,0.1,0.2,0.2,0.3,0.3c0.1,0.1,0.3,0.2,0.5,0.2c0.2,0.1,0.4,0.1,0.6,0.2
		c0.3,0.1,0.6,0.3,0.8,0.4c0.2,0.1,0.5,0.3,0.6,0.5s0.3,0.4,0.4,0.6c0.1,0.2,0.1,0.5,0.1,0.8c0,0.4-0.1,0.7-0.3,1
		c-0.2,0.3-0.4,0.5-0.7,0.7c-0.3,0.2-0.6,0.3-1,0.4c-0.4,0.1-0.8,0.1-1.2,0.1C105,25.6,104.3,25.5,103.7,25.2z"/>
	<path class="st1" d="M111.3,16.6c-0.3,0-0.5-0.1-0.7-0.3c-0.2-0.2-0.3-0.4-0.3-0.7c0-0.3,0.1-0.5,0.3-0.7c0.2-0.2,0.4-0.3,0.7-0.3
		c0.3,0,0.5,0.1,0.7,0.3c0.2,0.2,0.3,0.4,0.3,0.7c0,0.3-0.1,0.5-0.3,0.7C111.8,16.5,111.6,16.6,111.3,16.6z M112.1,25.4h-1.6v-7.3
		h1.6V25.4z"/>
	<path class="st1" d="M117.5,25.6c-1.1,0-2-0.3-2.7-1c-0.7-0.7-1-1.6-1-2.7c0-1.2,0.3-2.2,1-2.9c0.7-0.7,1.6-1,2.8-1
		c1.1,0,2,0.3,2.7,1c0.6,0.7,1,1.6,1,2.8c0,1.2-0.3,2.1-1,2.8C119.5,25.3,118.6,25.6,117.5,25.6z M117.5,19.3
		c-0.6,0-1.2,0.2-1.5,0.7c-0.4,0.4-0.6,1.1-0.6,1.9c0,0.8,0.2,1.4,0.6,1.8c0.4,0.4,0.9,0.7,1.5,0.7c0.6,0,1.1-0.2,1.5-0.6
		c0.3-0.4,0.5-1,0.5-1.8c0-0.8-0.2-1.4-0.5-1.9C118.7,19.5,118.2,19.3,117.5,19.3z M119.6,14.5l-2,2.3h-1.2l1.7-2.3H119.6z"/>
	<path class="st1" d="M129.4,25.4h-1.6v-4.1c0-1.4-0.5-2-1.4-2c-0.5,0-0.9,0.2-1.2,0.6c-0.3,0.4-0.5,0.9-0.5,1.4v4.1h-1.7v-7.3h1.7
		v1.2h0c0.5-0.9,1.3-1.4,2.4-1.4c0.8,0,1.4,0.3,1.8,0.8c0.4,0.5,0.6,1.3,0.6,2.2V25.4z"/>
</g>
</svg>
