<svg id="Layer_1" data-name="Layer 1" xmlns="http://www.w3.org/2000/svg" xmlns:xlink="http://www.w3.org/1999/xlink" viewBox="0 0 137.47 195.04"><defs><style>.cls-1{fill:#fff;}.cls-2{fill:url(#linear-gradient);}.cls-3{fill:url(#linear-gradient-2);}.cls-4{fill:#b4ec36;}.cls-5{fill:#5ea0ef;}.cls-6{fill:url(#linear-gradient-3);}.cls-7{fill:#50e6ff;}.cls-8{fill:#c3f1ff;}.cls-9{fill:#9cebff;}.cls-10{fill:url(#linear-gradient-4);}.cls-11{fill:url(#linear-gradient-5);}.cls-12{fill:url(#linear-gradient-6);}.cls-13{fill:url(#linear-gradient-7);}.cls-14{fill:url(#linear-gradient-8);}.cls-15{fill:none;stroke:#3c3c41;stroke-miterlimit:10;}.cls-16{fill:#1e1e1e;}</style><linearGradient id="linear-gradient" x1="69.14" y1="849.49" x2="69.14" y2="885.26" gradientTransform="translate(0 -852.79)" gradientUnits="userSpaceOnUse"><stop offset="0.18" stop-color="#5ea0ef"/><stop offset="1" stop-color="#0078d4"/></linearGradient><linearGradient id="linear-gradient-2" x1="69.14" y1="965.18" x2="69.14" y2="928.08" gradientTransform="translate(0 -852.79)" gradientUnits="userSpaceOnUse"><stop offset="0" stop-color="#5e9624"/><stop offset="0.02" stop-color="#5f9724"/><stop offset="1" stop-color="#76bc2d"/></linearGradient><linearGradient id="linear-gradient-3" x1="68.74" y1="1017.54" x2="68.74" y2="995.89" gradientTransform="translate(0 -852.79)" gradientUnits="userSpaceOnUse"><stop offset="0" stop-color="#0078d4"/><stop offset="0.82" stop-color="#5ea0ef"/></linearGradient><linearGradient id="linear-gradient-4" x1="68.74" y1="1025.89" x2="68.74" y2="1017.54" gradientTransform="translate(0 -852.79)" gradientUnits="userSpaceOnUse"><stop offset="0.15" stop-color="#ccc"/><stop offset="1" stop-color="#707070"/></linearGradient><linearGradient id="linear-gradient-5" x1="16.24" y1="1017.54" x2="16.24" y2="995.89" xlink:href="#linear-gradient-3"/><linearGradient id="linear-gradient-6" x1="16.24" y1="1025.89" x2="16.24" y2="1017.54" xlink:href="#linear-gradient-4"/><linearGradient id="linear-gradient-7" x1="121.24" y1="1017.54" x2="121.24" y2="995.89" xlink:href="#linear-gradient-3"/><linearGradient id="linear-gradient-8" x1="121.24" y1="1025.89" x2="121.24" y2="1017.54" xlink:href="#linear-gradient-4"/></defs><g id="Shapes"><rect class="cls-1" width="137.47" height="195.04"/><path class="cls-2" d="M87,18.65a8.15,8.15,0,0,0-7-7.9A10.25,10.25,0,0,0,69.59.81a10.51,10.51,0,0,0-9.94,7,9.67,9.67,0,0,0-8.4,9.45A9.94,9.94,0,0,0,61.34,26.8H79A8.25,8.25,0,0,0,87,18.65Z"/><path class="cls-3" d="M53.47,92.34,68.38,77.43a1.07,1.07,0,0,1,1.51,0l0,0L84.82,92.34a1.07,1.07,0,0,1,0,1.51l0,0L69.89,108.8a1.06,1.06,0,0,1-1.49,0L53.47,93.87a1.06,1.06,0,0,1,0-1.51Z"/><path class="cls-4" d="M73.05,84.22l-3.76-3.75a.23.23,0,0,0-.29,0l-3.77,3.75a.17.17,0,0,0,0,.25.17.17,0,0,0,.19.07h2.2a.2.2,0,0,1,.2.19h0v3.56a.18.18,0,0,0,.19.19h2.35a.18.18,0,0,0,.19-.19h0V84.73a.2.2,0,0,1,.2-.19h2.2a.19.19,0,0,0,.22-.13.17.17,0,0,0-.08-.19Z"/><path class="cls-4" d="M60.26,88.86l-3.74,3.78a.2.2,0,0,0,0,.27l3.74,3.75a.19.19,0,0,0,.27,0,.17.17,0,0,0,.06-.15V94.33a.19.19,0,0,1,.2-.19h3.55a.18.18,0,0,0,.18-.18V91.6a.18.18,0,0,0-.06-.25l-.06,0H60.84a.18.18,0,0,1-.19-.16V89a.21.21,0,0,0-.13-.27.2.2,0,0,0-.26.13Z"/><path class="cls-4" d="M78.17,96.66,82,92.89a.19.19,0,0,0,0-.26l-3.79-3.77a.19.19,0,0,0-.27,0,.31.31,0,0,0-.05.12v2.22a.18.18,0,0,1-.17.18H74.1a.18.18,0,0,0-.18.18h0a0,0,0,0,0,0,0v2.34a.18.18,0,0,0,.15.2h3.58a.18.18,0,0,1,.19.19h0v2.21a.21.21,0,0,0,.22.17.19.19,0,0,0,.1,0Z"/><path class="cls-1" d="M74.1,93.11a5,5,0,1,0-6.29,4.74v1.69a3,3,0,1,0,4.1,1.31,3.07,3.07,0,0,0-1.31-1.31V97.76A4.91,4.91,0,0,0,74.1,93.11Z"/><circle id="e99c3387-15c3-4f28-bd4b-cb209b430e06" class="cls-5" cx="69.16" cy="93.09" r="2.88"/><rect class="cls-6" x="52.5" y="143.11" width="32.47" height="21.65" rx="1.08"/><polygon class="cls-7" points="74.15 150.77 74.15 157.07 68.74 160.24 68.74 153.93 74.15 150.77"/><polygon class="cls-8" points="74.15 150.77 68.74 153.95 63.32 150.77 68.74 147.62 74.15 150.77"/><polygon class="cls-9" points="68.74 153.95 68.74 160.24 63.32 157.07 63.32 150.77 68.74 153.95"/><polygon class="cls-8" points="63.32 157.07 68.74 153.93 68.74 160.24 63.32 157.07"/><polygon class="cls-9" points="74.15 157.07 68.74 153.93 68.74 160.24 74.15 157.07"/><path class="cls-10" d="M75.25,171.3c-3.21-.5-3.34-2.81-3.34-6.55H65.54c0,3.74-.11,6.05-3.32,6.55a1.8,1.8,0,0,0-1.6,1.81H76.85A1.79,1.79,0,0,0,75.25,171.3Z"/><rect class="cls-11" y="143.11" width="32.47" height="21.65" rx="1.08"/><polygon class="cls-7" points="21.65 150.77 21.65 157.07 16.24 160.24 16.24 153.93 21.65 150.77"/><polygon class="cls-8" points="21.65 150.77 16.24 153.95 10.82 150.77 16.24 147.62 21.65 150.77"/><polygon class="cls-9" points="16.24 153.95 16.24 160.24 10.82 157.07 10.82 150.77 16.24 153.95"/><polygon class="cls-8" points="10.82 157.07 16.24 153.93 16.24 160.24 10.82 157.07"/><polygon class="cls-9" points="21.65 157.07 16.24 153.93 16.24 160.24 21.65 157.07"/><path class="cls-12" d="M22.75,171.3c-3.21-.5-3.34-2.81-3.34-6.55H13c0,3.74-.11,6.05-3.32,6.55a1.8,1.8,0,0,0-1.6,1.81H24.35A1.79,1.79,0,0,0,22.75,171.3Z"/><rect class="cls-13" x="105" y="143.11" width="32.47" height="21.65" rx="1.08"/><polygon class="cls-7" points="126.65 150.77 126.65 157.07 121.24 160.24 121.24 153.93 126.65 150.77"/><polygon class="cls-8" points="126.65 150.77 121.24 153.95 115.82 150.77 121.24 147.62 126.65 150.77"/><polygon class="cls-9" points="121.24 153.95 121.24 160.24 115.82 157.07 115.82 150.77 121.24 153.95"/><polygon class="cls-8" points="115.82 157.07 121.24 153.93 121.24 160.24 115.82 157.07"/><polygon class="cls-9" points="126.65 157.07 121.24 153.93 121.24 160.24 126.65 157.07"/><path class="cls-14" d="M127.75,171.3c-3.21-.5-3.34-2.81-3.34-6.55H118c0,3.74-.11,6.05-3.32,6.55a1.8,1.8,0,0,0-1.6,1.81h16.23A1.79,1.79,0,0,0,127.75,171.3Z"/><line class="cls-15" x1="69.14" y1="30.11" x2="69.14" y2="42.61"/><line class="cls-15" x1="69.14" y1="60.11" x2="69.14" y2="72.61"/><line class="cls-15" x1="69.14" y1="133.49" x2="69.14" y2="140.61"/><line class="cls-15" x1="69.14" y1="113.8" x2="69.14" y2="122.46"/><path class="cls-15" d="M20.91,128.9l-2.45,1a4.6,4.6,0,0,0-2.44,4v6.69"/><line class="cls-15" x1="63.96" y1="111.11" x2="35.93" y2="122.69"/><path class="cls-15" d="M116.68,128.9l2.45,1a4.6,4.6,0,0,1,2.44,4v6.69"/><line class="cls-15" x1="73.63" y1="111.11" x2="101.66" y2="122.69"/><path class="cls-16" d="M22.32,129.76a2.18,2.18,0,0,1,.1-.67,2.6,2.6,0,0,1,.3-.63,2.47,2.47,0,0,1,.49-.53,2.41,2.41,0,0,1,.66-.38,2.51,2.51,0,0,1-.87-.78,1.94,1.94,0,0,1-.32-1.06,2,2,0,0,1,.67-1.54,2.5,2.5,0,0,1,.75-.45,2.76,2.76,0,0,1,1.88,0,2.21,2.21,0,0,1,.75.45,2.1,2.1,0,0,1,.5.68,2.26,2.26,0,0,1,.17.85,1.91,1.91,0,0,1-.32,1.06,2.48,2.48,0,0,1-.86.78,2.22,2.22,0,0,1,.65.38,2.47,2.47,0,0,1,.49.53,2.6,2.6,0,0,1,.3.63,2.22,2.22,0,0,1,.1.67,2.49,2.49,0,0,1-.19,1,2.19,2.19,0,0,1-.56.78,2.56,2.56,0,0,1-.87.51,3.14,3.14,0,0,1-1.1.18,3.21,3.21,0,0,1-1.1-.18,2.52,2.52,0,0,1-.86-.51,2.19,2.19,0,0,1-.56-.78A2.34,2.34,0,0,1,22.32,129.76Zm1-.08a2.16,2.16,0,0,0,.12.71,1.54,1.54,0,0,0,.34.54,1.42,1.42,0,0,0,.53.34,2.06,2.06,0,0,0,.7.12,2,2,0,0,0,.68-.12,1.58,1.58,0,0,0,.53-.35,1.3,1.3,0,0,0,.35-.54,1.85,1.85,0,0,0,.13-.7,1.88,1.88,0,0,0-.12-.66,1.7,1.7,0,0,0-.34-.54,1.68,1.68,0,0,0-.54-.37,1.63,1.63,0,0,0-.69-.13,1.69,1.69,0,0,0-.67.12,1.62,1.62,0,0,0-.54.35,1.73,1.73,0,0,0-.35.54A1.8,1.8,0,0,0,23.36,129.68Zm.3-3.9a1.39,1.39,0,0,0,.85,1.3,1.35,1.35,0,0,0,1.08,0,1.43,1.43,0,0,0,.44-.3,1.37,1.37,0,0,0,.3-.45,1.46,1.46,0,0,0,.11-.55,1.39,1.39,0,0,0-1.39-1.41,1.56,1.56,0,0,0-.57.11,1.63,1.63,0,0,0-.44.3,1.41,1.41,0,0,0-.28.45A1.52,1.52,0,0,0,23.66,125.78Z"/><path class="cls-16" d="M34.23,127.87a7.81,7.81,0,0,1-.19,1.87,4.19,4.19,0,0,1-.55,1.37,2.34,2.34,0,0,1-2.07,1.14,2.21,2.21,0,0,1-1.13-.28,2.33,2.33,0,0,1-.84-.81,4,4,0,0,1-.51-1.31,7.58,7.58,0,0,1-.18-1.78,9.05,9.05,0,0,1,.19-1.94,4.3,4.3,0,0,1,.54-1.42,2.45,2.45,0,0,1,.89-.86,2.54,2.54,0,0,1,1.21-.29Q34.23,123.56,34.23,127.87Zm-1,.09c0-2.39-.57-3.58-1.71-3.58s-1.79,1.21-1.79,3.65c0,2.27.58,3.4,1.76,3.4S33.25,130.28,33.25,128Z"/><path class="cls-16" d="M63.49,129.76a2.18,2.18,0,0,1,.1-.67,2.6,2.6,0,0,1,.3-.63,2.47,2.47,0,0,1,.49-.53,2.41,2.41,0,0,1,.66-.38,2.51,2.51,0,0,1-.87-.78,1.94,1.94,0,0,1-.32-1.06,2.11,2.11,0,0,1,.18-.86,1.94,1.94,0,0,1,.49-.68,2.5,2.5,0,0,1,.75-.45,2.76,2.76,0,0,1,1.88,0,2.21,2.21,0,0,1,.75.45,2.1,2.1,0,0,1,.5.68,2.26,2.26,0,0,1,.17.85,1.91,1.91,0,0,1-.32,1.06,2.48,2.48,0,0,1-.86.78,2.22,2.22,0,0,1,.65.38,2.47,2.47,0,0,1,.49.53,2.6,2.6,0,0,1,.3.63,2.22,2.22,0,0,1,.1.67,2.49,2.49,0,0,1-.19,1,2.19,2.19,0,0,1-.56.78,2.56,2.56,0,0,1-.87.51,3.14,3.14,0,0,1-1.1.18,3.21,3.21,0,0,1-1.1-.18,2.52,2.52,0,0,1-.86-.51,2.19,2.19,0,0,1-.56-.78A2.34,2.34,0,0,1,63.49,129.76Zm1-.08a2.16,2.16,0,0,0,.12.71,1.54,1.54,0,0,0,.34.54,1.42,1.42,0,0,0,.53.34,2.06,2.06,0,0,0,.7.12,2,2,0,0,0,.68-.12,1.58,1.58,0,0,0,.53-.35,1.3,1.3,0,0,0,.35-.54,1.85,1.85,0,0,0,.13-.7,1.88,1.88,0,0,0-.12-.66,1.7,1.7,0,0,0-.34-.54,1.68,1.68,0,0,0-.54-.37,1.63,1.63,0,0,0-.69-.13,1.69,1.69,0,0,0-.67.12,1.62,1.62,0,0,0-.54.35,1.73,1.73,0,0,0-.35.54A1.8,1.8,0,0,0,64.53,129.68Zm.3-3.9a1.39,1.39,0,0,0,.85,1.3,1.35,1.35,0,0,0,1.08,0,1.43,1.43,0,0,0,.44-.3,1.37,1.37,0,0,0,.3-.45,1.46,1.46,0,0,0,.11-.55,1.39,1.39,0,0,0-1.39-1.41,1.56,1.56,0,0,0-.57.11,1.63,1.63,0,0,0-.44.3,1.41,1.41,0,0,0-.28.45A1.52,1.52,0,0,0,64.83,125.78Z"/><path class="cls-16" d="M75.4,127.87a7.81,7.81,0,0,1-.19,1.87,4.19,4.19,0,0,1-.55,1.37,2.34,2.34,0,0,1-2.07,1.14,2.21,2.21,0,0,1-1.13-.28,2.33,2.33,0,0,1-.84-.81,4,4,0,0,1-.51-1.31,7.58,7.58,0,0,1-.18-1.78,9.05,9.05,0,0,1,.19-1.94,4.3,4.3,0,0,1,.54-1.42,2.45,2.45,0,0,1,.89-.86,2.54,2.54,0,0,1,1.21-.29Q75.4,123.56,75.4,127.87Zm-1,.09c0-2.39-.57-3.58-1.71-3.58s-1.79,1.21-1.79,3.65c0,2.27.58,3.4,1.76,3.4S74.42,130.28,74.42,128Z"/><path class="cls-16" d="M102.71,129.76a2.18,2.18,0,0,1,.1-.67,2.6,2.6,0,0,1,.3-.63,2.47,2.47,0,0,1,.49-.53,2.41,2.41,0,0,1,.66-.38,2.51,2.51,0,0,1-.87-.78,1.94,1.94,0,0,1-.32-1.06,2,2,0,0,1,.67-1.54,2.5,2.5,0,0,1,.75-.45,2.76,2.76,0,0,1,1.88,0,2.21,2.21,0,0,1,.75.45,2.1,2.1,0,0,1,.5.68,2.26,2.26,0,0,1,.17.85,1.91,1.91,0,0,1-.32,1.06,2.48,2.48,0,0,1-.86.78,2.22,2.22,0,0,1,.65.38,2.47,2.47,0,0,1,.49.53,2.6,2.6,0,0,1,.3.63,2.22,2.22,0,0,1,.1.67,2.34,2.34,0,0,1-.2,1,2,2,0,0,1-.56.78,2.42,2.42,0,0,1-.86.51,3.14,3.14,0,0,1-1.1.18,3.21,3.21,0,0,1-1.1-.18,2.52,2.52,0,0,1-.86-.51,2.19,2.19,0,0,1-.56-.78A2.34,2.34,0,0,1,102.71,129.76Zm1-.08a1.93,1.93,0,0,0,.12.71,1.54,1.54,0,0,0,.34.54,1.42,1.42,0,0,0,.53.34,2.06,2.06,0,0,0,.7.12,2,2,0,0,0,.68-.12,1.58,1.58,0,0,0,.53-.35,1.3,1.3,0,0,0,.35-.54,1.85,1.85,0,0,0,.13-.7A1.88,1.88,0,0,0,107,129a1.7,1.7,0,0,0-.34-.54,1.68,1.68,0,0,0-.54-.37,1.63,1.63,0,0,0-.69-.13,1.69,1.69,0,0,0-.67.12,1.62,1.62,0,0,0-.54.35,1.73,1.73,0,0,0-.35.54A1.8,1.8,0,0,0,103.75,129.68Zm.3-3.9a1.39,1.39,0,0,0,.85,1.3,1.35,1.35,0,0,0,1.08,0,1.43,1.43,0,0,0,.44-.3,1.37,1.37,0,0,0,.3-.45,1.46,1.46,0,0,0,.11-.55,1.39,1.39,0,0,0-1.39-1.41,1.56,1.56,0,0,0-.57.11,1.63,1.63,0,0,0-.44.3,1.41,1.41,0,0,0-.28.45A1.52,1.52,0,0,0,104.05,125.78Z"/><path class="cls-16" d="M114.62,127.87a7.81,7.81,0,0,1-.19,1.87,4.19,4.19,0,0,1-.55,1.37,2.34,2.34,0,0,1-2.07,1.14,2.21,2.21,0,0,1-1.13-.28,2.33,2.33,0,0,1-.84-.81,4,4,0,0,1-.51-1.31,7.58,7.58,0,0,1-.18-1.78,8.46,8.46,0,0,1,.19-1.94,4.3,4.3,0,0,1,.54-1.42,2.45,2.45,0,0,1,.89-.86,2.54,2.54,0,0,1,1.21-.29Q114.62,123.56,114.62,127.87Zm-1,.09c0-2.39-.57-3.58-1.71-3.58s-1.8,1.21-1.8,3.65c0,2.27.59,3.4,1.77,3.4S113.64,130.28,113.64,128Z"/></g><path class="cls-16" d="M42.76,52.72v2.39H42V48.8h1.73a2.28,2.28,0,0,1,1.57.5,1.76,1.76,0,0,1,.55,1.39,1.9,1.9,0,0,1-.61,1.46,2.37,2.37,0,0,1-1.67.57Zm0-3.25v2.59h.77a1.76,1.76,0,0,0,1.17-.35,1.24,1.24,0,0,0,.4-1c0-.83-.49-1.25-1.48-1.25Z"/><path class="cls-16" d="M50.6,55.11h-.72v-.72h0a1.46,1.46,0,0,1-1.38.82c-1.08,0-1.61-.64-1.61-1.91V50.61h.71v2.57c0,1,.37,1.43,1.09,1.43a1.1,1.1,0,0,0,.87-.39,1.48,1.48,0,0,0,.34-1V50.61h.72Z"/><path class="cls-16" d="M55.67,53H52.5a1.68,1.68,0,0,0,.4,1.16,1.4,1.4,0,0,0,1.06.41,2.18,2.18,0,0,0,1.4-.51v.68a2.59,2.59,0,0,1-1.57.43,1.92,1.92,0,0,1-1.5-.61,2.53,2.53,0,0,1-.54-1.73,2.44,2.44,0,0,1,.6-1.71,1.9,1.9,0,0,1,1.47-.66,1.7,1.7,0,0,1,1.37.57,2.4,2.4,0,0,1,.48,1.59Zm-.73-.61a1.53,1.53,0,0,0-.31-1,1,1,0,0,0-.82-.34,1.15,1.15,0,0,0-.86.36,1.62,1.62,0,0,0-.44,1Z"/><path class="cls-16" d="M59.11,51.34a.87.87,0,0,0-.54-.15.94.94,0,0,0-.78.44,2,2,0,0,0-.31,1.18v2.3h-.72v-4.5h.72v.92h0a1.6,1.6,0,0,1,.47-.74,1.11,1.11,0,0,1,.71-.26,1.19,1.19,0,0,1,.43.06Z"/><path class="cls-16" d="M62,55.06a1.31,1.31,0,0,1-.67.14c-.79,0-1.18-.44-1.18-1.32V51.22h-.78v-.61h.78v-1.1l.72-.24v1.34H62v.61H60.85v2.54a1.06,1.06,0,0,0,.15.64.61.61,0,0,0,.51.2.75.75,0,0,0,.47-.15Z"/><path class="cls-16" d="M64.82,55.21a2.09,2.09,0,0,1-1.59-.63,2.32,2.32,0,0,1-.59-1.67,2.43,2.43,0,0,1,.61-1.77,2.24,2.24,0,0,1,1.68-.64,2,2,0,0,1,1.57.62,2.84,2.84,0,0,1,0,3.44A2.12,2.12,0,0,1,64.82,55.21Zm.06-4.1a1.38,1.38,0,0,0-1.1.47,2,2,0,0,0-.41,1.3,1.82,1.82,0,0,0,.41,1.26,1.39,1.39,0,0,0,1.1.47A1.33,1.33,0,0,0,66,54.15a2,2,0,0,0,.38-1.28A2,2,0,0,0,66,51.56,1.32,1.32,0,0,0,64.88,51.11Z"/><path class="cls-16" d="M74.5,49.47H72.69v5.64H72V49.47H70.13V48.8H74.5Z"/><path class="cls-16" d="M79.37,54.84a3.67,3.67,0,0,1-1.74.37,2.84,2.84,0,0,1-2.16-.86,3.21,3.21,0,0,1-.81-2.28,3.38,3.38,0,0,1,.91-2.44,3.1,3.1,0,0,1,2.31-.93,3.79,3.79,0,0,1,1.49.26v.79a3,3,0,0,0-1.5-.38,2.31,2.31,0,0,0-1.76.72A2.74,2.74,0,0,0,75.44,52a2.62,2.62,0,0,0,.63,1.84,2.16,2.16,0,0,0,1.65.68,3.16,3.16,0,0,0,1.65-.42Z"/><path class="cls-16" d="M81.39,52.72v2.39h-.74V48.8h1.73a2.29,2.29,0,0,1,1.57.5,1.76,1.76,0,0,1,.55,1.39,1.88,1.88,0,0,1-.62,1.46,2.34,2.34,0,0,1-1.66.57Zm0-3.25v2.59h.77a1.76,1.76,0,0,0,1.17-.35,1.27,1.27,0,0,0,.4-1c0-.83-.49-1.25-1.48-1.25Z"/><path class="cls-16" d="M87.72,53.35a1.69,1.69,0,0,1,.08-.5,2.12,2.12,0,0,1,.23-.48,2.25,2.25,0,0,1,.36-.4,1.74,1.74,0,0,1,.5-.28,1.85,1.85,0,0,1-.65-.59,1.39,1.39,0,0,1-.24-.79,1.5,1.5,0,0,1,.13-.64,1.46,1.46,0,0,1,.37-.51,1.68,1.68,0,0,1,.56-.34,2,2,0,0,1,.71-.12,2,2,0,0,1,.7.12,1.8,1.8,0,0,1,.57.34,1.46,1.46,0,0,1,.37.51,1.7,1.7,0,0,1,.13.64,1.39,1.39,0,0,1-.24.79,1.94,1.94,0,0,1-.65.59,1.57,1.57,0,0,1,.49.28,1.67,1.67,0,0,1,.36.4,1.77,1.77,0,0,1,.23.48,1.69,1.69,0,0,1,.08.5,1.83,1.83,0,0,1-.15.75,1.67,1.67,0,0,1-.42.59,1.94,1.94,0,0,1-.64.38,2.49,2.49,0,0,1-.83.14,2.35,2.35,0,0,1-.82-.14,2,2,0,0,1-.65-.38,1.84,1.84,0,0,1-.58-1.34Zm.79-.06a1.51,1.51,0,0,0,.09.53,1.09,1.09,0,0,0,.25.4,1.11,1.11,0,0,0,.4.26,1.46,1.46,0,0,0,.52.09,1.36,1.36,0,0,0,.51-.09,1.11,1.11,0,0,0,.4-.26,1.17,1.17,0,0,0,.27-.41,1.42,1.42,0,0,0,.09-.52,1.39,1.39,0,0,0-.09-.5,1.07,1.07,0,0,0-.26-.4,1.15,1.15,0,0,0-.4-.28,1.24,1.24,0,0,0-.52-.1,1.35,1.35,0,0,0-.5.09,1.13,1.13,0,0,0-.4.27,1.28,1.28,0,0,0-.27.4A1.46,1.46,0,0,0,88.51,53.29Zm.22-2.93a1.16,1.16,0,0,0,.08.42,1.14,1.14,0,0,0,.56.56,1.06,1.06,0,0,0,.4.08,1.11,1.11,0,0,0,.41-.08,1,1,0,0,0,.33-.23,1.19,1.19,0,0,0,.22-.33,1,1,0,0,0,.09-.42,1.16,1.16,0,0,0-.08-.42,1,1,0,0,0-.23-.33,1,1,0,0,0-.33-.22.94.94,0,0,0-.41-.08,1,1,0,0,0-.42.08.86.86,0,0,0-.33.23,1,1,0,0,0-.22.33A1.14,1.14,0,0,0,88.73,50.36Z"/><path class="cls-16" d="M96.66,51.93a6.5,6.5,0,0,1-.14,1.4,3.36,3.36,0,0,1-.41,1,1.79,1.79,0,0,1-1.56.86A1.7,1.7,0,0,1,93.7,55a1.8,1.8,0,0,1-.62-.61,3.14,3.14,0,0,1-.39-1,6,6,0,0,1-.13-1.34,6.46,6.46,0,0,1,.14-1.46,3.3,3.3,0,0,1,.4-1.06,1.78,1.78,0,0,1,.67-.64,1.8,1.8,0,0,1,.91-.22C96,48.7,96.66,49.78,96.66,51.93Zm-.74.07c0-1.79-.42-2.69-1.28-2.69s-1.34.91-1.34,2.74.44,2.55,1.32,2.55S95.92,53.73,95.92,52Z"/><path class="cls-16" d="M7,183.11H6.3v-4.23c0-.34,0-.74.06-1.23h0a4.48,4.48,0,0,1-.18.61L4,183.11H3.64L1.49,178.3a4.59,4.59,0,0,1-.19-.65h0c0,.25,0,.67,0,1.24v4.22H.61V176.8h1l1.94,4.4a7.33,7.33,0,0,1,.29.75h0c.13-.34.23-.6.31-.77l2-4.38H7Z"/><path class="cls-16" d="M11.82,183.11h-.73v-.71h0a1.52,1.52,0,0,1-1.39.81,1.5,1.5,0,0,1-1-.35,1.27,1.27,0,0,1-.38-1c0-.84.5-1.33,1.49-1.47l1.34-.19c0-.76-.3-1.14-.92-1.14a2.22,2.22,0,0,0-1.47.55v-.74a2.79,2.79,0,0,1,1.53-.42q1.59,0,1.59,1.68Zm-.73-2.28L10,181a1.83,1.83,0,0,0-.76.25.83.83,0,0,0,0,1.17.92.92,0,0,0,.63.2,1.17,1.17,0,0,0,.89-.37,1.35,1.35,0,0,0,.34-.95Zm.1-4.52L10,177.75H9.48l1-1.44Z"/><path class="cls-16" d="M17,185.18h-.72v-2.85h0a1.62,1.62,0,0,1-1.54.88,1.69,1.69,0,0,1-1.36-.6,2.49,2.49,0,0,1-.51-1.65,2.67,2.67,0,0,1,.56-1.79,1.86,1.86,0,0,1,1.51-.67,1.42,1.42,0,0,1,1.34.73h0v-.62H17Zm-.72-4.1v-.66a1.31,1.31,0,0,0-.36-.93,1.19,1.19,0,0,0-.92-.38,1.24,1.24,0,0,0-1,.48,2.15,2.15,0,0,0-.38,1.35,1.87,1.87,0,0,0,.37,1.22,1.15,1.15,0,0,0,.94.44,1.27,1.27,0,0,0,1-.43A1.6,1.6,0,0,0,16.29,181.08Z"/><path class="cls-16" d="M22.11,183.11h-.72v-.72h0a1.47,1.47,0,0,1-1.39.82c-1.07,0-1.6-.64-1.6-1.92v-2.68h.71v2.57c0,.95.37,1.42,1.09,1.42a1.12,1.12,0,0,0,.87-.38,1.48,1.48,0,0,0,.34-1v-2.59h.72Z"/><path class="cls-16" d="M23.94,177.46a.44.44,0,0,1-.33-.13.42.42,0,0,1-.14-.33.42.42,0,0,1,.14-.34.48.48,0,0,1,.66,0,.46.46,0,0,1,.14.34.45.45,0,0,1-.14.33A.44.44,0,0,1,23.94,177.46Zm.35,5.65h-.72v-4.5h.72Z"/><path class="cls-16" d="M29.48,183.11h-.72v-2.57c0-1-.35-1.43-1.05-1.43a1.13,1.13,0,0,0-.89.4,1.5,1.5,0,0,0-.35,1v2.57h-.72v-4.5h.72v.74h0A1.63,1.63,0,0,1,28,178.5a1.38,1.38,0,0,1,1.13.48,2.09,2.09,0,0,1,.39,1.37Z"/><path class="cls-16" d="M34.06,183.11h-.72v-.71h0a1.5,1.5,0,0,1-1.38.81,1.54,1.54,0,0,1-1.06-.35,1.27,1.27,0,0,1-.38-1c0-.84.5-1.33,1.49-1.47l1.35-.19q0-1.14-.93-1.14a2.22,2.22,0,0,0-1.47.55v-.74a2.84,2.84,0,0,1,1.53-.42q1.59,0,1.59,1.68Zm-.72-2.28-1.09.15a1.78,1.78,0,0,0-.75.25.72.72,0,0,0-.26.63.68.68,0,0,0,.24.54.87.87,0,0,0,.62.2,1.16,1.16,0,0,0,.89-.37,1.36,1.36,0,0,0,.35-.95Z"/><path class="cls-16" d="M9.24,188.61l-1.79,4.5H6.74L5,188.61h.79L7,191.88a2.7,2.7,0,0,1,.16.62h0a2.73,2.73,0,0,1,.14-.61l1.19-3.28Z"/><path class="cls-16" d="M10.38,187.46a.44.44,0,0,1-.32-.13.42.42,0,0,1-.14-.33.42.42,0,0,1,.14-.34.44.44,0,0,1,.32-.13.45.45,0,0,1,.34.13.46.46,0,0,1,.14.34.46.46,0,0,1-.48.46Zm.36,5.65H10v-4.5h.72Z"/><path class="cls-16" d="M14.54,189.33a.91.91,0,0,0-.54-.14.89.89,0,0,0-.77.44,2,2,0,0,0-.31,1.18v2.3H12.2v-4.5h.72v.92h0a1.69,1.69,0,0,1,.47-.74,1.11,1.11,0,0,1,.71-.26,1.19,1.19,0,0,1,.43.06Z"/><path class="cls-16" d="M17.41,193.06a1.31,1.31,0,0,1-.67.14c-.79,0-1.18-.44-1.18-1.32v-2.66h-.78v-.61h.78v-1.1l.72-.24v1.34h1.13v.61H16.28v2.54a1.06,1.06,0,0,0,.15.64.61.61,0,0,0,.51.2.75.75,0,0,0,.47-.15Z"/><path class="cls-16" d="M22,193.11h-.72v-.72h0a1.46,1.46,0,0,1-1.38.82c-1.08,0-1.61-.64-1.61-1.92v-2.68H19v2.57c0,.95.37,1.42,1.09,1.42a1.12,1.12,0,0,0,.87-.38,1.48,1.48,0,0,0,.34-1v-2.59H22Z"/><path class="cls-16" d="M26.69,193.11H26v-.71h0a1.5,1.5,0,0,1-1.38.81,1.54,1.54,0,0,1-1.06-.35,1.27,1.27,0,0,1-.38-1c0-.84.5-1.33,1.49-1.47l1.35-.19q0-1.14-.93-1.14a2.22,2.22,0,0,0-1.47.55v-.74a2.84,2.84,0,0,1,1.53-.42q1.59,0,1.59,1.68ZM26,190.83l-1.09.15a1.78,1.78,0,0,0-.75.25.72.72,0,0,0-.26.63.68.68,0,0,0,.24.54.87.87,0,0,0,.62.2,1.16,1.16,0,0,0,.89-.37,1.36,1.36,0,0,0,.35-.95Z"/><path class="cls-16" d="M28.77,193.11h-.72v-6.67h.72Z"/><path class="cls-16" d="M58.53,183.11H57.8v-4.23c0-.34,0-.74.06-1.23h0a4.48,4.48,0,0,1-.18.61l-2.16,4.85h-.36L53,178.3a4.59,4.59,0,0,1-.19-.65h0c0,.25,0,.67,0,1.24v4.22h-.71V176.8h1L55,181.2a7.33,7.33,0,0,1,.29.75h0c.13-.34.23-.6.31-.77l2-4.38h.92Z"/><path class="cls-16" d="M63.32,183.11h-.73v-.71h0a1.52,1.52,0,0,1-1.39.81,1.5,1.5,0,0,1-1-.35,1.27,1.27,0,0,1-.38-1c0-.84.5-1.33,1.49-1.47l1.34-.19c0-.76-.3-1.14-.92-1.14a2.22,2.22,0,0,0-1.47.55v-.74a2.79,2.79,0,0,1,1.53-.42q1.59,0,1.59,1.68Zm-.73-2.28-1.08.15a1.83,1.83,0,0,0-.76.25.83.83,0,0,0,0,1.17.92.92,0,0,0,.63.2,1.17,1.17,0,0,0,.89-.37,1.35,1.35,0,0,0,.34-.95Zm.1-4.52-1.15,1.44H61l1-1.44Z"/><path class="cls-16" d="M68.51,185.18h-.72v-2.85h0a1.62,1.62,0,0,1-1.54.88,1.69,1.69,0,0,1-1.36-.6,2.49,2.49,0,0,1-.51-1.65,2.67,2.67,0,0,1,.56-1.79,1.86,1.86,0,0,1,1.51-.67,1.42,1.42,0,0,1,1.34.73h0v-.62h.72Zm-.72-4.1v-.66a1.31,1.31,0,0,0-.36-.93,1.19,1.19,0,0,0-.92-.38,1.24,1.24,0,0,0-1,.48,2.15,2.15,0,0,0-.38,1.35,1.87,1.87,0,0,0,.37,1.22,1.15,1.15,0,0,0,.94.44,1.27,1.27,0,0,0,1-.43A1.6,1.6,0,0,0,67.79,181.08Z"/><path class="cls-16" d="M73.61,183.11h-.72v-.72h0a1.47,1.47,0,0,1-1.39.82c-1.07,0-1.6-.64-1.6-1.92v-2.68h.71v2.57c0,.95.37,1.42,1.09,1.42a1.12,1.12,0,0,0,.87-.38,1.48,1.48,0,0,0,.34-1v-2.59h.72Z"/><path class="cls-16" d="M75.44,177.46a.44.44,0,0,1-.33-.13A.42.42,0,0,1,75,177a.42.42,0,0,1,.14-.34.48.48,0,0,1,.66,0,.46.46,0,0,1,.14.34.45.45,0,0,1-.14.33A.44.44,0,0,1,75.44,177.46Zm.35,5.65h-.72v-4.5h.72Z"/><path class="cls-16" d="M81,183.11h-.72v-2.57c0-1-.35-1.43-1.05-1.43a1.13,1.13,0,0,0-.89.4,1.5,1.5,0,0,0-.35,1v2.57h-.72v-4.5H78v.74h0a1.63,1.63,0,0,1,1.48-.85,1.38,1.38,0,0,1,1.13.48,2.09,2.09,0,0,1,.39,1.37Z"/><path class="cls-16" d="M85.56,183.11h-.72v-.71h0a1.5,1.5,0,0,1-1.38.81,1.54,1.54,0,0,1-1.06-.35,1.27,1.27,0,0,1-.38-1c0-.84.5-1.33,1.49-1.47l1.35-.19q0-1.14-.93-1.14a2.22,2.22,0,0,0-1.47.55v-.74A2.84,2.84,0,0,1,84,178.5q1.59,0,1.59,1.68Zm-.72-2.28-1.09.15a1.78,1.78,0,0,0-.75.25.72.72,0,0,0-.26.63.68.68,0,0,0,.24.54.87.87,0,0,0,.62.2,1.16,1.16,0,0,0,.89-.37,1.36,1.36,0,0,0,.35-.95Z"/><path class="cls-16" d="M60.74,188.61,59,193.11h-.71l-1.7-4.5h.79l1.14,3.27a2.7,2.7,0,0,1,.16.62h0a2.73,2.73,0,0,1,.14-.61L60,188.61Z"/><path class="cls-16" d="M61.88,187.46a.44.44,0,0,1-.32-.13.42.42,0,0,1-.14-.33.42.42,0,0,1,.14-.34.44.44,0,0,1,.32-.13.45.45,0,0,1,.34.13.46.46,0,0,1,.14.34.46.46,0,0,1-.48.46Zm.36,5.65h-.72v-4.5h.72Z"/><path class="cls-16" d="M66,189.33a.91.91,0,0,0-.54-.14.89.89,0,0,0-.77.44,2,2,0,0,0-.31,1.18v2.3H63.7v-4.5h.72v.92h0a1.69,1.69,0,0,1,.47-.74,1.11,1.11,0,0,1,.71-.26,1.19,1.19,0,0,1,.43.06Z"/><path class="cls-16" d="M68.91,193.06a1.31,1.31,0,0,1-.67.14c-.79,0-1.18-.44-1.18-1.32v-2.66h-.78v-.61h.78v-1.1l.72-.24v1.34h1.13v.61H67.78v2.54a1.06,1.06,0,0,0,.15.64.61.61,0,0,0,.51.2.75.75,0,0,0,.47-.15Z"/><path class="cls-16" d="M73.51,193.11h-.72v-.72h0a1.46,1.46,0,0,1-1.38.82c-1.08,0-1.61-.64-1.61-1.92v-2.68h.71v2.57c0,.95.37,1.42,1.09,1.42a1.12,1.12,0,0,0,.87-.38,1.48,1.48,0,0,0,.34-1v-2.59h.72Z"/><path class="cls-16" d="M78.19,193.11h-.72v-.71h0a1.5,1.5,0,0,1-1.38.81,1.54,1.54,0,0,1-1.06-.35,1.27,1.27,0,0,1-.38-1c0-.84.5-1.33,1.49-1.47l1.35-.19q0-1.14-.93-1.14a2.22,2.22,0,0,0-1.47.55v-.74a2.84,2.84,0,0,1,1.53-.42q1.59,0,1.59,1.68Zm-.72-2.28-1.09.15a1.78,1.78,0,0,0-.75.25.72.72,0,0,0-.26.63.68.68,0,0,0,.24.54.87.87,0,0,0,.62.2,1.16,1.16,0,0,0,.89-.37,1.36,1.36,0,0,0,.35-.95Z"/><path class="cls-16" d="M80.27,193.11h-.72v-6.67h.72Z"/><path class="cls-16" d="M110,183.11h-.73v-4.23c0-.34,0-.74.06-1.23h0a4.48,4.48,0,0,1-.18.61L107,183.11h-.36l-2.15-4.81a4.59,4.59,0,0,1-.19-.65h0c0,.25,0,.67,0,1.24v4.22h-.71V176.8h1l1.94,4.4a7.33,7.33,0,0,1,.29.75h0c.13-.34.23-.6.31-.77l2-4.38H110Z"/><path class="cls-16" d="M114.82,183.11h-.73v-.71h0a1.65,1.65,0,0,1-2.44.46,1.27,1.27,0,0,1-.38-1c0-.84.5-1.33,1.49-1.47l1.34-.19c0-.76-.3-1.14-.92-1.14a2.22,2.22,0,0,0-1.47.55v-.74a2.79,2.79,0,0,1,1.53-.42q1.59,0,1.59,1.68Zm-.73-2.28L113,181a1.83,1.83,0,0,0-.76.25.83.83,0,0,0,0,1.17.92.92,0,0,0,.63.2,1.17,1.17,0,0,0,.89-.37,1.35,1.35,0,0,0,.34-.95Zm.1-4.52L113,177.75h-.56l1-1.44Z"/><path class="cls-16" d="M120,185.18h-.72v-2.85h0a1.62,1.62,0,0,1-1.54.88,1.69,1.69,0,0,1-1.36-.6,2.49,2.49,0,0,1-.51-1.65,2.67,2.67,0,0,1,.56-1.79,1.86,1.86,0,0,1,1.51-.67,1.42,1.42,0,0,1,1.34.73h0v-.62H120Zm-.72-4.1v-.66a1.31,1.31,0,0,0-.36-.93,1.19,1.19,0,0,0-.92-.38,1.24,1.24,0,0,0-1,.48,2.15,2.15,0,0,0-.38,1.35,1.87,1.87,0,0,0,.37,1.22,1.15,1.15,0,0,0,.94.44,1.27,1.27,0,0,0,1-.43A1.6,1.6,0,0,0,119.29,181.08Z"/><path class="cls-16" d="M125.11,183.11h-.72v-.72h0a1.47,1.47,0,0,1-1.39.82c-1.07,0-1.6-.64-1.6-1.92v-2.68h.71v2.57c0,.95.37,1.42,1.09,1.42a1.12,1.12,0,0,0,.87-.38,1.48,1.48,0,0,0,.34-1v-2.59h.72Z"/><path class="cls-16" d="M126.94,177.46a.44.44,0,0,1-.33-.13.42.42,0,0,1-.14-.33.42.42,0,0,1,.14-.34.48.48,0,0,1,.66,0,.46.46,0,0,1,.14.34.45.45,0,0,1-.14.33A.44.44,0,0,1,126.94,177.46Zm.35,5.65h-.72v-4.5h.72Z"/><path class="cls-16" d="M132.48,183.11h-.72v-2.57c0-1-.35-1.43-1-1.43a1.13,1.13,0,0,0-.89.4,1.5,1.5,0,0,0-.35,1v2.57h-.72v-4.5h.72v.74h0a1.63,1.63,0,0,1,1.48-.85,1.38,1.38,0,0,1,1.13.48,2.09,2.09,0,0,1,.39,1.37Z"/><path class="cls-16" d="M137.06,183.11h-.72v-.71h0a1.5,1.5,0,0,1-1.38.81,1.54,1.54,0,0,1-1.06-.35,1.27,1.27,0,0,1-.38-1c0-.84.5-1.33,1.49-1.47l1.35-.19q0-1.14-.93-1.14a2.22,2.22,0,0,0-1.47.55v-.74a2.84,2.84,0,0,1,1.53-.42q1.59,0,1.59,1.68Zm-.72-2.28-1.09.15a1.78,1.78,0,0,0-.75.25.72.72,0,0,0-.26.63.68.68,0,0,0,.24.54.87.87,0,0,0,.62.2,1.16,1.16,0,0,0,.89-.37,1.36,1.36,0,0,0,.35-.95Z"/><path class="cls-16" d="M112.24,188.61l-1.79,4.5h-.71l-1.7-4.5h.79l1.14,3.27a2.7,2.7,0,0,1,.16.62h0a2.73,2.73,0,0,1,.14-.61l1.19-3.28Z"/><path class="cls-16" d="M113.38,187.46a.44.44,0,0,1-.32-.13.42.42,0,0,1-.14-.33.42.42,0,0,1,.14-.34.44.44,0,0,1,.32-.13.45.45,0,0,1,.34.13.46.46,0,0,1,.14.34.46.46,0,0,1-.48.46Zm.36,5.65H113v-4.5h.72Z"/><path class="cls-16" d="M117.54,189.33a.91.91,0,0,0-.54-.14.89.89,0,0,0-.77.44,2,2,0,0,0-.31,1.18v2.3h-.72v-4.5h.72v.92h0a1.69,1.69,0,0,1,.47-.74,1.13,1.13,0,0,1,.71-.26,1.19,1.19,0,0,1,.43.06Z"/><path class="cls-16" d="M120.41,193.06a1.31,1.31,0,0,1-.67.14c-.79,0-1.18-.44-1.18-1.32v-2.66h-.78v-.61h.78v-1.1l.72-.24v1.34h1.13v.61h-1.13v2.54a1.06,1.06,0,0,0,.15.64.61.61,0,0,0,.51.2.75.75,0,0,0,.47-.15Z"/><path class="cls-16" d="M125,193.11h-.72v-.72h0a1.46,1.46,0,0,1-1.38.82c-1.08,0-1.61-.64-1.61-1.92v-2.68H122v2.57c0,.95.37,1.42,1.09,1.42a1.12,1.12,0,0,0,.87-.38,1.48,1.48,0,0,0,.34-1v-2.59H125Z"/><path class="cls-16" d="M129.69,193.11H129v-.71h0a1.5,1.5,0,0,1-1.38.81,1.54,1.54,0,0,1-1.06-.35,1.27,1.27,0,0,1-.38-1c0-.84.5-1.33,1.49-1.47l1.35-.19q0-1.14-.93-1.14a2.22,2.22,0,0,0-1.47.55v-.74a2.84,2.84,0,0,1,1.53-.42q1.59,0,1.59,1.68Zm-.72-2.28-1.09.15a1.78,1.78,0,0,0-.75.25.72.72,0,0,0-.26.63.68.68,0,0,0,.24.54.87.87,0,0,0,.62.2,1.16,1.16,0,0,0,.89-.37,1.36,1.36,0,0,0,.35-.95Z"/><path class="cls-16" d="M131.77,193.11h-.72v-6.67h.72Z"/></svg>