<svg id="Layer_1" data-name="Layer 1" xmlns="http://www.w3.org/2000/svg" xmlns:xlink="http://www.w3.org/1999/xlink" viewBox="0 0 325.49 212.9"><defs><style>.cls-1,.cls-10{fill:#fff;}.cls-2{fill:#0072c6;opacity:0.12;}.cls-2,.cls-6{isolation:isolate;}.cls-3{fill:url(#linear-gradient);}.cls-4{fill:#b4ec36;}.cls-5{fill:#5ea0ef;}.cls-6{opacity:0.9;fill:url(#linear-gradient-2);}.cls-7{fill:url(#linear-gradient-3);}.cls-8{fill:#0078d4;}.cls-10,.cls-8,.cls-9{fill-rule:evenodd;}.cls-9{fill:url(#linear-gradient-4);}.cls-11{fill:none;stroke:#3c3c41;stroke-miterlimit:10;}.cls-12{fill:url(#linear-gradient-5);}.cls-13{fill:#50e6ff;}.cls-14{fill:#c3f1ff;}.cls-15{fill:#9cebff;}.cls-16{fill:url(#linear-gradient-6);}.cls-17{fill:url(#linear-gradient-7);}.cls-18{fill:url(#linear-gradient-8);}.cls-19{fill:url(#linear-gradient-9);}.cls-20{fill:url(#linear-gradient-10);}.cls-21{fill:url(#linear-gradient-11);}.cls-22{fill:#e3e3e3;}.cls-23{fill:#1e1e1e;}</style><linearGradient id="linear-gradient" x1="126.49" y1="963.39" x2="126.49" y2="926.29" gradientTransform="translate(0 -837.21)" gradientUnits="userSpaceOnUse"><stop offset="0" stop-color="#5e9624"/><stop offset="0.02" stop-color="#5f9724"/><stop offset="1" stop-color="#76bc2d"/></linearGradient><linearGradient id="linear-gradient-2" x1="26.52" y1="92.8" x2="26.52" y2="120.83" gradientTransform="matrix(1, 0, 0, -1, 0, 213)" gradientUnits="userSpaceOnUse"><stop offset="0" stop-color="#d2ebff"/><stop offset="1" stop-color="#f0fffd"/></linearGradient><linearGradient id="linear-gradient-3" x1="26.13" y1="931.16" x2="26.13" y2="955.35" gradientTransform="translate(0 -837.21)" gradientUnits="userSpaceOnUse"><stop offset="0.09" stop-color="#6cc6b9"/><stop offset="0.46" stop-color="#6ac4b7"/><stop offset="0.64" stop-color="#62bdb0"/><stop offset="0.77" stop-color="#56b1a4"/><stop offset="0.88" stop-color="#439f93"/><stop offset="0.98" stop-color="#2c897d"/><stop offset="1" stop-color="#258277"/></linearGradient><linearGradient id="linear-gradient-4" x1="26.13" y1="86.52" x2="26.13" y2="89.34" gradientTransform="matrix(1, 0, 0, -1, 0, 213)" gradientUnits="userSpaceOnUse"><stop offset="0" stop-color="#0078d4"/><stop offset="0.17" stop-color="#1c84dc"/><stop offset="0.38" stop-color="#3990e4"/><stop offset="0.59" stop-color="#4d99ea"/><stop offset="0.8" stop-color="#5a9eee"/><stop offset="1" stop-color="#5ea0ef"/></linearGradient><linearGradient id="linear-gradient-5" x1="249.56" y1="898.87" x2="249.56" y2="880.1" gradientTransform="translate(0 -837.21)" gradientUnits="userSpaceOnUse"><stop offset="0" stop-color="#0078d4"/><stop offset="0.82" stop-color="#5ea0ef"/></linearGradient><linearGradient id="linear-gradient-6" x1="249.56" y1="906.1" x2="249.56" y2="898.87" gradientTransform="translate(0 -837.21)" gradientUnits="userSpaceOnUse"><stop offset="0.15" stop-color="#ccc"/><stop offset="1" stop-color="#707070"/></linearGradient><linearGradient id="linear-gradient-7" x1="249.56" y1="952.87" x2="249.56" y2="934.1" xlink:href="#linear-gradient-5"/><linearGradient id="linear-gradient-8" x1="249.56" y1="960.1" x2="249.56" y2="952.87" xlink:href="#linear-gradient-6"/><linearGradient id="linear-gradient-9" x1="249.56" y1="1011.37" x2="249.56" y2="992.6" xlink:href="#linear-gradient-5"/><linearGradient id="linear-gradient-10" x1="249.56" y1="1018.6" x2="249.56" y2="1011.37" xlink:href="#linear-gradient-6"/><linearGradient id="linear-gradient-11" x1="220.69" y1="862.31" x2="220.69" y2="832.51" gradientTransform="translate(0 -837.21)" gradientUnits="userSpaceOnUse"><stop offset="0" stop-color="#0078d4"/><stop offset="0.16" stop-color="#1380da"/><stop offset="0.53" stop-color="#3c91e5"/><stop offset="0.82" stop-color="#559cec"/><stop offset="1" stop-color="#5ea0ef"/></linearGradient></defs><rect class="cls-1" width="325.49" height="212.9"/><path class="cls-1" d="M325.49,187.9h-105V12.9h86.4a18.59,18.59,0,0,1,18.6,18.59Z"/><path class="cls-2" d="M325.49,187.9h-105V12.9h86.4a18.59,18.59,0,0,1,18.6,18.59Z"/><path class="cls-3" d="M110.81,106.13l14.91-14.91a1.07,1.07,0,0,1,1.51,0l0,0,14.91,14.91a1.06,1.06,0,0,1,0,1.51l0,0-14.93,14.93a1.06,1.06,0,0,1-1.49,0l-14.93-14.93a1.07,1.07,0,0,1,0-1.51Z"/><path class="cls-4" d="M130.4,98l-3.77-3.75a.23.23,0,0,0-.29,0L122.58,98a.17.17,0,0,0,0,.25.18.18,0,0,0,.19.07h2.2a.2.2,0,0,1,.2.19h0v3.56a.19.19,0,0,0,.19.19h2.35a.19.19,0,0,0,.2-.19h0V98.52a.19.19,0,0,1,.19-.19h2.21a.18.18,0,0,0,.21-.13.18.18,0,0,0-.07-.19Z"/><path class="cls-4" d="M117.6,102.65l-3.73,3.78a.2.2,0,0,0,0,.27l3.73,3.75a.2.2,0,0,0,.34-.14v-2.19a.18.18,0,0,1,.19-.19h3.56a.18.18,0,0,0,.18-.18s0,0,0,0v-2.35a.16.16,0,0,0-.06-.24l-.06,0h-3.55a.18.18,0,0,1-.2-.16v-2.17a.22.22,0,0,0-.12-.27.21.21,0,0,0-.27.13Z"/><path class="cls-4" d="M135.52,110.45l3.78-3.77a.19.19,0,0,0,0-.26l-3.78-3.77a.2.2,0,0,0-.28,0,.19.19,0,0,0,0,.12V105a.18.18,0,0,1-.18.18h-3.57a.18.18,0,0,0-.18.18v2.36a.18.18,0,0,0,.16.2H135a.19.19,0,0,1,.2.19v2.21a.2.2,0,0,0,.21.17A.22.22,0,0,0,135.52,110.45Z"/><path class="cls-1" d="M131.45,106.9a5,5,0,1,0-6.3,4.74v1.69a3,3,0,1,0,2.79,0v-1.78A4.93,4.93,0,0,0,131.45,106.9Z"/><circle id="e99c3387-15c3-4f28-bd4b-cb209b430e06" class="cls-5" cx="126.5" cy="106.88" r="2.88"/><rect class="cls-6" x="4.02" y="92.17" width="45.01" height="28.04"/><path class="cls-7" d="M13.86,96.72H38.42a.75.75,0,0,1,.78.71v17.06a.75.75,0,0,1-.78.71H13.86a.76.76,0,0,1-.79-.71v-17a.76.76,0,0,1,.79-.74Z"/><path id="bd0aa3dd-0b00-4321-a08d-35d4016600a8" class="cls-1" d="M23.92,98.91H35.65a.23.23,0,0,1,.23.21v6.48a.23.23,0,0,1-.23.22H23.92a.23.23,0,0,1-.23-.22V99.11A.23.23,0,0,1,23.92,98.91Z"/><rect id="bda038fc-05f8-4c73-8191-dcc998cc8c65" class="cls-1" x="16.31" y="98.89" width="4.94" height="13.93" rx="0.22"/><path id="f698805f-4654-42cb-b2bf-38f0a925cdbf" class="cls-1" d="M31.06,107.78h4.55a.21.21,0,0,1,.21.22v4.62a.21.21,0,0,1-.21.2H31.06a.22.22,0,0,1-.22-.2V108a.22.22,0,0,1,.22-.22Z"/><path id="f83fd769-9efd-4d02-bd0d-a012d7e875a2" class="cls-1" d="M23.85,107.78h4.42a.22.22,0,0,1,.22.22h0v4.62a.2.2,0,0,1-.2.2H23.92a.21.21,0,0,1-.21-.21V108A.21.21,0,0,1,23.85,107.78Z"/><path class="cls-8" d="M4.59,93.8a1,1,0,0,1,1-1H46.68a1,1,0,0,1,1,1h0v24.3a1,1,0,0,1-1,1H5.59a1,1,0,0,1-1-1h0ZM2.32,92.63v26.59a2.15,2.15,0,0,0,2.15,2.15H47.8A2.15,2.15,0,0,0,50,119.22h0V92.63a2.15,2.15,0,0,0-2.15-2.15H4.47a2.15,2.15,0,0,0-2.15,2.15Z"/><path class="cls-9" d="M.57,123.66H51.7a.57.57,0,0,1,.57.57h0v1.68a.58.58,0,0,1-.57.57H.57a.58.58,0,0,1-.57-.57H0v-1.68a.56.56,0,0,1,.57-.57Z"/><path class="cls-10" d="M20.3,124.66H32a.16.16,0,0,1,.16.17h0v.48a.17.17,0,0,1-.16.17H20.3a.17.17,0,0,1-.16-.17h0v-.48a.16.16,0,0,1,.16-.17Z"/><line class="cls-11" x1="115.49" y1="94.07" x2="58.17" y2="94.07"/><line class="cls-11" x1="105.49" y1="105.98" x2="58.17" y2="105.98"/><line class="cls-11" x1="230.49" y1="105.98" x2="147.17" y2="105.98"/><line class="cls-11" x1="115.49" y1="117.9" x2="58.17" y2="117.9"/><rect class="cls-12" x="235.49" y="42.9" width="28.14" height="18.76" rx="0.94"/><polygon class="cls-13" points="254.25 49.54 254.25 55 249.56 57.75 249.56 52.28 254.25 49.54"/><polygon class="cls-14" points="254.25 49.54 249.56 52.29 244.87 49.54 249.56 46.8 254.25 49.54"/><polygon class="cls-15" points="249.56 52.29 249.56 57.75 244.87 55 244.87 49.54 249.56 52.29"/><polygon class="cls-14" points="244.87 55 249.56 52.28 249.56 57.75 244.87 55"/><polygon class="cls-15" points="254.25 55 249.56 52.28 249.56 57.75 254.25 55"/><path class="cls-16" d="M255.2,67.33c-2.78-.43-2.89-2.44-2.89-5.67h-5.52c0,3.23-.09,5.24-2.88,5.67a1.58,1.58,0,0,0-1.39,1.57h14.07A1.56,1.56,0,0,0,255.2,67.33Z"/><rect class="cls-17" x="235.49" y="96.9" width="28.14" height="18.76" rx="0.94"/><polygon class="cls-13" points="254.25 103.54 254.25 109 249.56 111.75 249.56 106.28 254.25 103.54"/><polygon class="cls-14" points="254.25 103.54 249.56 106.29 244.87 103.54 249.56 100.81 254.25 103.54"/><polygon class="cls-15" points="249.56 106.29 249.56 111.75 244.87 109 244.87 103.54 249.56 106.29"/><polygon class="cls-14" points="244.87 109 249.56 106.28 249.56 111.75 244.87 109"/><polygon class="cls-15" points="254.25 109 249.56 106.28 249.56 111.75 254.25 109"/><path class="cls-18" d="M255.2,121.33c-2.78-.43-2.89-2.44-2.89-5.67h-5.52c0,3.23-.09,5.24-2.88,5.67a1.58,1.58,0,0,0-1.39,1.57h14.07A1.56,1.56,0,0,0,255.2,121.33Z"/><rect class="cls-19" x="235.49" y="155.4" width="28.14" height="18.76" rx="0.94"/><polygon class="cls-13" points="254.25 162.04 254.25 167.5 249.56 170.25 249.56 164.78 254.25 162.04"/><polygon class="cls-14" points="254.25 162.04 249.56 164.79 244.87 162.04 249.56 159.31 254.25 162.04"/><polygon class="cls-15" points="249.56 164.79 249.56 170.25 244.87 167.5 244.87 162.04 249.56 164.79"/><polygon class="cls-14" points="244.87 167.5 249.56 164.78 249.56 170.25 244.87 167.5"/><polygon class="cls-15" points="254.25 167.5 249.56 164.78 249.56 170.25 254.25 167.5"/><path class="cls-20" d="M255.2,179.83c-2.78-.43-2.89-2.44-2.89-5.67h-5.52c0,3.23-.09,5.24-2.88,5.67a1.58,1.58,0,0,0-1.39,1.57h14.07A1.56,1.56,0,0,0,255.2,179.83Z"/><path class="cls-21" d="M235.69,15a6.84,6.84,0,0,0-5.85-6.66A8.56,8.56,0,0,0,221.09,0a8.76,8.76,0,0,0-8.33,5.79,8.12,8.12,0,0,0-7.07,8,8.24,8.24,0,0,0,8.45,8h14.79A6.89,6.89,0,0,0,235.69,15Z"/><circle class="cls-22" cx="214.43" cy="13.5" r="1.18"/><path class="cls-1" d="M218.59,14V13h-.13l-1-.33-.26-.65.51-1.1-.66-.67h-.14l-.95.5-.65-.26-.41-1.15h-.95v.13l-.34,1-.7.26-1.08-.51-.67.66V11l.49,1-.27.65-1.17.41v1h.14l1,.33.27.65-.52,1.1.67.67h.13l1-.49.65.27.42,1.15h1v-.13l.33-1,.65-.27,1.1.52.67-.67v-.13l-.48-1,.26-.65Zm-4.16,1.39a1.82,1.82,0,1,1,1.83-1.8,1.81,1.81,0,0,1-1.83,1.8Z"/><circle class="cls-22" cx="222.36" cy="8.4" r="1.4"/><path class="cls-1" d="M227.36,8.94V7.8h-.15L226,7.42l-.29-.85.62-1.33-.8-.8h-.15L224.21,5l-.77-.32-.5-1.38h-1.18v.17l-.4,1.21-.78.32-1.3-.62-.8.8.08.15L219,6.59l-.27.83-1.4.45V9.09h.17l1.21.4.29.75-.62,1.33.83.85.17-.08,1.13-.59.79.32.5,1.38H223v-.16l.4-1.22.78-.32,1.32.62.8-.8-.08-.15-.49-1.2.32-.78Zm-5,1.66a2.2,2.2,0,1,1,2.2-2.2h0a2.18,2.18,0,0,1-2.17,2.2Z"/><path class="cls-11" d="M230.49,52.9H210.83A8.31,8.31,0,0,0,205.71,55L169,91.94a8.24,8.24,0,0,1-5.11,2.13H138.17"/><path class="cls-11" d="M138.17,117.9h25.71a7.47,7.47,0,0,1,5,2.26l37,42.65a7.49,7.49,0,0,0,5,2.26h19.66"/><path class="cls-23" d="M93.43,153.36a1.17,1.17,0,0,1-.88-.36,1.19,1.19,0,0,1-.38-.88,1.28,1.28,0,0,1,1.26-1.26,1.25,1.25,0,0,1,1.24,1.26,1.23,1.23,0,0,1-1.23,1.24Z"/><path class="cls-23" d="M93.43,166.56a1.17,1.17,0,0,1-.88-.36,1.19,1.19,0,0,1-.38-.88,1.28,1.28,0,0,1,1.26-1.26,1.25,1.25,0,0,1,1.24,1.26,1.23,1.23,0,0,1-1.23,1.24Z"/><path class="cls-23" d="M93.43,179.76a1.17,1.17,0,0,1-.88-.36,1.19,1.19,0,0,1-.38-.88,1.28,1.28,0,0,1,1.26-1.26,1.25,1.25,0,0,1,1.24,1.26,1.23,1.23,0,0,1-1.23,1.24Z"/><path class="cls-23" d="M93.43,193a1.17,1.17,0,0,1-.88-.36,1.19,1.19,0,0,1-.38-.88,1.28,1.28,0,0,1,1.26-1.26,1.25,1.25,0,0,1,1.24,1.26A1.23,1.23,0,0,1,93.44,193Z"/><path class="cls-23" d="M93.43,206.16a1.17,1.17,0,0,1-.88-.36,1.19,1.19,0,0,1-.38-.88,1.28,1.28,0,0,1,1.26-1.26,1.25,1.25,0,0,1,1.24,1.26,1.23,1.23,0,0,1-1.23,1.24Z"/><path class="cls-23" d="M95.18,141.78h-.57v-2.24H92.07v2.24H91.5v-4.9h.57V139h2.54v-2.15h.57Z"/><path class="cls-23" d="M98.9,141.78h-.56v-.55h0a1.19,1.19,0,0,1-1.08.63,1.13,1.13,0,0,1-.82-.28.93.93,0,0,1-.3-.73c0-.65.39-1,1.16-1.14l1-.15c0-.59-.24-.89-.72-.89a1.71,1.71,0,0,0-1.14.43v-.57a2.15,2.15,0,0,1,1.19-.33c.82,0,1.23.43,1.23,1.3ZM98.34,140l-.85.12a1.27,1.27,0,0,0-.58.19.53.53,0,0,0-.2.49.54.54,0,0,0,.18.42.71.71,0,0,0,.49.16.91.91,0,0,0,.69-.29,1.05,1.05,0,0,0,.27-.74Z"/><path class="cls-23" d="M99.74,141.65v-.6a1.66,1.66,0,0,0,1,.34c.49,0,.74-.16.74-.49a.43.43,0,0,0-.06-.24.69.69,0,0,0-.17-.17,1.59,1.59,0,0,0-.26-.14l-.31-.12-.41-.19a1.08,1.08,0,0,1-.29-.21.8.8,0,0,1-.18-.27,1,1,0,0,1-.06-.35.9.9,0,0,1,.11-.44,1.11,1.11,0,0,1,.3-.31,1.54,1.54,0,0,1,.43-.2,2.2,2.2,0,0,1,1.31.09v.57a1.54,1.54,0,0,0-.88-.25.88.88,0,0,0-.29,0,.55.55,0,0,0-.22.1.5.5,0,0,0-.14.15.46.46,0,0,0-.05.2.52.52,0,0,0,.05.23.57.57,0,0,0,.15.16.73.73,0,0,0,.23.13l.31.13.42.18a1.54,1.54,0,0,1,.31.22.66.66,0,0,1,.2.27,1,1,0,0,1,0,.81,1,1,0,0,1-.31.32,1.18,1.18,0,0,1-.44.19,2.18,2.18,0,0,1-.52.06A2,2,0,0,1,99.74,141.65Z"/><path class="cls-23" d="M105.83,141.78h-.56v-2c0-.73-.27-1.09-.81-1.09a.84.84,0,0,0-.69.32,1.16,1.16,0,0,0-.28.81v2h-.56V136.6h.56v2.26h0a1.27,1.27,0,0,1,1.15-.66c.79,0,1.18.47,1.18,1.42Z"/><path class="cls-23" d="M111.79,141.78h-.56v-.6h0a1.41,1.41,0,0,1-2.26.21,1.94,1.94,0,0,1-.39-1.28,2.1,2.1,0,0,1,.43-1.39,1.44,1.44,0,0,1,1.17-.52,1.13,1.13,0,0,1,1,.56h0V136.6h.56Zm-.56-1.58v-.52A1,1,0,0,0,111,139a1,1,0,0,0-.71-.29,1,1,0,0,0-.81.37,1.71,1.71,0,0,0-.29,1,1.46,1.46,0,0,0,.28,1,.94.94,0,0,0,.76.35,1,1,0,0,0,.76-.34A1.27,1.27,0,0,0,111.23,140.2Z"/><path class="cls-23" d="M115.74,140.17h-2.47a1.3,1.3,0,0,0,.31.9,1.1,1.1,0,0,0,.83.32,1.73,1.73,0,0,0,1.09-.39v.53a2.07,2.07,0,0,1-1.22.33,1.47,1.47,0,0,1-1.17-.48,1.94,1.94,0,0,1-.42-1.34,1.91,1.91,0,0,1,.46-1.33,1.49,1.49,0,0,1,1.15-.51,1.32,1.32,0,0,1,1.06.44,1.87,1.87,0,0,1,.38,1.24Zm-.57-.48a1.2,1.2,0,0,0-.24-.75.8.8,0,0,0-.64-.27.89.89,0,0,0-.67.28,1.25,1.25,0,0,0-.34.74Z"/><path class="cls-23" d="M121.25,140.28a1.67,1.67,0,0,1-.12.65,1.5,1.5,0,0,1-.35.5,1.59,1.59,0,0,1-.55.32,2.05,2.05,0,0,1-.72.12,1.93,1.93,0,0,1-1-.21v-.6a1.82,1.82,0,0,0,1,.33,1.42,1.42,0,0,0,.48-.08,1.28,1.28,0,0,0,.36-.22.89.89,0,0,0,.23-.34,1,1,0,0,0,.09-.43.92.92,0,0,0-.33-.75,1.34,1.34,0,0,0-.93-.28h-.64l-.19,0,.17-2.46H121v.5h-1.78l-.1,1.44h.46a2.13,2.13,0,0,1,.69.1,1.38,1.38,0,0,1,.52.29,1.22,1.22,0,0,1,.33.47A1.66,1.66,0,0,1,121.25,140.28Z"/><path class="cls-23" d="M124.07,140.05H122.2v-.44h1.87Z"/><path class="cls-23" d="M126.7,141.75a1.12,1.12,0,0,1-.52.1c-.61,0-.92-.34-.92-1v-2.07h-.6v-.48h.6v-.86l.56-.18v1h.88v.48h-.88v2a.82.82,0,0,0,.12.5.48.48,0,0,0,.4.15.61.61,0,0,0,.36-.11Z"/><path class="cls-23" d="M130.28,141.78h-.56v-.55h0a1.17,1.17,0,0,1-1.08.63c-.84,0-1.26-.5-1.26-1.49v-2.09h.56v2c0,.74.28,1.11.85,1.11a.85.85,0,0,0,.67-.3,1.15,1.15,0,0,0,.27-.79v-2h.56Z"/><path class="cls-23" d="M132,141.27h0v2.12h-.56v-5.11H132v.61h0a1.31,1.31,0,0,1,1.21-.69,1.25,1.25,0,0,1,1.05.47,2,2,0,0,1,.38,1.26,2.13,2.13,0,0,1-.43,1.4,1.39,1.39,0,0,1-1.17.53A1.14,1.14,0,0,1,132,141.27Zm0-1.41v.49a1.08,1.08,0,0,0,.28.74,1,1,0,0,0,.72.3.94.94,0,0,0,.8-.39,1.8,1.8,0,0,0,.29-1.08,1.42,1.42,0,0,0-.27-.92.9.9,0,0,0-.73-.33,1,1,0,0,0-.79.34A1.24,1.24,0,0,0,132,139.86Z"/><path class="cls-23" d="M136.09,141.78h-.56V136.6h.56Z"/><path class="cls-23" d="M139.73,141.78h-.56v-.55h0a1.16,1.16,0,0,1-1.07.63,1.12,1.12,0,0,1-.82-.28.93.93,0,0,1-.3-.73c0-.65.39-1,1.16-1.14l1-.15c0-.59-.24-.89-.72-.89a1.71,1.71,0,0,0-1.15.43v-.57a2.17,2.17,0,0,1,1.19-.33c.83,0,1.24.43,1.24,1.3Zm-.56-1.77-.85.12a1.36,1.36,0,0,0-.59.19.65.65,0,0,0,0,.91.69.69,0,0,0,.49.16.91.91,0,0,0,.68-.29,1,1,0,0,0,.28-.74Z"/><path class="cls-23" d="M103.72,155h-.57v-4.9h.57Z"/><path class="cls-23" d="M105.59,153.13V155H105v-4.9h1.35a1.82,1.82,0,0,1,1.22.38,1.36,1.36,0,0,1,.43,1.08,1.48,1.48,0,0,1-.48,1.14,1.82,1.82,0,0,1-1.3.45Zm0-2.53v2h.6a1.28,1.28,0,0,0,.9-.28,1,1,0,0,0,.32-.76c0-.65-.39-1-1.15-1Z"/><path class="cls-23" d="M113.76,155h-.56v-.6h0a1.41,1.41,0,0,1-2.26.21,1.94,1.94,0,0,1-.39-1.28,2.1,2.1,0,0,1,.43-1.39,1.44,1.44,0,0,1,1.17-.52,1.13,1.13,0,0,1,1,.56h0V149.8h.56Zm-.56-1.58v-.52a1,1,0,0,0-.28-.72,1,1,0,0,0-.71-.29,1,1,0,0,0-.81.37,1.71,1.71,0,0,0-.29,1,1.48,1.48,0,0,0,.28,1,.94.94,0,0,0,.76.35,1,1,0,0,0,.76-.34A1.27,1.27,0,0,0,113.2,153.4Z"/><path class="cls-23" d="M117.71,153.37h-2.47a1.3,1.3,0,0,0,.31.9,1.1,1.1,0,0,0,.83.32,1.73,1.73,0,0,0,1.09-.39v.53a2.07,2.07,0,0,1-1.22.33,1.47,1.47,0,0,1-1.17-.48,1.94,1.94,0,0,1-.42-1.34,1.91,1.91,0,0,1,.46-1.33,1.49,1.49,0,0,1,1.15-.51,1.29,1.29,0,0,1,1.06.44,1.86,1.86,0,0,1,.38,1.23Zm-.57-.48a1.2,1.2,0,0,0-.24-.75.8.8,0,0,0-.64-.27.89.89,0,0,0-.67.28,1.25,1.25,0,0,0-.34.74Z"/><path class="cls-23" d="M121.94,155.06a1.61,1.61,0,0,1-1.24-.49,1.81,1.81,0,0,1-.46-1.3,1.9,1.9,0,0,1,.48-1.38,1.72,1.72,0,0,1,1.3-.49,1.57,1.57,0,0,1,1.22.48,2.2,2.2,0,0,1,0,2.68A1.69,1.69,0,0,1,121.94,155.06Zm0-3.19a1.06,1.06,0,0,0-.86.37,1.49,1.49,0,0,0-.31,1,1.44,1.44,0,0,0,.32,1,1.07,1.07,0,0,0,.85.36,1,1,0,0,0,.83-.35,1.51,1.51,0,0,0,.3-1,1.55,1.55,0,0,0-.3-1A1,1,0,0,0,122,151.87Z"/><path class="cls-23" d="M126.4,152.05a.66.66,0,0,0-.42-.12.73.73,0,0,0-.6.34,1.57,1.57,0,0,0-.24.92V155h-.56v-3.5h.56v.72h0a1.19,1.19,0,0,1,.37-.58.85.85,0,0,1,.55-.2,1,1,0,0,1,.33,0Z"/><path class="cls-23" d="M127.3,150.59a.35.35,0,0,1-.26-.1.36.36,0,0,1-.11-.26A.35.35,0,0,1,127,150a.36.36,0,0,1,.52,0,.35.35,0,0,1,.11.26.34.34,0,0,1-.11.25A.36.36,0,0,1,127.3,150.59Zm.27,4.39H127v-3.5h.56Z"/><path class="cls-23" d="M131.69,154.7c0,1.28-.61,1.93-1.84,1.93a2.55,2.55,0,0,1-1.14-.25v-.56a2.34,2.34,0,0,0,1.13.33q1.29,0,1.29-1.38v-.38h0a1.42,1.42,0,0,1-2.26.2,1.87,1.87,0,0,1-.39-1.25,2.22,2.22,0,0,1,.42-1.42,1.44,1.44,0,0,1,1.18-.52,1.16,1.16,0,0,1,1.05.56h0v-.48h.56Zm-.56-1.3v-.52a1,1,0,0,0-.28-.71.92.92,0,0,0-.7-.3,1,1,0,0,0-.82.38,1.7,1.7,0,0,0-.29,1.05,1.46,1.46,0,0,0,.28.94.93.93,0,0,0,.75.35,1,1,0,0,0,.77-.34A1.27,1.27,0,0,0,131.13,153.4Z"/><path class="cls-23" d="M135.64,153.37h-2.47a1.3,1.3,0,0,0,.31.9,1.1,1.1,0,0,0,.83.32,1.73,1.73,0,0,0,1.09-.39v.53a2.07,2.07,0,0,1-1.22.33,1.47,1.47,0,0,1-1.17-.48,1.94,1.94,0,0,1-.42-1.34,1.91,1.91,0,0,1,.46-1.33,1.49,1.49,0,0,1,1.15-.51,1.29,1.29,0,0,1,1.06.44,1.86,1.86,0,0,1,.38,1.23Zm-.57-.48a1.14,1.14,0,0,0-.24-.75.8.8,0,0,0-.64-.27.89.89,0,0,0-.67.28,1.25,1.25,0,0,0-.34.74Z"/><path class="cls-23" d="M139.39,155h-.56v-2q0-1.11-.81-1.11a.9.9,0,0,0-.7.31,1.21,1.21,0,0,0-.27.8v2h-.56v-3.5h.56v.58h0a1.27,1.27,0,0,1,1.15-.66,1.07,1.07,0,0,1,.88.37,1.64,1.64,0,0,1,.3,1.07Z"/><path class="cls-23" d="M103.72,166.33v1.85h-.57v-4.9h1.35a1.77,1.77,0,0,1,1.21.38,1.38,1.38,0,0,1,.44,1.08,1.47,1.47,0,0,1-.48,1.14,1.84,1.84,0,0,1-1.3.45Zm0-2.53v2h.6a1.35,1.35,0,0,0,.91-.27,1,1,0,0,0,.31-.77c0-.65-.38-1-1.14-1Z"/><path class="cls-23" d="M109.82,168.18h-.56v-.55h0a1.15,1.15,0,0,1-1.08.63c-.83,0-1.25-.5-1.25-1.49v-2.09h.56v2q0,1.11.84,1.11a.87.87,0,0,0,.68-.3,1.14,1.14,0,0,0,.26-.79v-2h.56Z"/><path class="cls-23" d="M113.77,166.57H111.3a1.3,1.3,0,0,0,.31.9,1.1,1.1,0,0,0,.83.32,1.73,1.73,0,0,0,1.09-.39v.53a2.07,2.07,0,0,1-1.22.33,1.5,1.5,0,0,1-1.17-.47,2,2,0,0,1-.42-1.35,1.92,1.92,0,0,1,.46-1.33,1.49,1.49,0,0,1,1.15-.51,1.32,1.32,0,0,1,1.06.44,1.87,1.87,0,0,1,.38,1.24Zm-.58-.48a1.14,1.14,0,0,0-.23-.75.8.8,0,0,0-.64-.27.89.89,0,0,0-.67.28,1.32,1.32,0,0,0-.35.74Z"/><path class="cls-23" d="M116.44,165.25a.66.66,0,0,0-.42-.12.73.73,0,0,0-.6.34,1.6,1.6,0,0,0-.24.93v1.78h-.56v-3.5h.56v.72h0a1.12,1.12,0,0,1,.37-.57.81.81,0,0,1,.55-.21.76.76,0,0,1,.33,0Z"/><path class="cls-23" d="M118.67,168.15a1.09,1.09,0,0,1-.52.1c-.61,0-.92-.34-.92-1v-2.07h-.6v-.48h.6v-.85l.56-.19v1h.88v.48h-.88v2a.8.8,0,0,0,.12.5.48.48,0,0,0,.4.15.61.61,0,0,0,.36-.11Z"/><path class="cls-23" d="M120.88,168.26a1.59,1.59,0,0,1-1.23-.49,1.82,1.82,0,0,1-.47-1.3,1.9,1.9,0,0,1,.48-1.38,1.76,1.76,0,0,1,1.31-.49,1.57,1.57,0,0,1,1.22.48,1.93,1.93,0,0,1,.44,1.34,1.88,1.88,0,0,1-.48,1.34A1.66,1.66,0,0,1,120.88,168.26Zm.05-3.19a1.06,1.06,0,0,0-.86.37,1.49,1.49,0,0,0-.31,1,1.42,1.42,0,0,0,.31,1,1.1,1.1,0,0,0,.86.36,1,1,0,0,0,.83-.35,1.51,1.51,0,0,0,.29-1,1.55,1.55,0,0,0-.29-1A1,1,0,0,0,120.93,165.07Z"/><path class="cls-23" d="M128.43,168.18h-.56v-.6h0a1.4,1.4,0,0,1-2.25.21,1.89,1.89,0,0,1-.4-1.28,2.1,2.1,0,0,1,.44-1.39,1.43,1.43,0,0,1,1.16-.52,1.1,1.1,0,0,1,1,.57h0V163h.56Zm-.56-1.58v-.52a1,1,0,0,0-.28-.72,1,1,0,0,0-.71-.29,1,1,0,0,0-.81.38,1.6,1.6,0,0,0-.29,1,1.46,1.46,0,0,0,.28,1,.93.93,0,0,0,.75.35,1,1,0,0,0,.77-.34A1.27,1.27,0,0,0,127.87,166.6Z"/><path class="cls-23" d="M132.38,166.57H129.9a1.31,1.31,0,0,0,.32.9,1.1,1.1,0,0,0,.83.32,1.71,1.71,0,0,0,1.08-.39v.53a2,2,0,0,1-1.22.33,1.49,1.49,0,0,1-1.16-.47,2.22,2.22,0,0,1,0-2.68,1.49,1.49,0,0,1,1.15-.51A1.32,1.32,0,0,1,132,165a1.87,1.87,0,0,1,.38,1.24Zm-.58-.48a1.14,1.14,0,0,0-.23-.75.81.81,0,0,0-.64-.27.91.91,0,0,0-.68.28,1.38,1.38,0,0,0-.34.74Z"/><path class="cls-23" d="M136.6,168.26a1.63,1.63,0,0,1-1.24-.49,1.86,1.86,0,0,1-.46-1.3,1.9,1.9,0,0,1,.48-1.38,1.76,1.76,0,0,1,1.31-.49,1.57,1.57,0,0,1,1.22.48,1.93,1.93,0,0,1,.44,1.34,1.88,1.88,0,0,1-.48,1.34A1.67,1.67,0,0,1,136.6,168.26Zm.05-3.19a1.06,1.06,0,0,0-.86.37,1.49,1.49,0,0,0-.31,1,1.42,1.42,0,0,0,.31,1,1.1,1.1,0,0,0,.86.36,1,1,0,0,0,.83-.35,1.51,1.51,0,0,0,.29-1,1.55,1.55,0,0,0-.29-1A1,1,0,0,0,136.65,165.07Z"/><path class="cls-23" d="M141.07,165.25a.67.67,0,0,0-.43-.12.73.73,0,0,0-.6.34,1.6,1.6,0,0,0-.24.93v1.78h-.56v-3.5h.56v.72h0a1.17,1.17,0,0,1,.36-.57.84.84,0,0,1,.55-.21.79.79,0,0,1,.34,0Z"/><path class="cls-23" d="M142,163.79a.33.33,0,0,1-.25-.1.36.36,0,0,1-.11-.26.35.35,0,0,1,.11-.26.34.34,0,0,1,.25-.11.39.39,0,0,1,.27.11.34.34,0,0,1,.1.26.37.37,0,0,1-.1.26A.38.38,0,0,1,142,163.79Zm.28,4.39h-.56v-3.5h.56Z"/><path class="cls-23" d="M146.36,167.9c0,1.28-.62,1.93-1.85,1.93a2.38,2.38,0,0,1-1.13-.25V169a2.31,2.31,0,0,0,1.13.33q1.29,0,1.29-1.38v-.38h0a1.41,1.41,0,0,1-2.25.2,1.87,1.87,0,0,1-.4-1.25,2.23,2.23,0,0,1,.43-1.42,1.44,1.44,0,0,1,1.18-.52,1.12,1.12,0,0,1,1,.57h0v-.49h.56Zm-.56-1.3v-.52a1,1,0,0,0-.28-.71.94.94,0,0,0-.71-.3,1,1,0,0,0-.81.38,1.64,1.64,0,0,0-.29,1.05,1.44,1.44,0,0,0,.28.94.93.93,0,0,0,.75.35,1,1,0,0,0,.76-.33A1.25,1.25,0,0,0,145.8,166.6Z"/><path class="cls-23" d="M150.31,166.57h-2.47a1.26,1.26,0,0,0,.31.9,1.1,1.1,0,0,0,.83.32,1.71,1.71,0,0,0,1.08-.39v.53a2,2,0,0,1-1.22.33,1.49,1.49,0,0,1-1.16-.47,2,2,0,0,1-.43-1.35,1.93,1.93,0,0,1,.47-1.33,1.49,1.49,0,0,1,1.15-.51,1.32,1.32,0,0,1,1.06.44,1.87,1.87,0,0,1,.38,1.24Zm-.58-.48a1.14,1.14,0,0,0-.23-.75.81.81,0,0,0-.64-.27.91.91,0,0,0-.68.28,1.38,1.38,0,0,0-.34.74Z"/><path class="cls-23" d="M154.06,168.18h-.56v-2q0-1.11-.81-1.11a.86.86,0,0,0-.7.32,1.17,1.17,0,0,0-.28.79v2h-.56v-3.5h.56v.58h0a1.26,1.26,0,0,1,1.15-.66,1.08,1.08,0,0,1,.88.37,1.66,1.66,0,0,1,.3,1.07Z"/><path class="cls-23" d="M103.72,181.38h-.57v-4.9h.57Z"/><path class="cls-23" d="M105.59,179.53v1.85H105v-4.9h1.35a1.77,1.77,0,0,1,1.22.39A1.35,1.35,0,0,1,108,178a1.5,1.5,0,0,1-.48,1.14,1.86,1.86,0,0,1-1.3.44Zm0-2.53v2h.6a1.33,1.33,0,0,0,.9-.27,1,1,0,0,0,.32-.77c0-.64-.39-1-1.15-1Z"/><path class="cls-23" d="M113.76,181.38h-.56v-.59h0a1.41,1.41,0,0,1-2.26.21,2,2,0,0,1-.39-1.28,2.08,2.08,0,0,1,.43-1.39,1.44,1.44,0,0,1,1.17-.53,1.12,1.12,0,0,1,1,.57h0V176.2h.56Zm-.56-1.58v-.51a1,1,0,0,0-.28-.72.93.93,0,0,0-.71-.3,1,1,0,0,0-.81.38,1.69,1.69,0,0,0-.29,1,1.45,1.45,0,0,0,.28.95.92.92,0,0,0,.76.36,1,1,0,0,0,.76-.34A1.3,1.3,0,0,0,113.2,179.8Z"/><path class="cls-23" d="M117.71,179.78h-2.47a1.34,1.34,0,0,0,.31.9,1.1,1.1,0,0,0,.83.32,1.73,1.73,0,0,0,1.09-.39v.52a2,2,0,0,1-1.22.34,1.47,1.47,0,0,1-1.17-.48,2,2,0,0,1-.42-1.34,1.89,1.89,0,0,1,.46-1.33,1.47,1.47,0,0,1,1.15-.52,1.3,1.3,0,0,1,1.06.45,1.85,1.85,0,0,1,.38,1.23Zm-.57-.48a1.23,1.23,0,0,0-.24-.76.8.8,0,0,0-.64-.27.9.9,0,0,0-.67.29,1.22,1.22,0,0,0-.34.74Z"/><path class="cls-23" d="M123.46,181.38h-.56v-.59h0a1.41,1.41,0,0,1-2.26.21,2,2,0,0,1-.39-1.28,2.08,2.08,0,0,1,.43-1.39,1.44,1.44,0,0,1,1.17-.53,1.12,1.12,0,0,1,1,.57h0V176.2h.56Zm-.56-1.58v-.51a1,1,0,0,0-.28-.72.93.93,0,0,0-.71-.3,1,1,0,0,0-.81.38,1.69,1.69,0,0,0-.29,1,1.45,1.45,0,0,0,.28.95.92.92,0,0,0,.76.36,1,1,0,0,0,.76-.34A1.3,1.3,0,0,0,122.9,179.8Z"/><path class="cls-23" d="M127.41,179.78h-2.47a1.34,1.34,0,0,0,.31.9,1.1,1.1,0,0,0,.83.32,1.73,1.73,0,0,0,1.09-.39v.52a2,2,0,0,1-1.22.34,1.47,1.47,0,0,1-1.17-.48,2,2,0,0,1-.42-1.34,1.89,1.89,0,0,1,.46-1.33,1.47,1.47,0,0,1,1.15-.52,1.3,1.3,0,0,1,1.06.45,1.85,1.85,0,0,1,.38,1.23Zm-.57-.48a1.23,1.23,0,0,0-.24-.76.8.8,0,0,0-.64-.27.9.9,0,0,0-.67.29,1.22,1.22,0,0,0-.34.74Z"/><path class="cls-23" d="M128.05,181.26v-.6a1.68,1.68,0,0,0,1,.34c.5,0,.74-.17.74-.5a.41.41,0,0,0-.06-.23.58.58,0,0,0-.17-.18,1.46,1.46,0,0,0-.25-.13l-.32-.13-.41-.18a1.69,1.69,0,0,1-.29-.22.68.68,0,0,1-.18-.26,1,1,0,0,1-.06-.36.77.77,0,0,1,.12-.43.91.91,0,0,1,.3-.32,1.3,1.3,0,0,1,.43-.19,1.61,1.61,0,0,1,.49-.07,2.1,2.1,0,0,1,.82.16v.57a1.6,1.6,0,0,0-.89-.26,1.27,1.27,0,0,0-.29,0,.68.68,0,0,0-.21.1.43.43,0,0,0-.14.16.33.33,0,0,0-.05.2.43.43,0,0,0,.05.23.52.52,0,0,0,.14.16,1.26,1.26,0,0,0,.23.13l.31.13.42.18a1.48,1.48,0,0,1,.32.21.8.8,0,0,1,.27.64.84.84,0,0,1-.12.45,1,1,0,0,1-.3.32,1.85,1.85,0,0,1-.45.19,2.18,2.18,0,0,1-.52.06A1.94,1.94,0,0,1,128.05,181.26Z"/><path class="cls-23" d="M132.85,181.35a1.11,1.11,0,0,1-.52.11c-.61,0-.92-.34-.92-1v-2.07h-.6v-.48h.6V177l.56-.18v1h.88v.48H132v2a.82.82,0,0,0,.12.5.48.48,0,0,0,.4.15.56.56,0,0,0,.36-.12Z"/><path class="cls-23" d="M133.89,177a.36.36,0,0,1-.26-.11.33.33,0,0,1-.11-.26.36.36,0,0,1,.11-.26.39.39,0,0,1,.52,0,.37.37,0,0,1-.26.63Zm.27,4.38h-.56v-3.5h.56Z"/><path class="cls-23" d="M138.2,181.38h-.56v-2c0-.74-.27-1.12-.81-1.12a.89.89,0,0,0-.7.32,1.19,1.19,0,0,0-.27.8v2h-.57v-3.5h.57v.59h0a1.25,1.25,0,0,1,1.15-.67,1.11,1.11,0,0,1,.88.37,1.69,1.69,0,0,1,.3,1.08Z"/><path class="cls-23" d="M140.72,181.47a1.65,1.65,0,0,1-1.24-.49,1.81,1.81,0,0,1-.46-1.3,1.9,1.9,0,0,1,.48-1.38,1.72,1.72,0,0,1,1.3-.5,1.54,1.54,0,0,1,1.22.49,1.86,1.86,0,0,1,.44,1.33A1.89,1.89,0,0,1,142,181,1.66,1.66,0,0,1,140.72,181.47Zm0-3.2a1.07,1.07,0,0,0-.85.37,1.52,1.52,0,0,0-.32,1,1.44,1.44,0,0,0,.32,1,1.07,1.07,0,0,0,.85.36,1,1,0,0,0,.84-.36,1.55,1.55,0,0,0,.29-1,1.58,1.58,0,0,0-.29-1A1,1,0,0,0,140.76,178.27Z"/><path class="cls-23" d="M103.72,192.73v1.85h-.57v-4.9h1.35a1.77,1.77,0,0,1,1.21.38,1.38,1.38,0,0,1,.44,1.08,1.47,1.47,0,0,1-.48,1.14,1.84,1.84,0,0,1-1.3.45Zm0-2.53v2h.6a1.35,1.35,0,0,0,.91-.27,1,1,0,0,0,.31-.77c0-.65-.38-1-1.14-1Z"/><path class="cls-23" d="M109.82,194.58h-.56V194h0a1.15,1.15,0,0,1-1.08.63c-.83,0-1.25-.5-1.25-1.49v-2.09h.56v2q0,1.11.84,1.11a.87.87,0,0,0,.68-.3,1.14,1.14,0,0,0,.26-.79v-2h.56Z"/><path class="cls-23" d="M113.77,193H111.3a1.3,1.3,0,0,0,.31.9,1.1,1.1,0,0,0,.83.32,1.73,1.73,0,0,0,1.09-.39v.53a2.07,2.07,0,0,1-1.22.33,1.47,1.47,0,0,1-1.17-.48,1.94,1.94,0,0,1-.42-1.34,1.91,1.91,0,0,1,.46-1.33,1.49,1.49,0,0,1,1.15-.51,1.32,1.32,0,0,1,1.06.44,1.86,1.86,0,0,1,.38,1.23Zm-.58-.48a1.14,1.14,0,0,0-.23-.75.8.8,0,0,0-.64-.27.89.89,0,0,0-.67.28,1.32,1.32,0,0,0-.35.74Z"/><path class="cls-23" d="M116.44,191.65a.66.66,0,0,0-.42-.12.73.73,0,0,0-.6.34,1.59,1.59,0,0,0-.24.92v1.79h-.56v-3.5h.56v.72h0a1.19,1.19,0,0,1,.37-.58.85.85,0,0,1,.55-.2.76.76,0,0,1,.33,0Z"/><path class="cls-23" d="M118.67,194.54a1,1,0,0,1-.52.11c-.61,0-.92-.34-.92-1v-2.07h-.6v-.48h.6v-.86l.56-.18v1h.88v.48h-.88v2a.82.82,0,0,0,.12.5.48.48,0,0,0,.4.15.61.61,0,0,0,.36-.11Z"/><path class="cls-23" d="M120.88,194.66a1.59,1.59,0,0,1-1.23-.49,1.82,1.82,0,0,1-.47-1.3,1.9,1.9,0,0,1,.48-1.38A1.76,1.76,0,0,1,121,191a1.57,1.57,0,0,1,1.22.48,1.93,1.93,0,0,1,.44,1.34,1.88,1.88,0,0,1-.48,1.34A1.66,1.66,0,0,1,120.88,194.66Zm.05-3.19a1.06,1.06,0,0,0-.86.37,1.49,1.49,0,0,0-.31,1,1.44,1.44,0,0,0,.31,1,1.1,1.1,0,0,0,.86.36,1,1,0,0,0,.83-.35,1.51,1.51,0,0,0,.29-1,1.55,1.55,0,0,0-.29-1A1,1,0,0,0,120.93,191.47Z"/><path class="cls-23" d="M128.43,194.58h-.56V194h0a1.28,1.28,0,0,1-1.2.68,1.3,1.3,0,0,1-1.05-.47,1.89,1.89,0,0,1-.4-1.28,2.1,2.1,0,0,1,.44-1.39,1.43,1.43,0,0,1,1.16-.52,1.11,1.11,0,0,1,1,.56h0V189.4h.56Zm-.56-1.58v-.52a1,1,0,0,0-.28-.72,1,1,0,0,0-1.52.08,1.65,1.65,0,0,0-.29,1,1.46,1.46,0,0,0,.28,1,.93.93,0,0,0,.75.35,1,1,0,0,0,.77-.34A1.27,1.27,0,0,0,127.87,193Z"/><path class="cls-23" d="M132.38,193H129.9a1.31,1.31,0,0,0,.32.9,1.1,1.1,0,0,0,.83.32,1.71,1.71,0,0,0,1.08-.39v.53a2,2,0,0,1-1.22.33,1.47,1.47,0,0,1-1.16-.48,2.21,2.21,0,0,1,0-2.67,1.49,1.49,0,0,1,1.15-.51,1.32,1.32,0,0,1,1.06.44,1.86,1.86,0,0,1,.38,1.23Zm-.58-.48a1.14,1.14,0,0,0-.23-.75.81.81,0,0,0-.64-.27.91.91,0,0,0-.68.28,1.38,1.38,0,0,0-.34.74Z"/><path class="cls-23" d="M138.13,194.58h-.56V194h0a1.28,1.28,0,0,1-1.2.68,1.3,1.3,0,0,1-1-.47,1.89,1.89,0,0,1-.4-1.28,2.1,2.1,0,0,1,.44-1.39,1.43,1.43,0,0,1,1.16-.52,1.11,1.11,0,0,1,1.05.56h0V189.4h.56Zm-.56-1.58v-.52a1,1,0,0,0-.28-.72,1,1,0,0,0-1.52.08,1.65,1.65,0,0,0-.29,1,1.46,1.46,0,0,0,.28,1,.94.94,0,0,0,.76.35,1,1,0,0,0,.76-.34A1.27,1.27,0,0,0,137.57,193Z"/><path class="cls-23" d="M142.08,193H139.6a1.31,1.31,0,0,0,.32.9,1.1,1.1,0,0,0,.83.32,1.71,1.71,0,0,0,1.08-.39v.53a2,2,0,0,1-1.22.33,1.47,1.47,0,0,1-1.16-.48,1.94,1.94,0,0,1-.43-1.34,1.91,1.91,0,0,1,.47-1.33,1.49,1.49,0,0,1,1.15-.51,1.32,1.32,0,0,1,1.06.44,1.86,1.86,0,0,1,.38,1.23Zm-.58-.48a1.14,1.14,0,0,0-.23-.75.81.81,0,0,0-.64-.27.91.91,0,0,0-.68.28,1.38,1.38,0,0,0-.34.74Z"/><path class="cls-23" d="M142.71,194.45v-.6a1.64,1.64,0,0,0,1,.34c.49,0,.74-.16.74-.49a.43.43,0,0,0-.06-.24.59.59,0,0,0-.18-.17,1.17,1.17,0,0,0-.25-.14l-.31-.12a4,4,0,0,1-.41-.19,1.08,1.08,0,0,1-.29-.21.8.8,0,0,1-.18-.27,1,1,0,0,1-.06-.35.9.9,0,0,1,.11-.44,1.3,1.3,0,0,1,.3-.32,1.87,1.87,0,0,1,.43-.19,2.2,2.2,0,0,1,1.31.09v.57a1.57,1.57,0,0,0-.89-.25,1.2,1.2,0,0,0-.28,0,.76.76,0,0,0-.22.11.5.5,0,0,0-.14.15.46.46,0,0,0-.05.2.52.52,0,0,0,.05.23.46.46,0,0,0,.15.16.73.73,0,0,0,.23.13l.31.13.42.18a2.08,2.08,0,0,1,.31.21.69.69,0,0,1,.2.28.8.8,0,0,1,.07.36.88.88,0,0,1-.11.45,1,1,0,0,1-.31.32,1.25,1.25,0,0,1-.44.19,2.24,2.24,0,0,1-.52.06A2,2,0,0,1,142.71,194.45Z"/><path class="cls-23" d="M147.52,194.54a1,1,0,0,1-.53.11c-.61,0-.91-.34-.91-1v-2.07h-.61v-.48h.61v-.86l.56-.18v1h.88v.48h-.88v2a.82.82,0,0,0,.12.5.46.46,0,0,0,.39.15.65.65,0,0,0,.37-.11Z"/><path class="cls-23" d="M148.55,190.19a.33.33,0,0,1-.25-.1.36.36,0,0,1-.11-.26.35.35,0,0,1,.11-.26.34.34,0,0,1,.25-.11.35.35,0,0,1,.26.11.31.31,0,0,1,.11.26.31.31,0,0,1-.11.25A.31.31,0,0,1,148.55,190.19Zm.28,4.39h-.56v-3.5h.56Z"/><path class="cls-23" d="M152.87,194.58h-.56v-2c0-.74-.27-1.11-.82-1.11a.84.84,0,0,0-.69.32,1.12,1.12,0,0,0-.28.79v2H150v-3.5h.56v.58h0a1.25,1.25,0,0,1,1.14-.66,1.05,1.05,0,0,1,.88.37,1.61,1.61,0,0,1,.31,1.07Z"/><path class="cls-23" d="M155.39,194.66a1.61,1.61,0,0,1-1.24-.49,1.82,1.82,0,0,1-.47-1.3,1.86,1.86,0,0,1,.49-1.38,1.72,1.72,0,0,1,1.3-.49,1.57,1.57,0,0,1,1.22.48,2.2,2.2,0,0,1,0,2.68A1.69,1.69,0,0,1,155.39,194.66Zm0-3.19a1.06,1.06,0,0,0-.86.37,1.49,1.49,0,0,0-.31,1,1.4,1.4,0,0,0,.32,1,1.07,1.07,0,0,0,.85.36,1,1,0,0,0,.83-.35,1.51,1.51,0,0,0,.29-1,1.55,1.55,0,0,0-.29-1A1,1,0,0,0,155.43,191.47Z"/><path class="cls-23" d="M103.72,205.93v1.85h-.57v-4.9h1.35a1.77,1.77,0,0,1,1.21.38,1.38,1.38,0,0,1,.44,1.08,1.47,1.47,0,0,1-.48,1.14,1.84,1.84,0,0,1-1.3.45Zm0-2.53v2h.6a1.35,1.35,0,0,0,.91-.27,1,1,0,0,0,.31-.77c0-.65-.38-1-1.14-1Z"/><path class="cls-23" d="M108.82,204.85a.66.66,0,0,0-.42-.12.73.73,0,0,0-.6.34,1.53,1.53,0,0,0-.25.93v1.78H107v-3.5h.56V205h0a1.25,1.25,0,0,1,.36-.58.89.89,0,0,1,.55-.2.79.79,0,0,1,.34.05Z"/><path class="cls-23" d="M110.89,207.86a1.61,1.61,0,0,1-1.24-.49,1.81,1.81,0,0,1-.46-1.3,1.9,1.9,0,0,1,.48-1.38,1.73,1.73,0,0,1,1.3-.49,1.57,1.57,0,0,1,1.22.48,2.2,2.2,0,0,1,0,2.68A1.69,1.69,0,0,1,110.89,207.86Zm0-3.19a1,1,0,0,0-.85.37,1.49,1.49,0,0,0-.32,1,1.44,1.44,0,0,0,.32,1,1.08,1.08,0,0,0,.85.36,1.06,1.06,0,0,0,.84-.35,1.57,1.57,0,0,0,.29-1,1.61,1.61,0,0,0-.29-1A1.06,1.06,0,0,0,110.93,204.67Z"/><path class="cls-23" d="M115.15,207.75a1.09,1.09,0,0,1-.52.1c-.61,0-.92-.34-.92-1v-2.07h-.6v-.48h.6v-.86l.56-.18v1h.88v.48h-.88v2a.82.82,0,0,0,.12.5.48.48,0,0,0,.4.15.61.61,0,0,0,.36-.11Z"/><path class="cls-23" d="M117.36,207.86a1.59,1.59,0,0,1-1.23-.49,1.82,1.82,0,0,1-.47-1.3,1.9,1.9,0,0,1,.48-1.38,1.76,1.76,0,0,1,1.31-.49,1.57,1.57,0,0,1,1.22.48,1.93,1.93,0,0,1,.44,1.34,1.88,1.88,0,0,1-.48,1.34A1.66,1.66,0,0,1,117.36,207.86Zm0-3.19a1.06,1.06,0,0,0-.86.37,1.49,1.49,0,0,0-.31,1,1.44,1.44,0,0,0,.31,1,1.1,1.1,0,0,0,.86.36,1,1,0,0,0,.83-.35,1.51,1.51,0,0,0,.29-1,1.55,1.55,0,0,0-.29-1A1,1,0,0,0,117.41,204.67Z"/><path class="cls-23" d="M122.39,207.62a1.85,1.85,0,0,1-1,.24,1.58,1.58,0,0,1-1.21-.49,1.77,1.77,0,0,1-.46-1.26,2,2,0,0,1,.5-1.39,1.73,1.73,0,0,1,1.32-.52,1.8,1.8,0,0,1,.82.17v.57a1.45,1.45,0,0,0-.84-.27,1.14,1.14,0,0,0-.88.38,1.47,1.47,0,0,0-.34,1,1.4,1.4,0,0,0,.32,1,1.12,1.12,0,0,0,.87.36,1.43,1.43,0,0,0,.86-.3Z"/><path class="cls-23" d="M124.7,207.86a1.61,1.61,0,0,1-1.24-.49,1.81,1.81,0,0,1-.46-1.3,1.9,1.9,0,0,1,.48-1.38,1.72,1.72,0,0,1,1.3-.49,1.57,1.57,0,0,1,1.22.48,1.88,1.88,0,0,1,.44,1.34,1.92,1.92,0,0,1-.47,1.34A1.69,1.69,0,0,1,124.7,207.86Zm0-3.19a1,1,0,0,0-.85.37,1.49,1.49,0,0,0-.32,1,1.44,1.44,0,0,0,.32,1,1.18,1.18,0,0,0,1.69,0,1.57,1.57,0,0,0,.29-1,1.61,1.61,0,0,0-.29-1A1.06,1.06,0,0,0,124.74,204.67Z"/><path class="cls-23" d="M127.9,207.78h-.56V202.6h.56Z"/><path class="cls-23" d="M130.5,207.86a1.61,1.61,0,0,1-1.24-.49,1.82,1.82,0,0,1-.47-1.3,1.86,1.86,0,0,1,.49-1.38,1.72,1.72,0,0,1,1.3-.49,1.57,1.57,0,0,1,1.22.48,2.2,2.2,0,0,1,0,2.68A1.69,1.69,0,0,1,130.5,207.86Zm0-3.19a1.06,1.06,0,0,0-.86.37,1.49,1.49,0,0,0-.31,1,1.4,1.4,0,0,0,.32,1,1.07,1.07,0,0,0,.85.36,1,1,0,0,0,.83-.35,1.51,1.51,0,0,0,.3-1,1.55,1.55,0,0,0-.3-1A1,1,0,0,0,130.54,204.67Z"/><path class="cls-23" d="M236.13,38.4V33.49h1.35c1.73,0,2.59.8,2.59,2.39a2.42,2.42,0,0,1-.72,1.83,2.66,2.66,0,0,1-1.92.69ZM236.7,34v3.87h.73a2.07,2.07,0,0,0,1.5-.52,1.92,1.92,0,0,0,.54-1.46c0-1.26-.67-1.89-2-1.89Z"/><path class="cls-23" d="M241.11,34a.36.36,0,0,1-.26-.11.33.33,0,0,1-.1-.26.37.37,0,0,1,.62-.26.36.36,0,0,1,.11.26.35.35,0,0,1-.11.26A.36.36,0,0,1,241.11,34Zm.27,4.39h-.56V34.9h.56Z"/><path class="cls-23" d="M244.2,35.46a.72.72,0,0,0-.42-.11.71.71,0,0,0-.6.34,1.55,1.55,0,0,0-.24.92V38.4h-.56V34.9h.56v.72h0a1.19,1.19,0,0,1,.37-.58.82.82,0,0,1,.55-.21.91.91,0,0,1,.33.05Z"/><path class="cls-23" d="M247.48,36.79H245a1.33,1.33,0,0,0,.32.9,1.08,1.08,0,0,0,.82.32,1.71,1.71,0,0,0,1.09-.39v.52a2,2,0,0,1-1.22.34,1.47,1.47,0,0,1-1.16-.48,1.91,1.91,0,0,1-.43-1.34,1.94,1.94,0,0,1,.46-1.33,1.51,1.51,0,0,1,1.15-.52,1.32,1.32,0,0,1,1.07.45,1.84,1.84,0,0,1,.37,1.23Zm-.57-.48a1.14,1.14,0,0,0-.23-.75.82.82,0,0,0-.65-.27.91.91,0,0,0-.67.28,1.28,1.28,0,0,0-.34.74Z"/><path class="cls-23" d="M250.58,38.24a1.85,1.85,0,0,1-1,.24,1.58,1.58,0,0,1-1.21-.49,1.77,1.77,0,0,1-.46-1.26,1.94,1.94,0,0,1,.5-1.39,1.73,1.73,0,0,1,1.32-.53,1.86,1.86,0,0,1,.81.17v.58a1.42,1.42,0,0,0-.83-.27,1.11,1.11,0,0,0-.88.38,1.45,1.45,0,0,0-.34,1,1.37,1.37,0,0,0,.32,1,1.1,1.1,0,0,0,.87.36,1.44,1.44,0,0,0,.86-.31Z"/><path class="cls-23" d="M253.67,38.24a1.85,1.85,0,0,1-1,.24A1.58,1.58,0,0,1,251.5,38a1.77,1.77,0,0,1-.46-1.26,1.94,1.94,0,0,1,.5-1.39,1.73,1.73,0,0,1,1.32-.53,1.94,1.94,0,0,1,.82.17v.58a1.45,1.45,0,0,0-.84-.27,1.12,1.12,0,0,0-.88.38,1.45,1.45,0,0,0-.34,1,1.42,1.42,0,0,0,.32,1,1.12,1.12,0,0,0,.87.36,1.44,1.44,0,0,0,.86-.31Z"/><path class="cls-23" d="M254.67,34a.36.36,0,0,1-.26-.11.33.33,0,0,1-.11-.26.36.36,0,0,1,.11-.26.35.35,0,0,1,.26-.1.37.37,0,0,1,.26.1.35.35,0,0,1,.1.26.34.34,0,0,1-.1.26A.38.38,0,0,1,254.67,34Zm.27,4.39h-.56V34.9h.56Z"/><path class="cls-23" d="M257.4,38.48a1.65,1.65,0,0,1-1.24-.49,1.82,1.82,0,0,1-.47-1.3,1.86,1.86,0,0,1,.49-1.38,1.72,1.72,0,0,1,1.3-.5,1.54,1.54,0,0,1,1.22.49,2.19,2.19,0,0,1,0,2.67A1.66,1.66,0,0,1,257.4,38.48Zm0-3.19a1.09,1.09,0,0,0-.86.36,1.53,1.53,0,0,0-.31,1,1.4,1.4,0,0,0,.32,1,1.07,1.07,0,0,0,.85.36,1,1,0,0,0,.83-.36,1.49,1.49,0,0,0,.3-1,1.52,1.52,0,0,0-.3-1A1,1,0,0,0,257.44,35.29Zm.82-2.18-.9,1.12h-.43l.76-1.12Z"/><path class="cls-23" d="M262.8,38.4h-.56v-2q0-1.11-.81-1.11a.88.88,0,0,0-.7.31,1.19,1.19,0,0,0-.27.8v2h-.57V34.9h.57v.58h0a1.25,1.25,0,0,1,1.15-.67,1.11,1.11,0,0,1,.88.37,1.69,1.69,0,0,1,.3,1.08Z"/><path class="cls-23" d="M266.14,38.4h-.57V33.49h.57Z"/><path class="cls-23" d="M267.87,36.54V38.4h-.58V33.49h1.35a1.77,1.77,0,0,1,1.22.39,1.35,1.35,0,0,1,.43,1.08,1.5,1.5,0,0,1-.48,1.14,1.86,1.86,0,0,1-1.3.44Zm0-2.53v2h.6a1.37,1.37,0,0,0,.91-.27,1,1,0,0,0,.31-.77c0-.64-.39-1-1.15-1Z"/><path class="cls-23" d="M273.35,37.89h0V40h-.56V34.9h.56v.61h0a1.34,1.34,0,0,1,1.21-.7,1.31,1.31,0,0,1,1.06.47,2,2,0,0,1,.37,1.26,2.19,2.19,0,0,1-.42,1.41,1.44,1.44,0,0,1-1.17.53A1.16,1.16,0,0,1,273.35,37.89Zm0-1.41V37a1,1,0,0,0,.29.73.89.89,0,0,0,.71.31.94.94,0,0,0,.8-.39,1.81,1.81,0,0,0,.29-1.09,1.39,1.39,0,0,0-.27-.91.89.89,0,0,0-.73-.33,1,1,0,0,0-.79.34A1.23,1.23,0,0,0,273.33,36.48Z"/><path class="cls-23" d="M278.58,35.46a.74.74,0,0,0-.43-.11.71.71,0,0,0-.6.34,1.55,1.55,0,0,0-.24.92V38.4h-.56V34.9h.56v.72h0a1.27,1.27,0,0,1,.37-.58.82.82,0,0,1,.55-.21,1,1,0,0,1,.34.05Z"/><path class="cls-23" d="M279.33,34a.36.36,0,0,1-.26-.11.33.33,0,0,1-.1-.26.37.37,0,0,1,.62-.26.36.36,0,0,1,.11.26.35.35,0,0,1-.11.26A.36.36,0,0,1,279.33,34Zm.27,4.39H279V34.9h.56Z"/><path class="cls-23" d="M283.35,34.9,282,38.4h-.55l-1.33-3.5h.61l.89,2.54a2.4,2.4,0,0,1,.13.49h0a2.12,2.12,0,0,1,.11-.48l.93-2.55Z"/><path class="cls-23" d="M286.32,38.4h-.56v-.55h0a1.16,1.16,0,0,1-1.07.63,1.12,1.12,0,0,1-.82-.28.94.94,0,0,1-.3-.73c0-.66.39-1,1.16-1.15l1.05-.14c0-.6-.24-.89-.72-.89a1.71,1.71,0,0,0-1.15.43v-.58a2.17,2.17,0,0,1,1.19-.33c.83,0,1.24.44,1.24,1.31Zm-.56-1.77-.85.11a1.51,1.51,0,0,0-.59.19.57.57,0,0,0-.19.49.52.52,0,0,0,.18.42.69.69,0,0,0,.49.17.88.88,0,0,0,.68-.3,1,1,0,0,0,.28-.74Z"/><path class="cls-23" d="M290.22,38.4h-.56v-.6h0a1.41,1.41,0,0,1-2.26.21,2,2,0,0,1-.4-1.28,2.09,2.09,0,0,1,.44-1.39,1.44,1.44,0,0,1,1.17-.53,1.12,1.12,0,0,1,1,.57h0V33.21h.56Zm-.56-1.59V36.3a1,1,0,0,0-.28-.72.92.92,0,0,0-.71-.29,1,1,0,0,0-.81.37,1.69,1.69,0,0,0-.29,1,1.5,1.5,0,0,0,.28,1,.94.94,0,0,0,.76.35,1,1,0,0,0,.76-.34A1.3,1.3,0,0,0,289.66,36.81Z"/><path class="cls-23" d="M293.72,38.4h-.56v-.55h0a1.19,1.19,0,0,1-1.08.63,1.13,1.13,0,0,1-.82-.28.94.94,0,0,1-.29-.73c0-.66.38-1,1.15-1.15l1.05-.14c0-.6-.24-.89-.72-.89a1.71,1.71,0,0,0-1.14.43v-.58a2.15,2.15,0,0,1,1.19-.33c.82,0,1.23.44,1.23,1.31Zm-.56-1.77-.84.11a1.46,1.46,0,0,0-.59.19.58.58,0,0,0-.2.49.52.52,0,0,0,.18.42.71.71,0,0,0,.49.17.89.89,0,0,0,.69-.3,1,1,0,0,0,.27-.74Z"/><path class="cls-23" d="M295.15,37.62l-.55,1.68h-.4l.4-1.68Z"/><path class="cls-23" d="M298.37,37.89h0V40h-.56V34.9h.56v.61h0a1.32,1.32,0,0,1,1.21-.7,1.28,1.28,0,0,1,1.05.47,2,2,0,0,1,.38,1.26,2.14,2.14,0,0,1-.43,1.41,1.41,1.41,0,0,1-1.16.53A1.16,1.16,0,0,1,298.37,37.89Zm0-1.41V37a1.05,1.05,0,0,0,.28.73.92.92,0,0,0,.72.31.94.94,0,0,0,.8-.39,1.81,1.81,0,0,0,.29-1.09,1.39,1.39,0,0,0-.27-.91.9.9,0,0,0-.73-.33,1,1,0,0,0-.79.34A1.23,1.23,0,0,0,298.35,36.48Z"/><path class="cls-23" d="M304.6,38.4H304v-.56h0a1.14,1.14,0,0,1-1.08.64c-.83,0-1.25-.5-1.25-1.49V34.9h.56v2c0,.74.28,1.11.85,1.11a.84.84,0,0,0,.67-.31,1.13,1.13,0,0,0,.27-.79v-2h.56Z"/><path class="cls-23" d="M308.4,36.79h-2.47a1.28,1.28,0,0,0,.32.9,1.08,1.08,0,0,0,.82.32,1.71,1.71,0,0,0,1.09-.39v.52a2,2,0,0,1-1.22.34,1.49,1.49,0,0,1-1.17-.48,2,2,0,0,1-.42-1.34,1.89,1.89,0,0,1,.46-1.33,1.5,1.5,0,0,1,1.15-.52,1.32,1.32,0,0,1,1.07.45,1.84,1.84,0,0,1,.37,1.23Zm-.57-.48a1.09,1.09,0,0,0-.24-.75.78.78,0,0,0-.64-.27.89.89,0,0,0-.67.28,1.22,1.22,0,0,0-.34.74Z"/><path class="cls-23" d="M310.93,35.46a.68.68,0,0,0-.42-.11.71.71,0,0,0-.6.34,1.55,1.55,0,0,0-.24.92V38.4h-.56V34.9h.56v.72h0a1.19,1.19,0,0,1,.37-.58.82.82,0,0,1,.55-.21.87.87,0,0,1,.33.05Z"/><path class="cls-23" d="M313,38.36a1.16,1.16,0,0,1-.53.11c-.61,0-.92-.34-.92-1V35.37H311V34.9h.6V34l.56-.18v1H313v.47h-.89v2a.82.82,0,0,0,.12.5.49.49,0,0,0,.4.15.61.61,0,0,0,.37-.12Z"/><path class="cls-23" d="M315.1,38.48a1.65,1.65,0,0,1-1.24-.49,1.81,1.81,0,0,1-.46-1.3,1.9,1.9,0,0,1,.48-1.38,1.72,1.72,0,0,1,1.3-.5,1.54,1.54,0,0,1,1.22.49,2.19,2.19,0,0,1,0,2.67A1.66,1.66,0,0,1,315.1,38.48Zm0-3.19a1.09,1.09,0,0,0-.86.36,1.59,1.59,0,0,0-.31,1,1.44,1.44,0,0,0,.32,1,1.07,1.07,0,0,0,.85.36,1,1,0,0,0,.83-.36,1.49,1.49,0,0,0,.3-1,1.52,1.52,0,0,0-.3-1A1,1,0,0,0,315.14,35.29Z"/><path class="cls-23" d="M273.61,58H273V54.75c0-.26,0-.58,0-1h0a4.89,4.89,0,0,1-.15.48L271.25,58H271l-1.67-3.74a2.49,2.49,0,0,1-.14-.5h0q0,.3,0,1V58h-.55v-4.9h.75l1.51,3.42a4.34,4.34,0,0,1,.22.59h0q.15-.41.24-.6l1.53-3.41h.72Z"/><path class="cls-23" d="M277.19,58h-.56v-.54h0a1.28,1.28,0,0,1-1.9.35.94.94,0,0,1-.29-.74c0-.65.38-1,1.15-1.14l1.05-.14q0-.9-.72-.9a1.76,1.76,0,0,0-1.14.43v-.57a2.15,2.15,0,0,1,1.19-.33c.82,0,1.23.44,1.23,1.31Zm-.56-1.77-.84.12a1.46,1.46,0,0,0-.59.19.58.58,0,0,0-.2.49.54.54,0,0,0,.18.42.71.71,0,0,0,.49.16.88.88,0,0,0,.69-.29,1,1,0,0,0,.27-.74Zm.08-3.51-.9,1.12h-.43l.76-1.12Z"/><path class="cls-23" d="M281.09,59.64h-.56V57.43h0a1.25,1.25,0,0,1-1.2.69,1.3,1.3,0,0,1-1.05-.47,1.91,1.91,0,0,1-.4-1.28,2.08,2.08,0,0,1,.44-1.4,1.47,1.47,0,0,1,1.17-.52,1.1,1.1,0,0,1,1,.57h0v-.49h.56Zm-.56-3.18V56a1,1,0,0,0-.28-.73.93.93,0,0,0-.71-.3,1,1,0,0,0-.8.38,1.64,1.64,0,0,0-.3,1.05,1.44,1.44,0,0,0,.29.95.9.9,0,0,0,.73.34,1,1,0,0,0,.78-.33A1.24,1.24,0,0,0,280.53,56.46Z"/><path class="cls-23" d="M284.92,58h-.56v-.55h0a1.16,1.16,0,0,1-1.08.64c-.83,0-1.25-.5-1.25-1.49v-2.1h.56v2c0,.74.28,1.1.85,1.1a.85.85,0,0,0,.67-.3,1.13,1.13,0,0,0,.27-.79v-2h.56Z"/><path class="cls-23" d="M286.2,53.65a.36.36,0,0,1-.26-.11.35.35,0,0,1-.11-.26.36.36,0,0,1,.11-.26.39.39,0,0,1,.52,0,.37.37,0,0,1-.26.63Zm.27,4.38h-.56v-3.5h.56Z"/><path class="cls-23" d="M290.37,58h-.56V56c0-.75-.27-1.12-.81-1.12a.89.89,0,0,0-.7.32,1.19,1.19,0,0,0-.27.8v2h-.56v-3.5H288v.59h0a1.25,1.25,0,0,1,1.15-.67,1.11,1.11,0,0,1,.88.37,1.68,1.68,0,0,1,.3,1.07Z"/><path class="cls-23" d="M293.79,58h-.56v-.54h0a1.28,1.28,0,0,1-1.9.35,1,1,0,0,1-.29-.74c0-.65.38-1,1.15-1.14l1.05-.14q0-.9-.72-.9a1.76,1.76,0,0,0-1.14.43v-.57a2.15,2.15,0,0,1,1.19-.33c.82,0,1.23.44,1.23,1.31Zm-.56-1.77-.84.12a1.46,1.46,0,0,0-.59.19.58.58,0,0,0-.2.49.54.54,0,0,0,.18.42.72.72,0,0,0,.49.16.88.88,0,0,0,.69-.29,1,1,0,0,0,.27-.74Z"/><path class="cls-23" d="M299.24,54.53l-1.4,3.5h-.55L296,54.53h.61l.89,2.55a1.74,1.74,0,0,1,.12.49h0a2.12,2.12,0,0,1,.11-.48l.93-2.56Z"/><path class="cls-23" d="M300,53.65a.36.36,0,0,1-.26-.11.35.35,0,0,1-.11-.26.36.36,0,0,1,.11-.26.39.39,0,0,1,.52,0,.37.37,0,0,1-.26.63Zm.27,4.38h-.56v-3.5h.56Z"/><path class="cls-23" d="M303.08,55.1a.72.72,0,0,0-.42-.11.71.71,0,0,0-.6.34,1.55,1.55,0,0,0-.24.92V58h-.57v-3.5h.57v.72h0a1.27,1.27,0,0,1,.36-.57.85.85,0,0,1,.56-.21,1,1,0,0,1,.33.05Z"/><path class="cls-23" d="M305.17,58a1.09,1.09,0,0,1-.52.11c-.61,0-.92-.34-.92-1V55h-.6v-.48h.6v-.85l.56-.18v1h.88V55h-.88v2a.82.82,0,0,0,.12.5.48.48,0,0,0,.4.15.56.56,0,0,0,.36-.12Z"/><path class="cls-23" d="M308.61,58h-.56v-.55h0a1.18,1.18,0,0,1-1.08.64c-.84,0-1.25-.5-1.25-1.49v-2.1h.55v2c0,.74.28,1.1.85,1.1a.88.88,0,0,0,.68-.3,1.17,1.17,0,0,0,.26-.79v-2h.56Z"/><path class="cls-23" d="M312.11,58h-.56v-.54h0a1.27,1.27,0,0,1-1.89.35,1,1,0,0,1-.3-.74c0-.65.39-1,1.16-1.14l1.05-.14q0-.9-.72-.9a1.77,1.77,0,0,0-1.15.43v-.57a2.17,2.17,0,0,1,1.19-.33c.83,0,1.24.44,1.24,1.31Zm-.56-1.77-.85.12a1.51,1.51,0,0,0-.59.19.57.57,0,0,0-.19.49.54.54,0,0,0,.18.42.69.69,0,0,0,.49.16.87.87,0,0,0,.68-.29,1,1,0,0,0,.28-.74Z"/><path class="cls-23" d="M313.58,58H313V52.85h.56Z"/><path class="cls-23" d="M236.13,92.4V87.49h1.35c1.73,0,2.59.8,2.59,2.39a2.42,2.42,0,0,1-.72,1.83,2.66,2.66,0,0,1-1.92.69ZM236.7,88v3.87h.73a2.07,2.07,0,0,0,1.5-.52,1.92,1.92,0,0,0,.54-1.46c0-1.26-.67-1.89-2-1.89Z"/><path class="cls-23" d="M241.11,88a.36.36,0,0,1-.26-.11.32.32,0,0,1-.1-.25.36.36,0,0,1,.1-.27.39.39,0,0,1,.52,0,.37.37,0,0,1,.11.27.34.34,0,0,1-.11.25A.36.36,0,0,1,241.11,88Zm.27,4.39h-.56V88.9h.56Z"/><path class="cls-23" d="M244.2,89.46a.72.72,0,0,0-.42-.11.71.71,0,0,0-.6.34,1.55,1.55,0,0,0-.24.92V92.4h-.56V88.9h.56v.72h0a1.19,1.19,0,0,1,.37-.58.82.82,0,0,1,.55-.21.91.91,0,0,1,.33,0Z"/><path class="cls-23" d="M247.48,90.79H245a1.31,1.31,0,0,0,.32.9,1.08,1.08,0,0,0,.82.32,1.71,1.71,0,0,0,1.09-.39v.52a2,2,0,0,1-1.22.34,1.47,1.47,0,0,1-1.16-.48,1.91,1.91,0,0,1-.43-1.34,1.94,1.94,0,0,1,.46-1.33,1.51,1.51,0,0,1,1.15-.52,1.32,1.32,0,0,1,1.07.45,1.84,1.84,0,0,1,.37,1.23Zm-.57-.48a1.14,1.14,0,0,0-.23-.75.82.82,0,0,0-.65-.27.91.91,0,0,0-.67.28,1.31,1.31,0,0,0-.34.74Z"/><path class="cls-23" d="M250.58,92.24a1.85,1.85,0,0,1-1,.24,1.58,1.58,0,0,1-1.21-.49,1.77,1.77,0,0,1-.46-1.26,1.94,1.94,0,0,1,.5-1.39,1.73,1.73,0,0,1,1.32-.53,1.86,1.86,0,0,1,.81.17v.58a1.42,1.42,0,0,0-.83-.27,1.11,1.11,0,0,0-.88.38,1.45,1.45,0,0,0-.34,1,1.37,1.37,0,0,0,.32,1,1.1,1.1,0,0,0,.87.36,1.44,1.44,0,0,0,.86-.31Z"/><path class="cls-23" d="M253.67,92.24a1.85,1.85,0,0,1-1,.24A1.58,1.58,0,0,1,251.5,92a1.77,1.77,0,0,1-.46-1.26,1.94,1.94,0,0,1,.5-1.39,1.73,1.73,0,0,1,1.32-.53,1.94,1.94,0,0,1,.82.17v.58a1.45,1.45,0,0,0-.84-.27,1.12,1.12,0,0,0-.88.38,1.45,1.45,0,0,0-.34,1,1.42,1.42,0,0,0,.32,1,1.12,1.12,0,0,0,.87.36,1.44,1.44,0,0,0,.86-.31Z"/><path class="cls-23" d="M254.67,88a.36.36,0,0,1-.26-.11.33.33,0,0,1-.11-.25.37.37,0,0,1,.11-.27.35.35,0,0,1,.26-.1.37.37,0,0,1,.26.1.36.36,0,0,1,.1.27.33.33,0,0,1-.1.25A.38.38,0,0,1,254.67,88Zm.27,4.39h-.56V88.9h.56Z"/><path class="cls-23" d="M257.4,92.48a1.65,1.65,0,0,1-1.24-.49,1.82,1.82,0,0,1-.47-1.3,1.86,1.86,0,0,1,.49-1.38,1.72,1.72,0,0,1,1.3-.5,1.54,1.54,0,0,1,1.22.49,2.19,2.19,0,0,1,0,2.67A1.66,1.66,0,0,1,257.4,92.48Zm0-3.19a1.09,1.09,0,0,0-.86.36,1.53,1.53,0,0,0-.31,1,1.4,1.4,0,0,0,.32,1,1.07,1.07,0,0,0,.85.36,1,1,0,0,0,.83-.36,1.48,1.48,0,0,0,.3-1,1.54,1.54,0,0,0-.3-1A1,1,0,0,0,257.44,89.29Zm.82-2.18-.9,1.12h-.43l.76-1.12Z"/><path class="cls-23" d="M262.8,92.4h-.56v-2q0-1.11-.81-1.11a.88.88,0,0,0-.7.31,1.19,1.19,0,0,0-.27.8v2h-.57V88.9h.57v.58h0a1.25,1.25,0,0,1,1.15-.67,1.09,1.09,0,0,1,.88.38,1.64,1.64,0,0,1,.3,1.07Z"/><path class="cls-23" d="M266.14,92.4h-.57V87.49h.57Z"/><path class="cls-23" d="M267.87,90.54V92.4h-.58V87.49h1.35a1.77,1.77,0,0,1,1.22.39,1.35,1.35,0,0,1,.43,1.08,1.5,1.5,0,0,1-.48,1.14,1.81,1.81,0,0,1-1.3.44Zm0-2.53v2h.6a1.37,1.37,0,0,0,.91-.27,1,1,0,0,0,.31-.77c0-.64-.39-1-1.15-1Z"/><path class="cls-23" d="M273.35,91.89h0V94h-.56V88.9h.56v.61h0a1.34,1.34,0,0,1,1.21-.7,1.31,1.31,0,0,1,1.06.47,2,2,0,0,1,.37,1.26,2.19,2.19,0,0,1-.42,1.41,1.44,1.44,0,0,1-1.17.53A1.16,1.16,0,0,1,273.35,91.89Zm0-1.41V91a1,1,0,0,0,.29.73.89.89,0,0,0,.71.31.94.94,0,0,0,.8-.39,1.81,1.81,0,0,0,.29-1.09,1.39,1.39,0,0,0-.27-.91.89.89,0,0,0-.73-.33,1,1,0,0,0-.79.34A1.23,1.23,0,0,0,273.33,90.48Z"/><path class="cls-23" d="M278.58,89.46a.74.74,0,0,0-.43-.11.71.71,0,0,0-.6.34,1.55,1.55,0,0,0-.24.92V92.4h-.56V88.9h.56v.72h0a1.27,1.27,0,0,1,.37-.58.82.82,0,0,1,.55-.21,1,1,0,0,1,.34,0Z"/><path class="cls-23" d="M279.33,88a.36.36,0,0,1-.26-.11.32.32,0,0,1-.1-.25.36.36,0,0,1,.1-.27.39.39,0,0,1,.52,0,.37.37,0,0,1,.11.27.34.34,0,0,1-.11.25A.36.36,0,0,1,279.33,88Zm.27,4.39H279V88.9h.56Z"/><path class="cls-23" d="M283.35,88.9,282,92.4h-.55l-1.33-3.5h.61l.89,2.54a2.4,2.4,0,0,1,.13.49h0a2.12,2.12,0,0,1,.11-.48l.93-2.55Z"/><path class="cls-23" d="M286.32,92.4h-.56v-.55h0a1.16,1.16,0,0,1-1.07.63,1.12,1.12,0,0,1-.82-.28.94.94,0,0,1-.3-.73c0-.66.39-1,1.16-1.15l1.05-.14c0-.6-.24-.89-.72-.89a1.71,1.71,0,0,0-1.15.43v-.58a2.17,2.17,0,0,1,1.19-.33c.83,0,1.24.44,1.24,1.31Zm-.56-1.77-.85.11a1.36,1.36,0,0,0-.59.2.55.55,0,0,0-.19.49.51.51,0,0,0,.18.41.69.69,0,0,0,.49.17.88.88,0,0,0,.68-.3,1,1,0,0,0,.28-.74Z"/><path class="cls-23" d="M290.22,92.4h-.56v-.6h0a1.41,1.41,0,0,1-2.26.21,2,2,0,0,1-.4-1.28,2.1,2.1,0,0,1,.44-1.39,1.44,1.44,0,0,1,1.17-.53,1.12,1.12,0,0,1,1,.57h0V87.21h.56Zm-.56-1.59V90.3a1,1,0,0,0-.28-.72.92.92,0,0,0-.71-.29,1,1,0,0,0-.81.37,1.69,1.69,0,0,0-.29,1,1.5,1.5,0,0,0,.28,1,.94.94,0,0,0,.76.35,1,1,0,0,0,.76-.34A1.3,1.3,0,0,0,289.66,90.81Z"/><path class="cls-23" d="M293.72,92.4h-.56v-.55h0a1.19,1.19,0,0,1-1.08.63,1.13,1.13,0,0,1-.82-.28.94.94,0,0,1-.29-.73c0-.66.38-1,1.15-1.15l1.05-.14c0-.6-.24-.89-.72-.89a1.71,1.71,0,0,0-1.14.43v-.58a2.15,2.15,0,0,1,1.19-.33c.82,0,1.23.44,1.23,1.31Zm-.56-1.77-.84.11a1.31,1.31,0,0,0-.59.2.55.55,0,0,0-.2.49.51.51,0,0,0,.18.41.71.71,0,0,0,.49.17.89.89,0,0,0,.69-.3,1,1,0,0,0,.27-.74Z"/><path class="cls-23" d="M295.15,91.62l-.55,1.68h-.4l.4-1.68Z"/><path class="cls-23" d="M298.37,91.89h0V94h-.56V88.9h.56v.61h0a1.32,1.32,0,0,1,1.21-.7,1.28,1.28,0,0,1,1.05.47,2,2,0,0,1,.38,1.26,2.14,2.14,0,0,1-.43,1.41,1.41,1.41,0,0,1-1.16.53A1.16,1.16,0,0,1,298.37,91.89Zm0-1.41V91a1.05,1.05,0,0,0,.28.73.92.92,0,0,0,.72.31.94.94,0,0,0,.8-.39,1.81,1.81,0,0,0,.29-1.09,1.39,1.39,0,0,0-.27-.91.9.9,0,0,0-.73-.33,1,1,0,0,0-.79.34A1.23,1.23,0,0,0,298.35,90.48Z"/><path class="cls-23" d="M304.6,92.4H304v-.56h0a1.14,1.14,0,0,1-1.08.64c-.83,0-1.25-.5-1.25-1.49V88.9h.56v2c0,.74.28,1.11.85,1.11a.84.84,0,0,0,.67-.31,1.13,1.13,0,0,0,.27-.79v-2h.56Z"/><path class="cls-23" d="M308.4,90.79h-2.47a1.26,1.26,0,0,0,.32.9,1.08,1.08,0,0,0,.82.32,1.71,1.71,0,0,0,1.09-.39v.52a2,2,0,0,1-1.22.34,1.49,1.49,0,0,1-1.17-.48,2,2,0,0,1-.42-1.34,1.89,1.89,0,0,1,.46-1.33,1.5,1.5,0,0,1,1.15-.52,1.32,1.32,0,0,1,1.07.45,1.84,1.84,0,0,1,.37,1.23Zm-.57-.48a1.09,1.09,0,0,0-.24-.75.78.78,0,0,0-.64-.27.89.89,0,0,0-.67.28,1.25,1.25,0,0,0-.34.74Z"/><path class="cls-23" d="M310.93,89.46a.68.68,0,0,0-.42-.11.71.71,0,0,0-.6.34,1.55,1.55,0,0,0-.24.92V92.4h-.56V88.9h.56v.72h0a1.19,1.19,0,0,1,.37-.58.82.82,0,0,1,.55-.21.87.87,0,0,1,.33,0Z"/><path class="cls-23" d="M313,92.36a1,1,0,0,1-.53.11c-.61,0-.92-.34-.92-1V89.37H311V88.9h.6V88l.56-.18v1H313v.47h-.89v2a.82.82,0,0,0,.12.5.49.49,0,0,0,.4.15.61.61,0,0,0,.37-.12Z"/><path class="cls-23" d="M315.1,92.48a1.65,1.65,0,0,1-1.24-.49,1.81,1.81,0,0,1-.46-1.3,1.9,1.9,0,0,1,.48-1.38,1.72,1.72,0,0,1,1.3-.5,1.54,1.54,0,0,1,1.22.49,2.19,2.19,0,0,1,0,2.67A1.66,1.66,0,0,1,315.1,92.48Zm0-3.19a1.09,1.09,0,0,0-.86.36,1.59,1.59,0,0,0-.31,1,1.44,1.44,0,0,0,.32,1,1.07,1.07,0,0,0,.85.36,1,1,0,0,0,.83-.36,1.48,1.48,0,0,0,.3-1,1.54,1.54,0,0,0-.3-1A1,1,0,0,0,315.14,89.29Z"/><path class="cls-23" d="M273.61,112H273v-3.28c0-.26,0-.58,0-1h0a4.89,4.89,0,0,1-.15.48L271.25,112H271l-1.67-3.74a2.49,2.49,0,0,1-.14-.5h0q0,.3,0,1V112h-.55v-4.9h.75l1.51,3.42a4.34,4.34,0,0,1,.22.59h0q.15-.4.24-.6l1.53-3.41h.72Z"/><path class="cls-23" d="M277.19,112h-.56v-.54h0a1.28,1.28,0,0,1-1.9.35.94.94,0,0,1-.29-.74c0-.65.38-1,1.15-1.14l1.05-.14q0-.9-.72-.9a1.76,1.76,0,0,0-1.14.43v-.57a2.15,2.15,0,0,1,1.19-.33c.82,0,1.23.44,1.23,1.31Zm-.56-1.77-.84.12a1.46,1.46,0,0,0-.59.19.58.58,0,0,0-.2.49.54.54,0,0,0,.18.42.71.71,0,0,0,.49.16.88.88,0,0,0,.69-.29,1,1,0,0,0,.27-.74Zm.08-3.51-.9,1.12h-.43l.76-1.12Z"/><path class="cls-23" d="M281.09,113.64h-.56v-2.21h0a1.25,1.25,0,0,1-1.2.69,1.3,1.3,0,0,1-1.05-.47,1.91,1.91,0,0,1-.4-1.28,2.08,2.08,0,0,1,.44-1.4,1.47,1.47,0,0,1,1.17-.52,1.1,1.1,0,0,1,1,.57h0v-.49h.56Zm-.56-3.18V110a1,1,0,0,0-.28-.73.93.93,0,0,0-.71-.3,1,1,0,0,0-.8.38,1.64,1.64,0,0,0-.3,1,1.44,1.44,0,0,0,.29,1,.9.9,0,0,0,.73.34,1,1,0,0,0,.78-.33A1.24,1.24,0,0,0,280.53,110.46Z"/><path class="cls-23" d="M284.92,112h-.56v-.55h0a1.16,1.16,0,0,1-1.08.64c-.83,0-1.25-.5-1.25-1.49v-2.1h.56v2c0,.74.28,1.1.85,1.1a.85.85,0,0,0,.67-.3,1.13,1.13,0,0,0,.27-.79v-2h.56Z"/><path class="cls-23" d="M286.2,107.65a.36.36,0,0,1-.26-.11.35.35,0,0,1-.11-.26.36.36,0,0,1,.11-.26.39.39,0,0,1,.52,0,.37.37,0,0,1-.26.63Zm.27,4.38h-.56v-3.5h.56Z"/><path class="cls-23" d="M290.37,112h-.56v-2c0-.75-.27-1.12-.81-1.12a.89.89,0,0,0-.7.32,1.19,1.19,0,0,0-.27.8v2h-.56v-3.5H288v.59h0a1.25,1.25,0,0,1,1.15-.67,1.11,1.11,0,0,1,.88.37,1.68,1.68,0,0,1,.3,1.07Z"/><path class="cls-23" d="M293.79,112h-.56v-.54h0a1.28,1.28,0,0,1-1.9.35,1,1,0,0,1-.29-.74c0-.65.38-1,1.15-1.14l1.05-.14q0-.9-.72-.9a1.76,1.76,0,0,0-1.14.43v-.57a2.15,2.15,0,0,1,1.19-.33c.82,0,1.23.44,1.23,1.31Zm-.56-1.77-.84.12a1.46,1.46,0,0,0-.59.19.58.58,0,0,0-.2.49.54.54,0,0,0,.18.42.72.72,0,0,0,.49.16.88.88,0,0,0,.69-.29,1,1,0,0,0,.27-.74Z"/><path class="cls-23" d="M299.24,108.53l-1.4,3.5h-.55l-1.32-3.5h.61l.89,2.55a1.74,1.74,0,0,1,.12.49h0a2.12,2.12,0,0,1,.11-.48l.93-2.56Z"/><path class="cls-23" d="M300,107.65a.36.36,0,0,1-.26-.11.35.35,0,0,1-.11-.26.36.36,0,0,1,.11-.26.39.39,0,0,1,.52,0,.37.37,0,0,1-.26.63Zm.27,4.38h-.56v-3.5h.56Z"/><path class="cls-23" d="M303.08,109.1a.72.72,0,0,0-.42-.11.71.71,0,0,0-.6.34,1.55,1.55,0,0,0-.24.92V112h-.57v-3.5h.57v.72h0a1.27,1.27,0,0,1,.36-.57.85.85,0,0,1,.56-.21,1,1,0,0,1,.33,0Z"/><path class="cls-23" d="M305.17,112a1.09,1.09,0,0,1-.52.11c-.61,0-.92-.34-.92-1V109h-.6v-.48h.6v-.85l.56-.18v1h.88V109h-.88v2a.82.82,0,0,0,.12.5.48.48,0,0,0,.4.15.56.56,0,0,0,.36-.12Z"/><path class="cls-23" d="M308.61,112h-.56v-.55h0a1.18,1.18,0,0,1-1.08.64c-.84,0-1.25-.5-1.25-1.49v-2.1h.55v2c0,.74.28,1.1.85,1.1a.88.88,0,0,0,.68-.3,1.17,1.17,0,0,0,.26-.79v-2h.56Z"/><path class="cls-23" d="M312.11,112h-.56v-.54h0a1.27,1.27,0,0,1-1.89.35,1,1,0,0,1-.3-.74c0-.65.39-1,1.16-1.14l1.05-.14q0-.9-.72-.9a1.77,1.77,0,0,0-1.15.43v-.57a2.17,2.17,0,0,1,1.19-.33c.83,0,1.24.44,1.24,1.31Zm-.56-1.77-.85.12a1.51,1.51,0,0,0-.59.19.57.57,0,0,0-.19.49.54.54,0,0,0,.18.42.69.69,0,0,0,.49.16.87.87,0,0,0,.68-.29,1,1,0,0,0,.28-.74Z"/><path class="cls-23" d="M313.58,112H313v-5.18h.56Z"/><path class="cls-23" d="M236.13,150.9V146h1.35c1.73,0,2.59.79,2.59,2.38a2.42,2.42,0,0,1-.72,1.83,2.66,2.66,0,0,1-1.92.69Zm.57-4.39v3.87h.73a2,2,0,0,0,1.5-.52,1.92,1.92,0,0,0,.54-1.46c0-1.26-.67-1.89-2-1.89Z"/><path class="cls-23" d="M241.11,146.51a.4.4,0,0,1-.26-.1.35.35,0,0,1-.1-.26.36.36,0,0,1,.1-.27.39.39,0,0,1,.52,0,.37.37,0,0,1,.11.27.34.34,0,0,1-.11.25A.36.36,0,0,1,241.11,146.51Zm.27,4.39h-.56v-3.5h.56Z"/><path class="cls-23" d="M244.2,148a.72.72,0,0,0-.42-.11.71.71,0,0,0-.6.34,1.57,1.57,0,0,0-.24.92v1.79h-.56v-3.5h.56v.72h0a1.19,1.19,0,0,1,.37-.58.82.82,0,0,1,.55-.21.91.91,0,0,1,.33,0Z"/><path class="cls-23" d="M247.48,149.29H245a1.31,1.31,0,0,0,.32.9,1.08,1.08,0,0,0,.82.32,1.71,1.71,0,0,0,1.09-.39v.52A2,2,0,0,1,246,151a1.47,1.47,0,0,1-1.16-.48,1.91,1.91,0,0,1-.43-1.34,2,2,0,0,1,.46-1.33,1.51,1.51,0,0,1,1.15-.52,1.32,1.32,0,0,1,1.07.45,1.84,1.84,0,0,1,.37,1.23Zm-.57-.48a1.14,1.14,0,0,0-.23-.75.82.82,0,0,0-.65-.27.91.91,0,0,0-.67.28,1.31,1.31,0,0,0-.34.74Z"/><path class="cls-23" d="M250.58,150.74a1.85,1.85,0,0,1-1,.24,1.58,1.58,0,0,1-1.21-.49,1.77,1.77,0,0,1-.46-1.26,1.94,1.94,0,0,1,.5-1.39,1.91,1.91,0,0,1,2.13-.35v.57a1.42,1.42,0,0,0-.83-.27,1.11,1.11,0,0,0-.88.38,1.45,1.45,0,0,0-.34,1,1.37,1.37,0,0,0,.32,1,1.1,1.1,0,0,0,.87.36,1.38,1.38,0,0,0,.86-.31Z"/><path class="cls-23" d="M253.67,150.74a1.85,1.85,0,0,1-1,.24,1.58,1.58,0,0,1-1.21-.49,1.77,1.77,0,0,1-.46-1.26,1.94,1.94,0,0,1,.5-1.39,1.73,1.73,0,0,1,1.32-.53,1.8,1.8,0,0,1,.82.18v.57a1.45,1.45,0,0,0-.84-.27,1.12,1.12,0,0,0-.88.38,1.45,1.45,0,0,0-.34,1,1.42,1.42,0,0,0,.32,1,1.12,1.12,0,0,0,.87.36,1.38,1.38,0,0,0,.86-.31Z"/><path class="cls-23" d="M254.67,146.51a.4.4,0,0,1-.26-.1.36.36,0,0,1-.11-.26.37.37,0,0,1,.11-.27.35.35,0,0,1,.26-.1.37.37,0,0,1,.26.1.36.36,0,0,1,.1.27.33.33,0,0,1-.1.25A.38.38,0,0,1,254.67,146.51Zm.27,4.39h-.56v-3.5h.56Z"/><path class="cls-23" d="M257.4,151a1.61,1.61,0,0,1-1.24-.49,1.82,1.82,0,0,1-.47-1.3,1.86,1.86,0,0,1,.49-1.38,1.72,1.72,0,0,1,1.3-.5,1.54,1.54,0,0,1,1.22.49,2.19,2.19,0,0,1,0,2.67A1.66,1.66,0,0,1,257.4,151Zm0-3.19a1.09,1.09,0,0,0-.86.36,1.53,1.53,0,0,0-.31,1,1.4,1.4,0,0,0,.32,1,1.07,1.07,0,0,0,.85.36,1,1,0,0,0,.83-.36,1.48,1.48,0,0,0,.3-1,1.54,1.54,0,0,0-.3-1A1,1,0,0,0,257.44,147.79Zm.82-2.18-.9,1.12h-.43l.76-1.12Z"/><path class="cls-23" d="M262.8,150.9h-.56v-2q0-1.11-.81-1.11a.88.88,0,0,0-.7.31,1.19,1.19,0,0,0-.27.8v2h-.57v-3.5h.57V148h0a1.27,1.27,0,0,1,1.15-.67,1.09,1.09,0,0,1,.88.38,1.64,1.64,0,0,1,.3,1.07Z"/><path class="cls-23" d="M266.14,150.9h-.57V146h.57Z"/><path class="cls-23" d="M267.87,149v1.86h-.58V146h1.35a1.77,1.77,0,0,1,1.22.38,1.35,1.35,0,0,1,.43,1.08,1.5,1.5,0,0,1-.48,1.14,1.81,1.81,0,0,1-1.3.44Zm0-2.53v2h.6a1.37,1.37,0,0,0,.91-.27,1,1,0,0,0,.31-.76c0-.65-.39-1-1.15-1Z"/><path class="cls-23" d="M273.35,150.39h0v2.12h-.56V147.4h.56V148h0a1.34,1.34,0,0,1,1.21-.7,1.31,1.31,0,0,1,1.06.47A2,2,0,0,1,276,149a2.19,2.19,0,0,1-.42,1.41,1.44,1.44,0,0,1-1.17.53A1.16,1.16,0,0,1,273.35,150.39Zm0-1.41v.49a1,1,0,0,0,.29.73.89.89,0,0,0,.71.31.94.94,0,0,0,.8-.39,1.81,1.81,0,0,0,.29-1.09,1.39,1.39,0,0,0-.27-.91.89.89,0,0,0-.73-.33,1,1,0,0,0-.79.34A1.23,1.23,0,0,0,273.33,149Z"/><path class="cls-23" d="M278.58,148a.74.74,0,0,0-.43-.11.71.71,0,0,0-.6.34,1.57,1.57,0,0,0-.24.92v1.79h-.56v-3.5h.56v.72h0a1.27,1.27,0,0,1,.37-.58.82.82,0,0,1,.55-.21,1,1,0,0,1,.34,0Z"/><path class="cls-23" d="M279.33,146.51a.4.4,0,0,1-.26-.1.35.35,0,0,1-.1-.26.36.36,0,0,1,.1-.27.39.39,0,0,1,.52,0,.37.37,0,0,1,.11.27.34.34,0,0,1-.11.25A.36.36,0,0,1,279.33,146.51Zm.27,4.39H279v-3.5h.56Z"/><path class="cls-23" d="M283.35,147.4,282,150.9h-.55l-1.33-3.5h.61l.89,2.54a2.4,2.4,0,0,1,.13.49h0a2.12,2.12,0,0,1,.11-.48l.93-2.55Z"/><path class="cls-23" d="M286.32,150.9h-.56v-.55h0a1.16,1.16,0,0,1-1.07.63,1.12,1.12,0,0,1-.82-.28.94.94,0,0,1-.3-.73c0-.66.39-1,1.16-1.14l1.05-.15c0-.6-.24-.89-.72-.89a1.71,1.71,0,0,0-1.15.43v-.58a2.17,2.17,0,0,1,1.19-.33c.83,0,1.24.44,1.24,1.31Zm-.56-1.77-.85.11a1.36,1.36,0,0,0-.59.2.55.55,0,0,0-.19.49.51.51,0,0,0,.18.41.69.69,0,0,0,.49.17.88.88,0,0,0,.68-.3,1,1,0,0,0,.28-.74Z"/><path class="cls-23" d="M290.22,150.9h-.56v-.6h0a1.41,1.41,0,0,1-2.26.21,1.94,1.94,0,0,1-.4-1.28,2.1,2.1,0,0,1,.44-1.39,1.44,1.44,0,0,1,1.17-.53,1.12,1.12,0,0,1,1,.57h0v-2.17h.56Zm-.56-1.59v-.51a1,1,0,0,0-.28-.72.92.92,0,0,0-.71-.29,1,1,0,0,0-.81.37,1.69,1.69,0,0,0-.29,1,1.5,1.5,0,0,0,.28,1,.94.94,0,0,0,.76.35,1,1,0,0,0,.76-.34A1.3,1.3,0,0,0,289.66,149.31Z"/><path class="cls-23" d="M293.72,150.9h-.56v-.55h0a1.19,1.19,0,0,1-1.08.63,1.13,1.13,0,0,1-.82-.28A.94.94,0,0,1,291,150c0-.66.38-1,1.15-1.14l1.05-.15c0-.6-.24-.89-.72-.89a1.71,1.71,0,0,0-1.14.43v-.58a2.15,2.15,0,0,1,1.19-.33c.82,0,1.23.44,1.23,1.31Zm-.56-1.77-.84.11a1.31,1.31,0,0,0-.59.2.55.55,0,0,0-.2.49.51.51,0,0,0,.18.41.71.71,0,0,0,.49.17.89.89,0,0,0,.69-.3,1,1,0,0,0,.27-.74Z"/><path class="cls-23" d="M295.15,150.12l-.55,1.68h-.4l.4-1.68Z"/><path class="cls-23" d="M298.37,150.39h0v2.12h-.56V147.4h.56V148h0a1.32,1.32,0,0,1,1.21-.7,1.28,1.28,0,0,1,1.05.47A2,2,0,0,1,301,149a2.14,2.14,0,0,1-.43,1.41,1.41,1.41,0,0,1-1.16.53A1.16,1.16,0,0,1,298.37,150.39Zm0-1.41v.49a1.05,1.05,0,0,0,.28.73.92.92,0,0,0,.72.31.94.94,0,0,0,.8-.39,1.81,1.81,0,0,0,.29-1.09,1.39,1.39,0,0,0-.27-.91.9.9,0,0,0-.73-.33,1,1,0,0,0-.79.34A1.23,1.23,0,0,0,298.35,149Z"/><path class="cls-23" d="M304.6,150.9H304v-.56h0a1.14,1.14,0,0,1-1.08.64c-.83,0-1.25-.5-1.25-1.49V147.4h.56v2c0,.74.28,1.11.85,1.11a.84.84,0,0,0,.67-.31,1.13,1.13,0,0,0,.27-.79v-2h.56Z"/><path class="cls-23" d="M308.4,149.29h-2.47a1.26,1.26,0,0,0,.32.9,1.08,1.08,0,0,0,.82.32,1.71,1.71,0,0,0,1.09-.39v.52a2,2,0,0,1-1.22.34,1.49,1.49,0,0,1-1.17-.48,2,2,0,0,1-.42-1.34,1.91,1.91,0,0,1,.46-1.33,1.5,1.5,0,0,1,1.15-.52,1.32,1.32,0,0,1,1.07.45,1.84,1.84,0,0,1,.37,1.23Zm-.57-.48a1.09,1.09,0,0,0-.24-.75.78.78,0,0,0-.64-.27.89.89,0,0,0-.67.28,1.25,1.25,0,0,0-.34.74Z"/><path class="cls-23" d="M310.93,148a.68.68,0,0,0-.42-.11.71.71,0,0,0-.6.34,1.57,1.57,0,0,0-.24.92v1.79h-.56v-3.5h.56v.72h0a1.19,1.19,0,0,1,.37-.58.82.82,0,0,1,.55-.21.87.87,0,0,1,.33,0Z"/><path class="cls-23" d="M313,150.86a1,1,0,0,1-.53.11c-.61,0-.92-.34-.92-1v-2.07H311v-.48h.6v-.86l.56-.18v1H313v.48h-.89v2a.82.82,0,0,0,.12.5.49.49,0,0,0,.4.15.61.61,0,0,0,.37-.12Z"/><path class="cls-23" d="M315.1,151a1.61,1.61,0,0,1-1.24-.49,1.81,1.81,0,0,1-.46-1.3,1.9,1.9,0,0,1,.48-1.38,1.72,1.72,0,0,1,1.3-.5,1.54,1.54,0,0,1,1.22.49,2.19,2.19,0,0,1,0,2.67A1.66,1.66,0,0,1,315.1,151Zm0-3.19a1.09,1.09,0,0,0-.86.36,1.59,1.59,0,0,0-.31,1,1.44,1.44,0,0,0,.32,1,1.07,1.07,0,0,0,.85.36,1,1,0,0,0,.83-.36,1.48,1.48,0,0,0,.3-1,1.54,1.54,0,0,0-.3-1A1,1,0,0,0,315.14,147.79Z"/><path class="cls-23" d="M273.61,170.54H273v-3.29c0-.26,0-.58,0-1h0a4.89,4.89,0,0,1-.15.48l-1.68,3.77H271l-1.67-3.74a2.86,2.86,0,0,1-.14-.51h0q0,.3,0,1v3.29h-.55v-4.91h.75l1.51,3.42a4.34,4.34,0,0,1,.22.59h0q.15-.4.24-.6l1.53-3.41h.72Z"/><path class="cls-23" d="M277.19,170.54h-.56V170h0a1.19,1.19,0,0,1-1.08.63,1.13,1.13,0,0,1-.82-.28.94.94,0,0,1-.29-.73c0-.66.38-1,1.15-1.15l1.05-.14q0-.9-.72-.9a1.72,1.72,0,0,0-1.14.44v-.58A2.15,2.15,0,0,1,276,167c.82,0,1.23.44,1.23,1.31Zm-.56-1.78-.84.12a1.46,1.46,0,0,0-.59.19.58.58,0,0,0-.2.49.52.52,0,0,0,.18.42.71.71,0,0,0,.49.17.89.89,0,0,0,.69-.3,1,1,0,0,0,.27-.74Zm.08-3.51-.9,1.12h-.43l.76-1.12Z"/><path class="cls-23" d="M281.09,172.14h-.56v-2.21h0a1.25,1.25,0,0,1-1.2.69,1.3,1.3,0,0,1-1.05-.47,1.91,1.91,0,0,1-.4-1.28,2.08,2.08,0,0,1,.44-1.4,1.47,1.47,0,0,1,1.17-.52,1.1,1.1,0,0,1,1,.57h0V167h.56Zm-.56-3.18v-.51a1,1,0,0,0-.28-.73.93.93,0,0,0-.71-.3,1,1,0,0,0-.8.38,1.64,1.64,0,0,0-.3,1,1.44,1.44,0,0,0,.29,1,.9.9,0,0,0,.73.35,1,1,0,0,0,.78-.34A1.24,1.24,0,0,0,280.53,169Z"/><path class="cls-23" d="M284.92,170.54h-.56V170h0a1.14,1.14,0,0,1-1.08.64c-.83,0-1.25-.5-1.25-1.49V167h.56v2c0,.74.28,1.11.85,1.11a.85.85,0,0,0,.67-.31,1.13,1.13,0,0,0,.27-.79v-2h.56Z"/><path class="cls-23" d="M286.2,166.15a.36.36,0,0,1-.26-.11.33.33,0,0,1-.11-.26.36.36,0,0,1,.11-.26.39.39,0,0,1,.52,0,.37.37,0,0,1-.26.63Zm.27,4.39h-.56V167h.56Z"/><path class="cls-23" d="M290.37,170.54h-.56v-2c0-.74-.27-1.12-.81-1.12a.89.89,0,0,0-.7.32,1.19,1.19,0,0,0-.27.8v2h-.56V167H288v.58h0a1.25,1.25,0,0,1,1.15-.67,1.11,1.11,0,0,1,.88.37,1.69,1.69,0,0,1,.3,1.08Z"/><path class="cls-23" d="M293.79,170.54h-.56V170h0a1.18,1.18,0,0,1-1.08.63,1.13,1.13,0,0,1-.82-.28,1,1,0,0,1-.29-.73c0-.66.38-1,1.15-1.15l1.05-.14q0-.9-.72-.9a1.72,1.72,0,0,0-1.14.44v-.58a2.15,2.15,0,0,1,1.19-.33c.82,0,1.23.44,1.23,1.31Zm-.56-1.78-.84.12a1.46,1.46,0,0,0-.59.19.58.58,0,0,0-.2.49.52.52,0,0,0,.18.42.73.73,0,0,0,.49.17.89.89,0,0,0,.69-.3,1,1,0,0,0,.27-.74Z"/><path class="cls-23" d="M299.24,167l-1.4,3.5h-.55L296,167h.61l.89,2.54a1.74,1.74,0,0,1,.12.49h0a2.12,2.12,0,0,1,.11-.48l.93-2.55Z"/><path class="cls-23" d="M300,166.15a.36.36,0,0,1-.26-.11.33.33,0,0,1-.11-.26.36.36,0,0,1,.11-.26.39.39,0,0,1,.52,0,.37.37,0,0,1-.26.63Zm.27,4.39h-.56V167h.56Z"/><path class="cls-23" d="M303.08,167.6a.72.72,0,0,0-.42-.11.71.71,0,0,0-.6.34,1.55,1.55,0,0,0-.24.92v1.79h-.57V167h.57v.72h0a1.25,1.25,0,0,1,.36-.58.85.85,0,0,1,.56-.21,1,1,0,0,1,.33.05Z"/><path class="cls-23" d="M305.17,170.5a1.09,1.09,0,0,1-.52.11c-.61,0-.92-.34-.92-1v-2.07h-.6V167h.6v-.86l.56-.18v1h.88v.47h-.88v2a.82.82,0,0,0,.12.5.48.48,0,0,0,.4.15.56.56,0,0,0,.36-.12Z"/><path class="cls-23" d="M308.61,170.54h-.56V170h0a1.16,1.16,0,0,1-1.08.64c-.84,0-1.25-.5-1.25-1.49V167h.55v2c0,.74.28,1.11.85,1.11a.89.89,0,0,0,.68-.31,1.17,1.17,0,0,0,.26-.79v-2h.56Z"/><path class="cls-23" d="M312.11,170.54h-.56V170h0a1.16,1.16,0,0,1-1.07.63,1.12,1.12,0,0,1-.82-.28.94.94,0,0,1-.3-.73c0-.66.39-1,1.16-1.15l1.05-.14q0-.9-.72-.9a1.72,1.72,0,0,0-1.15.44v-.58a2.17,2.17,0,0,1,1.19-.33c.83,0,1.24.44,1.24,1.31Zm-.56-1.78-.85.12a1.51,1.51,0,0,0-.59.19.57.57,0,0,0-.19.49.52.52,0,0,0,.18.42.69.69,0,0,0,.49.17.88.88,0,0,0,.68-.3,1,1,0,0,0,.28-.74Z"/><path class="cls-23" d="M313.58,170.54H313v-5.19h.56Z"/></svg>