<svg xmlns="http://www.w3.org/2000/svg" xmlns:xlink="http://www.w3.org/1999/xlink" viewBox="0 0 240.5 395.47"><defs><style>.cls-1{fill:#fff;}.cls-2,.cls-3,.cls-9{fill:#3c3c41;}.cls-2{opacity:0.05;}.cls-2,.cls-9{isolation:isolate;}.cls-4{fill:url(#linear-gradient);}.cls-5{fill:url(#linear-gradient-2);}.cls-6{fill:url(#linear-gradient-3);}.cls-7{fill:#50e6ff;}.cls-8{fill:#1490df;}.cls-9{opacity:0.25;}.cls-10{fill:url(#linear-gradient-4);}.cls-11{fill:url(#linear-gradient-5);}.cls-12{fill:#b4ec36;}.cls-13{fill:#5ea0ef;}.cls-14{fill:url(#linear-gradient-6);}.cls-15{fill:#c3f1ff;}.cls-16{fill:#9cebff;}.cls-17{fill:url(#linear-gradient-7);}.cls-18{fill:url(#linear-gradient-8);}.cls-19{fill:url(#linear-gradient-9);}.cls-20{fill:url(#linear-gradient-10);}.cls-21{fill:url(#linear-gradient-11);}.cls-22{fill:none;stroke:#3c3c41;stroke-miterlimit:10;}.cls-23{fill:url(#linear-gradient-12);}.cls-24{fill:url(#linear-gradient-13);}.cls-25{fill:url(#linear-gradient-14);}.cls-26{fill:url(#linear-gradient-15);}.cls-27{fill:url(#linear-gradient-16);}.cls-28{fill:url(#linear-gradient-17);}.cls-29{fill:url(#linear-gradient-18);}.cls-30{fill:#1e1e1e;}</style><linearGradient id="linear-gradient" x1="21.67" y1="639.04" x2="24.04" y2="641.41" gradientTransform="translate(2.11 -270.55) rotate(-0.08)" gradientUnits="userSpaceOnUse"><stop offset="0" stop-color="#86d633"/><stop offset="0.24" stop-color="#83d232"/><stop offset="0.5" stop-color="#7cc52f"/><stop offset="0.76" stop-color="#6fb02a"/><stop offset="1" stop-color="#5e9624"/></linearGradient><linearGradient id="linear-gradient-2" x1="16.33" y1="639.04" x2="18.69" y2="641.41" xlink:href="#linear-gradient"/><linearGradient id="linear-gradient-3" x1="10.99" y1="639.04" x2="13.35" y2="641.4" xlink:href="#linear-gradient"/><linearGradient id="linear-gradient-4" x1="149.14" y1="265.29" x2="149.14" y2="301.06" gradientTransform="translate(0 -269.39)" gradientUnits="userSpaceOnUse"><stop offset="0.18" stop-color="#5ea0ef"/><stop offset="1" stop-color="#0078d4"/></linearGradient><linearGradient id="linear-gradient-5" x1="149.14" y1="380.98" x2="149.14" y2="343.89" gradientTransform="translate(0 -269.39)" gradientUnits="userSpaceOnUse"><stop offset="0" stop-color="#5e9624"/><stop offset="0.02" stop-color="#5f9724"/><stop offset="1" stop-color="#76bc2d"/></linearGradient><linearGradient id="linear-gradient-6" x1="148.74" y1="438.34" x2="148.74" y2="416.7" gradientTransform="translate(0 -269.39)" gradientUnits="userSpaceOnUse"><stop offset="0" stop-color="#0078d4"/><stop offset="0.82" stop-color="#5ea0ef"/></linearGradient><linearGradient id="linear-gradient-7" x1="148.74" y1="446.7" x2="148.74" y2="438.34" gradientTransform="translate(0 -269.39)" gradientUnits="userSpaceOnUse"><stop offset="0.15" stop-color="#ccc"/><stop offset="1" stop-color="#707070"/></linearGradient><linearGradient id="linear-gradient-8" x1="96.24" y1="438.34" x2="96.24" y2="416.7" xlink:href="#linear-gradient-6"/><linearGradient id="linear-gradient-9" x1="96.24" y1="446.7" x2="96.24" y2="438.34" xlink:href="#linear-gradient-7"/><linearGradient id="linear-gradient-10" x1="201.24" y1="438.34" x2="201.24" y2="416.7" xlink:href="#linear-gradient-6"/><linearGradient id="linear-gradient-11" x1="201.24" y1="446.7" x2="201.24" y2="438.34" xlink:href="#linear-gradient-7"/><linearGradient id="linear-gradient-12" x1="149.14" y1="533.3" x2="149.14" y2="496.2" xlink:href="#linear-gradient-5"/><linearGradient id="linear-gradient-13" x1="148.74" y1="588.34" x2="148.74" y2="566.7" xlink:href="#linear-gradient-6"/><linearGradient id="linear-gradient-14" x1="148.74" y1="596.7" x2="148.74" y2="588.34" xlink:href="#linear-gradient-7"/><linearGradient id="linear-gradient-15" x1="96.24" y1="588.34" x2="96.24" y2="566.7" xlink:href="#linear-gradient-6"/><linearGradient id="linear-gradient-16" x1="96.24" y1="596.7" x2="96.24" y2="588.34" xlink:href="#linear-gradient-7"/><linearGradient id="linear-gradient-17" x1="201.24" y1="588.34" x2="201.24" y2="566.7" xlink:href="#linear-gradient-6"/><linearGradient id="linear-gradient-18" x1="201.24" y1="596.7" x2="201.24" y2="588.34" xlink:href="#linear-gradient-7"/></defs><g id="shapes"><rect class="cls-1" width="240.5" height="395.47"/><rect class="cls-1" x="0.5" y="64.8" width="240" height="305" rx="5"/><rect class="cls-2" x="0.5" y="64.8" width="240" height="305" rx="5"/><path class="cls-3" d="M234.34,370.3h-1v-1h1Zm-3,0h-1v-1h1Zm-3,0h-1v-1h1Zm-3,0h-1v-1h1Zm-3,0h-1v-1h1Zm-3,0h-1v-1h1Zm-3,0h-1v-1h1Zm-3,0h-1v-1h1Zm-3,0h-1v-1h1Zm-3,0h-1v-1h1Zm-3,0h-1v-1h1Zm-3,0h-1v-1h1Zm-3,0h-1v-1h1Zm-3,0h-1v-1h1Zm-3,0h-1v-1h1Zm-3,0h-1v-1h1Zm-3,0h-1v-1h1Zm-3,0h-1v-1h1Zm-3,0h-1v-1h1Zm-3,0h-1v-1h1Zm-3,0h-1v-1h1Zm-3,0h-1v-1h1Zm-3,0h-1v-1h1Zm-3,0h-1v-1h1Zm-3,0h-1v-1h1Zm-3,0h-1v-1h1Zm-3,0h-1v-1h1Zm-3,0h-1v-1h1Zm-3,0h-1v-1h1Zm-3,0h-1v-1h1Zm-3,0h-1v-1h1Zm-3,0h-1v-1h1Zm-3,0h-1v-1h1Zm-3,0h-1v-1h1Zm-3,0h-1v-1h1Zm-3,0h-1v-1h1Zm-3,0h-1v-1h1Zm-3,0h-1v-1h1Zm-3,0h-1v-1h1Zm-3,0h-1v-1h1Zm-3,0h-1v-1h1Zm-3,0h-1v-1h1Zm-3,0h-1v-1h1Zm-3,0h-1v-1h1Zm-3,0h-1v-1h1Zm-3,0h-1v-1h1Zm-3,0h-1v-1h1Zm-3,0h-1v-1h1Zm-3,0h-1v-1h1Zm-3,0h-1v-1h1Zm-3,0h-1v-1h1Zm-3,0h-1v-1h1Zm-3,0h-1v-1h1Zm-3,0h-1v-1h1Zm-3,0h-1v-1h1Zm-3,0h-1v-1h1Zm-3,0h-1v-1h1Zm-3,0h-1v-1h1Zm-3,0h-1v-1h1Zm-3,0h-1v-1h1Zm-3,0h-1v-1h1Zm-3,0h-1v-1h1Zm-3,0h-1v-1h1Zm-3,0h-1v-1h1Zm-3,0h-1v-1h1Zm-3,0h-1v-1h1Zm-3,0h-1v-1h1Zm-30,0H5.5a4,4,0,0,1-.49,0l.09-1h1Zm230.36-.07-.16-1a4.4,4.4,0,0,0,.86-.24l.36.93a5.37,5.37,0,0,1-1.06.3ZM2.91,369.65A6,6,0,0,1,2,369l.64-.77a4.26,4.26,0,0,0,.75.5Zm236.41-.9-.69-.72a4.82,4.82,0,0,0,.58-.69l.82.57a5.64,5.64,0,0,1-.71.84ZM.63,367.34a5.09,5.09,0,0,1-.42-1l1-.27a4.48,4.48,0,0,0,.33.83Zm240.26-1.44-1-.2a4.58,4.58,0,0,0,.09-.9l1-.05v.05A5.78,5.78,0,0,1,240.89,365.9ZM1,364.2H0v-1H1Zm240-1.46h-1v-1h1ZM1,361.2H0v-1H1Zm240-1.46h-1v-1h1ZM1,358.19H0v-1H1Zm240-1.45h-1v-1h1ZM1,355.19H0v-1H1Zm240-1.46h-1v-1h1ZM1,352.19H0v-1H1Zm240-1.46h-1v-1h1ZM1,349.18H0v-1H1Zm240-1.46h-1v-1h1ZM1,346.18H0v-1H1Zm240-1.46h-1v-1h1ZM1,343.17H0v-1H1Zm240-1.45h-1v-1h1ZM1,340.17H0v-1H1Zm240-1.46h-1v-1h1ZM1,337.17H0v-1H1Zm240-1.46h-1v-1h1ZM1,334.16H0v-1H1Zm240-1.46h-1v-1h1ZM1,331.16H0v-1H1Zm240-1.46h-1v-1h1ZM1,328.16H0v-1H1Zm240-1.46h-1v-1h1ZM1,325.15H0v-1H1Zm240-1.46h-1v-1h1ZM1,322.15H0v-1H1Zm240-1.46h-1v-1h1ZM1,319.14H0v-1H1Zm240-1.45h-1v-1h1ZM1,316.14H0v-1H1Zm240-1.46h-1v-1h1ZM1,313.14H0v-1H1Zm240-1.46h-1v-1h1ZM1,310.13H0v-1H1Zm240-1.46h-1v-1h1ZM1,307.13H0v-1H1Zm240-1.46h-1v-1h1ZM1,304.13H0v-1H1Zm240-1.46h-1v-1h1ZM1,301.12H0v-1H1Zm240-1.46h-1v-1h1ZM1,298.12H0v-1H1Zm240-1.46h-1v-1h1ZM1,295.11H0v-1H1Zm240-1.45h-1v-1h1ZM1,292.11H0v-1H1Zm240-1.46h-1v-1h1ZM1,289.11H0v-1H1Zm240-1.46h-1v-1h1ZM1,286.1H0v-1H1Zm240-1.46h-1v-1h1ZM1,283.1H0v-1H1Zm240-1.46h-1v-1h1ZM1,280.1H0v-1H1Zm240-1.46h-1v-1h1ZM1,277.09H0v-1H1Zm240-1.46h-1v-1h1ZM1,274.09H0v-1H1Zm240-1.46h-1v-1h1ZM1,271.08H0v-1H1Zm240-1.45h-1v-1h1ZM1,268.08H0v-1H1Zm240-1.46h-1v-1h1ZM1,265.08H0v-1H1Zm240-1.46h-1v-1h1ZM1,262.07H0v-1H1Zm240-1.45h-1v-1h1ZM1,259.07H0v-1H1Zm240-1.46h-1v-1h1ZM1,256.07H0v-1H1Zm240-1.46h-1v-1h1ZM1,253.06H0v-1H1Zm240-1.46h-1v-1h1ZM1,250.06H0v-1H1Zm240-1.46h-1v-1h1ZM1,247.05H0v-1H1Zm240-1.45h-1v-1h1ZM1,244.05H0v-1H1Zm240-1.46h-1v-1h1ZM1,241.05H0v-1H1Zm240-1.46h-1v-1h1ZM1,238H0v-1H1Zm240-1.46h-1v-1h1ZM1,235H0v-1H1Zm240-1.46h-1v-1h1ZM1,232H0v-1H1Zm240-1.46h-1v-1h1ZM1,229H0v-1H1Zm240-1.46h-1v-1h1ZM1,226H0v-1H1Zm240-1.46h-1v-1h1ZM1,223H0v-1H1Zm240-1.45h-1v-1h1ZM1,220H0v-1H1Zm240-1.46h-1v-1h1ZM1,217H0v-1H1Zm240-1.46h-1v-1h1ZM1,214H0v-1H1Zm240-1.45h-1v-1h1ZM1,211H0v-1H1Zm240-1.46h-1v-1h1ZM1,208H0v-1H1Zm240-1.46h-1v-1h1ZM1,205H0v-1H1Zm240-1.46h-1v-1h1ZM1,202H0v-1H1Zm240-1.46h-1v-1h1ZM1,199H0v-1H1Zm240-1.45h-1v-1h1ZM1,196H0v-1H1Zm240-1.46h-1v-1h1ZM1,193H0v-1H1Zm240-1.46h-1v-1h1ZM1,190H0v-1H1Zm240-1.46h-1v-1h1ZM1,187H0v-1H1Zm240-1.46h-1v-1h1ZM1,184H0v-1H1Zm240-1.46h-1v-1h1ZM1,181H0v-1H1Zm240-1.46h-1v-1h1ZM1,178H0v-1H1Zm240-1.46h-1v-1h1ZM1,175H0v-1H1Zm240-1.45h-1v-1h1ZM1,172H0v-1H1Zm240-1.46h-1v-1h1ZM1,169H0v-1H1Zm240-1.46h-1v-1h1ZM1,166H0v-1H1Zm240-1.45h-1v-1h1ZM1,163H0v-1H1Zm240-1.46h-1v-1h1ZM1,160H0v-1H1Zm240-1.46h-1v-1h1ZM1,156.94H0v-1H1Zm240-1.46h-1v-1h1ZM1,153.94H0v-1H1Zm240-1.46h-1v-1h1ZM1,150.93H0v-1H1Zm240-1.45h-1v-1h1ZM1,147.93H0v-1H1Zm240-1.46h-1v-1h1ZM1,144.93H0v-1H1Zm240-1.46h-1v-1h1ZM1,141.92H0v-1H1Zm240-1.46h-1v-1h1ZM1,138.92H0v-1H1Zm240-1.46h-1v-1h1ZM1,135.92H0v-1H1Zm240-1.46h-1v-1h1ZM1,132.91H0v-1H1Zm240-1.46h-1v-1h1ZM1,129.91H0v-1H1Zm240-1.46h-1v-1h1ZM1,126.9H0v-1H1Zm240-1.45h-1v-1h1ZM1,123.9H0v-1H1Zm240-1.46h-1v-1h1ZM1,120.9H0v-1H1Zm240-1.46h-1v-1h1ZM1,117.89H0v-1H1Zm240-1.46h-1v-1h1ZM1,114.89H0v-1H1Zm240-1.46h-1v-1h1ZM1,111.89H0v-1H1Zm240-1.46h-1v-1h1ZM1,108.88H0v-1H1Zm240-1.46h-1v-1h1ZM1,105.88H0v-1H1Zm240-1.46h-1v-1h1ZM1,102.87H0v-1H1Zm240-1.45h-1v-1h1ZM1,99.87H0v-1H1Zm240-1.46h-1v-1h1ZM1,96.87H0v-1H1Zm240-1.46h-1v-1h1ZM1,93.86H0v-1H1ZM241,92.4h-1v-1h1ZM1,90.86H0v-1H1ZM241,89.4h-1v-1h1ZM1,87.86H0v-1H1ZM241,86.4h-1v-1h1ZM1,84.85H0v-1H1Zm240-1.46h-1v-1h1ZM1,81.85H0v-1H1Zm240-1.46h-1v-1h1ZM1,78.84H0v-1H1Zm240-1.45h-1v-1h1ZM1,75.84H0v-1H1Zm240-1.46h-1v-1h1ZM1,72.84H0v-1H1Zm240-1.46h-1v-1h1ZM0,69.83v0a5.44,5.44,0,0,1,.1-1.06l1,.2A4.91,4.91,0,0,0,1,69.8Zm239.82-1.29a5.09,5.09,0,0,0-.34-.84l.88-.46a6,6,0,0,1,.42,1Zm-238-1.25L1,66.72a6.24,6.24,0,0,1,.7-.84l.7.71A5.45,5.45,0,0,0,1.78,67.29Zm236.56-1a4.26,4.26,0,0,0-.75-.5l.47-.88a5,5,0,0,1,.91.61ZM3.86,65.62l-.37-.93a4.84,4.84,0,0,1,1-.3l.18,1A4.06,4.06,0,0,0,3.86,65.62Zm232-.3-.37,0h-.59v-1h.59l.46,0Zm-3,0h-1v-1h1Zm-3,0h-1v-1h1Zm-3,0h-1v-1h1Zm-3,0h-1v-1h1Zm-3,0h-1v-1h1Zm-3,0h-1v-1h1Zm-3,0h-1v-1h1Zm-3,0h-1v-1h1Zm-3,0h-1v-1h1Zm-3,0h-1v-1h1Zm-3,0h-1v-1h1Zm-3,0h-1v-1h1Zm-3,0h-1v-1h1Zm-3,0h-1v-1h1Zm-3,0h-1v-1h1Zm-3,0h-1v-1h1Zm-3,0h-1v-1h1Zm-3,0h-1v-1h1Zm-3,0h-1v-1h1Zm-3,0h-1v-1h1Zm-3,0h-1v-1h1Zm-3,0h-1v-1h1Zm-3,0h-1v-1h1Zm-3,0h-1v-1h1Zm-3,0h-1v-1h1Zm-3,0h-1v-1h1Zm-3,0h-1v-1h1Zm-3,0h-1v-1h1Zm-3,0h-1v-1h1Zm-3,0h-1v-1h1Zm-3,0h-1v-1h1Zm-3,0h-1v-1h1Zm-3,0h-1v-1h1Zm-3,0h-1v-1h1Zm-3,0h-1v-1h1Zm-3,0h-1v-1h1Zm-3,0h-1v-1h1Zm-3,0h-1v-1h1Zm-3,0h-1v-1h1Zm-3,0h-1v-1h1Zm-3,0h-1v-1h1Zm-3,0h-1v-1h1Zm-3,0h-1v-1h1Zm-3,0h-1v-1h1Zm-3,0h-1v-1h1Zm-3,0h-1v-1h1Zm-3,0h-1v-1h1Zm-3,0h-1v-1h1Zm-3,0h-1v-1h1Zm-3,0h-1v-1h1Zm-3,0h-1v-1h1Zm-3,0h-1v-1h1Zm-3,0h-1v-1h1Zm-3,0h-1v-1h1Zm-3,0h-1v-1h1Zm-3,0h-1v-1h1Zm-3,0h-1v-1h1Zm-3,0h-1v-1h1Zm-3,0h-1v-1h1Zm-3,0h-1v-1h1Zm-3,0h-1v-1h1Zm-3,0h-1v-1h1Zm-3,0h-1v-1h1Zm-3,0h-1v-1h1Zm-3,0h-1v-1h1Zm-3,0h-1v-1h1Zm-3,0h-1v-1h1Zm-3,0h-1v-1h1Zm-3,0h-1v-1h1Zm-3,0h-1v-1h1Zm-3,0h-1v-1h1Zm-3,0h-1v-1h1Zm-3,0h-1v-1h1Zm-3,0h-1v-1h1Zm-3,0h-1v-1h1Zm-3,0h-1v-1h1Z"/><circle class="cls-4" cx="25.86" cy="369.64" r="1.67"/><circle class="cls-5" cx="20.52" cy="369.65" r="1.67"/><circle class="cls-6" cx="15.18" cy="369.65" r="1.67"/><path class="cls-7" d="M16.39,376.35l-1,1a.44.44,0,0,1-.62,0h0l-7.09-7.07a.87.87,0,0,1,0-1.23h0l.95-1h0l7.71,7.69a.43.43,0,0,1,0,.61Z"/><path class="cls-8" d="M15.29,362l1,1a.43.43,0,0,1,0,.61l-7.57,7.6h0l-1-1a.87.87,0,0,1,0-1.22h0l7-7A.43.43,0,0,1,15.29,362Z"/><path class="cls-7" d="M32.24,368l1,1a.86.86,0,0,1,0,1.22h0l-7.1,7.08a.43.43,0,0,1-.61,0h0l-1-1a.43.43,0,0,1,0-.61h0L32.24,368Z"/><path class="cls-8" d="M33.2,370.21l-1,1h0l-7.58-7.6a.43.43,0,0,1,0-.61h0l1-1a.44.44,0,0,1,.61,0h0l7,7a.86.86,0,0,1,0,1.22h0Z"/><rect class="cls-1" x="10" y="139.3" width="220" height="65"/><rect class="cls-9" x="10" y="139.3" width="220" height="65"/><path class="cls-10" d="M167,17.85a8.16,8.16,0,0,0-7-7.91A10.26,10.26,0,0,0,149.59,0a10.52,10.52,0,0,0-9.94,7,9.67,9.67,0,0,0-8.4,9.45A10,10,0,0,0,141.34,26H159A8.25,8.25,0,0,0,167,17.85Z"/><path class="cls-11" d="M133.47,91.54l14.91-14.91a1.05,1.05,0,0,1,1.51,0l0,0,14.91,14.91a1.07,1.07,0,0,1,0,1.51l0,0L149.89,108a1.08,1.08,0,0,1-1.49,0L133.47,93.07a1.06,1.06,0,0,1,0-1.51Z"/><path class="cls-12" d="M153.05,83.42l-3.76-3.75a.21.21,0,0,0-.29,0l-3.77,3.75a.18.18,0,0,0,0,.24.22.22,0,0,0,.2.08h2.2a.19.19,0,0,1,.2.19v3.56a.19.19,0,0,0,.19.19h2.35a.19.19,0,0,0,.19-.19V83.93a.19.19,0,0,1,.2-.19h2.2a.19.19,0,0,0,.22-.13.16.16,0,0,0-.08-.19Z"/><path class="cls-12" d="M140.26,88.06l-3.74,3.78a.2.2,0,0,0,0,.27l3.74,3.75a.19.19,0,0,0,.27,0,.18.18,0,0,0,.06-.15V93.53a.2.2,0,0,1,.2-.2h3.55a.17.17,0,0,0,.18-.17V90.79a.18.18,0,0,0-.06-.24l-.06,0h-3.56a.18.18,0,0,1-.19-.16V88.2a.21.21,0,0,0-.13-.27A.2.2,0,0,0,140.26,88.06Z"/><path class="cls-12" d="M158.17,95.86,162,92.09a.2.2,0,0,0,0-.27l-3.79-3.76a.19.19,0,0,0-.27,0,.22.22,0,0,0-.05.12v2.22a.18.18,0,0,1-.17.18H154.1a.18.18,0,0,0-.18.17h0v2.37a.19.19,0,0,0,.16.19h3.58a.19.19,0,0,1,.19.2h0v2.2a.19.19,0,0,0,.22.17A.18.18,0,0,0,158.17,95.86Z"/><path class="cls-1" d="M154.1,92.3a5,5,0,1,0-6.29,4.75v1.69a3.05,3.05,0,1,0,2.79,0V97A4.92,4.92,0,0,0,154.1,92.3Z"/><circle id="e99c3387-15c3-4f28-bd4b-cb209b430e06" class="cls-13" cx="149.16" cy="92.29" r="2.88"/><rect class="cls-14" x="132.5" y="147.3" width="32.47" height="21.65" rx="1.08"/><polygon class="cls-7" points="154.15 154.97 154.15 161.27 148.74 164.44 148.74 158.13 154.15 154.97"/><polygon class="cls-15" points="154.15 154.97 148.74 158.15 143.32 154.97 148.74 151.81 154.15 154.97"/><polygon class="cls-16" points="148.74 158.15 148.74 164.44 143.32 161.27 143.32 154.97 148.74 158.15"/><polygon class="cls-15" points="143.32 161.27 148.74 158.13 148.74 164.44 143.32 161.27"/><polygon class="cls-16" points="154.15 161.27 148.74 158.13 148.74 164.44 154.15 161.27"/><path class="cls-17" d="M155.25,175.5c-3.21-.51-3.34-2.81-3.34-6.55h-6.37c0,3.74-.11,6-3.32,6.55a1.8,1.8,0,0,0-1.6,1.8h16.23A1.79,1.79,0,0,0,155.25,175.5Z"/><rect class="cls-18" x="80" y="147.3" width="32.47" height="21.65" rx="1.08"/><polygon class="cls-7" points="101.65 154.97 101.65 161.27 96.24 164.44 96.24 158.13 101.65 154.97"/><polygon class="cls-15" points="101.65 154.97 96.24 158.15 90.82 154.97 96.24 151.81 101.65 154.97"/><polygon class="cls-16" points="96.24 158.15 96.24 164.44 90.82 161.27 90.82 154.97 96.24 158.15"/><polygon class="cls-15" points="90.82 161.27 96.24 158.13 96.24 164.44 90.82 161.27"/><polygon class="cls-16" points="101.65 161.27 96.24 158.13 96.24 164.44 101.65 161.27"/><path class="cls-19" d="M102.75,175.5c-3.21-.51-3.34-2.81-3.34-6.55H93c0,3.74-.11,6-3.32,6.55a1.8,1.8,0,0,0-1.6,1.8h16.23A1.79,1.79,0,0,0,102.75,175.5Z"/><rect class="cls-20" x="185" y="147.3" width="32.47" height="21.65" rx="1.08"/><polygon class="cls-7" points="206.65 154.97 206.65 161.27 201.24 164.44 201.24 158.13 206.65 154.97"/><polygon class="cls-15" points="206.65 154.97 201.24 158.15 195.82 154.97 201.24 151.81 206.65 154.97"/><polygon class="cls-16" points="201.24 158.15 201.24 164.44 195.82 161.27 195.82 154.97 201.24 158.15"/><polygon class="cls-15" points="195.82 161.27 201.24 158.13 201.24 164.44 195.82 161.27"/><polygon class="cls-16" points="206.65 161.27 201.24 158.13 201.24 164.44 206.65 161.27"/><path class="cls-21" d="M207.75,175.5c-3.21-.51-3.34-2.81-3.34-6.55H198c0,3.74-.11,6-3.32,6.55a1.8,1.8,0,0,0-1.6,1.8h16.23A1.79,1.79,0,0,0,207.75,175.5Z"/><line class="cls-22" x1="149.14" y1="29.3" x2="149.14" y2="41.8"/><line class="cls-22" x1="149.14" y1="59.3" x2="149.14" y2="73.3"/><path class="cls-23" d="M133.47,243.86l14.91-14.92a1.07,1.07,0,0,1,1.51,0l0,0,14.91,14.92a1.06,1.06,0,0,1,0,1.5l0,0-14.93,14.94a1.08,1.08,0,0,1-1.49,0l-14.93-14.94a1.05,1.05,0,0,1,0-1.5h0Z"/><path class="cls-12" d="M153.05,235.73,149.29,232a.23.23,0,0,0-.29,0l-3.77,3.75a.18.18,0,0,0,.15.32h2.2a.2.2,0,0,1,.2.2v3.55a.19.19,0,0,0,.19.2h2.35a.19.19,0,0,0,.19-.2v-3.55a.2.2,0,0,1,.2-.2h2.2a.18.18,0,0,0,.22-.13.17.17,0,0,0-.08-.19Z"/><path class="cls-12" d="M140.26,240.37l-3.74,3.79a.19.19,0,0,0,0,.26l3.74,3.76a.19.19,0,0,0,.27,0,.17.17,0,0,0,.06-.15v-2.18a.2.2,0,0,1,.2-.2h3.55a.18.18,0,0,0,.18-.18h0v-2.35a.17.17,0,0,0-.06-.24s0,0-.06,0h-3.56a.18.18,0,0,1-.19-.16v-2.17a.2.2,0,0,0-.13-.26.2.2,0,0,0-.26.12Z"/><path class="cls-12" d="M158.17,248.18l3.79-3.77a.2.2,0,0,0,0-.27l-3.79-3.77a.18.18,0,0,0-.27,0,.16.16,0,0,0-.05.11v2.23a.18.18,0,0,1-.17.17H154.1a.18.18,0,0,0-.18.18h0v2.37a.19.19,0,0,0,.16.19h3.58a.19.19,0,0,1,.19.2h0v2.2a.2.2,0,0,0,.22.17l.1,0Z"/><path class="cls-1" d="M154.1,244.62a5,5,0,1,0-6.29,4.75v1.68a3,3,0,1,0,2.79,0v-1.77A4.92,4.92,0,0,0,154.1,244.62Z"/><circle id="e99c3387-15c3-4f28-bd4b-cb209b430e06-2" class="cls-13" cx="149.16" cy="244.6" r="2.88"/><line class="cls-22" x1="149.14" y1="197.12" x2="149.14" y2="226.44"/><line class="cls-22" x1="149.14" y1="132.69" x2="149.14" y2="144.8"/><line class="cls-22" x1="149.14" y1="112.99" x2="149.14" y2="121.66"/><path class="cls-22" d="M100.91,128.09l-2.45,1a4.62,4.62,0,0,0-2.44,4V144.8"/><line class="cls-22" x1="143.96" y1="110.3" x2="115.93" y2="121.88"/><path class="cls-22" d="M144,228.79l-25.25-10.43-5.55-2.29-9.48-3.92L98.46,210A4.6,4.6,0,0,1,96,206v-8.86"/><path class="cls-22" d="M156,228.79l25.26-10.43,5.54-2.29,9.48-3.92L201.5,210a4.58,4.58,0,0,0,2.44-4v-8.86"/><path class="cls-22" d="M199.05,128.09l2.45,1a4.6,4.6,0,0,1,2.44,4V144.8"/><line class="cls-22" x1="156" y1="110.3" x2="184.03" y2="121.88"/><rect class="cls-1" x="10" y="289.3" width="220" height="65"/><rect class="cls-9" x="10" y="289.3" width="220" height="65"/><rect class="cls-24" x="132.5" y="297.3" width="32.47" height="21.65" rx="1.08"/><polygon class="cls-7" points="154.15 304.97 154.15 311.27 148.74 314.44 148.74 308.13 154.15 304.97"/><polygon class="cls-15" points="154.15 304.97 148.74 308.14 143.32 304.97 148.74 301.81 154.15 304.97"/><polygon class="cls-16" points="148.74 308.14 148.74 314.44 143.32 311.27 143.32 304.97 148.74 308.14"/><polygon class="cls-15" points="143.32 311.27 148.74 308.13 148.74 314.44 143.32 311.27"/><polygon class="cls-16" points="154.15 311.27 148.74 308.13 148.74 314.44 154.15 311.27"/><path class="cls-25" d="M155.25,325.5c-3.21-.51-3.34-2.81-3.34-6.55h-6.37c0,3.74-.11,6-3.32,6.55a1.8,1.8,0,0,0-1.6,1.8h16.23A1.79,1.79,0,0,0,155.25,325.5Z"/><rect class="cls-26" x="80" y="297.3" width="32.47" height="21.65" rx="1.08"/><polygon class="cls-7" points="101.65 304.97 101.65 311.27 96.24 314.44 96.24 308.13 101.65 304.97"/><polygon class="cls-15" points="101.65 304.97 96.24 308.14 90.82 304.97 96.24 301.81 101.65 304.97"/><polygon class="cls-16" points="96.24 308.14 96.24 314.44 90.82 311.27 90.82 304.97 96.24 308.14"/><polygon class="cls-15" points="90.82 311.27 96.24 308.13 96.24 314.44 90.82 311.27"/><polygon class="cls-16" points="101.65 311.27 96.24 308.13 96.24 314.44 101.65 311.27"/><path class="cls-27" d="M102.75,325.5c-3.21-.51-3.34-2.81-3.34-6.55H93c0,3.74-.11,6-3.32,6.55a1.8,1.8,0,0,0-1.6,1.8h16.23A1.79,1.79,0,0,0,102.75,325.5Z"/><rect class="cls-28" x="185" y="297.3" width="32.47" height="21.65" rx="1.08"/><polygon class="cls-7" points="206.65 304.97 206.65 311.27 201.24 314.44 201.24 308.13 206.65 304.97"/><polygon class="cls-15" points="206.65 304.97 201.24 308.14 195.82 304.97 201.24 301.81 206.65 304.97"/><polygon class="cls-16" points="201.24 308.14 201.24 314.44 195.82 311.27 195.82 304.97 201.24 308.14"/><polygon class="cls-15" points="195.82 311.27 201.24 308.13 201.24 314.44 195.82 311.27"/><polygon class="cls-16" points="206.65 311.27 201.24 308.13 201.24 314.44 206.65 311.27"/><path class="cls-29" d="M207.75,325.5c-3.21-.51-3.34-2.81-3.34-6.55H198c0,3.74-.11,6-3.32,6.55a1.8,1.8,0,0,0-1.6,1.8h16.23A1.79,1.79,0,0,0,207.75,325.5Z"/><line class="cls-22" x1="149.14" y1="284.6" x2="149.14" y2="296.71"/><line class="cls-22" x1="149.14" y1="262.1" x2="149.14" y2="272.71"/><path class="cls-22" d="M100.91,280l-2.45,1A4.6,4.6,0,0,0,96,285v11.69"/><line class="cls-22" x1="143.96" y1="262.21" x2="121.18" y2="271.62"/><path class="cls-22" d="M195.32,280l2.44,1a4.59,4.59,0,0,1,2.45,4v11.69"/><line class="cls-22" x1="152.27" y1="262.21" x2="175.04" y2="271.62"/></g><g id="text"><path class="cls-30" d="M12.92,391.14H12l-1-1.76a3.38,3.38,0,0,0-.28-.42,2,2,0,0,0-.28-.29,1.3,1.3,0,0,0-.31-.16,1.38,1.38,0,0,0-.37-.05H9.14v2.68H8.4v-6.3h1.89a3.1,3.1,0,0,1,.76.1,1.73,1.73,0,0,1,.6.32,1.4,1.4,0,0,1,.41.52,1.88,1.88,0,0,1,.14.74,1.64,1.64,0,0,1-.1.6,1.39,1.39,0,0,1-.28.49,1.58,1.58,0,0,1-.44.37,2.35,2.35,0,0,1-.58.24h0a1.47,1.47,0,0,1,.28.16,1.52,1.52,0,0,1,.22.22,2.27,2.27,0,0,1,.21.28l.23.36Zm-3.78-5.63v2.28h1a1.46,1.46,0,0,0,.52-.08,1,1,0,0,0,.4-.24.94.94,0,0,0,.27-.38,1.19,1.19,0,0,0,.1-.51,1,1,0,0,0-.33-.79,1.4,1.4,0,0,0-.95-.28Z"/><path class="cls-30" d="M17.05,389.07H13.88a1.66,1.66,0,0,0,.4,1.16,1.36,1.36,0,0,0,1.06.41,2.22,2.22,0,0,0,1.4-.5v.68a2.65,2.65,0,0,1-1.57.43,1.92,1.92,0,0,1-1.5-.62,2.89,2.89,0,0,1,.05-3.43,1.92,1.92,0,0,1,1.48-.66,1.7,1.7,0,0,1,1.37.57,2.4,2.4,0,0,1,.48,1.59Zm-.74-.61a1.44,1.44,0,0,0-.3-1,1,1,0,0,0-.82-.35,1.19,1.19,0,0,0-.87.37,1.72,1.72,0,0,0-.44.95Z"/><path class="cls-30" d="M22,391.14h-.72v-.76h0a1.81,1.81,0,0,1-2.9.26,2.46,2.46,0,0,1-.51-1.64,2.67,2.67,0,0,1,.57-1.79,1.84,1.84,0,0,1,1.5-.67,1.43,1.43,0,0,1,1.34.73h0v-2.79H22Zm-.72-2v-.67a1.28,1.28,0,0,0-.36-.92,1.21,1.21,0,0,0-.91-.38,1.23,1.23,0,0,0-1,.49,2.1,2.1,0,0,0-.38,1.33,1.92,1.92,0,0,0,.36,1.23,1.21,1.21,0,0,0,1,.45,1.23,1.23,0,0,0,1-.43A1.63,1.63,0,0,0,21.27,389.11Z"/><path class="cls-30" d="M29.47,386.64l-1.79,4.5H27l-1.7-4.5h.79l1.14,3.27a2.64,2.64,0,0,1,.16.63h0a2.73,2.73,0,0,1,.14-.61l1.19-3.29Z"/><path class="cls-30" d="M30.62,385.5a.48.48,0,0,1-.33-.13.45.45,0,0,1-.13-.34.44.44,0,0,1,.13-.33.49.49,0,0,1,.33-.14.46.46,0,0,1,.34.14.46.46,0,0,1,0,.66A.42.42,0,0,1,30.62,385.5Zm.36,5.64h-.73v-4.5H31Z"/><path class="cls-30" d="M34.79,387.37a1,1,0,0,0-1.32.29,2.07,2.07,0,0,0-.31,1.19v2.29h-.72v-4.5h.72v.93h0a1.55,1.55,0,0,1,.47-.74,1.07,1.07,0,0,1,.71-.27,1,1,0,0,1,.43.07Z"/><path class="cls-30" d="M37.67,391.1a1.45,1.45,0,0,1-.67.14c-.79,0-1.19-.44-1.19-1.32v-2.66H35v-.62h.77v-1.1l.73-.23v1.33h1.13v.62H36.54v2.53a1.07,1.07,0,0,0,.15.65.6.6,0,0,0,.51.19.75.75,0,0,0,.47-.15Z"/><path class="cls-30" d="M42.28,391.14h-.72v-.71h0a1.47,1.47,0,0,1-1.39.82c-1.07,0-1.61-.64-1.61-1.92v-2.69h.72v2.58c0,.95.36,1.42,1.09,1.42a1.11,1.11,0,0,0,.87-.39,1.52,1.52,0,0,0,.34-1v-2.6h.72Z"/><path class="cls-30" d="M47,391.14h-.72v-.7h0a1.52,1.52,0,0,1-1.39.81,1.45,1.45,0,0,1-1.05-.36,1.24,1.24,0,0,1-.38-.94c0-.84.49-1.33,1.48-1.47l1.35-.19c0-.76-.31-1.15-.92-1.15a2.2,2.2,0,0,0-1.47.56V387a2.79,2.79,0,0,1,1.53-.42c1.06,0,1.58.56,1.58,1.68Zm-.72-2.27-1.08.15a1.79,1.79,0,0,0-.76.24.83.83,0,0,0,0,1.17.92.92,0,0,0,.63.21,1.13,1.13,0,0,0,.88-.37,1.32,1.32,0,0,0,.35-1Z"/><path class="cls-30" d="M49.05,391.14h-.72v-6.66h.72Z"/><path class="cls-30" d="M103.58,269.73v5.55h1.08v.88h-1.08v2h-1v-2H98.68v-.83c.37-.41.74-.86,1.11-1.33s.74-.95,1.08-1.43.66-1,.95-1.45a12.5,12.5,0,0,0,.73-1.39Zm-3.82,5.55h2.87v-4.11c-.29.51-.57,1-.83,1.37s-.51.77-.75,1.1-.46.62-.68.89Z"/><path class="cls-30" d="M110.06,269.73v5.55h1.08v.88h-1.08v2h-1v-2h-4v-.83c.37-.41.74-.86,1.11-1.33s.74-.95,1.08-1.43.66-1,1-1.45a12.5,12.5,0,0,0,.73-1.39Zm-3.81,5.55h2.86v-4.11c-.29.51-.57,1-.83,1.37s-.51.77-.75,1.1-.46.62-.68.89Z"/><path class="cls-30" d="M117.14,275.76a2.46,2.46,0,0,1-.21,1,2.25,2.25,0,0,1-.6.8,2.83,2.83,0,0,1-.94.51,3.78,3.78,0,0,1-1.2.18,3.53,3.53,0,0,1-1.91-.45v-1a3.06,3.06,0,0,0,2,.67,2.48,2.48,0,0,0,.79-.11,1.69,1.69,0,0,0,.61-.32,1.39,1.39,0,0,0,.39-.51,1.6,1.6,0,0,0,.14-.67q0-1.65-2.34-1.65h-.7v-.82h.66c1.38,0,2.07-.51,2.07-1.54s-.52-1.43-1.58-1.43a2.7,2.7,0,0,0-1.67.6v-.94a3.66,3.66,0,0,1,1.91-.48,2.93,2.93,0,0,1,1,.15,2.16,2.16,0,0,1,.73.41,1.93,1.93,0,0,1,.47.63,2,2,0,0,1,.17.82,2.06,2.06,0,0,1-1.68,2.13v0a2.78,2.78,0,0,1,.79.21,2,2,0,0,1,.63.42,1.73,1.73,0,0,1,.41.61A1.92,1.92,0,0,1,117.14,275.76Z"/><path class="cls-30" d="M144.53,274.79v5.55h1.08v.88h-1.08v2h-.95v-2h-4v-.83c.37-.42.74-.86,1.11-1.33s.74-.95,1.08-1.43.66-1,1-1.45a13.45,13.45,0,0,0,.73-1.39Zm-3.82,5.55h2.87v-4.11c-.29.51-.57,1-.83,1.37s-.51.77-.75,1.09-.46.63-.68.89Z"/><path class="cls-30" d="M151,274.79v5.55h1.08v.88H151v2h-.95v-2h-3.95v-.83c.37-.42.74-.86,1.11-1.33s.74-.95,1.08-1.43.66-1,.95-1.45a13.45,13.45,0,0,0,.73-1.39Zm-3.82,5.55h2.87v-4.11c-.29.51-.57,1-.83,1.37s-.51.77-.75,1.09-.46.63-.68.89Z"/><path class="cls-30" d="M158.09,280.82a2.5,2.5,0,0,1-.21,1,2.25,2.25,0,0,1-.6.8,2.83,2.83,0,0,1-.94.51,3.78,3.78,0,0,1-1.2.18,3.44,3.44,0,0,1-1.91-.46v-1a3,3,0,0,0,1.94.67,2.81,2.81,0,0,0,.8-.11,1.86,1.86,0,0,0,.61-.32,1.39,1.39,0,0,0,.39-.51,1.65,1.65,0,0,0,.14-.68c0-1.09-.78-1.64-2.35-1.64h-.69v-.82h.66c1.38,0,2.07-.51,2.07-1.54s-.52-1.43-1.58-1.43a2.75,2.75,0,0,0-1.67.59v-.93a3.66,3.66,0,0,1,1.91-.48,2.93,2.93,0,0,1,1,.15,2.16,2.16,0,0,1,.73.41,1.74,1.74,0,0,1,.47.63,2,2,0,0,1,.17.82,2.06,2.06,0,0,1-1.68,2.13v0a2.49,2.49,0,0,1,.79.21,2.17,2.17,0,0,1,.63.42,1.78,1.78,0,0,1,.41.6A2,2,0,0,1,158.09,280.82Z"/><path class="cls-30" d="M181.48,269.73v5.55h1.08v.88h-1.08v2h-.94v-2h-3.95v-.83c.36-.41.73-.86,1.11-1.33s.73-.95,1.07-1.43.66-1,.95-1.45a12.65,12.65,0,0,0,.74-1.39Zm-3.81,5.55h2.87v-4.11c-.3.51-.58,1-.84,1.37s-.51.77-.74,1.1l-.68.89C178.06,274.79,177.86,275,177.67,275.28Z"/><path class="cls-30" d="M188,269.73v5.55H189v.88H188v2H187v-2h-4v-.83c.36-.41.74-.86,1.11-1.33s.73-.95,1.08-1.43.65-1,1-1.45a12.5,12.5,0,0,0,.73-1.39Zm-3.82,5.55H187v-4.11c-.3.51-.57,1-.84,1.37s-.51.77-.74,1.1-.46.62-.68.89Z"/><path class="cls-30" d="M195.05,275.76a2.46,2.46,0,0,1-.21,1,2.4,2.4,0,0,1-.61.8,2.79,2.79,0,0,1-.93.51,3.87,3.87,0,0,1-1.2.18,3.53,3.53,0,0,1-1.91-.45v-1a3,3,0,0,0,1.94.67,2.54,2.54,0,0,0,.8-.11,1.78,1.78,0,0,0,.61-.32,1.39,1.39,0,0,0,.39-.51,1.6,1.6,0,0,0,.14-.67c0-1.1-.79-1.65-2.35-1.65H191v-.82h.67c1.38,0,2.07-.51,2.07-1.54s-.53-1.43-1.58-1.43a2.68,2.68,0,0,0-1.67.6v-.94a3.64,3.64,0,0,1,1.91-.48,2.83,2.83,0,0,1,1,.15,2.21,2.21,0,0,1,.74.41,1.93,1.93,0,0,1,.47.63,2,2,0,0,1,.17.82,2.06,2.06,0,0,1-1.68,2.13v0a3.27,3.27,0,0,1,.79.21,2.31,2.31,0,0,1,.63.42,2,2,0,0,1,.41.61A1.92,1.92,0,0,1,195.05,275.76Z"/><path class="cls-30" d="M143.52,129a2.27,2.27,0,0,1,.1-.67,2.31,2.31,0,0,1,.31-.63,2.65,2.65,0,0,1,.48-.53,2.41,2.41,0,0,1,.66-.38,2.52,2.52,0,0,1-.87-.78,1.89,1.89,0,0,1-.32-1.06,2,2,0,0,1,.68-1.54,2.16,2.16,0,0,1,.75-.44,2.56,2.56,0,0,1,.93-.16,2.67,2.67,0,0,1,.95.16,2.34,2.34,0,0,1,.75.45,2.08,2.08,0,0,1,.49.68,2,2,0,0,1,.17.85,1.81,1.81,0,0,1-.32,1.06,2.46,2.46,0,0,1-.85.78,2.22,2.22,0,0,1,.65.38,2.65,2.65,0,0,1,.48.53,2.6,2.6,0,0,1,.3.63,2.29,2.29,0,0,1,.11.67,2.53,2.53,0,0,1-.2,1,2.11,2.11,0,0,1-.56.78,2.55,2.55,0,0,1-.86.51,3.27,3.27,0,0,1-1.11.18,3.16,3.16,0,0,1-1.09-.18,2.55,2.55,0,0,1-.86-.51,2.13,2.13,0,0,1-.57-.78A2.53,2.53,0,0,1,143.52,129Zm1-.08a2,2,0,0,0,.12.71,1.66,1.66,0,0,0,.34.54,1.55,1.55,0,0,0,.53.34,2,2,0,0,0,.7.12,1.87,1.87,0,0,0,.68-.12,1.49,1.49,0,0,0,.53-.35,1.42,1.42,0,0,0,.36-.53,2,2,0,0,0,.12-.71,1.84,1.84,0,0,0-.12-.66,1.7,1.7,0,0,0-.34-.54,1.8,1.8,0,0,0-.53-.37,1.75,1.75,0,0,0-.7-.13,1.81,1.81,0,0,0-.67.12,1.65,1.65,0,0,0-.54.36,1.69,1.69,0,0,0-.48,1.22Zm.3-3.89a1.42,1.42,0,0,0,.11.55,1.37,1.37,0,0,0,.3.45,1.35,1.35,0,0,0,.44.29,1.38,1.38,0,0,0,1.08,0,1.23,1.23,0,0,0,.44-.3,1.37,1.37,0,0,0,.3-.45,1.24,1.24,0,0,0,.11-.54,1.52,1.52,0,0,0-.1-.57,1.55,1.55,0,0,0-.3-.44,1.32,1.32,0,0,0-.44-.3,1.46,1.46,0,0,0-.55-.11,1.44,1.44,0,0,0-1,.42,1.28,1.28,0,0,0-.28.45A1.42,1.42,0,0,0,144.86,125Z"/><path class="cls-30" d="M155.45,127.08a8.62,8.62,0,0,1-.19,1.87,4.57,4.57,0,0,1-.55,1.38,2.46,2.46,0,0,1-.89.84,2.54,2.54,0,0,1-2.32,0,2.38,2.38,0,0,1-.83-.81,4.22,4.22,0,0,1-.52-1.31,8,8,0,0,1-.17-1.78,9.38,9.38,0,0,1,.18-2,4.32,4.32,0,0,1,.54-1.41,2.36,2.36,0,0,1,2.11-1.15Q155.45,122.78,155.45,127.08Zm-1,.1c0-2.39-.56-3.59-1.7-3.59s-1.8,1.22-1.8,3.65c0,2.27.59,3.4,1.76,3.4S154.46,129.49,154.46,127.18Z"/><path class="cls-30" d="M184.11,129a2.29,2.29,0,0,1,.11-.67,2.6,2.6,0,0,1,.3-.63,2.43,2.43,0,0,1,.49-.53,2.15,2.15,0,0,1,.66-.38,2.36,2.36,0,0,1-.87-.78,1.81,1.81,0,0,1-.32-1.06,2.07,2.07,0,0,1,.18-.86,2.19,2.19,0,0,1,.49-.68,2.16,2.16,0,0,1,.75-.44,2.84,2.84,0,0,1,1.88,0,2.34,2.34,0,0,1,.75.45,1.94,1.94,0,0,1,.49.68,2,2,0,0,1,.18.85,1.89,1.89,0,0,1-.32,1.06,2.49,2.49,0,0,1-.86.78,2.22,2.22,0,0,1,.65.38,2.71,2.71,0,0,1,.49.53,2.6,2.6,0,0,1,.3.63,2.27,2.27,0,0,1,.1.67,2.37,2.37,0,0,1-.2,1,2.11,2.11,0,0,1-.56.78,2.46,2.46,0,0,1-.86.51,3.21,3.21,0,0,1-1.1.18,3.25,3.25,0,0,1-1.1-.18,2.55,2.55,0,0,1-.86-.51,2.11,2.11,0,0,1-.56-.78A2.37,2.37,0,0,1,184.11,129Zm1-.08a2,2,0,0,0,.12.71,1.5,1.5,0,0,0,.34.54,1.38,1.38,0,0,0,.53.34,1.92,1.92,0,0,0,.69.12,1.83,1.83,0,0,0,.68-.12,1.53,1.53,0,0,0,.54-.35,1.4,1.4,0,0,0,.35-.53,1.94,1.94,0,0,0,0-1.37,1.9,1.9,0,0,0-.34-.54,1.73,1.73,0,0,0-.54-.37,1.75,1.75,0,0,0-.7-.13,1.85,1.85,0,0,0-.67.12,1.61,1.61,0,0,0-.53.36,1.58,1.58,0,0,0-.35.53A1.73,1.73,0,0,0,185.16,128.89Zm.3-3.89a1.42,1.42,0,0,0,.1.55,1.77,1.77,0,0,0,.3.45,1.51,1.51,0,0,0,.45.29,1.17,1.17,0,0,0,.53.11,1.26,1.26,0,0,0,.55-.11,1.32,1.32,0,0,0,.44-.3,1.77,1.77,0,0,0,.3-.45,1.41,1.41,0,0,0,.11-.54,1.52,1.52,0,0,0-.11-.57,1.43,1.43,0,0,0-.74-.74,1.42,1.42,0,0,0-.55-.11,1.31,1.31,0,0,0-.56.12,1.23,1.23,0,0,0-.44.3,1.15,1.15,0,0,0-.28.45A1.42,1.42,0,0,0,185.46,125Z"/><path class="cls-30" d="M196,127.08a8,8,0,0,1-.19,1.87,4.33,4.33,0,0,1-.55,1.38,2.43,2.43,0,0,1-.88.84,2.36,2.36,0,0,1-1.19.29,2.3,2.3,0,0,1-1.13-.27,2.49,2.49,0,0,1-.84-.81,4.22,4.22,0,0,1-.51-1.31,7.93,7.93,0,0,1-.18-1.78,8.71,8.71,0,0,1,.19-2,4.32,4.32,0,0,1,.54-1.41,2.36,2.36,0,0,1,2.1-1.15Q196,122.78,196,127.08Zm-1,.1c0-2.39-.57-3.59-1.71-3.59s-1.79,1.22-1.79,3.65c0,2.27.58,3.4,1.76,3.4S195.06,129.49,195.06,127.18Z"/><path class="cls-30" d="M103.82,129a2.29,2.29,0,0,1,.11-.67,2.6,2.6,0,0,1,.3-.63,2.43,2.43,0,0,1,.49-.53,2.22,2.22,0,0,1,.65-.38,2.4,2.4,0,0,1-.86-.78,1.81,1.81,0,0,1-.32-1.06,2.06,2.06,0,0,1,.17-.86,2.22,2.22,0,0,1,.5-.68,2.16,2.16,0,0,1,.75-.44,2.84,2.84,0,0,1,1.88,0,2.34,2.34,0,0,1,.75.45,2.08,2.08,0,0,1,.49.68,2,2,0,0,1,.18.85,1.89,1.89,0,0,1-.32,1.06,2.49,2.49,0,0,1-.86.78,2.22,2.22,0,0,1,.65.38,2.55,2.55,0,0,1,.79,1.16,2.27,2.27,0,0,1,.1.67,2.53,2.53,0,0,1-.2,1,2.11,2.11,0,0,1-.56.78,2.55,2.55,0,0,1-.86.51,3.45,3.45,0,0,1-2.2,0,2.55,2.55,0,0,1-.86-.51A2.25,2.25,0,0,1,104,130,2.53,2.53,0,0,1,103.82,129Zm1-.08a2,2,0,0,0,.12.71,1.66,1.66,0,0,0,.34.54,1.5,1.5,0,0,0,.54.34,1.92,1.92,0,0,0,.69.12,1.87,1.87,0,0,0,.68-.12,1.53,1.53,0,0,0,.54-.35,1.4,1.4,0,0,0,.35-.53,2,2,0,0,0,.13-.71,1.84,1.84,0,0,0-.12-.66,1.73,1.73,0,0,0-.35-.54,1.68,1.68,0,0,0-.53-.37,1.75,1.75,0,0,0-.7-.13,1.85,1.85,0,0,0-.67.12,1.61,1.61,0,0,0-.53.36,1.77,1.77,0,0,0-.36.53A1.93,1.93,0,0,0,104.86,128.89Zm.3-3.89a1.42,1.42,0,0,0,.11.55,1.37,1.37,0,0,0,.3.45,1.6,1.6,0,0,0,.44.29,1.38,1.38,0,0,0,1.08,0,1.37,1.37,0,0,0,.45-.3,1.77,1.77,0,0,0,.3-.45A1.41,1.41,0,0,0,108,125a1.52,1.52,0,0,0-.11-.57,1.43,1.43,0,0,0-.74-.74,1.42,1.42,0,0,0-.55-.11,1.31,1.31,0,0,0-.56.12,1.23,1.23,0,0,0-.44.3,1.17,1.17,0,0,0-.29.45A1.63,1.63,0,0,0,105.16,125Z"/><path class="cls-30" d="M115.75,127.08a8,8,0,0,1-.19,1.87,4.57,4.57,0,0,1-.55,1.38,2.43,2.43,0,0,1-.88.84,2.37,2.37,0,0,1-1.2.29,2.29,2.29,0,0,1-1.12-.27,2.49,2.49,0,0,1-.84-.81,4,4,0,0,1-.51-1.31,7.93,7.93,0,0,1-.18-1.78,9.38,9.38,0,0,1,.18-2,4.56,4.56,0,0,1,.55-1.41,2.34,2.34,0,0,1,.88-.86,2.45,2.45,0,0,1,1.22-.29Q115.75,122.78,115.75,127.08Zm-1,.1c0-2.39-.57-3.59-1.71-3.59s-1.8,1.22-1.8,3.65c0,2.27.59,3.4,1.77,3.4S114.77,129.49,114.77,127.18Z"/><path class="cls-30" d="M138.68,185.8h-.74v-4.22q0-.51.06-1.23h0a4.62,4.62,0,0,1-.19.61l-2.16,4.84h-.36l-2.14-4.8a2.9,2.9,0,0,1-.19-.65h0q0,.38,0,1.23v4.22h-.71v-6.3h1l1.93,4.4a5.05,5.05,0,0,1,.29.75h0c.12-.34.23-.6.3-.77l2-4.38h.93Z"/><path class="cls-30" d="M143.47,185.8h-.72v-.7h0a1.51,1.51,0,0,1-1.39.81,1.47,1.47,0,0,1-1.05-.36,1.23,1.23,0,0,1-.38-.94c0-.84.5-1.33,1.49-1.47l1.35-.19c0-.76-.31-1.15-.93-1.15a2.23,2.23,0,0,0-1.47.56v-.74a2.79,2.79,0,0,1,1.53-.42q1.59,0,1.59,1.68Zm-.72-2.27-1.09.15a1.79,1.79,0,0,0-.75.24.73.73,0,0,0-.26.64.65.65,0,0,0,.24.53.88.88,0,0,0,.62.21,1.17,1.17,0,0,0,.89-.37,1.36,1.36,0,0,0,.35-1Zm.09-4.52-1.15,1.44h-.56l1-1.44Z"/><path class="cls-30" d="M148.67,187.87H148V185h0a1.62,1.62,0,0,1-1.54.88,1.67,1.67,0,0,1-1.36-.61,2.46,2.46,0,0,1-.51-1.64,2.67,2.67,0,0,1,.56-1.79,1.86,1.86,0,0,1,1.51-.67,1.42,1.42,0,0,1,1.34.73h0v-.63h.72Zm-.72-4.09v-.66a1.29,1.29,0,0,0-.36-.93,1.2,1.2,0,0,0-.92-.39,1.23,1.23,0,0,0-1,.49,2.15,2.15,0,0,0-.38,1.35,1.87,1.87,0,0,0,.37,1.22,1.15,1.15,0,0,0,.94.44,1.27,1.27,0,0,0,1-.43A1.6,1.6,0,0,0,148,183.78Z"/><path class="cls-30" d="M153.78,185.8h-.72v-.71h0a1.47,1.47,0,0,1-1.39.82c-1.07,0-1.6-.64-1.6-1.92V181.3h.71v2.58c0,1,.37,1.42,1.09,1.42a1.11,1.11,0,0,0,.87-.39,1.45,1.45,0,0,0,.34-1v-2.6h.72Z"/><path class="cls-30" d="M155.61,180.16a.44.44,0,0,1-.32-.13.42.42,0,0,1-.14-.33.42.42,0,0,1,.14-.34.44.44,0,0,1,.32-.13.45.45,0,0,1,.34.13.46.46,0,0,1,.14.34.45.45,0,0,1-.14.32A.42.42,0,0,1,155.61,180.16Zm.36,5.64h-.72v-4.5H156Z"/><path class="cls-30" d="M161.17,185.8h-.72v-2.56q0-1.44-1-1.44a1.12,1.12,0,0,0-.89.41,1.49,1.49,0,0,0-.36,1v2.56h-.72v-4.5h.72v.75h0a1.62,1.62,0,0,1,1.48-.85,1.4,1.4,0,0,1,1.13.47,2.14,2.14,0,0,1,.39,1.38Z"/><path class="cls-30" d="M165.76,185.8H165v-.7h0a1.51,1.51,0,0,1-1.39.81,1.49,1.49,0,0,1-1-.36,1.23,1.23,0,0,1-.38-.94c0-.84.5-1.33,1.49-1.47L165,183c0-.76-.31-1.15-.93-1.15a2.23,2.23,0,0,0-1.47.56v-.74a2.79,2.79,0,0,1,1.53-.42q1.59,0,1.59,1.68Zm-.72-2.27-1.09.15a1.79,1.79,0,0,0-.75.24.73.73,0,0,0-.26.64.65.65,0,0,0,.24.53.88.88,0,0,0,.62.21,1.17,1.17,0,0,0,.89-.37,1.36,1.36,0,0,0,.35-1Z"/><path class="cls-30" d="M140.89,191.3l-1.8,4.5h-.71l-1.7-4.5h.79l1.14,3.27a2.64,2.64,0,0,1,.16.63h0a3.42,3.42,0,0,1,.14-.61l1.2-3.29Z"/><path class="cls-30" d="M142,190.16a.44.44,0,0,1-.33-.13.45.45,0,0,1-.14-.33.46.46,0,0,1,.14-.34.48.48,0,0,1,.66,0,.42.42,0,0,1,.14.34.41.41,0,0,1-.14.32A.42.42,0,0,1,142,190.16Zm.35,5.64h-.72v-4.5h.72Z"/><path class="cls-30" d="M146.2,192a1,1,0,0,0-1.31.29,2,2,0,0,0-.31,1.19v2.29h-.72v-4.5h.72v.93h0a1.62,1.62,0,0,1,.48-.74,1,1,0,0,1,.7-.27,1.16,1.16,0,0,1,.43.07Z"/><path class="cls-30" d="M149.08,195.76a1.42,1.42,0,0,1-.67.14c-.79,0-1.18-.44-1.18-1.32v-2.66h-.78v-.62h.78v-1.09L148,190v1.33h1.13v.62H148v2.53a1.07,1.07,0,0,0,.15.65.6.6,0,0,0,.51.19.75.75,0,0,0,.47-.15Z"/><path class="cls-30" d="M153.69,195.8H153v-.71h0a1.46,1.46,0,0,1-1.38.82c-1.08,0-1.61-.64-1.61-1.92V191.3h.71v2.58c0,1,.37,1.42,1.09,1.42a1.11,1.11,0,0,0,.87-.39,1.45,1.45,0,0,0,.34-1v-2.6h.72Z"/><path class="cls-30" d="M158.38,195.8h-.72v-.7h0a1.51,1.51,0,0,1-1.39.81,1.49,1.49,0,0,1-1.05-.36,1.23,1.23,0,0,1-.38-.94c0-.84.5-1.33,1.49-1.47l1.35-.19c0-.76-.31-1.15-.93-1.15a2.23,2.23,0,0,0-1.47.56v-.74a2.79,2.79,0,0,1,1.53-.42q1.59,0,1.59,1.68Zm-.72-2.27-1.09.15a1.84,1.84,0,0,0-.76.24.72.72,0,0,0-.25.64.67.67,0,0,0,.23.53.92.92,0,0,0,.63.21,1.17,1.17,0,0,0,.89-.37,1.36,1.36,0,0,0,.35-1Z"/><path class="cls-30" d="M160.46,195.8h-.72v-6.66h.72Z"/><path class="cls-30" d="M86,185.8h-.74v-4.22q0-.51.06-1.23h0a4.62,4.62,0,0,1-.19.61L83,185.8h-.36L80.47,181a2.9,2.9,0,0,1-.19-.65h0q0,.38,0,1.23v4.22h-.71v-6.3h1l1.93,4.4a5.05,5.05,0,0,1,.29.75h0c.12-.34.22-.6.3-.77l2-4.38H86Z"/><path class="cls-30" d="M90.8,185.8h-.72v-.7h0a1.51,1.51,0,0,1-1.39.81,1.49,1.49,0,0,1-1-.36,1.23,1.23,0,0,1-.38-.94c0-.84.5-1.33,1.49-1.47l1.35-.19c0-.76-.31-1.15-.93-1.15a2.23,2.23,0,0,0-1.47.56v-.74a2.79,2.79,0,0,1,1.53-.42q1.59,0,1.59,1.68Zm-.72-2.27-1.09.15a1.84,1.84,0,0,0-.76.24.72.72,0,0,0-.25.64.65.65,0,0,0,.24.53.88.88,0,0,0,.62.21,1.17,1.17,0,0,0,.89-.37,1.36,1.36,0,0,0,.35-1Zm.09-4.52L89,180.45h-.56l1-1.44Z"/><path class="cls-30" d="M96,187.87h-.72V185h0a1.62,1.62,0,0,1-1.54.88,1.67,1.67,0,0,1-1.36-.61,2.46,2.46,0,0,1-.51-1.64,2.67,2.67,0,0,1,.56-1.79,1.86,1.86,0,0,1,1.51-.67,1.42,1.42,0,0,1,1.34.73h0v-.63H96Zm-.72-4.09v-.66a1.29,1.29,0,0,0-.36-.93,1.2,1.2,0,0,0-.92-.39,1.23,1.23,0,0,0-1,.49,2.15,2.15,0,0,0-.38,1.35,1.87,1.87,0,0,0,.37,1.22,1.15,1.15,0,0,0,.94.44,1.27,1.27,0,0,0,1-.43A1.6,1.6,0,0,0,95.28,183.78Z"/><path class="cls-30" d="M101.11,185.8h-.72v-.71h0a1.47,1.47,0,0,1-1.39.82c-1.07,0-1.6-.64-1.6-1.92V181.3h.71v2.58c0,1,.37,1.42,1.09,1.42a1.11,1.11,0,0,0,.87-.39,1.45,1.45,0,0,0,.34-1v-2.6h.72Z"/><path class="cls-30" d="M102.94,180.16a.48.48,0,0,1-.33-.13.44.44,0,0,1-.13-.33.45.45,0,0,1,.13-.34.48.48,0,0,1,.33-.13.45.45,0,0,1,.34.13.46.46,0,0,1,.14.34.45.45,0,0,1-.14.32A.42.42,0,0,1,102.94,180.16Zm.36,5.64h-.72v-4.5h.72Z"/><path class="cls-30" d="M108.5,185.8h-.72v-2.56q0-1.44-1-1.44a1.12,1.12,0,0,0-.89.41,1.49,1.49,0,0,0-.36,1v2.56h-.72v-4.5h.72v.75h0a1.62,1.62,0,0,1,1.48-.85,1.4,1.4,0,0,1,1.13.47,2.14,2.14,0,0,1,.39,1.38Z"/><path class="cls-30" d="M113.09,185.8h-.72v-.7h0a1.51,1.51,0,0,1-1.39.81,1.49,1.49,0,0,1-1-.36,1.23,1.23,0,0,1-.38-.94c0-.84.5-1.33,1.49-1.47l1.35-.19c0-.76-.31-1.15-.93-1.15a2.23,2.23,0,0,0-1.47.56v-.74a2.79,2.79,0,0,1,1.53-.42q1.59,0,1.59,1.68Zm-.72-2.27-1.09.15a1.79,1.79,0,0,0-.75.24.73.73,0,0,0-.26.64.65.65,0,0,0,.24.53.88.88,0,0,0,.62.21,1.17,1.17,0,0,0,.89-.37,1.36,1.36,0,0,0,.35-1Z"/><path class="cls-30" d="M88.22,191.3l-1.8,4.5h-.71L84,191.3h.79l1.14,3.27a2.64,2.64,0,0,1,.16.63h0a3.42,3.42,0,0,1,.14-.61l1.2-3.29Z"/><path class="cls-30" d="M89.37,190.16A.44.44,0,0,1,89,190a.45.45,0,0,1-.14-.33.46.46,0,0,1,.14-.34.48.48,0,0,1,.66,0,.42.42,0,0,1,.14.34.41.41,0,0,1-.14.32A.42.42,0,0,1,89.37,190.16Zm.35,5.64H89v-4.5h.72Z"/><path class="cls-30" d="M93.53,192a1,1,0,0,0-1.31.29,2,2,0,0,0-.31,1.19v2.29h-.72v-4.5h.72v.93h0a1.62,1.62,0,0,1,.48-.74,1,1,0,0,1,.7-.27,1.16,1.16,0,0,1,.43.07Z"/><path class="cls-30" d="M96.41,195.76a1.42,1.42,0,0,1-.67.14c-.79,0-1.18-.44-1.18-1.32v-2.66h-.78v-.62h.78v-1.09l.72-.24v1.33h1.13v.62H95.28v2.53a1.07,1.07,0,0,0,.15.65.6.6,0,0,0,.51.19.75.75,0,0,0,.47-.15Z"/><path class="cls-30" d="M101,195.8h-.72v-.71h0a1.47,1.47,0,0,1-1.38.82c-1.08,0-1.61-.64-1.61-1.92V191.3H98v2.58c0,1,.37,1.42,1.09,1.42a1.11,1.11,0,0,0,.87-.39,1.45,1.45,0,0,0,.34-1v-2.6H101Z"/><path class="cls-30" d="M105.71,195.8H105v-.7h0a1.52,1.52,0,0,1-1.39.81,1.47,1.47,0,0,1-1-.36,1.23,1.23,0,0,1-.38-.94c0-.84.5-1.33,1.49-1.47L105,193c0-.76-.31-1.15-.93-1.15a2.23,2.23,0,0,0-1.47.56v-.74a2.79,2.79,0,0,1,1.53-.42q1.59,0,1.59,1.68Zm-.72-2.27-1.09.15a1.84,1.84,0,0,0-.76.24.72.72,0,0,0-.25.64.65.65,0,0,0,.24.53.88.88,0,0,0,.62.21,1.17,1.17,0,0,0,.89-.37,1.36,1.36,0,0,0,.35-1Z"/><path class="cls-30" d="M107.79,195.8h-.72v-6.66h.72Z"/><path class="cls-30" d="M191,185.8h-.74v-4.22q0-.51.06-1.23h0a4.62,4.62,0,0,1-.19.61L188,185.8h-.36l-2.15-4.8a3.7,3.7,0,0,1-.18-.65h0q0,.38,0,1.23v4.22h-.71v-6.3h1l1.93,4.4a5.05,5.05,0,0,1,.29.75h0c.12-.34.22-.6.3-.77l2-4.38H191Z"/><path class="cls-30" d="M195.8,185.8h-.72v-.7h0a1.51,1.51,0,0,1-1.39.81,1.49,1.49,0,0,1-1-.36,1.23,1.23,0,0,1-.38-.94c0-.84.5-1.33,1.49-1.47l1.35-.19c0-.76-.31-1.15-.93-1.15a2.23,2.23,0,0,0-1.47.56v-.74a2.79,2.79,0,0,1,1.53-.42q1.59,0,1.59,1.68Zm-.72-2.27-1.09.15a1.84,1.84,0,0,0-.76.24.72.72,0,0,0-.25.64.67.67,0,0,0,.23.53.92.92,0,0,0,.63.21,1.17,1.17,0,0,0,.89-.37,1.36,1.36,0,0,0,.35-1Zm.09-4.52L194,180.45h-.56l1-1.44Z"/><path class="cls-30" d="M201,187.87h-.72V185h0a1.62,1.62,0,0,1-1.54.88,1.67,1.67,0,0,1-1.36-.61,2.46,2.46,0,0,1-.51-1.64,2.67,2.67,0,0,1,.56-1.79,1.86,1.86,0,0,1,1.51-.67,1.42,1.42,0,0,1,1.34.73h0v-.63H201Zm-.72-4.09v-.66a1.29,1.29,0,0,0-.36-.93,1.2,1.2,0,0,0-.92-.39,1.23,1.23,0,0,0-1,.49,2.15,2.15,0,0,0-.38,1.35,1.87,1.87,0,0,0,.37,1.22,1.15,1.15,0,0,0,.94.44,1.27,1.27,0,0,0,1-.43A1.6,1.6,0,0,0,200.28,183.78Z"/><path class="cls-30" d="M206.11,185.8h-.72v-.71h0a1.47,1.47,0,0,1-1.39.82c-1.07,0-1.6-.64-1.6-1.92V181.3h.71v2.58c0,1,.37,1.42,1.09,1.42a1.11,1.11,0,0,0,.87-.39,1.45,1.45,0,0,0,.34-1v-2.6h.72Z"/><path class="cls-30" d="M207.94,180.16a.48.48,0,0,1-.33-.13.44.44,0,0,1-.13-.33.45.45,0,0,1,.13-.34.48.48,0,0,1,.33-.13.45.45,0,0,1,.34.13.46.46,0,0,1,.14.34.45.45,0,0,1-.14.32A.42.42,0,0,1,207.94,180.16Zm.36,5.64h-.72v-4.5h.72Z"/><path class="cls-30" d="M213.5,185.8h-.72v-2.56q0-1.44-1.05-1.44a1.12,1.12,0,0,0-.89.41,1.49,1.49,0,0,0-.36,1v2.56h-.72v-4.5h.72v.75h0a1.62,1.62,0,0,1,1.48-.85,1.4,1.4,0,0,1,1.13.47,2.14,2.14,0,0,1,.39,1.38Z"/><path class="cls-30" d="M218.09,185.8h-.72v-.7h0a1.51,1.51,0,0,1-1.39.81,1.49,1.49,0,0,1-1.05-.36,1.23,1.23,0,0,1-.38-.94c0-.84.5-1.33,1.49-1.47l1.35-.19c0-.76-.31-1.15-.93-1.15a2.23,2.23,0,0,0-1.47.56v-.74a2.79,2.79,0,0,1,1.53-.42q1.59,0,1.59,1.68Zm-.72-2.27-1.09.15a1.79,1.79,0,0,0-.75.24.73.73,0,0,0-.26.64.65.65,0,0,0,.24.53.88.88,0,0,0,.62.21,1.17,1.17,0,0,0,.89-.37,1.36,1.36,0,0,0,.35-1Z"/><path class="cls-30" d="M193.21,191.3l-1.79,4.5h-.71l-1.7-4.5h.79l1.14,3.27a2.64,2.64,0,0,1,.16.63h0a3.42,3.42,0,0,1,.14-.61l1.2-3.29Z"/><path class="cls-30" d="M194.37,190.16A.44.44,0,0,1,194,190a.45.45,0,0,1-.14-.33.46.46,0,0,1,.14-.34.48.48,0,0,1,.66,0,.46.46,0,0,1,.14.34.45.45,0,0,1-.14.32A.42.42,0,0,1,194.37,190.16Zm.35,5.64H194v-4.5h.72Z"/><path class="cls-30" d="M198.53,192a1,1,0,0,0-1.31.29,2,2,0,0,0-.31,1.19v2.29h-.72v-4.5h.72v.93h0a1.69,1.69,0,0,1,.47-.74,1.09,1.09,0,0,1,.71-.27,1.16,1.16,0,0,1,.43.07Z"/><path class="cls-30" d="M201.41,195.76a1.42,1.42,0,0,1-.67.14c-.79,0-1.18-.44-1.18-1.32v-2.66h-.78v-.62h.78v-1.09l.72-.24v1.33h1.13v.62h-1.13v2.53a1.07,1.07,0,0,0,.15.65.6.6,0,0,0,.51.19.75.75,0,0,0,.47-.15Z"/><path class="cls-30" d="M206,195.8h-.72v-.71h0a1.47,1.47,0,0,1-1.39.82c-1.07,0-1.6-.64-1.6-1.92V191.3H203v2.58c0,1,.37,1.42,1.09,1.42a1.11,1.11,0,0,0,.87-.39,1.45,1.45,0,0,0,.34-1v-2.6H206Z"/><path class="cls-30" d="M210.71,195.8H210v-.7h0a1.52,1.52,0,0,1-1.39.81,1.47,1.47,0,0,1-1.05-.36,1.23,1.23,0,0,1-.38-.94c0-.84.5-1.33,1.49-1.47L210,193c0-.76-.31-1.15-.93-1.15a2.23,2.23,0,0,0-1.47.56v-.74a2.79,2.79,0,0,1,1.53-.42q1.59,0,1.59,1.68Zm-.72-2.27-1.09.15a1.84,1.84,0,0,0-.76.24.72.72,0,0,0-.25.64.65.65,0,0,0,.24.53.88.88,0,0,0,.62.21,1.17,1.17,0,0,0,.89-.37,1.36,1.36,0,0,0,.35-1Z"/><path class="cls-30" d="M212.79,195.8h-.72v-6.66h.72Z"/><path class="cls-30" d="M27.61,316.89V316a1.61,1.61,0,0,0,.36.24,2.53,2.53,0,0,0,.44.18l.46.11a3.44,3.44,0,0,0,.43,0,1.7,1.7,0,0,0,1-.26.84.84,0,0,0,.33-.72.84.84,0,0,0-.11-.45,1.23,1.23,0,0,0-.31-.34,2.93,2.93,0,0,0-.47-.3l-.58-.3a7,7,0,0,1-.61-.34,2.44,2.44,0,0,1-.5-.38,1.43,1.43,0,0,1-.33-.47,1.41,1.41,0,0,1-.12-.61,1.39,1.39,0,0,1,.19-.75,1.62,1.62,0,0,1,.49-.52,2.33,2.33,0,0,1,.7-.31,3.15,3.15,0,0,1,.81-.1,3,3,0,0,1,1.35.22v.83a2.51,2.51,0,0,0-1.43-.38,2,2,0,0,0-.48,0,1.37,1.37,0,0,0-.43.16,1,1,0,0,0-.31.3.76.76,0,0,0-.12.44.86.86,0,0,0,.09.41.91.91,0,0,0,.27.32,3.05,3.05,0,0,0,.42.29l.59.29c.22.12.44.23.64.36a2.73,2.73,0,0,1,.53.4,1.92,1.92,0,0,1,.36.5,1.38,1.38,0,0,1,.14.62,1.52,1.52,0,0,1-.68,1.32,2.16,2.16,0,0,1-.71.29,4,4,0,0,1-.85.09l-.37,0-.45-.07a2.7,2.7,0,0,1-.43-.12A1,1,0,0,1,27.61,316.89Z"/><path class="cls-30" d="M36.23,317.15h-.72v-.72h0a1.48,1.48,0,0,1-1.39.82c-1.07,0-1.61-.64-1.61-1.92v-2.68h.72v2.57c0,.95.36,1.42,1.09,1.42a1.1,1.1,0,0,0,.86-.38,1.48,1.48,0,0,0,.34-1v-2.59h.72Z"/><path class="cls-30" d="M38.44,316.5h0v.65H37.7v-6.67h.72v3h0a1.69,1.69,0,0,1,1.55-.9,1.66,1.66,0,0,1,1.36.6,2.56,2.56,0,0,1,.49,1.62,2.81,2.81,0,0,1-.55,1.81,1.84,1.84,0,0,1-1.5.68A1.47,1.47,0,0,1,38.44,316.5Zm0-1.82v.63a1.36,1.36,0,0,0,.36.95,1.23,1.23,0,0,0,.92.38,1.2,1.2,0,0,0,1-.5,2.25,2.25,0,0,0,.37-1.39,1.84,1.84,0,0,0-.35-1.18,1.15,1.15,0,0,0-.94-.42,1.28,1.28,0,0,0-1,.43A1.65,1.65,0,0,0,38.42,314.68Z"/><path class="cls-30" d="M45.34,313.38a.83.83,0,0,0-.54-.15.92.92,0,0,0-.77.44,2,2,0,0,0-.31,1.18v2.3H43v-4.5h.72v.92h0a1.6,1.6,0,0,1,.47-.74,1.08,1.08,0,0,1,.7-.26,1.16,1.16,0,0,1,.43.06Z"/><path class="cls-30" d="M49.75,315.08H46.58a1.68,1.68,0,0,0,.4,1.16,1.39,1.39,0,0,0,1.06.4,2.17,2.17,0,0,0,1.4-.5v.68a2.59,2.59,0,0,1-1.57.43,1.92,1.92,0,0,1-1.5-.61,2.54,2.54,0,0,1-.54-1.73,2.48,2.48,0,0,1,.59-1.71,1.92,1.92,0,0,1,1.48-.66,1.7,1.7,0,0,1,1.37.57,2.4,2.4,0,0,1,.48,1.59Zm-.74-.62a1.46,1.46,0,0,0-.3-1,1,1,0,0,0-.82-.34,1.19,1.19,0,0,0-.87.36,1.72,1.72,0,0,0-.44.95Z"/><path class="cls-30" d="M54.69,317.15H54v-.77h0a1.66,1.66,0,0,1-1.54.87,1.69,1.69,0,0,1-1.36-.6,2.49,2.49,0,0,1-.51-1.65,2.69,2.69,0,0,1,.57-1.79,1.83,1.83,0,0,1,1.49-.67,1.43,1.43,0,0,1,1.35.73h0v-2.79h.72Zm-.72-2v-.66a1.31,1.31,0,0,0-.36-.93,1.2,1.2,0,0,0-.91-.37,1.25,1.25,0,0,0-1,.48,2.14,2.14,0,0,0-.38,1.34,1.91,1.91,0,0,0,.36,1.22,1.21,1.21,0,0,0,1,.45,1.23,1.23,0,0,0,1-.43A1.63,1.63,0,0,0,54,315.11Z"/><path class="cls-30" d="M30.32,327.15H29.6v-.77h0a1.82,1.82,0,0,1-2.9.27,2.49,2.49,0,0,1-.51-1.65,2.74,2.74,0,0,1,.56-1.79,1.86,1.86,0,0,1,1.5-.67,1.43,1.43,0,0,1,1.35.73h0v-2.79h.72Zm-.72-2v-.66a1.31,1.31,0,0,0-.36-.93,1.22,1.22,0,0,0-.92-.37,1.26,1.26,0,0,0-1,.48,2.13,2.13,0,0,0-.37,1.34,1.91,1.91,0,0,0,.36,1.22,1.19,1.19,0,0,0,1,.45,1.23,1.23,0,0,0,1-.43A1.63,1.63,0,0,0,29.6,325.11Z"/><path class="cls-30" d="M35.4,325.08H32.22a1.73,1.73,0,0,0,.41,1.16,1.39,1.39,0,0,0,1.06.4,2.19,2.19,0,0,0,1.4-.5v.68a2.61,2.61,0,0,1-1.57.43,1.9,1.9,0,0,1-1.5-.61,2.54,2.54,0,0,1-.54-1.73,2.48,2.48,0,0,1,.59-1.71,1.92,1.92,0,0,1,1.48-.66,1.7,1.7,0,0,1,1.37.57,2.4,2.4,0,0,1,.48,1.59Zm-.74-.62a1.46,1.46,0,0,0-.3-1,1,1,0,0,0-.82-.34,1.19,1.19,0,0,0-.87.36,1.72,1.72,0,0,0-.44.95Z"/><path class="cls-30" d="M42.71,327.15H42v-2.57c0-1-.35-1.43-1.05-1.43a1.12,1.12,0,0,0-.89.4,1.5,1.5,0,0,0-.35,1v2.57H39v-4.5h.73v.74h0a1.62,1.62,0,0,1,1.48-.85,1.38,1.38,0,0,1,1.13.48,2.09,2.09,0,0,1,.39,1.37Z"/><path class="cls-30" d="M44.45,321.5a.44.44,0,0,1-.33-.13A.45.45,0,0,1,44,321a.46.46,0,0,1,.14-.34.48.48,0,0,1,.66,0,.42.42,0,0,1,.14.34.42.42,0,0,1-.14.33A.44.44,0,0,1,44.45,321.5Zm.35,5.65h-.72v-4.5h.72Z"/><path class="cls-30" d="M49.8,322.65,48,327.15H47.3l-1.7-4.5h.79l1.14,3.27a2.7,2.7,0,0,1,.16.62h0a2.73,2.73,0,0,1,.14-.61L49,322.65Z"/><path class="cls-30" d="M54.2,325.08H51a1.68,1.68,0,0,0,.4,1.16,1.39,1.39,0,0,0,1.06.4,2.17,2.17,0,0,0,1.4-.5v.68a2.59,2.59,0,0,1-1.57.43,1.92,1.92,0,0,1-1.5-.61,2.54,2.54,0,0,1-.54-1.73,2.48,2.48,0,0,1,.59-1.71,1.92,1.92,0,0,1,1.48-.66,1.7,1.7,0,0,1,1.37.57,2.4,2.4,0,0,1,.48,1.59Zm-.74-.62a1.46,1.46,0,0,0-.3-1,1,1,0,0,0-.82-.34,1.19,1.19,0,0,0-.87.36,1.72,1.72,0,0,0-.44.95Z"/><path class="cls-30" d="M56,327.15H55.3v-6.67H56Z"/><path class="cls-30" d="M23.76,335.08H20.58a1.73,1.73,0,0,0,.41,1.16,1.39,1.39,0,0,0,1.06.4,2.17,2.17,0,0,0,1.4-.5v.68a2.61,2.61,0,0,1-1.57.43,1.92,1.92,0,0,1-1.5-.61,2.54,2.54,0,0,1-.54-1.73,2.48,2.48,0,0,1,.59-1.71,1.92,1.92,0,0,1,1.48-.66,1.7,1.7,0,0,1,1.37.57,2.4,2.4,0,0,1,.48,1.59Zm-.74-.62a1.46,1.46,0,0,0-.3-1,1,1,0,0,0-.82-.34,1.19,1.19,0,0,0-.87.36,1.72,1.72,0,0,0-.44.95Z"/><path class="cls-30" d="M31.25,337.15h-.72v-2.59a2,2,0,0,0-.23-1.08.88.88,0,0,0-.78-.33,1,1,0,0,0-.78.42,1.58,1.58,0,0,0-.32,1v2.57H27.7v-2.68c0-.88-.35-1.32-1-1.32a.94.94,0,0,0-.78.39,1.63,1.63,0,0,0-.31,1v2.57h-.72v-4.5h.72v.71h0a1.52,1.52,0,0,1,1.4-.82,1.32,1.32,0,0,1,.8.26,1.24,1.24,0,0,1,.47.67,1.6,1.6,0,0,1,1.5-.93c1,0,1.48.61,1.48,1.83Z"/><path class="cls-30" d="M33.36,336.5h0v2.72h-.72v-6.57h.72v.79h0a1.7,1.7,0,0,1,1.56-.9,1.63,1.63,0,0,1,1.35.6,2.5,2.5,0,0,1,.49,1.62,2.75,2.75,0,0,1-.55,1.81,1.82,1.82,0,0,1-1.5.68A1.52,1.52,0,0,1,33.36,336.5Zm0-1.82v.63a1.32,1.32,0,0,0,.37.95,1.21,1.21,0,0,0,.92.38,1.19,1.19,0,0,0,1-.5,2.25,2.25,0,0,0,.37-1.39,1.84,1.84,0,0,0-.34-1.18,1.17,1.17,0,0,0-.94-.42,1.27,1.27,0,0,0-1,.43A1.61,1.61,0,0,0,33.34,334.68Z"/><path class="cls-30" d="M40.27,333.38a.88.88,0,0,0-.55-.15.94.94,0,0,0-.77.44,2,2,0,0,0-.31,1.18v2.3h-.72v-4.5h.72v.92h0a1.6,1.6,0,0,1,.47-.74,1.11,1.11,0,0,1,.71-.26,1.19,1.19,0,0,1,.43.06Z"/><path class="cls-30" d="M44.68,335.08H41.5a1.73,1.73,0,0,0,.4,1.16,1.42,1.42,0,0,0,1.07.4,2.16,2.16,0,0,0,1.39-.5v.68a2.55,2.55,0,0,1-1.56.43,1.89,1.89,0,0,1-1.5-.61,2.5,2.5,0,0,1-.55-1.73,2.44,2.44,0,0,1,.6-1.71,1.9,1.9,0,0,1,1.48-.66,1.68,1.68,0,0,1,1.36.57,2.35,2.35,0,0,1,.49,1.59Zm-.74-.62a1.46,1.46,0,0,0-.3-1,1,1,0,0,0-.83-.34,1.16,1.16,0,0,0-.86.36,1.59,1.59,0,0,0-.44.95Z"/><path class="cls-30" d="M45.5,337v-.77a2.16,2.16,0,0,0,1.3.43c.63,0,1-.21,1-.63a.56.56,0,0,0-.08-.3,1,1,0,0,0-.22-.23,1.69,1.69,0,0,0-.33-.17l-.4-.16a5.2,5.2,0,0,1-.52-.24,1.42,1.42,0,0,1-.38-.27,1,1,0,0,1-.23-.35,1.21,1.21,0,0,1-.08-.45,1,1,0,0,1,.15-.56,1.24,1.24,0,0,1,.38-.41,2,2,0,0,1,.55-.25,2.74,2.74,0,0,1,.64-.08,2.69,2.69,0,0,1,1.05.2v.73a2,2,0,0,0-1.14-.32,1.4,1.4,0,0,0-.37,0,1,1,0,0,0-.28.13.86.86,0,0,0-.18.2.58.58,0,0,0-.06.26.6.6,0,0,0,.06.29.76.76,0,0,0,.19.21,1.07,1.07,0,0,0,.3.17l.4.16.54.24a2,2,0,0,1,.4.27,1.1,1.1,0,0,1,.26.35,1.13,1.13,0,0,1,.09.47,1.09,1.09,0,0,1-.15.58,1.27,1.27,0,0,1-.39.41,1.81,1.81,0,0,1-.57.24,2.93,2.93,0,0,1-.67.08A2.54,2.54,0,0,1,45.5,337Z"/><path class="cls-30" d="M52.82,337.15H52.1v-.71h0a1.52,1.52,0,0,1-1.39.81,1.5,1.5,0,0,1-1.05-.35,1.27,1.27,0,0,1-.38-.95c0-.84.49-1.33,1.48-1.47l1.35-.19c0-.76-.31-1.14-.92-1.14a2.2,2.2,0,0,0-1.47.55V333a2.79,2.79,0,0,1,1.53-.42c1.06,0,1.58.56,1.58,1.68Zm-.72-2.28L51,335a1.78,1.78,0,0,0-.76.25.83.83,0,0,0,0,1.17.92.92,0,0,0,.63.2,1.13,1.13,0,0,0,.88-.37,1.31,1.31,0,0,0,.35-.95Z"/><path class="cls-30" d="M56.54,333.38a.88.88,0,0,0-.55-.15.94.94,0,0,0-.77.44,2,2,0,0,0-.31,1.18v2.3h-.72v-4.5h.72v.92h0a1.6,1.6,0,0,1,.47-.74,1.11,1.11,0,0,1,.71-.26,1.23,1.23,0,0,1,.43.06Z"/><path class="cls-30" d="M57.7,331.5a.44.44,0,0,1-.33-.13.45.45,0,0,1-.14-.33.46.46,0,0,1,.14-.34.48.48,0,0,1,.66,0,.42.42,0,0,1,.14.34.42.42,0,0,1-.14.33A.44.44,0,0,1,57.7,331.5Zm.35,5.65h-.72v-4.5h.72Z"/><path class="cls-30" d="M62.74,337.15H62v-.71h0a1.5,1.5,0,0,1-1.38.81,1.54,1.54,0,0,1-1.06-.35,1.27,1.27,0,0,1-.38-.95c0-.84.5-1.33,1.49-1.47l1.35-.19q0-1.14-.93-1.14a2.22,2.22,0,0,0-1.47.55V333a2.84,2.84,0,0,1,1.53-.42q1.59,0,1.59,1.68ZM62,334.87l-1.09.15a1.78,1.78,0,0,0-.75.25.72.72,0,0,0-.26.63.68.68,0,0,0,.24.54.87.87,0,0,0,.62.2,1.16,1.16,0,0,0,.89-.37,1.36,1.36,0,0,0,.35-.95Z"/><path class="cls-30" d="M64.83,337.15h-.72v-6.67h.72Z"/><path class="cls-30" d="M122.74,51.92V54.3H122V48h1.73a2.31,2.31,0,0,1,1.56.49,1.73,1.73,0,0,1,.56,1.39,1.88,1.88,0,0,1-.62,1.47,2.34,2.34,0,0,1-1.66.57Zm0-3.25v2.58h.77a1.71,1.71,0,0,0,1.17-.35,1.25,1.25,0,0,0,.4-1c0-.83-.49-1.25-1.48-1.25Z"/><path class="cls-30" d="M130.59,54.3h-.72v-.71h0a1.47,1.47,0,0,1-1.39.82c-1.07,0-1.61-.64-1.61-1.92V49.8h.72v2.58c0,.95.36,1.42,1.09,1.42a1.11,1.11,0,0,0,.87-.39,1.52,1.52,0,0,0,.34-1V49.8h.72Z"/><path class="cls-30" d="M135.67,52.23h-3.18a1.66,1.66,0,0,0,.41,1.16,1.35,1.35,0,0,0,1.06.41,2.19,2.19,0,0,0,1.4-.5V54a2.61,2.61,0,0,1-1.57.43,1.92,1.92,0,0,1-1.5-.61,2.54,2.54,0,0,1-.54-1.73,2.44,2.44,0,0,1,.59-1.71,1.92,1.92,0,0,1,1.48-.66,1.71,1.71,0,0,1,1.37.57,2.4,2.4,0,0,1,.48,1.59Zm-.74-.61a1.44,1.44,0,0,0-.3-1,1,1,0,0,0-.82-.35,1.19,1.19,0,0,0-.87.37,1.65,1.65,0,0,0-.44.95Z"/><path class="cls-30" d="M139.11,50.53a1,1,0,0,0-1.31.29,2,2,0,0,0-.31,1.19V54.3h-.72V49.8h.72v.93h0A1.55,1.55,0,0,1,138,50a1,1,0,0,1,.7-.27,1,1,0,0,1,.43.07Z"/><path class="cls-30" d="M142,54.26a1.42,1.42,0,0,1-.67.14c-.79,0-1.18-.44-1.18-1.32V50.42h-.77V49.8h.77V48.7l.72-.23V49.8H142v.62h-1.13V53a1.07,1.07,0,0,0,.15.65.63.63,0,0,0,.51.19.73.73,0,0,0,.47-.15Z"/><path class="cls-30" d="M144.85,54.41a2.1,2.1,0,0,1-1.6-.63,2.36,2.36,0,0,1-.59-1.67,2.43,2.43,0,0,1,.62-1.78A2.23,2.23,0,0,1,145,49.7a2,2,0,0,1,1.57.62,2.8,2.8,0,0,1,0,3.44A2.15,2.15,0,0,1,144.85,54.41Zm.05-4.11a1.37,1.37,0,0,0-1.1.48,1.93,1.93,0,0,0-.4,1.3,1.85,1.85,0,0,0,.4,1.26,1.4,1.4,0,0,0,1.1.46,1.32,1.32,0,0,0,1.07-.45,2,2,0,0,0,.38-1.29,2,2,0,0,0-.38-1.3A1.33,1.33,0,0,0,144.9,50.3Z"/><path class="cls-30" d="M154.54,48.67h-1.81V54.3H152V48.67h-1.82V48h4.37Z"/><path class="cls-30" d="M159.41,54a3.62,3.62,0,0,1-1.74.37,2.8,2.8,0,0,1-2.15-.87,3.17,3.17,0,0,1-.81-2.27,3.32,3.32,0,0,1,.91-2.44,3.1,3.1,0,0,1,2.31-.93,3.72,3.72,0,0,1,1.48.25v.79a3,3,0,0,0-1.49-.38,2.31,2.31,0,0,0-1.76.73,2.73,2.73,0,0,0-.67,1.94,2.59,2.59,0,0,0,.63,1.83,2.12,2.12,0,0,0,1.65.68,3.1,3.1,0,0,0,1.64-.42Z"/><path class="cls-30" d="M161.44,51.92V54.3h-.73V48h1.73a2.31,2.31,0,0,1,1.56.49,1.73,1.73,0,0,1,.56,1.39,1.92,1.92,0,0,1-.62,1.47,2.34,2.34,0,0,1-1.66.57Zm0-3.25v2.58h.78a1.66,1.66,0,0,0,1.16-.35,1.22,1.22,0,0,0,.41-1c0-.83-.5-1.25-1.48-1.25Z"/><path class="cls-30" d="M167.8,52.55a1.81,1.81,0,0,1,.08-.51,1.92,1.92,0,0,1,.59-.87,1.86,1.86,0,0,1,.49-.29,1.83,1.83,0,0,1-.65-.58,1.42,1.42,0,0,1-.24-.8,1.53,1.53,0,0,1,.14-.64,1.52,1.52,0,0,1,.37-.51,1.73,1.73,0,0,1,.56-.33,2.13,2.13,0,0,1,1.41,0,1.5,1.5,0,0,1,.56.34,1.46,1.46,0,0,1,.37.51,1.48,1.48,0,0,1,.13.63,1.42,1.42,0,0,1-.24.8,1.79,1.79,0,0,1-.64.58,1.72,1.72,0,0,1,.49.29,2,2,0,0,1,.36.4,2,2,0,0,1,.23.47,1.81,1.81,0,0,1,.08.51,1.86,1.86,0,0,1-.15.75,1.67,1.67,0,0,1-.42.59,2,2,0,0,1-.65.38,2.45,2.45,0,0,1-.83.13,2.39,2.39,0,0,1-.82-.13,1.94,1.94,0,0,1-.64-.38,1.58,1.58,0,0,1-.43-.59A1.86,1.86,0,0,1,167.8,52.55Zm.78-.07a1.53,1.53,0,0,0,.09.54,1.2,1.2,0,0,0,.26.4,1.11,1.11,0,0,0,.4.26,1.42,1.42,0,0,0,.52.09,1.25,1.25,0,0,0,.51-.1,1.18,1.18,0,0,0,.4-.25A1.25,1.25,0,0,0,171,53a1.29,1.29,0,0,0,.1-.53A1.33,1.33,0,0,0,171,52a1.36,1.36,0,0,0-.26-.41,1.13,1.13,0,0,0-.4-.27,1.27,1.27,0,0,0-.52-.1,1.44,1.44,0,0,0-.51.09,1.31,1.31,0,0,0-.4.26,1.25,1.25,0,0,0-.26.41A1.22,1.22,0,0,0,168.58,52.48Zm.23-2.92a1,1,0,0,0,.08.42,1.06,1.06,0,0,0,.22.33,1,1,0,0,0,.33.22,1,1,0,0,0,.41.09.9.9,0,0,0,.4-.09,1.11,1.11,0,0,0,.34-.22,1.33,1.33,0,0,0,.22-.34.91.91,0,0,0,.08-.41,1,1,0,0,0-.08-.42,1,1,0,0,0-.22-.33,1,1,0,0,0-.33-.23,1.15,1.15,0,0,0-.41-.08,1,1,0,0,0-.43.09,1.19,1.19,0,0,0-.33.22,1.08,1.08,0,0,0-.21.34A1.14,1.14,0,0,0,168.81,49.56Z"/><path class="cls-30" d="M176.75,51.13a6,6,0,0,1-.15,1.4,3.12,3.12,0,0,1-.41,1,1.92,1.92,0,0,1-.66.64,1.9,1.9,0,0,1-.9.21,1.66,1.66,0,0,1-.84-.21,1.8,1.8,0,0,1-.63-.6,3.2,3.2,0,0,1-.39-1,6.51,6.51,0,0,1-.13-1.33,7,7,0,0,1,.14-1.46,3.3,3.3,0,0,1,.41-1.06,1.86,1.86,0,0,1,.66-.65,1.94,1.94,0,0,1,.91-.21C176.09,47.9,176.75,49,176.75,51.13Zm-.74.07c0-1.8-.43-2.69-1.28-2.69s-1.35.91-1.35,2.73.44,2.56,1.32,2.56S176,52.93,176,51.2Z"/><path class="cls-30" d="M28.85,167.32v-.87a1.35,1.35,0,0,0,.35.24,3.38,3.38,0,0,0,.44.18,4,4,0,0,0,.47.11,2.22,2.22,0,0,0,.43,0,1.72,1.72,0,0,0,1-.25.86.86,0,0,0,.34-.73.94.94,0,0,0-.11-.45,1.41,1.41,0,0,0-.31-.34A3.84,3.84,0,0,0,31,165l-.58-.3c-.22-.11-.43-.22-.62-.34a2.37,2.37,0,0,1-.49-.38,1.72,1.72,0,0,1-.34-.46,1.49,1.49,0,0,1-.12-.62,1.55,1.55,0,0,1,.19-.75,1.65,1.65,0,0,1,.5-.52,2.23,2.23,0,0,1,.7-.31,3.85,3.85,0,0,1,2.16.12v.83a2.51,2.51,0,0,0-1.43-.38,2.09,2.09,0,0,0-.49,0,1.47,1.47,0,0,0-.43.16,1.07,1.07,0,0,0-.3.3.76.76,0,0,0-.12.44.86.86,0,0,0,.09.41,1,1,0,0,0,.26.32,2.47,2.47,0,0,0,.43.29l.58.29c.23.12.44.23.65.36a2.76,2.76,0,0,1,.53.41,1.72,1.72,0,0,1,.36.49,1.39,1.39,0,0,1,.13.63,1.55,1.55,0,0,1-.18.78,1.39,1.39,0,0,1-.49.53,2.13,2.13,0,0,1-.71.29,4,4,0,0,1-.86.09l-.37,0-.44-.07a2.83,2.83,0,0,1-.44-.12A1.06,1.06,0,0,1,28.85,167.32Z"/><path class="cls-30" d="M37.47,167.58h-.72v-.72h0a1.47,1.47,0,0,1-1.39.82c-1.07,0-1.6-.64-1.6-1.91v-2.69h.71v2.57c0,.95.37,1.43,1.09,1.43a1.11,1.11,0,0,0,.87-.39,1.48,1.48,0,0,0,.34-1v-2.59h.72Z"/><path class="cls-30" d="M39.67,166.93h0v.65h-.72v-6.67h.72v3h0a1.72,1.72,0,0,1,1.56-.9,1.61,1.61,0,0,1,1.35.61,2.46,2.46,0,0,1,.5,1.61,2.81,2.81,0,0,1-.55,1.81,1.82,1.82,0,0,1-1.51.68A1.49,1.49,0,0,1,39.67,166.93Zm0-1.82v.63a1.36,1.36,0,0,0,.36.95,1.29,1.29,0,0,0,1.95-.12,2.32,2.32,0,0,0,.37-1.39A1.84,1.84,0,0,0,42,164a1.16,1.16,0,0,0-.94-.42,1.24,1.24,0,0,0-1,.44A1.56,1.56,0,0,0,39.66,165.11Z"/><path class="cls-30" d="M46.58,163.81a.85.85,0,0,0-.54-.15.91.91,0,0,0-.77.44,2,2,0,0,0-.31,1.18v2.3h-.72v-4.5H45V164h0a1.69,1.69,0,0,1,.47-.74,1.11,1.11,0,0,1,.71-.26,1.19,1.19,0,0,1,.43.06Z"/><path class="cls-30" d="M51,165.51H47.81a1.66,1.66,0,0,0,.41,1.16,1.4,1.4,0,0,0,1.06.41,2.2,2.2,0,0,0,1.4-.51v.68a2.61,2.61,0,0,1-1.57.43,1.89,1.89,0,0,1-1.5-.61,2.53,2.53,0,0,1-.54-1.73,2.44,2.44,0,0,1,.59-1.71,1.92,1.92,0,0,1,1.48-.66,1.71,1.71,0,0,1,1.37.57,2.4,2.4,0,0,1,.48,1.59Zm-.74-.61a1.47,1.47,0,0,0-.3-1,1,1,0,0,0-.82-.34,1.19,1.19,0,0,0-.87.36,1.68,1.68,0,0,0-.44,1Z"/><path class="cls-30" d="M55.93,167.58h-.72v-.77h0a1.66,1.66,0,0,1-1.55.87,1.68,1.68,0,0,1-1.35-.6,2.47,2.47,0,0,1-.51-1.65,2.74,2.74,0,0,1,.56-1.79,1.89,1.89,0,0,1,1.5-.67,1.43,1.43,0,0,1,1.35.73h0v-2.79h.72Zm-.72-2v-.66a1.28,1.28,0,0,0-.36-.92,1.19,1.19,0,0,0-.92-.38,1.24,1.24,0,0,0-1,.48,2.14,2.14,0,0,0-.38,1.34,1.94,1.94,0,0,0,.36,1.23,1.19,1.19,0,0,0,1,.45,1.22,1.22,0,0,0,1-.44A1.63,1.63,0,0,0,55.21,165.54Z"/><path class="cls-30" d="M31.55,177.58h-.72v-.77h0a1.67,1.67,0,0,1-1.55.87,1.69,1.69,0,0,1-1.36-.6,2.46,2.46,0,0,1-.5-1.65,2.68,2.68,0,0,1,.56-1.79,1.87,1.87,0,0,1,1.5-.67,1.45,1.45,0,0,1,1.35.73h0v-2.79h.72Zm-.72-2v-.66a1.28,1.28,0,0,0-.36-.92,1.17,1.17,0,0,0-.91-.38,1.25,1.25,0,0,0-1,.48,2.14,2.14,0,0,0-.38,1.34,1.94,1.94,0,0,0,.37,1.23,1.17,1.17,0,0,0,1,.45,1.24,1.24,0,0,0,1-.44A1.63,1.63,0,0,0,30.83,175.54Z"/><path class="cls-30" d="M36.64,175.51H33.46a1.66,1.66,0,0,0,.41,1.16,1.39,1.39,0,0,0,1.06.41,2.2,2.2,0,0,0,1.4-.51v.68a2.61,2.61,0,0,1-1.57.43,1.89,1.89,0,0,1-1.5-.61,2.53,2.53,0,0,1-.55-1.73,2.44,2.44,0,0,1,.6-1.71,1.92,1.92,0,0,1,1.48-.66,1.71,1.71,0,0,1,1.37.57,2.4,2.4,0,0,1,.48,1.59Zm-.74-.61a1.47,1.47,0,0,0-.3-1,1,1,0,0,0-.82-.34,1.19,1.19,0,0,0-.87.36,1.68,1.68,0,0,0-.44,1Z"/><path class="cls-30" d="M44,177.58h-.72V175c0-.95-.35-1.43-1-1.43a1.12,1.12,0,0,0-.89.4,1.52,1.52,0,0,0-.36,1v2.57h-.72v-4.5h.72v.74h0a1.64,1.64,0,0,1,1.48-.85,1.38,1.38,0,0,1,1.13.48,2.14,2.14,0,0,1,.39,1.38Z"/><path class="cls-30" d="M45.68,171.93a.44.44,0,0,1-.46-.46.45.45,0,0,1,.13-.34.44.44,0,0,1,.33-.13.45.45,0,0,1,.34.13.46.46,0,0,1,.14.34.46.46,0,0,1-.48.46Zm.36,5.65h-.73v-4.5H46Z"/><path class="cls-30" d="M51,173.08l-1.79,4.5h-.71l-1.71-4.5h.8l1.14,3.27a3.23,3.23,0,0,1,.16.63h0a3.54,3.54,0,0,1,.14-.62l1.2-3.28Z"/><path class="cls-30" d="M55.44,175.51H52.26a1.66,1.66,0,0,0,.41,1.16,1.39,1.39,0,0,0,1.06.41,2.2,2.2,0,0,0,1.4-.51v.68a2.61,2.61,0,0,1-1.57.43,1.89,1.89,0,0,1-1.5-.61,2.53,2.53,0,0,1-.54-1.73,2.44,2.44,0,0,1,.59-1.71,1.92,1.92,0,0,1,1.48-.66,1.71,1.71,0,0,1,1.37.57,2.4,2.4,0,0,1,.48,1.59Zm-.74-.61a1.47,1.47,0,0,0-.3-1,1,1,0,0,0-.82-.34,1.19,1.19,0,0,0-.87.36,1.68,1.68,0,0,0-.44,1Z"/><path class="cls-30" d="M57.26,177.58h-.72v-6.67h.72Z"/><path class="cls-30" d="M40.63,183.08l-1.35,4.5h-.75l-.93-3.22a2.63,2.63,0,0,1-.07-.42h0a2.4,2.4,0,0,1-.09.41l-1,3.23h-.73l-1.36-4.5h.76l.93,3.38a1.89,1.89,0,0,1,.06.4h0a1.73,1.73,0,0,1,.08-.41l1-3.37h.66l.93,3.39a3,3,0,0,1,.07.4h0a2.56,2.56,0,0,1,.08-.4l.91-3.39Z"/><path class="cls-30" d="M45.09,185.51H41.91a1.66,1.66,0,0,0,.4,1.16,1.41,1.41,0,0,0,1.07.41,2.17,2.17,0,0,0,1.39-.51v.68a2.59,2.59,0,0,1-1.57.43,1.88,1.88,0,0,1-1.49-.61,2.48,2.48,0,0,1-.55-1.73,2.44,2.44,0,0,1,.6-1.71,1.9,1.9,0,0,1,1.48-.66,1.69,1.69,0,0,1,1.36.57,2.4,2.4,0,0,1,.49,1.59Zm-.74-.61a1.59,1.59,0,0,0-.3-1,1,1,0,0,0-.83-.34,1.15,1.15,0,0,0-.86.36,1.62,1.62,0,0,0-.44,1Z"/><path class="cls-30" d="M46.92,186.93h0v.65h-.73v-6.67h.73v3h0a1.72,1.72,0,0,1,1.56-.9,1.61,1.61,0,0,1,1.35.61,2.46,2.46,0,0,1,.49,1.61,2.75,2.75,0,0,1-.55,1.81,1.79,1.79,0,0,1-1.5.68A1.49,1.49,0,0,1,46.92,186.93Zm0-1.82v.63a1.36,1.36,0,0,0,.36.95,1.2,1.2,0,0,0,.92.39,1.18,1.18,0,0,0,1-.51,2.25,2.25,0,0,0,.38-1.39,1.84,1.84,0,0,0-.35-1.18,1.16,1.16,0,0,0-.94-.42,1.24,1.24,0,0,0-1,.44A1.56,1.56,0,0,0,46.91,185.11Z"/><path class="cls-30" d="M81.9,242.07H78.56v-6.3h3.2v.67H79.3v2.1h2.27v.66H79.3v2.2h2.6Z"/><path class="cls-30" d="M86.86,244.14h-.72V241.3h0a1.61,1.61,0,0,1-1.53.88,1.67,1.67,0,0,1-1.36-.61,2.41,2.41,0,0,1-.52-1.64,2.65,2.65,0,0,1,.57-1.79,1.86,1.86,0,0,1,1.51-.67,1.4,1.4,0,0,1,1.33.73h0v-.63h.72Zm-.72-4.09v-.66a1.29,1.29,0,0,0-.36-.93,1.2,1.2,0,0,0-.92-.39,1.24,1.24,0,0,0-1,.48,2.2,2.2,0,0,0-.38,1.36,1.83,1.83,0,0,0,.37,1.22,1.16,1.16,0,0,0,.94.44,1.27,1.27,0,0,0,1-.43A1.6,1.6,0,0,0,86.14,240.05Z"/><path class="cls-30" d="M92,242.07h-.72v-.71h0a1.47,1.47,0,0,1-1.39.82c-1.07,0-1.61-.64-1.61-1.92v-2.69H89v2.58c0,.95.36,1.42,1.09,1.42a1.11,1.11,0,0,0,.87-.39,1.47,1.47,0,0,0,.34-1v-2.6H92Z"/><path class="cls-30" d="M93.8,236.43a.44.44,0,0,1-.33-.13.45.45,0,0,1-.13-.34.44.44,0,0,1,.13-.33.45.45,0,0,1,.33-.14.48.48,0,0,1,.34.14.46.46,0,0,1,0,.66A.48.48,0,0,1,93.8,236.43Zm.35,5.64h-.72v-4.5h.72Z"/><path class="cls-30" d="M96.34,242.07h-.72v-6.66h.72Z"/><path class="cls-30" d="M98.18,236.43a.44.44,0,0,1-.33-.13.46.46,0,0,1-.14-.34.48.48,0,0,1,.47-.47.49.49,0,0,1,.34.14.48.48,0,0,1,0,.66A.49.49,0,0,1,98.18,236.43Zm.35,5.64h-.72v-4.5h.72Z"/><path class="cls-30" d="M100.74,241.42h0v.65H100v-6.66h.72v3h0a1.7,1.7,0,0,1,1.55-.89,1.66,1.66,0,0,1,1.36.6,2.47,2.47,0,0,1,.49,1.62,2.77,2.77,0,0,1-.55,1.81,1.84,1.84,0,0,1-1.5.68A1.46,1.46,0,0,1,100.74,241.42Zm0-1.81v.63a1.33,1.33,0,0,0,.36.94,1.2,1.2,0,0,0,.92.39,1.22,1.22,0,0,0,1-.5,2.27,2.27,0,0,0,.37-1.39,1.77,1.77,0,0,0-.35-1.18,1.15,1.15,0,0,0-.94-.43,1.29,1.29,0,0,0-1,.44A1.63,1.63,0,0,0,100.72,239.61Z"/><path class="cls-30" d="M107.65,238.3a1,1,0,0,0-.55-.14.91.91,0,0,0-.77.43,2,2,0,0,0-.31,1.19v2.29h-.72v-4.5H106v.93h0a1.55,1.55,0,0,1,.47-.74,1.05,1.05,0,0,1,.71-.27,1.23,1.23,0,0,1,.43.06Z"/><path class="cls-30" d="M111.66,242.07h-.72v-.7h0a1.64,1.64,0,0,1-2.44.45,1.24,1.24,0,0,1-.38-.94c0-.84.5-1.33,1.49-1.47l1.35-.19c0-.76-.31-1.15-.93-1.15a2.23,2.23,0,0,0-1.47.56v-.74a2.79,2.79,0,0,1,1.53-.42q1.59,0,1.59,1.68Zm-.72-2.27-1.09.15a1.79,1.79,0,0,0-.75.24.72.72,0,0,0-.26.63.68.68,0,0,0,.24.54.88.88,0,0,0,.62.21,1.17,1.17,0,0,0,.89-.37,1.37,1.37,0,0,0,.35-1Z"/><path class="cls-30" d="M116.87,242.07h-.72v-.76h0a1.67,1.67,0,0,1-1.55.87,1.65,1.65,0,0,1-1.35-.61,2.46,2.46,0,0,1-.51-1.64,2.72,2.72,0,0,1,.56-1.79,1.85,1.85,0,0,1,1.5-.67,1.43,1.43,0,0,1,1.35.73h0v-2.79h.72Zm-.72-2v-.67a1.28,1.28,0,0,0-.36-.92,1.33,1.33,0,0,0-2,.11,2.1,2.1,0,0,0-.37,1.33,1.92,1.92,0,0,0,.36,1.23,1.17,1.17,0,0,0,1,.45,1.23,1.23,0,0,0,1-.43A1.63,1.63,0,0,0,116.15,240Z"/><path class="cls-30" d="M120.21,242.18a2.09,2.09,0,0,1-1.59-.63,2.32,2.32,0,0,1-.59-1.67,2.43,2.43,0,0,1,.62-1.78,2.23,2.23,0,0,1,1.67-.63,2,2,0,0,1,1.57.62,2.42,2.42,0,0,1,.57,1.71,2.45,2.45,0,0,1-.61,1.73A2.15,2.15,0,0,1,120.21,242.18Zm.06-4.11a1.35,1.35,0,0,0-1.1.48,1.91,1.91,0,0,0-.41,1.3,1.85,1.85,0,0,0,.41,1.26,1.4,1.4,0,0,0,1.1.46,1.32,1.32,0,0,0,1.07-.45,2,2,0,0,0,.38-1.29,2,2,0,0,0-.38-1.3A1.33,1.33,0,0,0,120.27,238.07Z"/><path class="cls-30" d="M126,238.3a1,1,0,0,0-1.31.29,2,2,0,0,0-.31,1.19v2.29h-.72v-4.5h.72v.93h0a1.63,1.63,0,0,1,.47-.74,1.09,1.09,0,0,1,.71-.27,1.19,1.19,0,0,1,.43.06Z"/><path class="cls-30" d="M67.72,252.07H67v-.76h0a1.81,1.81,0,0,1-2.9.26,2.46,2.46,0,0,1-.51-1.64,2.72,2.72,0,0,1,.56-1.79,1.86,1.86,0,0,1,1.5-.67,1.43,1.43,0,0,1,1.35.73h0v-2.79h.72ZM67,250v-.67a1.28,1.28,0,0,0-.36-.92,1.32,1.32,0,0,0-2,.11,2.1,2.1,0,0,0-.38,1.33,1.92,1.92,0,0,0,.36,1.23,1.19,1.19,0,0,0,1,.45,1.21,1.21,0,0,0,1-.43A1.63,1.63,0,0,0,67,250Z"/><path class="cls-30" d="M72.8,250H69.63a1.66,1.66,0,0,0,.4,1.16,1.36,1.36,0,0,0,1.06.41,2.22,2.22,0,0,0,1.4-.5v.68a2.65,2.65,0,0,1-1.57.43,1.92,1.92,0,0,1-1.5-.62,2.5,2.5,0,0,1-.54-1.72,2.44,2.44,0,0,1,.6-1.71,1.9,1.9,0,0,1,1.47-.66,1.7,1.7,0,0,1,1.37.57,2.4,2.4,0,0,1,.48,1.59Zm-.73-.61a1.5,1.5,0,0,0-.31-1,1,1,0,0,0-.82-.35,1.16,1.16,0,0,0-.86.37,1.59,1.59,0,0,0-.44.95Z"/><path class="cls-30" d="M79.44,251.87a2.39,2.39,0,0,1-1.23.31,2,2,0,0,1-1.55-.63,2.29,2.29,0,0,1-.59-1.62,2.49,2.49,0,0,1,.64-1.79,2.21,2.21,0,0,1,1.7-.67,2.31,2.31,0,0,1,1,.22v.73a1.85,1.85,0,0,0-1.07-.35,1.44,1.44,0,0,0-1.13.5,1.89,1.89,0,0,0-.44,1.3,1.8,1.8,0,0,0,.41,1.24,1.43,1.43,0,0,0,1.12.46,1.78,1.78,0,0,0,1.1-.39Z"/><path class="cls-30" d="M83.77,252.07H83v-.7h0a1.52,1.52,0,0,1-1.39.81,1.45,1.45,0,0,1-1-.36,1.24,1.24,0,0,1-.38-.94c0-.84.5-1.33,1.49-1.47l1.34-.19c0-.76-.3-1.15-.92-1.15a2.23,2.23,0,0,0-1.47.56v-.74a2.79,2.79,0,0,1,1.53-.42q1.59,0,1.59,1.68ZM83,249.8,82,250a1.84,1.84,0,0,0-.76.24.83.83,0,0,0,0,1.17.92.92,0,0,0,.63.21,1.17,1.17,0,0,0,.89-.37,1.36,1.36,0,0,0,.34-1Z"/><path class="cls-30" d="M87.48,248.3a1,1,0,0,0-.55-.14.93.93,0,0,0-.77.43,2.07,2.07,0,0,0-.31,1.19v2.29h-.72v-4.5h.72v.93h0a1.55,1.55,0,0,1,.47-.74,1.07,1.07,0,0,1,.71-.27,1.19,1.19,0,0,1,.43.06Z"/><path class="cls-30" d="M92.11,251.71c0,1.65-.79,2.48-2.37,2.48a3.18,3.18,0,0,1-1.46-.32v-.72a3,3,0,0,0,1.45.43c1.11,0,1.66-.59,1.66-1.77v-.49h0a1.69,1.69,0,0,1-1.54.86,1.72,1.72,0,0,1-1.36-.6A2.41,2.41,0,0,1,88,250a2.85,2.85,0,0,1,.55-1.83,1.84,1.84,0,0,1,1.51-.67,1.45,1.45,0,0,1,1.35.73h0v-.63h.72ZM91.39,250v-.67a1.28,1.28,0,0,0-.36-.91,1.2,1.2,0,0,0-.91-.39,1.26,1.26,0,0,0-1,.49,2.18,2.18,0,0,0-.38,1.36,1.87,1.87,0,0,0,.36,1.2,1.19,1.19,0,0,0,1,.45,1.24,1.24,0,0,0,1-.43A1.62,1.62,0,0,0,91.39,250Z"/><path class="cls-30" d="M96.8,252.07h-.72v-.7h0a1.64,1.64,0,0,1-2.44.45,1.24,1.24,0,0,1-.38-.94c0-.84.5-1.33,1.49-1.47l1.35-.19c0-.76-.31-1.15-.93-1.15a2.23,2.23,0,0,0-1.47.56v-.74a2.84,2.84,0,0,1,1.53-.42q1.59,0,1.59,1.68Zm-.72-2.27L95,250a1.79,1.79,0,0,0-.75.24.72.72,0,0,0-.26.63.68.68,0,0,0,.24.54.88.88,0,0,0,.62.21,1.16,1.16,0,0,0,.89-.37,1.37,1.37,0,0,0,.35-1Z"/><path class="cls-30" d="M101,246.43a.44.44,0,0,1-.33-.13.46.46,0,0,1-.14-.34.48.48,0,0,1,.47-.47.49.49,0,0,1,.34.14.48.48,0,0,1,0,.66A.49.49,0,0,1,101,246.43Zm.35,5.64h-.72v-4.5h.72Z"/><path class="cls-30" d="M106.56,252.07h-.72v-2.56c0-1-.34-1.44-1-1.44a1.16,1.16,0,0,0-.9.41,1.53,1.53,0,0,0-.35,1v2.56h-.72v-4.5h.72v.75h0a1.61,1.61,0,0,1,1.47-.85,1.39,1.39,0,0,1,1.13.47,2.14,2.14,0,0,1,.39,1.38Z"/><path class="cls-30" d="M110,252a1.42,1.42,0,0,1-.67.14c-.79,0-1.18-.44-1.18-1.32v-2.66h-.78v-.62h.78v-1.1l.72-.23v1.33H110v.62h-1.13v2.53a1.07,1.07,0,0,0,.15.65.6.6,0,0,0,.51.19.75.75,0,0,0,.47-.15Z"/><path class="cls-30" d="M114.61,250h-3.18a1.71,1.71,0,0,0,.4,1.16,1.39,1.39,0,0,0,1.07.41,2.27,2.27,0,0,0,1.4-.5v.68a2.68,2.68,0,0,1-1.57.43,1.89,1.89,0,0,1-1.5-.62,2.85,2.85,0,0,1,0-3.43,1.92,1.92,0,0,1,1.48-.66,1.68,1.68,0,0,1,1.36.57,2.35,2.35,0,0,1,.49,1.59Zm-.74-.61a1.44,1.44,0,0,0-.3-1,1,1,0,0,0-.83-.35,1.17,1.17,0,0,0-.86.37,1.59,1.59,0,0,0-.44.95Z"/><path class="cls-30" d="M118.05,248.3a1,1,0,0,0-1.31.29,2,2,0,0,0-.31,1.19v2.29h-.72v-4.5h.72v.93h0a1.57,1.57,0,0,1,.48-.74,1,1,0,0,1,.7-.27,1.19,1.19,0,0,1,.43.06Z"/><path class="cls-30" d="M122.58,252.07h-.72v-2.56q0-1.44-1-1.44a1.12,1.12,0,0,0-.89.41,1.49,1.49,0,0,0-.36,1v2.56h-.72v-4.5h.72v.75h0a1.62,1.62,0,0,1,1.48-.85,1.4,1.4,0,0,1,1.13.47,2.14,2.14,0,0,1,.39,1.38Z"/><path class="cls-30" d="M125.83,252.18a2.1,2.1,0,0,1-1.6-.63,2.36,2.36,0,0,1-.59-1.67,2.47,2.47,0,0,1,.62-1.78,2.23,2.23,0,0,1,1.67-.63,2,2,0,0,1,1.57.62,2.8,2.8,0,0,1,0,3.44A2.15,2.15,0,0,1,125.83,252.18Zm0-4.11a1.37,1.37,0,0,0-1.1.48,1.91,1.91,0,0,0-.4,1.3,1.81,1.81,0,0,0,.41,1.26,1.36,1.36,0,0,0,1.09.46,1.31,1.31,0,0,0,1.07-.45,1.91,1.91,0,0,0,.38-1.29,1.94,1.94,0,0,0-.38-1.3A1.31,1.31,0,0,0,125.88,248.07Z"/><path class="cls-30" d="M84.37,89.71H81v-6.3h3.2v.67H81.77v2.09h2.28v.66H81.77V89h2.6Z"/><path class="cls-30" d="M89.34,91.78h-.72V88.94h0a1.62,1.62,0,0,1-1.54.87,1.7,1.7,0,0,1-1.36-.6,2.47,2.47,0,0,1-.51-1.65,2.74,2.74,0,0,1,.56-1.79,1.9,1.9,0,0,1,1.51-.67,1.44,1.44,0,0,1,1.34.73h0v-.62h.72Zm-.72-4.1V87a1.3,1.3,0,0,0-.37-.94,1.21,1.21,0,0,0-.92-.38,1.26,1.26,0,0,0-1,.48,2.16,2.16,0,0,0-.37,1.36,1.89,1.89,0,0,0,.36,1.22,1.18,1.18,0,0,0,.94.44,1.3,1.3,0,0,0,1-.43A1.63,1.63,0,0,0,88.62,87.68Z"/><path class="cls-30" d="M94.44,89.71h-.72V89h0a1.49,1.49,0,0,1-1.39.81c-1.08,0-1.61-.63-1.61-1.91V85.21h.71v2.57c0,1,.37,1.43,1.09,1.43a1.08,1.08,0,0,0,.87-.39,1.48,1.48,0,0,0,.34-1V85.21h.72Z"/><path class="cls-30" d="M96.28,84.07a.45.45,0,0,1-.33-.14.42.42,0,0,1-.14-.33.48.48,0,0,1,.14-.34.48.48,0,0,1,.66,0,.44.44,0,0,1,.14.34.42.42,0,0,1-.14.33A.45.45,0,0,1,96.28,84.07Zm.35,5.64h-.72v-4.5h.72Z"/><path class="cls-30" d="M98.82,89.71H98.1V83.05h.72Z"/><path class="cls-30" d="M100.65,84.07a.47.47,0,0,1-.33-.14.42.42,0,0,1-.13-.33.47.47,0,0,1,.13-.34.46.46,0,0,1,.33-.13.45.45,0,0,1,.34.13.48.48,0,0,1,.14.34.45.45,0,0,1-.14.33A.46.46,0,0,1,100.65,84.07Zm.36,5.64h-.73v-4.5H101Z"/><path class="cls-30" d="M103.21,89.06h0v.65h-.72V83.05h.72v3h0a1.71,1.71,0,0,1,1.56-.9,1.62,1.62,0,0,1,1.35.61,2.47,2.47,0,0,1,.49,1.62,2.79,2.79,0,0,1-.55,1.81,1.81,1.81,0,0,1-1.5.67A1.49,1.49,0,0,1,103.21,89.06Zm0-1.82v.63a1.36,1.36,0,0,0,.37.95,1.29,1.29,0,0,0,1.94-.11,2.31,2.31,0,0,0,.38-1.4,1.79,1.79,0,0,0-.35-1.17,1.14,1.14,0,0,0-.94-.43,1.27,1.27,0,0,0-1,.44A1.57,1.57,0,0,0,103.19,87.24Z"/><path class="cls-30" d="M110.12,85.94a.87.87,0,0,0-.54-.15.94.94,0,0,0-.78.44,2.05,2.05,0,0,0-.31,1.19v2.29h-.72v-4.5h.72v.93h0a1.51,1.51,0,0,1,.47-.74,1.07,1.07,0,0,1,.71-.27,1.19,1.19,0,0,1,.43.06Z"/><path class="cls-30" d="M114.13,89.71h-.72V89h0a1.51,1.51,0,0,1-1.38.8,1.45,1.45,0,0,1-1.05-.35,1.21,1.21,0,0,1-.38-.95c0-.84.49-1.33,1.48-1.46l1.35-.19c0-.77-.31-1.15-.93-1.15a2.18,2.18,0,0,0-1.46.55v-.73a2.71,2.71,0,0,1,1.53-.43c1,0,1.58.56,1.58,1.68Zm-.72-2.28-1.08.15a1.78,1.78,0,0,0-.76.25.72.72,0,0,0-.25.63.68.68,0,0,0,.23.54.92.92,0,0,0,.63.21,1.16,1.16,0,0,0,.88-.38,1.36,1.36,0,0,0,.35-1Z"/><path class="cls-30" d="M119.34,89.71h-.72v-.77h0a1.66,1.66,0,0,1-1.54.87,1.69,1.69,0,0,1-1.36-.6,2.47,2.47,0,0,1-.51-1.65,2.69,2.69,0,0,1,.56-1.78,1.87,1.87,0,0,1,1.5-.68,1.45,1.45,0,0,1,1.35.73h0V83.05h.72Zm-.72-2V87a1.28,1.28,0,0,0-.36-.92,1.22,1.22,0,0,0-.91-.38,1.25,1.25,0,0,0-1,.48,2.16,2.16,0,0,0-.38,1.34,1.92,1.92,0,0,0,.36,1.23,1.19,1.19,0,0,0,1,.45,1.22,1.22,0,0,0,1-.44A1.62,1.62,0,0,0,118.62,87.67Z"/><path class="cls-30" d="M122.69,89.81a2.06,2.06,0,0,1-1.59-.63,2.31,2.31,0,0,1-.6-1.67,2.46,2.46,0,0,1,.62-1.77,2.24,2.24,0,0,1,1.67-.64,2.06,2.06,0,0,1,1.58.62,2.51,2.51,0,0,1,.56,1.72,2.42,2.42,0,0,1-.61,1.73A2.12,2.12,0,0,1,122.69,89.81Zm0-4.1a1.39,1.39,0,0,0-1.1.47,2,2,0,0,0-.4,1.31,1.85,1.85,0,0,0,.41,1.26,1.41,1.41,0,0,0,1.09.46,1.33,1.33,0,0,0,1.08-.45,2.45,2.45,0,0,0,0-2.59A1.3,1.3,0,0,0,122.74,85.71Z"/><path class="cls-30" d="M128.44,85.94a.88.88,0,0,0-.55-.15.92.92,0,0,0-.77.44,2.05,2.05,0,0,0-.31,1.19v2.29h-.72v-4.5h.72v.93h0a1.51,1.51,0,0,1,.47-.74,1.07,1.07,0,0,1,.71-.27,1.23,1.23,0,0,1,.43.06Z"/><path class="cls-30" d="M66.78,99.71h-.72v-.77h0a1.66,1.66,0,0,1-1.55.87,1.68,1.68,0,0,1-1.35-.6,2.47,2.47,0,0,1-.51-1.65,2.69,2.69,0,0,1,.56-1.78,1.87,1.87,0,0,1,1.5-.68,1.45,1.45,0,0,1,1.35.73h0V93.05h.72Zm-.72-2V97a1.28,1.28,0,0,0-.36-.92,1.33,1.33,0,0,0-2,.1,2.16,2.16,0,0,0-.38,1.34,1.92,1.92,0,0,0,.36,1.23,1.19,1.19,0,0,0,1,.45,1.22,1.22,0,0,0,1-.44A1.62,1.62,0,0,0,66.06,97.67Z"/><path class="cls-30" d="M71.86,97.64H68.69a1.66,1.66,0,0,0,.4,1.16,1.4,1.4,0,0,0,1.06.41,2.22,2.22,0,0,0,1.4-.5v.67a2.59,2.59,0,0,1-1.57.43,1.92,1.92,0,0,1-1.5-.61,2.52,2.52,0,0,1-.54-1.72,2.49,2.49,0,0,1,.6-1.72A1.88,1.88,0,0,1,70,95.1a1.7,1.7,0,0,1,1.37.57,2.41,2.41,0,0,1,.48,1.59ZM71.13,97a1.48,1.48,0,0,0-.31-1,1,1,0,0,0-.82-.35,1.19,1.19,0,0,0-.87.36,1.7,1.7,0,0,0-.43,1Z"/><path class="cls-30" d="M78.5,99.5a2.29,2.29,0,0,1-1.23.31,2,2,0,0,1-1.55-.62,2.3,2.3,0,0,1-.59-1.63,2.46,2.46,0,0,1,.64-1.78,2.22,2.22,0,0,1,1.7-.68,2.45,2.45,0,0,1,1,.22v.74a1.85,1.85,0,0,0-1.07-.35,1.47,1.47,0,0,0-1.13.49,1.91,1.91,0,0,0-.44,1.3,1.81,1.81,0,0,0,.41,1.25,1.43,1.43,0,0,0,1.12.46,1.78,1.78,0,0,0,1.1-.39Z"/><path class="cls-30" d="M82.82,99.71H82.1V99h0a1.53,1.53,0,0,1-1.39.8,1.45,1.45,0,0,1-1-.35,1.25,1.25,0,0,1-.38-.95c0-.84.49-1.33,1.48-1.46l1.35-.19c0-.77-.31-1.15-.92-1.15a2.2,2.2,0,0,0-1.47.55v-.73a2.71,2.71,0,0,1,1.53-.43c1.06,0,1.58.56,1.58,1.68Zm-.72-2.28L81,97.58a1.78,1.78,0,0,0-.76.25.83.83,0,0,0,0,1.17.92.92,0,0,0,.63.21,1.14,1.14,0,0,0,.88-.38,1.31,1.31,0,0,0,.35-1Z"/><path class="cls-30" d="M86.54,95.94a.88.88,0,0,0-.55-.15.94.94,0,0,0-.77.44,2.05,2.05,0,0,0-.31,1.19v2.29h-.72v-4.5h.72v.93h0a1.51,1.51,0,0,1,.47-.74,1.07,1.07,0,0,1,.71-.27,1.23,1.23,0,0,1,.43.06Z"/><path class="cls-30" d="M91.17,99.35c0,1.65-.79,2.48-2.37,2.48a3.18,3.18,0,0,1-1.46-.32v-.72a3,3,0,0,0,1.45.42c1.11,0,1.66-.59,1.66-1.76V99h0a1.67,1.67,0,0,1-1.54.86,1.72,1.72,0,0,1-1.36-.6A2.39,2.39,0,0,1,87,97.6a2.84,2.84,0,0,1,.55-1.82,1.85,1.85,0,0,1,1.51-.68,1.47,1.47,0,0,1,1.35.73h0v-.62h.72Zm-.72-1.68V97a1.3,1.3,0,0,0-.36-.92,1.32,1.32,0,0,0-2,.11,2.16,2.16,0,0,0-.38,1.36,1.87,1.87,0,0,0,.36,1.2,1.17,1.17,0,0,0,1,.45,1.27,1.27,0,0,0,1-.43A1.64,1.64,0,0,0,90.45,97.67Z"/><path class="cls-30" d="M95.86,99.71h-.72V99h0a1.66,1.66,0,0,1-2.44.45,1.25,1.25,0,0,1-.38-.95c0-.84.5-1.33,1.49-1.46l1.35-.19c0-.77-.31-1.15-.93-1.15a2.22,2.22,0,0,0-1.47.55v-.73a2.76,2.76,0,0,1,1.53-.43q1.59,0,1.59,1.68Zm-.72-2.28-1.09.15a1.78,1.78,0,0,0-.75.25.72.72,0,0,0-.26.63.68.68,0,0,0,.24.54.88.88,0,0,0,.62.21,1.16,1.16,0,0,0,.89-.38,1.36,1.36,0,0,0,.35-1Z"/><path class="cls-30" d="M100.44,99.06h0v2.72H99.7V95.21h.72V96h0a1.69,1.69,0,0,1,1.55-.9,1.63,1.63,0,0,1,1.36.61,2.47,2.47,0,0,1,.49,1.62,2.79,2.79,0,0,1-.55,1.81,1.84,1.84,0,0,1-1.5.67A1.52,1.52,0,0,1,100.44,99.06Zm0-1.82v.63a1.36,1.36,0,0,0,.36.95,1.3,1.3,0,0,0,2-.11,2.31,2.31,0,0,0,.37-1.4,1.74,1.74,0,0,0-.35-1.17,1.13,1.13,0,0,0-.94-.43,1.3,1.3,0,0,0-1,.44A1.61,1.61,0,0,0,100.42,97.24Z"/><path class="cls-30" d="M108.64,99.71h-.72V99h0a1.48,1.48,0,0,1-1.39.81c-1.07,0-1.61-.63-1.61-1.91V95.21h.72v2.57c0,1,.36,1.43,1.09,1.43a1.11,1.11,0,0,0,.87-.39,1.53,1.53,0,0,0,.34-1V95.21h.72ZM108,92.92l-1.15,1.44h-.56l1-1.44Z"/><path class="cls-30" d="M110.84,99.06h0v.65h-.72V93.05h.72v3h0a1.71,1.71,0,0,1,1.56-.9,1.62,1.62,0,0,1,1.35.61,2.47,2.47,0,0,1,.49,1.62,2.79,2.79,0,0,1-.55,1.81,1.81,1.81,0,0,1-1.5.67A1.49,1.49,0,0,1,110.84,99.06Zm0-1.82v.63a1.32,1.32,0,0,0,.37.95,1.19,1.19,0,0,0,.92.39,1.2,1.2,0,0,0,1-.5,2.31,2.31,0,0,0,.37-1.4,1.79,1.79,0,0,0-.34-1.17,1.14,1.14,0,0,0-.94-.43,1.27,1.27,0,0,0-1,.44A1.57,1.57,0,0,0,110.82,97.24Z"/><path class="cls-30" d="M116.12,99.71h-.72V93.05h.72Z"/><path class="cls-30" d="M118,94.07a.45.45,0,0,1-.33-.14.42.42,0,0,1-.13-.33.47.47,0,0,1,.13-.34.44.44,0,0,1,.33-.13.47.47,0,0,1,.34.13.48.48,0,0,1,.14.34.45.45,0,0,1-.14.33A.48.48,0,0,1,118,94.07Zm.35,5.64h-.72v-4.5h.72Z"/><path class="cls-30" d="M122.85,99.5a2.34,2.34,0,0,1-1.23.31,2,2,0,0,1-1.56-.62,2.3,2.3,0,0,1-.59-1.63,2.5,2.5,0,0,1,.64-1.78,2.22,2.22,0,0,1,1.7-.68,2.49,2.49,0,0,1,1,.22v.74a1.88,1.88,0,0,0-1.08-.35,1.48,1.48,0,0,0-1.13.49,1.91,1.91,0,0,0-.44,1.3,1.77,1.77,0,0,0,.42,1.25,1.39,1.39,0,0,0,1.11.46,1.83,1.83,0,0,0,1.11-.39Z"/><path class="cls-30" d="M125.83,99.81a2.1,2.1,0,0,1-1.6-.63,2.35,2.35,0,0,1-.59-1.67,2.46,2.46,0,0,1,.62-1.77,2.24,2.24,0,0,1,1.67-.64,2,2,0,0,1,1.57.62,2.46,2.46,0,0,1,.57,1.72,2.42,2.42,0,0,1-.61,1.73A2.14,2.14,0,0,1,125.83,99.81Zm0-4.1a1.39,1.39,0,0,0-1.1.47,2,2,0,0,0-.4,1.31,1.81,1.81,0,0,0,.41,1.26,1.4,1.4,0,0,0,1.09.46,1.31,1.31,0,0,0,1.07-.45,2.4,2.4,0,0,0,0-2.59A1.28,1.28,0,0,0,125.88,95.71Z"/><path class="cls-30" d="M138.68,336.8h-.74v-4.22q0-.51.06-1.23h0a4.62,4.62,0,0,1-.19.61l-2.16,4.84h-.36l-2.14-4.8a2.9,2.9,0,0,1-.19-.65h0q0,.38,0,1.23v4.22h-.71v-6.3h1l1.93,4.4a5.05,5.05,0,0,1,.29.75h0c.12-.34.23-.6.3-.77l2-4.38h.93Z"/><path class="cls-30" d="M143.47,336.8h-.72v-.7h0a1.51,1.51,0,0,1-1.39.81,1.47,1.47,0,0,1-1.05-.36,1.23,1.23,0,0,1-.38-.94c0-.84.5-1.33,1.49-1.47l1.35-.19c0-.76-.31-1.15-.93-1.15a2.23,2.23,0,0,0-1.47.56v-.74a2.79,2.79,0,0,1,1.53-.42q1.59,0,1.59,1.68Zm-.72-2.27-1.09.15a1.79,1.79,0,0,0-.75.24.73.73,0,0,0-.26.64.65.65,0,0,0,.24.53.88.88,0,0,0,.62.21,1.17,1.17,0,0,0,.89-.37,1.36,1.36,0,0,0,.35-.95Zm.09-4.52-1.15,1.44h-.56l1-1.44Z"/><path class="cls-30" d="M148.67,338.87H148V336h0a1.62,1.62,0,0,1-1.54.88,1.67,1.67,0,0,1-1.36-.61,2.46,2.46,0,0,1-.51-1.64,2.67,2.67,0,0,1,.56-1.79,1.86,1.86,0,0,1,1.51-.67,1.42,1.42,0,0,1,1.34.73h0v-.63h.72Zm-.72-4.09v-.66a1.29,1.29,0,0,0-.36-.93,1.2,1.2,0,0,0-.92-.39,1.23,1.23,0,0,0-1,.49,2.15,2.15,0,0,0-.38,1.35,1.87,1.87,0,0,0,.37,1.22,1.15,1.15,0,0,0,.94.44,1.27,1.27,0,0,0,1-.43A1.6,1.6,0,0,0,148,334.78Z"/><path class="cls-30" d="M153.78,336.8h-.72v-.71h0a1.47,1.47,0,0,1-1.39.82c-1.07,0-1.6-.64-1.6-1.92V332.3h.71v2.58c0,.95.37,1.42,1.09,1.42a1.11,1.11,0,0,0,.87-.39,1.45,1.45,0,0,0,.34-1v-2.6h.72Z"/><path class="cls-30" d="M155.61,331.16a.44.44,0,0,1-.32-.13.42.42,0,0,1-.14-.33.42.42,0,0,1,.14-.34.44.44,0,0,1,.32-.13.45.45,0,0,1,.34.13.46.46,0,0,1,.14.34.45.45,0,0,1-.14.32A.42.42,0,0,1,155.61,331.16Zm.36,5.64h-.72v-4.5H156Z"/><path class="cls-30" d="M161.17,336.8h-.72v-2.56q0-1.44-1-1.44a1.12,1.12,0,0,0-.89.41,1.49,1.49,0,0,0-.36,1v2.56h-.72v-4.5h.72v.75h0a1.62,1.62,0,0,1,1.48-.85,1.4,1.4,0,0,1,1.13.47,2.14,2.14,0,0,1,.39,1.38Z"/><path class="cls-30" d="M165.76,336.8H165v-.7h0a1.51,1.51,0,0,1-1.39.81,1.49,1.49,0,0,1-1-.36,1.23,1.23,0,0,1-.38-.94c0-.84.5-1.33,1.49-1.47L165,334c0-.76-.31-1.15-.93-1.15a2.23,2.23,0,0,0-1.47.56v-.74a2.79,2.79,0,0,1,1.53-.42q1.59,0,1.59,1.68Zm-.72-2.27-1.09.15a1.79,1.79,0,0,0-.75.24.73.73,0,0,0-.26.64.65.65,0,0,0,.24.53.88.88,0,0,0,.62.21,1.17,1.17,0,0,0,.89-.37A1.36,1.36,0,0,0,165,335Z"/><path class="cls-30" d="M140.89,342.3l-1.8,4.5h-.71l-1.7-4.5h.79l1.14,3.27a2.64,2.64,0,0,1,.16.63h0a3.42,3.42,0,0,1,.14-.61l1.2-3.29Z"/><path class="cls-30" d="M142,341.16a.44.44,0,0,1-.33-.13.45.45,0,0,1-.14-.33.46.46,0,0,1,.14-.34.48.48,0,0,1,.66,0,.42.42,0,0,1,.14.34.41.41,0,0,1-.14.32A.42.42,0,0,1,142,341.16Zm.35,5.64h-.72v-4.5h.72Z"/><path class="cls-30" d="M146.2,343a1,1,0,0,0-1.31.29,2,2,0,0,0-.31,1.19v2.29h-.72v-4.5h.72v.93h0a1.62,1.62,0,0,1,.48-.74,1,1,0,0,1,.7-.27,1.16,1.16,0,0,1,.43.07Z"/><path class="cls-30" d="M149.08,346.76a1.42,1.42,0,0,1-.67.14c-.79,0-1.18-.44-1.18-1.32v-2.66h-.78v-.62h.78v-1.09L148,341v1.33h1.13v.62H148v2.53a1.07,1.07,0,0,0,.15.65.6.6,0,0,0,.51.19.75.75,0,0,0,.47-.15Z"/><path class="cls-30" d="M153.69,346.8H153v-.71h0a1.46,1.46,0,0,1-1.38.82c-1.08,0-1.61-.64-1.61-1.92V342.3h.71v2.58c0,.95.37,1.42,1.09,1.42a1.11,1.11,0,0,0,.87-.39,1.45,1.45,0,0,0,.34-1v-2.6h.72Z"/><path class="cls-30" d="M158.38,346.8h-.72v-.7h0a1.51,1.51,0,0,1-1.39.81,1.49,1.49,0,0,1-1.05-.36,1.23,1.23,0,0,1-.38-.94c0-.84.5-1.33,1.49-1.47l1.35-.19c0-.76-.31-1.15-.93-1.15a2.23,2.23,0,0,0-1.47.56v-.74a2.79,2.79,0,0,1,1.53-.42q1.59,0,1.59,1.68Zm-.72-2.27-1.09.15a1.84,1.84,0,0,0-.76.24.72.72,0,0,0-.25.64.67.67,0,0,0,.23.53.92.92,0,0,0,.63.21,1.17,1.17,0,0,0,.89-.37,1.36,1.36,0,0,0,.35-.95Z"/><path class="cls-30" d="M160.46,346.8h-.72v-6.66h.72Z"/><path class="cls-30" d="M86,336.8h-.74v-4.22q0-.51.06-1.23h0a4.62,4.62,0,0,1-.19.61L83,336.8h-.36L80.47,332a2.9,2.9,0,0,1-.19-.65h0q0,.38,0,1.23v4.22h-.71v-6.3h1l1.93,4.4a5.05,5.05,0,0,1,.29.75h0c.12-.34.22-.6.3-.77l2-4.38H86Z"/><path class="cls-30" d="M90.8,336.8h-.72v-.7h0a1.51,1.51,0,0,1-1.39.81,1.49,1.49,0,0,1-1-.36,1.23,1.23,0,0,1-.38-.94c0-.84.5-1.33,1.49-1.47l1.35-.19c0-.76-.31-1.15-.93-1.15a2.23,2.23,0,0,0-1.47.56v-.74a2.79,2.79,0,0,1,1.53-.42q1.59,0,1.59,1.68Zm-.72-2.27-1.09.15a1.84,1.84,0,0,0-.76.24.72.72,0,0,0-.25.64.65.65,0,0,0,.24.53.88.88,0,0,0,.62.21,1.17,1.17,0,0,0,.89-.37,1.36,1.36,0,0,0,.35-.95Zm.09-4.52L89,331.45h-.56l1-1.44Z"/><path class="cls-30" d="M96,338.87h-.72V336h0a1.62,1.62,0,0,1-1.54.88,1.67,1.67,0,0,1-1.36-.61,2.46,2.46,0,0,1-.51-1.64,2.67,2.67,0,0,1,.56-1.79,1.86,1.86,0,0,1,1.51-.67,1.42,1.42,0,0,1,1.34.73h0v-.63H96Zm-.72-4.09v-.66a1.29,1.29,0,0,0-.36-.93,1.2,1.2,0,0,0-.92-.39,1.23,1.23,0,0,0-1,.49,2.15,2.15,0,0,0-.38,1.35,1.87,1.87,0,0,0,.37,1.22,1.15,1.15,0,0,0,.94.44,1.27,1.27,0,0,0,1-.43A1.6,1.6,0,0,0,95.28,334.78Z"/><path class="cls-30" d="M101.11,336.8h-.72v-.71h0a1.47,1.47,0,0,1-1.39.82c-1.07,0-1.6-.64-1.6-1.92V332.3h.71v2.58c0,.95.37,1.42,1.09,1.42a1.11,1.11,0,0,0,.87-.39,1.45,1.45,0,0,0,.34-1v-2.6h.72Z"/><path class="cls-30" d="M102.94,331.16a.48.48,0,0,1-.33-.13.44.44,0,0,1-.13-.33.45.45,0,0,1,.13-.34.48.48,0,0,1,.33-.13.45.45,0,0,1,.34.13.46.46,0,0,1,.14.34.45.45,0,0,1-.14.32A.42.42,0,0,1,102.94,331.16Zm.36,5.64h-.72v-4.5h.72Z"/><path class="cls-30" d="M108.5,336.8h-.72v-2.56q0-1.44-1-1.44a1.12,1.12,0,0,0-.89.41,1.49,1.49,0,0,0-.36,1v2.56h-.72v-4.5h.72v.75h0a1.62,1.62,0,0,1,1.48-.85,1.4,1.4,0,0,1,1.13.47,2.14,2.14,0,0,1,.39,1.38Z"/><path class="cls-30" d="M113.09,336.8h-.72v-.7h0a1.51,1.51,0,0,1-1.39.81,1.49,1.49,0,0,1-1-.36,1.23,1.23,0,0,1-.38-.94c0-.84.5-1.33,1.49-1.47l1.35-.19c0-.76-.31-1.15-.93-1.15a2.23,2.23,0,0,0-1.47.56v-.74a2.79,2.79,0,0,1,1.53-.42q1.59,0,1.59,1.68Zm-.72-2.27-1.09.15a1.79,1.79,0,0,0-.75.24.73.73,0,0,0-.26.64.65.65,0,0,0,.24.53.88.88,0,0,0,.62.21,1.17,1.17,0,0,0,.89-.37,1.36,1.36,0,0,0,.35-.95Z"/><path class="cls-30" d="M88.22,342.3l-1.8,4.5h-.71L84,342.3h.79l1.14,3.27a2.64,2.64,0,0,1,.16.63h0a3.42,3.42,0,0,1,.14-.61l1.2-3.29Z"/><path class="cls-30" d="M89.37,341.16A.44.44,0,0,1,89,341a.45.45,0,0,1-.14-.33.46.46,0,0,1,.14-.34.48.48,0,0,1,.66,0,.42.42,0,0,1,.14.34.41.41,0,0,1-.14.32A.42.42,0,0,1,89.37,341.16Zm.35,5.64H89v-4.5h.72Z"/><path class="cls-30" d="M93.53,343a1,1,0,0,0-1.31.29,2,2,0,0,0-.31,1.19v2.29h-.72v-4.5h.72v.93h0a1.62,1.62,0,0,1,.48-.74,1,1,0,0,1,.7-.27,1.16,1.16,0,0,1,.43.07Z"/><path class="cls-30" d="M96.41,346.76a1.42,1.42,0,0,1-.67.14c-.79,0-1.18-.44-1.18-1.32v-2.66h-.78v-.62h.78v-1.09l.72-.24v1.33h1.13v.62H95.28v2.53a1.07,1.07,0,0,0,.15.65.6.6,0,0,0,.51.19.75.75,0,0,0,.47-.15Z"/><path class="cls-30" d="M101,346.8h-.72v-.71h0a1.47,1.47,0,0,1-1.38.82c-1.08,0-1.61-.64-1.61-1.92V342.3H98v2.58c0,.95.37,1.42,1.09,1.42a1.11,1.11,0,0,0,.87-.39,1.45,1.45,0,0,0,.34-1v-2.6H101Z"/><path class="cls-30" d="M105.71,346.8H105v-.7h0a1.52,1.52,0,0,1-1.39.81,1.47,1.47,0,0,1-1-.36,1.23,1.23,0,0,1-.38-.94c0-.84.5-1.33,1.49-1.47L105,344c0-.76-.31-1.15-.93-1.15a2.23,2.23,0,0,0-1.47.56v-.74a2.79,2.79,0,0,1,1.53-.42q1.59,0,1.59,1.68Zm-.72-2.27-1.09.15a1.84,1.84,0,0,0-.76.24.72.72,0,0,0-.25.64.65.65,0,0,0,.24.53.88.88,0,0,0,.62.21,1.17,1.17,0,0,0,.89-.37A1.36,1.36,0,0,0,105,345Z"/><path class="cls-30" d="M107.79,346.8h-.72v-6.66h.72Z"/><path class="cls-30" d="M191,336.8h-.74v-4.22q0-.51.06-1.23h0a4.62,4.62,0,0,1-.19.61L188,336.8h-.36l-2.15-4.8a3.7,3.7,0,0,1-.18-.65h0q0,.38,0,1.23v4.22h-.71v-6.3h1l1.93,4.4a5.05,5.05,0,0,1,.29.75h0c.12-.34.22-.6.3-.77l2-4.38H191Z"/><path class="cls-30" d="M195.8,336.8h-.72v-.7h0a1.51,1.51,0,0,1-1.39.81,1.49,1.49,0,0,1-1-.36,1.23,1.23,0,0,1-.38-.94c0-.84.5-1.33,1.49-1.47l1.35-.19c0-.76-.31-1.15-.93-1.15a2.23,2.23,0,0,0-1.47.56v-.74a2.79,2.79,0,0,1,1.53-.42q1.59,0,1.59,1.68Zm-.72-2.27-1.09.15a1.84,1.84,0,0,0-.76.24.72.72,0,0,0-.25.64.67.67,0,0,0,.23.53.92.92,0,0,0,.63.21,1.17,1.17,0,0,0,.89-.37,1.36,1.36,0,0,0,.35-.95Zm.09-4.52L194,331.45h-.56l1-1.44Z"/><path class="cls-30" d="M201,338.87h-.72V336h0a1.62,1.62,0,0,1-1.54.88,1.67,1.67,0,0,1-1.36-.61,2.46,2.46,0,0,1-.51-1.64,2.67,2.67,0,0,1,.56-1.79,1.86,1.86,0,0,1,1.51-.67,1.42,1.42,0,0,1,1.34.73h0v-.63H201Zm-.72-4.09v-.66a1.29,1.29,0,0,0-.36-.93,1.2,1.2,0,0,0-.92-.39,1.23,1.23,0,0,0-1,.49,2.15,2.15,0,0,0-.38,1.35,1.87,1.87,0,0,0,.37,1.22,1.15,1.15,0,0,0,.94.44,1.27,1.27,0,0,0,1-.43A1.6,1.6,0,0,0,200.28,334.78Z"/><path class="cls-30" d="M206.11,336.8h-.72v-.71h0a1.47,1.47,0,0,1-1.39.82c-1.07,0-1.6-.64-1.6-1.92V332.3h.71v2.58c0,.95.37,1.42,1.09,1.42a1.11,1.11,0,0,0,.87-.39,1.45,1.45,0,0,0,.34-1v-2.6h.72Z"/><path class="cls-30" d="M207.94,331.16a.48.48,0,0,1-.33-.13.44.44,0,0,1-.13-.33.45.45,0,0,1,.13-.34.48.48,0,0,1,.33-.13.45.45,0,0,1,.34.13.46.46,0,0,1,.14.34.45.45,0,0,1-.14.32A.42.42,0,0,1,207.94,331.16Zm.36,5.64h-.72v-4.5h.72Z"/><path class="cls-30" d="M213.5,336.8h-.72v-2.56q0-1.44-1.05-1.44a1.12,1.12,0,0,0-.89.41,1.49,1.49,0,0,0-.36,1v2.56h-.72v-4.5h.72v.75h0a1.62,1.62,0,0,1,1.48-.85,1.4,1.4,0,0,1,1.13.47,2.14,2.14,0,0,1,.39,1.38Z"/><path class="cls-30" d="M218.09,336.8h-.72v-.7h0a1.51,1.51,0,0,1-1.39.81,1.49,1.49,0,0,1-1.05-.36,1.23,1.23,0,0,1-.38-.94c0-.84.5-1.33,1.49-1.47l1.35-.19c0-.76-.31-1.15-.93-1.15a2.23,2.23,0,0,0-1.47.56v-.74a2.79,2.79,0,0,1,1.53-.42q1.59,0,1.59,1.68Zm-.72-2.27-1.09.15a1.79,1.79,0,0,0-.75.24.73.73,0,0,0-.26.64.65.65,0,0,0,.24.53.88.88,0,0,0,.62.21,1.17,1.17,0,0,0,.89-.37,1.36,1.36,0,0,0,.35-.95Z"/><path class="cls-30" d="M193.21,342.3l-1.79,4.5h-.71l-1.7-4.5h.79l1.14,3.27a2.64,2.64,0,0,1,.16.63h0a3.42,3.42,0,0,1,.14-.61l1.2-3.29Z"/><path class="cls-30" d="M194.37,341.16A.44.44,0,0,1,194,341a.45.45,0,0,1-.14-.33.46.46,0,0,1,.14-.34.48.48,0,0,1,.66,0,.46.46,0,0,1,.14.34.45.45,0,0,1-.14.32A.42.42,0,0,1,194.37,341.16Zm.35,5.64H194v-4.5h.72Z"/><path class="cls-30" d="M198.53,343a1,1,0,0,0-1.31.29,2,2,0,0,0-.31,1.19v2.29h-.72v-4.5h.72v.93h0a1.69,1.69,0,0,1,.47-.74,1.09,1.09,0,0,1,.71-.27,1.16,1.16,0,0,1,.43.07Z"/><path class="cls-30" d="M201.41,346.76a1.42,1.42,0,0,1-.67.14c-.79,0-1.18-.44-1.18-1.32v-2.66h-.78v-.62h.78v-1.09l.72-.24v1.33h1.13v.62h-1.13v2.53a1.07,1.07,0,0,0,.15.65.6.6,0,0,0,.51.19.75.75,0,0,0,.47-.15Z"/><path class="cls-30" d="M206,346.8h-.72v-.71h0a1.47,1.47,0,0,1-1.39.82c-1.07,0-1.6-.64-1.6-1.92V342.3H203v2.58c0,.95.37,1.42,1.09,1.42a1.11,1.11,0,0,0,.87-.39,1.45,1.45,0,0,0,.34-1v-2.6H206Z"/><path class="cls-30" d="M210.71,346.8H210v-.7h0a1.52,1.52,0,0,1-1.39.81,1.47,1.47,0,0,1-1.05-.36,1.23,1.23,0,0,1-.38-.94c0-.84.5-1.33,1.49-1.47L210,344c0-.76-.31-1.15-.93-1.15a2.23,2.23,0,0,0-1.47.56v-.74a2.79,2.79,0,0,1,1.53-.42q1.59,0,1.59,1.68Zm-.72-2.27-1.09.15a1.84,1.84,0,0,0-.76.24.72.72,0,0,0-.25.64.65.65,0,0,0,.24.53.88.88,0,0,0,.62.21,1.17,1.17,0,0,0,.89-.37A1.36,1.36,0,0,0,210,345Z"/><path class="cls-30" d="M212.79,346.8h-.72v-6.66h.72Z"/></g></svg>