<svg xmlns="http://www.w3.org/2000/svg" xmlns:xlink="http://www.w3.org/1999/xlink" viewBox="0 0 492.8 180.36"><defs><style>.cls-1{fill:#505050;}.cls-10,.cls-2{fill:#fff;}.cls-3,.cls-7{fill:#ebebeb;}.cls-4{fill:#0072c6;}.cls-5{fill:#008575;}.cls-6{fill:none;}.cls-6,.cls-7,.cls-8{stroke:#000;}.cls-10,.cls-6,.cls-7,.cls-8,.cls-9{stroke-miterlimit:10;}.cls-7{stroke-width:0.75px;}.cls-10,.cls-8{stroke-width:0.05px;}.cls-9{fill:#1e1e1e;stroke:#1e1e1e;stroke-width:0.06px;}.cls-10{stroke:#fff;}</style><symbol id="New_Symbol_44" data-name="New Symbol 44" viewBox="0 0 20 20"><circle class="cls-1" cx="10" cy="10" r="10"/><path class="cls-2" d="M12,14V8.58h1.25V7.45H12V5.6H10.65V7.42H6.85V8.56q.51.58,1.05,1.26a12.66,12.66,0,0,1,1,1.38c.29.47.64.94.93,1.41A13,13,0,0,1,10.55,14ZM10.65,8.58v3.5a19.76,19.76,0,0,0-1.26-2C9,9.51,8.58,9,8.22,8.56Z"/></symbol><symbol id="New_Symbol_43" data-name="New Symbol 43" viewBox="0 0 20 20"><circle class="cls-1" cx="10" cy="10" r="10"/><path class="cls-2" d="M7.39,5.88V7.16a3,3,0,0,1,1.85-.65,2.19,2.19,0,0,1,1.34.38,1.23,1.23,0,0,1,.5,1c0,1-.73,1.43-2.18,1.43H8.24v1.12h.63c1.29,0,1.94.45,1.94,1.35S10.3,13,9.29,13a2.48,2.48,0,0,1-1.58-.6v1.23a4.08,4.08,0,0,0,2,.48,2.64,2.64,0,0,0,1.79-.56,1.76,1.76,0,0,0,.67-1.44A2,2,0,0,0,10.5,10h0a2.19,2.19,0,0,0,1.43-.63A1.89,1.89,0,0,0,12.5,8a2.22,2.22,0,0,0-.85-1.82,3.4,3.4,0,0,0-2.24-.7A3.84,3.84,0,0,0,7.39,5.88Z"/></symbol><symbol id="New_Symbol_41" data-name="New Symbol 41" viewBox="0 0 20 20"><circle class="cls-1" cx="10" cy="10" r="10"/><path class="cls-2" d="M11.19,14.16V5.57H9.83V12.5A4.06,4.06,0,0,0,9,12a9,9,0,0,0-1-.33v1.21l.65.24.63.27.62.34c.21.13.42.27.64.43Z"/></symbol><symbol id="New_Symbol_42" data-name="New Symbol 42" viewBox="0 0 20 20"><circle class="cls-1" cx="10" cy="10" r="10"/><path class="cls-2" d="M12.5,5.57H7.24v.65A2.58,2.58,0,0,0,7.35,7a3.93,3.93,0,0,0,.3.66,4.92,4.92,0,0,0,.44.58c.17.18.35.35.54.52l.59.5c.2.15.39.31.58.47s.35.3.5.45a4.11,4.11,0,0,1,.38.45,2.55,2.55,0,0,1,.24.5,1.84,1.84,0,0,1,.09.57,1.42,1.42,0,0,1-.1.58,1.33,1.33,0,0,1-.29.41,1.17,1.17,0,0,1-.44.26,2.05,2.05,0,0,1-.55.05,2.73,2.73,0,0,1-1.05-.24,3.75,3.75,0,0,1-1-.72v1.31a2.85,2.85,0,0,0,.52.33,2.7,2.7,0,0,0,.55.24,3,3,0,0,0,.59.15,3.64,3.64,0,0,0,.66,0,3.77,3.77,0,0,0,1-.14,2.2,2.2,0,0,0,.79-.44,2,2,0,0,0,.51-.73,2.46,2.46,0,0,0,.18-1,2.88,2.88,0,0,0-.13-.92,2.65,2.65,0,0,0-.36-.76,4,4,0,0,0-.56-.67c-.21-.21-.46-.43-.73-.65l-.67-.53c-.23-.18-.43-.35-.61-.51a3.5,3.5,0,0,1-.44-.5.9.9,0,0,1-.16-.5H12.5Z"/></symbol><symbol id="New_Symbol_45" data-name="New Symbol 45" viewBox="0 0 20 20"><circle class="cls-1" cx="10" cy="10" r="10"/><path class="cls-2" d="M7.58,5.77v1.3a3,3,0,0,1,1.67-.55A2.07,2.07,0,0,1,10.63,7a1.4,1.4,0,0,1,.52,1.16,1.32,1.32,0,0,1-.53,1.12,2.54,2.54,0,0,1-1.52.4,12.8,12.8,0,0,1-1.38-.07L8,14h4.14V12.81h-3L9,10.71h.73A2.89,2.89,0,0,0,11.82,10a2.43,2.43,0,0,0,.68-1.86,2.57,2.57,0,0,0-.84-2,3.29,3.29,0,0,0-2.29-.75A3.57,3.57,0,0,0,7.58,5.77Z"/></symbol></defs><title>OJ104329345</title><g id="bg"><g id="Shapes"><rect class="cls-2" y="0.24" width="492.8" height="180.12"/><rect class="cls-3" y="0.48" width="105" height="155"/><rect class="cls-4" x="369.66" y="60" width="105" height="95"/><rect class="cls-5" x="369.66" width="105" height="55"/><line class="cls-6" x1="104.64" y1="15" x2="364.17" y2="15"/><polygon points="363.07 18.74 369.55 15.01 363.07 11.27 363.07 18.74"/><line class="cls-6" x1="110.03" y1="44.89" x2="369.55" y2="44.89"/><polygon points="111.12 48.63 104.64 44.89 111.12 41.15 111.12 48.63"/><line class="cls-6" x1="104.64" y1="85.48" x2="364.17" y2="85.48"/><polygon points="363.07 89.21 369.55 85.47 363.07 81.74 363.07 89.21"/><line class="cls-6" x1="110.03" y1="136.1" x2="369.55" y2="136.1"/><polygon points="111.12 139.84 104.64 136.1 111.12 132.36 111.12 139.84"/><path class="cls-6" d="M50.54,155.24v7.26c0,4,4.5,7.27,10,7.28l419.1.76a10,10,0,0,0,10-10V30.27a2.68,2.68,0,0,0-2.81-2.51H480" transform="translate(0 0.24)"/><polygon points="481.12 24.26 474.64 28.01 481.12 31.74 481.12 24.26"/><path d="M80.24,38.07A34.78,34.78,0,0,0,52.51,24.4a34.94,34.94,0,1,0,0,69.89,35.37,35.37,0,0,0,21.27-7.21,34.84,34.84,0,0,0,6.59-48.84Zm1.65,29.18c-1.24-.93-3-2.31-5.31-4.14a6.89,6.89,0,0,0-.77-6.4,6.65,6.65,0,0,0-8.55-1.54c-3.06-2.74-6.41-5.89-10-9.44,10.74-5.88,18.63-5.17,19.1-5.12l.33.41A30.24,30.24,0,0,1,81.89,67.25ZM62.7,75.48a6.53,6.53,0,0,0-1.09-2.38,5.93,5.93,0,0,0-8-1.4,55.93,55.93,0,0,1-8.15-5.41l-.71-.6a9.26,9.26,0,0,0-1.31-9c0-.07-.11-.13-.16-.19.6-.64,1.22-1.28,1.89-1.89a57.69,57.69,0,0,1,8-6.46h.08l-.09.07C56.9,51.69,60.92,55,64.72,58a6.55,6.55,0,0,0,.58,6.69A6.68,6.68,0,0,0,74.53,66a3.7,3.7,0,0,0,.42-.37c2.72,1.93,4.88,3.39,6.13,4.24a29.89,29.89,0,0,1-3.4,6.66A32,32,0,0,1,62.7,75.48Zm9.37-39.31a33,33,0,0,0-20.31,3.75C49,37,46.11,33.75,43.16,30.45A30.28,30.28,0,0,1,72.07,36.17ZM34,35.27a30.94,30.94,0,0,1,5.08-3.15,62.37,62.37,0,0,0,8.24,10.37,51.24,51.24,0,0,0-8.4,7.3c-1,1.1-1.94,2.19-2.8,3.29a8.83,8.83,0,0,0-4.27,1,24.31,24.31,0,0,1-3.36-13.39A30.08,30.08,0,0,1,34,35.27ZM24.91,46.53A22.24,22.24,0,0,0,28,58a9.19,9.19,0,0,0,.83,10h0a54.87,54.87,0,0,0-1.38,8.65A30.38,30.38,0,0,1,24.91,46.53ZM52.47,89.85A30,30,0,0,1,33,82.73a41.74,41.74,0,0,1,1.52-11.28,9.23,9.23,0,0,0,6.88-1.53l.77.59A50.12,50.12,0,0,0,50.79,76,5.89,5.89,0,0,0,52,80.52a6.06,6.06,0,0,0,8.48,1.17A6,6,0,0,0,62,80a54.94,54.94,0,0,0,11.72,1.22A28.7,28.7,0,0,1,71,83.56,30.17,30.17,0,0,1,52.47,89.85Z" transform="translate(0 0.24)"/><use width="20" height="20" transform="matrix(1, 0, 0, -1, 158.55, 146.03)" xlink:href="#New_Symbol_44"/><use width="20" height="20" transform="matrix(1, 0, 0, -1, 158.55, 97.44)" xlink:href="#New_Symbol_43"/><use width="20" height="20" transform="matrix(1, 0, 0, -1, 158.55, 24.44)" xlink:href="#New_Symbol_41"/><use width="20" height="20" transform="matrix(1, 0, 0, -1, 158.55, 54.33)" xlink:href="#New_Symbol_42"/></g><g id="Text"><polygon class="cls-7" points="192.2 105.97 184.65 111.42 187.53 120.22 196.88 120.22 199.76 111.42 192.2 105.97"/><polygon class="cls-7" points="191.22 150.48 183.66 155.92 186.55 164.73 195.89 164.73 198.78 155.92 191.22 150.48"/><use width="20" height="20" transform="matrix(1, 0, 0, -1, 158.55, 179.44)" xlink:href="#New_Symbol_45"/></g></g><g id="txt"><path class="cls-8" d="M27.38,114.68h-5v-8.4h4.85v1.54h-3v1.87H27v1.54H24.24v1.92h3.14Z" transform="translate(0 0.24)"/><path class="cls-8" d="M34.34,108.68l-2,2.91,2,3.09H32.2l-.87-1.61c-.07-.13-.15-.32-.25-.55h0a4.68,4.68,0,0,1-.24.53l-.88,1.63H27.82l2-3-1.9-3h2.14l.86,1.68a4.49,4.49,0,0,1,.24.57h0a4.16,4.16,0,0,1,.26-.58l.87-1.67Z" transform="translate(0 0.24)"/><path class="cls-8" d="M37.05,114h0v3.45H35.18v-8.76H37v.9h0a2.19,2.19,0,0,1,1.93-1,2.14,2.14,0,0,1,1.8.8,3.4,3.4,0,0,1,.64,2.17,3.66,3.66,0,0,1-.75,2.41,2.4,2.4,0,0,1-2,.91A1.87,1.87,0,0,1,37.05,114Zm0-2.47V112a1.53,1.53,0,0,0,.33,1,1.05,1.05,0,0,0,.86.39,1.12,1.12,0,0,0,1-.49,2.36,2.36,0,0,0,.35-1.38q0-1.59-1.23-1.59a1.18,1.18,0,0,0-.93.43A1.73,1.73,0,0,0,37,111.52Z" transform="translate(0 0.24)"/><path class="cls-8" d="M44.47,114.68H42.62V105.8h1.85Z" transform="translate(0 0.24)"/><path class="cls-8" d="M48.89,114.83a3.23,3.23,0,0,1-2.36-.84,3.47,3.47,0,0,1,0-4.61,3.37,3.37,0,0,1,2.41-.84,3.18,3.18,0,0,1,2.34.84,3,3,0,0,1,.85,2.22,3.18,3.18,0,0,1-.87,2.36A3.27,3.27,0,0,1,48.89,114.83Zm0-4.88a1.24,1.24,0,0,0-1,.46,2,2,0,0,0-.36,1.27c0,1.15.47,1.73,1.4,1.73s1.33-.59,1.33-1.77S49.83,110,48.93,110Z" transform="translate(0 0.24)"/><path class="cls-8" d="M57.28,110.35a1.66,1.66,0,0,0-.78-.18,1.15,1.15,0,0,0-1,.44,2,2,0,0,0-.34,1.21v2.86H53.36v-6h1.85v1.12h0a1.59,1.59,0,0,1,1.58-1.22,1.14,1.14,0,0,1,.46.07Z" transform="translate(0 0.24)"/><path class="cls-8" d="M63.13,114.68H61.38v-.86h0a2,2,0,0,1-1.79,1,1.9,1.9,0,0,1-1.38-.5,1.79,1.79,0,0,1-.5-1.32q0-1.74,2.07-2l1.63-.22c0-.66-.35-1-1.07-1a3.65,3.65,0,0,0-2,.63V109a4.57,4.57,0,0,1,1.05-.35,5.7,5.7,0,0,1,1.22-.15,2.26,2.26,0,0,1,2.57,2.56Zm-1.74-2.43v-.41L60.3,112c-.6.08-.9.35-.9.82a.64.64,0,0,0,.22.51.8.8,0,0,0,.59.21,1.1,1.1,0,0,0,.85-.36A1.31,1.31,0,0,0,61.39,112.25Z" transform="translate(0 0.24)"/><path class="cls-8" d="M70.47,114.68H68.62v-.82h0a2.09,2.09,0,0,1-1.86,1,2.3,2.3,0,0,1-1.81-.79,3.33,3.33,0,0,1-.68-2.22,3.62,3.62,0,0,1,.75-2.39,2.47,2.47,0,0,1,2-.89,1.67,1.67,0,0,1,1.62.83h0V105.8h1.85Zm-1.82-2.92v-.45a1.4,1.4,0,0,0-.34-1,1.12,1.12,0,0,0-.88-.39,1.15,1.15,0,0,0-1,.49,2.23,2.23,0,0,0-.34,1.32,2,2,0,0,0,.33,1.22,1.11,1.11,0,0,0,.93.43,1.13,1.13,0,0,0,.92-.45A1.92,1.92,0,0,0,68.65,111.76Z" transform="translate(0 0.24)"/><path class="cls-8" d="M74.88,114.83a3.2,3.2,0,0,1-2.35-.84,3.47,3.47,0,0,1,0-4.61,3.37,3.37,0,0,1,2.41-.84,3.19,3.19,0,0,1,2.34.84,3,3,0,0,1,.85,2.22,3.15,3.15,0,0,1-.88,2.36A3.24,3.24,0,0,1,74.88,114.83Zm.05-4.88a1.21,1.21,0,0,0-1,.46,2,2,0,0,0-.36,1.27c0,1.15.46,1.73,1.39,1.73s1.33-.59,1.33-1.77S75.83,110,74.93,110Z" transform="translate(0 0.24)"/><path class="cls-8" d="M83.28,110.35a1.66,1.66,0,0,0-.78-.18,1.14,1.14,0,0,0-1,.44,2,2,0,0,0-.34,1.21v2.86H79.36v-6h1.85v1.12h0a1.59,1.59,0,0,1,1.58-1.22,1.17,1.17,0,0,1,.46.07Z" transform="translate(0 0.24)"/><path class="cls-8" d="M50.12,123.08l-1.73,6h-2l-.88-3.51a3.68,3.68,0,0,1-.1-.77h0a4,4,0,0,1-.11.74l-1,3.54H42.44l-1.7-6h1.89l.83,3.92c0,.18.06.4.08.67h0a3.9,3.9,0,0,1,.1-.7l1-3.89h1.77L47.4,127a4.06,4.06,0,0,1,.09.68h0c0-.23,0-.46.09-.68l.78-3.92Z" transform="translate(0 0.24)"/><path class="cls-8" d="M56.33,126.61H52.41c.07.87.62,1.31,1.65,1.31a3.24,3.24,0,0,0,1.74-.47v1.33a4.5,4.5,0,0,1-2.16.45,2.79,2.79,0,0,1-3.06-3,3.2,3.2,0,0,1,.87-2.37,2.9,2.9,0,0,1,2.13-.87,2.62,2.62,0,0,1,2,.78,3,3,0,0,1,.72,2.11Zm-1.72-1.14c0-.86-.35-1.29-1-1.29a1,1,0,0,0-.77.37,1.72,1.72,0,0,0-.4.92Z" transform="translate(0 0.24)"/><path class="cls-8" d="M59.3,128.39h0v.69H57.43V120.2h1.85V124h0a2.21,2.21,0,0,1,2-1,2.12,2.12,0,0,1,1.78.79,3.43,3.43,0,0,1,.63,2.18,3.71,3.71,0,0,1-.73,2.41,2.38,2.38,0,0,1-2,.91A1.9,1.9,0,0,1,59.3,128.39Zm0-2.54v.62a1.36,1.36,0,0,0,.34,1,1.08,1.08,0,0,0,.85.38,1.12,1.12,0,0,0,1-.49,2.29,2.29,0,0,0,.35-1.38,1.85,1.85,0,0,0-.32-1.17,1.06,1.06,0,0,0-.91-.42,1.16,1.16,0,0,0-.92.42A1.56,1.56,0,0,0,59.25,125.85Z" transform="translate(0 0.24)"/><path class="cls-9" d="M185.54,66.87V65.71A2,2,0,0,0,186,66a5.19,5.19,0,0,0,.59.24,6.23,6.23,0,0,0,.62.15,4,4,0,0,0,.57,0,2.22,2.22,0,0,0,1.36-.34,1.14,1.14,0,0,0,.45-1,1.15,1.15,0,0,0-.15-.59,1.64,1.64,0,0,0-.42-.46,3.91,3.91,0,0,0-.62-.4l-.78-.4-.82-.45a3.81,3.81,0,0,1-.66-.5,2.24,2.24,0,0,1-.44-.63,2.13,2.13,0,0,1,.09-1.81,2.24,2.24,0,0,1,.66-.71,3.08,3.08,0,0,1,.94-.41,4.22,4.22,0,0,1,1.06-.13,4.13,4.13,0,0,1,1.82.3v1.11a3.26,3.26,0,0,0-1.91-.52,2.88,2.88,0,0,0-.65.07,1.69,1.69,0,0,0-.57.22,1.18,1.18,0,0,0-.41.39,1,1,0,0,0-.16.59,1.18,1.18,0,0,0,.12.55,1.41,1.41,0,0,0,.35.43,4.69,4.69,0,0,0,.57.38l.78.39c.3.15.59.31.86.47a4,4,0,0,1,.7.55,2.36,2.36,0,0,1,.49.66,1.84,1.84,0,0,1,.18.83,2,2,0,0,1-.9,1.75,3,3,0,0,1-.95.39,5.24,5.24,0,0,1-1.14.12l-.49,0q-.3,0-.6-.09a4.91,4.91,0,0,1-.58-.15A1.72,1.72,0,0,1,185.54,66.87Z" transform="translate(0 0.24)"/><path class="cls-9" d="M194.61,67.35a2.77,2.77,0,0,1-2.12-.84,3.11,3.11,0,0,1-.8-2.23,3.26,3.26,0,0,1,.83-2.36,3,3,0,0,1,2.23-.85,2.71,2.71,0,0,1,2.1.83,3.27,3.27,0,0,1,.75,2.29,3.23,3.23,0,0,1-.81,2.3A2.83,2.83,0,0,1,194.61,67.35Zm.07-5.47a1.8,1.8,0,0,0-1.46.63,2.59,2.59,0,0,0-.54,1.74,2.46,2.46,0,0,0,.54,1.68,1.85,1.85,0,0,0,1.46.61,1.75,1.75,0,0,0,1.43-.6,2.58,2.58,0,0,0,.5-1.72,2.62,2.62,0,0,0-.5-1.73A1.73,1.73,0,0,0,194.68,61.88Z" transform="translate(0 0.24)"/><path class="cls-9" d="M200,67.21h-1V58.33h1Z" transform="translate(0 0.24)"/><path class="cls-9" d="M202.39,59.69a.6.6,0,0,1-.44-.18.57.57,0,0,1-.18-.44.61.61,0,0,1,.18-.45.6.6,0,0,1,.44-.18.64.64,0,0,1,.45.18.61.61,0,0,1,.18.45.6.6,0,0,1-.18.44A.64.64,0,0,1,202.39,59.69Zm.47,7.52h-1v-6h1Z" transform="translate(0 0.24)"/><path class="cls-9" d="M208.82,66.94a3.19,3.19,0,0,1-1.64.41,2.68,2.68,0,0,1-2.07-.83,3,3,0,0,1-.79-2.17,3.32,3.32,0,0,1,.85-2.38,3,3,0,0,1,2.27-.9,3.09,3.09,0,0,1,1.39.3v1a2.45,2.45,0,0,0-1.43-.47,2,2,0,0,0-1.51.66,2.52,2.52,0,0,0-.59,1.73,2.41,2.41,0,0,0,.56,1.67,1.91,1.91,0,0,0,1.48.6,2.39,2.39,0,0,0,1.48-.52Z" transform="translate(0 0.24)"/><path class="cls-9" d="M210.69,59.69a.6.6,0,0,1-.44-.18.57.57,0,0,1-.18-.44.61.61,0,0,1,.18-.45.6.6,0,0,1,.44-.18.61.61,0,0,1,.45.18.62.62,0,0,1,0,.89A.61.61,0,0,1,210.69,59.69Zm.47,7.52h-1v-6h1Z" transform="translate(0 0.24)"/><path class="cls-9" d="M215.82,67.15a1.82,1.82,0,0,1-.9.19c-1,0-1.57-.58-1.57-1.76V62h-1v-.82h1V59.75l1-.31v1.77h1.51V62h-1.51v3.38a1.41,1.41,0,0,0,.2.87.82.82,0,0,0,.68.25,1,1,0,0,0,.63-.2Z" transform="translate(0 0.24)"/><path class="cls-9" d="M221.32,67.21h-1v-.93h0a2,2,0,0,1-1.85,1.07,2,2,0,0,1-1.4-.47,1.65,1.65,0,0,1-.51-1.26c0-1.12.66-1.77,2-2l1.8-.25q0-1.53-1.23-1.53a3,3,0,0,0-2,.74v-1a3.76,3.76,0,0,1,2-.56c1.41,0,2.11.75,2.11,2.24Zm-1-3-1.44.2a2.25,2.25,0,0,0-1,.33,1,1,0,0,0-.34.84.92.92,0,0,0,.31.72,1.25,1.25,0,0,0,.84.27,1.53,1.53,0,0,0,1.18-.5,1.76,1.76,0,0,0,.46-1.26Z" transform="translate(0 0.24)"/><path class="cls-9" d="M226.19,62.19a1.18,1.18,0,0,0-.73-.2,1.22,1.22,0,0,0-1,.58,2.67,2.67,0,0,0-.42,1.58v3.06h-1v-6h1v1.24h0a2.08,2.08,0,0,1,.62-1,1.49,1.49,0,0,1,1-.35,1.44,1.44,0,0,1,.57.08Z" transform="translate(0 0.24)"/><path class="cls-9" d="M189.89,79.94a3.19,3.19,0,0,1-1.64.41,2.68,2.68,0,0,1-2.07-.83,3,3,0,0,1-.79-2.17,3.32,3.32,0,0,1,.85-2.38,3,3,0,0,1,2.27-.9,3.09,3.09,0,0,1,1.39.3v1a2.45,2.45,0,0,0-1.43-.47,1.93,1.93,0,0,0-1.51.66,2.52,2.52,0,0,0-.59,1.73,2.41,2.41,0,0,0,.56,1.67,1.91,1.91,0,0,0,1.48.6,2.39,2.39,0,0,0,1.48-.52Z" transform="translate(0 0.24)"/><path class="cls-9" d="M194.4,75.19a1.18,1.18,0,0,0-.73-.2,1.25,1.25,0,0,0-1,.58,2.74,2.74,0,0,0-.41,1.58v3.06h-1v-6h1v1.24h0a2.17,2.17,0,0,1,.63-1,1.46,1.46,0,0,1,.94-.35,1.49,1.49,0,0,1,.58.08Z" transform="translate(0 0.24)"/><path class="cls-9" d="M200.19,77.45H196a2.23,2.23,0,0,0,.53,1.55,1.88,1.88,0,0,0,1.42.54,3,3,0,0,0,1.87-.66v.9a3.53,3.53,0,0,1-2.1.57,2.53,2.53,0,0,1-2-.81,3.34,3.34,0,0,1-.73-2.3,3.29,3.29,0,0,1,.79-2.29,2.58,2.58,0,0,1,2-.88,2.28,2.28,0,0,1,1.82.76,3.19,3.19,0,0,1,.64,2.12Zm-1-.81a2,2,0,0,0-.4-1.3,1.4,1.4,0,0,0-1.1-.46,1.54,1.54,0,0,0-1.16.49,2.21,2.21,0,0,0-.58,1.27Z" transform="translate(0 0.24)"/><path class="cls-9" d="M206.69,80.21h-1v-1h0a2.21,2.21,0,0,1-2.06,1.16,2.25,2.25,0,0,1-1.81-.8,3.33,3.33,0,0,1-.68-2.2,3.59,3.59,0,0,1,.75-2.38,2.48,2.48,0,0,1,2-.9,1.94,1.94,0,0,1,1.8,1h0V71.33h1Zm-1-2.71v-.88a1.74,1.74,0,0,0-.48-1.24,1.62,1.62,0,0,0-1.22-.5,1.67,1.67,0,0,0-1.38.65,2.85,2.85,0,0,0-.5,1.78,2.53,2.53,0,0,0,.48,1.63,1.59,1.59,0,0,0,1.3.6,1.63,1.63,0,0,0,1.3-.58A2.11,2.11,0,0,0,205.73,77.5Z" transform="translate(0 0.24)"/><path class="cls-9" d="M213.39,77.45h-4.24a2.28,2.28,0,0,0,.54,1.55,1.88,1.88,0,0,0,1.42.54,2.94,2.94,0,0,0,1.86-.66v.9a3.47,3.47,0,0,1-2.09.57,2.56,2.56,0,0,1-2-.81,3.39,3.39,0,0,1-.72-2.3A3.29,3.29,0,0,1,209,75a2.58,2.58,0,0,1,2-.88,2.29,2.29,0,0,1,1.83.76,3.25,3.25,0,0,1,.64,2.12Zm-1-.81a2,2,0,0,0-.41-1.3,1.38,1.38,0,0,0-1.09-.46,1.54,1.54,0,0,0-1.16.49,2.15,2.15,0,0,0-.58,1.27Z" transform="translate(0 0.24)"/><path class="cls-9" d="M219.75,80.21h-1V76.79c0-1.27-.46-1.91-1.39-1.91a1.54,1.54,0,0,0-1.2.54,2,2,0,0,0-.47,1.37v3.42h-1v-6h1v1h0a2.15,2.15,0,0,1,2-1.14,1.83,1.83,0,0,1,1.51.64,2.79,2.79,0,0,1,.52,1.83Z" transform="translate(0 0.24)"/><path class="cls-9" d="M225.58,79.94a3.19,3.19,0,0,1-1.64.41,2.68,2.68,0,0,1-2.07-.83,3,3,0,0,1-.79-2.17,3.32,3.32,0,0,1,.85-2.38,3,3,0,0,1,2.27-.9,3.09,3.09,0,0,1,1.39.3v1a2.45,2.45,0,0,0-1.43-.47,2,2,0,0,0-1.51.66,2.52,2.52,0,0,0-.59,1.73,2.41,2.41,0,0,0,.56,1.67,1.91,1.91,0,0,0,1.48.6,2.39,2.39,0,0,0,1.48-.52Z" transform="translate(0 0.24)"/><path class="cls-9" d="M227.45,72.69a.6.6,0,0,1-.44-.18.57.57,0,0,1-.18-.44.61.61,0,0,1,.18-.45.6.6,0,0,1,.44-.18.61.61,0,0,1,.45.18.62.62,0,0,1,0,.89A.61.61,0,0,1,227.45,72.69Zm.47,7.52h-1v-6h1Z" transform="translate(0 0.24)"/><path class="cls-9" d="M234.09,80.21h-1v-.93h0a2,2,0,0,1-1.85,1.07,1.93,1.93,0,0,1-1.4-.47,1.65,1.65,0,0,1-.51-1.26c0-1.12.66-1.77,2-2l1.8-.25c0-1-.41-1.53-1.24-1.53a3,3,0,0,0-1.95.74v-1a3.75,3.75,0,0,1,2-.56c1.41,0,2.12.75,2.12,2.24Zm-1-3-1.45.2a2.35,2.35,0,0,0-1,.33,1,1,0,0,0-.34.84.93.93,0,0,0,.32.72,1.22,1.22,0,0,0,.83.27,1.51,1.51,0,0,0,1.18-.5,1.77,1.77,0,0,0,.47-1.26Z" transform="translate(0 0.24)"/><path class="cls-9" d="M236.79,80.21h-1V71.33h1Z" transform="translate(0 0.24)"/><path class="cls-9" d="M243.48,77.45h-4.23a2.19,2.19,0,0,0,.54,1.55,1.85,1.85,0,0,0,1.42.54,3,3,0,0,0,1.86-.66v.9a3.52,3.52,0,0,1-2.09.57,2.54,2.54,0,0,1-2-.81,3.34,3.34,0,0,1-.73-2.3,3.29,3.29,0,0,1,.8-2.29,2.56,2.56,0,0,1,2-.88,2.28,2.28,0,0,1,1.82.76,3.19,3.19,0,0,1,.64,2.12Zm-1-.81a2,2,0,0,0-.4-1.3,1.39,1.39,0,0,0-1.1-.46,1.52,1.52,0,0,0-1.15.49,2.16,2.16,0,0,0-.59,1.27Z" transform="translate(0 0.24)"/><path class="cls-9" d="M244.5,80V79a2.84,2.84,0,0,0,1.73.58c.85,0,1.27-.28,1.27-.84a.78.78,0,0,0-.11-.41,1,1,0,0,0-.29-.29,1.83,1.83,0,0,0-.44-.23l-.53-.22a5.16,5.16,0,0,1-.7-.32,2,2,0,0,1-.51-.36,1.41,1.41,0,0,1-.3-.46,1.57,1.57,0,0,1-.11-.6,1.45,1.45,0,0,1,.2-.75,1.78,1.78,0,0,1,.51-.55,2.77,2.77,0,0,1,.74-.33,3.41,3.41,0,0,1,.85-.11,3.46,3.46,0,0,1,1.4.27v1a2.82,2.82,0,0,0-1.53-.43,1.75,1.75,0,0,0-.48.06,1.11,1.11,0,0,0-.38.18.85.85,0,0,0-.24.26.81.81,0,0,0-.08.34,1,1,0,0,0,.08.4.94.94,0,0,0,.25.28,2.48,2.48,0,0,0,.4.22l.53.22a6.21,6.21,0,0,1,.72.31,2.82,2.82,0,0,1,.54.36,1.41,1.41,0,0,1,.34.47,1.54,1.54,0,0,1,.12.63,1.49,1.49,0,0,1-.19.77,1.85,1.85,0,0,1-.53.55,2.49,2.49,0,0,1-.76.32,3.68,3.68,0,0,1-.89.1A3.54,3.54,0,0,1,244.5,80Z" transform="translate(0 0.24)"/><path class="cls-9" d="M209.12,109.1h-2.43v7.51h-1V109.1h-2.42v-.89h5.83Z" transform="translate(0 0.24)"/><path class="cls-9" d="M211.62,116.75a2.79,2.79,0,0,1-2.13-.84,3.1,3.1,0,0,1-.79-2.23,3.21,3.21,0,0,1,.83-2.36,3,3,0,0,1,2.23-.85,2.69,2.69,0,0,1,2.09.83,3.28,3.28,0,0,1,.76,2.29,3.23,3.23,0,0,1-.82,2.3A2.85,2.85,0,0,1,211.62,116.75Zm.07-5.47a1.84,1.84,0,0,0-1.47.63,2.59,2.59,0,0,0-.54,1.74,2.46,2.46,0,0,0,.55,1.68,1.85,1.85,0,0,0,1.46.61,1.75,1.75,0,0,0,1.43-.6,2.63,2.63,0,0,0,.5-1.72,2.68,2.68,0,0,0-.5-1.73A1.73,1.73,0,0,0,211.69,111.28Z" transform="translate(0 0.24)"/><path class="cls-9" d="M221.1,116.61h-1.35l-2.65-2.88h0v2.88h-1v-8.88h1v5.63h0l2.52-2.75h1.26l-2.78,2.9Z" transform="translate(0 0.24)"/><path class="cls-9" d="M226.88,113.85h-4.24a2.28,2.28,0,0,0,.54,1.55,1.88,1.88,0,0,0,1.42.54,2.94,2.94,0,0,0,1.86-.66v.9a3.47,3.47,0,0,1-2.09.57,2.56,2.56,0,0,1-2-.81,3.39,3.39,0,0,1-.72-2.3,3.29,3.29,0,0,1,.79-2.29,2.58,2.58,0,0,1,2-.88,2.29,2.29,0,0,1,1.83.76,3.19,3.19,0,0,1,.64,2.12Zm-1-.81a2,2,0,0,0-.41-1.3,1.35,1.35,0,0,0-1.09-.46,1.54,1.54,0,0,0-1.16.49,2.12,2.12,0,0,0-.58,1.27Z" transform="translate(0 0.24)"/><path class="cls-9" d="M233.29,116.61h-1v-3.42c0-1.27-.47-1.91-1.4-1.91a1.52,1.52,0,0,0-1.19.54,2,2,0,0,0-.47,1.37v3.42h-1v-6h1v1h0a2.17,2.17,0,0,1,2-1.14,1.83,1.83,0,0,1,1.51.64,2.79,2.79,0,0,1,.52,1.83Z" transform="translate(0 0.24)"/><path class="cls-9" d="M243.46,116.61h-1v-1h0a2.22,2.22,0,0,1-2.07,1.16,2.25,2.25,0,0,1-1.8-.8,3.27,3.27,0,0,1-.68-2.2,3.59,3.59,0,0,1,.75-2.38,2.46,2.46,0,0,1,2-.9,2,2,0,0,1,1.8,1h0v-3.71h1Zm-1-2.71V113a1.73,1.73,0,0,0-.48-1.23,1.64,1.64,0,0,0-1.22-.5,1.66,1.66,0,0,0-1.38.64,2.82,2.82,0,0,0-.51,1.79,2.48,2.48,0,0,0,.49,1.63,1.57,1.57,0,0,0,1.29.6,1.65,1.65,0,0,0,1.31-.58A2.16,2.16,0,0,0,242.5,113.9Z" transform="translate(0 0.24)"/><path class="cls-9" d="M250.2,113.85H246a2.19,2.19,0,0,0,.54,1.55,1.85,1.85,0,0,0,1.41.54,3,3,0,0,0,1.87-.66v.9a3.52,3.52,0,0,1-2.09.57,2.54,2.54,0,0,1-2-.81,3.34,3.34,0,0,1-.73-2.3,3.29,3.29,0,0,1,.8-2.29,2.55,2.55,0,0,1,2-.88,2.28,2.28,0,0,1,1.82.76,3.19,3.19,0,0,1,.64,2.12Zm-1-.81a2,2,0,0,0-.4-1.3,1.37,1.37,0,0,0-1.1-.46,1.56,1.56,0,0,0-1.16.49A2.18,2.18,0,0,0,246,113Z" transform="translate(0 0.24)"/><path class="cls-9" d="M259.19,116.61h-1v-.94h0a2,2,0,0,1-1.85,1.08,2,2,0,0,1-1.4-.47,1.65,1.65,0,0,1-.51-1.26c0-1.12.66-1.77,2-2l1.8-.25c0-1-.41-1.53-1.24-1.53a3,3,0,0,0-2,.74v-1a3.76,3.76,0,0,1,2-.56c1.41,0,2.11.75,2.11,2.24Zm-1-3-1.45.2a2.35,2.35,0,0,0-1,.33,1,1,0,0,0-.34.84.93.93,0,0,0,.32.72,1.24,1.24,0,0,0,.83.27,1.51,1.51,0,0,0,1.18-.5,1.78,1.78,0,0,0,.47-1.27Z" transform="translate(0 0.24)"/><path class="cls-9" d="M265.07,116.34a3.19,3.19,0,0,1-1.64.41,2.76,2.76,0,0,1-2.08-.83,3.06,3.06,0,0,1-.78-2.17,3.3,3.3,0,0,1,.85-2.38,3,3,0,0,1,2.26-.9,3.24,3.24,0,0,1,1.4.29v1a2.47,2.47,0,0,0-1.43-.47,1.93,1.93,0,0,0-1.51.66,2.52,2.52,0,0,0-.59,1.73,2.41,2.41,0,0,0,.55,1.66,1.91,1.91,0,0,0,1.49.61,2.41,2.41,0,0,0,1.48-.52Z" transform="translate(0 0.24)"/><path class="cls-9" d="M270.59,116.34a3.19,3.19,0,0,1-1.64.41,2.76,2.76,0,0,1-2.08-.83,3.06,3.06,0,0,1-.78-2.17,3.3,3.3,0,0,1,.85-2.38,3,3,0,0,1,2.26-.9,3.24,3.24,0,0,1,1.4.29v1a2.47,2.47,0,0,0-1.43-.47,1.92,1.92,0,0,0-1.51.66,2.52,2.52,0,0,0-.59,1.73,2.36,2.36,0,0,0,.55,1.66,1.91,1.91,0,0,0,1.49.61,2.41,2.41,0,0,0,1.48-.52Z" transform="translate(0 0.24)"/><path class="cls-9" d="M276.84,113.85H272.6a2.28,2.28,0,0,0,.54,1.55,1.87,1.87,0,0,0,1.42.54,3,3,0,0,0,1.86-.66v.9a3.5,3.5,0,0,1-2.09.57,2.56,2.56,0,0,1-2-.81,3.39,3.39,0,0,1-.73-2.3,3.29,3.29,0,0,1,.8-2.29,2.56,2.56,0,0,1,2-.88,2.27,2.27,0,0,1,1.82.76,3.2,3.2,0,0,1,.65,2.12Zm-1-.81a2,2,0,0,0-.4-1.3,1.36,1.36,0,0,0-1.1-.46,1.52,1.52,0,0,0-1.15.49,2.19,2.19,0,0,0-.59,1.27Z" transform="translate(0 0.24)"/><path class="cls-9" d="M277.9,116.4v-1a2.84,2.84,0,0,0,1.73.58c.85,0,1.27-.28,1.27-.84a.76.76,0,0,0-.11-.41,1,1,0,0,0-.29-.29,1.83,1.83,0,0,0-.44-.23l-.53-.22a5.16,5.16,0,0,1-.7-.32,2.21,2.21,0,0,1-.51-.36,1.52,1.52,0,0,1-.3-.46,1.57,1.57,0,0,1-.1-.6,1.42,1.42,0,0,1,.19-.75,1.78,1.78,0,0,1,.51-.55,2.77,2.77,0,0,1,.74-.33,3.41,3.41,0,0,1,.85-.11,3.46,3.46,0,0,1,1.4.27v1a2.71,2.71,0,0,0-1.53-.43,1.75,1.75,0,0,0-.48.06,1.33,1.33,0,0,0-.38.17,1,1,0,0,0-.24.27.77.77,0,0,0-.08.34,1,1,0,0,0,.08.4.94.94,0,0,0,.25.28,2.48,2.48,0,0,0,.4.22l.54.22a6.85,6.85,0,0,1,.71.31,2.82,2.82,0,0,1,.54.36,1.41,1.41,0,0,1,.34.47,1.51,1.51,0,0,1,.12.63,1.49,1.49,0,0,1-.19.77,1.85,1.85,0,0,1-.53.55,2.54,2.54,0,0,1-.75.32,3.82,3.82,0,0,1-.9.1A3.54,3.54,0,0,1,277.9,116.4Z" transform="translate(0 0.24)"/><path class="cls-9" d="M285.84,116.75a2.79,2.79,0,0,1-2.12-.84,3.11,3.11,0,0,1-.8-2.23,3.25,3.25,0,0,1,.83-2.36,3,3,0,0,1,2.23-.85,2.7,2.7,0,0,1,2.1.83,3.27,3.27,0,0,1,.75,2.29,3.23,3.23,0,0,1-.81,2.3A2.87,2.87,0,0,1,285.84,116.75Zm.07-5.47a1.81,1.81,0,0,0-1.46.63,2.59,2.59,0,0,0-.54,1.74,2.46,2.46,0,0,0,.54,1.68,1.86,1.86,0,0,0,1.46.61,1.75,1.75,0,0,0,1.43-.6,2.58,2.58,0,0,0,.51-1.72,2.63,2.63,0,0,0-.51-1.73A1.73,1.73,0,0,0,285.91,111.28Z" transform="translate(0 0.24)"/><path class="cls-9" d="M208.79,124.11l-2.76,7c-.49,1.25-1.18,1.87-2.07,1.87a2.25,2.25,0,0,1-.63-.08V132a1.8,1.8,0,0,0,.57.1,1.16,1.16,0,0,0,1.09-.86l.48-1.14-2.34-6h1.06l1.63,4.62c0,.06.06.21.12.46h0a2.8,2.8,0,0,1,.11-.45l1.71-4.63Z" transform="translate(0 0.24)"/><path class="cls-9" d="M219.34,126.71c0,2.36-1.07,3.54-3.19,3.54s-3.06-1.13-3.06-3.4v-5.14h1v5.07c0,1.73.73,2.59,2.18,2.59s2.1-.83,2.1-2.5v-5.16h1Z" transform="translate(0 0.24)"/><path class="cls-9" d="M227.44,130.11h-1.18l-1.4-2.35a4.9,4.9,0,0,0-.38-.56,1.92,1.92,0,0,0-.37-.38,1.14,1.14,0,0,0-.41-.21,1.53,1.53,0,0,0-.49-.07h-.81v3.57h-1v-8.4h2.51a3.64,3.64,0,0,1,1,.14,2.23,2.23,0,0,1,.81.42,2,2,0,0,1,.53.7,2.43,2.43,0,0,1,.06,1.78,1.94,1.94,0,0,1-.37.66,2.37,2.37,0,0,1-.59.49,3,3,0,0,1-.77.31v0a2.13,2.13,0,0,1,.37.22,1.9,1.9,0,0,1,.29.28,2.75,2.75,0,0,1,.28.37c.09.14.2.3.31.49Zm-5-7.51v3.05h1.33a2.17,2.17,0,0,0,.69-.11,1.61,1.61,0,0,0,.54-.32,1.57,1.57,0,0,0,.36-.51,1.83,1.83,0,0,0,.12-.68,1.31,1.31,0,0,0-.43-1,1.88,1.88,0,0,0-1.26-.38Z" transform="translate(0 0.24)"/><path class="cls-9" d="M232.93,130.11h-4.36v-8.4h1v7.51h3.38Z" transform="translate(0 0.24)"/><path class="cls-9" d="M242.45,130.11h-1v-1h0a2.2,2.2,0,0,1-2.06,1.16,2.27,2.27,0,0,1-1.81-.8,3.32,3.32,0,0,1-.67-2.2,3.59,3.59,0,0,1,.75-2.38,2.46,2.46,0,0,1,2-.9,1.93,1.93,0,0,1,1.8,1h0v-3.71h1Zm-1-2.71v-.89a1.7,1.7,0,0,0-.49-1.23,1.61,1.61,0,0,0-1.21-.5,1.7,1.7,0,0,0-1.39.64,2.88,2.88,0,0,0-.5,1.79,2.53,2.53,0,0,0,.48,1.63,1.73,1.73,0,0,0,2.6,0A2.11,2.11,0,0,0,241.49,127.4Z" transform="translate(0 0.24)"/><path class="cls-9" d="M249.19,127.35H245a2.28,2.28,0,0,0,.54,1.55,1.88,1.88,0,0,0,1.42.54,2.94,2.94,0,0,0,1.86-.66v.9a3.47,3.47,0,0,1-2.09.57,2.56,2.56,0,0,1-2-.81,3.39,3.39,0,0,1-.72-2.3,3.29,3.29,0,0,1,.79-2.29,2.58,2.58,0,0,1,2-.88,2.25,2.25,0,0,1,1.82.76,3.2,3.2,0,0,1,.65,2.12Zm-1-.81a2,2,0,0,0-.41-1.3,1.35,1.35,0,0,0-1.09-.46,1.54,1.54,0,0,0-1.16.49,2.12,2.12,0,0,0-.58,1.27Z" transform="translate(0 0.24)"/><path class="cls-9" d="M257,125.08a1.25,1.25,0,0,0-.73-.19,1.2,1.2,0,0,0-1,.58,2.67,2.67,0,0,0-.42,1.58v3.06h-1v-6h1v1.24h0a2.08,2.08,0,0,1,.62-1,1.47,1.47,0,0,1,.95-.35,1.44,1.44,0,0,1,.57.08Z" transform="translate(0 0.24)"/><path class="cls-9" d="M262.85,127.35h-4.23a2.23,2.23,0,0,0,.53,1.55,1.88,1.88,0,0,0,1.42.54,3,3,0,0,0,1.87-.66v.9a3.53,3.53,0,0,1-2.1.57,2.53,2.53,0,0,1-2-.81,3.34,3.34,0,0,1-.73-2.3,3.29,3.29,0,0,1,.79-2.29,2.58,2.58,0,0,1,2-.88,2.29,2.29,0,0,1,1.83.76,3.19,3.19,0,0,1,.64,2.12Zm-1-.81a2,2,0,0,0-.4-1.3,1.37,1.37,0,0,0-1.1-.46,1.54,1.54,0,0,0-1.16.49,2.18,2.18,0,0,0-.58,1.27Z" transform="translate(0 0.24)"/><path class="cls-9" d="M269.4,130.11h-1v-1h0a2.21,2.21,0,0,1-2.06,1.16,2.25,2.25,0,0,1-1.81-.8,3.33,3.33,0,0,1-.68-2.2,3.59,3.59,0,0,1,.75-2.38,2.48,2.48,0,0,1,2-.9,2,2,0,0,1,1.8,1h0v-3.71h1Zm-1-2.71v-.89a1.73,1.73,0,0,0-.48-1.23,1.64,1.64,0,0,0-1.22-.5,1.69,1.69,0,0,0-1.38.64,2.82,2.82,0,0,0-.5,1.79,2.53,2.53,0,0,0,.48,1.63,1.57,1.57,0,0,0,1.3.6,1.63,1.63,0,0,0,1.3-.58A2.16,2.16,0,0,0,268.44,127.4Z" transform="translate(0 0.24)"/><path class="cls-9" d="M271.82,122.59a.59.59,0,0,1-.44-.18.55.55,0,0,1-.19-.44.63.63,0,0,1,.63-.63.6.6,0,0,1,.44.18.58.58,0,0,1,.19.45.58.58,0,0,1-.19.44A.6.6,0,0,1,271.82,122.59Zm.46,7.52h-1v-6h1Z" transform="translate(0 0.24)"/><path class="cls-9" d="M277.33,125.08a1.21,1.21,0,0,0-.72-.19,1.23,1.23,0,0,0-1,.58,2.67,2.67,0,0,0-.41,1.58v3.06h-1v-6h1v1.24h0a2.17,2.17,0,0,1,.63-1,1.61,1.61,0,0,1,1.51-.27Z" transform="translate(0 0.24)"/><path class="cls-9" d="M283.18,127.35h-4.24a2.23,2.23,0,0,0,.54,1.55,1.85,1.85,0,0,0,1.42.54,3,3,0,0,0,1.86-.66v.9a3.5,3.5,0,0,1-2.09.57,2.54,2.54,0,0,1-2-.81,3.39,3.39,0,0,1-.73-2.3,3.29,3.29,0,0,1,.8-2.29,2.56,2.56,0,0,1,2-.88,2.28,2.28,0,0,1,1.82.76,3.2,3.2,0,0,1,.65,2.12Zm-1-.81a2,2,0,0,0-.4-1.3,1.36,1.36,0,0,0-1.1-.46,1.52,1.52,0,0,0-1.15.49,2.19,2.19,0,0,0-.59,1.27Z" transform="translate(0 0.24)"/><path class="cls-9" d="M288.7,129.84a3.23,3.23,0,0,1-1.65.41,2.75,2.75,0,0,1-2.07-.83,3.06,3.06,0,0,1-.78-2.17,3.34,3.34,0,0,1,.84-2.38,3,3,0,0,1,2.27-.9,3.27,3.27,0,0,1,1.4.29v1a2.47,2.47,0,0,0-1.43-.47,1.92,1.92,0,0,0-1.51.66,2.52,2.52,0,0,0-.59,1.73,2.36,2.36,0,0,0,.55,1.66,1.91,1.91,0,0,0,1.49.61,2.43,2.43,0,0,0,1.48-.52Z" transform="translate(0 0.24)"/><path class="cls-9" d="M294.21,129.84a3.17,3.17,0,0,1-1.64.41,2.75,2.75,0,0,1-2.07-.83,3.06,3.06,0,0,1-.79-2.17,3.35,3.35,0,0,1,.85-2.38,3,3,0,0,1,2.27-.9,3.27,3.27,0,0,1,1.4.29v1a2.49,2.49,0,0,0-1.43-.47,1.92,1.92,0,0,0-1.51.66,2.47,2.47,0,0,0-.59,1.73,2.36,2.36,0,0,0,.55,1.66,1.91,1.91,0,0,0,1.49.61,2.38,2.38,0,0,0,1.47-.52Z" transform="translate(0 0.24)"/><path class="cls-9" d="M296.13,122.59a.58.58,0,0,1-.43-.18.55.55,0,0,1-.19-.44.63.63,0,0,1,.62-.63.61.61,0,0,1,.45.18.58.58,0,0,1,.19.45.58.58,0,0,1-.19.44A.61.61,0,0,1,296.13,122.59Zm.47,7.52h-1v-6h1Z" transform="translate(0 0.24)"/><path class="cls-9" d="M301,130.25a2.79,2.79,0,0,1-2.12-.84,3.1,3.1,0,0,1-.79-2.23,3.24,3.24,0,0,1,.82-2.36,3,3,0,0,1,2.23-.85,2.7,2.7,0,0,1,2.1.83,3.27,3.27,0,0,1,.75,2.29,3.23,3.23,0,0,1-.81,2.3A2.87,2.87,0,0,1,301,130.25Zm.07-5.47a1.83,1.83,0,0,0-1.46.63,2.59,2.59,0,0,0-.54,1.74,2.46,2.46,0,0,0,.54,1.68,1.86,1.86,0,0,0,1.46.61,1.79,1.79,0,0,0,1.44-.6,2.63,2.63,0,0,0,.5-1.72,2.68,2.68,0,0,0-.5-1.73A1.76,1.76,0,0,0,301.1,124.78Z" transform="translate(0 0.24)"/><path class="cls-9" d="M310.51,130.11h-1v-3.42c0-1.27-.46-1.91-1.39-1.91a1.54,1.54,0,0,0-1.2.54,2,2,0,0,0-.47,1.37v3.42h-1v-6h1v1h0a2.16,2.16,0,0,1,2-1.14,1.82,1.82,0,0,1,1.5.64,2.79,2.79,0,0,1,.52,1.83Z" transform="translate(0 0.24)"/><path class="cls-9" d="M316.59,130.11h-1v-.94h0a2.2,2.2,0,0,1-3.25.61,1.65,1.65,0,0,1-.51-1.26c0-1.12.66-1.77,2-2l1.8-.25q0-1.53-1.23-1.53a3,3,0,0,0-2,.74v-1a3.76,3.76,0,0,1,2-.56c1.41,0,2.11.75,2.11,2.24Zm-1-3-1.44.2a2.3,2.3,0,0,0-1,.33,1,1,0,0,0-.34.84.92.92,0,0,0,.31.72,1.25,1.25,0,0,0,.84.27,1.53,1.53,0,0,0,1.18-.5,1.77,1.77,0,0,0,.46-1.27Z" transform="translate(0 0.24)"/><path class="cls-9" d="M326.9,130.11h-1v-3.44a2.52,2.52,0,0,0-.31-1.44,1.15,1.15,0,0,0-1-.45,1.3,1.3,0,0,0-1.05.56,2.16,2.16,0,0,0-.43,1.35v3.42h-1v-3.56c0-1.18-.45-1.77-1.37-1.77a1.28,1.28,0,0,0-1,.53,2.2,2.2,0,0,0-.41,1.38v3.42h-1v-6h1v1h0a2,2,0,0,1,1.86-1.09,1.77,1.77,0,0,1,1.07.34,1.75,1.75,0,0,1,.63.9,2.15,2.15,0,0,1,2-1.24c1.32,0,2,.82,2,2.45Z" transform="translate(0 0.24)"/><path class="cls-9" d="M329.19,122.59a.59.59,0,0,1-.44-.18.58.58,0,0,1-.19-.44.62.62,0,0,1,.19-.45.59.59,0,0,1,.44-.18.6.6,0,0,1,.44.18.58.58,0,0,1,.19.45.58.58,0,0,1-.19.44A.6.6,0,0,1,329.19,122.59Zm.46,7.52h-1v-6h1Z" transform="translate(0 0.24)"/><path class="cls-9" d="M336.4,127.35h-4.24a2.28,2.28,0,0,0,.54,1.55,1.87,1.87,0,0,0,1.42.54,3,3,0,0,0,1.86-.66v.9a3.5,3.5,0,0,1-2.09.57,2.56,2.56,0,0,1-2-.81,3.39,3.39,0,0,1-.72-2.3,3.29,3.29,0,0,1,.79-2.29,2.58,2.58,0,0,1,2-.88,2.27,2.27,0,0,1,1.82.76,3.2,3.2,0,0,1,.65,2.12Zm-1-.81a1.91,1.91,0,0,0-.4-1.3,1.36,1.36,0,0,0-1.1-.46,1.54,1.54,0,0,0-1.15.49,2.19,2.19,0,0,0-.59,1.27Z" transform="translate(0 0.24)"/><path class="cls-9" d="M342.81,130.11h-1v-3.42c0-1.27-.47-1.91-1.4-1.91a1.5,1.5,0,0,0-1.19.54,2,2,0,0,0-.47,1.37v3.42h-1v-6h1v1h0a2.16,2.16,0,0,1,2-1.14,1.83,1.83,0,0,1,1.51.64,2.85,2.85,0,0,1,.52,1.83Z" transform="translate(0 0.24)"/><path class="cls-9" d="M347.38,130.05a1.82,1.82,0,0,1-.9.19c-1.05,0-1.58-.58-1.58-1.76v-3.55h-1v-.82h1v-1.46l1-.31v1.77h1.51v.82h-1.51v3.38a1.36,1.36,0,0,0,.2.86.8.8,0,0,0,.68.26,1,1,0,0,0,.63-.2Z" transform="translate(0 0.24)"/><path class="cls-9" d="M351.14,130.25a2.79,2.79,0,0,1-2.12-.84,3.1,3.1,0,0,1-.79-2.23,3.24,3.24,0,0,1,.82-2.36,3,3,0,0,1,2.23-.85,2.7,2.7,0,0,1,2.1.83,3.27,3.27,0,0,1,.75,2.29,3.23,3.23,0,0,1-.81,2.3A2.87,2.87,0,0,1,351.14,130.25Zm.07-5.47a1.83,1.83,0,0,0-1.46.63,2.59,2.59,0,0,0-.54,1.74,2.46,2.46,0,0,0,.54,1.68,1.86,1.86,0,0,0,1.46.61,1.79,1.79,0,0,0,1.44-.6,2.63,2.63,0,0,0,.5-1.72,2.68,2.68,0,0,0-.5-1.73A1.76,1.76,0,0,0,351.21,124.78Z" transform="translate(0 0.24)"/><path class="cls-10" d="M394.06,93.61V96.5h-1.89V88.1h3c2.11,0,3.17.89,3.17,2.68a2.55,2.55,0,0,1-.91,2,3.62,3.62,0,0,1-2.43.79Zm0-4.06v2.62h.75c1,0,1.51-.44,1.51-1.32s-.5-1.3-1.51-1.3Z" transform="translate(0 0.24)"/><path class="cls-10" d="M401.21,96.5h-1.85V87.62h1.85Z" transform="translate(0 0.24)"/><path class="cls-10" d="M407.76,96.5H406v-.86h0a2,2,0,0,1-1.79,1,1.86,1.86,0,0,1-1.37-.5,1.75,1.75,0,0,1-.5-1.32c0-1.16.68-1.84,2.06-2L406,92.6c0-.66-.35-1-1.06-1a3.67,3.67,0,0,0-2,.64V90.86a4.13,4.13,0,0,1,1.05-.35,5.19,5.19,0,0,1,1.23-.16,2.26,2.26,0,0,1,2.56,2.56ZM406,94.06v-.4l-1.09.14q-.9.12-.9.81a.66.66,0,0,0,.22.52.81.81,0,0,0,.59.2,1.08,1.08,0,0,0,.85-.36A1.29,1.29,0,0,0,406,94.06Z" transform="translate(0 0.24)"/><path class="cls-10" d="M412.85,96.43a2.75,2.75,0,0,1-1.23.22c-1.31,0-2-.68-2-2V91.87h-1V90.5h1V89.21l1.85-.53V90.5h1.34v1.37h-1.34v2.42c0,.63.24.94.74.94a1.24,1.24,0,0,0,.6-.17Z" transform="translate(0 0.24)"/><path class="cls-10" d="M418.89,96.5h-1.75v-.86h0a2,2,0,0,1-1.78,1,1.9,1.9,0,0,1-1.38-.5,1.79,1.79,0,0,1-.5-1.32c0-1.16.69-1.84,2.07-2l1.63-.21c0-.66-.36-1-1.07-1a3.72,3.72,0,0,0-2,.64V90.86a4.22,4.22,0,0,1,1.06-.35,5.18,5.18,0,0,1,1.22-.16,2.27,2.27,0,0,1,2.57,2.56Zm-1.74-2.44v-.4l-1.09.14q-.9.12-.9.81a.66.66,0,0,0,.22.52.8.8,0,0,0,.59.2,1.1,1.1,0,0,0,.85-.36A1.29,1.29,0,0,0,417.15,94.06Z" transform="translate(0 0.24)"/><path class="cls-10" d="M424.27,89a1.79,1.79,0,0,0-.69-.15c-.59,0-.89.33-.89,1v.64h1.37v1.37h-1.37V96.5h-1.84V91.87h-1V90.5h1v-.74a2.18,2.18,0,0,1,.66-1.66,2.61,2.61,0,0,1,1.82-.62,3.51,3.51,0,0,1,.94.11Z" transform="translate(0 0.24)"/><path class="cls-10" d="M427.81,96.65a3.2,3.2,0,0,1-2.35-.84,3.49,3.49,0,0,1,0-4.62,3.35,3.35,0,0,1,2.41-.84,3.19,3.19,0,0,1,2.34.84,3,3,0,0,1,.85,2.23,3.16,3.16,0,0,1-.88,2.36A3.24,3.24,0,0,1,427.81,96.65Zm.05-4.88a1.23,1.23,0,0,0-1,.45,2,2,0,0,0-.36,1.28c0,1.15.46,1.73,1.39,1.73s1.33-.59,1.33-1.78S428.75,91.77,427.86,91.77Z" transform="translate(0 0.24)"/><path class="cls-10" d="M436.2,92.17a1.61,1.61,0,0,0-.78-.18,1.14,1.14,0,0,0-.94.44,1.92,1.92,0,0,0-.34,1.2V96.5h-1.85v-6h1.85v1.11h0a1.6,1.6,0,0,1,1.58-1.22,1.32,1.32,0,0,1,.45.07Z" transform="translate(0 0.24)"/><path class="cls-10" d="M446.63,96.5h-1.85V93.08c0-.87-.32-1.31-1-1.31a.88.88,0,0,0-.74.39,1.65,1.65,0,0,0-.29,1V96.5h-1.85V93c0-.84-.32-1.27-.94-1.27a.91.91,0,0,0-.76.38,1.65,1.65,0,0,0-.29,1V96.5H437.1v-6H439v.94h0a2.22,2.22,0,0,1,.8-.78,2.15,2.15,0,0,1,1.14-.31,1.75,1.75,0,0,1,1.74,1.12,2.21,2.21,0,0,1,2-1.12c1.31,0,2,.81,2,2.42Z" transform="translate(0 0.24)"/><path class="cls-10" d="M453.08,96.5h-1.75v-.86h0a2,2,0,0,1-1.79,1,1.86,1.86,0,0,1-1.37-.5,1.75,1.75,0,0,1-.5-1.32c0-1.16.69-1.84,2.07-2l1.62-.21c0-.66-.35-1-1.06-1a3.67,3.67,0,0,0-2,.64V90.86a4.22,4.22,0,0,1,1.06-.35,5.05,5.05,0,0,1,1.22-.16,2.26,2.26,0,0,1,2.56,2.56Zm-1.74-2.44v-.4l-1.09.14q-.9.12-.9.81a.69.69,0,0,0,.22.52.84.84,0,0,0,.6.2A1.11,1.11,0,0,0,451,95,1.28,1.28,0,0,0,451.34,94.06Z" transform="translate(0 0.24)"/><path class="cls-10" d="M393.53,111h-1.85v-.83h0a2.1,2.1,0,0,1-1.86,1,2.27,2.27,0,0,1-1.81-.8,3.28,3.28,0,0,1-.69-2.22,3.54,3.54,0,0,1,.76-2.38,2.45,2.45,0,0,1,2-.9,1.69,1.69,0,0,1,1.62.84h0v-3.57h1.85Zm-1.82-2.92v-.45a1.4,1.4,0,0,0-.34-1,1.1,1.1,0,0,0-.88-.39,1.12,1.12,0,0,0-1,.48,2.28,2.28,0,0,0-.35,1.33,1.89,1.89,0,0,0,.34,1.22,1.09,1.09,0,0,0,.92.43,1.12,1.12,0,0,0,.92-.45A1.86,1.86,0,0,0,391.71,108.08Z" transform="translate(0 0.24)"/><path class="cls-10" d="M400.48,108.53h-3.91c.06.87.61,1.3,1.64,1.3a3.23,3.23,0,0,0,1.74-.46v1.33a4.5,4.5,0,0,1-2.16.45,2.8,2.8,0,0,1-3.06-3.06,3.19,3.19,0,0,1,.87-2.36,2.87,2.87,0,0,1,2.13-.88,2.62,2.62,0,0,1,2,.78,3,3,0,0,1,.72,2.12Zm-1.72-1.14c0-.86-.34-1.29-1-1.29a1,1,0,0,0-.77.37,1.68,1.68,0,0,0-.4.92Z" transform="translate(0 0.24)"/><path class="cls-10" d="M405.83,104.05a1.07,1.07,0,0,1-.77-.28.88.88,0,0,1-.3-.68.87.87,0,0,1,.3-.68,1.11,1.11,0,0,1,.77-.26,1.09,1.09,0,0,1,.77.26.87.87,0,0,1,.3.68.89.89,0,0,1-.3.69A1.1,1.1,0,0,1,405.83,104.05Zm.91,7h-1.85v-6h1.85Z" transform="translate(0 0.24)"/><path class="cls-10" d="M414.17,111h-1.85v-.83h0a2.08,2.08,0,0,1-1.86,1,2.28,2.28,0,0,1-1.81-.8,3.28,3.28,0,0,1-.69-2.22,3.59,3.59,0,0,1,.76-2.38,2.45,2.45,0,0,1,2-.9,1.69,1.69,0,0,1,1.62.84h0v-3.57h1.85Zm-1.81-2.92v-.45a1.45,1.45,0,0,0-.34-1,1.2,1.2,0,0,0-1.85.09,2.28,2.28,0,0,0-.34,1.33,2,2,0,0,0,.33,1.22,1.09,1.09,0,0,0,.92.43,1.11,1.11,0,0,0,.92-.45A1.87,1.87,0,0,0,412.36,108.08Z" transform="translate(0 0.24)"/><path class="cls-10" d="M421.12,108.53h-3.91c.06.87.61,1.3,1.64,1.3a3.23,3.23,0,0,0,1.74-.46v1.33a4.5,4.5,0,0,1-2.16.45,3,3,0,0,1-2.25-.81,3,3,0,0,1-.81-2.25,3.19,3.19,0,0,1,.87-2.36,2.87,2.87,0,0,1,2.13-.88,2.6,2.6,0,0,1,2,.78,3,3,0,0,1,.72,2.12Zm-1.71-1.14q0-1.29-1.05-1.29a1,1,0,0,0-.77.37,1.67,1.67,0,0,0-.39.92Z" transform="translate(0 0.24)"/><path class="cls-10" d="M428,111h-1.85v-3.33c0-.93-.33-1.4-1-1.4a1,1,0,0,0-.79.37,1.4,1.4,0,0,0-.31.94V111h-1.86v-6h1.86v1h0a2.12,2.12,0,0,1,1.93-1.1c1.32,0,2,.83,2,2.48Z" transform="translate(0 0.24)"/><path class="cls-10" d="M433.11,110.93a2.8,2.8,0,0,1-1.24.22q-2,0-1.95-2v-2.74h-1V105h1v-1.29l1.84-.53V105h1.35v1.37h-1.35v2.42c0,.63.25.94.75.94a1.31,1.31,0,0,0,.6-.17Z" transform="translate(0 0.24)"/><path class="cls-10" d="M435.09,104.05a1.07,1.07,0,0,1-.77-.28.88.88,0,0,1-.3-.68.87.87,0,0,1,.3-.68,1.11,1.11,0,0,1,.77-.26,1.09,1.09,0,0,1,.77.26.87.87,0,0,1,.3.68.89.89,0,0,1-.3.69A1.1,1.1,0,0,1,435.09,104.05Zm.91,7h-1.85v-6H436Z" transform="translate(0 0.24)"/><path class="cls-10" d="M443.43,111h-1.85v-.83h0a2.08,2.08,0,0,1-1.86,1,2.28,2.28,0,0,1-1.81-.8,3.28,3.28,0,0,1-.68-2.22,3.59,3.59,0,0,1,.75-2.38,2.48,2.48,0,0,1,2-.9,1.68,1.68,0,0,1,1.62.84h0v-3.57h1.85Zm-1.81-2.92v-.45a1.45,1.45,0,0,0-.34-1,1.2,1.2,0,0,0-1.85.09,2.28,2.28,0,0,0-.34,1.33,2,2,0,0,0,.33,1.22,1.18,1.18,0,0,0,1.84,0A1.87,1.87,0,0,0,441.62,108.08Z" transform="translate(0 0.24)"/><path class="cls-10" d="M450,111h-1.76v-.86h0a2,2,0,0,1-1.79,1,1.86,1.86,0,0,1-1.37-.5,1.75,1.75,0,0,1-.5-1.32c0-1.16.69-1.84,2.07-2l1.63-.21c0-.66-.36-1-1.07-1a3.67,3.67,0,0,0-2,.64v-1.39a4.22,4.22,0,0,1,1.06-.35,5.05,5.05,0,0,1,1.22-.16,2.27,2.27,0,0,1,2.57,2.56Zm-1.74-2.44v-.4l-1.09.14c-.61.08-.91.35-.91.81a.69.69,0,0,0,.22.52.84.84,0,0,0,.6.2,1.1,1.1,0,0,0,.85-.36A1.29,1.29,0,0,0,448.25,108.56Z" transform="translate(0 0.24)"/><path class="cls-10" d="M457.32,111h-1.85v-.83h0a2.09,2.09,0,0,1-1.86,1,2.28,2.28,0,0,1-1.81-.8,3.28,3.28,0,0,1-.69-2.22,3.54,3.54,0,0,1,.76-2.38,2.45,2.45,0,0,1,2-.9,1.69,1.69,0,0,1,1.62.84h0v-3.57h1.85Zm-1.82-2.92v-.45a1.44,1.44,0,0,0-.33-1,1.14,1.14,0,0,0-.89-.39,1.12,1.12,0,0,0-1,.48,2.28,2.28,0,0,0-.35,1.33,1.89,1.89,0,0,0,.34,1.22,1.09,1.09,0,0,0,.92.43,1.12,1.12,0,0,0,.92-.45A1.86,1.86,0,0,0,455.5,108.08Z" transform="translate(0 0.24)"/><path class="cls-10" d="M393.2,125.5h-1.85v-.83h0a2.07,2.07,0,0,1-1.85,1,2.27,2.27,0,0,1-1.81-.8,3.28,3.28,0,0,1-.69-2.22,3.54,3.54,0,0,1,.76-2.38,2.45,2.45,0,0,1,2-.9,1.67,1.67,0,0,1,1.61.84h0v-3.57h1.85Zm-1.82-2.92v-.45a1.4,1.4,0,0,0-.34-1,1.1,1.1,0,0,0-.88-.39,1.12,1.12,0,0,0-1,.48,2.28,2.28,0,0,0-.35,1.33,1.89,1.89,0,0,0,.34,1.22,1.09,1.09,0,0,0,.92.43,1.12,1.12,0,0,0,.92-.45A1.92,1.92,0,0,0,391.38,122.58Z" transform="translate(0 0.24)"/><path class="cls-10" d="M400.15,123h-3.92c.07.87.62,1.3,1.65,1.3a3.23,3.23,0,0,0,1.74-.46v1.33a4.5,4.5,0,0,1-2.16.45,2.8,2.8,0,0,1-3.06-3.06,3.19,3.19,0,0,1,.87-2.36,2.87,2.87,0,0,1,2.13-.88,2.62,2.62,0,0,1,2,.78,3,3,0,0,1,.72,2.12Zm-1.72-1.14c0-.86-.35-1.29-1-1.29a1,1,0,0,0-.77.37,1.68,1.68,0,0,0-.4.92Z" transform="translate(0 0.24)"/><path class="cls-10" d="M414.32,125.5h-1.87v-5c0-.54,0-1.14.07-1.8h0a9.23,9.23,0,0,1-.26,1.12l-2,5.71h-1.55l-2-5.65a9.65,9.65,0,0,1-.27-1.18h-.05c.05.83.08,1.56.08,2.18v4.65h-1.71v-8.4h2.77l1.72,5a6.58,6.58,0,0,1,.3,1.2h0a11.7,11.7,0,0,1,.34-1.21l1.72-5h2.7Z" transform="translate(0 0.24)"/><path class="cls-10" d="M417,118.55a1.07,1.07,0,0,1-.77-.28.91.91,0,0,1-.29-.68.89.89,0,0,1,.29-.68,1.11,1.11,0,0,1,.77-.26,1.07,1.07,0,0,1,.77.26.87.87,0,0,1,.3.68.89.89,0,0,1-.3.69A1.08,1.08,0,0,1,417,118.55Zm.92,7H416v-6h1.86Z" transform="translate(0 0.24)"/><path class="cls-10" d="M424,125.28a3.57,3.57,0,0,1-1.81.37,3.06,3.06,0,0,1-2.24-.84,2.89,2.89,0,0,1-.85-2.16,3.17,3.17,0,0,1,.91-2.41,3.41,3.41,0,0,1,2.46-.89,3.22,3.22,0,0,1,1.53.28v1.58a2.1,2.1,0,0,0-1.29-.44,1.82,1.82,0,0,0-1.29,3,1.63,1.63,0,0,0,1.23.46,2.43,2.43,0,0,0,1.35-.44Z" transform="translate(0 0.24)"/><path class="cls-10" d="M429.13,121.17a1.61,1.61,0,0,0-.78-.18,1.12,1.12,0,0,0-.94.44,1.92,1.92,0,0,0-.34,1.2v2.87h-1.86v-6h1.86v1.11h0a1.6,1.6,0,0,1,1.58-1.22,1.35,1.35,0,0,1,.46.07Z" transform="translate(0 0.24)"/><path class="cls-10" d="M432.8,125.65a3.24,3.24,0,0,1-2.36-.84,3.07,3.07,0,0,1-.85-2.29,3,3,0,0,1,.89-2.33,3.34,3.34,0,0,1,2.4-.84,3.2,3.2,0,0,1,2.35.84,3,3,0,0,1,.85,2.23,3.16,3.16,0,0,1-.88,2.36A3.24,3.24,0,0,1,432.8,125.65Zm.05-4.88a1.23,1.23,0,0,0-1,.45,2,2,0,0,0-.36,1.28c0,1.15.46,1.73,1.39,1.73s1.33-.59,1.33-1.78S433.74,120.77,432.85,120.77Z" transform="translate(0 0.24)"/><path class="cls-10" d="M436.89,125.34v-1.5a3.66,3.66,0,0,0,.91.41,3,3,0,0,0,.86.14,1.83,1.83,0,0,0,.77-.14.43.43,0,0,0,.29-.41.39.39,0,0,0-.13-.29,1.33,1.33,0,0,0-.33-.21c-.14,0-.29-.11-.45-.15l-.46-.16a4.68,4.68,0,0,1-.63-.29,2.45,2.45,0,0,1-.46-.36,1.64,1.64,0,0,1-.28-.48,2,2,0,0,1-.09-.64,1.6,1.6,0,0,1,.22-.86,1.75,1.75,0,0,1,.58-.6,2.85,2.85,0,0,1,.84-.34,4.55,4.55,0,0,1,1.79,0,7.78,7.78,0,0,1,.81.17V121a3,3,0,0,0-.75-.3,3.13,3.13,0,0,0-.79-.11,1.22,1.22,0,0,0-.34,0,1.1,1.1,0,0,0-.29.09.43.43,0,0,0-.19.16.34.34,0,0,0-.07.22.4.4,0,0,0,.1.28.88.88,0,0,0,.28.2,1.88,1.88,0,0,0,.38.15l.41.14a6.16,6.16,0,0,1,.67.28,1.94,1.94,0,0,1,.51.36,1.58,1.58,0,0,1,.33.48,1.82,1.82,0,0,1,.11.66,1.67,1.67,0,0,1-.23.91,1.87,1.87,0,0,1-.61.61,2.81,2.81,0,0,1-.89.35,5,5,0,0,1-1,.11A5.41,5.41,0,0,1,436.89,125.34Z" transform="translate(0 0.24)"/><path class="cls-10" d="M445.42,125.65a3.23,3.23,0,0,1-2.36-.84,3.49,3.49,0,0,1,0-4.62,3.38,3.38,0,0,1,2.41-.84,3.16,3.16,0,0,1,2.34.84,3,3,0,0,1,.85,2.23,3.19,3.19,0,0,1-.87,2.36A3.27,3.27,0,0,1,445.42,125.65Zm0-4.88a1.22,1.22,0,0,0-1,.45,2,2,0,0,0-.37,1.28c0,1.15.47,1.73,1.4,1.73s1.33-.59,1.33-1.78S446.36,120.77,445.46,120.77Z" transform="translate(0 0.24)"/><path class="cls-10" d="M453.63,118a1.79,1.79,0,0,0-.69-.15c-.59,0-.89.33-.89,1v.64h1.37v1.37h-1.37v4.63h-1.84v-4.63h-1V119.5h1v-.74a2.18,2.18,0,0,1,.66-1.66,2.59,2.59,0,0,1,1.82-.62,3.57,3.57,0,0,1,.94.11Z" transform="translate(0 0.24)"/><path class="cls-10" d="M458.17,125.43a2.83,2.83,0,0,1-1.24.22c-1.3,0-2-.68-2-2v-2.74h-1V119.5h1v-1.29l1.85-.53v1.82h1.35v1.37h-1.35v2.42c0,.63.25.94.74.94a1.31,1.31,0,0,0,.61-.17Z" transform="translate(0 0.24)"/><path class="cls-10" d="M400.76,18.34H398.7l-.6-1.87h-3l-.6,1.87h-2l3.06-8.4h2.25ZM397.67,15l-.9-2.82a3.12,3.12,0,0,1-.14-.76h-.05a3.06,3.06,0,0,1-.15.73L395.52,15Z" transform="translate(0 0.24)"/><path class="cls-10" d="M403.51,17.65h0V21.1h-1.85V12.34h1.85v.91h0a2.36,2.36,0,0,1,3.73-.25,3.42,3.42,0,0,1,.63,2.17,3.71,3.71,0,0,1-.74,2.41,2.4,2.4,0,0,1-2,.91A1.86,1.86,0,0,1,403.51,17.65Zm-.06-2.46v.48a1.52,1.52,0,0,0,.33,1,1.08,1.08,0,0,0,.86.39,1.12,1.12,0,0,0,1-.49A2.29,2.29,0,0,0,406,15.2q0-1.59-1.23-1.59a1.16,1.16,0,0,0-.93.44A1.69,1.69,0,0,0,403.45,15.19Z" transform="translate(0 0.24)"/><path class="cls-10" d="M410.92,18.34h-1.85V9.46h1.85Z" transform="translate(0 0.24)"/><path class="cls-10" d="M413.42,11.39a1.11,1.11,0,0,1-.77-.27.92.92,0,0,1-.3-.69.88.88,0,0,1,.3-.68,1.16,1.16,0,0,1,.77-.26,1.14,1.14,0,0,1,.77.26.93.93,0,0,1,0,1.37A1.1,1.1,0,0,1,413.42,11.39Zm.91,7h-1.85v-6h1.85Z" transform="translate(0 0.24)"/><path class="cls-10" d="M420.44,18.13a3.69,3.69,0,0,1-1.81.36,3.06,3.06,0,0,1-2.24-.84,2.89,2.89,0,0,1-.85-2.16,3.19,3.19,0,0,1,.91-2.41,3.38,3.38,0,0,1,2.45-.88,3.14,3.14,0,0,1,1.54.28v1.57a2.13,2.13,0,0,0-1.3-.44,1.71,1.71,0,0,0-1.26.47,1.74,1.74,0,0,0-.46,1.29,1.71,1.71,0,0,0,.44,1.25,1.66,1.66,0,0,0,1.23.45,2.42,2.42,0,0,0,1.35-.43Z" transform="translate(0 0.24)"/><path class="cls-10" d="M426.64,18.34h-1.75v-.86h0a2,2,0,0,1-1.79,1,1.86,1.86,0,0,1-1.37-.5,1.75,1.75,0,0,1-.5-1.32q0-1.74,2.07-2l1.62-.22c0-.66-.35-1-1.06-1a3.59,3.59,0,0,0-2,.64V12.7a4.67,4.67,0,0,1,1.06-.35,5.56,5.56,0,0,1,1.22-.15,2.26,2.26,0,0,1,2.56,2.56Zm-1.74-2.43V15.5l-1.09.14c-.6.08-.9.35-.9.82a.71.71,0,0,0,.22.52.89.89,0,0,0,.6.2,1.11,1.11,0,0,0,.85-.36A1.35,1.35,0,0,0,424.9,15.91Z" transform="translate(0 0.24)"/><path class="cls-10" d="M432.66,18.13a3.72,3.72,0,0,1-1.81.36,3,3,0,0,1-2.24-.84,2.9,2.9,0,0,1-.86-2.16,3.19,3.19,0,0,1,.92-2.41,3.38,3.38,0,0,1,2.45-.88,3.14,3.14,0,0,1,1.54.28v1.57a2.13,2.13,0,0,0-1.3-.44,1.71,1.71,0,0,0-1.26.47,1.75,1.75,0,0,0-.47,1.29,1.71,1.71,0,0,0,.45,1.25,1.64,1.64,0,0,0,1.22.45,2.47,2.47,0,0,0,1.36-.43Z" transform="translate(0 0.24)"/><path class="cls-10" d="M434.81,11.39a1.1,1.1,0,0,1-.77-.27.92.92,0,0,1-.3-.69.88.88,0,0,1,.3-.68,1.14,1.14,0,0,1,.77-.26,1.16,1.16,0,0,1,.77.26,1,1,0,0,1,0,1.37A1.11,1.11,0,0,1,434.81,11.39Zm.91,7h-1.85v-6h1.85Z" transform="translate(0 0.24)"/><path class="cls-10" d="M440.14,18.49a3.23,3.23,0,0,1-2.36-.84,3.05,3.05,0,0,1-.86-2.28,3.05,3.05,0,0,1,.89-2.33,3.38,3.38,0,0,1,2.41-.84,3.16,3.16,0,0,1,2.34.84,3,3,0,0,1,.85,2.22,3.18,3.18,0,0,1-.87,2.36A3.27,3.27,0,0,1,440.14,18.49Zm.05-4.88a1.24,1.24,0,0,0-1,.46,1.92,1.92,0,0,0-.37,1.27c0,1.16.47,1.73,1.4,1.73s1.33-.59,1.33-1.77S441.08,13.61,440.19,13.61Zm2-4.11-1.83,1.89H439l1.53-1.89Z" transform="translate(0 0.24)"/><path class="cls-10" d="M450.4,18.34h-1.84V15c0-.93-.33-1.4-1-1.4a1,1,0,0,0-.79.37,1.4,1.4,0,0,0-.31.94v3.42h-1.85v-6h1.85v.95h0a2.13,2.13,0,0,1,1.93-1.09c1.33,0,2,.82,2,2.47Z" transform="translate(0 0.24)"/><path class="cls-10" d="M419.5,26.74l-1.73,6h-1.94l-.89-3.51a3.68,3.68,0,0,1-.1-.77h0a4.75,4.75,0,0,1-.12.74l-.95,3.54h-1.92l-1.7-6H412l.83,3.92a3.72,3.72,0,0,1,.08.67h0a3.12,3.12,0,0,1,.11-.7l1-3.89h1.76l.93,3.92c0,.1,0,.32.08.68h0c0-.23,0-.46.09-.68l.78-3.92Z" transform="translate(0 0.24)"/><path class="cls-10" d="M425.71,30.27H421.8c.06.87.61,1.31,1.64,1.31a3.24,3.24,0,0,0,1.74-.47v1.33a4.5,4.5,0,0,1-2.16.45A2.79,2.79,0,0,1,420,29.84a3.2,3.2,0,0,1,.87-2.37A2.9,2.9,0,0,1,423,26.6a2.62,2.62,0,0,1,2,.78,3,3,0,0,1,.72,2.11ZM424,29.13c0-.86-.34-1.28-1-1.28a1,1,0,0,0-.77.36,1.72,1.72,0,0,0-.4.92Z" transform="translate(0 0.24)"/><path class="cls-10" d="M428.69,32.05h0v.69h-1.85V23.86h1.85v3.79h0a2.18,2.18,0,0,1,1.95-1,2.12,2.12,0,0,1,1.78.79,3.45,3.45,0,0,1,.63,2.18,3.71,3.71,0,0,1-.73,2.41,2.38,2.38,0,0,1-2,.91A1.88,1.88,0,0,1,428.69,32.05Zm-.06-2.53v.61a1.41,1.41,0,0,0,.34,1,1.06,1.06,0,0,0,.85.38,1.11,1.11,0,0,0,1-.49,2.29,2.29,0,0,0,.35-1.38,1.85,1.85,0,0,0-.32-1.17,1.06,1.06,0,0,0-.91-.41,1.15,1.15,0,0,0-.92.41A1.62,1.62,0,0,0,428.63,29.52Z" transform="translate(0 0.24)"/><path class="cls-10" d="M391.93,47.14h-2.06l-.6-1.87h-3l-.59,1.87h-2.05l3.06-8.4h2.24Zm-3.1-3.32-.9-2.82a4.51,4.51,0,0,1-.14-.76h-.05a3,3,0,0,1-.14.73l-.92,2.85Z" transform="translate(0 0.24)"/><path class="cls-10" d="M392.59,46.82V45a3.86,3.86,0,0,0,1.11.64,3.61,3.61,0,0,0,1.2.21,2.93,2.93,0,0,0,.63-.06,1.82,1.82,0,0,0,.44-.18.87.87,0,0,0,.27-.27.67.67,0,0,0,.09-.34.77.77,0,0,0-.14-.44,1.52,1.52,0,0,0-.39-.36,4.88,4.88,0,0,0-.57-.31l-.72-.31a3.76,3.76,0,0,1-1.47-1,2.4,2.4,0,0,1-.22-2.56,2.15,2.15,0,0,1,.72-.78,3.33,3.33,0,0,1,1-.45,5.72,5.72,0,0,1,1.26-.14,8.06,8.06,0,0,1,1.17.08,4.37,4.37,0,0,1,.93.24v1.75a2.87,2.87,0,0,0-.46-.25,3.13,3.13,0,0,0-.51-.19,5,5,0,0,0-.53-.11l-.49,0a2.68,2.68,0,0,0-.59.06,1.62,1.62,0,0,0-.44.17.91.91,0,0,0-.28.27.6.6,0,0,0-.1.35.65.65,0,0,0,.11.38,1.3,1.3,0,0,0,.31.31,4.4,4.4,0,0,0,.5.3l.66.29a7,7,0,0,1,.91.45,3.18,3.18,0,0,1,.69.54,2,2,0,0,1,.44.68,2.4,2.4,0,0,1,.15.89,2.37,2.37,0,0,1-.27,1.18,2.16,2.16,0,0,1-.72.78,3.36,3.36,0,0,1-1.06.42,5.91,5.91,0,0,1-1.28.13,7,7,0,0,1-1.32-.12A3.81,3.81,0,0,1,392.59,46.82Z" transform="translate(0 0.24)"/><path class="cls-10" d="M401.6,44.25v2.89h-1.9v-8.4h3c2.12,0,3.17.89,3.17,2.68a2.58,2.58,0,0,1-.91,2,3.6,3.6,0,0,1-2.43.78Zm0-4.06v2.62h.74c1,0,1.51-.44,1.51-1.32s-.5-1.3-1.51-1.3Z" transform="translate(0 0.24)"/><path class="cls-10" d="M405.92,47.29a1.07,1.07,0,0,1-.76-.28.93.93,0,0,1-.31-.69.87.87,0,0,1,.32-.69,1.16,1.16,0,0,1,.78-.27,1.14,1.14,0,0,1,.78.27.89.89,0,0,1,.3.69.92.92,0,0,1-.31.7A1.17,1.17,0,0,1,405.92,47.29Z" transform="translate(0 0.24)"/><path class="cls-10" d="M416.09,47.14h-1.91l-3.47-5.28c-.2-.3-.34-.54-.42-.69h0c0,.29,0,.75,0,1.36v4.61h-1.78v-8.4h2l3.33,5.12c.15.23.29.45.42.68h0a7.36,7.36,0,0,1-.05-1.15V38.74h1.79Z" transform="translate(0 0.24)"/><path class="cls-10" d="M423.05,47.14h-5v-8.4h4.84v1.54h-3v1.87h2.75v1.54H419.9v1.92h3.15Z" transform="translate(0 0.24)"/><path class="cls-10" d="M430.4,40.28H428v6.86h-1.89V40.28h-2.39V38.74h6.68Z" transform="translate(0 0.24)"/><path class="cls-10" d="M440.87,46.84a5.54,5.54,0,0,1-2.41.45,4,4,0,0,1-3-1.14,4.13,4.13,0,0,1-1.11-3,4.46,4.46,0,0,1,1.25-3.27,4.38,4.38,0,0,1,3.23-1.25,6,6,0,0,1,2.08.31v1.82a3.78,3.78,0,0,0-1.93-.5A2.58,2.58,0,0,0,437,41a2.79,2.79,0,0,0-.72,2,2.73,2.73,0,0,0,.68,1.94,2.43,2.43,0,0,0,1.85.72,4,4,0,0,0,2-.53Z" transform="translate(0 0.24)"/><path class="cls-10" d="M445,47.29a3.23,3.23,0,0,1-2.36-.84,3.47,3.47,0,0,1,0-4.61,3.38,3.38,0,0,1,2.41-.84,3.16,3.16,0,0,1,2.34.84,3,3,0,0,1,.85,2.22,3.18,3.18,0,0,1-.87,2.36A3.27,3.27,0,0,1,445,47.29Zm0-4.88a1.2,1.2,0,0,0-1,.46,1.92,1.92,0,0,0-.37,1.27c0,1.16.47,1.73,1.4,1.73s1.33-.59,1.33-1.77S446,42.41,445.05,42.41Z" transform="translate(0 0.24)"/><path class="cls-10" d="M453.4,42.81a1.61,1.61,0,0,0-.78-.18,1.12,1.12,0,0,0-.94.44,1.93,1.93,0,0,0-.34,1.21v2.86h-1.86v-6h1.86v1.12h0A1.59,1.59,0,0,1,452.94,41a1.14,1.14,0,0,1,.46.07Z" transform="translate(0 0.24)"/><path class="cls-10" d="M459.6,44.67h-3.91c.06.87.61,1.31,1.65,1.31a3.24,3.24,0,0,0,1.74-.47v1.33a4.57,4.57,0,0,1-2.17.45,2.79,2.79,0,0,1-3.05-3,3.2,3.2,0,0,1,.86-2.37,2.9,2.9,0,0,1,2.14-.87,2.63,2.63,0,0,1,2,.78,3,3,0,0,1,.71,2.11Zm-1.71-1.14q0-1.29-1.05-1.29a1,1,0,0,0-.77.37,1.71,1.71,0,0,0-.39.92Z" transform="translate(0 0.24)"/><path class="cls-9" d="M190.37,10.41h-1V7c0-1.25-.47-1.87-1.4-1.87a1.53,1.53,0,0,0-1.18.54A2,2,0,0,0,186.35,7v3.4h-1V1.53h1V5.41h0a2.18,2.18,0,0,1,2-1.14c1.35,0,2,.81,2,2.44Z" transform="translate(0 0.24)"/><path class="cls-9" d="M194.88,10.35a1.82,1.82,0,0,1-.9.19c-1,0-1.57-.59-1.57-1.76V5.23h-1V4.41h1V2.94l1-.31V4.41h1.51v.82h-1.51V8.61a1.45,1.45,0,0,0,.2.86.84.84,0,0,0,.68.26,1.05,1.05,0,0,0,.63-.2Z" transform="translate(0 0.24)"/><path class="cls-9" d="M198.86,10.35a1.76,1.76,0,0,1-.89.19c-1.06,0-1.58-.59-1.58-1.76V5.23h-1V4.41h1V2.94l1-.31V4.41h1.51v.82h-1.51V8.61a1.37,1.37,0,0,0,.21.86.8.8,0,0,0,.67.26,1,1,0,0,0,.63-.2Z" transform="translate(0 0.24)"/><path class="cls-9" d="M201.05,9.54h0v3.63h-1V4.41h1v1h0a2.27,2.27,0,0,1,2.07-1.19,2.21,2.21,0,0,1,1.81.8,3.37,3.37,0,0,1,.65,2.16,3.73,3.73,0,0,1-.73,2.42,2.46,2.46,0,0,1-2,.9A2,2,0,0,1,201.05,9.54Zm0-2.42V8a1.73,1.73,0,0,0,.49,1.26,1.58,1.58,0,0,0,1.22.52,1.6,1.6,0,0,0,1.37-.67,3,3,0,0,0,.5-1.85,2.39,2.39,0,0,0-.47-1.57,1.52,1.52,0,0,0-1.25-.57,1.7,1.7,0,0,0-1.35.58A2.15,2.15,0,0,0,201,7.12Z" transform="translate(0 0.24)"/><path class="cls-9" d="M206.67,10.19v-1a2.82,2.82,0,0,0,1.73.58q1.26,0,1.26-.84a.68.68,0,0,0-.11-.41,1.17,1.17,0,0,0-.29-.3,2.86,2.86,0,0,0-.43-.23l-.54-.21c-.26-.11-.5-.21-.7-.32a2.22,2.22,0,0,1-.5-.36,1.38,1.38,0,0,1-.31-.46,1.63,1.63,0,0,1-.1-.61,1.38,1.38,0,0,1,.19-.74,1.7,1.7,0,0,1,.52-.55,2.21,2.21,0,0,1,.73-.33,3.49,3.49,0,0,1,.86-.11,3.41,3.41,0,0,1,1.39.27v1a2.7,2.7,0,0,0-1.52-.43,1.88,1.88,0,0,0-.49.06,1.26,1.26,0,0,0-.37.17,1,1,0,0,0-.24.27.67.67,0,0,0-.09.34.75.75,0,0,0,.09.39,1,1,0,0,0,.25.29,2.11,2.11,0,0,0,.4.22l.53.21c.27.11.5.21.72.32a2.45,2.45,0,0,1,.53.36,1.37,1.37,0,0,1,.47,1.09,1.51,1.51,0,0,1-.2.78,1.58,1.58,0,0,1-.52.54,2.26,2.26,0,0,1-.76.32,3.27,3.27,0,0,1-.9.11A3.37,3.37,0,0,1,206.67,10.19Z" transform="translate(0 0.24)"/><path class="cls-9" d="M212.37,5.58a.62.62,0,0,1-.46-.19.68.68,0,0,1-.19-.46.64.64,0,0,1,.19-.46.62.62,0,0,1,.46-.19.63.63,0,0,1,.47.19.61.61,0,0,1,.2.46.65.65,0,0,1-.2.46A.63.63,0,0,1,212.37,5.58Zm0,5a.66.66,0,0,1-.46-.19.68.68,0,0,1-.19-.47.66.66,0,0,1,.19-.46.67.67,0,0,1,1.13.46.65.65,0,0,1-.2.47A.67.67,0,0,1,212.37,10.54Z" transform="translate(0 0.24)"/><path class="cls-9" d="M218.35,2l-4,9.79h-.9l4-9.79Z" transform="translate(0 0.24)"/><path class="cls-9" d="M222.94,2l-4,9.79H218L222,2Z" transform="translate(0 0.24)"/><path class="cls-9" d="M228.52,4.41l-2.76,7c-.5,1.24-1.19,1.86-2.08,1.86a2.16,2.16,0,0,1-.62-.07V12.3a1.7,1.7,0,0,0,.56.1,1.17,1.17,0,0,0,1.09-.87l.48-1.13-2.34-6h1.07L225.54,9q0,.09.12.45h0l.11-.44,1.71-4.63Z" transform="translate(0 0.24)"/><path class="cls-9" d="M232,10.55a2.77,2.77,0,0,1-2.12-.84,3.11,3.11,0,0,1-.8-2.23,3.25,3.25,0,0,1,.83-2.36,3,3,0,0,1,2.23-.85,2.68,2.68,0,0,1,2.1.83A3.27,3.27,0,0,1,235,7.39a3.25,3.25,0,0,1-.81,2.3A2.87,2.87,0,0,1,232,10.55ZM232,5.08a1.81,1.81,0,0,0-1.46.63A2.58,2.58,0,0,0,230,7.44a2.47,2.47,0,0,0,.54,1.69,1.86,1.86,0,0,0,1.46.61,1.75,1.75,0,0,0,1.43-.6A2.6,2.6,0,0,0,234,7.42a2.61,2.61,0,0,0-.51-1.73A1.73,1.73,0,0,0,232,5.08Z" transform="translate(0 0.24)"/><path class="cls-9" d="M241.26,10.41h-1V9.46h0a2,2,0,0,1-1.85,1.09c-1.43,0-2.15-.85-2.15-2.55V4.41h1V7.84c0,1.27.48,1.9,1.45,1.9a1.47,1.47,0,0,0,1.16-.52,2,2,0,0,0,.45-1.35V4.41h1Z" transform="translate(0 0.24)"/><path class="cls-9" d="M246.25,5.38a1.18,1.18,0,0,0-.73-.19,1.23,1.23,0,0,0-1,.58,2.72,2.72,0,0,0-.41,1.58v3.06h-1v-6h1V5.65h0a2.12,2.12,0,0,1,.63-1,1.4,1.4,0,0,1,.94-.36,1.5,1.5,0,0,1,.58.09Z" transform="translate(0 0.24)"/><path class="cls-9" d="M246.84,10.19v-1a2.84,2.84,0,0,0,1.73.58c.85,0,1.27-.28,1.27-.84a.76.76,0,0,0-.11-.41,1.17,1.17,0,0,0-.29-.3A3,3,0,0,0,249,8l-.53-.21a6.76,6.76,0,0,1-.7-.32,2.29,2.29,0,0,1-.51-.36,1.52,1.52,0,0,1-.3-.46,1.62,1.62,0,0,1-.11-.61,1.39,1.39,0,0,1,.2-.74,1.78,1.78,0,0,1,.51-.55,2.26,2.26,0,0,1,.74-.33,3.41,3.41,0,0,1,.85-.11,3.46,3.46,0,0,1,1.4.27v1A2.74,2.74,0,0,0,249,5.08a1.75,1.75,0,0,0-.48.06,1.33,1.33,0,0,0-.38.17,1,1,0,0,0-.24.27.77.77,0,0,0-.08.34.87.87,0,0,0,.08.39,1,1,0,0,0,.25.29,2.48,2.48,0,0,0,.4.22l.53.21c.27.11.51.21.72.32a2.82,2.82,0,0,1,.54.36,1.41,1.41,0,0,1,.34.47,1.46,1.46,0,0,1,.12.62,1.5,1.5,0,0,1-.19.78,1.71,1.71,0,0,1-.53.54,2.26,2.26,0,0,1-.76.32,3.24,3.24,0,0,1-.89.11A3.41,3.41,0,0,1,246.84,10.19Z" transform="translate(0 0.24)"/><path class="cls-9" d="M252.71,2.89a.59.59,0,0,1-.44-.18.62.62,0,0,1,0-.89.59.59,0,0,1,.44-.18.6.6,0,0,1,.44.18.58.58,0,0,1,.19.45.56.56,0,0,1-.19.43A.58.58,0,0,1,252.71,2.89Zm.46,7.52h-1v-6h1Z" transform="translate(0 0.24)"/><path class="cls-9" d="M257.82,10.35a1.82,1.82,0,0,1-.9.19c-1.05,0-1.57-.59-1.57-1.76V5.23h-1V4.41h1V2.94l1-.31V4.41h1.51v.82h-1.51V8.61a1.45,1.45,0,0,0,.2.86.84.84,0,0,0,.68.26,1.05,1.05,0,0,0,.63-.2Z" transform="translate(0 0.24)"/><path class="cls-9" d="M263.84,7.65H259.6a2.3,2.3,0,0,0,.54,1.55,1.88,1.88,0,0,0,1.42.54,2.89,2.89,0,0,0,1.86-.67V10a3.47,3.47,0,0,1-2.09.57,2.54,2.54,0,0,1-2-.82,3.35,3.35,0,0,1-.72-2.3,3.28,3.28,0,0,1,.79-2.28,2.54,2.54,0,0,1,2-.88A2.26,2.26,0,0,1,263.2,5a3.18,3.18,0,0,1,.64,2.12Zm-1-.81a2,2,0,0,0-.4-1.3,1.37,1.37,0,0,0-1.1-.46,1.57,1.57,0,0,0-1.16.48,2.24,2.24,0,0,0-.58,1.28Z" transform="translate(0 0.24)"/><path class="cls-9" d="M265.54,10.54a.66.66,0,0,1-.46-.19.68.68,0,0,1-.19-.47.66.66,0,0,1,.19-.46.67.67,0,0,1,1.13.46.65.65,0,0,1-.2.47A.67.67,0,0,1,265.54,10.54Z" transform="translate(0 0.24)"/><path class="cls-9" d="M271.82,10.13a3.1,3.1,0,0,1-1.64.42,2.72,2.72,0,0,1-2.07-.83,3,3,0,0,1-.79-2.17,3.3,3.3,0,0,1,.85-2.38,3,3,0,0,1,2.26-.9,3.24,3.24,0,0,1,1.4.29v1a2.4,2.4,0,0,0-1.43-.47,1.93,1.93,0,0,0-1.51.66,2.5,2.5,0,0,0-.59,1.73,2.36,2.36,0,0,0,.56,1.66,1.87,1.87,0,0,0,1.48.61,2.41,2.41,0,0,0,1.48-.52Z" transform="translate(0 0.24)"/><path class="cls-9" d="M275.69,10.55a2.79,2.79,0,0,1-2.12-.84,3.1,3.1,0,0,1-.79-2.23,3.24,3.24,0,0,1,.82-2.36,3,3,0,0,1,2.23-.85,2.66,2.66,0,0,1,2.1.83,3.27,3.27,0,0,1,.75,2.29,3.25,3.25,0,0,1-.81,2.3A2.87,2.87,0,0,1,275.69,10.55Zm.07-5.47a1.83,1.83,0,0,0-1.46.63,2.58,2.58,0,0,0-.54,1.73,2.42,2.42,0,0,0,.55,1.69,1.84,1.84,0,0,0,1.45.61,1.77,1.77,0,0,0,1.44-.6,2.65,2.65,0,0,0,.5-1.72,2.66,2.66,0,0,0-.5-1.73A1.75,1.75,0,0,0,275.76,5.08Z" transform="translate(0 0.24)"/><path class="cls-9" d="M288.65,10.41h-1V7a2.57,2.57,0,0,0-.31-1.44,1.17,1.17,0,0,0-1-.44,1.3,1.3,0,0,0-1.05.56A2.2,2.2,0,0,0,284.87,7v3.42h-1V6.85c0-1.18-.45-1.77-1.36-1.77a1.27,1.27,0,0,0-1.05.53A2.2,2.2,0,0,0,281.09,7v3.42h-1v-6h1v1h0A2,2,0,0,1,283,4.27a1.73,1.73,0,0,1,1.7,1.24,2.14,2.14,0,0,1,2-1.24c1.32,0,2,.81,2,2.44Z" transform="translate(0 0.24)"/><path class="cls-9" d="M191.64,40.21h-1.17l-1.41-2.36c-.13-.21-.25-.4-.37-.56a2.18,2.18,0,0,0-.38-.37,1.25,1.25,0,0,0-.41-.22,1.83,1.83,0,0,0-.49-.06h-.81v3.57h-1v-8.4h2.51a3.31,3.31,0,0,1,1,.14,2.38,2.38,0,0,1,.81.41,2,2,0,0,1,.53.7,2.33,2.33,0,0,1,.2,1,2.53,2.53,0,0,1-.13.8,2.1,2.1,0,0,1-.38.65,2,2,0,0,1-.59.49,2.83,2.83,0,0,1-.77.32v0a1.63,1.63,0,0,1,.37.21,4,4,0,0,1,.3.29,4,4,0,0,1,.27.37c.1.14.2.3.31.48Zm-5-7.51v3h1.34a1.91,1.91,0,0,0,.68-.12,1.46,1.46,0,0,0,.54-.32,1.38,1.38,0,0,0,.36-.51,1.78,1.78,0,0,0,.13-.67,1.32,1.32,0,0,0-.44-1.05A1.83,1.83,0,0,0,188,32.7Z" transform="translate(0 0.24)"/><path class="cls-9" d="M197.13,37.45H192.9a2.21,2.21,0,0,0,.54,1.55,1.85,1.85,0,0,0,1.41.54,2.94,2.94,0,0,0,1.87-.67v.91a3.52,3.52,0,0,1-2.09.57,2.52,2.52,0,0,1-2-.82A3.81,3.81,0,0,1,192.7,35a2.53,2.53,0,0,1,2-.88,2.25,2.25,0,0,1,1.82.76,3.18,3.18,0,0,1,.64,2.12Zm-1-.81a2,2,0,0,0-.4-1.3,1.37,1.37,0,0,0-1.1-.46,1.55,1.55,0,0,0-1.15.48,2.19,2.19,0,0,0-.59,1.28Z" transform="translate(0 0.24)"/><path class="cls-9" d="M203.71,40.21h-1v-1h0a2.21,2.21,0,0,1-2.06,1.16,2.26,2.26,0,0,1-1.81-.81,3.28,3.28,0,0,1-.67-2.19,3.57,3.57,0,0,1,.75-2.38,2.46,2.46,0,0,1,2-.9,1.9,1.9,0,0,1,1.79,1h0V31.33h1Zm-1-2.71v-.89a1.73,1.73,0,0,0-.48-1.23,1.78,1.78,0,0,0-2.6.14,2.81,2.81,0,0,0-.51,1.78,2.49,2.49,0,0,0,.49,1.64,1.57,1.57,0,0,0,1.29.6,1.65,1.65,0,0,0,1.31-.58A2.16,2.16,0,0,0,202.75,37.5Z" transform="translate(0 0.24)"/><path class="cls-9" d="M206.15,32.69a.59.59,0,0,1-.44-.18.6.6,0,0,1-.19-.44.62.62,0,0,1,.19-.45.59.59,0,0,1,.44-.18.6.6,0,0,1,.44.18.58.58,0,0,1,.19.45.56.56,0,0,1-.19.43A.58.58,0,0,1,206.15,32.69Zm.46,7.52h-1v-6h1Z" transform="translate(0 0.24)"/><path class="cls-9" d="M211.69,35.18A1.18,1.18,0,0,0,211,35a1.23,1.23,0,0,0-1,.58,2.72,2.72,0,0,0-.41,1.58v3.06h-1v-6h1v1.24h0a2.12,2.12,0,0,1,.63-1,1.42,1.42,0,0,1,.94-.36,1.46,1.46,0,0,1,.58.09Z" transform="translate(0 0.24)"/><path class="cls-9" d="M213.22,32.69a.62.62,0,0,1-.44-.18.59.59,0,0,1-.18-.44.61.61,0,0,1,.18-.45.62.62,0,0,1,.44-.18.61.61,0,0,1,.45.18.58.58,0,0,1,.19.45.56.56,0,0,1-.19.43A.58.58,0,0,1,213.22,32.69Zm.47,7.52h-1v-6h1Z" transform="translate(0 0.24)"/><path class="cls-9" d="M220.76,39.73c0,2.2-1.06,3.3-3.16,3.3a4.25,4.25,0,0,1-1.95-.42v-1a4,4,0,0,0,1.93.56c1.48,0,2.22-.78,2.22-2.35V39.2h0a2.23,2.23,0,0,1-2.06,1.15,2.27,2.27,0,0,1-1.8-.8,3.22,3.22,0,0,1-.68-2.15A3.73,3.73,0,0,1,216,35a2.46,2.46,0,0,1,2-.9,2,2,0,0,1,1.79,1h0v-.83h1Zm-1-2.23v-.89a1.69,1.69,0,0,0-.49-1.22,1.58,1.58,0,0,0-1.2-.51,1.64,1.64,0,0,0-1.39.65,2.85,2.85,0,0,0-.51,1.81,2.43,2.43,0,0,0,.49,1.6,1.55,1.55,0,0,0,1.28.6,1.67,1.67,0,0,0,1.31-.57A2.16,2.16,0,0,0,219.8,37.5Z" transform="translate(0 0.24)"/><path class="cls-9" d="M223.2,32.69a.61.61,0,0,1-.62-.62.61.61,0,0,1,.18-.45.59.59,0,0,1,.44-.18.64.64,0,0,1,.45.18.61.61,0,0,1,.18.45.58.58,0,0,1-.18.43A.61.61,0,0,1,223.2,32.69Zm.47,7.52h-1v-6h1Z" transform="translate(0 0.24)"/><path class="cls-9" d="M228.74,35.18A1.18,1.18,0,0,0,228,35a1.23,1.23,0,0,0-1,.58,2.72,2.72,0,0,0-.41,1.58v3.06h-1v-6h1v1.24h0a2,2,0,0,1,.62-1,1.43,1.43,0,0,1,.95-.36,1.41,1.41,0,0,1,.57.09Z" transform="translate(0 0.24)"/><path class="cls-9" d="M209.19,154.92h-2.43v7.51h-1v-7.51h-2.42V154h5.83Z" transform="translate(0 0.24)"/><path class="cls-9" d="M211.64,162.57a2.79,2.79,0,0,1-2.12-.84,3.1,3.1,0,0,1-.79-2.23,3.24,3.24,0,0,1,.82-2.36,3,3,0,0,1,2.23-.85,2.66,2.66,0,0,1,2.1.83,3.77,3.77,0,0,1-.06,4.59A2.87,2.87,0,0,1,211.64,162.57Zm.07-5.47a1.83,1.83,0,0,0-1.46.63,2.58,2.58,0,0,0-.54,1.73,2.47,2.47,0,0,0,.54,1.69,1.86,1.86,0,0,0,1.46.61,1.79,1.79,0,0,0,1.44-.6,3.23,3.23,0,0,0,0-3.45A1.76,1.76,0,0,0,211.71,157.1Z" transform="translate(0 0.24)"/><path class="cls-9" d="M221.08,162.43h-1.35l-2.65-2.88h0v2.88h-1v-8.88h1v5.63h0l2.52-2.75h1.26l-2.78,2.89Z" transform="translate(0 0.24)"/><path class="cls-9" d="M226.81,159.67h-4.24a2.3,2.3,0,0,0,.54,1.55,1.88,1.88,0,0,0,1.42.54,2.89,2.89,0,0,0,1.86-.67V162a3.47,3.47,0,0,1-2.09.57,2.53,2.53,0,0,1-2-.82,3.35,3.35,0,0,1-.72-2.3,3.28,3.28,0,0,1,.79-2.28,2.54,2.54,0,0,1,2-.88,2.26,2.26,0,0,1,1.83.76,3.18,3.18,0,0,1,.64,2.12Zm-1-.81a2,2,0,0,0-.41-1.3,1.35,1.35,0,0,0-1.09-.46,1.57,1.57,0,0,0-1.16.48,2.18,2.18,0,0,0-.58,1.28Z" transform="translate(0 0.24)"/><path class="cls-9" d="M233.17,162.43h-1V159c0-1.28-.46-1.91-1.39-1.91a1.54,1.54,0,0,0-1.2.54,2,2,0,0,0-.47,1.37v3.42h-1v-6h1v1h0a2.15,2.15,0,0,1,2-1.14,1.85,1.85,0,0,1,1.51.63,2.84,2.84,0,0,1,.52,1.84Z" transform="translate(0 0.24)"/><path class="cls-9" d="M243.25,162.43h-1v-1h0a2.21,2.21,0,0,1-2.06,1.16,2.24,2.24,0,0,1-1.81-.81,3.28,3.28,0,0,1-.67-2.19,3.57,3.57,0,0,1,.75-2.38,2.46,2.46,0,0,1,2-.9,1.91,1.91,0,0,1,1.8,1h0v-3.71h1Zm-1-2.71v-.89a1.73,1.73,0,0,0-.48-1.23,1.65,1.65,0,0,0-1.22-.5,1.67,1.67,0,0,0-1.39.64,2.87,2.87,0,0,0-.5,1.78,2.56,2.56,0,0,0,.48,1.64,1.73,1.73,0,0,0,2.6,0A2.13,2.13,0,0,0,242.29,159.72Z" transform="translate(0 0.24)"/><path class="cls-9" d="M249.94,159.67h-4.23a2.25,2.25,0,0,0,.53,1.55,1.88,1.88,0,0,0,1.42.54,2.94,2.94,0,0,0,1.87-.67V162a3.53,3.53,0,0,1-2.1.57,2.51,2.51,0,0,1-2-.82,3.83,3.83,0,0,1,.06-4.58,2.54,2.54,0,0,1,2-.88,2.26,2.26,0,0,1,1.83.76,3.18,3.18,0,0,1,.64,2.12Zm-1-.81a2,2,0,0,0-.4-1.3,1.37,1.37,0,0,0-1.1-.46,1.57,1.57,0,0,0-1.16.48,2.24,2.24,0,0,0-.58,1.28Z" transform="translate(0 0.24)"/><path class="cls-9" d="M258.83,162.43h-1v-.94h0a2,2,0,0,1-1.85,1.08,2,2,0,0,1-1.4-.47,1.65,1.65,0,0,1-.51-1.26c0-1.13.66-1.78,2-2l1.8-.25c0-1-.41-1.53-1.24-1.53a2.9,2.9,0,0,0-1.95.74v-1a3.76,3.76,0,0,1,2-.56c1.41,0,2.11.75,2.11,2.24Zm-1-3-1.45.2a2.54,2.54,0,0,0-1,.33,1,1,0,0,0-.34.85.89.89,0,0,0,.31.71,1.19,1.19,0,0,0,.83.28,1.58,1.58,0,0,0,1.19-.5,1.79,1.79,0,0,0,.46-1.27Z" transform="translate(0 0.24)"/><path class="cls-9" d="M264.66,162.15a3.1,3.1,0,0,1-1.64.42,2.73,2.73,0,0,1-2.07-.83,3,3,0,0,1-.79-2.17,3.3,3.3,0,0,1,.85-2.38,3,3,0,0,1,2.27-.9,3.2,3.2,0,0,1,1.39.29v1a2.38,2.38,0,0,0-1.43-.47,2,2,0,0,0-1.51.66,2.5,2.5,0,0,0-.58,1.73,2.36,2.36,0,0,0,.55,1.66,1.89,1.89,0,0,0,1.48.61,2.39,2.39,0,0,0,1.48-.52Z" transform="translate(0 0.24)"/><path class="cls-9" d="M270.13,162.15a3.1,3.1,0,0,1-1.64.42,2.75,2.75,0,0,1-2.07-.83,3,3,0,0,1-.79-2.17,3.35,3.35,0,0,1,.85-2.38,3,3,0,0,1,2.27-.9,3.2,3.2,0,0,1,1.39.29v1a2.38,2.38,0,0,0-1.43-.47,1.91,1.91,0,0,0-1.5.66,2.46,2.46,0,0,0-.59,1.73,2.36,2.36,0,0,0,.55,1.66,1.89,1.89,0,0,0,1.49.61,2.38,2.38,0,0,0,1.47-.52Z" transform="translate(0 0.24)"/><path class="cls-9" d="M276.33,159.67H272.1a2.21,2.21,0,0,0,.54,1.55,1.85,1.85,0,0,0,1.42.54,2.93,2.93,0,0,0,1.86-.67V162a3.52,3.52,0,0,1-2.09.57,2.52,2.52,0,0,1-2-.82,3.81,3.81,0,0,1,.07-4.58,2.53,2.53,0,0,1,2-.88,2.25,2.25,0,0,1,1.82.76,3.18,3.18,0,0,1,.64,2.12Zm-1-.81a2,2,0,0,0-.4-1.3,1.36,1.36,0,0,0-1.1-.46,1.55,1.55,0,0,0-1.15.48,2.19,2.19,0,0,0-.59,1.28Z" transform="translate(0 0.24)"/><path class="cls-9" d="M277.35,162.21v-1a2.84,2.84,0,0,0,1.73.58c.85,0,1.27-.28,1.27-.84a.76.76,0,0,0-.11-.41,1.17,1.17,0,0,0-.29-.3,3,3,0,0,0-.44-.23l-.53-.21a6.76,6.76,0,0,1-.7-.32,2.55,2.55,0,0,1-.51-.36,1.52,1.52,0,0,1-.3-.46,1.63,1.63,0,0,1-.1-.61,1.38,1.38,0,0,1,.19-.74,1.78,1.78,0,0,1,.51-.55,2.26,2.26,0,0,1,.74-.33,3.41,3.41,0,0,1,.85-.11,3.46,3.46,0,0,1,1.4.27v1a2.71,2.71,0,0,0-1.53-.43,1.75,1.75,0,0,0-.48.06,1.33,1.33,0,0,0-.38.17,1,1,0,0,0-.24.27.77.77,0,0,0-.08.34.87.87,0,0,0,.08.39,1,1,0,0,0,.25.29,2.48,2.48,0,0,0,.4.22l.54.21c.26.11.5.21.71.32a2.82,2.82,0,0,1,.54.36,1.41,1.41,0,0,1,.34.47,1.46,1.46,0,0,1,.12.62,1.5,1.5,0,0,1-.19.78,1.71,1.71,0,0,1-.53.54,2.3,2.3,0,0,1-.75.32,3.36,3.36,0,0,1-.9.11A3.41,3.41,0,0,1,277.35,162.21Z" transform="translate(0 0.24)"/><path class="cls-9" d="M285.24,162.57a2.79,2.79,0,0,1-2.12-.84,3.1,3.1,0,0,1-.79-2.23,3.24,3.24,0,0,1,.82-2.36,3,3,0,0,1,2.23-.85,2.66,2.66,0,0,1,2.1.83,3.77,3.77,0,0,1-.06,4.59A2.87,2.87,0,0,1,285.24,162.57Zm.07-5.47a1.83,1.83,0,0,0-1.46.63,2.58,2.58,0,0,0-.54,1.73,2.42,2.42,0,0,0,.55,1.69,1.84,1.84,0,0,0,1.45.61,1.77,1.77,0,0,0,1.44-.6,3.23,3.23,0,0,0,0-3.45A1.75,1.75,0,0,0,285.31,157.1Z" transform="translate(0 0.24)"/></g></svg>