<svg xmlns="http://www.w3.org/2000/svg" xmlns:xlink="http://www.w3.org/1999/xlink" viewBox="0 0 492.67 180"><defs><style>.cls-1{fill:#505050;}.cls-10,.cls-2{fill:#fff;}.cls-3,.cls-7{fill:#ebebeb;}.cls-4{fill:#0072c6;}.cls-5{fill:#ffb900;}.cls-6{fill:none;}.cls-6,.cls-7,.cls-8{stroke:#000;}.cls-10,.cls-6,.cls-7,.cls-8,.cls-9{stroke-miterlimit:10;}.cls-7{stroke-width:0.75px;}.cls-10,.cls-8{stroke-width:0.05px;}.cls-9{fill:#1e1e1e;stroke:#1e1e1e;stroke-width:0.06px;}.cls-10{stroke:#fff;}</style><symbol id="New_Symbol_45" data-name="New Symbol 45" viewBox="0 0 20 20"><circle class="cls-1" cx="10" cy="10" r="10"/><path class="cls-2" d="M7.58,5.77v1.3a3,3,0,0,1,1.67-.55A2.07,2.07,0,0,1,10.63,7a1.4,1.4,0,0,1,.52,1.16,1.32,1.32,0,0,1-.53,1.12,2.54,2.54,0,0,1-1.52.4,12.8,12.8,0,0,1-1.38-.07L8,14h4.14V12.81h-3L9,10.71h.73A2.89,2.89,0,0,0,11.82,10a2.43,2.43,0,0,0,.68-1.86,2.57,2.57,0,0,0-.84-2,3.29,3.29,0,0,0-2.29-.75A3.57,3.57,0,0,0,7.58,5.77Z"/></symbol><symbol id="New_Symbol_44" data-name="New Symbol 44" viewBox="0 0 20 20"><circle class="cls-1" cx="10" cy="10" r="10"/><path class="cls-2" d="M12,14V8.58h1.25V7.45H12V5.6H10.65V7.42H6.85V8.56q.51.58,1.05,1.26a12.66,12.66,0,0,1,1,1.38c.29.47.64.94.93,1.41A13,13,0,0,1,10.55,14ZM10.65,8.58v3.5a19.76,19.76,0,0,0-1.26-2C9,9.51,8.58,9,8.22,8.56Z"/></symbol><symbol id="New_Symbol_43" data-name="New Symbol 43" viewBox="0 0 20 20"><circle class="cls-1" cx="10" cy="10" r="10"/><path class="cls-2" d="M7.39,5.88V7.16a3,3,0,0,1,1.85-.65,2.19,2.19,0,0,1,1.34.38,1.23,1.23,0,0,1,.5,1c0,1-.73,1.43-2.18,1.43H8.24v1.12h.63c1.29,0,1.94.45,1.94,1.35S10.3,13,9.29,13a2.48,2.48,0,0,1-1.58-.6v1.23a4.08,4.08,0,0,0,2,.48,2.64,2.64,0,0,0,1.79-.56,1.76,1.76,0,0,0,.67-1.44A2,2,0,0,0,10.5,10h0a2.19,2.19,0,0,0,1.43-.63A1.89,1.89,0,0,0,12.5,8a2.22,2.22,0,0,0-.85-1.82,3.4,3.4,0,0,0-2.24-.7A3.84,3.84,0,0,0,7.39,5.88Z"/></symbol><symbol id="New_Symbol_41" data-name="New Symbol 41" viewBox="0 0 20 20"><circle class="cls-1" cx="10" cy="10" r="10"/><path class="cls-2" d="M11.19,14.16V5.57H9.83V12.5A4.06,4.06,0,0,0,9,12a9,9,0,0,0-1-.33v1.21l.65.24.63.27.62.34c.21.13.42.27.64.43Z"/></symbol><symbol id="New_Symbol_42" data-name="New Symbol 42" viewBox="0 0 20 20"><circle class="cls-1" cx="10" cy="10" r="10"/><path class="cls-2" d="M12.5,5.57H7.24v.65A2.58,2.58,0,0,0,7.35,7a3.93,3.93,0,0,0,.3.66,4.92,4.92,0,0,0,.44.58c.17.18.35.35.54.52l.59.5c.2.15.39.31.58.47s.35.3.5.45a4.11,4.11,0,0,1,.38.45,2.55,2.55,0,0,1,.24.5,1.84,1.84,0,0,1,.09.57,1.42,1.42,0,0,1-.1.58,1.33,1.33,0,0,1-.29.41,1.17,1.17,0,0,1-.44.26,2.05,2.05,0,0,1-.55.05,2.73,2.73,0,0,1-1.05-.24,3.75,3.75,0,0,1-1-.72v1.31a2.85,2.85,0,0,0,.52.33,2.7,2.7,0,0,0,.55.24,3,3,0,0,0,.59.15,3.64,3.64,0,0,0,.66,0,3.77,3.77,0,0,0,1-.14,2.2,2.2,0,0,0,.79-.44,2,2,0,0,0,.51-.73,2.46,2.46,0,0,0,.18-1,2.88,2.88,0,0,0-.13-.92,2.65,2.65,0,0,0-.36-.76,4,4,0,0,0-.56-.67c-.21-.21-.46-.43-.73-.65l-.67-.53c-.23-.18-.43-.35-.61-.51a3.5,3.5,0,0,1-.44-.5.9.9,0,0,1-.16-.5H12.5Z"/></symbol></defs><title>OJ104329342</title><g id="bg"><g id="Shapes"><rect class="cls-2" width="492.67" height="180"/><rect class="cls-3" x="0.51" width="105" height="155"/><rect class="cls-4" x="370.17" y="60" width="105" height="95"/><rect class="cls-5" x="370.17" y="0.1" width="105" height="55"/><line class="cls-6" x1="105.53" y1="15" x2="364.68" y2="15"/><polygon points="363.59 18.74 370.06 15 363.59 11.26 363.59 18.74"/><line class="cls-6" x1="110.92" y1="44.88" x2="370.06" y2="44.88"/><polygon points="112.01 48.62 105.53 44.88 112.01 41.14 112.01 48.62"/><line class="cls-6" x1="105.53" y1="85.1" x2="364.68" y2="85.1"/><polygon points="363.59 88.84 370.06 85.1 363.59 81.36 363.59 88.84"/><line class="cls-6" x1="110.92" y1="135.1" x2="370.06" y2="135.1"/><polygon points="112.01 138.84 105.53 135.1 112.01 131.36 112.01 138.84"/><path class="cls-6" d="M51.05,155v7.5c0,4.13,4.5,7.51,10,7.52l419.11.75a10,10,0,0,0,10-10V31.5a2.67,2.67,0,0,0-2.81-2.5H480.7"/><polygon points="481.79 25.26 475.31 29 481.79 32.74 481.79 25.26"/><use width="20" height="20" transform="matrix(1, 0, 0, -1, 159.06, 180)" xlink:href="#New_Symbol_45"/><use width="20" height="20" transform="matrix(1, 0, 0, -1, 159.06, 145.1)" xlink:href="#New_Symbol_44"/><use width="20" height="20" transform="matrix(1, 0, 0, -1, 159.06, 95.1)" xlink:href="#New_Symbol_43"/><path d="M80.75,38.31A34.75,34.75,0,0,0,53,24.64,34.94,34.94,0,1,0,74.27,87.31a34.84,34.84,0,0,0,6.61-48.83ZM82.4,67.48c-1.23-.92-3-2.31-5.3-4.13a6.86,6.86,0,0,0-.78-6.4,6.62,6.62,0,0,0-8.55-1.54c-3-2.75-6.41-5.9-9.95-9.45,10.74-5.88,18.58-5.16,19.05-5.11.11.14.23.27.33.41A30.23,30.23,0,0,1,82.4,67.48ZM63.21,75.72a6.22,6.22,0,0,0-1.09-2.38,5.9,5.9,0,0,0-8-1.4A56.53,56.53,0,0,1,46,66.52c-.25-.2-.48-.4-.71-.6a9.24,9.24,0,0,0-1.32-9c0-.06-.11-.12-.16-.19.6-.64,1.22-1.27,1.89-1.88a57.76,57.76,0,0,1,8-6.47h.08l-.09.08c3.82,3.51,7.85,6.83,11.64,9.8a6.53,6.53,0,0,0,.58,6.68,6.68,6.68,0,0,0,9.24,1.28c.14-.12.28-.24.41-.37,2.73,1.92,4.89,3.39,6.13,4.24a29.89,29.89,0,0,1-3.4,6.66A32.8,32.8,0,0,1,63.21,75.72Zm9.38-39.31a33,33,0,0,0-20.31,3.75c-2.74-2.92-5.66-6.18-8.61-9.48A30.47,30.47,0,0,1,53,29.22,30,30,0,0,1,72.59,36.41Zm-38.1-.91a30.88,30.88,0,0,1,5.08-3.14,61,61,0,0,0,8.24,10.36A51.67,51.67,0,0,0,39.4,50c-1,1.09-1.93,2.19-2.8,3.28a9,9,0,0,0-4.27,1A24.37,24.37,0,0,1,29,41,30.41,30.41,0,0,1,34.49,35.5ZM25.42,46.76a22.16,22.16,0,0,0,3,11.43,9.23,9.23,0,0,0,.82,10h0a54.93,54.93,0,0,0-1.38,8.64A30.35,30.35,0,0,1,25.42,46.76ZM53,90.08A30.13,30.13,0,0,1,33.47,83,42,42,0,0,1,35,71.69a9.3,9.3,0,0,0,6.87-1.53l.77.59a50.31,50.31,0,0,0,8.67,5.52,5.85,5.85,0,0,0,1.19,4.49,6.07,6.07,0,0,0,10-.52,54.32,54.32,0,0,0,11.72,1.23,35.23,35.23,0,0,1-2.7,2.33A30.19,30.19,0,0,1,53,90.08Z"/><use width="20" height="20" transform="matrix(1, 0, 0, -1, 159.06, 25)" xlink:href="#New_Symbol_41"/><use width="20" height="20" transform="matrix(1, 0, 0, -1, 159.06, 54.88)" xlink:href="#New_Symbol_42"/></g><g id="Text"><polygon class="cls-7" points="192.72 105.17 185.16 110.61 188.05 119.42 197.39 119.42 200.28 110.61 192.72 105.17"/><polygon class="cls-7" points="191.73 150.85 184.18 156.29 187.06 165.1 196.41 165.1 199.29 156.29 191.73 150.85"/></g></g><g id="txt"><path class="cls-8" d="M28.38,114.68h-5v-8.4h4.85v1.54h-3v1.87H28v1.54H25.24v1.92h3.14Z"/><path class="cls-8" d="M35.34,108.68l-2,2.91,2,3.09H33.2l-.87-1.61c-.07-.13-.15-.32-.25-.55h0a4.68,4.68,0,0,1-.24.53l-.88,1.63H28.82l2-3-1.9-3h2.14l.86,1.68a4.49,4.49,0,0,1,.24.57h0a4.16,4.16,0,0,1,.26-.58l.87-1.67Z"/><path class="cls-8" d="M38.05,114h0v3.45H36.18v-8.76H38v.9h0a2.19,2.19,0,0,1,1.93-1,2.14,2.14,0,0,1,1.8.8,3.4,3.4,0,0,1,.64,2.17,3.66,3.66,0,0,1-.75,2.41,2.4,2.4,0,0,1-2,.91A1.87,1.87,0,0,1,38.05,114Zm0-2.47V112a1.53,1.53,0,0,0,.33,1,1.05,1.05,0,0,0,.86.39,1.12,1.12,0,0,0,1-.49,2.36,2.36,0,0,0,.35-1.38q0-1.59-1.23-1.59a1.18,1.18,0,0,0-.93.43A1.73,1.73,0,0,0,38,111.52Z"/><path class="cls-8" d="M45.47,114.68H43.62V105.8h1.85Z"/><path class="cls-8" d="M49.89,114.83a3.23,3.23,0,0,1-2.36-.84,3.47,3.47,0,0,1,0-4.61,3.37,3.37,0,0,1,2.41-.84,3.18,3.18,0,0,1,2.34.84,3,3,0,0,1,.85,2.22,3.18,3.18,0,0,1-.87,2.36A3.27,3.27,0,0,1,49.89,114.83Zm0-4.88a1.24,1.24,0,0,0-1,.46,2,2,0,0,0-.36,1.27c0,1.15.47,1.73,1.4,1.73s1.33-.59,1.33-1.77S50.83,110,49.93,110Z"/><path class="cls-8" d="M58.28,110.35a1.66,1.66,0,0,0-.78-.18,1.15,1.15,0,0,0-1,.44,2,2,0,0,0-.34,1.21v2.86H54.36v-6h1.85v1.12h0a1.59,1.59,0,0,1,1.58-1.22,1.14,1.14,0,0,1,.46.07Z"/><path class="cls-8" d="M64.13,114.68H62.38v-.86h0a2,2,0,0,1-1.79,1,1.9,1.9,0,0,1-1.38-.5,1.79,1.79,0,0,1-.5-1.32q0-1.74,2.07-2l1.63-.22c0-.66-.35-1-1.07-1a3.65,3.65,0,0,0-2,.63V109a4.57,4.57,0,0,1,1.05-.35,5.7,5.7,0,0,1,1.22-.15,2.26,2.26,0,0,1,2.57,2.56Zm-1.74-2.43v-.41L61.3,112c-.6.08-.9.35-.9.82a.64.64,0,0,0,.22.51.8.8,0,0,0,.59.21,1.1,1.1,0,0,0,.85-.36A1.31,1.31,0,0,0,62.39,112.25Z"/><path class="cls-8" d="M71.47,114.68H69.62v-.82h0a2.09,2.09,0,0,1-1.86,1,2.3,2.3,0,0,1-1.81-.79,3.33,3.33,0,0,1-.68-2.22,3.62,3.62,0,0,1,.75-2.39,2.47,2.47,0,0,1,2-.89,1.67,1.67,0,0,1,1.62.83h0V105.8h1.85Zm-1.82-2.92v-.45a1.4,1.4,0,0,0-.34-1,1.12,1.12,0,0,0-.88-.39,1.15,1.15,0,0,0-1,.49,2.23,2.23,0,0,0-.34,1.32,2,2,0,0,0,.33,1.22,1.11,1.11,0,0,0,.93.43,1.13,1.13,0,0,0,.92-.45A1.92,1.92,0,0,0,69.65,111.76Z"/><path class="cls-8" d="M75.88,114.83a3.2,3.2,0,0,1-2.35-.84,3.47,3.47,0,0,1,0-4.61,3.37,3.37,0,0,1,2.41-.84,3.19,3.19,0,0,1,2.34.84,3,3,0,0,1,.85,2.22,3.15,3.15,0,0,1-.88,2.36A3.24,3.24,0,0,1,75.88,114.83Zm.05-4.88a1.21,1.21,0,0,0-1,.46,2,2,0,0,0-.36,1.27c0,1.15.46,1.73,1.39,1.73s1.33-.59,1.33-1.77S76.83,110,75.93,110Z"/><path class="cls-8" d="M84.28,110.35a1.66,1.66,0,0,0-.78-.18,1.14,1.14,0,0,0-1,.44,2,2,0,0,0-.34,1.21v2.86H80.36v-6h1.85v1.12h0a1.59,1.59,0,0,1,1.58-1.22,1.17,1.17,0,0,1,.46.07Z"/><path class="cls-8" d="M51.12,123.08l-1.73,6h-2l-.88-3.51a3.68,3.68,0,0,1-.1-.77h0a4,4,0,0,1-.11.74l-1,3.54H43.44l-1.7-6h1.89l.83,3.92c0,.18.06.4.08.67h0a3.9,3.9,0,0,1,.1-.7l1-3.89h1.77L48.4,127a4.06,4.06,0,0,1,.09.68h0c0-.23,0-.46.09-.68l.78-3.92Z"/><path class="cls-8" d="M57.33,126.61H53.41c.07.87.62,1.31,1.65,1.31a3.24,3.24,0,0,0,1.74-.47v1.33a4.5,4.5,0,0,1-2.16.45,2.79,2.79,0,0,1-3.06-3,3.2,3.2,0,0,1,.87-2.37,2.9,2.9,0,0,1,2.13-.87,2.62,2.62,0,0,1,2,.78,3,3,0,0,1,.72,2.11Zm-1.72-1.14c0-.86-.35-1.29-1-1.29a1,1,0,0,0-.77.37,1.72,1.72,0,0,0-.4.92Z"/><path class="cls-8" d="M60.3,128.39h0v.69H58.43V120.2h1.85V124h0a2.21,2.21,0,0,1,2-1,2.12,2.12,0,0,1,1.78.79,3.43,3.43,0,0,1,.63,2.18,3.71,3.71,0,0,1-.73,2.41,2.38,2.38,0,0,1-2,.91A1.9,1.9,0,0,1,60.3,128.39Zm0-2.54v.62a1.36,1.36,0,0,0,.34,1,1.08,1.08,0,0,0,.85.38,1.12,1.12,0,0,0,1-.49,2.29,2.29,0,0,0,.35-1.38,1.85,1.85,0,0,0-.32-1.17,1.06,1.06,0,0,0-.91-.42,1.16,1.16,0,0,0-.92.42A1.56,1.56,0,0,0,60.25,125.85Z"/><path class="cls-9" d="M184.54,66.87V65.71A2,2,0,0,0,185,66a5.19,5.19,0,0,0,.59.24,6.23,6.23,0,0,0,.62.15,4,4,0,0,0,.57,0,2.22,2.22,0,0,0,1.36-.34,1.14,1.14,0,0,0,.45-1,1.15,1.15,0,0,0-.15-.59,1.64,1.64,0,0,0-.42-.46,3.91,3.91,0,0,0-.62-.4l-.78-.4-.82-.45a3.81,3.81,0,0,1-.66-.5,2.24,2.24,0,0,1-.44-.63,2.13,2.13,0,0,1,.09-1.81,2.24,2.24,0,0,1,.66-.71,3.08,3.08,0,0,1,.94-.41,4.22,4.22,0,0,1,1.06-.13,4.13,4.13,0,0,1,1.82.3v1.11a3.26,3.26,0,0,0-1.91-.52,2.88,2.88,0,0,0-.65.07,1.69,1.69,0,0,0-.57.22,1.18,1.18,0,0,0-.41.39,1,1,0,0,0-.16.59,1.18,1.18,0,0,0,.12.55,1.41,1.41,0,0,0,.35.43,4.69,4.69,0,0,0,.57.38l.78.39c.3.15.59.31.86.47a4,4,0,0,1,.7.55,2.36,2.36,0,0,1,.49.66,1.84,1.84,0,0,1,.18.83,2,2,0,0,1-.9,1.75,3,3,0,0,1-.95.39,5.24,5.24,0,0,1-1.14.12l-.49,0q-.3,0-.6-.09a4.91,4.91,0,0,1-.58-.15A1.72,1.72,0,0,1,184.54,66.87Z"/><path class="cls-9" d="M193.61,67.35a2.77,2.77,0,0,1-2.12-.84,3.11,3.11,0,0,1-.8-2.23,3.26,3.26,0,0,1,.83-2.36,3,3,0,0,1,2.23-.85,2.71,2.71,0,0,1,2.1.83,3.27,3.27,0,0,1,.75,2.29,3.23,3.23,0,0,1-.81,2.3A2.83,2.83,0,0,1,193.61,67.35Zm.07-5.47a1.8,1.8,0,0,0-1.46.63,2.59,2.59,0,0,0-.54,1.74,2.46,2.46,0,0,0,.54,1.68,1.85,1.85,0,0,0,1.46.61,1.75,1.75,0,0,0,1.43-.6,2.58,2.58,0,0,0,.5-1.72,2.62,2.62,0,0,0-.5-1.73A1.73,1.73,0,0,0,193.68,61.88Z"/><path class="cls-9" d="M199,67.21h-1V58.33h1Z"/><path class="cls-9" d="M201.39,59.69a.6.6,0,0,1-.44-.18.57.57,0,0,1-.18-.44.61.61,0,0,1,.18-.45.6.6,0,0,1,.44-.18.64.64,0,0,1,.45.18.61.61,0,0,1,.18.45.6.6,0,0,1-.18.44A.64.64,0,0,1,201.39,59.69Zm.47,7.52h-1v-6h1Z"/><path class="cls-9" d="M207.82,66.94a3.19,3.19,0,0,1-1.64.41,2.68,2.68,0,0,1-2.07-.83,3,3,0,0,1-.79-2.17,3.32,3.32,0,0,1,.85-2.38,3,3,0,0,1,2.27-.9,3.09,3.09,0,0,1,1.39.3v1a2.45,2.45,0,0,0-1.43-.47,2,2,0,0,0-1.51.66,2.52,2.52,0,0,0-.59,1.73,2.41,2.41,0,0,0,.56,1.67,1.91,1.91,0,0,0,1.48.6,2.39,2.39,0,0,0,1.48-.52Z"/><path class="cls-9" d="M209.69,59.69a.6.6,0,0,1-.44-.18.57.57,0,0,1-.18-.44.61.61,0,0,1,.18-.45.6.6,0,0,1,.44-.18.61.61,0,0,1,.45.18.62.62,0,0,1,0,.89A.61.61,0,0,1,209.69,59.69Zm.47,7.52h-1v-6h1Z"/><path class="cls-9" d="M214.82,67.15a1.82,1.82,0,0,1-.9.19c-1,0-1.57-.58-1.57-1.76V62h-1v-.82h1V59.75l1-.31v1.77h1.51V62h-1.51v3.38a1.41,1.41,0,0,0,.2.87.82.82,0,0,0,.68.25,1,1,0,0,0,.63-.2Z"/><path class="cls-9" d="M220.32,67.21h-1v-.93h0a2,2,0,0,1-1.85,1.07,2,2,0,0,1-1.4-.47,1.65,1.65,0,0,1-.51-1.26c0-1.12.66-1.77,2-2l1.8-.25q0-1.53-1.23-1.53a3,3,0,0,0-2,.74v-1a3.76,3.76,0,0,1,2-.56c1.41,0,2.11.75,2.11,2.24Zm-1-3-1.44.2a2.25,2.25,0,0,0-1,.33,1,1,0,0,0-.34.84.92.92,0,0,0,.31.72,1.25,1.25,0,0,0,.84.27,1.53,1.53,0,0,0,1.18-.5,1.76,1.76,0,0,0,.46-1.26Z"/><path class="cls-9" d="M225.19,62.19a1.18,1.18,0,0,0-.73-.2,1.22,1.22,0,0,0-1,.58,2.67,2.67,0,0,0-.42,1.58v3.06h-1v-6h1v1.24h0a2.08,2.08,0,0,1,.62-1,1.49,1.49,0,0,1,1-.35,1.44,1.44,0,0,1,.57.08Z"/><path class="cls-9" d="M188.89,79.94a3.19,3.19,0,0,1-1.64.41,2.68,2.68,0,0,1-2.07-.83,3,3,0,0,1-.79-2.17,3.32,3.32,0,0,1,.85-2.38,3,3,0,0,1,2.27-.9,3.09,3.09,0,0,1,1.39.3v1a2.45,2.45,0,0,0-1.43-.47,1.93,1.93,0,0,0-1.51.66,2.52,2.52,0,0,0-.59,1.73,2.41,2.41,0,0,0,.56,1.67,1.91,1.91,0,0,0,1.48.6,2.39,2.39,0,0,0,1.48-.52Z"/><path class="cls-9" d="M193.4,75.19a1.18,1.18,0,0,0-.73-.2,1.25,1.25,0,0,0-1,.58,2.74,2.74,0,0,0-.41,1.58v3.06h-1v-6h1v1.24h0a2.17,2.17,0,0,1,.63-1,1.46,1.46,0,0,1,.94-.35,1.49,1.49,0,0,1,.58.08Z"/><path class="cls-9" d="M199.19,77.45H195a2.23,2.23,0,0,0,.53,1.55,1.88,1.88,0,0,0,1.42.54,3,3,0,0,0,1.87-.66v.9a3.53,3.53,0,0,1-2.1.57,2.53,2.53,0,0,1-2-.81,3.34,3.34,0,0,1-.73-2.3,3.29,3.29,0,0,1,.79-2.29,2.58,2.58,0,0,1,2-.88,2.28,2.28,0,0,1,1.82.76,3.19,3.19,0,0,1,.64,2.12Zm-1-.81a2,2,0,0,0-.4-1.3,1.4,1.4,0,0,0-1.1-.46,1.54,1.54,0,0,0-1.16.49,2.21,2.21,0,0,0-.58,1.27Z"/><path class="cls-9" d="M205.69,80.21h-1v-1h0a2.21,2.21,0,0,1-2.06,1.16,2.25,2.25,0,0,1-1.81-.8,3.33,3.33,0,0,1-.68-2.2,3.59,3.59,0,0,1,.75-2.38,2.48,2.48,0,0,1,2-.9,1.94,1.94,0,0,1,1.8,1h0V71.33h1Zm-1-2.71v-.88a1.74,1.74,0,0,0-.48-1.24,1.62,1.62,0,0,0-1.22-.5,1.67,1.67,0,0,0-1.38.65,2.85,2.85,0,0,0-.5,1.78,2.53,2.53,0,0,0,.48,1.63,1.59,1.59,0,0,0,1.3.6,1.63,1.63,0,0,0,1.3-.58A2.11,2.11,0,0,0,204.73,77.5Z"/><path class="cls-9" d="M212.39,77.45h-4.24a2.28,2.28,0,0,0,.54,1.55,1.88,1.88,0,0,0,1.42.54,2.94,2.94,0,0,0,1.86-.66v.9a3.47,3.47,0,0,1-2.09.57,2.56,2.56,0,0,1-2-.81,3.39,3.39,0,0,1-.72-2.3A3.29,3.29,0,0,1,208,75a2.58,2.58,0,0,1,2-.88,2.29,2.29,0,0,1,1.83.76,3.25,3.25,0,0,1,.64,2.12Zm-1-.81a2,2,0,0,0-.41-1.3,1.38,1.38,0,0,0-1.09-.46,1.54,1.54,0,0,0-1.16.49,2.15,2.15,0,0,0-.58,1.27Z"/><path class="cls-9" d="M218.75,80.21h-1V76.79c0-1.27-.46-1.91-1.39-1.91a1.54,1.54,0,0,0-1.2.54,2,2,0,0,0-.47,1.37v3.42h-1v-6h1v1h0a2.15,2.15,0,0,1,2-1.14,1.83,1.83,0,0,1,1.51.64,2.79,2.79,0,0,1,.52,1.83Z"/><path class="cls-9" d="M224.58,79.94a3.19,3.19,0,0,1-1.64.41,2.68,2.68,0,0,1-2.07-.83,3,3,0,0,1-.79-2.17,3.32,3.32,0,0,1,.85-2.38,3,3,0,0,1,2.27-.9,3.09,3.09,0,0,1,1.39.3v1a2.45,2.45,0,0,0-1.43-.47,2,2,0,0,0-1.51.66,2.52,2.52,0,0,0-.59,1.73,2.41,2.41,0,0,0,.56,1.67,1.91,1.91,0,0,0,1.48.6,2.39,2.39,0,0,0,1.48-.52Z"/><path class="cls-9" d="M226.45,72.69a.6.6,0,0,1-.44-.18.57.57,0,0,1-.18-.44.61.61,0,0,1,.18-.45.6.6,0,0,1,.44-.18.61.61,0,0,1,.45.18.62.62,0,0,1,0,.89A.61.61,0,0,1,226.45,72.69Zm.47,7.52h-1v-6h1Z"/><path class="cls-9" d="M233.09,80.21h-1v-.93h0a2,2,0,0,1-1.85,1.07,1.93,1.93,0,0,1-1.4-.47,1.65,1.65,0,0,1-.51-1.26c0-1.12.66-1.77,2-2l1.8-.25c0-1-.41-1.53-1.24-1.53a3,3,0,0,0-1.95.74v-1a3.75,3.75,0,0,1,2-.56c1.41,0,2.12.75,2.12,2.24Zm-1-3-1.45.2a2.35,2.35,0,0,0-1,.33,1,1,0,0,0-.34.84.93.93,0,0,0,.32.72,1.22,1.22,0,0,0,.83.27,1.51,1.51,0,0,0,1.18-.5,1.77,1.77,0,0,0,.47-1.26Z"/><path class="cls-9" d="M235.79,80.21h-1V71.33h1Z"/><path class="cls-9" d="M242.48,77.45h-4.23a2.19,2.19,0,0,0,.54,1.55,1.85,1.85,0,0,0,1.42.54,3,3,0,0,0,1.86-.66v.9a3.52,3.52,0,0,1-2.09.57,2.54,2.54,0,0,1-2-.81,3.34,3.34,0,0,1-.73-2.3,3.29,3.29,0,0,1,.8-2.29,2.56,2.56,0,0,1,2-.88,2.28,2.28,0,0,1,1.82.76,3.19,3.19,0,0,1,.64,2.12Zm-1-.81a2,2,0,0,0-.4-1.3,1.39,1.39,0,0,0-1.1-.46,1.52,1.52,0,0,0-1.15.49,2.16,2.16,0,0,0-.59,1.27Z"/><path class="cls-9" d="M243.5,80V79a2.84,2.84,0,0,0,1.73.58c.85,0,1.27-.28,1.27-.84a.78.78,0,0,0-.11-.41,1,1,0,0,0-.29-.29,1.83,1.83,0,0,0-.44-.23l-.53-.22a5.16,5.16,0,0,1-.7-.32,2,2,0,0,1-.51-.36,1.41,1.41,0,0,1-.3-.46,1.57,1.57,0,0,1-.11-.6,1.45,1.45,0,0,1,.2-.75,1.78,1.78,0,0,1,.51-.55,2.77,2.77,0,0,1,.74-.33,3.41,3.41,0,0,1,.85-.11,3.46,3.46,0,0,1,1.4.27v1a2.82,2.82,0,0,0-1.53-.43,1.75,1.75,0,0,0-.48.06,1.11,1.11,0,0,0-.38.18.85.85,0,0,0-.24.26.81.81,0,0,0-.08.34,1,1,0,0,0,.08.4.94.94,0,0,0,.25.28,2.48,2.48,0,0,0,.4.22l.53.22a6.21,6.21,0,0,1,.72.31,2.82,2.82,0,0,1,.54.36,1.41,1.41,0,0,1,.34.47,1.54,1.54,0,0,1,.12.63,1.49,1.49,0,0,1-.19.77,1.85,1.85,0,0,1-.53.55,2.49,2.49,0,0,1-.76.32,3.68,3.68,0,0,1-.89.1A3.54,3.54,0,0,1,243.5,80Z"/><path class="cls-9" d="M210.12,109.1h-2.43v7.51h-1V109.1h-2.42v-.89h5.83Z"/><path class="cls-9" d="M212.62,116.75a2.79,2.79,0,0,1-2.13-.84,3.1,3.1,0,0,1-.79-2.23,3.21,3.21,0,0,1,.83-2.36,3,3,0,0,1,2.23-.85,2.69,2.69,0,0,1,2.09.83,3.28,3.28,0,0,1,.76,2.29,3.23,3.23,0,0,1-.82,2.3A2.85,2.85,0,0,1,212.62,116.75Zm.07-5.47a1.84,1.84,0,0,0-1.47.63,2.59,2.59,0,0,0-.54,1.74,2.46,2.46,0,0,0,.55,1.68,1.85,1.85,0,0,0,1.46.61,1.75,1.75,0,0,0,1.43-.6,2.63,2.63,0,0,0,.5-1.72,2.68,2.68,0,0,0-.5-1.73A1.73,1.73,0,0,0,212.69,111.28Z"/><path class="cls-9" d="M222.1,116.61h-1.35l-2.65-2.88h0v2.88h-1v-8.88h1v5.63h0l2.52-2.75h1.26l-2.78,2.9Z"/><path class="cls-9" d="M227.88,113.85h-4.24a2.28,2.28,0,0,0,.54,1.55,1.88,1.88,0,0,0,1.42.54,2.94,2.94,0,0,0,1.86-.66v.9a3.47,3.47,0,0,1-2.09.57,2.56,2.56,0,0,1-2-.81,3.39,3.39,0,0,1-.72-2.3,3.29,3.29,0,0,1,.79-2.29,2.58,2.58,0,0,1,2-.88,2.29,2.29,0,0,1,1.83.76,3.19,3.19,0,0,1,.64,2.12Zm-1-.81a2,2,0,0,0-.41-1.3,1.35,1.35,0,0,0-1.09-.46,1.54,1.54,0,0,0-1.16.49,2.12,2.12,0,0,0-.58,1.27Z"/><path class="cls-9" d="M234.29,116.61h-1v-3.42c0-1.27-.47-1.91-1.4-1.91a1.52,1.52,0,0,0-1.19.54,2,2,0,0,0-.47,1.37v3.42h-1v-6h1v1h0a2.17,2.17,0,0,1,2-1.14,1.83,1.83,0,0,1,1.51.64,2.79,2.79,0,0,1,.52,1.83Z"/><path class="cls-9" d="M244.46,116.61h-1v-1h0a2.22,2.22,0,0,1-2.07,1.16,2.25,2.25,0,0,1-1.8-.8,3.27,3.27,0,0,1-.68-2.2,3.59,3.59,0,0,1,.75-2.38,2.46,2.46,0,0,1,2-.9,2,2,0,0,1,1.8,1h0v-3.71h1Zm-1-2.71V113a1.73,1.73,0,0,0-.48-1.23,1.64,1.64,0,0,0-1.22-.5,1.66,1.66,0,0,0-1.38.64,2.82,2.82,0,0,0-.51,1.79,2.48,2.48,0,0,0,.49,1.63,1.57,1.57,0,0,0,1.29.6,1.65,1.65,0,0,0,1.31-.58A2.16,2.16,0,0,0,243.5,113.9Z"/><path class="cls-9" d="M251.2,113.85H247a2.19,2.19,0,0,0,.54,1.55,1.85,1.85,0,0,0,1.41.54,3,3,0,0,0,1.87-.66v.9a3.52,3.52,0,0,1-2.09.57,2.54,2.54,0,0,1-2-.81,3.85,3.85,0,0,1,.06-4.59,2.58,2.58,0,0,1,2-.88,2.28,2.28,0,0,1,1.82.76,3.19,3.19,0,0,1,.64,2.12Zm-1-.81a2,2,0,0,0-.4-1.3,1.37,1.37,0,0,0-1.1-.46,1.56,1.56,0,0,0-1.16.49A2.18,2.18,0,0,0,247,113Z"/><path class="cls-9" d="M260.19,116.61h-1v-.94h0a2,2,0,0,1-1.85,1.08,2,2,0,0,1-1.4-.47,1.65,1.65,0,0,1-.51-1.26c0-1.12.66-1.77,2-2l1.8-.25c0-1-.41-1.53-1.24-1.53A3,3,0,0,0,256,112v-1a3.76,3.76,0,0,1,2-.56c1.41,0,2.11.75,2.11,2.24Zm-1-3-1.45.2a2.35,2.35,0,0,0-1,.33,1,1,0,0,0-.34.84.93.93,0,0,0,.32.72,1.24,1.24,0,0,0,.83.27,1.51,1.51,0,0,0,1.18-.5,1.78,1.78,0,0,0,.47-1.27Z"/><path class="cls-9" d="M266.07,116.34a3.19,3.19,0,0,1-1.64.41,2.76,2.76,0,0,1-2.08-.83,3.06,3.06,0,0,1-.78-2.17,3.3,3.3,0,0,1,.85-2.38,3,3,0,0,1,2.26-.9,3.24,3.24,0,0,1,1.4.29v1a2.47,2.47,0,0,0-1.43-.47,1.93,1.93,0,0,0-1.51.66,2.52,2.52,0,0,0-.59,1.73,2.41,2.41,0,0,0,.55,1.66,1.91,1.91,0,0,0,1.49.61,2.41,2.41,0,0,0,1.48-.52Z"/><path class="cls-9" d="M271.59,116.34a3.19,3.19,0,0,1-1.64.41,2.76,2.76,0,0,1-2.08-.83,3.06,3.06,0,0,1-.78-2.17,3.3,3.3,0,0,1,.85-2.38,3,3,0,0,1,2.26-.9,3.24,3.24,0,0,1,1.4.29v1a2.47,2.47,0,0,0-1.43-.47,1.92,1.92,0,0,0-1.51.66,2.52,2.52,0,0,0-.59,1.73,2.36,2.36,0,0,0,.55,1.66,1.91,1.91,0,0,0,1.49.61,2.41,2.41,0,0,0,1.48-.52Z"/><path class="cls-9" d="M277.84,113.85H273.6a2.28,2.28,0,0,0,.54,1.55,1.87,1.87,0,0,0,1.42.54,3,3,0,0,0,1.86-.66v.9a3.5,3.5,0,0,1-2.09.57,2.56,2.56,0,0,1-2-.81,3.39,3.39,0,0,1-.73-2.3,3.29,3.29,0,0,1,.8-2.29,2.56,2.56,0,0,1,2-.88,2.27,2.27,0,0,1,1.82.76,3.2,3.2,0,0,1,.65,2.12Zm-1-.81a2,2,0,0,0-.4-1.3,1.36,1.36,0,0,0-1.1-.46,1.52,1.52,0,0,0-1.15.49,2.19,2.19,0,0,0-.59,1.27Z"/><path class="cls-9" d="M278.9,116.4v-1a2.84,2.84,0,0,0,1.73.58c.85,0,1.27-.28,1.27-.84a.76.76,0,0,0-.11-.41,1,1,0,0,0-.29-.29,1.83,1.83,0,0,0-.44-.23l-.53-.22a5.16,5.16,0,0,1-.7-.32,2.21,2.21,0,0,1-.51-.36,1.52,1.52,0,0,1-.3-.46,1.57,1.57,0,0,1-.1-.6,1.42,1.42,0,0,1,.19-.75,1.78,1.78,0,0,1,.51-.55,2.77,2.77,0,0,1,.74-.33,3.41,3.41,0,0,1,.85-.11,3.46,3.46,0,0,1,1.4.27v1a2.71,2.71,0,0,0-1.53-.43,1.75,1.75,0,0,0-.48.06,1.33,1.33,0,0,0-.38.17,1,1,0,0,0-.24.27.77.77,0,0,0-.08.34,1,1,0,0,0,.08.4.94.94,0,0,0,.25.28,2.48,2.48,0,0,0,.4.22l.54.22a6.85,6.85,0,0,1,.71.31,2.82,2.82,0,0,1,.54.36,1.41,1.41,0,0,1,.34.47,1.51,1.51,0,0,1,.12.63,1.49,1.49,0,0,1-.19.77,1.85,1.85,0,0,1-.53.55,2.54,2.54,0,0,1-.75.32,3.82,3.82,0,0,1-.9.1A3.54,3.54,0,0,1,278.9,116.4Z"/><path class="cls-9" d="M286.84,116.75a2.79,2.79,0,0,1-2.12-.84,3.11,3.11,0,0,1-.8-2.23,3.25,3.25,0,0,1,.83-2.36,3,3,0,0,1,2.23-.85,2.7,2.7,0,0,1,2.1.83,3.27,3.27,0,0,1,.75,2.29,3.23,3.23,0,0,1-.81,2.3A2.87,2.87,0,0,1,286.84,116.75Zm.07-5.47a1.81,1.81,0,0,0-1.46.63,2.59,2.59,0,0,0-.54,1.74,2.46,2.46,0,0,0,.54,1.68,1.86,1.86,0,0,0,1.46.61,1.75,1.75,0,0,0,1.43-.6,2.58,2.58,0,0,0,.51-1.72,2.63,2.63,0,0,0-.51-1.73A1.73,1.73,0,0,0,286.91,111.28Z"/><path class="cls-9" d="M299.38,110.61l-2.76,7c-.49,1.25-1.18,1.87-2.07,1.87a2.25,2.25,0,0,1-.63-.08v-.86a1.8,1.8,0,0,0,.57.1,1.18,1.18,0,0,0,1.09-.86l.48-1.14-2.35-6h1.07l1.62,4.62c0,.06.06.21.13.46h0q0-.15.12-.45l1.7-4.63Z"/><path class="cls-9" d="M211.29,126.21q0,3.54-3.19,3.54t-3.06-3.4v-5.14h1v5.07c0,1.73.72,2.59,2.18,2.59s2.1-.83,2.1-2.5v-5.16h1Z"/><path class="cls-9" d="M219.39,129.61h-1.17l-1.41-2.35a5,5,0,0,0-.37-.56,2.24,2.24,0,0,0-.37-.38,1.23,1.23,0,0,0-.41-.21,1.59,1.59,0,0,0-.5-.07h-.81v3.57h-1v-8.4h2.51a3.62,3.62,0,0,1,1,.14,2.23,2.23,0,0,1,.81.42,1.88,1.88,0,0,1,.54.7,2.58,2.58,0,0,1,.06,1.78,2.15,2.15,0,0,1-.38.66,2.32,2.32,0,0,1-.58.49,3.1,3.1,0,0,1-.77.31v0a2,2,0,0,1,.36.22,2,2,0,0,1,.3.28,4,4,0,0,1,.28.37c.09.14.19.3.3.49Zm-5-7.51v3.05h1.34a2.15,2.15,0,0,0,.68-.11,1.61,1.61,0,0,0,.54-.32,1.57,1.57,0,0,0,.36-.51,1.65,1.65,0,0,0,.13-.68,1.32,1.32,0,0,0-.44-1,1.88,1.88,0,0,0-1.26-.38Z"/><path class="cls-9" d="M224.88,129.61h-4.36v-8.4h1v7.51h3.37Z"/><path class="cls-9" d="M234.4,129.61h-1v-1h0a2.22,2.22,0,0,1-2.07,1.16,2.25,2.25,0,0,1-1.8-.8,3.27,3.27,0,0,1-.68-2.2,3.59,3.59,0,0,1,.75-2.38,2.48,2.48,0,0,1,2-.9,2,2,0,0,1,1.8,1h0v-3.71h1Zm-1-2.71V126a1.73,1.73,0,0,0-.48-1.23,1.64,1.64,0,0,0-1.22-.5,1.66,1.66,0,0,0-1.38.64,2.82,2.82,0,0,0-.51,1.79,2.48,2.48,0,0,0,.49,1.63,1.57,1.57,0,0,0,1.29.6,1.65,1.65,0,0,0,1.31-.58A2.16,2.16,0,0,0,233.44,126.9Z"/><path class="cls-9" d="M241.14,126.85h-4.23a2.19,2.19,0,0,0,.54,1.55,1.85,1.85,0,0,0,1.41.54,3,3,0,0,0,1.87-.66v.9a3.52,3.52,0,0,1-2.09.57,2.54,2.54,0,0,1-2-.81,3.34,3.34,0,0,1-.73-2.3,3.29,3.29,0,0,1,.8-2.29,2.55,2.55,0,0,1,2-.88,2.28,2.28,0,0,1,1.82.76,3.19,3.19,0,0,1,.64,2.12Zm-1-.81a2,2,0,0,0-.4-1.3,1.37,1.37,0,0,0-1.1-.46,1.52,1.52,0,0,0-1.15.49,2.13,2.13,0,0,0-.59,1.27Z"/><path class="cls-9" d="M249,124.58a1.21,1.21,0,0,0-.72-.19,1.23,1.23,0,0,0-1,.58,2.67,2.67,0,0,0-.41,1.58v3.06h-1v-6h1v1.24h0a2.17,2.17,0,0,1,.63-1,1.61,1.61,0,0,1,1.51-.27Z"/><path class="cls-9" d="M254.81,126.85h-4.24a2.28,2.28,0,0,0,.54,1.55,1.87,1.87,0,0,0,1.42.54,3,3,0,0,0,1.86-.66v.9a3.5,3.5,0,0,1-2.09.57,2.56,2.56,0,0,1-2-.81,3.39,3.39,0,0,1-.73-2.3,3.29,3.29,0,0,1,.8-2.29,2.56,2.56,0,0,1,2-.88,2.27,2.27,0,0,1,1.82.76,3.2,3.2,0,0,1,.65,2.12Zm-1-.81a2,2,0,0,0-.4-1.3,1.36,1.36,0,0,0-1.1-.46,1.52,1.52,0,0,0-1.15.49,2.19,2.19,0,0,0-.59,1.27Z"/><path class="cls-9" d="M261.36,129.61h-1v-1h0a2.2,2.2,0,0,1-2.06,1.16,2.27,2.27,0,0,1-1.81-.8,3.32,3.32,0,0,1-.67-2.2,3.59,3.59,0,0,1,.75-2.38,2.46,2.46,0,0,1,2-.9,1.93,1.93,0,0,1,1.8,1h0v-3.71h1Zm-1-2.71V126a1.73,1.73,0,0,0-.48-1.23,1.65,1.65,0,0,0-1.22-.5,1.7,1.7,0,0,0-1.39.64,2.88,2.88,0,0,0-.5,1.79,2.53,2.53,0,0,0,.48,1.63,1.73,1.73,0,0,0,2.6,0A2.11,2.11,0,0,0,260.4,126.9Z"/><path class="cls-9" d="M263.77,122.09a.6.6,0,0,1-.44-.18.57.57,0,0,1-.18-.44.61.61,0,0,1,.18-.45.6.6,0,0,1,.44-.18.63.63,0,0,1,.45.18.61.61,0,0,1,.18.45.6.6,0,0,1-.18.44A.63.63,0,0,1,263.77,122.09Zm.47,7.52h-1v-6h1Z"/><path class="cls-9" d="M269.29,124.58a1.25,1.25,0,0,0-.73-.19,1.23,1.23,0,0,0-1,.58,2.74,2.74,0,0,0-.41,1.58v3.06h-1v-6h1v1.24h0a2.17,2.17,0,0,1,.63-1,1.46,1.46,0,0,1,.94-.35,1.49,1.49,0,0,1,.58.08Z"/><path class="cls-9" d="M275.13,126.85h-4.24a2.28,2.28,0,0,0,.54,1.55,1.88,1.88,0,0,0,1.42.54,2.94,2.94,0,0,0,1.86-.66v.9a3.47,3.47,0,0,1-2.09.57,2.56,2.56,0,0,1-2-.81,3.39,3.39,0,0,1-.72-2.3,3.29,3.29,0,0,1,.79-2.29,2.58,2.58,0,0,1,2-.88,2.29,2.29,0,0,1,1.83.76,3.19,3.19,0,0,1,.64,2.12Zm-1-.81a2,2,0,0,0-.41-1.3,1.35,1.35,0,0,0-1.09-.46,1.54,1.54,0,0,0-1.16.49,2.12,2.12,0,0,0-.58,1.27Z"/><path class="cls-9" d="M280.65,129.34a3.19,3.19,0,0,1-1.64.41,2.72,2.72,0,0,1-2.07-.83,3,3,0,0,1-.79-2.17,3.3,3.3,0,0,1,.85-2.38,3,3,0,0,1,2.27-.9,3.23,3.23,0,0,1,1.39.29v1a2.45,2.45,0,0,0-1.43-.47,2,2,0,0,0-1.51.66,2.52,2.52,0,0,0-.59,1.73,2.36,2.36,0,0,0,.56,1.66,1.89,1.89,0,0,0,1.48.61,2.39,2.39,0,0,0,1.48-.52Z"/><path class="cls-9" d="M286.17,129.34a3.19,3.19,0,0,1-1.64.41,2.72,2.72,0,0,1-2.07-.83,3,3,0,0,1-.79-2.17,3.3,3.3,0,0,1,.85-2.38,3,3,0,0,1,2.27-.9,3.23,3.23,0,0,1,1.39.29v1a2.47,2.47,0,0,0-1.43-.47,1.93,1.93,0,0,0-1.51.66,2.52,2.52,0,0,0-.59,1.73,2.36,2.36,0,0,0,.56,1.66,1.89,1.89,0,0,0,1.48.61,2.41,2.41,0,0,0,1.48-.52Z"/><path class="cls-9" d="M288.09,122.09a.6.6,0,0,1-.44-.18.57.57,0,0,1-.18-.44.61.61,0,0,1,.18-.45.6.6,0,0,1,.44-.18.62.62,0,0,1,.63.63.6.6,0,0,1-.18.44A.61.61,0,0,1,288.09,122.09Zm.47,7.52h-1v-6h1Z"/><path class="cls-9" d="M293,129.75a2.79,2.79,0,0,1-2.13-.84,3.1,3.1,0,0,1-.79-2.23,3.21,3.21,0,0,1,.83-2.36,3,3,0,0,1,2.23-.85,2.69,2.69,0,0,1,2.09.83,3.28,3.28,0,0,1,.76,2.29,3.19,3.19,0,0,1-.82,2.3A2.85,2.85,0,0,1,293,129.75Zm.07-5.47a1.84,1.84,0,0,0-1.47.63,2.59,2.59,0,0,0-.54,1.74,2.46,2.46,0,0,0,.55,1.68,1.85,1.85,0,0,0,1.46.61,1.75,1.75,0,0,0,1.43-.6,2.63,2.63,0,0,0,.5-1.72,2.68,2.68,0,0,0-.5-1.73A1.73,1.73,0,0,0,293.06,124.28Z"/><path class="cls-9" d="M302.47,129.61h-1v-3.42c0-1.27-.47-1.91-1.4-1.91a1.5,1.5,0,0,0-1.19.54,2,2,0,0,0-.47,1.37v3.42h-1v-6h1v1h0a2.16,2.16,0,0,1,2-1.14,1.83,1.83,0,0,1,1.51.64,2.85,2.85,0,0,1,.52,1.83Z"/><path class="cls-9" d="M308.55,129.61h-1v-.94h0a2,2,0,0,1-1.84,1.08,2,2,0,0,1-1.4-.47,1.65,1.65,0,0,1-.51-1.26c0-1.12.66-1.77,2-2l1.8-.25c0-1-.41-1.53-1.24-1.53a3,3,0,0,0-2,.74v-1a3.76,3.76,0,0,1,2-.56c1.41,0,2.12.75,2.12,2.24Zm-1-3-1.45.2a2.35,2.35,0,0,0-1,.33,1,1,0,0,0-.34.84.93.93,0,0,0,.32.72,1.22,1.22,0,0,0,.83.27,1.51,1.51,0,0,0,1.18-.5,1.78,1.78,0,0,0,.47-1.27Z"/><path class="cls-9" d="M318.85,129.61h-1v-3.44a2.62,2.62,0,0,0-.3-1.44,1.17,1.17,0,0,0-1-.45,1.27,1.27,0,0,0-1,.56,2.16,2.16,0,0,0-.43,1.35v3.42h-1v-3.56c0-1.18-.45-1.77-1.36-1.77a1.27,1.27,0,0,0-1,.53,2.14,2.14,0,0,0-.41,1.38v3.42h-1v-6h1v1h0a2,2,0,0,1,1.86-1.09,1.77,1.77,0,0,1,1.07.34,1.69,1.69,0,0,1,.63.9,2.16,2.16,0,0,1,2-1.24c1.32,0,2,.82,2,2.45Z"/><path class="cls-9" d="M321.14,122.09a.6.6,0,0,1-.44-.18.57.57,0,0,1-.18-.44.61.61,0,0,1,.18-.45.6.6,0,0,1,.44-.18.63.63,0,0,1,.45.18.61.61,0,0,1,.18.45.6.6,0,0,1-.18.44A.63.63,0,0,1,321.14,122.09Zm.47,7.52h-1v-6h1Z"/><path class="cls-9" d="M328.35,126.85h-4.23a2.23,2.23,0,0,0,.53,1.55,1.88,1.88,0,0,0,1.42.54,3,3,0,0,0,1.87-.66v.9a3.53,3.53,0,0,1-2.1.57,2.53,2.53,0,0,1-2-.81,3.34,3.34,0,0,1-.73-2.3,3.29,3.29,0,0,1,.79-2.29,2.58,2.58,0,0,1,2-.88,2.29,2.29,0,0,1,1.83.76,3.19,3.19,0,0,1,.64,2.12Zm-1-.81a2,2,0,0,0-.4-1.3,1.37,1.37,0,0,0-1.1-.46,1.54,1.54,0,0,0-1.16.49,2.18,2.18,0,0,0-.58,1.27Z"/><path class="cls-9" d="M334.76,129.61h-1v-3.42c0-1.27-.46-1.91-1.39-1.91a1.54,1.54,0,0,0-1.2.54,2,2,0,0,0-.47,1.37v3.42h-1v-6h1v1h0a2.16,2.16,0,0,1,2-1.14,1.83,1.83,0,0,1,1.51.64,2.79,2.79,0,0,1,.52,1.83Z"/><path class="cls-9" d="M339.33,129.55a1.8,1.8,0,0,1-.9.19c-1.05,0-1.57-.58-1.57-1.76v-3.55h-1v-.82h1v-1.46l1-.31v1.77h1.51v.82h-1.51v3.38a1.43,1.43,0,0,0,.2.86.81.81,0,0,0,.68.26,1,1,0,0,0,.63-.2Z"/><path class="cls-9" d="M343.1,129.75a2.79,2.79,0,0,1-2.13-.84,3.1,3.1,0,0,1-.79-2.23,3.25,3.25,0,0,1,.83-2.36,3,3,0,0,1,2.23-.85,2.69,2.69,0,0,1,2.09.83,3.28,3.28,0,0,1,.76,2.29,3.19,3.19,0,0,1-.82,2.3A2.85,2.85,0,0,1,343.1,129.75Zm.07-5.47a1.84,1.84,0,0,0-1.47.63,2.59,2.59,0,0,0-.54,1.74,2.46,2.46,0,0,0,.55,1.68,1.85,1.85,0,0,0,1.46.61,1.75,1.75,0,0,0,1.43-.6,2.63,2.63,0,0,0,.5-1.72,2.68,2.68,0,0,0-.5-1.73A1.73,1.73,0,0,0,343.17,124.28Z"/><path class="cls-10" d="M393.94,92.94v2.89h-1.89v-8.4h3c2.11,0,3.17.89,3.17,2.68a2.58,2.58,0,0,1-.91,2,3.62,3.62,0,0,1-2.43.78Zm0-4.06V91.5h.75c1,0,1.51-.44,1.51-1.32s-.5-1.3-1.51-1.3Z"/><path class="cls-10" d="M401.09,95.83h-1.85V87h1.85Z"/><path class="cls-10" d="M407.64,95.83h-1.75V95h0a2,2,0,0,1-1.79,1,1.86,1.86,0,0,1-1.37-.5,1.75,1.75,0,0,1-.5-1.32c0-1.16.68-1.83,2.06-2l1.63-.22c0-.66-.35-1-1.06-1a3.65,3.65,0,0,0-2,.63V90.19a4.57,4.57,0,0,1,1.05-.35,5.71,5.71,0,0,1,1.23-.15,2.26,2.26,0,0,1,2.56,2.56ZM405.9,93.4V93l-1.09.14c-.6.08-.9.35-.9.82a.64.64,0,0,0,.22.51.82.82,0,0,0,.59.21,1.08,1.08,0,0,0,.85-.36A1.31,1.31,0,0,0,405.9,93.4Z"/><path class="cls-10" d="M412.73,95.76a2.62,2.62,0,0,1-1.23.22,1.76,1.76,0,0,1-2-2V91.2h-1V89.83h1V88.54l1.85-.53v1.82h1.34V91.2h-1.34v2.42c0,.63.24.94.74.94a1.24,1.24,0,0,0,.6-.17Z"/><path class="cls-10" d="M418.77,95.83H417V95h0a2,2,0,0,1-1.78,1,1.9,1.9,0,0,1-1.38-.5,1.79,1.79,0,0,1-.5-1.32q0-1.74,2.07-2l1.63-.22c0-.66-.36-1-1.07-1a3.7,3.7,0,0,0-2,.63V90.19a4.67,4.67,0,0,1,1.06-.35,5.7,5.7,0,0,1,1.22-.15,2.27,2.27,0,0,1,2.57,2.56ZM417,93.4V93l-1.09.14c-.6.08-.9.35-.9.82a.64.64,0,0,0,.22.51.8.8,0,0,0,.59.21,1.1,1.1,0,0,0,.85-.36A1.31,1.31,0,0,0,417,93.4Z"/><path class="cls-10" d="M424.15,88.37a1.77,1.77,0,0,0-.69-.14c-.59,0-.89.32-.89,1v.64h1.37V91.2h-1.37v4.63h-1.84V91.2h-1V89.83h1v-.74a2.16,2.16,0,0,1,.66-1.65,2.57,2.57,0,0,1,1.82-.63,3.11,3.11,0,0,1,.94.12Z"/><path class="cls-10" d="M427.69,96a3.24,3.24,0,0,1-2.36-.84,3,3,0,0,1-.85-2.28,3,3,0,0,1,.89-2.33,3.35,3.35,0,0,1,2.41-.84,3.19,3.19,0,0,1,2.34.84,3,3,0,0,1,.85,2.22,3.15,3.15,0,0,1-.88,2.36A3.24,3.24,0,0,1,427.69,96Zm.05-4.88a1.21,1.21,0,0,0-1,.46,2,2,0,0,0-.36,1.27c0,1.16.46,1.73,1.39,1.73s1.33-.59,1.33-1.77S428.63,91.1,427.74,91.1Z"/><path class="cls-10" d="M436.08,91.5a1.61,1.61,0,0,0-.78-.18,1.14,1.14,0,0,0-.94.44A1.93,1.93,0,0,0,434,93v2.86h-1.85v-6H434V91h0a1.61,1.61,0,0,1,1.59-1.22,1.12,1.12,0,0,1,.45.07Z"/><path class="cls-10" d="M446.51,95.83h-1.85V92.41c0-.87-.32-1.31-1-1.31a.89.89,0,0,0-.74.4,1.61,1.61,0,0,0-.29,1v3.35h-1.85V92.38c0-.85-.32-1.28-.94-1.28a.91.91,0,0,0-.76.38,1.65,1.65,0,0,0-.29,1v3.33H437v-6h1.85v.94h0a2.25,2.25,0,0,1,1.93-1.08,1.74,1.74,0,0,1,1.75,1.12,2.19,2.19,0,0,1,2-1.12c1.31,0,2,.8,2,2.41Z"/><path class="cls-10" d="M453,95.83h-1.75V95h0a2,2,0,0,1-1.79,1,1.86,1.86,0,0,1-1.37-.5,1.75,1.75,0,0,1-.5-1.32q0-1.74,2.07-2l1.62-.22c0-.66-.35-1-1.06-1a3.65,3.65,0,0,0-2,.63V90.19a4.67,4.67,0,0,1,1.06-.35,5.56,5.56,0,0,1,1.22-.15A2.26,2.26,0,0,1,453,92.25Zm-1.74-2.43V93l-1.09.14c-.6.08-.9.35-.9.82a.67.67,0,0,0,.22.51.84.84,0,0,0,.6.21,1.11,1.11,0,0,0,.85-.36A1.3,1.3,0,0,0,451.22,93.4Z"/><path class="cls-10" d="M393.41,110.83h-1.85V110h0a2.09,2.09,0,0,1-1.86,1,2.29,2.29,0,0,1-1.81-.79,3.28,3.28,0,0,1-.69-2.22,3.57,3.57,0,0,1,.76-2.39,2.47,2.47,0,0,1,2-.89,1.69,1.69,0,0,1,1.62.83h0V102h1.85Zm-1.82-2.91v-.46a1.4,1.4,0,0,0-.34-1,1.1,1.1,0,0,0-.88-.39,1.12,1.12,0,0,0-1,.49,2.24,2.24,0,0,0-.35,1.33,1.87,1.87,0,0,0,.34,1.21,1.09,1.09,0,0,0,.92.43,1.12,1.12,0,0,0,.92-.45A1.85,1.85,0,0,0,391.59,107.92Z"/><path class="cls-10" d="M400.36,108.36h-3.91c.06.87.61,1.31,1.64,1.31a3.24,3.24,0,0,0,1.74-.47v1.33a4.5,4.5,0,0,1-2.16.45,2.79,2.79,0,0,1-3.06-3,3.2,3.2,0,0,1,.87-2.37,2.9,2.9,0,0,1,2.13-.87,2.62,2.62,0,0,1,2,.78,3,3,0,0,1,.72,2.11Zm-1.72-1.14c0-.86-.35-1.29-1-1.29a1,1,0,0,0-.77.37,1.72,1.72,0,0,0-.4.92Z"/><path class="cls-10" d="M405.71,103.88a1.11,1.11,0,0,1-.77-.27.92.92,0,0,1-.3-.69.88.88,0,0,1,.3-.68,1.16,1.16,0,0,1,.77-.26,1.14,1.14,0,0,1,.77.26.93.93,0,0,1,0,1.37A1.1,1.1,0,0,1,405.71,103.88Zm.91,7h-1.85v-6h1.85Z"/><path class="cls-10" d="M414.05,110.83H412.2V110h0a2.07,2.07,0,0,1-1.86,1,2.3,2.3,0,0,1-1.81-.79,3.28,3.28,0,0,1-.69-2.22,3.62,3.62,0,0,1,.76-2.39,2.47,2.47,0,0,1,2-.89,1.69,1.69,0,0,1,1.62.83h0V102h1.85Zm-1.81-2.91v-.46a1.45,1.45,0,0,0-.34-1,1.2,1.2,0,0,0-1.85.1,2.24,2.24,0,0,0-.34,1.33,1.94,1.94,0,0,0,.33,1.21,1.09,1.09,0,0,0,.92.43,1.11,1.11,0,0,0,.92-.45A1.86,1.86,0,0,0,412.24,107.92Z"/><path class="cls-10" d="M421,108.36h-3.91c.06.87.61,1.31,1.64,1.31a3.24,3.24,0,0,0,1.74-.47v1.33a4.5,4.5,0,0,1-2.16.45,2.81,2.81,0,0,1-3.06-3,3.2,3.2,0,0,1,.87-2.37,2.9,2.9,0,0,1,2.13-.87,2.6,2.6,0,0,1,2,.78,3,3,0,0,1,.72,2.11Zm-1.71-1.14q0-1.29-1.05-1.29a1,1,0,0,0-.77.37,1.63,1.63,0,0,0-.39.92Z"/><path class="cls-10" d="M427.9,110.83h-1.85V107.5c0-.93-.33-1.4-1-1.4a1,1,0,0,0-.79.37,1.4,1.4,0,0,0-.31.94v3.42H422.1v-6H424v1h0a2.11,2.11,0,0,1,1.93-1.09c1.32,0,2,.82,2,2.47Z"/><path class="cls-10" d="M433,110.76a2.67,2.67,0,0,1-1.24.22c-1.3,0-1.95-.68-1.95-2V106.2h-1v-1.37h1v-1.29l1.84-.53v1.82H433v1.37h-1.35v2.42c0,.63.25.94.75.94a1.31,1.31,0,0,0,.6-.17Z"/><path class="cls-10" d="M435,103.88a1.11,1.11,0,0,1-.77-.27.92.92,0,0,1-.3-.69.88.88,0,0,1,.3-.68A1.16,1.16,0,0,1,435,102a1.14,1.14,0,0,1,.77.26.93.93,0,0,1,0,1.37A1.1,1.1,0,0,1,435,103.88Zm.91,7H434v-6h1.85Z"/><path class="cls-10" d="M443.31,110.83h-1.85V110h0a2.07,2.07,0,0,1-1.86,1,2.3,2.3,0,0,1-1.81-.79,3.28,3.28,0,0,1-.68-2.22,3.62,3.62,0,0,1,.75-2.39,2.5,2.5,0,0,1,2-.89,1.68,1.68,0,0,1,1.62.83h0V102h1.85Zm-1.81-2.91v-.46a1.45,1.45,0,0,0-.34-1,1.2,1.2,0,0,0-1.85.1,2.24,2.24,0,0,0-.34,1.33,1.94,1.94,0,0,0,.33,1.21,1.18,1.18,0,0,0,1.84,0A1.86,1.86,0,0,0,441.5,107.92Z"/><path class="cls-10" d="M449.87,110.83h-1.76V110h0a2,2,0,0,1-1.79,1,1.86,1.86,0,0,1-1.37-.5,1.75,1.75,0,0,1-.5-1.32q0-1.74,2.07-2l1.63-.22c0-.66-.36-1-1.07-1a3.65,3.65,0,0,0-2,.63v-1.39a4.67,4.67,0,0,1,1.06-.35,5.56,5.56,0,0,1,1.22-.15,2.27,2.27,0,0,1,2.57,2.56Zm-1.74-2.43V108l-1.09.14c-.61.08-.91.35-.91.82a.67.67,0,0,0,.22.51.84.84,0,0,0,.6.21,1.11,1.11,0,0,0,.85-.36A1.31,1.31,0,0,0,448.13,108.4Z"/><path class="cls-10" d="M457.2,110.83h-1.85V110h0a2.08,2.08,0,0,1-1.86,1,2.3,2.3,0,0,1-1.81-.79A3.28,3.28,0,0,1,451,108a3.57,3.57,0,0,1,.76-2.39,2.47,2.47,0,0,1,2-.89,1.69,1.69,0,0,1,1.62.83h0V102h1.85Zm-1.82-2.91v-.46a1.4,1.4,0,0,0-.34-1,1.1,1.1,0,0,0-.88-.39,1.12,1.12,0,0,0-1,.49,2.24,2.24,0,0,0-.35,1.33,1.87,1.87,0,0,0,.34,1.21,1.09,1.09,0,0,0,.92.43,1.12,1.12,0,0,0,.92-.45A1.85,1.85,0,0,0,455.38,107.92Z"/><path class="cls-10" d="M393.08,125.83h-1.85V125h0a2.06,2.06,0,0,1-1.85,1,2.29,2.29,0,0,1-1.81-.79,3.28,3.28,0,0,1-.69-2.22,3.57,3.57,0,0,1,.76-2.39,2.47,2.47,0,0,1,2-.89,1.66,1.66,0,0,1,1.61.83h0V117h1.85Zm-1.82-2.91v-.46a1.4,1.4,0,0,0-.34-1,1.1,1.1,0,0,0-.88-.39,1.12,1.12,0,0,0-1,.49,2.24,2.24,0,0,0-.35,1.33,1.87,1.87,0,0,0,.34,1.21,1.09,1.09,0,0,0,.92.43,1.12,1.12,0,0,0,.92-.45A1.91,1.91,0,0,0,391.26,122.92Z"/><path class="cls-10" d="M400,123.36h-3.92c.07.87.62,1.31,1.65,1.31a3.24,3.24,0,0,0,1.74-.47v1.33a4.5,4.5,0,0,1-2.16.45,2.79,2.79,0,0,1-3.06-3,3.2,3.2,0,0,1,.87-2.37,2.9,2.9,0,0,1,2.13-.87,2.62,2.62,0,0,1,2,.78,3,3,0,0,1,.72,2.11Zm-1.72-1.14c0-.86-.35-1.29-1-1.29a1,1,0,0,0-.77.37,1.72,1.72,0,0,0-.4.92Z"/><path class="cls-10" d="M414.2,125.83h-1.87v-5c0-.55,0-1.15.07-1.8h0a9.45,9.45,0,0,1-.26,1.11l-2,5.71h-1.55l-2-5.65a8.85,8.85,0,0,1-.27-1.17h-.05c.05.82.08,1.55.08,2.18v4.64h-1.71v-8.4h2.77l1.72,5a6.58,6.58,0,0,1,.3,1.2h0a12.46,12.46,0,0,1,.34-1.21l1.72-5h2.7Z"/><path class="cls-10" d="M416.86,118.88a1.11,1.11,0,0,1-.77-.27.94.94,0,0,1-.29-.69.91.91,0,0,1,.29-.68,1.16,1.16,0,0,1,.77-.26,1.12,1.12,0,0,1,.77.26.93.93,0,0,1,0,1.37A1.08,1.08,0,0,1,416.86,118.88Zm.92,7h-1.86v-6h1.86Z"/><path class="cls-10" d="M423.88,125.62a3.69,3.69,0,0,1-1.81.36,3.06,3.06,0,0,1-2.24-.84A2.89,2.89,0,0,1,419,123a3.19,3.19,0,0,1,.91-2.41,3.4,3.4,0,0,1,2.46-.88,3.1,3.1,0,0,1,1.53.28v1.57a2.1,2.1,0,0,0-1.29-.44,1.61,1.61,0,0,0-1.73,1.76,1.75,1.75,0,0,0,.44,1.25,1.66,1.66,0,0,0,1.23.45,2.42,2.42,0,0,0,1.35-.43Z"/><path class="cls-10" d="M429,121.5a1.61,1.61,0,0,0-.78-.18,1.12,1.12,0,0,0-.94.44A1.93,1.93,0,0,0,427,123v2.86h-1.86v-6H427V121h0a1.59,1.59,0,0,1,1.58-1.22,1.14,1.14,0,0,1,.46.07Z"/><path class="cls-10" d="M432.68,126a3.24,3.24,0,0,1-2.36-.84,3,3,0,0,1-.85-2.28,3,3,0,0,1,.89-2.33,3.34,3.34,0,0,1,2.4-.84,3.2,3.2,0,0,1,2.35.84,3,3,0,0,1,.85,2.22,3.15,3.15,0,0,1-.88,2.36A3.24,3.24,0,0,1,432.68,126Zm.05-4.88a1.21,1.21,0,0,0-1,.46,2,2,0,0,0-.36,1.27c0,1.16.46,1.73,1.39,1.73s1.33-.59,1.33-1.77S433.62,121.1,432.73,121.1Z"/><path class="cls-10" d="M436.77,125.67v-1.5a3.33,3.33,0,0,0,.91.41,3,3,0,0,0,.86.14,1.83,1.83,0,0,0,.77-.14.43.43,0,0,0,.29-.41.41.41,0,0,0-.13-.29,1.32,1.32,0,0,0-.33-.2,4.72,4.72,0,0,0-.45-.16l-.46-.16a4.68,4.68,0,0,1-.63-.29,1.84,1.84,0,0,1-.46-.36,1.58,1.58,0,0,1-.28-.47,2.06,2.06,0,0,1-.09-.64,1.61,1.61,0,0,1,.22-.87,1.84,1.84,0,0,1,.58-.6,3.15,3.15,0,0,1,.84-.34,4.46,4.46,0,0,1,1-.1,5.52,5.52,0,0,1,.81.06,5.88,5.88,0,0,1,.81.18v1.43a3,3,0,0,0-.75-.31,3.11,3.11,0,0,0-.79-.1,1.79,1.79,0,0,0-.34,0,1.1,1.1,0,0,0-.29.09.51.51,0,0,0-.19.16.34.34,0,0,0-.07.22.4.4,0,0,0,.1.28.75.75,0,0,0,.28.2,2.72,2.72,0,0,0,.38.16l.41.13a6.16,6.16,0,0,1,.67.28,2.55,2.55,0,0,1,.51.36,1.58,1.58,0,0,1,.33.48,1.9,1.9,0,0,1,.11.66,1.76,1.76,0,0,1-.23.91,1.9,1.9,0,0,1-.61.62,3.05,3.05,0,0,1-.89.34,5,5,0,0,1-1,.11A5.17,5.17,0,0,1,436.77,125.67Z"/><path class="cls-10" d="M445.3,126a3.23,3.23,0,0,1-2.36-.84,3.47,3.47,0,0,1,0-4.61,3.38,3.38,0,0,1,2.41-.84,3.16,3.16,0,0,1,2.34.84,3,3,0,0,1,.85,2.22,3.18,3.18,0,0,1-.87,2.36A3.27,3.27,0,0,1,445.3,126Zm0-4.88a1.2,1.2,0,0,0-1,.46,1.92,1.92,0,0,0-.37,1.27c0,1.16.47,1.73,1.4,1.73s1.33-.59,1.33-1.77S446.24,121.1,445.34,121.1Z"/><path class="cls-10" d="M453.51,118.37a1.77,1.77,0,0,0-.69-.14c-.59,0-.89.32-.89,1v.64h1.37v1.37h-1.37v4.63h-1.85V121.2h-1v-1.37h1v-.74a2.17,2.17,0,0,1,.67-1.65,2.55,2.55,0,0,1,1.82-.63,3.16,3.16,0,0,1,.94.12Z"/><path class="cls-10" d="M458.05,125.76a2.7,2.7,0,0,1-1.24.22,1.77,1.77,0,0,1-2-2V121.2h-1v-1.37h1v-1.29l1.85-.53v1.82h1.35v1.37H456.7v2.42c0,.63.25.94.74.94a1.31,1.31,0,0,0,.61-.17Z"/><path class="cls-8" d="M388,23.55h-2.06l-.6-1.87h-3l-.6,1.87h-2.05l3.06-8.4H385Zm-3.09-3.32-.9-2.82a3.69,3.69,0,0,1-.14-.76h-.05a3.06,3.06,0,0,1-.15.73l-.91,2.85Z"/><path class="cls-8" d="M390.75,22.86h0v3.45h-1.85V17.55h1.85v.91h0a2.36,2.36,0,0,1,3.73-.25,3.4,3.4,0,0,1,.63,2.17,3.65,3.65,0,0,1-.74,2.41,2.4,2.4,0,0,1-2,.91A1.87,1.87,0,0,1,390.75,22.86Zm-.06-2.47v.49a1.52,1.52,0,0,0,.33,1,1.08,1.08,0,0,0,.86.39,1.14,1.14,0,0,0,1-.49,2.37,2.37,0,0,0,.34-1.38q0-1.59-1.23-1.59a1.18,1.18,0,0,0-.93.43A1.73,1.73,0,0,0,390.69,20.39Z"/><path class="cls-8" d="M398.17,23.55h-1.86V14.67h1.86Z"/><path class="cls-8" d="M400.66,16.6a1.11,1.11,0,0,1-.77-.27.92.92,0,0,1-.3-.69.88.88,0,0,1,.3-.68,1.16,1.16,0,0,1,.77-.26,1.14,1.14,0,0,1,.77.26.93.93,0,0,1,0,1.37A1.1,1.1,0,0,1,400.66,16.6Zm.92,7h-1.86v-6h1.86Z"/><path class="cls-8" d="M407.68,23.34a3.69,3.69,0,0,1-1.81.36,3.06,3.06,0,0,1-2.24-.84,2.89,2.89,0,0,1-.85-2.16,3.19,3.19,0,0,1,.91-2.41,3.39,3.39,0,0,1,2.46-.88,3.12,3.12,0,0,1,1.53.28v1.57a2.12,2.12,0,0,0-1.29-.44,1.71,1.71,0,0,0-1.27.47,2,2,0,0,0,0,2.54,1.66,1.66,0,0,0,1.23.45,2.42,2.42,0,0,0,1.35-.43Z"/><path class="cls-8" d="M413.89,23.55h-1.76v-.86h0a2,2,0,0,1-1.79,1,1.86,1.86,0,0,1-1.37-.5,1.79,1.79,0,0,1-.5-1.32q0-1.74,2.07-2l1.63-.22c0-.66-.36-1-1.07-1a3.65,3.65,0,0,0-2,.63V17.91a4.67,4.67,0,0,1,1.06-.35,5.56,5.56,0,0,1,1.22-.15A2.27,2.27,0,0,1,413.89,20Zm-1.74-2.43v-.41l-1.09.14c-.61.08-.91.35-.91.82a.67.67,0,0,0,.22.51.84.84,0,0,0,.6.21,1.1,1.1,0,0,0,.85-.36A1.31,1.31,0,0,0,412.15,21.12Z"/><path class="cls-8" d="M419.9,23.34a3.69,3.69,0,0,1-1.81.36,3.06,3.06,0,0,1-2.24-.84A2.9,2.9,0,0,1,415,20.7a3.19,3.19,0,0,1,.92-2.41,3.38,3.38,0,0,1,2.45-.88,3.14,3.14,0,0,1,1.54.28v1.57a2.13,2.13,0,0,0-1.3-.44,1.71,1.71,0,0,0-1.26.47,1.75,1.75,0,0,0-.47,1.29,1.71,1.71,0,0,0,.45,1.25,1.64,1.64,0,0,0,1.22.45,2.45,2.45,0,0,0,1.36-.43Z"/><path class="cls-8" d="M422.05,16.6a1.11,1.11,0,0,1-.77-.27.92.92,0,0,1-.3-.69.88.88,0,0,1,.3-.68,1.27,1.27,0,0,1,1.54,0,1,1,0,0,1,0,1.37A1.11,1.11,0,0,1,422.05,16.6Zm.91,7h-1.85v-6H423Z"/><path class="cls-8" d="M427.38,23.7a3.23,3.23,0,0,1-2.36-.84,3.05,3.05,0,0,1-.86-2.28,3.05,3.05,0,0,1,.89-2.33,3.38,3.38,0,0,1,2.41-.84,3.2,3.2,0,0,1,2.35.84,3,3,0,0,1,.85,2.22,3.18,3.18,0,0,1-.88,2.36A3.24,3.24,0,0,1,427.38,23.7Zm.05-4.88a1.21,1.21,0,0,0-1,.46,2,2,0,0,0-.37,1.27c0,1.16.47,1.73,1.4,1.73s1.33-.59,1.33-1.77S428.32,18.82,427.43,18.82Zm2-4.11-1.83,1.89h-1.34l1.53-1.89Z"/><path class="cls-8" d="M437.65,23.55H435.8V20.22c0-.93-.33-1.4-1-1.4a1,1,0,0,0-.79.37,1.46,1.46,0,0,0-.31.94v3.42h-1.85v-6h1.85v.95h0a2.11,2.11,0,0,1,1.92-1.09c1.33,0,2,.82,2,2.47Z"/><path class="cls-8" d="M451.11,17.55l-1.73,6h-1.94L446.55,20a3.68,3.68,0,0,1-.1-.77h0a5,5,0,0,1-.12.74l-.95,3.54h-1.92l-1.69-6h1.88l.83,3.92a4.8,4.8,0,0,1,.09.66h0a3.84,3.84,0,0,1,.11-.69l1-3.89h1.76l.93,3.92a6.6,6.6,0,0,1,.08.68h0c0-.23.05-.46.09-.68l.78-3.92Z"/><path class="cls-8" d="M457.32,21.08h-3.91c.06.87.61,1.31,1.64,1.31a3.24,3.24,0,0,0,1.74-.47v1.33a4.5,4.5,0,0,1-2.16.45,2.81,2.81,0,0,1-3.06-3.05,3.2,3.2,0,0,1,.87-2.37,2.9,2.9,0,0,1,2.13-.87,2.6,2.6,0,0,1,2,.78,3,3,0,0,1,.72,2.11Zm-1.72-1.14c0-.86-.34-1.29-1-1.29a1,1,0,0,0-.77.37,1.63,1.63,0,0,0-.39.92Z"/><path class="cls-8" d="M460.3,22.86h0v.69h-1.85V14.67h1.85v3.79h0a2.19,2.19,0,0,1,1.95-1.05,2.15,2.15,0,0,1,1.79.79,3.49,3.49,0,0,1,.62,2.18,3.71,3.71,0,0,1-.73,2.41,2.38,2.38,0,0,1-2,.91A1.89,1.89,0,0,1,460.3,22.86Zm-.05-2.54v.62a1.4,1.4,0,0,0,.33,1,1.09,1.09,0,0,0,.85.38,1.14,1.14,0,0,0,1-.49,2.37,2.37,0,0,0,.34-1.38,1.91,1.91,0,0,0-.31-1.17,1.1,1.1,0,0,0-.92-.42,1.18,1.18,0,0,0-.92.42A1.6,1.6,0,0,0,460.25,20.32Z"/><path class="cls-8" d="M396.91,38h-1.85v-.82h0a2.06,2.06,0,0,1-1.85,1,2.29,2.29,0,0,1-1.81-.79,3.28,3.28,0,0,1-.69-2.22,3.57,3.57,0,0,1,.76-2.39,2.47,2.47,0,0,1,2-.89,1.66,1.66,0,0,1,1.61.83h0V29.07h1.85ZM395.09,35v-.46a1.4,1.4,0,0,0-.34-1,1.1,1.1,0,0,0-.88-.39,1.12,1.12,0,0,0-1,.49,2.24,2.24,0,0,0-.35,1.33,1.94,1.94,0,0,0,.33,1.21,1.19,1.19,0,0,0,1.85,0A1.91,1.91,0,0,0,395.09,35Z"/><path class="cls-8" d="M403.86,35.48h-3.92c.07.87.61,1.31,1.65,1.31a3.24,3.24,0,0,0,1.74-.47v1.33a4.53,4.53,0,0,1-2.16.45,2.79,2.79,0,0,1-3.06-3.05,3.2,3.2,0,0,1,.87-2.37,2.88,2.88,0,0,1,2.13-.87,2.63,2.63,0,0,1,2,.78,3,3,0,0,1,.72,2.11Zm-1.72-1.14c0-.86-.35-1.29-1-1.29a1,1,0,0,0-.77.37,1.72,1.72,0,0,0-.4.92Z"/><path class="cls-8" d="M415.84,38h-2.06l-.6-1.87h-3L409.6,38h-2.05l3.06-8.4h2.24Zm-3.09-3.32-.91-2.82a4.51,4.51,0,0,1-.14-.76h0a3.06,3.06,0,0,1-.15.73l-.91,2.85Z"/><path class="cls-8" d="M416.5,37.63V35.76a3.86,3.86,0,0,0,1.11.64,3.63,3.63,0,0,0,1.21.21,2.9,2.9,0,0,0,.62-.06,1.91,1.91,0,0,0,.45-.18,1,1,0,0,0,.26-.27.67.67,0,0,0,.09-.34.77.77,0,0,0-.14-.44,1.47,1.47,0,0,0-.38-.36,6.11,6.11,0,0,0-.58-.31c-.22-.1-.46-.21-.72-.31a3.76,3.76,0,0,1-1.47-1,2.46,2.46,0,0,1-.22-2.56,2.34,2.34,0,0,1,.72-.78,3.33,3.33,0,0,1,1.05-.45,5.75,5.75,0,0,1,1.27-.14,8,8,0,0,1,1.16.08,4.22,4.22,0,0,1,.93.24v1.75a2.87,2.87,0,0,0-.46-.25,2.82,2.82,0,0,0-.51-.19c-.18-.05-.35-.08-.52-.11l-.5,0a2.58,2.58,0,0,0-.58.06,1.57,1.57,0,0,0-.45.17,1,1,0,0,0-.28.27.6.6,0,0,0-.1.35.73.73,0,0,0,.11.38,1.19,1.19,0,0,0,.32.31,3.5,3.5,0,0,0,.49.3l.67.29a7.55,7.55,0,0,1,.9.45,3.18,3.18,0,0,1,.69.54,2,2,0,0,1,.44.68,2.4,2.4,0,0,1,.15.89,2.48,2.48,0,0,1-.26,1.18,2.18,2.18,0,0,1-.73.78,3.36,3.36,0,0,1-1.06.42,5.91,5.91,0,0,1-1.28.13,7,7,0,0,1-1.32-.12A4,4,0,0,1,416.5,37.63Z"/><path class="cls-8" d="M425.51,35.06V38h-1.89v-8.4h3c2.12,0,3.18.89,3.18,2.68a2.59,2.59,0,0,1-.92,2.05,3.58,3.58,0,0,1-2.43.78Zm0-4.06v2.62h.74c1,0,1.51-.44,1.51-1.32s-.5-1.3-1.51-1.3Z"/><path class="cls-8" d="M429.83,38.1a1.07,1.07,0,0,1-.76-.28.92.92,0,0,1-.3-.69.86.86,0,0,1,.31-.69,1.16,1.16,0,0,1,.78-.27,1.12,1.12,0,0,1,.78.27.94.94,0,0,1,0,1.39A1.16,1.16,0,0,1,429.83,38.1Z"/><path class="cls-8" d="M440,38h-1.91l-3.46-5.28a6.88,6.88,0,0,1-.43-.69h0c0,.29.05.75.05,1.36V38h-1.79v-8.4h2l3.33,5.12c.15.23.3.46.42.68h0a8.94,8.94,0,0,1-.05-1.15V29.55H440Z"/><path class="cls-8" d="M447,38h-5v-8.4h4.85v1.54h-3V33h2.75V34.5h-2.75v1.92H447Z"/><path class="cls-8" d="M454.31,31.09h-2.39V38H450V31.09h-2.39V29.55h6.68Z"/><path class="cls-9" d="M191.37,10.41h-1V7c0-1.25-.47-1.87-1.4-1.87a1.53,1.53,0,0,0-1.18.54A2,2,0,0,0,187.35,7v3.4h-1V1.53h1V5.41h0a2.18,2.18,0,0,1,2-1.14c1.35,0,2,.81,2,2.44Z"/><path class="cls-9" d="M195.88,10.35a1.82,1.82,0,0,1-.9.19c-1,0-1.57-.59-1.57-1.76V5.23h-1V4.41h1V2.94l1-.31V4.41h1.51v.82h-1.51V8.61a1.45,1.45,0,0,0,.2.86.84.84,0,0,0,.68.26,1.05,1.05,0,0,0,.63-.2Z"/><path class="cls-9" d="M199.86,10.35a1.76,1.76,0,0,1-.89.19c-1.06,0-1.58-.59-1.58-1.76V5.23h-1V4.41h1V2.94l1-.31V4.41h1.51v.82h-1.51V8.61a1.37,1.37,0,0,0,.21.86.8.8,0,0,0,.67.26,1,1,0,0,0,.63-.2Z"/><path class="cls-9" d="M202.05,9.54h0v3.63h-1V4.41h1v1h0a2.27,2.27,0,0,1,2.07-1.19,2.21,2.21,0,0,1,1.81.8,3.37,3.37,0,0,1,.65,2.16,3.73,3.73,0,0,1-.73,2.42,2.46,2.46,0,0,1-2,.9A2,2,0,0,1,202.05,9.54Zm0-2.42V8a1.73,1.73,0,0,0,.49,1.26,1.58,1.58,0,0,0,1.22.52,1.6,1.6,0,0,0,1.37-.67,3,3,0,0,0,.5-1.85,2.39,2.39,0,0,0-.47-1.57,1.52,1.52,0,0,0-1.25-.57,1.7,1.7,0,0,0-1.35.58A2.15,2.15,0,0,0,202,7.12Z"/><path class="cls-9" d="M207.67,10.19v-1a2.82,2.82,0,0,0,1.73.58q1.26,0,1.26-.84a.68.68,0,0,0-.11-.41,1.17,1.17,0,0,0-.29-.3,2.86,2.86,0,0,0-.43-.23l-.54-.21c-.26-.11-.5-.21-.7-.32a2.22,2.22,0,0,1-.5-.36,1.38,1.38,0,0,1-.31-.46,1.63,1.63,0,0,1-.1-.61,1.38,1.38,0,0,1,.19-.74,1.7,1.7,0,0,1,.52-.55,2.21,2.21,0,0,1,.73-.33,3.49,3.49,0,0,1,.86-.11,3.41,3.41,0,0,1,1.39.27v1a2.7,2.7,0,0,0-1.52-.43,1.88,1.88,0,0,0-.49.06,1.26,1.26,0,0,0-.37.17,1,1,0,0,0-.24.27.67.67,0,0,0-.09.34.75.75,0,0,0,.09.39,1,1,0,0,0,.25.29,2.11,2.11,0,0,0,.4.22l.53.21c.27.11.5.21.72.32a2.45,2.45,0,0,1,.53.36,1.37,1.37,0,0,1,.47,1.09,1.51,1.51,0,0,1-.2.78,1.58,1.58,0,0,1-.52.54,2.26,2.26,0,0,1-.76.32,3.27,3.27,0,0,1-.9.11A3.37,3.37,0,0,1,207.67,10.19Z"/><path class="cls-9" d="M213.37,5.58a.62.62,0,0,1-.46-.19.68.68,0,0,1-.19-.46.64.64,0,0,1,.19-.46.62.62,0,0,1,.46-.19.63.63,0,0,1,.47.19.61.61,0,0,1,.2.46.65.65,0,0,1-.2.46A.63.63,0,0,1,213.37,5.58Zm0,5a.66.66,0,0,1-.46-.19.68.68,0,0,1-.19-.47.66.66,0,0,1,.19-.46.67.67,0,0,1,1.13.46.65.65,0,0,1-.2.47A.67.67,0,0,1,213.37,10.54Z"/><path class="cls-9" d="M219.35,2l-4,9.79h-.9l4-9.79Z"/><path class="cls-9" d="M223.94,2l-4,9.79H219L223,2Z"/><path class="cls-9" d="M229.52,4.41l-2.76,7c-.5,1.24-1.19,1.86-2.08,1.86a2.16,2.16,0,0,1-.62-.07V12.3a1.7,1.7,0,0,0,.56.1,1.17,1.17,0,0,0,1.09-.87l.48-1.13-2.34-6h1.07L226.54,9q0,.09.12.45h0l.11-.44,1.71-4.63Z"/><path class="cls-9" d="M233,10.55a2.77,2.77,0,0,1-2.12-.84,3.11,3.11,0,0,1-.8-2.23,3.25,3.25,0,0,1,.83-2.36,3,3,0,0,1,2.23-.85,2.68,2.68,0,0,1,2.1.83A3.27,3.27,0,0,1,236,7.39a3.25,3.25,0,0,1-.81,2.3A2.87,2.87,0,0,1,233,10.55ZM233,5.08a1.81,1.81,0,0,0-1.46.63A2.58,2.58,0,0,0,231,7.44a2.47,2.47,0,0,0,.54,1.69,1.86,1.86,0,0,0,1.46.61,1.75,1.75,0,0,0,1.43-.6A2.6,2.6,0,0,0,235,7.42a2.61,2.61,0,0,0-.51-1.73A1.73,1.73,0,0,0,233,5.08Z"/><path class="cls-9" d="M242.26,10.41h-1V9.46h0a2,2,0,0,1-1.85,1.09c-1.43,0-2.15-.85-2.15-2.55V4.41h1V7.84c0,1.27.48,1.9,1.45,1.9a1.47,1.47,0,0,0,1.16-.52,2,2,0,0,0,.45-1.35V4.41h1Z"/><path class="cls-9" d="M247.25,5.38a1.18,1.18,0,0,0-.73-.19,1.23,1.23,0,0,0-1,.58,2.72,2.72,0,0,0-.41,1.58v3.06h-1v-6h1V5.65h0a2.12,2.12,0,0,1,.63-1,1.42,1.42,0,0,1,.94-.36,1.5,1.5,0,0,1,.58.09Z"/><path class="cls-9" d="M247.84,10.19v-1a2.84,2.84,0,0,0,1.73.58c.85,0,1.27-.28,1.27-.84a.76.76,0,0,0-.11-.41,1.17,1.17,0,0,0-.29-.3A3,3,0,0,0,250,8l-.53-.21a6.76,6.76,0,0,1-.7-.32,2.29,2.29,0,0,1-.51-.36,1.52,1.52,0,0,1-.3-.46,1.62,1.62,0,0,1-.11-.61,1.39,1.39,0,0,1,.2-.74,1.78,1.78,0,0,1,.51-.55,2.26,2.26,0,0,1,.74-.33,3.41,3.41,0,0,1,.85-.11,3.46,3.46,0,0,1,1.4.27v1A2.74,2.74,0,0,0,250,5.08a1.75,1.75,0,0,0-.48.06,1.33,1.33,0,0,0-.38.17,1,1,0,0,0-.24.27.77.77,0,0,0-.08.34.87.87,0,0,0,.08.39,1,1,0,0,0,.25.29,2.48,2.48,0,0,0,.4.22l.53.21c.27.11.51.21.72.32a2.82,2.82,0,0,1,.54.36,1.41,1.41,0,0,1,.34.47,1.46,1.46,0,0,1,.12.62,1.5,1.5,0,0,1-.19.78,1.71,1.71,0,0,1-.53.54,2.26,2.26,0,0,1-.76.32,3.24,3.24,0,0,1-.89.11A3.41,3.41,0,0,1,247.84,10.19Z"/><path class="cls-9" d="M253.71,2.89a.59.59,0,0,1-.44-.18.62.62,0,0,1,0-.89.59.59,0,0,1,.44-.18.6.6,0,0,1,.44.18.58.58,0,0,1,.19.45.56.56,0,0,1-.19.43A.58.58,0,0,1,253.71,2.89Zm.46,7.52h-1v-6h1Z"/><path class="cls-9" d="M258.82,10.35a1.82,1.82,0,0,1-.9.19c-1.05,0-1.57-.59-1.57-1.76V5.23h-1V4.41h1V2.94l1-.31V4.41h1.51v.82h-1.51V8.61a1.45,1.45,0,0,0,.2.86.84.84,0,0,0,.68.26,1.05,1.05,0,0,0,.63-.2Z"/><path class="cls-9" d="M264.84,7.65H260.6a2.3,2.3,0,0,0,.54,1.55,1.88,1.88,0,0,0,1.42.54,2.89,2.89,0,0,0,1.86-.67V10a3.47,3.47,0,0,1-2.09.57,2.54,2.54,0,0,1-2-.82,3.35,3.35,0,0,1-.72-2.3,3.28,3.28,0,0,1,.79-2.28,2.54,2.54,0,0,1,2-.88A2.26,2.26,0,0,1,264.2,5a3.18,3.18,0,0,1,.64,2.12Zm-1-.81a2,2,0,0,0-.4-1.3,1.37,1.37,0,0,0-1.1-.46,1.57,1.57,0,0,0-1.16.48,2.24,2.24,0,0,0-.58,1.28Z"/><path class="cls-9" d="M266.54,10.54a.66.66,0,0,1-.46-.19.68.68,0,0,1-.19-.47.66.66,0,0,1,.19-.46.67.67,0,0,1,1.13.46.65.65,0,0,1-.2.47A.67.67,0,0,1,266.54,10.54Z"/><path class="cls-9" d="M272.82,10.13a3.1,3.1,0,0,1-1.64.42,2.72,2.72,0,0,1-2.07-.83,3,3,0,0,1-.79-2.17,3.3,3.3,0,0,1,.85-2.38,3,3,0,0,1,2.26-.9,3.24,3.24,0,0,1,1.4.29v1a2.4,2.4,0,0,0-1.43-.47,1.93,1.93,0,0,0-1.51.66,2.5,2.5,0,0,0-.59,1.73,2.36,2.36,0,0,0,.56,1.66,1.87,1.87,0,0,0,1.48.61,2.41,2.41,0,0,0,1.48-.52Z"/><path class="cls-9" d="M276.69,10.55a2.79,2.79,0,0,1-2.12-.84,3.1,3.1,0,0,1-.79-2.23,3.24,3.24,0,0,1,.82-2.36,3,3,0,0,1,2.23-.85,2.66,2.66,0,0,1,2.1.83,3.27,3.27,0,0,1,.75,2.29,3.25,3.25,0,0,1-.81,2.3A2.87,2.87,0,0,1,276.69,10.55Zm.07-5.47a1.83,1.83,0,0,0-1.46.63,2.58,2.58,0,0,0-.54,1.73,2.42,2.42,0,0,0,.55,1.69,1.84,1.84,0,0,0,1.45.61,1.77,1.77,0,0,0,1.44-.6,2.65,2.65,0,0,0,.5-1.72,2.66,2.66,0,0,0-.5-1.73A1.75,1.75,0,0,0,276.76,5.08Z"/><path class="cls-9" d="M289.65,10.41h-1V7a2.57,2.57,0,0,0-.31-1.44,1.17,1.17,0,0,0-1-.44,1.3,1.3,0,0,0-1.05.56A2.2,2.2,0,0,0,285.87,7v3.42h-1V6.85c0-1.18-.45-1.77-1.36-1.77a1.27,1.27,0,0,0-1.05.53A2.2,2.2,0,0,0,282.09,7v3.42h-1v-6h1v1h0A2,2,0,0,1,284,4.27a1.73,1.73,0,0,1,1.7,1.24,2.14,2.14,0,0,1,2-1.24c1.32,0,2,.81,2,2.44Z"/><path class="cls-9" d="M192.64,39.21h-1.17l-1.41-2.36c-.13-.21-.25-.4-.37-.56a2.18,2.18,0,0,0-.38-.37,1.25,1.25,0,0,0-.41-.22,1.83,1.83,0,0,0-.49-.06h-.81v3.57h-1v-8.4h2.51a3.31,3.31,0,0,1,1,.14,2.38,2.38,0,0,1,.81.41,2,2,0,0,1,.53.7,2.33,2.33,0,0,1,.2,1,2.53,2.53,0,0,1-.13.8,2.1,2.1,0,0,1-.38.65,2,2,0,0,1-.59.49,2.83,2.83,0,0,1-.77.32v0a1.63,1.63,0,0,1,.37.21,4,4,0,0,1,.3.29,4,4,0,0,1,.27.37c.1.14.2.3.31.48Zm-5-7.51v3.05h1.34a1.91,1.91,0,0,0,.68-.12,1.46,1.46,0,0,0,.54-.32,1.38,1.38,0,0,0,.36-.51,1.78,1.78,0,0,0,.13-.67,1.32,1.32,0,0,0-.44-1.05A1.83,1.83,0,0,0,189,31.7Z"/><path class="cls-9" d="M198.13,36.45H193.9a2.21,2.21,0,0,0,.54,1.55,1.85,1.85,0,0,0,1.41.54,2.94,2.94,0,0,0,1.87-.67v.91a3.52,3.52,0,0,1-2.09.57,2.52,2.52,0,0,1-2-.82A3.81,3.81,0,0,1,193.7,34a2.53,2.53,0,0,1,2-.88,2.25,2.25,0,0,1,1.82.76,3.18,3.18,0,0,1,.64,2.12Zm-1-.81a2,2,0,0,0-.4-1.3,1.37,1.37,0,0,0-1.1-.46,1.55,1.55,0,0,0-1.15.48,2.19,2.19,0,0,0-.59,1.28Z"/><path class="cls-9" d="M204.71,39.21h-1v-1h0a2.21,2.21,0,0,1-2.06,1.16,2.26,2.26,0,0,1-1.81-.81,3.28,3.28,0,0,1-.67-2.19,3.57,3.57,0,0,1,.75-2.38,2.46,2.46,0,0,1,2-.9,1.9,1.9,0,0,1,1.79,1h0V30.33h1Zm-1-2.71v-.89a1.73,1.73,0,0,0-.48-1.23,1.78,1.78,0,0,0-2.6.14,2.81,2.81,0,0,0-.51,1.78,2.49,2.49,0,0,0,.49,1.64,1.57,1.57,0,0,0,1.29.6,1.65,1.65,0,0,0,1.31-.58A2.16,2.16,0,0,0,203.75,36.5Z"/><path class="cls-9" d="M207.15,31.69a.59.59,0,0,1-.44-.18.6.6,0,0,1-.19-.44.62.62,0,0,1,.19-.45.59.59,0,0,1,.44-.18.6.6,0,0,1,.44.18.58.58,0,0,1,.19.45.56.56,0,0,1-.19.43A.58.58,0,0,1,207.15,31.69Zm.46,7.52h-1v-6h1Z"/><path class="cls-9" d="M212.69,34.18A1.18,1.18,0,0,0,212,34a1.23,1.23,0,0,0-1,.58,2.72,2.72,0,0,0-.41,1.58v3.06h-1v-6h1v1.24h0a2.12,2.12,0,0,1,.63-1,1.42,1.42,0,0,1,.94-.36,1.46,1.46,0,0,1,.58.09Z"/><path class="cls-9" d="M214.22,31.69a.62.62,0,0,1-.44-.18.59.59,0,0,1-.18-.44.61.61,0,0,1,.18-.45.62.62,0,0,1,.44-.18.61.61,0,0,1,.45.18.58.58,0,0,1,.19.45.56.56,0,0,1-.19.43A.58.58,0,0,1,214.22,31.69Zm.47,7.52h-1v-6h1Z"/><path class="cls-9" d="M221.76,38.73c0,2.2-1.06,3.3-3.16,3.3a4.25,4.25,0,0,1-1.95-.42v-1a4,4,0,0,0,1.93.56c1.48,0,2.22-.78,2.22-2.35V38.2h0a2.23,2.23,0,0,1-2.06,1.15,2.27,2.27,0,0,1-1.8-.8,3.22,3.22,0,0,1-.68-2.15A3.73,3.73,0,0,1,217,34a2.46,2.46,0,0,1,2-.9,2,2,0,0,1,1.79,1h0v-.83h1Zm-1-2.23v-.89a1.69,1.69,0,0,0-.49-1.22,1.58,1.58,0,0,0-1.2-.51,1.64,1.64,0,0,0-1.39.65,2.85,2.85,0,0,0-.51,1.81,2.43,2.43,0,0,0,.49,1.6,1.55,1.55,0,0,0,1.28.6,1.67,1.67,0,0,0,1.31-.57A2.16,2.16,0,0,0,220.8,36.5Z"/><path class="cls-9" d="M224.2,31.69a.61.61,0,0,1-.62-.62.61.61,0,0,1,.18-.45.59.59,0,0,1,.44-.18.64.64,0,0,1,.45.18.61.61,0,0,1,.18.45.58.58,0,0,1-.18.43A.61.61,0,0,1,224.2,31.69Zm.47,7.52h-1v-6h1Z"/><path class="cls-9" d="M229.74,34.18A1.18,1.18,0,0,0,229,34a1.23,1.23,0,0,0-1,.58,2.72,2.72,0,0,0-.41,1.58v3.06h-1v-6h1v1.24h0a2,2,0,0,1,.62-1,1.43,1.43,0,0,1,.95-.36,1.41,1.41,0,0,1,.57.09Z"/><path class="cls-9" d="M210.19,154.92h-2.43v7.51h-1v-7.51h-2.42V154h5.83Z"/><path class="cls-9" d="M212.64,162.57a2.79,2.79,0,0,1-2.12-.84,3.1,3.1,0,0,1-.79-2.23,3.24,3.24,0,0,1,.82-2.36,3,3,0,0,1,2.23-.85,2.66,2.66,0,0,1,2.1.83,3.77,3.77,0,0,1-.06,4.59A2.87,2.87,0,0,1,212.64,162.57Zm.07-5.47a1.83,1.83,0,0,0-1.46.63,2.58,2.58,0,0,0-.54,1.73,2.47,2.47,0,0,0,.54,1.69,1.86,1.86,0,0,0,1.46.61,1.79,1.79,0,0,0,1.44-.6,3.23,3.23,0,0,0,0-3.45A1.76,1.76,0,0,0,212.71,157.1Z"/><path class="cls-9" d="M222.08,162.43h-1.35l-2.65-2.88h0v2.88h-1v-8.88h1v5.63h0l2.52-2.75h1.26l-2.78,2.89Z"/><path class="cls-9" d="M227.81,159.67h-4.24a2.3,2.3,0,0,0,.54,1.55,1.88,1.88,0,0,0,1.42.54,2.89,2.89,0,0,0,1.86-.67V162a3.47,3.47,0,0,1-2.09.57,2.53,2.53,0,0,1-2-.82,3.35,3.35,0,0,1-.72-2.3,3.28,3.28,0,0,1,.79-2.28,2.54,2.54,0,0,1,2-.88,2.26,2.26,0,0,1,1.83.76,3.18,3.18,0,0,1,.64,2.12Zm-1-.81a2,2,0,0,0-.41-1.3,1.35,1.35,0,0,0-1.09-.46,1.57,1.57,0,0,0-1.16.48,2.18,2.18,0,0,0-.58,1.28Z"/><path class="cls-9" d="M234.17,162.43h-1V159c0-1.28-.46-1.91-1.39-1.91a1.54,1.54,0,0,0-1.2.54,2,2,0,0,0-.47,1.37v3.42h-1v-6h1v1h0a2.15,2.15,0,0,1,2-1.14,1.85,1.85,0,0,1,1.51.63,2.84,2.84,0,0,1,.52,1.84Z"/><path class="cls-9" d="M244.25,162.43h-1v-1h0a2.21,2.21,0,0,1-2.06,1.16,2.24,2.24,0,0,1-1.81-.81,3.28,3.28,0,0,1-.67-2.19,3.57,3.57,0,0,1,.75-2.38,2.46,2.46,0,0,1,2-.9,1.91,1.91,0,0,1,1.8,1h0v-3.71h1Zm-1-2.71v-.89a1.73,1.73,0,0,0-.48-1.23,1.65,1.65,0,0,0-1.22-.5,1.67,1.67,0,0,0-1.39.64,2.87,2.87,0,0,0-.5,1.78,2.56,2.56,0,0,0,.48,1.64,1.73,1.73,0,0,0,2.6,0A2.13,2.13,0,0,0,243.29,159.72Z"/><path class="cls-9" d="M250.94,159.67h-4.23a2.25,2.25,0,0,0,.53,1.55,1.88,1.88,0,0,0,1.42.54,2.94,2.94,0,0,0,1.87-.67V162a3.53,3.53,0,0,1-2.1.57,2.51,2.51,0,0,1-2-.82,3.83,3.83,0,0,1,.06-4.58,2.54,2.54,0,0,1,2-.88,2.26,2.26,0,0,1,1.83.76,3.18,3.18,0,0,1,.64,2.12Zm-1-.81a2,2,0,0,0-.4-1.3,1.37,1.37,0,0,0-1.1-.46,1.57,1.57,0,0,0-1.16.48,2.24,2.24,0,0,0-.58,1.28Z"/><path class="cls-9" d="M259.83,162.43h-1v-.94h0a2,2,0,0,1-1.85,1.08,2,2,0,0,1-1.4-.47,1.65,1.65,0,0,1-.51-1.26c0-1.13.66-1.78,2-2l1.8-.25c0-1-.41-1.53-1.24-1.53a2.9,2.9,0,0,0-1.95.74v-1a3.76,3.76,0,0,1,2-.56c1.41,0,2.11.75,2.11,2.24Zm-1-3-1.45.2a2.54,2.54,0,0,0-1,.33,1,1,0,0,0-.34.85.89.89,0,0,0,.31.71,1.19,1.19,0,0,0,.83.28,1.58,1.58,0,0,0,1.19-.5,1.79,1.79,0,0,0,.46-1.27Z"/><path class="cls-9" d="M265.66,162.15a3.1,3.1,0,0,1-1.64.42,2.73,2.73,0,0,1-2.07-.83,3,3,0,0,1-.79-2.17,3.3,3.3,0,0,1,.85-2.38,3,3,0,0,1,2.27-.9,3.2,3.2,0,0,1,1.39.29v1a2.38,2.38,0,0,0-1.43-.47,2,2,0,0,0-1.51.66,2.5,2.5,0,0,0-.58,1.73,2.36,2.36,0,0,0,.55,1.66,1.89,1.89,0,0,0,1.48.61,2.39,2.39,0,0,0,1.48-.52Z"/><path class="cls-9" d="M271.13,162.15a3.1,3.1,0,0,1-1.64.42,2.75,2.75,0,0,1-2.07-.83,3,3,0,0,1-.79-2.17,3.35,3.35,0,0,1,.85-2.38,3,3,0,0,1,2.27-.9,3.2,3.2,0,0,1,1.39.29v1a2.38,2.38,0,0,0-1.43-.47,1.91,1.91,0,0,0-1.5.66,2.46,2.46,0,0,0-.59,1.73,2.36,2.36,0,0,0,.55,1.66,1.89,1.89,0,0,0,1.49.61,2.38,2.38,0,0,0,1.47-.52Z"/><path class="cls-9" d="M277.33,159.67H273.1a2.21,2.21,0,0,0,.54,1.55,1.85,1.85,0,0,0,1.42.54,2.93,2.93,0,0,0,1.86-.67V162a3.52,3.52,0,0,1-2.09.57,2.52,2.52,0,0,1-2-.82,3.81,3.81,0,0,1,.07-4.58,2.53,2.53,0,0,1,2-.88,2.25,2.25,0,0,1,1.82.76,3.18,3.18,0,0,1,.64,2.12Zm-1-.81a2,2,0,0,0-.4-1.3,1.36,1.36,0,0,0-1.1-.46,1.55,1.55,0,0,0-1.15.48,2.19,2.19,0,0,0-.59,1.28Z"/><path class="cls-9" d="M278.35,162.21v-1a2.84,2.84,0,0,0,1.73.58c.85,0,1.27-.28,1.27-.84a.76.76,0,0,0-.11-.41,1.17,1.17,0,0,0-.29-.3,3,3,0,0,0-.44-.23l-.53-.21a6.76,6.76,0,0,1-.7-.32,2.55,2.55,0,0,1-.51-.36,1.52,1.52,0,0,1-.3-.46,1.63,1.63,0,0,1-.1-.61,1.38,1.38,0,0,1,.19-.74,1.78,1.78,0,0,1,.51-.55,2.26,2.26,0,0,1,.74-.33,3.41,3.41,0,0,1,.85-.11,3.46,3.46,0,0,1,1.4.27v1a2.71,2.71,0,0,0-1.53-.43,1.75,1.75,0,0,0-.48.06,1.33,1.33,0,0,0-.38.17,1,1,0,0,0-.24.27.77.77,0,0,0-.08.34.87.87,0,0,0,.08.39,1,1,0,0,0,.25.29,2.48,2.48,0,0,0,.4.22l.54.21c.26.11.5.21.71.32a2.82,2.82,0,0,1,.54.36,1.41,1.41,0,0,1,.34.47,1.46,1.46,0,0,1,.12.62,1.5,1.5,0,0,1-.19.78,1.71,1.71,0,0,1-.53.54,2.3,2.3,0,0,1-.75.32,3.36,3.36,0,0,1-.9.11A3.41,3.41,0,0,1,278.35,162.21Z"/><path class="cls-9" d="M286.24,162.57a2.79,2.79,0,0,1-2.12-.84,3.1,3.1,0,0,1-.79-2.23,3.24,3.24,0,0,1,.82-2.36,3,3,0,0,1,2.23-.85,2.66,2.66,0,0,1,2.1.83,3.77,3.77,0,0,1-.06,4.59A2.87,2.87,0,0,1,286.24,162.57Zm.07-5.47a1.83,1.83,0,0,0-1.46.63,2.58,2.58,0,0,0-.54,1.73,2.42,2.42,0,0,0,.55,1.69,1.84,1.84,0,0,0,1.45.61,1.77,1.77,0,0,0,1.44-.6,3.23,3.23,0,0,0,0-3.45A1.75,1.75,0,0,0,286.31,157.1Z"/></g></svg>