<svg xmlns="http://www.w3.org/2000/svg" xmlns:xlink="http://www.w3.org/1999/xlink" viewBox="0 0 474.66 206.72"><defs><style>.cls-1{fill:#505050;}.cls-12,.cls-15,.cls-2{fill:#fff;}.cls-3,.cls-7{fill:#ebebeb;}.cls-16,.cls-4{fill:#0072c6;}.cls-5{fill:#d2d2d2;}.cls-6{fill:none;}.cls-13,.cls-6,.cls-7{stroke:#000;}.cls-13,.cls-14,.cls-15,.cls-16,.cls-6,.cls-7{stroke-miterlimit:10;}.cls-7{stroke-width:0.75px;}.cls-8{fill:#80bceb;}.cls-9{fill:#414042;}.cls-10{fill:#aad2f2;}.cls-11{fill:#054b16;}.cls-12{fill-opacity:0.15;}.cls-13,.cls-15,.cls-16{stroke-width:0.05px;}.cls-14{fill:#1e1e1e;stroke:#1e1e1e;stroke-width:0.06px;}.cls-15{stroke:#fff;}.cls-16{stroke:#0072c6;}</style><symbol id="New_Symbol_46" data-name="New Symbol 46" viewBox="0 0 20 20"><circle class="cls-1" cx="10" cy="10" r="10"/><path class="cls-2" d="M12.89,8.27a3.25,3.25,0,0,0-.21-1.15,2.64,2.64,0,0,0-2.55-1.69A2.87,2.87,0,0,0,9,5.67a2.62,2.62,0,0,0-.92.73A3.68,3.68,0,0,0,7.5,7.61a6,6,0,0,0-.21,1.68,6.88,6.88,0,0,0,.21,2.07,4.3,4.3,0,0,0,.76,1.51,3.33,3.33,0,0,0,1.17.93,3.16,3.16,0,0,0,1.42.31,6.36,6.36,0,0,0,.87-.06,2.31,2.31,0,0,0,.62-.18V12.65a5,5,0,0,1-.64.26,2.57,2.57,0,0,1-.78.1,1.92,1.92,0,0,1-.91-.2,2,2,0,0,1-.71-.58,2.89,2.89,0,0,1-.48-1A5.08,5.08,0,0,1,8.64,10h0a1.83,1.83,0,0,0,.73.65,2.31,2.31,0,0,0,1.13.22,2.63,2.63,0,0,0,1-.17,2.1,2.1,0,0,0,.76-.52,2.27,2.27,0,0,0,.48-.82A3.34,3.34,0,0,0,12.89,8.27ZM11.5,8.16a3,3,0,0,1-.08.66,1.69,1.69,0,0,1-.26.52,1.31,1.31,0,0,1-.44.33,1.41,1.41,0,0,1-.61.11,1.67,1.67,0,0,1-.62-.12A1.87,1.87,0,0,1,9,9.33a1.47,1.47,0,0,1-.27-.47,1.65,1.65,0,0,1-.09-.54,2.1,2.1,0,0,1,.09-.61A1.73,1.73,0,0,1,9,7.14a1.24,1.24,0,0,1,.45-.43,1.18,1.18,0,0,1,.64-.17,1.34,1.34,0,0,1,.59.13,1.22,1.22,0,0,1,.44.34,1.45,1.45,0,0,1,.26.51A2.3,2.3,0,0,1,11.5,8.16Z"/></symbol><symbol id="New_Symbol_41" data-name="New Symbol 41" viewBox="0 0 20 20"><circle class="cls-1" cx="10" cy="10" r="10"/><path class="cls-2" d="M11.19,14.16V5.57H9.83V12.5A4.06,4.06,0,0,0,9,12a9,9,0,0,0-1-.33v1.21l.65.24.63.27.62.34c.21.13.42.27.64.43Z"/></symbol><symbol id="New_Symbol_42" data-name="New Symbol 42" viewBox="0 0 20 20"><circle class="cls-1" cx="10" cy="10" r="10"/><path class="cls-2" d="M12.5,5.57H7.24v.65A2.58,2.58,0,0,0,7.35,7a3.93,3.93,0,0,0,.3.66,4.92,4.92,0,0,0,.44.58c.17.18.35.35.54.52l.59.5c.2.15.39.31.58.47s.35.3.5.45a4.11,4.11,0,0,1,.38.45,2.55,2.55,0,0,1,.24.5,1.84,1.84,0,0,1,.09.57,1.42,1.42,0,0,1-.1.58,1.33,1.33,0,0,1-.29.41,1.17,1.17,0,0,1-.44.26,2.05,2.05,0,0,1-.55.05,2.73,2.73,0,0,1-1.05-.24,3.75,3.75,0,0,1-1-.72v1.31a2.85,2.85,0,0,0,.52.33,2.7,2.7,0,0,0,.55.24,3,3,0,0,0,.59.15,3.64,3.64,0,0,0,.66,0,3.77,3.77,0,0,0,1-.14,2.2,2.2,0,0,0,.79-.44,2,2,0,0,0,.51-.73,2.46,2.46,0,0,0,.18-1,2.88,2.88,0,0,0-.13-.92,2.65,2.65,0,0,0-.36-.76,4,4,0,0,0-.56-.67c-.21-.21-.46-.43-.73-.65l-.67-.53c-.23-.18-.43-.35-.61-.51a3.5,3.5,0,0,1-.44-.5.9.9,0,0,1-.16-.5H12.5Z"/></symbol><symbol id="New_Symbol_45" data-name="New Symbol 45" viewBox="0 0 20 20"><circle class="cls-1" cx="10" cy="10" r="10"/><path class="cls-2" d="M7.58,5.77v1.3a3,3,0,0,1,1.67-.55A2.07,2.07,0,0,1,10.63,7a1.4,1.4,0,0,1,.52,1.16,1.32,1.32,0,0,1-.53,1.12,2.54,2.54,0,0,1-1.52.4,12.8,12.8,0,0,1-1.38-.07L8,14h4.14V12.81h-3L9,10.71h.73A2.89,2.89,0,0,0,11.82,10a2.43,2.43,0,0,0,.68-1.86,2.57,2.57,0,0,0-.84-2,3.29,3.29,0,0,0-2.29-.75A3.57,3.57,0,0,0,7.58,5.77Z"/></symbol><symbol id="New_Symbol_44" data-name="New Symbol 44" viewBox="0 0 20 20"><circle class="cls-1" cx="10" cy="10" r="10"/><path class="cls-2" d="M12,14V8.58h1.25V7.45H12V5.6H10.65V7.42H6.85V8.56q.51.58,1.05,1.26a12.66,12.66,0,0,1,1,1.38c.29.47.64.94.93,1.41A13,13,0,0,1,10.55,14ZM10.65,8.58v3.5a19.76,19.76,0,0,0-1.26-2C9,9.51,8.58,9,8.22,8.56Z"/></symbol><symbol id="New_Symbol_43" data-name="New Symbol 43" viewBox="0 0 20 20"><circle class="cls-1" cx="10" cy="10" r="10"/><path class="cls-2" d="M7.39,5.88V7.16a3,3,0,0,1,1.85-.65,2.19,2.19,0,0,1,1.34.38,1.23,1.23,0,0,1,.5,1c0,1-.73,1.43-2.18,1.43H8.24v1.12h.63c1.29,0,1.94.45,1.94,1.35S10.3,13,9.29,13a2.48,2.48,0,0,1-1.58-.6v1.23a4.08,4.08,0,0,0,2,.48,2.64,2.64,0,0,0,1.79-.56,1.76,1.76,0,0,0,.67-1.44A2,2,0,0,0,10.5,10h0a2.19,2.19,0,0,0,1.43-.63A1.89,1.89,0,0,0,12.5,8a2.22,2.22,0,0,0-.85-1.82,3.4,3.4,0,0,0-2.24-.7A3.84,3.84,0,0,0,7.39,5.88Z"/></symbol></defs><title>OJ104329341</title><g id="bg"><g id="Shapes"><rect class="cls-2" width="474.66" height="206.72"/><rect class="cls-3" y="10.41" width="105" height="155"/><rect class="cls-4" x="369.66" y="10.41" width="105" height="115"/><rect class="cls-5" x="369.66" y="130.41" width="105" height="70"/><line class="cls-6" x1="105" y1="15.41" x2="364.17" y2="15.41"/><polygon points="363.07 19.15 369.55 15.41 363.07 11.67 363.07 19.15"/><line class="cls-6" x1="110.38" y1="45.29" x2="369.55" y2="45.29"/><polygon points="111.48 49.03 105 45.29 111.48 41.55 111.48 49.03"/><line class="cls-6" x1="105" y1="74.93" x2="364.17" y2="74.93"/><polygon points="363.07 78.67 369.55 74.93 363.07 71.19 363.07 78.67"/><line class="cls-6" x1="110.38" y1="105.18" x2="369.55" y2="105.18"/><polygon points="111.48 108.92 105 105.18 111.48 101.44 111.48 108.92"/><line class="cls-6" x1="105" y1="154.48" x2="364.17" y2="154.48"/><polygon points="363.07 158.22 369.55 154.48 363.07 150.74 363.07 158.22"/><path class="cls-6" d="M369.55,195.41,61.1,194.64a10.06,10.06,0,0,1-10-10V170.79"/><polygon points="54.84 171.88 51.1 165.41 47.36 171.88 54.84 171.88"/><polygon class="cls-7" points="192.56 25.82 185 31.27 187.89 40.08 197.23 40.08 200.12 31.27 192.56 25.82"/><polygon class="cls-7" points="192.56 85.96 185 91.4 187.89 100.21 197.23 100.21 200.12 91.4 192.56 85.96"/><use width="20" height="20" transform="matrix(1, 0, 0, -1, 158.91, 205.41)" xlink:href="#New_Symbol_46"/><path class="cls-8" d="M87.86,44.94V95.25h-70V44.94a4.37,4.37,0,0,1,4.36-4.38H83.48A4.38,4.38,0,0,1,87.86,44.94Z"/><circle cx="24.42" cy="46.03" r="2.19"/><circle class="cls-9" cx="30.98" cy="46.03" r="2.19"/><circle class="cls-9" cx="37.54" cy="46.03" r="2.19"/><path class="cls-10" d="M87.86,44.94V87.6l-4.38-4.38L81.29,55.88,55,54.78,40.82,40.56H83.48A4.38,4.38,0,0,1,87.86,44.94Z"/><rect class="cls-11" x="21.14" y="50.41" width="63.44" height="41.56"/><path class="cls-2" d="M69.06,57.7H26.36V55.57h42.7Z"/><polygon class="cls-12" points="84.57 50.41 84.57 84.31 50.67 50.41 84.57 50.41"/><path class="cls-2" d="M78,58.51l-.62-1.37a.73.73,0,0,1-.08-.25v-.2h0v.21a2.76,2.76,0,0,1-.08.27l-.58,1.34h-1.9L76.24,56l-1.36-2.5h1.81l.49,1.32a3.89,3.89,0,0,1,.12.49h0a2.17,2.17,0,0,1,.13-.5L78,53.52h1.67L78.27,56l1.47,2.52Z"/><path class="cls-2" d="M49.19,76.05a8.31,8.31,0,0,1-1.81,5.71,6.15,6.15,0,0,1-4.84,2,6.77,6.77,0,0,1-2.32-.34V80.24a3.75,3.75,0,0,0,2.12.56c2.28,0,3.43-1.76,3.43-5.3V62.81h3.42Z"/><path class="cls-2" d="M52.27,82.63V79.1a5.17,5.17,0,0,0,1.13.78,8.87,8.87,0,0,0,1.39.58,10.54,10.54,0,0,0,1.47.37,7.71,7.71,0,0,0,1.35.13,5.74,5.74,0,0,0,3.22-.72,2.37,2.37,0,0,0,1.06-2.09,2.28,2.28,0,0,0-.35-1.27,4,4,0,0,0-1-1A10.5,10.5,0,0,0,59.06,75c-.57-.28-1.18-.56-1.84-.86A15.77,15.77,0,0,1,55.27,73a8.08,8.08,0,0,1-1.58-1.27,5.43,5.43,0,0,1-1-1.58,5,5,0,0,1-.38-2A4.78,4.78,0,0,1,53,65.62a5.62,5.62,0,0,1,1.73-1.77,8,8,0,0,1,2.44-1,11.9,11.9,0,0,1,2.79-.34,11.17,11.17,0,0,1,4.72.74v3.38a7.56,7.56,0,0,0-4.52-1.27,7.66,7.66,0,0,0-1.51.15,4.31,4.31,0,0,0-1.36.47,3.15,3.15,0,0,0-1,.85A2.13,2.13,0,0,0,55.86,68a2.39,2.39,0,0,0,.29,1.2,3,3,0,0,0,.84.92,8.78,8.78,0,0,0,1.35.81c.53.27,1.15.55,1.85.86a13.15,13.15,0,0,1,2,1.18,9.59,9.59,0,0,1,1.68,1.37A5.94,5.94,0,0,1,65.06,76a5.29,5.29,0,0,1-1.91,6.48,7.39,7.39,0,0,1-2.47,1,14.41,14.41,0,0,1-3,.31,7.79,7.79,0,0,1-1.28-.08c-.51-.08-1-.13-1.54-.23s-1-.23-1.5-.37A5.31,5.31,0,0,1,52.27,82.63Z"/></g><g id="Text"><use width="20" height="20" transform="matrix(1, 0, 0, -1, 158.91, 25.41)" xlink:href="#New_Symbol_41"/><use width="20" height="20" transform="matrix(1, 0, 0, -1, 158.91, 55.29)" xlink:href="#New_Symbol_42"/><use width="20" height="20" transform="matrix(1, 0, 0, -1, 158.91, 165.21)" xlink:href="#New_Symbol_45"/><use width="20" height="20" transform="matrix(1, 0, 0, -1, 158.91, 115.67)" xlink:href="#New_Symbol_44"/><use width="20" height="20" transform="matrix(1, 0, 0, -1, 158.91, 84.93)" xlink:href="#New_Symbol_43"/></g><polygon class="cls-7" points="192.56 133.78 185 139.22 187.89 148.03 197.23 148.03 200.12 139.22 192.56 133.78"/></g><g id="txt"><path class="cls-13" d="M33.42,114.36v-1.87a3.69,3.69,0,0,0,1.1.64,3.63,3.63,0,0,0,1.21.21,2.77,2.77,0,0,0,.62-.06,1.91,1.91,0,0,0,.45-.18.87.87,0,0,0,.27-.27.81.81,0,0,0,.08-.34.7.7,0,0,0-.14-.44,1.47,1.47,0,0,0-.38-.36,3.88,3.88,0,0,0-.58-.31c-.22-.1-.46-.21-.72-.31a3.83,3.83,0,0,1-1.47-1,2.23,2.23,0,0,1-.48-1.43,2.33,2.33,0,0,1,.26-1.13,2.25,2.25,0,0,1,.72-.78,3.33,3.33,0,0,1,1-.45,5.75,5.75,0,0,1,1.27-.14,7.92,7.92,0,0,1,1.16.08,4.46,4.46,0,0,1,.94.24v1.75a3.37,3.37,0,0,0-.46-.25,3.24,3.24,0,0,0-.52-.19,4.82,4.82,0,0,0-.52-.11l-.5,0a2.58,2.58,0,0,0-.58.06,1.57,1.57,0,0,0-.45.17,1,1,0,0,0-.28.27.68.68,0,0,0-.1.35.73.73,0,0,0,.11.38,1.36,1.36,0,0,0,.32.31,2.87,2.87,0,0,0,.5.29,7,7,0,0,0,.66.3,7,7,0,0,1,.91.45,3.37,3.37,0,0,1,.68.54,1.82,1.82,0,0,1,.44.68,2.4,2.4,0,0,1,.16.89,2.37,2.37,0,0,1-.27,1.18,2.25,2.25,0,0,1-.72.78,3.42,3.42,0,0,1-1.07.42,5.85,5.85,0,0,1-1.28.13,6.86,6.86,0,0,1-1.31-.12A3.81,3.81,0,0,1,33.42,114.36Z"/><path class="cls-13" d="M42.42,111.79v2.89H40.53v-8.4h3c2.12,0,3.18.89,3.18,2.68a2.58,2.58,0,0,1-.91,2.05,3.63,3.63,0,0,1-2.44.78Zm0-4.06v2.62h.75c1,0,1.51-.44,1.51-1.32s-.51-1.3-1.51-1.3Z"/><path class="cls-13" d="M54.58,114.68H52.52l-.6-1.87h-3l-.59,1.87H46.29l3.06-8.4h2.24Zm-3.09-3.32-.91-2.82a4.51,4.51,0,0,1-.14-.76h0a3.06,3.06,0,0,1-.15.73l-.92,2.85Z"/><path class="cls-13" d="M64.63,114.68H62.78v-.82h0a2.08,2.08,0,0,1-1.85,1,2.32,2.32,0,0,1-1.82-.79,3.33,3.33,0,0,1-.68-2.22,3.57,3.57,0,0,1,.76-2.39,2.44,2.44,0,0,1,2-.89,1.66,1.66,0,0,1,1.61.83h0V105.8h1.85Zm-1.82-2.92v-.45a1.4,1.4,0,0,0-.34-1,1.1,1.1,0,0,0-.88-.39,1.12,1.12,0,0,0-1,.49,2.22,2.22,0,0,0-.35,1.32,2,2,0,0,0,.33,1.22,1.19,1.19,0,0,0,1.85,0A1.92,1.92,0,0,0,62.81,111.76Z"/><path class="cls-13" d="M71.58,112.21H67.66c.07.87.61,1.31,1.65,1.31a3.24,3.24,0,0,0,1.74-.47v1.33a4.53,4.53,0,0,1-2.16.45,2.79,2.79,0,0,1-3.06-3,3.2,3.2,0,0,1,.87-2.37,2.88,2.88,0,0,1,2.13-.87,2.63,2.63,0,0,1,2,.78,3,3,0,0,1,.72,2.11Zm-1.72-1.14c0-.86-.35-1.29-1-1.29a1,1,0,0,0-.77.37,1.72,1.72,0,0,0-.4.92Z"/><path class="cls-13" d="M28.19,125.75a3.81,3.81,0,0,1-.78,2.58,2.86,2.86,0,0,1-2.27.9,3.23,3.23,0,0,1-1.22-.23v-1.77a1.76,1.76,0,0,0,1.09.36q1.29,0,1.29-1.92v-5h1.89Z"/><path class="cls-13" d="M34.72,129.08H33v-.86h0a2,2,0,0,1-1.79,1,1.86,1.86,0,0,1-1.37-.5,1.76,1.76,0,0,1-.51-1.32q0-1.74,2.07-2l1.63-.22c0-.66-.35-1-1.06-1a3.65,3.65,0,0,0-2,.63v-1.39a4.57,4.57,0,0,1,1.05-.35,5.71,5.71,0,0,1,1.23-.15,2.26,2.26,0,0,1,2.56,2.56ZM33,126.65v-.41l-1.09.14c-.6.08-.9.35-.9.82a.64.64,0,0,0,.22.51.82.82,0,0,0,.59.21,1.1,1.1,0,0,0,.85-.36A1.31,1.31,0,0,0,33,126.65Z"/><path class="cls-13" d="M41.9,123.08l-2.23,6H37.56l-2.13-6h2l1,3.7a5.25,5.25,0,0,1,.21,1.07h0a6,6,0,0,1,.22-1L40,123.08Z"/><path class="cls-13" d="M47.5,129.08H45.75v-.86h0a2,2,0,0,1-1.79,1,1.9,1.9,0,0,1-1.38-.5,1.79,1.79,0,0,1-.5-1.32q0-1.74,2.07-2l1.63-.22c0-.66-.35-1-1.07-1a3.65,3.65,0,0,0-2,.63v-1.39a4.57,4.57,0,0,1,1.05-.35,5.7,5.7,0,0,1,1.22-.15,2.26,2.26,0,0,1,2.57,2.56Zm-1.74-2.43v-.41l-1.09.14c-.6.08-.9.35-.9.82a.64.64,0,0,0,.22.51.8.8,0,0,0,.59.21,1.1,1.1,0,0,0,.85-.36A1.31,1.31,0,0,0,45.76,126.65Z"/><path class="cls-13" d="M48.76,128.76v-1.87a3.86,3.86,0,0,0,1.11.64,3.63,3.63,0,0,0,1.21.21,2.9,2.9,0,0,0,.62-.06,1.67,1.67,0,0,0,.44-.18.87.87,0,0,0,.27-.27.67.67,0,0,0,.09-.34.77.77,0,0,0-.14-.44,1.52,1.52,0,0,0-.39-.36,4.88,4.88,0,0,0-.57-.31l-.72-.31a3.76,3.76,0,0,1-1.47-1,2.46,2.46,0,0,1-.22-2.56,2.16,2.16,0,0,1,.72-.78,3.33,3.33,0,0,1,1-.45,5.72,5.72,0,0,1,1.26-.14,8.06,8.06,0,0,1,1.17.08,4.22,4.22,0,0,1,.93.24v1.75a2.87,2.87,0,0,0-.46-.25,2.82,2.82,0,0,0-.51-.19c-.18,0-.35-.08-.52-.11l-.5,0a2.74,2.74,0,0,0-.59.06,1.62,1.62,0,0,0-.44.17.91.91,0,0,0-.28.27.6.6,0,0,0-.1.35.65.65,0,0,0,.11.38,1.19,1.19,0,0,0,.32.31,3.5,3.5,0,0,0,.49.3l.67.29a7.55,7.55,0,0,1,.9.45,3.18,3.18,0,0,1,.69.54,2,2,0,0,1,.44.68,2.4,2.4,0,0,1,.15.89,2.37,2.37,0,0,1-.27,1.18,2.07,2.07,0,0,1-.72.78,3.36,3.36,0,0,1-1.06.42,5.91,5.91,0,0,1-1.28.13,7,7,0,0,1-1.32-.12A4,4,0,0,1,48.76,128.76Z"/><path class="cls-13" d="M60.24,128.87a3.69,3.69,0,0,1-1.81.36,3.06,3.06,0,0,1-2.24-.84,2.9,2.9,0,0,1-.86-2.16,3.19,3.19,0,0,1,.92-2.41,3.38,3.38,0,0,1,2.45-.88,3.14,3.14,0,0,1,1.54.28v1.57a2.13,2.13,0,0,0-1.3-.44,1.71,1.71,0,0,0-1.26.47,1.74,1.74,0,0,0-.46,1.29,1.71,1.71,0,0,0,.44,1.25,1.66,1.66,0,0,0,1.23.45,2.42,2.42,0,0,0,1.35-.43Z"/><path class="cls-13" d="M65.37,124.75a1.66,1.66,0,0,0-.78-.18,1.14,1.14,0,0,0-1,.44,2,2,0,0,0-.34,1.21v2.86H61.45v-6H63.3v1.12h0A1.59,1.59,0,0,1,64.91,123a1.17,1.17,0,0,1,.46.07Z"/><path class="cls-13" d="M67.21,122.13a1.11,1.11,0,0,1-.77-.27.94.94,0,0,1-.29-.69.91.91,0,0,1,.29-.68,1.16,1.16,0,0,1,.77-.26,1.12,1.12,0,0,1,.77.26.93.93,0,0,1,0,1.37A1.08,1.08,0,0,1,67.21,122.13Zm.92,7H66.27v-6h1.86Z"/><path class="cls-13" d="M71.56,128.39h0v3.45H69.68v-8.76h1.86V124h0a2.18,2.18,0,0,1,1.93-1,2.15,2.15,0,0,1,1.8.8,3.42,3.42,0,0,1,.63,2.17,3.65,3.65,0,0,1-.74,2.41,2.4,2.4,0,0,1-2,.91A1.87,1.87,0,0,1,71.56,128.39Zm0-2.47v.49a1.57,1.57,0,0,0,.32,1,1.08,1.08,0,0,0,.87.39,1.12,1.12,0,0,0,1-.49,2.36,2.36,0,0,0,.35-1.38q0-1.59-1.23-1.59a1.16,1.16,0,0,0-.93.44A1.68,1.68,0,0,0,71.51,125.92Z"/><path class="cls-13" d="M80.75,129a2.62,2.62,0,0,1-1.23.22,1.76,1.76,0,0,1-2-2v-2.75h-1v-1.37h1v-1.29l1.85-.53v1.82h1.34v1.37H79.41v2.42c0,.63.24.94.74.94a1.27,1.27,0,0,0,.6-.17Z"/><path class="cls-14" d="M212.94,133h-1v-3.83h-4.34V133h-1v-8.4h1v3.69H212v-3.69h1Z"/><path class="cls-14" d="M220,125.53h-2.43V133h-1v-7.51h-2.42v-.89H220Z"/><path class="cls-14" d="M226.49,125.53h-2.43V133h-1v-7.51h-2.42v-.89h5.83Z"/><path class="cls-14" d="M228.72,129.87V133h-1v-8.4H230a3,3,0,0,1,2.09.66,2.31,2.31,0,0,1,.74,1.85,2.54,2.54,0,0,1-.82,2,3.18,3.18,0,0,1-2.22.76Zm0-4.34V129h1a2.33,2.33,0,0,0,1.56-.47,1.67,1.67,0,0,0,.53-1.31c0-1.11-.65-1.67-2-1.67Z"/><path class="cls-14" d="M243.88,132.47a5.56,5.56,0,0,1-2.81.71,3.82,3.82,0,0,1-2.91-1.16,4.24,4.24,0,0,1-1.11-3.07,4.37,4.37,0,0,1,1.23-3.2,4.21,4.21,0,0,1,3.13-1.25,5.27,5.27,0,0,1,2.3.45V126a4.44,4.44,0,0,0-2.42-.65,3,3,0,0,0-2.31,1,4.07,4.07,0,0,0-.06,5,2.9,2.9,0,0,0,2.27.91,3.5,3.5,0,0,0,1.7-.39v-2.36h-1.84v-.89h2.83Z"/><path class="cls-14" d="M250.21,133h-4.45v-8.4H250v.89h-3.28v2.8h3v.88h-3v2.94h3.47Z"/><path class="cls-14" d="M256.72,125.53H254.3V133h-1v-7.51h-2.42v-.89h5.83Z"/><path class="cls-14" d="M267,129.94h-2.37v2.36h-.77v-2.36h-2.37v-.79h2.37v-2.36h.77v2.36H267Z"/><path class="cls-14" d="M211.59,139.73h-2.43v7.51h-1v-7.51h-2.42v-.89h5.83Z"/><path class="cls-14" d="M214,147.38a2.79,2.79,0,0,1-2.12-.84,3.1,3.1,0,0,1-.79-2.23A3.26,3.26,0,0,1,212,142a3,3,0,0,1,2.23-.85,2.7,2.7,0,0,1,2.1.83,3.27,3.27,0,0,1,.75,2.29,3.23,3.23,0,0,1-.81,2.3A2.83,2.83,0,0,1,214,147.38Zm.07-5.47a1.83,1.83,0,0,0-1.46.63,2.59,2.59,0,0,0-.54,1.74,2.41,2.41,0,0,0,.55,1.68,1.83,1.83,0,0,0,1.45.62,1.78,1.78,0,0,0,1.44-.61,2.63,2.63,0,0,0,.5-1.72,2.68,2.68,0,0,0-.5-1.73A1.75,1.75,0,0,0,214.11,141.91Z"/><path class="cls-14" d="M223.48,147.24h-1.35l-2.65-2.88h0v2.88h-1v-8.88h1V144h0l2.52-2.75h1.26l-2.78,2.9Z"/><path class="cls-14" d="M229.21,144.48H225a2.28,2.28,0,0,0,.54,1.55,1.89,1.89,0,0,0,1.42.55,3,3,0,0,0,1.86-.67v.9a3.47,3.47,0,0,1-2.09.57,2.56,2.56,0,0,1-2-.81,3.39,3.39,0,0,1-.72-2.3,3.29,3.29,0,0,1,.79-2.29,2.58,2.58,0,0,1,2-.88,2.29,2.29,0,0,1,1.83.76,3.19,3.19,0,0,1,.64,2.12Zm-1-.81a2,2,0,0,0-.41-1.3,1.38,1.38,0,0,0-1.09-.46,1.54,1.54,0,0,0-1.16.49,2.21,2.21,0,0,0-.58,1.27Z"/><path class="cls-14" d="M235.57,147.24h-1v-3.42c0-1.27-.46-1.91-1.39-1.91a1.54,1.54,0,0,0-1.2.54,2,2,0,0,0-.47,1.37v3.42h-1v-6h1v1h0a2.16,2.16,0,0,1,2-1.14,1.83,1.83,0,0,1,1.51.64,2.8,2.8,0,0,1,.52,1.84Z"/><path class="cls-14" d="M245.65,147.24h-1v-1h0a2.2,2.2,0,0,1-2.06,1.16,2.24,2.24,0,0,1-1.81-.8,3.32,3.32,0,0,1-.67-2.2,3.59,3.59,0,0,1,.75-2.38,2.46,2.46,0,0,1,2-.9,1.92,1.92,0,0,1,1.8,1h0v-3.72h1Zm-1-2.71v-.88a1.7,1.7,0,0,0-.48-1.23,1.62,1.62,0,0,0-1.22-.51,1.68,1.68,0,0,0-1.39.65,2.85,2.85,0,0,0-.5,1.78,2.53,2.53,0,0,0,.48,1.63,1.58,1.58,0,0,0,1.3.61,1.64,1.64,0,0,0,1.3-.58A2.16,2.16,0,0,0,244.69,144.53Z"/><path class="cls-14" d="M252.34,144.48h-4.23a2.23,2.23,0,0,0,.53,1.55,1.89,1.89,0,0,0,1.42.55,3,3,0,0,0,1.87-.67v.9a3.53,3.53,0,0,1-2.1.57,2.53,2.53,0,0,1-2-.81,3.34,3.34,0,0,1-.73-2.3,3.29,3.29,0,0,1,.79-2.29,2.58,2.58,0,0,1,2-.88,2.28,2.28,0,0,1,1.82.76,3.19,3.19,0,0,1,.64,2.12Zm-1-.81a2,2,0,0,0-.4-1.3,1.4,1.4,0,0,0-1.1-.46,1.54,1.54,0,0,0-1.16.49,2.21,2.21,0,0,0-.58,1.27Z"/><path class="cls-14" d="M261.23,147.24h-1v-.93h0a2,2,0,0,1-1.85,1.07,2,2,0,0,1-1.4-.47,1.65,1.65,0,0,1-.51-1.26c0-1.12.66-1.77,2-2l1.8-.25q0-1.53-1.23-1.53a3,3,0,0,0-2,.74v-1a3.68,3.68,0,0,1,2-.57c1.41,0,2.11.75,2.11,2.24Zm-1-3-1.44.2a2.25,2.25,0,0,0-1,.33,1,1,0,0,0-.34.84.92.92,0,0,0,.31.72,1.25,1.25,0,0,0,.84.28,1.54,1.54,0,0,0,1.18-.51,1.76,1.76,0,0,0,.46-1.26Z"/><path class="cls-14" d="M267.06,147a3.1,3.1,0,0,1-1.64.41,2.71,2.71,0,0,1-2.07-.83,3,3,0,0,1-.79-2.17,3.32,3.32,0,0,1,.85-2.38,3,3,0,0,1,2.27-.9,3.06,3.06,0,0,1,1.39.3v1a2.45,2.45,0,0,0-1.43-.47,2,2,0,0,0-1.51.66,2.51,2.51,0,0,0-.58,1.73,2.4,2.4,0,0,0,.55,1.67,1.92,1.92,0,0,0,1.48.61,2.4,2.4,0,0,0,1.48-.53Z"/><path class="cls-14" d="M272.53,147a3.1,3.1,0,0,1-1.64.41,2.71,2.71,0,0,1-2.07-.83,3,3,0,0,1-.79-2.17,3.36,3.36,0,0,1,.85-2.38,3,3,0,0,1,2.27-.9,3.06,3.06,0,0,1,1.39.3v1a2.45,2.45,0,0,0-1.43-.47,1.91,1.91,0,0,0-1.5.66,2.47,2.47,0,0,0-.59,1.73,2.4,2.4,0,0,0,.55,1.67,1.93,1.93,0,0,0,1.49.61,2.39,2.39,0,0,0,1.47-.53Z"/><path class="cls-14" d="M278.74,144.48H274.5A2.28,2.28,0,0,0,275,146a1.87,1.87,0,0,0,1.42.55,3,3,0,0,0,1.86-.67v.9a3.5,3.5,0,0,1-2.09.57,2.54,2.54,0,0,1-2-.81,3.39,3.39,0,0,1-.73-2.3,3.29,3.29,0,0,1,.8-2.29,2.56,2.56,0,0,1,2-.88,2.28,2.28,0,0,1,1.82.76,3.2,3.2,0,0,1,.65,2.12Zm-1-.81a2,2,0,0,0-.4-1.3,1.39,1.39,0,0,0-1.1-.46,1.52,1.52,0,0,0-1.15.49,2.22,2.22,0,0,0-.59,1.27Z"/><path class="cls-14" d="M279.75,147v-1a2.9,2.9,0,0,0,1.73.58c.85,0,1.27-.29,1.27-.85a.78.78,0,0,0-.11-.41,1,1,0,0,0-.29-.29,2.27,2.27,0,0,0-.44-.23l-.53-.22a5.16,5.16,0,0,1-.7-.32,1.94,1.94,0,0,1-.51-.36,1.41,1.41,0,0,1-.3-.46,1.57,1.57,0,0,1-.1-.6,1.44,1.44,0,0,1,.19-.75,1.78,1.78,0,0,1,.51-.55,2.77,2.77,0,0,1,.74-.33,3.59,3.59,0,0,1,2.25.16v1a2.79,2.79,0,0,0-1.53-.43,1.75,1.75,0,0,0-.48.06,1,1,0,0,0-.37.18.77.77,0,0,0-.25.26.81.81,0,0,0-.08.34,1,1,0,0,0,.08.4.94.94,0,0,0,.25.28,2.48,2.48,0,0,0,.4.22l.54.22a6.85,6.85,0,0,1,.71.31,2.82,2.82,0,0,1,.54.36,1.41,1.41,0,0,1,.34.47,1.54,1.54,0,0,1,.12.63,1.49,1.49,0,0,1-.19.77,1.74,1.74,0,0,1-.53.55,2.54,2.54,0,0,1-.75.32,3.82,3.82,0,0,1-.9.1A3.54,3.54,0,0,1,279.75,147Z"/><path class="cls-14" d="M287.64,147.38a2.79,2.79,0,0,1-2.12-.84,3.1,3.1,0,0,1-.79-2.23,3.26,3.26,0,0,1,.82-2.36,3,3,0,0,1,2.24-.85,2.69,2.69,0,0,1,2.09.83,3.27,3.27,0,0,1,.75,2.29,3.23,3.23,0,0,1-.81,2.3A2.83,2.83,0,0,1,287.64,147.38Zm.07-5.47a1.83,1.83,0,0,0-1.46.63,2.59,2.59,0,0,0-.54,1.74,2.41,2.41,0,0,0,.55,1.68,1.85,1.85,0,0,0,1.45.62,1.78,1.78,0,0,0,1.44-.61,2.63,2.63,0,0,0,.5-1.72,2.68,2.68,0,0,0-.5-1.73A1.75,1.75,0,0,0,287.71,141.91Z"/><path class="cls-15" d="M393.41,54.32v2.89h-1.89v-8.4h3c2.11,0,3.17.89,3.17,2.68a2.58,2.58,0,0,1-.91,2,3.62,3.62,0,0,1-2.43.78Zm0-4.06v2.62h.75c1,0,1.51-.44,1.51-1.32s-.5-1.3-1.51-1.3Z"/><path class="cls-15" d="M400.56,57.21h-1.85V48.33h1.85Z"/><path class="cls-15" d="M407.11,57.21h-1.75v-.86h0a2,2,0,0,1-1.79,1,1.86,1.86,0,0,1-1.37-.5,1.76,1.76,0,0,1-.51-1.32q0-1.74,2.07-2l1.63-.22c0-.66-.35-1-1.06-1a3.65,3.65,0,0,0-2,.63V51.57a4.57,4.57,0,0,1,1.05-.35,5.71,5.71,0,0,1,1.23-.15,2.26,2.26,0,0,1,2.56,2.56Zm-1.74-2.43v-.41l-1.09.14c-.6.08-.9.35-.9.82a.64.64,0,0,0,.22.51.82.82,0,0,0,.59.21,1.08,1.08,0,0,0,.85-.36A1.31,1.31,0,0,0,405.37,54.78Z"/><path class="cls-15" d="M412.2,57.14a2.62,2.62,0,0,1-1.23.22,1.76,1.76,0,0,1-2-2V52.58h-1V51.21h1V49.92l1.85-.53v1.82h1.34v1.37h-1.34V55c0,.63.24.94.74.94a1.24,1.24,0,0,0,.6-.17Z"/><path class="cls-15" d="M418.24,57.21h-1.75v-.86h0a2,2,0,0,1-1.78,1,1.88,1.88,0,0,1-1.38-.5,1.79,1.79,0,0,1-.5-1.32q0-1.74,2.07-2l1.63-.22c0-.66-.36-1-1.07-1a3.7,3.7,0,0,0-2,.63V51.57a4.67,4.67,0,0,1,1.06-.35,5.7,5.7,0,0,1,1.22-.15,2.27,2.27,0,0,1,2.57,2.56Zm-1.74-2.43v-.41l-1.09.14c-.6.08-.9.35-.9.82a.64.64,0,0,0,.22.51.8.8,0,0,0,.59.21,1.1,1.1,0,0,0,.85-.36A1.31,1.31,0,0,0,416.5,54.78Z"/><path class="cls-15" d="M423.62,49.75a1.77,1.77,0,0,0-.69-.14c-.59,0-.89.32-.89,1v.64h1.37v1.37H422v4.63H420.2V52.58h-1V51.21h1v-.74a2.16,2.16,0,0,1,.66-1.65,2.57,2.57,0,0,1,1.82-.63,3.11,3.11,0,0,1,.94.12Z"/><path class="cls-15" d="M427.16,57.36a3.24,3.24,0,0,1-2.36-.84,3,3,0,0,1-.85-2.28,3,3,0,0,1,.89-2.33,3.35,3.35,0,0,1,2.41-.84,3.19,3.19,0,0,1,2.34.84,3,3,0,0,1,.85,2.22,3.15,3.15,0,0,1-.88,2.36A3.24,3.24,0,0,1,427.16,57.36Zm0-4.88a1.21,1.21,0,0,0-1,.46,2,2,0,0,0-.36,1.27c0,1.16.46,1.73,1.39,1.73s1.33-.59,1.33-1.77S428.1,52.48,427.21,52.48Z"/><path class="cls-15" d="M435.55,52.88a1.61,1.61,0,0,0-.78-.18,1.14,1.14,0,0,0-.94.44,1.93,1.93,0,0,0-.34,1.21v2.86h-1.85v-6h1.85v1.12h0a1.6,1.6,0,0,1,1.59-1.22,1.12,1.12,0,0,1,.45.07Z"/><path class="cls-15" d="M446,57.21h-1.85V53.79c0-.87-.32-1.31-1-1.31a.89.89,0,0,0-.74.4,1.61,1.61,0,0,0-.29,1v3.35h-1.85V53.76c0-.85-.32-1.28-1-1.28a.9.9,0,0,0-.75.38,1.65,1.65,0,0,0-.29,1v3.33h-1.85v-6h1.85v.94h0a2.25,2.25,0,0,1,1.93-1.08A1.72,1.72,0,0,1,442,52.19a2.22,2.22,0,0,1,2-1.12c1.31,0,2,.8,2,2.41Z"/><path class="cls-15" d="M452.43,57.21h-1.75v-.86h0a2,2,0,0,1-1.79,1,1.86,1.86,0,0,1-1.37-.5,1.75,1.75,0,0,1-.5-1.32q0-1.74,2.07-2l1.62-.22c0-.66-.35-1-1.06-1a3.65,3.65,0,0,0-2,.63V51.57a4.67,4.67,0,0,1,1.06-.35,5.56,5.56,0,0,1,1.22-.15,2.26,2.26,0,0,1,2.56,2.56Zm-1.74-2.43v-.41l-1.09.14c-.6.08-.9.35-.9.82a.67.67,0,0,0,.22.51.84.84,0,0,0,.6.21,1.11,1.11,0,0,0,.85-.36A1.35,1.35,0,0,0,450.69,54.78Z"/><path class="cls-15" d="M392.88,71.61H391v-.82h0a2.06,2.06,0,0,1-1.85,1,2.26,2.26,0,0,1-1.81-.79,3.28,3.28,0,0,1-.69-2.22,3.57,3.57,0,0,1,.76-2.39,2.47,2.47,0,0,1,2-.89,1.66,1.66,0,0,1,1.61.83h0V62.73h1.85Zm-1.82-2.91v-.46a1.4,1.4,0,0,0-.34-1,1.1,1.1,0,0,0-.88-.39,1.12,1.12,0,0,0-1,.49,2.24,2.24,0,0,0-.35,1.33,1.87,1.87,0,0,0,.34,1.21,1.09,1.09,0,0,0,.92.43,1.12,1.12,0,0,0,.92-.45A1.85,1.85,0,0,0,391.06,68.7Z"/><path class="cls-15" d="M399.83,69.14h-3.91c.06.87.61,1.31,1.64,1.31A3.24,3.24,0,0,0,399.3,70v1.33a4.5,4.5,0,0,1-2.16.45,2.79,2.79,0,0,1-3.06-3.05,3.2,3.2,0,0,1,.87-2.37,2.9,2.9,0,0,1,2.13-.87,2.62,2.62,0,0,1,2,.78,3,3,0,0,1,.72,2.11ZM398.11,68c0-.86-.35-1.29-1-1.29a1,1,0,0,0-.77.37,1.72,1.72,0,0,0-.4.92Z"/><path class="cls-15" d="M405.18,64.66a1.11,1.11,0,0,1-.77-.27.92.92,0,0,1-.3-.69.88.88,0,0,1,.3-.68,1.16,1.16,0,0,1,.77-.26A1.14,1.14,0,0,1,406,63a.93.93,0,0,1,0,1.37A1.1,1.1,0,0,1,405.18,64.66Zm.91,7h-1.85v-6h1.85Z"/><path class="cls-15" d="M413.52,71.61h-1.85v-.82h0a2.07,2.07,0,0,1-1.86,1A2.27,2.27,0,0,1,408,71a3.28,3.28,0,0,1-.69-2.22,3.62,3.62,0,0,1,.76-2.39,2.47,2.47,0,0,1,2-.89,1.69,1.69,0,0,1,1.62.83h0V62.73h1.85Zm-1.81-2.91v-.46a1.45,1.45,0,0,0-.34-1,1.14,1.14,0,0,0-.89-.39,1.12,1.12,0,0,0-1,.49,2.24,2.24,0,0,0-.35,1.33,1.94,1.94,0,0,0,.34,1.21,1.09,1.09,0,0,0,.92.43,1.11,1.11,0,0,0,.92-.45A1.86,1.86,0,0,0,411.71,68.7Z"/><path class="cls-15" d="M420.47,69.14h-3.91c.06.87.61,1.31,1.64,1.31a3.24,3.24,0,0,0,1.74-.47v1.33a4.5,4.5,0,0,1-2.16.45,2.81,2.81,0,0,1-3.06-3.05,3.2,3.2,0,0,1,.87-2.37,2.9,2.9,0,0,1,2.13-.87,2.6,2.6,0,0,1,2,.78,3,3,0,0,1,.72,2.11ZM418.75,68c0-.86-.34-1.29-1-1.29a1,1,0,0,0-.77.37,1.63,1.63,0,0,0-.39.92Z"/><path class="cls-15" d="M427.37,71.61h-1.85V68.28c0-.93-.33-1.4-1-1.4a1,1,0,0,0-.79.37,1.41,1.41,0,0,0-.32.94v3.42h-1.85v-6h1.85v1h0a2.11,2.11,0,0,1,1.93-1.09c1.32,0,2,.82,2,2.47Z"/><path class="cls-15" d="M432.46,71.54a2.67,2.67,0,0,1-1.24.22c-1.3,0-2-.68-2-2V67h-1V65.61h1V64.32l1.84-.53v1.82h1.35V67h-1.35V69.4c0,.63.25.94.75.94a1.19,1.19,0,0,0,.6-.17Z"/><path class="cls-15" d="M434.44,64.66a1.11,1.11,0,0,1-.77-.27.92.92,0,0,1-.3-.69.88.88,0,0,1,.3-.68,1.16,1.16,0,0,1,.77-.26,1.14,1.14,0,0,1,.77.26.93.93,0,0,1,0,1.37A1.1,1.1,0,0,1,434.44,64.66Zm.91,7H433.5v-6h1.85Z"/><path class="cls-15" d="M442.78,71.61h-1.85v-.82h0a2.07,2.07,0,0,1-1.86,1,2.27,2.27,0,0,1-1.81-.79,3.28,3.28,0,0,1-.68-2.22,3.62,3.62,0,0,1,.75-2.39,2.5,2.5,0,0,1,2-.89,1.68,1.68,0,0,1,1.62.83h0V62.73h1.85ZM441,68.7v-.46a1.45,1.45,0,0,0-.34-1,1.2,1.2,0,0,0-1.85.1,2.24,2.24,0,0,0-.34,1.33,1.94,1.94,0,0,0,.33,1.21,1.18,1.18,0,0,0,1.84,0A1.86,1.86,0,0,0,441,68.7Z"/><path class="cls-15" d="M449.33,71.61h-1.75v-.86h0a2,2,0,0,1-1.79,1,1.86,1.86,0,0,1-1.37-.5,1.75,1.75,0,0,1-.5-1.32q0-1.74,2.07-2l1.62-.22c0-.66-.35-1-1.06-1a3.59,3.59,0,0,0-2,.64V66a4.67,4.67,0,0,1,1.06-.35,5.56,5.56,0,0,1,1.22-.15A2.26,2.26,0,0,1,449.33,68Zm-1.74-2.43v-.41l-1.09.14c-.6.08-.9.35-.9.82a.71.71,0,0,0,.22.52.89.89,0,0,0,.6.2,1.11,1.11,0,0,0,.85-.36A1.3,1.3,0,0,0,447.59,69.18Z"/><path class="cls-15" d="M456.67,71.61h-1.85v-.82h0a2.09,2.09,0,0,1-1.86,1,2.26,2.26,0,0,1-1.81-.79,3.28,3.28,0,0,1-.69-2.22,3.57,3.57,0,0,1,.76-2.39,2.47,2.47,0,0,1,2-.89,1.69,1.69,0,0,1,1.62.83h0V62.73h1.85Zm-1.82-2.91v-.46a1.4,1.4,0,0,0-.34-1,1.1,1.1,0,0,0-.88-.39,1.12,1.12,0,0,0-1,.49,2.24,2.24,0,0,0-.35,1.33,1.87,1.87,0,0,0,.34,1.21,1.09,1.09,0,0,0,.92.43,1.12,1.12,0,0,0,.92-.45A1.85,1.85,0,0,0,454.85,68.7Z"/><path class="cls-15" d="M392.55,86H390.7v-.82h0a2.08,2.08,0,0,1-1.85,1,2.29,2.29,0,0,1-1.81-.79,3.28,3.28,0,0,1-.69-2.22,3.57,3.57,0,0,1,.76-2.39,2.47,2.47,0,0,1,2-.89,1.66,1.66,0,0,1,1.61.83h0V77.13h1.85Zm-1.82-2.92v-.45a1.4,1.4,0,0,0-.34-1,1.1,1.1,0,0,0-.88-.39,1.12,1.12,0,0,0-1,.49,2.22,2.22,0,0,0-.35,1.32,1.89,1.89,0,0,0,.34,1.22,1.09,1.09,0,0,0,.92.43,1.12,1.12,0,0,0,.92-.45A1.92,1.92,0,0,0,390.73,83.09Z"/><path class="cls-15" d="M399.5,83.54h-3.92c.07.87.62,1.31,1.65,1.31a3.24,3.24,0,0,0,1.74-.47v1.33a4.5,4.5,0,0,1-2.16.45,2.79,2.79,0,0,1-3.06-3,3.2,3.2,0,0,1,.87-2.37,2.9,2.9,0,0,1,2.13-.87,2.62,2.62,0,0,1,2,.78,3,3,0,0,1,.72,2.11Zm-1.72-1.14c0-.86-.35-1.29-1-1.29a1,1,0,0,0-.77.37,1.72,1.72,0,0,0-.4.92Z"/><path class="cls-15" d="M413.67,86H411.8V81c0-.55,0-1.15.07-1.8h-.05c-.1.51-.19.88-.26,1.11l-2,5.71H408l-2-5.65a8.85,8.85,0,0,1-.27-1.17h0c0,.82.08,1.55.08,2.18V86h-1.71v-8.4h2.77l1.72,5a6.58,6.58,0,0,1,.3,1.2h0a12.46,12.46,0,0,1,.34-1.21l1.71-5h2.71Z"/><path class="cls-15" d="M416.33,79.06a1.11,1.11,0,0,1-.77-.27.94.94,0,0,1-.29-.69.91.91,0,0,1,.29-.68,1.16,1.16,0,0,1,.77-.26,1.12,1.12,0,0,1,.77.26.93.93,0,0,1,0,1.37A1.08,1.08,0,0,1,416.33,79.06Zm.92,7h-1.86V80h1.86Z"/><path class="cls-15" d="M423.35,85.8a3.69,3.69,0,0,1-1.81.36,3.06,3.06,0,0,1-2.24-.84,2.89,2.89,0,0,1-.85-2.16,3.19,3.19,0,0,1,.91-2.41,3.4,3.4,0,0,1,2.46-.88,3.1,3.1,0,0,1,1.53.28v1.57a2.12,2.12,0,0,0-1.29-.44A1.61,1.61,0,0,0,420.33,83a1.75,1.75,0,0,0,.44,1.25,1.66,1.66,0,0,0,1.23.45,2.42,2.42,0,0,0,1.35-.43Z"/><path class="cls-15" d="M428.48,81.68a1.61,1.61,0,0,0-.78-.18,1.12,1.12,0,0,0-.94.44,1.93,1.93,0,0,0-.34,1.21V86h-1.86V80h1.86v1.12h0A1.59,1.59,0,0,1,428,79.91a1.14,1.14,0,0,1,.46.07Z"/><path class="cls-15" d="M432.15,86.16a3.24,3.24,0,0,1-2.36-.84,3,3,0,0,1-.85-2.28,3,3,0,0,1,.89-2.33,3.34,3.34,0,0,1,2.4-.84,3.2,3.2,0,0,1,2.35.84,3,3,0,0,1,.85,2.22,3.15,3.15,0,0,1-.88,2.36A3.24,3.24,0,0,1,432.15,86.16Zm.05-4.88a1.21,1.21,0,0,0-1,.46,2,2,0,0,0-.36,1.27c0,1.16.46,1.73,1.39,1.73s1.33-.59,1.33-1.77S433.09,81.28,432.2,81.28Z"/><path class="cls-15" d="M436.24,85.85v-1.5a3.5,3.5,0,0,0,.91.41,3,3,0,0,0,.86.14,1.83,1.83,0,0,0,.77-.14.43.43,0,0,0,.29-.41.41.41,0,0,0-.13-.29,1.32,1.32,0,0,0-.33-.2,4.72,4.72,0,0,0-.45-.16l-.46-.16a4.68,4.68,0,0,1-.63-.29,1.84,1.84,0,0,1-.46-.36,1.72,1.72,0,0,1-.28-.47,2.06,2.06,0,0,1-.09-.64,1.61,1.61,0,0,1,.22-.87,1.84,1.84,0,0,1,.58-.6,3.15,3.15,0,0,1,.84-.34,4.46,4.46,0,0,1,1-.1,5.52,5.52,0,0,1,.81.06,5.88,5.88,0,0,1,.81.18v1.43a3,3,0,0,0-.75-.31,3.11,3.11,0,0,0-.79-.1,2,2,0,0,0-.35,0,1.15,1.15,0,0,0-.28.09.51.51,0,0,0-.19.16.34.34,0,0,0-.07.22.4.4,0,0,0,.1.28.75.75,0,0,0,.28.2,2.72,2.72,0,0,0,.38.16l.41.13a7.13,7.13,0,0,1,.67.28,2.55,2.55,0,0,1,.51.36,1.58,1.58,0,0,1,.33.48,1.86,1.86,0,0,1,.11.66,1.76,1.76,0,0,1-.23.91,1.9,1.9,0,0,1-.61.62,3.05,3.05,0,0,1-.89.34,5,5,0,0,1-1,.11A5.17,5.17,0,0,1,436.24,85.85Z"/><path class="cls-15" d="M444.77,86.16a3.23,3.23,0,0,1-2.36-.84,3.47,3.47,0,0,1,0-4.61,3.38,3.38,0,0,1,2.41-.84,3.16,3.16,0,0,1,2.34.84,3,3,0,0,1,.85,2.22,3.18,3.18,0,0,1-.87,2.36A3.27,3.27,0,0,1,444.77,86.16Zm0-4.88a1.24,1.24,0,0,0-1,.46,2,2,0,0,0-.36,1.27c0,1.16.47,1.73,1.4,1.73s1.33-.59,1.33-1.77S445.71,81.28,444.81,81.28Z"/><path class="cls-15" d="M453,78.55a1.77,1.77,0,0,0-.69-.14c-.59,0-.89.32-.89,1V80h1.37v1.37H451.4V86h-1.85V81.38h-1V80h1v-.74a2.15,2.15,0,0,1,.67-1.65A2.55,2.55,0,0,1,452,77a3.16,3.16,0,0,1,.94.12Z"/><path class="cls-15" d="M457.52,85.94a2.7,2.7,0,0,1-1.24.22,1.77,1.77,0,0,1-2-2V81.38h-1V80h1V78.72l1.85-.53V80h1.35v1.37h-1.35V83.8c0,.63.25.94.74.94a1.31,1.31,0,0,0,.61-.17Z"/><path class="cls-16" d="M405.05,161.23h-1.87v-5c0-.55,0-1.15.07-1.8h-.05a7.75,7.75,0,0,1-.26,1.11l-2,5.71h-1.55l-2-5.65c-.05-.15-.14-.54-.26-1.17h-.06c.06.82.08,1.55.08,2.18v4.64h-1.7v-8.4h2.77l1.71,5a6.58,6.58,0,0,1,.3,1.2h0a10.27,10.27,0,0,1,.33-1.21l1.72-5h2.7Z"/><path class="cls-16" d="M407.72,154.28A1.06,1.06,0,0,1,407,154a.88.88,0,0,1-.3-.68.87.87,0,0,1,.3-.68,1.14,1.14,0,0,1,.77-.26,1.16,1.16,0,0,1,.77.26.89.89,0,0,1,.29.68.91.91,0,0,1-.29.69A1.11,1.11,0,0,1,407.72,154.28Zm.91,6.95h-1.85v-6h1.85Z"/><path class="cls-16" d="M414.74,161a3.73,3.73,0,0,1-1.82.36,3,3,0,0,1-2.23-.84,2.9,2.9,0,0,1-.86-2.16,3.19,3.19,0,0,1,.92-2.41,3.38,3.38,0,0,1,2.45-.88,3.14,3.14,0,0,1,1.54.28v1.57a2.13,2.13,0,0,0-1.3-.44,1.71,1.71,0,0,0-1.26.47,1.75,1.75,0,0,0-.47,1.29,1.71,1.71,0,0,0,.45,1.25,1.62,1.62,0,0,0,1.22.45,2.47,2.47,0,0,0,1.36-.43Z"/><path class="cls-16" d="M419.86,156.9a1.61,1.61,0,0,0-.78-.18,1.14,1.14,0,0,0-.94.44,1.93,1.93,0,0,0-.34,1.21v2.86H416v-6h1.85v1.12h0a1.6,1.6,0,0,1,1.59-1.22,1.12,1.12,0,0,1,.45.07Z"/><path class="cls-16" d="M423.54,161.38a3.23,3.23,0,0,1-2.36-.84,3.47,3.47,0,0,1,0-4.61,3.37,3.37,0,0,1,2.41-.84,3.18,3.18,0,0,1,2.34.84,3,3,0,0,1,.85,2.22,3.18,3.18,0,0,1-.87,2.36A3.27,3.27,0,0,1,423.54,161.38Zm0-4.88a1.24,1.24,0,0,0-1,.46,2,2,0,0,0-.36,1.27c0,1.15.47,1.73,1.39,1.73s1.33-.59,1.33-1.77S424.48,156.5,423.58,156.5Z"/><path class="cls-16" d="M427.62,161.07v-1.5a3.66,3.66,0,0,0,.91.41,3,3,0,0,0,.86.14,1.84,1.84,0,0,0,.78-.14.42.42,0,0,0,.28-.41.37.37,0,0,0-.13-.29.88.88,0,0,0-.33-.2,2.52,2.52,0,0,0-.44-.16l-.47-.16a5.16,5.16,0,0,1-.62-.29,1.54,1.54,0,0,1-.46-.36,1.44,1.44,0,0,1-.28-.48,1.7,1.7,0,0,1-.1-.63,1.61,1.61,0,0,1,.22-.87,1.88,1.88,0,0,1,.59-.6,3,3,0,0,1,.83-.34,4.62,4.62,0,0,1,1-.1,5.49,5.49,0,0,1,.8.06,5.3,5.3,0,0,1,.81.18v1.43a2.76,2.76,0,0,0-.75-.31,3.11,3.11,0,0,0-.79-.1,1.87,1.87,0,0,0-.34,0,1.23,1.23,0,0,0-.29.09.6.6,0,0,0-.19.16.34.34,0,0,0-.07.22.41.41,0,0,0,.11.28.79.79,0,0,0,.27.2,2.72,2.72,0,0,0,.38.16l.41.13a6.16,6.16,0,0,1,.67.28,2.55,2.55,0,0,1,.51.36,1.29,1.29,0,0,1,.33.48,1.86,1.86,0,0,1-.12,1.57,1.78,1.78,0,0,1-.61.61,2.72,2.72,0,0,1-.89.35,5,5,0,0,1-1,.11A5.17,5.17,0,0,1,427.62,161.07Z"/><path class="cls-16" d="M436.15,161.38a3.24,3.24,0,0,1-2.36-.84,3.05,3.05,0,0,1-.86-2.28,3,3,0,0,1,.9-2.33,3.34,3.34,0,0,1,2.4-.84,3.2,3.2,0,0,1,2.35.84,3,3,0,0,1,.85,2.22,3.18,3.18,0,0,1-.88,2.36A3.24,3.24,0,0,1,436.15,161.38Zm.05-4.88a1.21,1.21,0,0,0-1,.46,2,2,0,0,0-.36,1.27c0,1.15.46,1.73,1.39,1.73s1.33-.59,1.33-1.77S437.09,156.5,436.2,156.5Z"/><path class="cls-16" d="M444.36,153.77a1.77,1.77,0,0,0-.69-.14c-.59,0-.89.32-.89,1v.64h1.38v1.37h-1.38v4.63h-1.84V156.6h-1v-1.37h1v-.74a2.12,2.12,0,0,1,.67-1.65,2.52,2.52,0,0,1,1.81-.63,3.11,3.11,0,0,1,.94.12Z"/><path class="cls-16" d="M448.9,161.16a2.62,2.62,0,0,1-1.23.22,1.76,1.76,0,0,1-2-2V156.6h-1v-1.37h1v-1.29l1.84-.53v1.82h1.35v1.37h-1.35V159c0,.63.25.94.75.94a1.31,1.31,0,0,0,.6-.17Z"/><path class="cls-16" d="M401,175.07a6.08,6.08,0,0,1-3.06.71,4.4,4.4,0,0,1-3.19-1.12,4.08,4.08,0,0,1-1.17-3.09,4.29,4.29,0,0,1,1.28-3.23,4.65,4.65,0,0,1,3.39-1.25,6.84,6.84,0,0,1,2.36.37v1.77a4.73,4.73,0,0,0-2.38-.56,2.56,2.56,0,0,0-1.92.77,3.27,3.27,0,0,0-.08,4,2.34,2.34,0,0,0,1.8.71,2.52,2.52,0,0,0,1.08-.19v-1.64h-1.68v-1.51H401Z"/><path class="cls-16" d="M406.39,171.3a1.61,1.61,0,0,0-.78-.18,1.12,1.12,0,0,0-.94.44,1.93,1.93,0,0,0-.34,1.21v2.86h-1.86v-6h1.86v1.12h0a1.59,1.59,0,0,1,1.58-1.22,1.14,1.14,0,0,1,.46.07Z"/><path class="cls-16" d="M412.24,175.63h-1.75v-.86h0a2,2,0,0,1-1.79,1,1.86,1.86,0,0,1-1.37-.5,1.76,1.76,0,0,1-.51-1.32q0-1.74,2.07-2l1.63-.22c0-.66-.35-1-1.06-1a3.65,3.65,0,0,0-2,.63V170a4.57,4.57,0,0,1,1.05-.35,5.71,5.71,0,0,1,1.23-.15,2.26,2.26,0,0,1,2.56,2.56Zm-1.74-2.43v-.41l-1.09.14c-.6.08-.9.35-.9.82a.64.64,0,0,0,.22.51.82.82,0,0,0,.59.21,1.08,1.08,0,0,0,.85-.36A1.31,1.31,0,0,0,410.5,173.2Z"/><path class="cls-16" d="M415.58,174.94h0v3.45h-1.85v-8.76h1.85v.91h0a2.18,2.18,0,0,1,1.93-1,2.14,2.14,0,0,1,1.8.8,3.34,3.34,0,0,1,.64,2.17,3.71,3.71,0,0,1-.74,2.41,2.43,2.43,0,0,1-2,.91A1.87,1.87,0,0,1,415.58,174.94Zm-.05-2.47V173a1.52,1.52,0,0,0,.33,1,1.06,1.06,0,0,0,.86.39,1.12,1.12,0,0,0,1-.49,2.36,2.36,0,0,0,.35-1.38q0-1.59-1.23-1.59a1.18,1.18,0,0,0-.93.43A1.73,1.73,0,0,0,415.53,172.47Z"/><path class="cls-16" d="M426.91,175.63h-1.85v-3.41q0-1.32-1-1.32a1,1,0,0,0-.8.37,1.45,1.45,0,0,0-.3.94v3.42h-1.85v-8.88H423v3.77h0a2.11,2.11,0,0,1,1.85-1q2,0,2,2.46Z"/><path class="cls-16" d="M439.25,175.63h-2.06l-.6-1.87h-3l-.6,1.87H431l3.06-8.4h2.25Zm-3.09-3.32-.9-2.82a3.12,3.12,0,0,1-.14-.76h-.05a3.06,3.06,0,0,1-.15.73l-.91,2.85Z"/><path class="cls-16" d="M442.2,172.74v2.89h-1.9v-8.4h3c2.11,0,3.17.89,3.17,2.68a2.58,2.58,0,0,1-.91,2.05,3.62,3.62,0,0,1-2.43.78Zm0-4.06v2.62h.74c1,0,1.51-.44,1.51-1.32s-.5-1.3-1.51-1.3Z"/><path class="cls-16" d="M449.57,175.63h-1.9v-8.4h1.9Z"/><path class="cls-14" d="M186.5,10.41h-1V2h1Z"/><path class="cls-14" d="M193.48,10.41h-1V7c0-1.28-.47-1.91-1.4-1.91a1.52,1.52,0,0,0-1.19.54A2,2,0,0,0,189.46,7v3.42h-1v-6h1v1h0a2.17,2.17,0,0,1,2-1.14A1.85,1.85,0,0,1,193,4.9a2.84,2.84,0,0,1,.52,1.84Z"/><path class="cls-14" d="M195.7,2.89a.61.61,0,0,1-.62-.62.61.61,0,0,1,.18-.45.6.6,0,0,1,.44-.18.64.64,0,0,1,.45.18.61.61,0,0,1,.18.45.58.58,0,0,1-.18.43A.61.61,0,0,1,195.7,2.89Zm.47,7.52h-1v-6h1Z"/><path class="cls-14" d="M202.12,10.13a3.1,3.1,0,0,1-1.64.42,2.72,2.72,0,0,1-2.07-.83,3,3,0,0,1-.79-2.17,3.3,3.3,0,0,1,.85-2.38,3,3,0,0,1,2.26-.9,3.24,3.24,0,0,1,1.4.29v1a2.4,2.4,0,0,0-1.43-.47,1.93,1.93,0,0,0-1.51.66,2.5,2.5,0,0,0-.59,1.73,2.36,2.36,0,0,0,.56,1.66,1.87,1.87,0,0,0,1.48.61,2.41,2.41,0,0,0,1.48-.52Z"/><path class="cls-14" d="M204,2.89a.61.61,0,0,1-.62-.62.61.61,0,0,1,.18-.45.6.6,0,0,1,.44-.18.64.64,0,0,1,.45.18.61.61,0,0,1,.18.45.58.58,0,0,1-.18.43A.61.61,0,0,1,204,2.89Zm.47,7.52h-1v-6h1Z"/><path class="cls-14" d="M210.6,10.41h-1V9.47h0a2.2,2.2,0,0,1-3.25.61,1.65,1.65,0,0,1-.51-1.26c0-1.13.66-1.78,2-2l1.8-.25q0-1.53-1.23-1.53a2.91,2.91,0,0,0-2,.74v-1a3.76,3.76,0,0,1,2-.56c1.41,0,2.11.75,2.11,2.24Zm-1-3-1.44.2a2.53,2.53,0,0,0-1,.33,1,1,0,0,0-.34.85.89.89,0,0,0,.31.71,1.2,1.2,0,0,0,.84.28,1.56,1.56,0,0,0,1.18-.5A1.79,1.79,0,0,0,209.64,8Z"/><path class="cls-14" d="M215.46,5.38a1.18,1.18,0,0,0-.73-.19,1.23,1.23,0,0,0-1,.58,2.72,2.72,0,0,0-.41,1.58v3.06h-1v-6h1V5.65h0a2.12,2.12,0,0,1,.63-1,1.43,1.43,0,0,1,.95-.36,1.41,1.41,0,0,1,.57.09Z"/><path class="cls-14" d="M219.26,10.19v-1a2.82,2.82,0,0,0,1.73.58q1.26,0,1.26-.84a.68.68,0,0,0-.11-.41,1.17,1.17,0,0,0-.29-.3,2.86,2.86,0,0,0-.43-.23l-.54-.21c-.26-.11-.5-.21-.7-.32a2.22,2.22,0,0,1-.5-.36,1.38,1.38,0,0,1-.31-.46,1.63,1.63,0,0,1-.1-.61,1.38,1.38,0,0,1,.19-.74,1.7,1.7,0,0,1,.52-.55,2.21,2.21,0,0,1,.73-.33,3.49,3.49,0,0,1,.86-.11,3.41,3.41,0,0,1,1.39.27v1a2.7,2.7,0,0,0-1.52-.43,1.88,1.88,0,0,0-.49.06,1.26,1.26,0,0,0-.37.17,1,1,0,0,0-.24.27.67.67,0,0,0-.09.34.75.75,0,0,0,.09.39,1,1,0,0,0,.25.29,2.11,2.11,0,0,0,.4.22l.53.21c.27.11.5.21.71.32a2.3,2.3,0,0,1,.54.36,1.37,1.37,0,0,1,.47,1.09,1.51,1.51,0,0,1-.2.78,1.68,1.68,0,0,1-.52.54,2.26,2.26,0,0,1-.76.32,3.27,3.27,0,0,1-.9.11A3.37,3.37,0,0,1,219.26,10.19Z"/><path class="cls-14" d="M229.45,7.65h-4.23a2.25,2.25,0,0,0,.53,1.55,1.88,1.88,0,0,0,1.42.54A2.94,2.94,0,0,0,229,9.07V10a3.53,3.53,0,0,1-2.1.57,2.51,2.51,0,0,1-2-.82,3.31,3.31,0,0,1-.73-2.3A3.28,3.28,0,0,1,225,5.15a2.54,2.54,0,0,1,2-.88,2.26,2.26,0,0,1,1.83.76,3.18,3.18,0,0,1,.64,2.12Zm-1-.81a2,2,0,0,0-.4-1.3,1.37,1.37,0,0,0-1.1-.46,1.57,1.57,0,0,0-1.16.48,2.24,2.24,0,0,0-.58,1.28Z"/><path class="cls-14" d="M230.46,10.19v-1a2.82,2.82,0,0,0,1.73.58q1.26,0,1.26-.84a.68.68,0,0,0-.11-.41,1.17,1.17,0,0,0-.29-.3,2.86,2.86,0,0,0-.43-.23l-.54-.21a6.76,6.76,0,0,1-.7-.32,2.22,2.22,0,0,1-.5-.36,1.38,1.38,0,0,1-.31-.46,1.63,1.63,0,0,1-.1-.61,1.38,1.38,0,0,1,.19-.74,1.7,1.7,0,0,1,.52-.55,2.21,2.21,0,0,1,.73-.33,3.49,3.49,0,0,1,.86-.11,3.41,3.41,0,0,1,1.39.27v1a2.7,2.7,0,0,0-1.52-.43,1.88,1.88,0,0,0-.49.06,1.26,1.26,0,0,0-.37.17,1,1,0,0,0-.24.27.67.67,0,0,0-.09.34.75.75,0,0,0,.09.39,1,1,0,0,0,.25.29,2.11,2.11,0,0,0,.4.22l.53.21c.26.11.5.21.71.32a2.53,2.53,0,0,1,.54.36,1.37,1.37,0,0,1,.47,1.09,1.51,1.51,0,0,1-.2.78,1.68,1.68,0,0,1-.52.54,2.35,2.35,0,0,1-.76.32,3.31,3.31,0,0,1-.9.11A3.37,3.37,0,0,1,230.46,10.19Z"/><path class="cls-14" d="M236.32,2.89a.61.61,0,0,1-.62-.62.61.61,0,0,1,.18-.45.6.6,0,0,1,.44-.18.62.62,0,0,1,.63.63.58.58,0,0,1-.18.43A.58.58,0,0,1,236.32,2.89Zm.47,7.52h-1v-6h1Z"/><path class="cls-14" d="M241.16,10.55A2.76,2.76,0,0,1,239,9.71a3.11,3.11,0,0,1-.8-2.23,3.25,3.25,0,0,1,.83-2.36,3,3,0,0,1,2.23-.85,2.66,2.66,0,0,1,2.09.83,3.23,3.23,0,0,1,.76,2.29,3.25,3.25,0,0,1-.81,2.3A2.88,2.88,0,0,1,241.16,10.55Zm.07-5.47a1.84,1.84,0,0,0-1.47.63,2.63,2.63,0,0,0-.53,1.73,2.47,2.47,0,0,0,.54,1.69,1.85,1.85,0,0,0,1.46.61,1.75,1.75,0,0,0,1.43-.6,2.59,2.59,0,0,0,.5-1.72,2.61,2.61,0,0,0-.5-1.73A1.73,1.73,0,0,0,241.23,5.08Zm1.41-3.73L241.1,3.27h-.74l1.3-1.92Z"/><path class="cls-14" d="M250.58,10.41h-1V7c0-1.28-.47-1.91-1.4-1.91a1.52,1.52,0,0,0-1.19.54A2,2,0,0,0,246.56,7v3.42h-1v-6h1v1h0a2.17,2.17,0,0,1,2-1.14,1.85,1.85,0,0,1,1.51.63,2.84,2.84,0,0,1,.52,1.84Z"/><path class="cls-14" d="M211,30.64h-2.43v7.51h-1V30.64h-2.42v-.89H211Z"/><path class="cls-14" d="M213.52,38.29a2.79,2.79,0,0,1-2.13-.84,3.1,3.1,0,0,1-.79-2.23,3.24,3.24,0,0,1,.82-2.36,3,3,0,0,1,2.24-.85,2.66,2.66,0,0,1,2.09.83,3.77,3.77,0,0,1-.06,4.59A2.85,2.85,0,0,1,213.52,38.29Zm.07-5.47a1.84,1.84,0,0,0-1.47.63,2.59,2.59,0,0,0-.54,1.74,2.41,2.41,0,0,0,.55,1.68,1.85,1.85,0,0,0,1.46.61,1.77,1.77,0,0,0,1.43-.6,3.23,3.23,0,0,0,0-3.45A1.74,1.74,0,0,0,213.59,32.82Z"/><path class="cls-14" d="M223,38.15h-1.35L219,35.27h0v2.88h-1V29.27h1V34.9h0l2.52-2.75h1.26L220,35Z"/><path class="cls-14" d="M228.83,35.39h-4.24a2.3,2.3,0,0,0,.54,1.55,1.87,1.87,0,0,0,1.42.54,2.93,2.93,0,0,0,1.86-.67v.91a3.5,3.5,0,0,1-2.09.57,2.52,2.52,0,0,1-2-.82,3.36,3.36,0,0,1-.73-2.3,3.29,3.29,0,0,1,.8-2.28,2.53,2.53,0,0,1,2-.88,2.25,2.25,0,0,1,1.82.76,3.18,3.18,0,0,1,.65,2.12Zm-1-.81a2,2,0,0,0-.4-1.3,1.36,1.36,0,0,0-1.1-.46,1.55,1.55,0,0,0-1.15.48,2.25,2.25,0,0,0-.59,1.28Z"/><path class="cls-14" d="M235.26,38.15h-1V34.73c0-1.28-.47-1.91-1.4-1.91a1.52,1.52,0,0,0-1.19.54,2,2,0,0,0-.47,1.37v3.42h-1v-6h1v1h0a2.17,2.17,0,0,1,2-1.14,1.83,1.83,0,0,1,1.51.64,2.79,2.79,0,0,1,.52,1.83Z"/><path class="cls-14" d="M245.48,38.15h-1v-1h0a2.21,2.21,0,0,1-2.06,1.16,2.26,2.26,0,0,1-1.81-.81,3.28,3.28,0,0,1-.67-2.19,3.57,3.57,0,0,1,.75-2.38,2.46,2.46,0,0,1,2-.9,1.9,1.9,0,0,1,1.79,1h0V29.27h1Zm-1-2.71v-.89a1.73,1.73,0,0,0-.48-1.23,1.78,1.78,0,0,0-2.6.14,2.81,2.81,0,0,0-.51,1.78,2.49,2.49,0,0,0,.49,1.64,1.57,1.57,0,0,0,1.29.6A1.65,1.65,0,0,0,244,36.9,2.16,2.16,0,0,0,244.52,35.44Z"/><path class="cls-14" d="M252.25,35.39H248a2.3,2.3,0,0,0,.54,1.55,1.87,1.87,0,0,0,1.42.54,2.93,2.93,0,0,0,1.86-.67v.91a3.5,3.5,0,0,1-2.09.57,2.52,2.52,0,0,1-2-.82,3.36,3.36,0,0,1-.73-2.3,3.29,3.29,0,0,1,.8-2.28,2.53,2.53,0,0,1,2-.88,2.25,2.25,0,0,1,1.82.76,3.18,3.18,0,0,1,.65,2.12Zm-1-.81a2,2,0,0,0-.4-1.3,1.36,1.36,0,0,0-1.1-.46,1.55,1.55,0,0,0-1.15.48,2.25,2.25,0,0,0-.59,1.28Z"/><path class="cls-14" d="M257.48,30.63a.6.6,0,0,1-.44-.18.59.59,0,0,1-.18-.44.61.61,0,0,1,.18-.45.6.6,0,0,1,.44-.18.64.64,0,0,1,.45.18.61.61,0,0,1,.18.45.58.58,0,0,1-.18.43A.61.61,0,0,1,257.48,30.63Zm.47,7.52h-1v-6h1Z"/><path class="cls-14" d="M265,38.15h-1v-1h0a2.42,2.42,0,0,1-3.87.35,3.28,3.28,0,0,1-.68-2.19,3.57,3.57,0,0,1,.75-2.38,2.48,2.48,0,0,1,2-.9,1.93,1.93,0,0,1,1.8,1h0V29.27h1Zm-1-2.71v-.89a1.73,1.73,0,0,0-.48-1.23,1.62,1.62,0,0,0-1.22-.5,1.66,1.66,0,0,0-1.38.64,2.81,2.81,0,0,0-.5,1.78,2.54,2.54,0,0,0,.48,1.64,1.59,1.59,0,0,0,1.3.6,1.63,1.63,0,0,0,1.3-.58A2.11,2.11,0,0,0,264.05,35.44Z"/><path class="cls-14" d="M271.78,35.39h-4.24a2.3,2.3,0,0,0,.54,1.55,1.88,1.88,0,0,0,1.42.54,2.94,2.94,0,0,0,1.87-.67v.91a3.53,3.53,0,0,1-2.1.57,2.51,2.51,0,0,1-2-.82,3.31,3.31,0,0,1-.73-2.3,3.28,3.28,0,0,1,.79-2.28,2.54,2.54,0,0,1,2-.88,2.26,2.26,0,0,1,1.83.76,3.18,3.18,0,0,1,.64,2.12Zm-1-.81a2,2,0,0,0-.4-1.3,1.37,1.37,0,0,0-1.1-.46,1.57,1.57,0,0,0-1.16.48,2.24,2.24,0,0,0-.58,1.28Z"/><path class="cls-14" d="M278.21,38.15h-1V34.73c0-1.28-.46-1.91-1.39-1.91a1.5,1.5,0,0,0-1.19.54,2,2,0,0,0-.47,1.37v3.42h-1v-6h1v1h0a2.16,2.16,0,0,1,2-1.14,1.81,1.81,0,0,1,1.5.64,2.79,2.79,0,0,1,.52,1.83Z"/><path class="cls-14" d="M282.81,38.09a1.82,1.82,0,0,1-.9.19c-1.05,0-1.57-.59-1.57-1.76V33h-1v-.82h1V30.69l1-.32v1.78h1.51V33H281.3v3.38a1.45,1.45,0,0,0,.2.86.84.84,0,0,0,.68.26,1.05,1.05,0,0,0,.63-.2Z"/><path class="cls-14" d="M284.58,30.63a.62.62,0,0,1-.44-.18A.59.59,0,0,1,284,30a.61.61,0,0,1,.18-.45.62.62,0,0,1,.44-.18.61.61,0,0,1,.45.18.58.58,0,0,1,.19.45.56.56,0,0,1-.19.43A.58.58,0,0,1,284.58,30.63Zm.47,7.52h-1v-6h1Z"/><path class="cls-14" d="M290,30.11a1.32,1.32,0,0,0-.64-.16c-.67,0-1,.43-1,1.27v.93h1.4V33h-1.4v5.18h-1V33h-1v-.82h1v-1a2,2,0,0,1,.55-1.49,1.81,1.81,0,0,1,1.36-.55,1.86,1.86,0,0,1,.69.1Zm1.3.52a.61.61,0,0,1-.45-.18.59.59,0,0,1-.18-.44.62.62,0,0,1,.63-.63.64.64,0,0,1,.45.18.62.62,0,0,1,.19.45.59.59,0,0,1-.19.43A.61.61,0,0,1,291.26,30.63Zm.47,7.52h-1v-6h1Z"/><path class="cls-14" d="M297.74,37.87a3.08,3.08,0,0,1-1.64.42,2.75,2.75,0,0,1-2.07-.83,3.06,3.06,0,0,1-.79-2.17,3.35,3.35,0,0,1,.85-2.38,3,3,0,0,1,2.27-.9,3.27,3.27,0,0,1,1.4.29v1a2.42,2.42,0,0,0-1.43-.47,1.92,1.92,0,0,0-1.51.66,2.46,2.46,0,0,0-.59,1.73,2.36,2.36,0,0,0,.55,1.66,1.91,1.91,0,0,0,1.49.61,2.38,2.38,0,0,0,1.47-.52Z"/><path class="cls-14" d="M303.49,38.15h-1v-.94h0a2,2,0,0,1-1.85,1.08,2,2,0,0,1-1.4-.47,1.65,1.65,0,0,1-.51-1.26c0-1.12.66-1.78,2-2l1.8-.25c0-1-.41-1.53-1.24-1.53a2.9,2.9,0,0,0-2,.74v-1a3.76,3.76,0,0,1,2-.56c1.41,0,2.11.75,2.11,2.24Zm-1-3-1.45.2a2.37,2.37,0,0,0-1,.34.93.93,0,0,0-.34.84.89.89,0,0,0,.31.71,1.19,1.19,0,0,0,.83.28,1.58,1.58,0,0,0,1.19-.5,1.79,1.79,0,0,0,.46-1.27Z"/><path class="cls-14" d="M310.42,38.15h-1v-1h0a2.42,2.42,0,0,1-3.87.35,3.28,3.28,0,0,1-.68-2.19,3.57,3.57,0,0,1,.75-2.38,2.48,2.48,0,0,1,2-.9,1.93,1.93,0,0,1,1.8,1h0V29.27h1Zm-1-2.71v-.89a1.73,1.73,0,0,0-.48-1.23,1.62,1.62,0,0,0-1.22-.5,1.66,1.66,0,0,0-1.38.64,2.81,2.81,0,0,0-.5,1.78,2.54,2.54,0,0,0,.48,1.64,1.59,1.59,0,0,0,1.3.6,1.63,1.63,0,0,0,1.3-.58A2.11,2.11,0,0,0,309.46,35.44Z"/><path class="cls-14" d="M314.88,38.29a2.79,2.79,0,0,1-2.13-.84,3.1,3.1,0,0,1-.79-2.23,3.21,3.21,0,0,1,.83-2.36A3,3,0,0,1,315,32a2.66,2.66,0,0,1,2.09.83,3.73,3.73,0,0,1-.06,4.59A2.85,2.85,0,0,1,314.88,38.29Zm.07-5.47a1.84,1.84,0,0,0-1.47.63,2.59,2.59,0,0,0-.54,1.74,2.46,2.46,0,0,0,.55,1.68,1.85,1.85,0,0,0,1.46.61,1.75,1.75,0,0,0,1.43-.6,3.23,3.23,0,0,0,0-3.45A1.73,1.73,0,0,0,315,32.82Z"/><path class="cls-14" d="M322.53,33.12a1.18,1.18,0,0,0-.73-.19,1.23,1.23,0,0,0-1,.58,2.72,2.72,0,0,0-.41,1.58v3.06h-1v-6h1v1.24h0a2.12,2.12,0,0,1,.63-1A1.43,1.43,0,0,1,322,32a1.41,1.41,0,0,1,.57.09Z"/><path class="cls-14" d="M192,69.32h-1.09L190,67h-3.56l-.84,2.36h-1.09l3.22-8.4h1Zm-2.3-3.24L188.4,62.5a5.45,5.45,0,0,1-.13-.56h0a2.52,2.52,0,0,1-.14.56l-1.3,3.58Z"/><path class="cls-14" d="M198.16,69.32h-1v-1h0a2.42,2.42,0,0,1-3.87.35,3.28,3.28,0,0,1-.68-2.19,3.57,3.57,0,0,1,.75-2.38,2.48,2.48,0,0,1,2-.9,1.91,1.91,0,0,1,1.8,1h0V60.44h1Zm-1-2.71v-.89a1.73,1.73,0,0,0-.48-1.23,1.61,1.61,0,0,0-1.21-.5,1.67,1.67,0,0,0-1.39.64,2.87,2.87,0,0,0-.5,1.78,2.56,2.56,0,0,0,.48,1.64,1.59,1.59,0,0,0,1.3.6,1.63,1.63,0,0,0,1.3-.58A2.11,2.11,0,0,0,197.19,66.61Z"/><path class="cls-14" d="M205.13,72.08h-1V68.29h0a2.15,2.15,0,0,1-2,1.17,2.24,2.24,0,0,1-1.81-.81,3.23,3.23,0,0,1-.69-2.19,3.6,3.6,0,0,1,.75-2.39,2.52,2.52,0,0,1,2-.89,1.89,1.89,0,0,1,1.78,1h0v-.83h1Zm-1-5.46v-.87a1.74,1.74,0,0,0-.48-1.25,1.61,1.61,0,0,0-1.23-.51,1.66,1.66,0,0,0-1.37.64,2.91,2.91,0,0,0-.5,1.81,2.48,2.48,0,0,0,.48,1.62,1.55,1.55,0,0,0,1.26.59,1.66,1.66,0,0,0,1.34-.58A2.1,2.1,0,0,0,204.16,66.62Z"/><path class="cls-14" d="M211.83,69.32h-1v-.95h0A2,2,0,0,1,209,69.46c-1.43,0-2.14-.85-2.14-2.55V63.32h1v3.43c0,1.27.49,1.9,1.45,1.9a1.46,1.46,0,0,0,1.16-.52,2,2,0,0,0,.46-1.35V63.32h1Z"/><path class="cls-14" d="M214.16,61.8a.61.61,0,0,1-.62-.62.61.61,0,0,1,.18-.45.6.6,0,0,1,.44-.18.62.62,0,0,1,.63.63.63.63,0,0,1-.63.62Zm.47,7.52h-1v-6h1Z"/><path class="cls-14" d="M219.61,64.29a1.18,1.18,0,0,0-.73-.19,1.23,1.23,0,0,0-1,.58,2.72,2.72,0,0,0-.41,1.58v3.06h-1v-6h1v1.24h0a2.12,2.12,0,0,1,.63-1,1.42,1.42,0,0,1,.94-.36,1.46,1.46,0,0,1,.58.09Z"/><path class="cls-14" d="M221.05,61.8a.61.61,0,0,1-.62-.62.61.61,0,0,1,.18-.45.6.6,0,0,1,.44-.18.64.64,0,0,1,.45.18.61.61,0,0,1,.18.45.58.58,0,0,1-.18.43A.61.61,0,0,1,221.05,61.8Zm.47,7.52h-1v-6h1Z"/><path class="cls-14" d="M226.5,64.29a1.2,1.2,0,0,0-.73-.19,1.23,1.23,0,0,0-1,.58,2.64,2.64,0,0,0-.41,1.58v3.06h-1v-6h1v1.24h0a2.12,2.12,0,0,1,.63-1,1.4,1.4,0,0,1,.94-.36,1.5,1.5,0,0,1,.58.09Z"/><path class="cls-14" d="M233.42,69.26a1.82,1.82,0,0,1-.9.19c-1.05,0-1.58-.59-1.58-1.76V64.14h-1v-.82h1V61.85l1-.31v1.78h1.52v.82H231.9v3.38a1.37,1.37,0,0,0,.21.86.83.83,0,0,0,.68.26,1.05,1.05,0,0,0,.63-.2Z"/><path class="cls-14" d="M237.11,69.46a2.77,2.77,0,0,1-2.12-.84,3.11,3.11,0,0,1-.8-2.23A3.25,3.25,0,0,1,235,64a3,3,0,0,1,2.23-.85,2.68,2.68,0,0,1,2.1.83,3.77,3.77,0,0,1-.06,4.59A2.87,2.87,0,0,1,237.11,69.46Zm.07-5.47a1.81,1.81,0,0,0-1.46.63,2.58,2.58,0,0,0-.54,1.73,2.47,2.47,0,0,0,.54,1.69,1.86,1.86,0,0,0,1.46.61,1.75,1.75,0,0,0,1.43-.6,3.17,3.17,0,0,0,0-3.45A1.73,1.73,0,0,0,237.18,64Z"/><path class="cls-14" d="M246.52,69.32h-1.35l-2.65-2.88h0v2.88h-1V60.44h1v5.63h0L245,63.32h1.26l-2.78,2.89Z"/><path class="cls-14" d="M252.23,66.56H248a2.3,2.3,0,0,0,.54,1.55,1.88,1.88,0,0,0,1.42.54,2.89,2.89,0,0,0,1.86-.67v.91a3.47,3.47,0,0,1-2.09.57,2.53,2.53,0,0,1-2-.82,3.35,3.35,0,0,1-.72-2.3,3.28,3.28,0,0,1,.79-2.28,2.54,2.54,0,0,1,2-.88,2.22,2.22,0,0,1,1.82.76,3.18,3.18,0,0,1,.65,2.12Zm-1-.81a2,2,0,0,0-.41-1.3,1.35,1.35,0,0,0-1.09-.46,1.57,1.57,0,0,0-1.16.48,2.25,2.25,0,0,0-.59,1.28Z"/><path class="cls-14" d="M258.57,69.32h-1V65.9c0-1.28-.47-1.91-1.4-1.91a1.5,1.5,0,0,0-1.19.54,2,2,0,0,0-.47,1.37v3.42h-1v-6h1v1h0a2.16,2.16,0,0,1,2-1.14,1.85,1.85,0,0,1,1.51.63,2.9,2.9,0,0,1,.52,1.84Z"/><path class="cls-14" d="M211,90.7h-2.43v7.51h-1V90.7h-2.42v-.89H211Z"/><path class="cls-14" d="M213.44,98.35a2.79,2.79,0,0,1-2.12-.84,3.1,3.1,0,0,1-.79-2.23,3.24,3.24,0,0,1,.82-2.36,3,3,0,0,1,2.23-.85,2.66,2.66,0,0,1,2.1.83,3.77,3.77,0,0,1-.06,4.59A2.87,2.87,0,0,1,213.44,98.35Zm.07-5.47a1.83,1.83,0,0,0-1.46.63,2.59,2.59,0,0,0-.54,1.74,2.46,2.46,0,0,0,.54,1.68,1.86,1.86,0,0,0,1.46.61,1.79,1.79,0,0,0,1.44-.6,3.23,3.23,0,0,0,0-3.45A1.76,1.76,0,0,0,213.51,92.88Z"/><path class="cls-14" d="M222.88,98.21h-1.35l-2.65-2.88h0v2.88h-1V89.33h1V95h0l2.52-2.75h1.26l-2.78,2.89Z"/><path class="cls-14" d="M228.61,95.45h-4.24a2.3,2.3,0,0,0,.54,1.55,1.88,1.88,0,0,0,1.42.54,2.89,2.89,0,0,0,1.86-.67v.91a3.47,3.47,0,0,1-2.09.57,2.53,2.53,0,0,1-2-.82,3.35,3.35,0,0,1-.72-2.3,3.28,3.28,0,0,1,.79-2.28,2.54,2.54,0,0,1,2-.88,2.26,2.26,0,0,1,1.83.76,3.18,3.18,0,0,1,.64,2.12Zm-1-.81a2,2,0,0,0-.41-1.3,1.35,1.35,0,0,0-1.09-.46,1.57,1.57,0,0,0-1.16.48,2.24,2.24,0,0,0-.58,1.28Z"/><path class="cls-14" d="M235,98.21h-1V94.79c0-1.28-.46-1.91-1.39-1.91a1.54,1.54,0,0,0-1.2.54,2,2,0,0,0-.47,1.37v3.42h-1v-6h1v1h0a2.15,2.15,0,0,1,2-1.14,1.83,1.83,0,0,1,1.51.64,2.79,2.79,0,0,1,.52,1.83Z"/><path class="cls-14" d="M245.05,98.21h-1v-1h0A2.21,2.21,0,0,1,242,98.35a2.24,2.24,0,0,1-1.81-.81,3.28,3.28,0,0,1-.67-2.19,3.57,3.57,0,0,1,.75-2.38,2.46,2.46,0,0,1,2-.9,1.91,1.91,0,0,1,1.8,1h0V89.33h1Zm-1-2.71v-.89a1.73,1.73,0,0,0-.48-1.23,1.64,1.64,0,0,0-1.22-.5,1.67,1.67,0,0,0-1.39.64,2.87,2.87,0,0,0-.5,1.78,2.54,2.54,0,0,0,.48,1.64,1.73,1.73,0,0,0,2.6,0A2.11,2.11,0,0,0,244.09,95.5Z"/><path class="cls-14" d="M251.74,95.45h-4.23A2.25,2.25,0,0,0,248,97a1.88,1.88,0,0,0,1.42.54,2.94,2.94,0,0,0,1.87-.67v.91a3.53,3.53,0,0,1-2.1.57,2.51,2.51,0,0,1-2-.82A3.83,3.83,0,0,1,247.3,93a2.55,2.55,0,0,1,2-.88,2.25,2.25,0,0,1,1.82.76,3.18,3.18,0,0,1,.64,2.12Zm-1-.81a2,2,0,0,0-.4-1.3,1.37,1.37,0,0,0-1.1-.46,1.57,1.57,0,0,0-1.16.48,2.24,2.24,0,0,0-.58,1.28Z"/><path class="cls-14" d="M260.63,98.21h-1v-.94h0a2.2,2.2,0,0,1-3.25.61,1.65,1.65,0,0,1-.51-1.26c0-1.12.66-1.78,2-2l1.8-.25q0-1.53-1.23-1.53a2.91,2.91,0,0,0-2,.74v-1a3.76,3.76,0,0,1,2-.56c1.41,0,2.11.75,2.11,2.24Zm-1-3-1.45.2a2.37,2.37,0,0,0-1,.34.93.93,0,0,0-.34.84.89.89,0,0,0,.31.71,1.2,1.2,0,0,0,.84.28,1.53,1.53,0,0,0,1.18-.5,1.79,1.79,0,0,0,.46-1.27Z"/><path class="cls-14" d="M266.46,97.93a3.1,3.1,0,0,1-1.64.42,2.75,2.75,0,0,1-2.07-.83,3,3,0,0,1-.79-2.17,3.35,3.35,0,0,1,.85-2.38,3,3,0,0,1,2.27-.9,3.2,3.2,0,0,1,1.39.29v1a2.38,2.38,0,0,0-1.43-.47,1.91,1.91,0,0,0-1.5.66,2.46,2.46,0,0,0-.59,1.73,2.36,2.36,0,0,0,.55,1.66,1.89,1.89,0,0,0,1.49.61,2.38,2.38,0,0,0,1.47-.52Z"/><path class="cls-14" d="M271.93,97.93a3.1,3.1,0,0,1-1.64.42,2.75,2.75,0,0,1-2.07-.83,3.06,3.06,0,0,1-.79-2.17,3.35,3.35,0,0,1,.85-2.38,3,3,0,0,1,2.27-.9,3.2,3.2,0,0,1,1.39.29v1a2.38,2.38,0,0,0-1.43-.47,1.91,1.91,0,0,0-1.5.66,2.46,2.46,0,0,0-.59,1.73,2.36,2.36,0,0,0,.55,1.66,1.89,1.89,0,0,0,1.49.61,2.38,2.38,0,0,0,1.47-.52Z"/><path class="cls-14" d="M278.14,95.45H273.9a2.25,2.25,0,0,0,.54,1.55,1.85,1.85,0,0,0,1.42.54,2.93,2.93,0,0,0,1.86-.67v.91a3.5,3.5,0,0,1-2.09.57,2.52,2.52,0,0,1-2-.82,3.36,3.36,0,0,1-.73-2.3,3.29,3.29,0,0,1,.8-2.28,2.53,2.53,0,0,1,2-.88,2.25,2.25,0,0,1,1.82.76,3.18,3.18,0,0,1,.65,2.12Zm-1-.81a2,2,0,0,0-.4-1.3,1.36,1.36,0,0,0-1.1-.46,1.55,1.55,0,0,0-1.15.48,2.25,2.25,0,0,0-.59,1.28Z"/><path class="cls-14" d="M279.15,98V97a2.84,2.84,0,0,0,1.73.58c.85,0,1.27-.28,1.27-.84a.76.76,0,0,0-.11-.41,1,1,0,0,0-.29-.29,2.28,2.28,0,0,0-.44-.24l-.53-.21a6.76,6.76,0,0,1-.7-.32,2.55,2.55,0,0,1-.51-.36,1.52,1.52,0,0,1-.3-.46,1.63,1.63,0,0,1-.1-.61,1.38,1.38,0,0,1,.19-.74,1.7,1.7,0,0,1,.52-.55,2.32,2.32,0,0,1,.73-.33,3.59,3.59,0,0,1,2.25.16v1a2.71,2.71,0,0,0-1.53-.43,1.75,1.75,0,0,0-.48.06,1.15,1.15,0,0,0-.37.17.76.76,0,0,0-.24.27.67.67,0,0,0-.09.34.75.75,0,0,0,.09.39.93.93,0,0,0,.24.29,2.48,2.48,0,0,0,.4.22l.54.21c.26.11.5.21.71.32a2.82,2.82,0,0,1,.54.36A1.41,1.41,0,0,1,283,96a1.46,1.46,0,0,1,.12.62,1.5,1.5,0,0,1-.19.78,1.61,1.61,0,0,1-.53.54,2.55,2.55,0,0,1-.75.33,3.82,3.82,0,0,1-.9.1A3.41,3.41,0,0,1,279.15,98Z"/><path class="cls-14" d="M287,98.35a2.79,2.79,0,0,1-2.12-.84,3.1,3.1,0,0,1-.79-2.23,3.24,3.24,0,0,1,.82-2.36,3,3,0,0,1,2.24-.85,2.66,2.66,0,0,1,2.09.83,3.77,3.77,0,0,1-.06,4.59A2.85,2.85,0,0,1,287,98.35Zm.08-5.47a1.84,1.84,0,0,0-1.47.63,2.59,2.59,0,0,0-.54,1.74,2.41,2.41,0,0,0,.55,1.68,1.85,1.85,0,0,0,1.46.61,1.77,1.77,0,0,0,1.43-.6,3.23,3.23,0,0,0,0-3.45A1.74,1.74,0,0,0,287.12,92.88Z"/><path class="cls-14" d="M191.54,190.18h-1.17L189,187.82c-.13-.21-.25-.4-.37-.56a2.15,2.15,0,0,0-.37-.37,1.49,1.49,0,0,0-.41-.22,2,2,0,0,0-.5-.06h-.81v3.57h-1v-8.4H188a3.29,3.29,0,0,1,1,.14,2.38,2.38,0,0,1,.81.41,2,2,0,0,1,.54.7,2.33,2.33,0,0,1,.19,1,2.28,2.28,0,0,1-.13.8,1.92,1.92,0,0,1-.38.65,2,2,0,0,1-.58.49,3.12,3.12,0,0,1-.77.32v0a1.55,1.55,0,0,1,.36.21,1.64,1.64,0,0,1,.3.29,4,4,0,0,1,.28.37l.31.48Zm-5-7.51v3h1.34a1.9,1.9,0,0,0,.68-.11,1.46,1.46,0,0,0,.54-.32,1.28,1.28,0,0,0,.36-.51,1.6,1.6,0,0,0,.13-.67,1.32,1.32,0,0,0-.44-1,1.83,1.83,0,0,0-1.26-.38Z"/><path class="cls-14" d="M197,187.42h-4.23a2.25,2.25,0,0,0,.53,1.55,1.88,1.88,0,0,0,1.42.54,2.94,2.94,0,0,0,1.87-.67v.91a3.53,3.53,0,0,1-2.1.57,2.51,2.51,0,0,1-2-.82,3.83,3.83,0,0,1,.06-4.58,2.54,2.54,0,0,1,2-.88,2.26,2.26,0,0,1,1.83.76,3.18,3.18,0,0,1,.64,2.12Zm-1-.81a2,2,0,0,0-.4-1.3,1.37,1.37,0,0,0-1.1-.46,1.57,1.57,0,0,0-1.16.48,2.24,2.24,0,0,0-.58,1.28Z"/><path class="cls-14" d="M198.06,190v-1a2.79,2.79,0,0,0,1.72.58c.85,0,1.27-.28,1.27-.84a.76.76,0,0,0-.11-.41,1.17,1.17,0,0,0-.29-.3,3,3,0,0,0-.44-.23l-.53-.21a6.76,6.76,0,0,1-.7-.32,2.55,2.55,0,0,1-.51-.36,1.52,1.52,0,0,1-.3-.46,1.63,1.63,0,0,1-.1-.61,1.38,1.38,0,0,1,.19-.74,1.7,1.7,0,0,1,.52-.55,2.21,2.21,0,0,1,.73-.33,3.59,3.59,0,0,1,2.25.16v1a2.71,2.71,0,0,0-1.53-.43,1.8,1.8,0,0,0-.48.06,1.15,1.15,0,0,0-.37.17.76.76,0,0,0-.24.27.67.67,0,0,0-.09.34.75.75,0,0,0,.09.39.84.84,0,0,0,.25.29,2,2,0,0,0,.39.22l.54.21c.26.11.5.21.71.32a2.82,2.82,0,0,1,.54.36,1.41,1.41,0,0,1,.34.47,1.46,1.46,0,0,1,.12.62,1.5,1.5,0,0,1-.19.78,1.61,1.61,0,0,1-.53.54,2.3,2.3,0,0,1-.75.32,3.74,3.74,0,0,1-2.5-.25Z"/><path class="cls-14" d="M204.46,189.31h0v3.63h-1v-8.76h1v1h0a2.27,2.27,0,0,1,2.07-1.19,2.2,2.2,0,0,1,1.81.8A3.31,3.31,0,0,1,209,187a3.73,3.73,0,0,1-.73,2.42,2.45,2.45,0,0,1-2,.9A2,2,0,0,1,204.46,189.31Zm0-2.42v.84a1.77,1.77,0,0,0,.48,1.26,1.72,1.72,0,0,0,2.59-.15A3,3,0,0,0,208,187a2.45,2.45,0,0,0-.46-1.57,1.54,1.54,0,0,0-1.26-.57,1.7,1.7,0,0,0-1.35.58A2.14,2.14,0,0,0,204.44,186.89Z"/><path class="cls-14" d="M215.35,190.18h-1v-1h0a2,2,0,0,1-1.85,1.09c-1.43,0-2.15-.85-2.15-2.55v-3.59h1v3.43c0,1.27.48,1.9,1.45,1.9a1.46,1.46,0,0,0,1.16-.52,2,2,0,0,0,.45-1.35v-3.46h1Z"/><path class="cls-14" d="M222.07,187.42h-4.24a2.3,2.3,0,0,0,.54,1.55,1.88,1.88,0,0,0,1.42.54,2.89,2.89,0,0,0,1.86-.67v.91a3.47,3.47,0,0,1-2.09.57,2.54,2.54,0,0,1-2-.82,3.35,3.35,0,0,1-.72-2.3,3.28,3.28,0,0,1,.79-2.28,2.54,2.54,0,0,1,2-.88,2.26,2.26,0,0,1,1.83.76,3.18,3.18,0,0,1,.64,2.12Zm-1-.81a2,2,0,0,0-.4-1.3,1.37,1.37,0,0,0-1.1-.46,1.57,1.57,0,0,0-1.16.48,2.24,2.24,0,0,0-.58,1.28Z"/><path class="cls-14" d="M230.43,190.12a1.82,1.82,0,0,1-.9.19c-1.05,0-1.57-.59-1.57-1.76V185H225.3a2.33,2.33,0,0,0-.48,0,1,1,0,0,0-.37.12.5.5,0,0,0-.24.21.57.57,0,0,0-.09.32.75.75,0,0,0,.09.39.93.93,0,0,0,.24.29,2.48,2.48,0,0,0,.4.22l.54.21c.26.11.5.21.71.32a2.82,2.82,0,0,1,.54.36,1.41,1.41,0,0,1,.34.47,1.52,1.52,0,0,1,.12.62,1.5,1.5,0,0,1-.19.78,1.61,1.61,0,0,1-.53.54,2.26,2.26,0,0,1-.76.32,3.24,3.24,0,0,1-.89.11,3.39,3.39,0,0,1-1.61-.36v-1a2.82,2.82,0,0,0,1.73.58c.85,0,1.27-.28,1.27-.84a.69.69,0,0,0-.11-.39,1.17,1.17,0,0,0-.29-.3,2.28,2.28,0,0,0-.44-.24l-.53-.22a6.76,6.76,0,0,1-.7-.32,2.55,2.55,0,0,1-.51-.36,1.52,1.52,0,0,1-.3-.46,1.63,1.63,0,0,1-.1-.61,1.47,1.47,0,0,1,.17-.72,1.6,1.6,0,0,1,.47-.5,2.43,2.43,0,0,1,.66-.28,3.2,3.2,0,0,1,.75-.09H228v-1.47l1-.31v1.78h1.51V185h-1.51v3.38a1.45,1.45,0,0,0,.2.86.84.84,0,0,0,.68.26,1,1,0,0,0,.63-.2Z"/><path class="cls-14" d="M236,190.18h-1v-.94h0a2.2,2.2,0,0,1-3.25.61,1.65,1.65,0,0,1-.51-1.26c0-1.13.66-1.78,2-2l1.8-.25q0-1.53-1.23-1.53a2.91,2.91,0,0,0-2,.74v-1a3.76,3.76,0,0,1,2-.56c1.41,0,2.11.75,2.11,2.24Zm-1-3-1.45.2a2.54,2.54,0,0,0-1,.33,1,1,0,0,0-.34.85.89.89,0,0,0,.31.71,1.2,1.2,0,0,0,.84.28,1.56,1.56,0,0,0,1.18-.5,1.79,1.79,0,0,0,.46-1.27Z"/><path class="cls-14" d="M247.44,190.18h-1v-3.83h-4.35v3.83h-1v-8.4h1v3.68h4.35v-3.68h1Z"/><path class="cls-14" d="M254.58,182.67h-2.43v7.51h-1v-7.51h-2.42v-.89h5.83Z"/><path class="cls-14" d="M261.07,182.67h-2.43v7.51h-1v-7.51h-2.42v-.89h5.83Z"/><path class="cls-14" d="M263.33,187v3.18h-1v-8.4h2.31a3.09,3.09,0,0,1,2.09.65,2.37,2.37,0,0,1,.74,1.86,2.55,2.55,0,0,1-.83,2,3.12,3.12,0,0,1-2.22.76Zm0-4.33v3.44h1a2.32,2.32,0,0,0,1.56-.46,1.65,1.65,0,0,0,.54-1.32c0-1.11-.66-1.66-2-1.66Z"/></g></svg>