<svg xmlns="http://www.w3.org/2000/svg" xmlns:xlink="http://www.w3.org/1999/xlink" viewBox="0 0 251.4 263.87"><defs><style>.cls-1,.cls-10{fill:none;}.cls-13,.cls-2,.cls-9{fill:#fff;}.cls-3{fill:#0072c6;}.cls-4{clip-path:url(#clip-path);}.cls-5{fill:#e5e5e5;}.cls-6{fill:#3c3c41;}.cls-11,.cls-7{fill:#ebebeb;}.cls-8{fill:#75757a;}.cls-9{opacity:0.2;isolation:isolate;}.cls-10,.cls-11{stroke:#000;}.cls-10,.cls-11,.cls-12,.cls-13{stroke-miterlimit:10;}.cls-11{stroke-width:0.75px;}.cls-12{fill:#1e1e1e;stroke:#1e1e1e;stroke-width:0.06px;}.cls-13{stroke:#fff;stroke-width:0.05px;}</style><clipPath id="clip-path" transform="translate(-2.47)"><rect class="cls-1" x="62" y="176.54" width="54" height="54"/></clipPath></defs><title>OJ104327268</title><g id="bg"><g id="Shapes"><rect class="cls-2" x="6.29" width="244.97" height="263.87"/><rect class="cls-3" x="76.59" width="104.66" height="90"/><path d="M62.25,100.35h-.53V83.18a1.64,1.64,0,0,1,1.64-1.64h9.7v.53h-9.7a1.1,1.1,0,0,0-1.1,1.1h0v17.18Z" transform="translate(-2.47)"/><path d="M90.29,100.35h-.53V83.18a1.1,1.1,0,0,0-1.1-1.1H73.06v-.53h15.6a1.64,1.64,0,0,1,1.64,1.64Z" transform="translate(-2.47)"/><polygon points="69.71 98.75 61.54 98.75 61.54 83.73 68.89 83.73 68.89 84.26 62.07 84.26 62.07 98.22 69.71 98.22 69.71 98.75"/><polygon points="85.52 98.75 80.29 98.75 80.29 98.22 84.99 98.22 84.99 84.26 78.31 84.26 78.31 83.73 85.52 83.73 85.52 98.75"/><path d="M94.36,103.17h-8v-.53h8a1.1,1.1,0,0,0,1.1-1.1v-.92H86.34v-.53H96v1.45A1.63,1.63,0,0,1,94.36,103.17Z" transform="translate(-2.47)"/><path d="M72,103.17H57.64A1.64,1.64,0,0,1,56,101.53v-1.45H72.18v.53H56.53v.92a1.1,1.1,0,0,0,1.1,1.1H72Z" transform="translate(-2.47)"/><rect x="78.67" y="83.73" width="5.54" height="0.53"/><rect x="62.85" y="83.73" width="15.46" height="0.53"/><path d="M79.55,102.58H79V97.51a1.5,1.5,0,0,0-3,0h0v5.07h-.53V97.51a2,2,0,0,1,4.06,0Z" transform="translate(-2.47)"/><path d="M83.08,102.58h-.53V98.93a1.5,1.5,0,0,0-3,0h0v3.65H79V98.93a2,2,0,0,1,4.06,0Z" transform="translate(-2.47)"/><path d="M86.61,112.82h-.53V100.34a1.5,1.5,0,0,0-3,0h0v2.24h-.53v-2.24a2,2,0,0,1,4.06,0Z" transform="translate(-2.47)"/><path d="M86.61,114.31l-14.52,0-.23-.08,0,0-6.45-6.45A2.65,2.65,0,0,1,69.12,104l2.8,2.66V91A2,2,0,0,1,76,91v9.66h-.53V91a1.5,1.5,0,0,0-3,0h0v16.86l-3.7-3.52a2.12,2.12,0,1,0-3.11,2.89l.11.11,6.41,6.41.08,0H86.09v-7.1h.53Z" transform="translate(-2.47)"/><g class="cls-4"><path class="cls-2" d="M111.89,182.44H66.12a3.25,3.25,0,0,0-3.27,3.21v28.16A3.25,3.25,0,0,0,66.12,217h45.77a3.26,3.26,0,0,0,3.27-3.21V185.65A3.27,3.27,0,0,0,111.89,182.44Z" transform="translate(-2.47)"/></g><g class="cls-4"><path class="cls-5" d="M115.16,185.4v8.86H62.84V185.4a2.94,2.94,0,0,1,2.9-3h46.51A2.93,2.93,0,0,1,115.16,185.4Z" transform="translate(-2.47)"/></g><g class="cls-4"><path class="cls-6" d="M111.9,181.6H66.1a4.12,4.12,0,0,0-4.1,4.06v28.18a4.11,4.11,0,0,0,4.1,4h22L87.78,223H78l-2.53,1.69h27L100,223H90.2l-.32-5.06h22a4.12,4.12,0,0,0,4.1-4.06V185.65A4.08,4.08,0,0,0,111.9,181.6Zm2.41,32.21a2.43,2.43,0,0,1-2.42,2.38H66.1a2.42,2.42,0,0,1-2.41-2.37V185.67a2.42,2.42,0,0,1,2.42-2.38h45.8a2.42,2.42,0,0,1,2.41,2.37v28.15Z" transform="translate(-2.47)"/></g><ellipse class="cls-7" cx="59.72" cy="217.85" rx="18.5" ry="18.46"/><path class="cls-6" d="M62.19,237.3a19.46,19.46,0,1,1,19.5-19.46A19.5,19.5,0,0,1,62.19,237.3Zm0-36.91a17.46,17.46,0,1,0,17.5,17.46A17.5,17.5,0,0,0,62.19,200.39Z" transform="translate(-2.47)"/><path class="cls-8" d="M67.19,208.93a5,5,0,0,1-10.06,0,5.08,5.08,0,0,1,5-5,5,5,0,0,1,5,5" transform="translate(-2.47)"/><polygon class="cls-8" points="63.35 215.73 59.69 220.87 56.04 215.73 50.72 215.73 50.72 228.41 68.72 228.41 68.72 215.73 63.35 215.73"/><path class="cls-9" d="M57.19,208.93a5.06,5.06,0,0,0,4.91,5l1.26-9.89a2.94,2.94,0,0,0-1.2-.17,5,5,0,0,0-5,5" transform="translate(-2.47)"/><polygon class="cls-9" points="56.04 215.73 50.72 215.73 50.72 228.41 57.81 228.41 58.89 219.67 56.04 215.73"/><line class="cls-10" x1="73.53" y1="181.54" x2="73.53" y2="119.92"/><polygon points="77.27 121.01 73.53 114.53 69.79 121.01 77.27 121.01"/><line class="cls-10" x1="105.86" y1="176.16" x2="105.86" y2="90"/><polygon points="109.6 175.06 105.86 181.54 102.12 175.06 109.6 175.06"/><rect class="cls-2" x="191.01" y="190.37" width="58.04" height="31.27"/><path class="cls-3" d="M253.87,183.25a1,1,0,0,0-1.05-1.05H192.18a1,1,0,0,0-1.05,1.05v37.89a1,1,0,0,0,1.05,1.05h60.64a1,1,0,0,0,1.05-1.05Zm-54.11,6h-3.14v-3.14h3.14Zm6.27,0h-3.14v-3.14H206Zm6.27,0h-3.14v-3.14h3.14Zm-18.82,2.36h58v28.24h-58V191.61Z" transform="translate(-2.47)"/><path d="M198.51,208.7a14.93,14.93,0,0,0-11.91-5.87,15.19,15.19,0,0,0-9.13,3.09,15,15,0,0,0,9.14,26.91,15.19,15.19,0,0,0,9.13-3.09A15,15,0,0,0,198.51,208.7Zm.7,12.52c-.53-.4-1.3-1-2.27-1.77a2.93,2.93,0,0,0-.33-2.74,2.84,2.84,0,0,0-3.66-.65c-1.31-1.18-2.76-2.53-4.28-4.06,4.54-2.49,7.88-2.23,8.17-2.2l.15.18A12.93,12.93,0,0,1,199.21,221.22ZM191,224.76a2.71,2.71,0,0,0-.46-1,2.53,2.53,0,0,0-3.44-.6,25.14,25.14,0,0,1-3.5-2.32l-.31-.26a3.94,3.94,0,0,0-.56-3.85l-.07-.08q.39-.42.81-.81a24.72,24.72,0,0,1,3.41-2.77h0l0,0-.05,0c1.64,1.51,3.37,2.94,5,4.21a2.8,2.8,0,0,0,.24,2.86,2.86,2.86,0,0,0,4,.55l.17-.17c1.17.83,2.1,1.46,2.63,1.82a12.87,12.87,0,0,1-1.46,2.86A13.87,13.87,0,0,1,191,224.76Zm4-16.87a14.19,14.19,0,0,0-8.71,1.61c-1.18-1.25-2.43-2.65-3.69-4.07a13,13,0,0,1,4-.63A12.86,12.86,0,0,1,195,207.89Zm-16.34-.39a13.11,13.11,0,0,1,2.18-1.35,26.76,26.76,0,0,0,3.54,4.45,21.87,21.87,0,0,0-3.61,3.14c-.42.47-.84.95-1.21,1.42a3.76,3.76,0,0,0-1.85.46,10.41,10.41,0,0,1-1.41-5.76A12.86,12.86,0,0,1,178.65,207.5Zm-3.89,4.84a9.5,9.5,0,0,0,1.29,4.95,4,4,0,0,0,.37,4.26h0a24.44,24.44,0,0,0-.59,3.69A13,13,0,0,1,174.76,212.34Zm19.77,15.89a13,13,0,0,1-16.32-.36,18,18,0,0,1,.66-4.85,4,4,0,0,0,2.93-.65l.34.26a21.33,21.33,0,0,0,3.72,2.37,2.56,2.56,0,0,0,.51,1.93,2.63,2.63,0,0,0,3.66.47,2.74,2.74,0,0,0,.62-.7,23.54,23.54,0,0,0,5,.53A12.3,12.3,0,0,1,194.53,228.23Z" transform="translate(-2.47)"/><line class="cls-10" x1="113.53" y1="191.54" x2="183.15" y2="191.54"/><polygon points="182.05 195.28 188.53 191.54 182.05 187.8 182.05 195.28"/><polygon class="cls-11" points="105.6 146.29 97.04 152.5 100.31 162.54 110.89 162.54 114.16 152.5 105.6 146.29"/><polygon class="cls-11" points="138.69 181.65 130.13 187.86 133.4 197.9 143.98 197.9 147.24 187.86 138.69 181.65"/></g></g><g id="txt"><path class="cls-12" d="M3.49,82.89v3.17h-1v-8.4H4.81a3,3,0,0,1,2.09.66,2.34,2.34,0,0,1,.74,1.85,2.54,2.54,0,0,1-.82,2,3.19,3.19,0,0,1-2.23.76Zm0-4.34V82h1a2.28,2.28,0,0,0,1.55-.47,1.64,1.64,0,0,0,.54-1.31c0-1.11-.66-1.67-2-1.67Z" transform="translate(-2.47)"/><path class="cls-12" d="M12.8,86.06h-1v-.93h0A2,2,0,0,1,10,86.2a2,2,0,0,1-1.41-.47,1.68,1.68,0,0,1-.5-1.26c0-1.12.66-1.77,2-2l1.8-.25c0-1-.41-1.53-1.24-1.53a3,3,0,0,0-2,.74v-1a3.76,3.76,0,0,1,2-.56c1.41,0,2.12.75,2.12,2.24Zm-1-3-1.45.2a2.3,2.3,0,0,0-1,.33A1,1,0,0,0,9,84.4a.93.93,0,0,0,.32.72,1.21,1.21,0,0,0,.83.28,1.52,1.52,0,0,0,1.18-.51,1.77,1.77,0,0,0,.47-1.26ZM12,77l-1.54,1.93H9.69L11,77Z" transform="translate(-2.47)"/><path class="cls-12" d="M19.55,85.58q0,3.32-3.16,3.31a4.28,4.28,0,0,1-2-.42v-1a4,4,0,0,0,1.93.57c1.48,0,2.22-.79,2.22-2.36v-.65h0A2.26,2.26,0,0,1,16.5,86.2a2.24,2.24,0,0,1-1.8-.8A3.21,3.21,0,0,1,14,83.26a3.77,3.77,0,0,1,.73-2.44,2.48,2.48,0,0,1,2-.9,2,2,0,0,1,1.8,1h0v-.84h1Zm-1-2.23v-.88a1.73,1.73,0,0,0-.48-1.23,1.62,1.62,0,0,0-1.21-.51,1.66,1.66,0,0,0-1.39.65A2.85,2.85,0,0,0,15,83.19a2.43,2.43,0,0,0,.49,1.6,1.57,1.57,0,0,0,1.28.61,1.68,1.68,0,0,0,1.31-.58A2.12,2.12,0,0,0,18.59,83.35Z" transform="translate(-2.47)"/><path class="cls-12" d="M21.81,78.54a.6.6,0,0,1-.44-.18.57.57,0,0,1-.18-.44.61.61,0,0,1,.18-.45.6.6,0,0,1,.44-.18.64.64,0,0,1,.45.18.61.61,0,0,1,.18.45.6.6,0,0,1-.18.44A.64.64,0,0,1,21.81,78.54Zm.47,7.52h-1v-6h1Z" transform="translate(-2.47)"/><path class="cls-12" d="M29,86.06h-1V82.64c0-1.27-.46-1.91-1.39-1.91a1.54,1.54,0,0,0-1.2.54A2,2,0,0,0,25,82.64v3.42H24v-6h1v1h0a2.16,2.16,0,0,1,2-1.14,1.83,1.83,0,0,1,1.51.64A2.8,2.8,0,0,1,29,82.4Z" transform="translate(-2.47)"/><path class="cls-12" d="M35,86.06H34v-.93h0a2,2,0,0,1-1.84,1.07,2,2,0,0,1-1.41-.47,1.68,1.68,0,0,1-.5-1.26c0-1.12.66-1.77,2-2l1.8-.25c0-1-.42-1.53-1.24-1.53a3,3,0,0,0-2,.74v-1a3.76,3.76,0,0,1,2-.56c1.41,0,2.12.75,2.12,2.24Zm-1-3-1.45.2a2.3,2.3,0,0,0-1,.33,1,1,0,0,0-.34.84.93.93,0,0,0,.32.72,1.21,1.21,0,0,0,.83.28,1.52,1.52,0,0,0,1.18-.51A1.77,1.77,0,0,0,34,83.63Z" transform="translate(-2.47)"/><path class="cls-12" d="M44.81,86.06h-1V85h0a2.2,2.2,0,0,1-2.06,1.16A2.24,2.24,0,0,1,40,85.4a3.32,3.32,0,0,1-.67-2.2A3.59,3.59,0,0,1,40,80.82a2.46,2.46,0,0,1,2-.9,1.92,1.92,0,0,1,1.8,1h0V77.18h1Zm-1-2.71v-.88a1.74,1.74,0,0,0-.48-1.24,1.65,1.65,0,0,0-1.22-.5,1.68,1.68,0,0,0-1.39.65,2.85,2.85,0,0,0-.5,1.78,2.53,2.53,0,0,0,.48,1.63,1.71,1.71,0,0,0,2.6,0A2.11,2.11,0,0,0,43.85,83.35Z" transform="translate(-2.47)"/><path class="cls-12" d="M51.39,83.3H47.16a2.19,2.19,0,0,0,.54,1.55,1.85,1.85,0,0,0,1.41.55A3,3,0,0,0,51,84.73v.9a3.52,3.52,0,0,1-2.09.57,2.54,2.54,0,0,1-2-.81,3.34,3.34,0,0,1-.73-2.3A3.29,3.29,0,0,1,47,80.8a2.55,2.55,0,0,1,2-.88,2.28,2.28,0,0,1,1.82.76,3.19,3.19,0,0,1,.64,2.12Zm-1-.81a2,2,0,0,0-.4-1.3,1.4,1.4,0,0,0-1.1-.46,1.52,1.52,0,0,0-1.15.49,2.16,2.16,0,0,0-.59,1.27Z" transform="translate(-2.47)"/><path class="cls-12" d="M10.07,93a.59.59,0,0,1-.44-.18.57.57,0,0,1-.18-.44A.61.61,0,0,1,9.63,92a.59.59,0,0,1,.44-.18.6.6,0,0,1,.44.18.58.58,0,0,1,.19.45.58.58,0,0,1-.19.44A.6.6,0,0,1,10.07,93Zm.47,7.52h-1v-6h1Z" transform="translate(-2.47)"/><path class="cls-12" d="M17.28,100.56h-1V97.14c0-1.27-.47-1.91-1.39-1.91a1.52,1.52,0,0,0-1.2.54,2,2,0,0,0-.47,1.37v3.42h-1v-6h1v1h0a2.17,2.17,0,0,1,2-1.14,1.83,1.83,0,0,1,1.51.64,2.8,2.8,0,0,1,.52,1.84Z" transform="translate(-2.47)"/><path class="cls-12" d="M19.4,93a.62.62,0,0,1-.44-.18.57.57,0,0,1-.18-.44A.61.61,0,0,1,19,92a.62.62,0,0,1,.44-.18.61.61,0,0,1,.45.18.58.58,0,0,1,.19.45.58.58,0,0,1-.19.44A.61.61,0,0,1,19.4,93Zm.47,7.52h-1v-6h1Z" transform="translate(-2.47)"/><path class="cls-12" d="M25.73,100.29a3.19,3.19,0,0,1-1.64.41A2.68,2.68,0,0,1,22,99.87a3,3,0,0,1-.79-2.17,3.32,3.32,0,0,1,.85-2.38,3,3,0,0,1,2.26-.9,3.1,3.1,0,0,1,1.4.3v1a2.47,2.47,0,0,0-1.43-.47,1.93,1.93,0,0,0-1.51.66,2.52,2.52,0,0,0-.59,1.73,2.41,2.41,0,0,0,.56,1.67,1.91,1.91,0,0,0,1.48.61,2.42,2.42,0,0,0,1.48-.53Z" transform="translate(-2.47)"/><path class="cls-12" d="M27.49,93a.6.6,0,0,1-.44-.18.57.57,0,0,1-.18-.44.61.61,0,0,1,.18-.45.6.6,0,0,1,.44-.18.61.61,0,0,1,.45.18.62.62,0,0,1,0,.89A.61.61,0,0,1,27.49,93Zm.47,7.52H27v-6h1Z" transform="translate(-2.47)"/><path class="cls-12" d="M32.23,100.7a2.79,2.79,0,0,1-2.12-.84,3.1,3.1,0,0,1-.79-2.23,3.26,3.26,0,0,1,.82-2.36,3,3,0,0,1,2.24-.85,2.69,2.69,0,0,1,2.09.83,3.27,3.27,0,0,1,.75,2.29,3.23,3.23,0,0,1-.81,2.3A2.82,2.82,0,0,1,32.23,100.7Zm.08-5.47a1.84,1.84,0,0,0-1.47.63,2.59,2.59,0,0,0-.54,1.74,2.41,2.41,0,0,0,.55,1.68,1.85,1.85,0,0,0,1.46.62,1.77,1.77,0,0,0,1.43-.61,2.63,2.63,0,0,0,.5-1.72,2.68,2.68,0,0,0-.5-1.73A1.74,1.74,0,0,0,32.31,95.23Z" transform="translate(-2.47)"/><path class="cls-12" d="M44.81,100.56h-1v-1h0a2.2,2.2,0,0,1-2.06,1.16A2.24,2.24,0,0,1,40,99.9a3.32,3.32,0,0,1-.67-2.2A3.59,3.59,0,0,1,40,95.32a2.46,2.46,0,0,1,2-.9,1.92,1.92,0,0,1,1.8,1h0V91.68h1Zm-1-2.71V97a1.74,1.74,0,0,0-.48-1.24,1.65,1.65,0,0,0-1.22-.5,1.68,1.68,0,0,0-1.39.65,2.85,2.85,0,0,0-.5,1.78,2.53,2.53,0,0,0,.48,1.63,1.71,1.71,0,0,0,2.6,0A2.11,2.11,0,0,0,43.85,97.85Z" transform="translate(-2.47)"/><path class="cls-12" d="M51.39,97.8H47.16a2.19,2.19,0,0,0,.54,1.55,1.85,1.85,0,0,0,1.41.55A3,3,0,0,0,51,99.23v.9a3.52,3.52,0,0,1-2.09.57,2.54,2.54,0,0,1-2-.81,3.34,3.34,0,0,1-.73-2.3A3.29,3.29,0,0,1,47,95.3a2.55,2.55,0,0,1,2-.88,2.28,2.28,0,0,1,1.82.76,3.19,3.19,0,0,1,.64,2.12Zm-1-.81a2,2,0,0,0-.4-1.3,1.4,1.4,0,0,0-1.1-.46,1.52,1.52,0,0,0-1.15.49A2.16,2.16,0,0,0,47.17,97Z" transform="translate(-2.47)"/><path class="cls-12" d="M20.2,114.85v-1a2.82,2.82,0,0,0,1.72.59c.85,0,1.27-.29,1.27-.85a.78.78,0,0,0-.11-.41,1,1,0,0,0-.29-.29,2.18,2.18,0,0,0-.43-.23l-.54-.22a5.16,5.16,0,0,1-.7-.32,2,2,0,0,1-.5-.36,1.29,1.29,0,0,1-.31-.46,1.57,1.57,0,0,1-.1-.6,1.44,1.44,0,0,1,.19-.75,1.7,1.7,0,0,1,.52-.55,2.71,2.71,0,0,1,.73-.33,3.59,3.59,0,0,1,2.25.16v1a2.78,2.78,0,0,0-1.52-.43,1.83,1.83,0,0,0-.49.06,1.06,1.06,0,0,0-.37.18.66.66,0,0,0-.24.26.69.69,0,0,0-.09.34.78.78,0,0,0,.34.68,2.36,2.36,0,0,0,.39.22l.54.22a6.85,6.85,0,0,1,.71.31,2.82,2.82,0,0,1,.54.36,1.41,1.41,0,0,1,.34.47,1.54,1.54,0,0,1,.12.63,1.49,1.49,0,0,1-.19.77,1.74,1.74,0,0,1-.53.55,2.43,2.43,0,0,1-.75.32,3.82,3.82,0,0,1-.9.1A3.47,3.47,0,0,1,20.2,114.85Z" transform="translate(-2.47)"/><path class="cls-12" d="M30.29,112.3H26.06a2.19,2.19,0,0,0,.54,1.55,1.85,1.85,0,0,0,1.41.55,3,3,0,0,0,1.87-.67v.9a3.52,3.52,0,0,1-2.09.57,2.54,2.54,0,0,1-2-.81,3.85,3.85,0,0,1,.06-4.59,2.58,2.58,0,0,1,2-.88,2.28,2.28,0,0,1,1.82.76,3.19,3.19,0,0,1,.64,2.12Zm-1-.81a2,2,0,0,0-.4-1.3,1.4,1.4,0,0,0-1.1-.46,1.56,1.56,0,0,0-1.16.49,2.21,2.21,0,0,0-.58,1.27Z" transform="translate(-2.47)"/><path class="cls-12" d="M31.2,114.85v-1a2.85,2.85,0,0,0,1.73.59c.85,0,1.27-.29,1.27-.85a.78.78,0,0,0-.11-.41,1,1,0,0,0-.29-.29,2.27,2.27,0,0,0-.44-.23l-.53-.22a5.16,5.16,0,0,1-.7-.32,2.21,2.21,0,0,1-.51-.36,1.41,1.41,0,0,1-.3-.46,1.57,1.57,0,0,1-.1-.6,1.44,1.44,0,0,1,.19-.75,1.78,1.78,0,0,1,.51-.55,2.77,2.77,0,0,1,.74-.33,3.59,3.59,0,0,1,2.25.16v1a2.79,2.79,0,0,0-1.53-.43,1.75,1.75,0,0,0-.48.06,1.11,1.11,0,0,0-.38.18.85.85,0,0,0-.24.26.81.81,0,0,0-.08.34,1,1,0,0,0,.08.4.94.94,0,0,0,.25.28,2.48,2.48,0,0,0,.4.22l.54.22a6.85,6.85,0,0,1,.71.31,2.82,2.82,0,0,1,.54.36,1.41,1.41,0,0,1,.34.47,1.54,1.54,0,0,1,.12.63,1.49,1.49,0,0,1-.19.77,1.85,1.85,0,0,1-.53.55,2.54,2.54,0,0,1-.75.32,3.82,3.82,0,0,1-.9.1A3.54,3.54,0,0,1,31.2,114.85Z" transform="translate(-2.47)"/><path class="cls-12" d="M37,107.54a.6.6,0,0,1-.44-.18.57.57,0,0,1-.18-.44.61.61,0,0,1,.18-.45.6.6,0,0,1,.44-.18.62.62,0,0,1,.63.63.6.6,0,0,1-.18.44A.61.61,0,0,1,37,107.54Zm.47,7.52h-1v-6h1Z" transform="translate(-2.47)"/><path class="cls-12" d="M41.71,115.2a2.79,2.79,0,0,1-2.12-.84,3.11,3.11,0,0,1-.8-2.23,3.26,3.26,0,0,1,.83-2.36,3,3,0,0,1,2.23-.85,2.7,2.7,0,0,1,2.1.83A3.27,3.27,0,0,1,44.7,112a3.23,3.23,0,0,1-.81,2.3A2.83,2.83,0,0,1,41.71,115.2Zm.07-5.47a1.83,1.83,0,0,0-1.46.63,2.59,2.59,0,0,0-.54,1.74,2.46,2.46,0,0,0,.54,1.68,1.87,1.87,0,0,0,1.46.62,1.79,1.79,0,0,0,1.44-.61,2.63,2.63,0,0,0,.5-1.72,2.68,2.68,0,0,0-.5-1.73A1.76,1.76,0,0,0,41.78,109.73ZM43.19,106l-1.54,1.93h-.74L42.22,106Z" transform="translate(-2.47)"/><path class="cls-12" d="M51,115.06h-1v-3.42c0-1.27-.47-1.91-1.4-1.91a1.5,1.5,0,0,0-1.19.54,2,2,0,0,0-.47,1.37v3.42h-1v-6h1v1h0a2.16,2.16,0,0,1,2-1.14,1.83,1.83,0,0,1,1.51.64A2.86,2.86,0,0,1,51,111.4Z" transform="translate(-2.47)"/><path class="cls-12" d="M66.32,246.8H61.87v-8.4h4.26v.89H62.85v2.8h3V243h-3v2.94h3.47Z" transform="translate(-2.47)"/><path class="cls-12" d="M72.12,240.8l-2,3,2,3H71l-1.18-1.94c-.08-.12-.16-.28-.27-.46h0l-.27.46L68,246.8h-1.1l2-2.94-2-3.06h1.12l1.16,2,.26.47h0l1.5-2.52Z" transform="translate(-2.47)"/><path class="cls-12" d="M74.16,245.94h0v3.62h-1V240.8h1v1.06h0a2.26,2.26,0,0,1,2.07-1.2,2.19,2.19,0,0,1,1.81.81,3.28,3.28,0,0,1,.65,2.16A3.72,3.72,0,0,1,78,246a2.45,2.45,0,0,1-2,.9A2,2,0,0,1,74.16,245.94Zm0-2.42v.83a1.77,1.77,0,0,0,.49,1.27,1.73,1.73,0,0,0,2.59-.15,3.09,3.09,0,0,0,.5-1.86,2.41,2.41,0,0,0-.47-1.57,1.51,1.51,0,0,0-1.25-.57,1.73,1.73,0,0,0-1.35.58A2.16,2.16,0,0,0,74.13,243.52Z" transform="translate(-2.47)"/><path class="cls-12" d="M81.12,246.8h-1v-8.88h1Z" transform="translate(-2.47)"/><path class="cls-12" d="M85.5,246.94a2.79,2.79,0,0,1-2.13-.84,3.1,3.1,0,0,1-.79-2.23,3.22,3.22,0,0,1,.83-2.36,3,3,0,0,1,2.23-.85,2.69,2.69,0,0,1,2.09.83,3.28,3.28,0,0,1,.76,2.29,3.23,3.23,0,0,1-.82,2.3A2.81,2.81,0,0,1,85.5,246.94Zm.07-5.47a1.84,1.84,0,0,0-1.47.63,2.59,2.59,0,0,0-.54,1.74,2.46,2.46,0,0,0,.55,1.68,1.85,1.85,0,0,0,1.46.61,1.75,1.75,0,0,0,1.43-.6,2.63,2.63,0,0,0,.5-1.72,2.68,2.68,0,0,0-.5-1.73A1.73,1.73,0,0,0,85.57,241.47Z" transform="translate(-2.47)"/><path class="cls-12" d="M93.08,241.78a1.18,1.18,0,0,0-.73-.2,1.25,1.25,0,0,0-1,.58,2.74,2.74,0,0,0-.41,1.58v3.06H90v-6h1V242h0a2.17,2.17,0,0,1,.63-1,1.46,1.46,0,0,1,.94-.35,1.52,1.52,0,0,1,.58.08Z" transform="translate(-2.47)"/><path class="cls-12" d="M98.34,246.8h-1v-.93h0a2,2,0,0,1-1.85,1.07,2,2,0,0,1-1.4-.47,1.65,1.65,0,0,1-.51-1.26c0-1.12.66-1.77,2-2l1.8-.25q0-1.53-1.23-1.53a3,3,0,0,0-2,.74v-1a3.76,3.76,0,0,1,2-.56c1.41,0,2.11.75,2.11,2.24Zm-1-3-1.44.2a2.25,2.25,0,0,0-1,.33,1,1,0,0,0-.34.84.92.92,0,0,0,.31.72,1.25,1.25,0,0,0,.84.27,1.53,1.53,0,0,0,1.18-.5,1.76,1.76,0,0,0,.46-1.26Z" transform="translate(-2.47)"/><path class="cls-12" d="M105.2,246.8h-1v-1h0a2.21,2.21,0,0,1-2.06,1.16,2.25,2.25,0,0,1-1.81-.8,3.33,3.33,0,0,1-.68-2.2,3.59,3.59,0,0,1,.75-2.38,2.48,2.48,0,0,1,2-.9,2,2,0,0,1,1.8,1h0v-3.71h1Zm-1-2.71v-.88a1.74,1.74,0,0,0-.48-1.24,1.62,1.62,0,0,0-1.22-.5,1.67,1.67,0,0,0-1.38.65,2.77,2.77,0,0,0-.5,1.78,2.53,2.53,0,0,0,.48,1.63,1.57,1.57,0,0,0,1.3.6,1.63,1.63,0,0,0,1.3-.58A2.11,2.11,0,0,0,104.24,244.09Z" transform="translate(-2.47)"/><path class="cls-12" d="M109.58,246.94a2.79,2.79,0,0,1-2.12-.84,3.1,3.1,0,0,1-.79-2.23,3.26,3.26,0,0,1,.82-2.36,3,3,0,0,1,2.23-.85,2.7,2.7,0,0,1,2.1.83,3.27,3.27,0,0,1,.75,2.29,3.23,3.23,0,0,1-.81,2.3A2.83,2.83,0,0,1,109.58,246.94Zm.07-5.47a1.83,1.83,0,0,0-1.46.63,2.59,2.59,0,0,0-.54,1.74,2.41,2.41,0,0,0,.55,1.68,1.82,1.82,0,0,0,1.45.61,1.77,1.77,0,0,0,1.44-.6,2.63,2.63,0,0,0,.5-1.72,2.68,2.68,0,0,0-.5-1.73A1.75,1.75,0,0,0,109.65,241.47Z" transform="translate(-2.47)"/><path class="cls-12" d="M117.16,241.78a1.14,1.14,0,0,0-.72-.2,1.25,1.25,0,0,0-1,.58,2.67,2.67,0,0,0-.41,1.58v3.06h-1v-6h1V242h0a2.17,2.17,0,0,1,.63-1,1.61,1.61,0,0,1,1.51-.27Z" transform="translate(-2.47)"/><path class="cls-12" d="M66.24,261.3h-1v-1h0a2.22,2.22,0,0,1-2.07,1.16,2.25,2.25,0,0,1-1.8-.8,3.33,3.33,0,0,1-.68-2.2,3.59,3.59,0,0,1,.75-2.38,2.48,2.48,0,0,1,2-.9,2,2,0,0,1,1.8,1h0v-3.71h1Zm-1-2.71v-.88a1.74,1.74,0,0,0-.48-1.24,1.64,1.64,0,0,0-1.22-.5,1.66,1.66,0,0,0-1.38.65,2.77,2.77,0,0,0-.51,1.78,2.53,2.53,0,0,0,.49,1.63,1.57,1.57,0,0,0,1.3.6,1.63,1.63,0,0,0,1.3-.58A2.16,2.16,0,0,0,65.28,258.59Z" transform="translate(-2.47)"/><path class="cls-12" d="M72.94,258.54H68.7a2.28,2.28,0,0,0,.54,1.55,1.87,1.87,0,0,0,1.42.54,3,3,0,0,0,1.86-.66v.9a3.5,3.5,0,0,1-2.09.57,2.56,2.56,0,0,1-2-.81,3.39,3.39,0,0,1-.72-2.3A3.29,3.29,0,0,1,68.5,256a2.58,2.58,0,0,1,2-.88,2.27,2.27,0,0,1,1.82.76,3.2,3.2,0,0,1,.65,2.12Zm-1-.81a1.91,1.91,0,0,0-.4-1.3,1.39,1.39,0,0,0-1.1-.46,1.54,1.54,0,0,0-1.15.49,2.22,2.22,0,0,0-.59,1.27Z" transform="translate(-2.47)"/><path class="cls-12" d="M75.28,261.3h-1v-8.88h1Z" transform="translate(-2.47)"/><path class="cls-12" d="M85.22,261.3h-1v-.95h0a2,2,0,0,1-1.85,1.09c-1.43,0-2.14-.85-2.14-2.55V255.3h1v3.44c0,1.26.49,1.89,1.46,1.89a1.46,1.46,0,0,0,1.15-.51,2,2,0,0,0,.46-1.36V255.3h1Z" transform="translate(-2.47)"/><path class="cls-12" d="M86.72,261.09v-1a2.84,2.84,0,0,0,1.73.58c.85,0,1.27-.28,1.27-.84a.78.78,0,0,0-.11-.41,1,1,0,0,0-.29-.29,1.83,1.83,0,0,0-.44-.23l-.53-.22a5.16,5.16,0,0,1-.7-.32,2.21,2.21,0,0,1-.51-.36,1.41,1.41,0,0,1-.3-.46,1.57,1.57,0,0,1-.1-.6,1.44,1.44,0,0,1,.19-.75,1.78,1.78,0,0,1,.51-.55,2.77,2.77,0,0,1,.74-.33,3.59,3.59,0,0,1,2.25.16v1A2.79,2.79,0,0,0,88.9,256a1.75,1.75,0,0,0-.48.06,1.11,1.11,0,0,0-.38.18.85.85,0,0,0-.24.26.81.81,0,0,0-.08.34,1,1,0,0,0,.08.4.94.94,0,0,0,.25.28,2.48,2.48,0,0,0,.4.22l.54.22a6.85,6.85,0,0,1,.71.31,2.82,2.82,0,0,1,.54.36,1.41,1.41,0,0,1,.34.47,1.54,1.54,0,0,1,.12.63,1.49,1.49,0,0,1-.19.77A1.74,1.74,0,0,1,90,261a2.54,2.54,0,0,1-.75.32,3.82,3.82,0,0,1-.9.1A3.54,3.54,0,0,1,86.72,261.09Z" transform="translate(-2.47)"/><path class="cls-12" d="M97,261.3H96v-.95h0a2,2,0,0,1-1.85,1.09c-1.43,0-2.14-.85-2.14-2.55V255.3h1v3.44c0,1.26.49,1.89,1.46,1.89a1.47,1.47,0,0,0,1.15-.51,2,2,0,0,0,.46-1.36V255.3h1Z" transform="translate(-2.47)"/><path class="cls-12" d="M103.12,261.3h-1v-.93h0a2,2,0,0,1-1.85,1.07,2,2,0,0,1-1.4-.47,1.65,1.65,0,0,1-.51-1.26c0-1.12.66-1.77,2-2l1.8-.25c0-1-.41-1.53-1.24-1.53a3,3,0,0,0-2,.74v-1a3.76,3.76,0,0,1,2-.56c1.41,0,2.11.75,2.11,2.24Zm-1-3-1.45.2a2.35,2.35,0,0,0-1,.33,1,1,0,0,0-.34.84.93.93,0,0,0,.32.72,1.24,1.24,0,0,0,.83.27,1.51,1.51,0,0,0,1.18-.5,1.77,1.77,0,0,0,.47-1.26Z" transform="translate(-2.47)"/><path class="cls-12" d="M108,256.28a1.18,1.18,0,0,0-.73-.2,1.25,1.25,0,0,0-1,.58,2.74,2.74,0,0,0-.41,1.58v3.06h-1v-6h1v1.24h0a2.17,2.17,0,0,1,.63-1,1.46,1.46,0,0,1,.94-.35,1.52,1.52,0,0,1,.58.08Z" transform="translate(-2.47)"/><path class="cls-12" d="M109.45,253.78a.6.6,0,0,1-.44-.18.57.57,0,0,1-.18-.44.61.61,0,0,1,.18-.45.6.6,0,0,1,.44-.18.62.62,0,0,1,.63.63.6.6,0,0,1-.18.44A.61.61,0,0,1,109.45,253.78Zm.47,7.52h-1v-6h1Z" transform="translate(-2.47)"/><path class="cls-12" d="M114.3,261.44a2.77,2.77,0,0,1-2.12-.84,3.11,3.11,0,0,1-.8-2.23,3.26,3.26,0,0,1,.83-2.36,3,3,0,0,1,2.23-.85,2.71,2.71,0,0,1,2.1.83,3.27,3.27,0,0,1,.75,2.29,3.23,3.23,0,0,1-.81,2.3A2.83,2.83,0,0,1,114.3,261.44Zm.07-5.47a1.81,1.81,0,0,0-1.46.63,2.59,2.59,0,0,0-.54,1.74,2.46,2.46,0,0,0,.54,1.68,1.86,1.86,0,0,0,1.46.61,1.75,1.75,0,0,0,1.43-.6,2.58,2.58,0,0,0,.5-1.72,2.62,2.62,0,0,0-.5-1.73A1.73,1.73,0,0,0,114.37,256Z" transform="translate(-2.47)"/><path class="cls-12" d="M203.32,246.41h-1.09l-.89-2.35h-3.56l-.84,2.35h-1.1l3.23-8.4h1Zm-2.3-3.24-1.32-3.58a3.14,3.14,0,0,1-.13-.56h0a3,3,0,0,1-.14.56l-1.3,3.58Z" transform="translate(-2.47)"/><path class="cls-12" d="M205.34,245.55h0v3.62h-1v-8.76h1v1.06h0a2.27,2.27,0,0,1,2.08-1.2,2.2,2.2,0,0,1,1.81.81,3.35,3.35,0,0,1,.65,2.16,3.73,3.73,0,0,1-.74,2.41,2.42,2.42,0,0,1-2,.9A2,2,0,0,1,205.34,245.55Zm0-2.42V244a1.81,1.81,0,0,0,.48,1.27,1.73,1.73,0,0,0,2.6-.15,3.09,3.09,0,0,0,.49-1.86,2.41,2.41,0,0,0-.46-1.57,1.54,1.54,0,0,0-1.26-.57,1.72,1.72,0,0,0-1.34.58A2.16,2.16,0,0,0,205.32,243.13Z" transform="translate(-2.47)"/><path class="cls-12" d="M212.3,246.41h-1v-8.88h1Z" transform="translate(-2.47)"/><path class="cls-12" d="M214.67,238.89a.59.59,0,0,1-.44-.18.55.55,0,0,1-.19-.44.63.63,0,0,1,.63-.63.6.6,0,0,1,.44.18.58.58,0,0,1,.19.45.58.58,0,0,1-.19.44A.6.6,0,0,1,214.67,238.89Zm.46,7.52h-1v-6h1Z" transform="translate(-2.47)"/><path class="cls-12" d="M221.1,246.14a3.1,3.1,0,0,1-1.64.41,2.72,2.72,0,0,1-2.08-.83,3.06,3.06,0,0,1-.78-2.17,3.32,3.32,0,0,1,.85-2.38,3,3,0,0,1,2.26-.9,3.1,3.1,0,0,1,1.4.3v1a2.47,2.47,0,0,0-1.43-.47,1.93,1.93,0,0,0-1.51.66,2.52,2.52,0,0,0-.59,1.73,2.45,2.45,0,0,0,.55,1.67,1.94,1.94,0,0,0,1.49.61,2.42,2.42,0,0,0,1.48-.53Z" transform="translate(-2.47)"/><path class="cls-12" d="M226.77,246.41h-1v-.93h0a2,2,0,0,1-1.85,1.07,2,2,0,0,1-1.4-.47,1.65,1.65,0,0,1-.51-1.26c0-1.12.66-1.77,2-2l1.8-.25q0-1.53-1.23-1.53a3,3,0,0,0-2,.74v-1a3.76,3.76,0,0,1,2-.56c1.41,0,2.11.75,2.11,2.24Zm-1-3-1.44.2a2.25,2.25,0,0,0-1,.33,1,1,0,0,0-.34.84.92.92,0,0,0,.31.72,1.25,1.25,0,0,0,.84.28,1.54,1.54,0,0,0,1.18-.51,1.76,1.76,0,0,0,.46-1.26Z" transform="translate(-2.47)"/><path class="cls-12" d="M232.6,246.14a3.1,3.1,0,0,1-1.64.41,2.71,2.71,0,0,1-2.07-.83,3,3,0,0,1-.79-2.17,3.32,3.32,0,0,1,.85-2.38,3,3,0,0,1,2.27-.9,3.06,3.06,0,0,1,1.39.3v1a2.45,2.45,0,0,0-1.43-.47,2,2,0,0,0-1.51.66,2.51,2.51,0,0,0-.58,1.73,2.4,2.4,0,0,0,.55,1.67,1.93,1.93,0,0,0,1.49.61,2.39,2.39,0,0,0,1.47-.53Z" transform="translate(-2.47)"/><path class="cls-12" d="M234.47,238.89a.58.58,0,0,1-.43-.18.55.55,0,0,1-.19-.44.63.63,0,0,1,.62-.63.61.61,0,0,1,.45.18.58.58,0,0,1,.19.45.58.58,0,0,1-.19.44A.61.61,0,0,1,234.47,238.89Zm.47,7.52h-1v-6h1Z" transform="translate(-2.47)"/><path class="cls-12" d="M239.32,246.55a2.79,2.79,0,0,1-2.12-.84,3.1,3.1,0,0,1-.79-2.23,3.26,3.26,0,0,1,.82-2.36,3,3,0,0,1,2.23-.85,2.7,2.7,0,0,1,2.1.83,3.27,3.27,0,0,1,.75,2.29,3.23,3.23,0,0,1-.81,2.3A2.83,2.83,0,0,1,239.32,246.55Zm.07-5.47a1.83,1.83,0,0,0-1.46.63,2.59,2.59,0,0,0-.54,1.74,2.41,2.41,0,0,0,.55,1.68,1.85,1.85,0,0,0,1.45.62,1.78,1.78,0,0,0,1.44-.61,2.63,2.63,0,0,0,.5-1.72,2.68,2.68,0,0,0-.5-1.73A1.75,1.75,0,0,0,239.39,241.08Zm1.41-3.73-1.53,1.93h-.75l1.31-1.93Z" transform="translate(-2.47)"/><path class="cls-12" d="M248.76,246.41h-1V243c0-1.27-.47-1.91-1.4-1.91a1.5,1.5,0,0,0-1.19.54,2,2,0,0,0-.47,1.37v3.42h-1v-6h1v1h0a2.16,2.16,0,0,1,2-1.14,1.83,1.83,0,0,1,1.51.64,2.86,2.86,0,0,1,.52,1.84Z" transform="translate(-2.47)"/><path class="cls-12" d="M220.26,254.91l-1.8,6h-1l-1.23-4.29a3,3,0,0,1-.1-.56h0a2.64,2.64,0,0,1-.12.55l-1.35,4.3h-1l-1.81-6h1l1.25,4.51a3.12,3.12,0,0,1,.08.54h.05a2.38,2.38,0,0,1,.1-.55l1.38-4.5h.88l1.24,4.53a3,3,0,0,1,.09.54H218a2.4,2.4,0,0,1,.1-.54l1.22-4.53Z" transform="translate(-2.47)"/><path class="cls-12" d="M226.12,258.15h-4.24a2.28,2.28,0,0,0,.54,1.55,1.89,1.89,0,0,0,1.42.55,3,3,0,0,0,1.86-.67v.9a3.47,3.47,0,0,1-2.09.57,2.56,2.56,0,0,1-2-.81,3.39,3.39,0,0,1-.72-2.3,3.29,3.29,0,0,1,.79-2.29,2.58,2.58,0,0,1,2-.88,2.29,2.29,0,0,1,1.83.76,3.19,3.19,0,0,1,.64,2.12Zm-1-.81a2,2,0,0,0-.41-1.3,1.38,1.38,0,0,0-1.09-.46,1.54,1.54,0,0,0-1.16.49,2.21,2.21,0,0,0-.58,1.27Z" transform="translate(-2.47)"/><path class="cls-12" d="M228.49,260.05h0v.86h-1V252h1V256h0a2.26,2.26,0,0,1,2.07-1.2,2.2,2.2,0,0,1,1.81.81,3.35,3.35,0,0,1,.65,2.16,3.72,3.72,0,0,1-.73,2.41,2.46,2.46,0,0,1-2,.9A2,2,0,0,1,228.49,260.05Zm0-2.42v.83a1.77,1.77,0,0,0,.49,1.27,1.71,1.71,0,0,0,2.59-.15,3.09,3.09,0,0,0,.5-1.86,2.41,2.41,0,0,0-.47-1.57,1.52,1.52,0,0,0-1.25-.57,1.73,1.73,0,0,0-1.35.58A2.16,2.16,0,0,0,228.46,257.63Z" transform="translate(-2.47)"/><path class="cls-13" d="M102.46,29.9v2.89h-1.89v-8.4h3c2.11,0,3.17.89,3.17,2.68a2.58,2.58,0,0,1-.91,2.05,3.62,3.62,0,0,1-2.43.78Zm0-4.06v2.62h.75c1,0,1.51-.44,1.51-1.32s-.5-1.3-1.51-1.3Z" transform="translate(-2.47)"/><path class="cls-13" d="M109.61,32.79h-1.85V23.91h1.85Z" transform="translate(-2.47)"/><path class="cls-13" d="M116.16,32.79h-1.75v-.86h0a2,2,0,0,1-1.79,1,1.86,1.86,0,0,1-1.37-.5,1.75,1.75,0,0,1-.5-1.32c0-1.16.68-1.83,2.06-2l1.63-.22c0-.66-.35-1-1.06-1a3.65,3.65,0,0,0-2,.63V27.15a4.57,4.57,0,0,1,1.05-.35,5.71,5.71,0,0,1,1.23-.15,2.26,2.26,0,0,1,2.56,2.56Zm-1.74-2.43V30l-1.09.14c-.6.08-.9.35-.9.82a.64.64,0,0,0,.22.51.82.82,0,0,0,.59.21,1.08,1.08,0,0,0,.85-.36A1.31,1.31,0,0,0,114.42,30.36Z" transform="translate(-2.47)"/><path class="cls-13" d="M121.25,32.72a2.62,2.62,0,0,1-1.23.22,1.76,1.76,0,0,1-2-2V28.16h-1V26.79h1V25.5l1.85-.53v1.82h1.34v1.37h-1.34v2.42c0,.63.24.94.74.94a1.24,1.24,0,0,0,.6-.17Z" transform="translate(-2.47)"/><path class="cls-13" d="M127.29,32.79h-1.75v-.86h0a2,2,0,0,1-1.78,1,1.9,1.9,0,0,1-1.38-.5,1.79,1.79,0,0,1-.5-1.32q0-1.74,2.07-2l1.63-.22c0-.66-.36-1-1.07-1a3.7,3.7,0,0,0-2,.63V27.15a4.67,4.67,0,0,1,1.06-.35,5.7,5.7,0,0,1,1.22-.15,2.27,2.27,0,0,1,2.57,2.56Zm-1.74-2.43V30l-1.09.14c-.6.08-.9.35-.9.82a.64.64,0,0,0,.22.51.8.8,0,0,0,.59.21,1.1,1.1,0,0,0,.85-.36A1.31,1.31,0,0,0,125.55,30.36Z" transform="translate(-2.47)"/><path class="cls-13" d="M132.67,25.33a1.77,1.77,0,0,0-.69-.14c-.59,0-.89.32-.89,1v.64h1.37v1.37h-1.37v4.63h-1.84V28.16h-1V26.79h1v-.74a2.16,2.16,0,0,1,.66-1.65,2.55,2.55,0,0,1,1.82-.63,3.11,3.11,0,0,1,.94.12Z" transform="translate(-2.47)"/><path class="cls-13" d="M136.21,32.94a3.24,3.24,0,0,1-2.36-.84,3,3,0,0,1-.85-2.28,3,3,0,0,1,.89-2.33,3.34,3.34,0,0,1,2.4-.84,3.2,3.2,0,0,1,2.35.84,3,3,0,0,1,.85,2.22,3.15,3.15,0,0,1-.88,2.36A3.24,3.24,0,0,1,136.21,32.94Zm0-4.88a1.21,1.21,0,0,0-1,.46,2,2,0,0,0-.36,1.27c0,1.16.46,1.73,1.39,1.73s1.33-.59,1.33-1.77S137.15,28.06,136.26,28.06Z" transform="translate(-2.47)"/><path class="cls-13" d="M144.6,28.46a1.61,1.61,0,0,0-.78-.18,1.14,1.14,0,0,0-.94.44,1.93,1.93,0,0,0-.34,1.21v2.86h-1.85v-6h1.85v1.12h0a1.6,1.6,0,0,1,1.59-1.22,1.12,1.12,0,0,1,.45.07Z" transform="translate(-2.47)"/><path class="cls-13" d="M155,32.79h-1.85V29.37c0-.87-.32-1.31-1-1.31a.89.89,0,0,0-.74.4,1.61,1.61,0,0,0-.29,1v3.35h-1.85V29.34c0-.85-.32-1.28-1-1.28a.9.9,0,0,0-.75.38,1.65,1.65,0,0,0-.29,1v3.33H145.5v-6h1.85v.94h0a2.14,2.14,0,0,1,.8-.78,2.22,2.22,0,0,1,1.13-.3,1.72,1.72,0,0,1,1.74,1.12,2.22,2.22,0,0,1,2-1.12c1.31,0,2,.8,2,2.41Z" transform="translate(-2.47)"/><path class="cls-13" d="M161.48,32.79h-1.75v-.86h0a2,2,0,0,1-1.79,1,1.86,1.86,0,0,1-1.37-.5,1.75,1.75,0,0,1-.5-1.32q0-1.74,2.07-2l1.62-.22c0-.66-.35-1-1.06-1a3.65,3.65,0,0,0-2,.63V27.15a4.67,4.67,0,0,1,1.06-.35,5.56,5.56,0,0,1,1.22-.15,2.26,2.26,0,0,1,2.56,2.56Zm-1.74-2.43V30l-1.09.14c-.6.08-.9.35-.9.82a.67.67,0,0,0,.22.51.84.84,0,0,0,.6.21,1.11,1.11,0,0,0,.85-.36A1.35,1.35,0,0,0,159.74,30.36Z" transform="translate(-2.47)"/><path class="cls-13" d="M101.93,47.29h-1.85v-.82h0a2.09,2.09,0,0,1-1.86,1,2.29,2.29,0,0,1-1.81-.79,3.28,3.28,0,0,1-.69-2.22A3.57,3.57,0,0,1,96.46,42a2.47,2.47,0,0,1,2-.89,1.69,1.69,0,0,1,1.62.83h0V38.41h1.85Zm-1.82-2.91v-.46a1.4,1.4,0,0,0-.34-1,1.1,1.1,0,0,0-.88-.39,1.12,1.12,0,0,0-1,.49,2.24,2.24,0,0,0-.35,1.33,1.87,1.87,0,0,0,.34,1.21,1.09,1.09,0,0,0,.92.43,1.12,1.12,0,0,0,.92-.45A1.85,1.85,0,0,0,100.11,44.38Z" transform="translate(-2.47)"/><path class="cls-13" d="M108.88,44.82H105c.06.87.61,1.31,1.64,1.31a3.24,3.24,0,0,0,1.74-.47V47a4.5,4.5,0,0,1-2.16.45,2.79,2.79,0,0,1-3.06-3A3.2,3.2,0,0,1,104,42a2.9,2.9,0,0,1,2.13-.87,2.62,2.62,0,0,1,2,.78,3,3,0,0,1,.72,2.11Zm-1.72-1.14c0-.86-.35-1.29-1-1.29a1,1,0,0,0-.77.37,1.72,1.72,0,0,0-.4.92Z" transform="translate(-2.47)"/><path class="cls-13" d="M114.23,40.34a1.11,1.11,0,0,1-.77-.27.92.92,0,0,1-.3-.69.88.88,0,0,1,.3-.68,1.16,1.16,0,0,1,.77-.26,1.14,1.14,0,0,1,.77.26.93.93,0,0,1,0,1.37A1.1,1.1,0,0,1,114.23,40.34Zm.91,6.95h-1.85v-6h1.85Z" transform="translate(-2.47)"/><path class="cls-13" d="M122.57,47.29h-1.85v-.82h0a2.07,2.07,0,0,1-1.86,1,2.3,2.3,0,0,1-1.81-.79,3.28,3.28,0,0,1-.69-2.22A3.62,3.62,0,0,1,117.1,42a2.47,2.47,0,0,1,2-.89,1.69,1.69,0,0,1,1.62.83h0V38.41h1.85Zm-1.81-2.91v-.46a1.45,1.45,0,0,0-.34-1,1.2,1.2,0,0,0-1.85.1,2.24,2.24,0,0,0-.34,1.33,1.94,1.94,0,0,0,.33,1.21,1.09,1.09,0,0,0,.92.43,1.11,1.11,0,0,0,.92-.45A1.86,1.86,0,0,0,120.76,44.38Z" transform="translate(-2.47)"/><path class="cls-13" d="M129.52,44.82h-3.91c.06.87.61,1.31,1.64,1.31a3.24,3.24,0,0,0,1.74-.47V47a4.5,4.5,0,0,1-2.16.45,2.81,2.81,0,0,1-3.06-3,3.2,3.2,0,0,1,.87-2.37,2.9,2.9,0,0,1,2.13-.87,2.6,2.6,0,0,1,2,.78,3,3,0,0,1,.72,2.11Zm-1.72-1.14c0-.86-.34-1.29-1-1.29a1,1,0,0,0-.77.37,1.63,1.63,0,0,0-.39.92Z" transform="translate(-2.47)"/><path class="cls-13" d="M136.42,47.29h-1.85V44c0-.93-.33-1.4-1-1.4a1,1,0,0,0-.79.37,1.41,1.41,0,0,0-.32.94v3.42h-1.85v-6h1.85v1h0a2.11,2.11,0,0,1,1.93-1.09c1.32,0,2,.82,2,2.47Z" transform="translate(-2.47)"/><path class="cls-13" d="M141.51,47.22a2.67,2.67,0,0,1-1.24.22c-1.3,0-2-.68-2-2V42.66h-1V41.29h1V40l1.84-.53v1.82h1.35v1.37h-1.35v2.42c0,.63.25.94.75.94a1.31,1.31,0,0,0,.6-.17Z" transform="translate(-2.47)"/><path class="cls-13" d="M143.49,40.34a1.11,1.11,0,0,1-.77-.27.92.92,0,0,1-.3-.69.88.88,0,0,1,.3-.68,1.16,1.16,0,0,1,.77-.26,1.14,1.14,0,0,1,.77.26.93.93,0,0,1,0,1.37A1.1,1.1,0,0,1,143.49,40.34Zm.91,6.95h-1.85v-6h1.85Z" transform="translate(-2.47)"/><path class="cls-13" d="M151.83,47.29H150v-.82h0a2.07,2.07,0,0,1-1.86,1,2.3,2.3,0,0,1-1.81-.79,3.28,3.28,0,0,1-.68-2.22,3.62,3.62,0,0,1,.75-2.39,2.5,2.5,0,0,1,2-.89A1.68,1.68,0,0,1,150,42h0V38.41h1.85ZM150,44.38v-.46a1.45,1.45,0,0,0-.34-1,1.2,1.2,0,0,0-1.85.1,2.24,2.24,0,0,0-.34,1.33,1.94,1.94,0,0,0,.33,1.21,1.18,1.18,0,0,0,1.84,0A1.86,1.86,0,0,0,150,44.38Z" transform="translate(-2.47)"/><path class="cls-13" d="M158.38,47.29h-1.75v-.86h0a2,2,0,0,1-1.79,1,1.86,1.86,0,0,1-1.37-.5,1.75,1.75,0,0,1-.5-1.32q0-1.74,2.07-2l1.62-.22c0-.66-.35-1-1.06-1a3.65,3.65,0,0,0-2,.63V41.65a4.67,4.67,0,0,1,1.06-.35,5.56,5.56,0,0,1,1.22-.15,2.26,2.26,0,0,1,2.56,2.56Zm-1.74-2.43v-.41l-1.09.14c-.6.08-.9.35-.9.82a.67.67,0,0,0,.22.51.84.84,0,0,0,.6.21,1.11,1.11,0,0,0,.85-.36A1.3,1.3,0,0,0,156.64,44.86Z" transform="translate(-2.47)"/><path class="cls-13" d="M165.72,47.29h-1.85v-.82h0a2.09,2.09,0,0,1-1.86,1,2.29,2.29,0,0,1-1.81-.79,3.28,3.28,0,0,1-.69-2.22,3.57,3.57,0,0,1,.76-2.39,2.47,2.47,0,0,1,2-.89,1.69,1.69,0,0,1,1.62.83h0V38.41h1.85Zm-1.82-2.91v-.46a1.4,1.4,0,0,0-.34-1,1.1,1.1,0,0,0-.88-.39,1.12,1.12,0,0,0-1,.49,2.24,2.24,0,0,0-.35,1.33,1.87,1.87,0,0,0,.34,1.21,1.09,1.09,0,0,0,.92.43,1.12,1.12,0,0,0,.92-.45A1.85,1.85,0,0,0,163.9,44.38Z" transform="translate(-2.47)"/><path class="cls-13" d="M101.6,61.79H99.75V61h0a2.06,2.06,0,0,1-1.85,1,2.29,2.29,0,0,1-1.81-.79,3.28,3.28,0,0,1-.69-2.22,3.57,3.57,0,0,1,.76-2.39,2.47,2.47,0,0,1,2-.89,1.66,1.66,0,0,1,1.61.83h0V52.91h1.85Zm-1.82-2.91v-.46a1.4,1.4,0,0,0-.34-1,1.1,1.1,0,0,0-.88-.39,1.12,1.12,0,0,0-1,.49,2.24,2.24,0,0,0-.35,1.33,1.87,1.87,0,0,0,.34,1.21,1.09,1.09,0,0,0,.92.43,1.12,1.12,0,0,0,.92-.45A1.91,1.91,0,0,0,99.78,58.88Z" transform="translate(-2.47)"/><path class="cls-13" d="M108.55,59.32h-3.92c.07.87.62,1.31,1.65,1.31a3.24,3.24,0,0,0,1.74-.47v1.33a4.5,4.5,0,0,1-2.16.45,2.79,2.79,0,0,1-3.06-3,3.2,3.2,0,0,1,.87-2.37,2.9,2.9,0,0,1,2.13-.87,2.62,2.62,0,0,1,2,.78,3,3,0,0,1,.72,2.11Zm-1.72-1.14c0-.86-.35-1.29-1-1.29a1,1,0,0,0-.77.37,1.72,1.72,0,0,0-.4.92Z" transform="translate(-2.47)"/><path class="cls-13" d="M122.72,61.79h-1.87v-5c0-.55,0-1.15.07-1.8h0a9.45,9.45,0,0,1-.26,1.11l-2,5.71h-1.55l-2-5.65a8.85,8.85,0,0,1-.27-1.17h0c0,.82.08,1.55.08,2.18v4.64h-1.71v-8.4h2.77l1.72,5a6.58,6.58,0,0,1,.3,1.2h0a12.46,12.46,0,0,1,.34-1.21l1.72-5h2.7Z" transform="translate(-2.47)"/><path class="cls-13" d="M125.38,54.84a1.11,1.11,0,0,1-.77-.27.94.94,0,0,1-.29-.69.91.91,0,0,1,.29-.68,1.16,1.16,0,0,1,.77-.26,1.12,1.12,0,0,1,.77.26.93.93,0,0,1,0,1.37A1.08,1.08,0,0,1,125.38,54.84Zm.92,6.95h-1.86v-6h1.86Z" transform="translate(-2.47)"/><path class="cls-13" d="M132.4,61.58a3.69,3.69,0,0,1-1.81.36,3.06,3.06,0,0,1-2.24-.84,2.89,2.89,0,0,1-.85-2.16,3.19,3.19,0,0,1,.91-2.41,3.4,3.4,0,0,1,2.46-.88,3.12,3.12,0,0,1,1.53.28V57.5a2.12,2.12,0,0,0-1.29-.44,1.61,1.61,0,0,0-1.73,1.76,1.75,1.75,0,0,0,.44,1.25,1.66,1.66,0,0,0,1.23.45,2.42,2.42,0,0,0,1.35-.43Z" transform="translate(-2.47)"/><path class="cls-13" d="M137.53,57.46a1.61,1.61,0,0,0-.78-.18,1.12,1.12,0,0,0-.94.44,1.93,1.93,0,0,0-.34,1.21v2.86h-1.86v-6h1.86v1.12h0a1.59,1.59,0,0,1,1.58-1.22,1.14,1.14,0,0,1,.46.07Z" transform="translate(-2.47)"/><path class="cls-13" d="M141.2,61.94a3.24,3.24,0,0,1-2.36-.84,3,3,0,0,1-.85-2.28,3,3,0,0,1,.89-2.33,3.34,3.34,0,0,1,2.4-.84,3.2,3.2,0,0,1,2.35.84,3,3,0,0,1,.85,2.22,3.15,3.15,0,0,1-.88,2.36A3.24,3.24,0,0,1,141.2,61.94Zm.05-4.88a1.21,1.21,0,0,0-1,.46,2,2,0,0,0-.36,1.27c0,1.16.46,1.73,1.39,1.73s1.33-.59,1.33-1.77S142.14,57.06,141.25,57.06Z" transform="translate(-2.47)"/><path class="cls-13" d="M145.29,61.63v-1.5a3.2,3.2,0,0,0,.91.41,3,3,0,0,0,.86.14,1.83,1.83,0,0,0,.77-.14.43.43,0,0,0,.29-.41.41.41,0,0,0-.13-.29,1.32,1.32,0,0,0-.33-.2,4.72,4.72,0,0,0-.45-.16l-.46-.16a4.68,4.68,0,0,1-.63-.29,1.84,1.84,0,0,1-.46-.36,1.58,1.58,0,0,1-.28-.47,2.06,2.06,0,0,1-.09-.64,1.61,1.61,0,0,1,.22-.87,1.84,1.84,0,0,1,.58-.6,3.15,3.15,0,0,1,.84-.34,4.46,4.46,0,0,1,1-.1,5.52,5.52,0,0,1,.81.06,5.88,5.88,0,0,1,.81.18v1.43a3,3,0,0,0-.75-.31,3.11,3.11,0,0,0-.79-.1,2,2,0,0,0-.35,0,1.15,1.15,0,0,0-.28.09.51.51,0,0,0-.19.16.34.34,0,0,0-.07.22.4.4,0,0,0,.1.28.75.75,0,0,0,.28.2,2.72,2.72,0,0,0,.38.16l.41.13a7.13,7.13,0,0,1,.67.28,2.55,2.55,0,0,1,.51.36,1.58,1.58,0,0,1,.33.48,1.9,1.9,0,0,1,.11.66,1.76,1.76,0,0,1-.23.91,1.84,1.84,0,0,1-.62.62,2.88,2.88,0,0,1-.88.34,5,5,0,0,1-1,.11A5.17,5.17,0,0,1,145.29,61.63Z" transform="translate(-2.47)"/><path class="cls-13" d="M153.82,61.94a3.23,3.23,0,0,1-2.36-.84,3.47,3.47,0,0,1,0-4.61,3.37,3.37,0,0,1,2.41-.84,3.16,3.16,0,0,1,2.34.84,3,3,0,0,1,.85,2.22,3.18,3.18,0,0,1-.87,2.36A3.27,3.27,0,0,1,153.82,61.94Zm0-4.88a1.24,1.24,0,0,0-1,.46,2,2,0,0,0-.36,1.27c0,1.16.47,1.73,1.4,1.73s1.33-.59,1.33-1.77S154.76,57.06,153.86,57.06Z" transform="translate(-2.47)"/><path class="cls-13" d="M162,54.33a1.77,1.77,0,0,0-.69-.14c-.59,0-.89.32-.89,1v.64h1.37v1.37h-1.37v4.63H158.6V57.16h-1V55.79h1v-.74a2.17,2.17,0,0,1,.67-1.65,2.55,2.55,0,0,1,1.82-.63,3.16,3.16,0,0,1,.94.12Z" transform="translate(-2.47)"/><path class="cls-13" d="M166.57,61.72a2.7,2.7,0,0,1-1.24.22,1.77,1.77,0,0,1-2-2V57.16h-1V55.79h1V54.5l1.85-.53v1.82h1.35v1.37h-1.35v2.42c0,.63.25.94.74.94a1.31,1.31,0,0,0,.61-.17Z" transform="translate(-2.47)"/></g></svg>