<svg xmlns="http://www.w3.org/2000/svg" xmlns:xlink="http://www.w3.org/1999/xlink" viewBox="0 0 433 302.1"><defs><style>.cls-1{fill:#505050;}.cls-16,.cls-2,.cls-7{fill:#fff;}.cls-3{fill:#ebebeb;}.cls-4{fill:#0072c6;}.cls-5{fill:#3c3c41;}.cls-6{fill:#75757a;}.cls-7{opacity:0.2;}.cls-7,.cls-8{isolation:isolate;}.cls-8,.cls-9{fill:#50e6ff;}.cls-8{opacity:0.65;}.cls-9{stroke:#0072c6;stroke-width:0.75px;}.cls-11,.cls-14,.cls-16,.cls-9{stroke-miterlimit:10;}.cls-10,.cls-11,.cls-13{fill:none;}.cls-10,.cls-11{stroke:#000;}.cls-12,.cls-14{fill:#001f50;}.cls-14{stroke:#001f50;}.cls-14,.cls-16{stroke-width:0.05px;}.cls-15{fill:#1e1e1e;}.cls-16{stroke:#fff;}</style><symbol id="New_Symbol_42" data-name="New Symbol 42" viewBox="0 0 21 20"><circle class="cls-1" cx="10.5" cy="10" r="10"/><path class="cls-2" d="M13,14.4H7.7v-.7a2.2,2.2,0,0,1,.1-.8,4.88,4.88,0,0,1,.3-.7c.1-.2.3-.2.5-.4l.5-.5a3.17,3.17,0,0,1,.6-.5,2.65,2.65,0,0,0,.6-.5,1.21,1.21,0,0,0,.5-.5c.1-.2.3-.3.4-.5s.2-.3.3-.5,0-.3,0-.5a1.27,1.27,0,0,0-.1-.6,1,1,0,0,0-.3-.4c-.2-.2-.2-.2-.4-.2s-.4-.1-.6-.1a3.55,3.55,0,0,0-1,.2,3,3,0,0,0-1,.7V6.6c.2-.1.3-.2.5-.3a1.69,1.69,0,0,1,.5-.2,2.07,2.07,0,0,0,.6-.2,1.48,1.48,0,0,1,.7-.1,3,3,0,0,1,1,.2,2,2,0,0,1,.8.4,1.79,1.79,0,0,1,.5.7,3,3,0,0,1,.2,1,2.77,2.77,0,0,1-.1.9,3.55,3.55,0,0,1-.4.9,1.72,1.72,0,0,1-.6.6c-.3.2-.4.5-.7.7a4.23,4.23,0,0,1-.7.5,3.17,3.17,0,0,0-.6.5c-.2.2-.3.4-.4.5a.76.76,0,0,0-.2.5H13v1.2Z"/></symbol><symbol id="New_Symbol_41" data-name="New Symbol 41" viewBox="0 0 21 20"><circle class="cls-1" cx="10.5" cy="10" r="10"/><path class="cls-2" d="M11.7,5.8v8.6H10.3V7.5a5.58,5.58,0,0,1-.8.5,2.93,2.93,0,0,1-1,.3V7.1a1.45,1.45,0,0,0,.7-.2l.6-.3c.2-.1.5-.2.7-.3a2.65,2.65,0,0,0,.6-.5Z"/></symbol><symbol id="New_Symbol_43" data-name="New Symbol 43" viewBox="0 0 21 20"><circle class="cls-1" cx="10.5" cy="10" r="10"/><path class="cls-2" d="M7.9,14.1V12.8a3.08,3.08,0,0,0,1.9.6,1.7,1.7,0,0,0,1.3-.4,1.39,1.39,0,0,0,.5-1c0-1-.7-1.4-2.2-1.4H8.8V9.5h.6c1.3,0,1.9-.4,1.9-1.4,0-.7-.5-1.1-1.5-1.1a2.45,2.45,0,0,0-1.6.6V6.4a4.23,4.23,0,0,1,2-.5,2.61,2.61,0,0,1,1.8.6A1.8,1.8,0,0,1,12.7,8,2,2,0,0,1,11,10h0a2.59,2.59,0,0,1,1.4.6A2.25,2.25,0,0,1,13,12a2,2,0,0,1-.9,1.8,3.9,3.9,0,0,1-2.2.8A3.68,3.68,0,0,1,7.9,14.1Z"/></symbol><symbol id="New_Symbol_45" data-name="New Symbol 45" viewBox="0 0 21 20"><circle class="cls-1" cx="10.5" cy="10" r="10"/><path class="cls-2" d="M8.1,14.2V12.9a2.72,2.72,0,0,0,1.7.6,2.89,2.89,0,0,0,1.4-.4,1.25,1.25,0,0,0,.5-1.2,1.15,1.15,0,0,0-.6-1.1,3.31,3.31,0,0,0-1.5-.4,9.51,9.51,0,0,0-1.4.1L8.5,6h4.1V7.2h-3L9.5,9.3h.7a2.82,2.82,0,0,1,2.1.7,2.27,2.27,0,0,1,.7,1.8,2.79,2.79,0,0,1-.8,2,3.2,3.2,0,0,1-2.3.8A3,3,0,0,1,8.1,14.2Z"/></symbol><symbol id="New_Symbol_44" data-name="New Symbol 44" viewBox="0 0 21 20"><circle class="cls-1" cx="10.5" cy="10" r="10"/><path class="cls-2" d="M12.5,6v5.4h1.3v1.1H12.5v1.8H11.1V12.5H7.3V11.4c.3-.4.7-.8,1.1-1.3a12.13,12.13,0,0,0,1-1.4c.3-.5.6-.9.9-1.4A9.13,9.13,0,0,0,11.1,6Zm-1.4,5.5V8a17.37,17.37,0,0,1-1.3,2,8.54,8.54,0,0,1-1.1,1.4l2.4.1Z"/></symbol></defs><title>OJ104327284</title><g id="bg"><g id="bg-2" data-name="bg"><g id="Shapes"><rect class="cls-2" width="433" height="299.7"/><rect class="cls-3" x="149.4" y="41" width="220.7" height="17.5"/><rect class="cls-2" x="251.9" y="37.5" width="46.3" height="24.9"/><path class="cls-4" d="M300,31.8a.79.79,0,0,0-.8-.8H250.9a.79.79,0,0,0-.8.8V62a.79.79,0,0,0,.8.8h48.3a.79.79,0,0,0,.8-.8Zm-43.1,4.8h-2.5V34.1h2.5Zm5,0h-2.5V34.1h2.5Zm5,0h-2.5V34.1h2.5Zm-15,1.8h46.3V60.9H251.9V38.4Z"/><circle class="cls-3" cx="239" cy="46.9" r="18.5"/><path class="cls-5" d="M239,66.3a19.5,19.5,0,1,1,19.5-19.5A19.46,19.46,0,0,1,239,66.3Zm0-36.9a17.5,17.5,0,1,0,17.5,17.5A17.52,17.52,0,0,0,239,29.4Z"/><path class="cls-6" d="M244,38a5,5,0,0,1-10,0,5.08,5.08,0,0,1,5-5,5,5,0,0,1,5,5"/><polygon class="cls-6" points="242.6 44.8 238.9 49.9 235.3 44.8 230 44.8 230 57.4 248 57.4 248 44.8 242.6 44.8"/><path class="cls-7" d="M234,38a5,5,0,0,0,4.9,5l1.3-9.9a2.54,2.54,0,0,0-1.2-.2,5,5,0,0,0-5,5.1"/><polygon class="cls-7" points="235.3 44.8 230 44.8 230 57.4 237 57.4 238.1 48.7 235.3 44.8"/><rect class="cls-2" y="217.8" width="96" height="55"/><rect class="cls-8" y="217.8" width="96" height="55"/><rect class="cls-2" x="210.3" y="217.8" width="95" height="55"/><rect class="cls-8" x="210.3" y="217.8" width="95" height="55"/><rect class="cls-5" x="221" y="227.8" width="75" height="35"/><circle class="cls-9" cx="273.5" cy="197.4" r="4.6"/><line class="cls-10" x1="273.5" y1="202.3" x2="273.5" y2="217.8"/><path class="cls-11" d="M165.3,64.2v87.6a7.8,7.8,0,0,0,4.7,6.8l89.7,34.3"/><polygon points="161.5 65.3 165.3 58.8 169 65.3 161.5 65.3"/><polygon points="257.2 196 264.6 194.8 259.9 189 257.2 196"/><path class="cls-11" d="M351.4,58.8v93a9,9,0,0,1-4.5,7.3l-62,31.3"/><polygon points="284.3 186.5 280.2 192.8 287.6 193.2 284.3 186.5"/><path class="cls-11" d="M220.9,64.2l.1,86.1a11.12,11.12,0,0,0,4,8l39.1,29.2"/><polygon points="217.2 65.3 220.9 58.8 224.7 65.3 217.2 65.3"/><polygon points="261 189.8 268.4 190.6 265.4 183.8 261 189.8"/><line class="cls-11" x1="273.5" y1="68.7" x2="273.5" y2="184.3"/><polygon points="269.8 69.8 273.5 63.3 277.2 69.8 269.8 69.8"/><polygon points="269.8 183.2 273.5 189.7 277.2 183.2 269.8 183.2"/><use width="21" height="20" transform="translate(210.5 91.23)" xlink:href="#New_Symbol_42"/><use width="21" height="20" transform="translate(154.78 91.23)" xlink:href="#New_Symbol_41"/><use width="21" height="20" transform="translate(263 91.23)" xlink:href="#New_Symbol_43"/><use width="21" height="20" transform="translate(340.94 91.23)" xlink:href="#New_Symbol_45"/><rect class="cls-2" x="217.7" y="117.6" width="6.8" height="15.7"/><polygon class="cls-9" points="319.4 163.8 310.8 170 314.1 180 324.7 180 328 170 319.4 163.8"/><path class="cls-11" d="M221,231.7H77.5c-7.2,0-13,4.1-13,9.1s5.8,9.1,13,9.1H215.7"/><polygon points="214.5 253.7 221 250 214.5 246.2 214.5 253.7"/><rect class="cls-2" x="29.5" y="233" width="37" height="19.9"/><path class="cls-12" d="M68,228.4a.68.68,0,0,0-.7-.7H28.7a.68.68,0,0,0-.7.7v24.2a.68.68,0,0,0,.7.7H67.4a.68.68,0,0,0,.7-.7V228.4Zm-34.5,3.9h-2v-2h2Zm4,0h-2v-2h2Zm4,0h-2v-2h2Zm-12,1.5h37v18h-37Z"/><use width="21" height="20" transform="translate(142.76 224.95)" xlink:href="#New_Symbol_44"/></g></g><rect class="cls-13" x="73.6" y="88.6" width="80.4" height="43.5"/><rect class="cls-13" x="231.1" y="0.9" width="80.4" height="43.5"/><rect class="cls-13" x="115.8" y="258.6" width="75" height="43.5"/><rect class="cls-13" x="221" y="233.1" width="75" height="43.5"/></g><g id="txt"><path d="M2.34,212.78h-1v-8.4h1Z"/><path d="M9.4,212.78h-1v-3.42c0-1.28-.47-1.91-1.4-1.91a1.5,1.5,0,0,0-1.19.54,2,2,0,0,0-.47,1.37v3.42h-1v-6h1v1h0a2.16,2.16,0,0,1,2-1.14,1.85,1.85,0,0,1,1.51.63,2.9,2.9,0,0,1,.52,1.84Z"/><path d="M16.33,215.54h-1v-3.79h0a2.14,2.14,0,0,1-2.05,1.17,2.24,2.24,0,0,1-1.81-.81,3.23,3.23,0,0,1-.68-2.19,3.6,3.6,0,0,1,.75-2.39,2.5,2.5,0,0,1,2-.89,1.88,1.88,0,0,1,1.78,1h0v-.83h1Zm-1-5.46v-.87a1.71,1.71,0,0,0-.49-1.25,1.61,1.61,0,0,0-1.22-.51,1.63,1.63,0,0,0-1.37.64,2.85,2.85,0,0,0-.51,1.81,2.43,2.43,0,0,0,.49,1.62,1.52,1.52,0,0,0,1.25.59,1.7,1.7,0,0,0,1.35-.58A2.15,2.15,0,0,0,15.37,210.08Z"/><path d="M23.13,212.78h-1v-.95h0a2,2,0,0,1-1.85,1.09c-1.43,0-2.15-.85-2.15-2.55v-3.59h1v3.43c0,1.27.48,1.9,1.45,1.9a1.46,1.46,0,0,0,1.16-.52,2,2,0,0,0,.45-1.35v-3.46h1Z"/><path d="M25.56,205.26a.59.59,0,0,1-.44-.18.61.61,0,0,1-.18-.45.6.6,0,0,1,.18-.44.59.59,0,0,1,.44-.18.6.6,0,0,1,.44.18.58.58,0,0,1,.19.44.56.56,0,0,1-.19.44A.58.58,0,0,1,25.56,205.26Zm.47,7.52h-1v-6h1Z"/><path d="M28.93,212.78H28V203.9h1Z"/><path d="M31.37,205.26a.6.6,0,0,1-.44-.18.61.61,0,0,1-.18-.45.61.61,0,0,1,.62-.62.64.64,0,0,1,.45.18.6.6,0,0,1,.18.44.59.59,0,0,1-.18.44A.61.61,0,0,1,31.37,205.26Zm.47,7.52h-1v-6h1Z"/><path d="M38.76,212.78h-1v-3.42c0-1.28-.46-1.91-1.39-1.91a1.5,1.5,0,0,0-1.19.54,2,2,0,0,0-.48,1.37v3.42h-1v-6h1v1h0a2.16,2.16,0,0,1,2-1.14,1.84,1.84,0,0,1,1.5.63,2.84,2.84,0,0,1,.52,1.84Z"/><path d="M43.08,212.92a2.79,2.79,0,0,1-2.12-.84,3.11,3.11,0,0,1-.8-2.23,3.23,3.23,0,0,1,.83-2.36,3,3,0,0,1,2.23-.85,2.69,2.69,0,0,1,2.1.82,3.32,3.32,0,0,1,.75,2.3,3.25,3.25,0,0,1-.81,2.3A2.87,2.87,0,0,1,43.08,212.92Zm.07-5.47a1.83,1.83,0,0,0-1.46.63,2.58,2.58,0,0,0-.54,1.73,2.47,2.47,0,0,0,.54,1.69,1.86,1.86,0,0,0,1.46.61,1.75,1.75,0,0,0,1.43-.6,3.17,3.17,0,0,0,0-3.45A1.73,1.73,0,0,0,43.15,207.45Z"/><path d="M57.53,212.78H56.44l-.9-2.36H52l-.84,2.36H50.05l3.22-8.4h1Zm-2.31-3.24L53.9,206a3.91,3.91,0,0,1-.12-.56h0a3.62,3.62,0,0,1-.13.56l-1.31,3.58Z"/><path d="M212.26,212.78h-1v-8.4h1Z"/><path d="M219.32,212.78h-1v-3.42c0-1.28-.47-1.91-1.4-1.91a1.5,1.5,0,0,0-1.19.54,2,2,0,0,0-.47,1.37v3.42h-1v-6h1v1h0a2.16,2.16,0,0,1,2-1.14,1.82,1.82,0,0,1,1.5.63,2.84,2.84,0,0,1,.53,1.84Z"/><path d="M226.25,215.54h-1v-3.79h0a2.14,2.14,0,0,1-2,1.17,2.24,2.24,0,0,1-1.81-.81,3.23,3.23,0,0,1-.68-2.19,3.6,3.6,0,0,1,.75-2.39,2.5,2.5,0,0,1,2-.89,1.88,1.88,0,0,1,1.78,1h0v-.83h1Zm-1-5.46v-.87a1.71,1.71,0,0,0-.49-1.25,1.61,1.61,0,0,0-1.22-.51,1.63,1.63,0,0,0-1.37.64,2.85,2.85,0,0,0-.51,1.81,2.43,2.43,0,0,0,.49,1.62,1.52,1.52,0,0,0,1.25.59,1.7,1.7,0,0,0,1.35-.58A2.15,2.15,0,0,0,225.29,210.08Z"/><path d="M233,212.78h-1v-.95h0a2,2,0,0,1-1.85,1.09c-1.43,0-2.15-.85-2.15-2.55v-3.59h1v3.43c0,1.27.48,1.9,1.45,1.9a1.46,1.46,0,0,0,1.16-.52,2,2,0,0,0,.45-1.35v-3.46h1Z"/><path d="M235.48,205.26a.59.59,0,0,1-.44-.18.61.61,0,0,1-.18-.45.6.6,0,0,1,.18-.44.59.59,0,0,1,.44-.18.6.6,0,0,1,.44.18.58.58,0,0,1,.19.44.56.56,0,0,1-.19.44A.58.58,0,0,1,235.48,205.26Zm.47,7.52h-1v-6h1Z"/><path d="M238.85,212.78h-1V203.9h1Z"/><path d="M241.29,205.26a.6.6,0,0,1-.44-.18.61.61,0,0,1-.18-.45.61.61,0,0,1,.62-.62.64.64,0,0,1,.45.18.6.6,0,0,1,.18.44.59.59,0,0,1-.18.44A.61.61,0,0,1,241.29,205.26Zm.47,7.52h-1v-6h1Z"/><path d="M248.68,212.78h-1v-3.42c0-1.28-.46-1.91-1.39-1.91a1.5,1.5,0,0,0-1.19.54,2,2,0,0,0-.48,1.37v3.42h-1v-6h1v1h0a2.16,2.16,0,0,1,2-1.14,1.84,1.84,0,0,1,1.5.63,2.84,2.84,0,0,1,.52,1.84Z"/><path d="M253,212.92a2.79,2.79,0,0,1-2.12-.84,3.11,3.11,0,0,1-.8-2.23,3.23,3.23,0,0,1,.83-2.36,3,3,0,0,1,2.23-.85,2.69,2.69,0,0,1,2.1.82,3.32,3.32,0,0,1,.75,2.3,3.25,3.25,0,0,1-.81,2.3A2.87,2.87,0,0,1,253,212.92Zm.07-5.47a1.83,1.83,0,0,0-1.46.63,2.58,2.58,0,0,0-.54,1.73,2.47,2.47,0,0,0,.54,1.69,1.86,1.86,0,0,0,1.46.61,1.75,1.75,0,0,0,1.43-.6,3.17,3.17,0,0,0,0-3.45A1.73,1.73,0,0,0,253.07,207.45Z"/><path d="M260.94,212.78v-8.4h2.39a2.59,2.59,0,0,1,1.73.53,1.72,1.72,0,0,1,.64,1.39,2,2,0,0,1-.39,1.24,2.11,2.11,0,0,1-1.06.75v0a2.14,2.14,0,0,1,1.36.65,2,2,0,0,1,.51,1.41,2.18,2.18,0,0,1-.78,1.74,2.84,2.84,0,0,1-1.95.67Zm1-7.51V208h1a1.94,1.94,0,0,0,1.28-.39,1.39,1.39,0,0,0,.46-1.1c0-.81-.54-1.22-1.61-1.22Zm0,3.6v3h1.33a2,2,0,0,0,1.35-.41,1.43,1.43,0,0,0,.47-1.13c0-1-.67-1.48-2-1.48Z"/><path d="M295.22,196v3.18h-1v-8.4h2.31a3.09,3.09,0,0,1,2.09.65,2.37,2.37,0,0,1,.74,1.86,2.54,2.54,0,0,1-.82,1.95,3.14,3.14,0,0,1-2.23.76Zm0-4.33v3.44h1a2.28,2.28,0,0,0,1.55-.46,1.65,1.65,0,0,0,.54-1.32c0-1.11-.66-1.66-2-1.66Z"/><path d="M305.67,199.16h-1v-.95h0a2,2,0,0,1-1.85,1.09c-1.43,0-2.15-.85-2.15-2.55v-3.59h1v3.43c0,1.27.48,1.9,1.45,1.9a1.46,1.46,0,0,0,1.16-.52,2,2,0,0,0,.45-1.35v-3.46h1Z"/><path d="M312.59,199.16h-1v-3.42c0-1.28-.46-1.91-1.39-1.91a1.5,1.5,0,0,0-1.19.54,2,2,0,0,0-.47,1.37v3.42h-1v-6h1v1h0a2.16,2.16,0,0,1,2-1.14,1.81,1.81,0,0,1,1.5.64,2.79,2.79,0,0,1,.52,1.83Z"/><path d="M317.19,199.1a1.82,1.82,0,0,1-.9.19c-1.05,0-1.57-.59-1.57-1.76V194h-1v-.82h1V191.7l1-.32v1.78h1.51V194h-1.51v3.38a1.45,1.45,0,0,0,.2.86.84.84,0,0,0,.68.26,1.05,1.05,0,0,0,.63-.2Z"/><path d="M321,199.3a2.76,2.76,0,0,1-2.12-.84,3.11,3.11,0,0,1-.8-2.23,3.25,3.25,0,0,1,.83-2.36,3,3,0,0,1,2.23-.85,2.66,2.66,0,0,1,2.09.83,3.75,3.75,0,0,1,0,4.59A2.87,2.87,0,0,1,321,199.3Zm.07-5.47a1.84,1.84,0,0,0-1.47.63,2.64,2.64,0,0,0-.53,1.74,2.46,2.46,0,0,0,.54,1.68,1.85,1.85,0,0,0,1.46.61,1.75,1.75,0,0,0,1.43-.6,3.23,3.23,0,0,0,0-3.45A1.73,1.73,0,0,0,321.05,193.83Z"/><path d="M333.91,199.16h-1v-1h0a2.43,2.43,0,0,1-3.87.36,3.33,3.33,0,0,1-.68-2.2,3.57,3.57,0,0,1,.75-2.38,2.48,2.48,0,0,1,2-.9,1.93,1.93,0,0,1,1.8,1h0v-3.71h1Zm-1-2.71v-.89a1.73,1.73,0,0,0-.48-1.23,1.78,1.78,0,0,0-2.6.14,2.81,2.81,0,0,0-.51,1.78,2.54,2.54,0,0,0,.49,1.64,1.57,1.57,0,0,0,1.3.6,1.63,1.63,0,0,0,1.3-.58A2.16,2.16,0,0,0,333,196.45Z"/><path d="M340.68,196.4h-4.24A2.3,2.3,0,0,0,337,198a1.88,1.88,0,0,0,1.42.54,2.89,2.89,0,0,0,1.86-.67v.91a3.47,3.47,0,0,1-2.09.57,2.53,2.53,0,0,1-2-.82,3.35,3.35,0,0,1-.72-2.3,3.28,3.28,0,0,1,.79-2.28,2.54,2.54,0,0,1,2-.88,2.24,2.24,0,0,1,1.82.76,3.18,3.18,0,0,1,.65,2.12Zm-1-.81a1.91,1.91,0,0,0-.4-1.3,1.36,1.36,0,0,0-1.1-.46,1.56,1.56,0,0,0-1.15.48,2.25,2.25,0,0,0-.59,1.28Z"/><path d="M349.51,198.88a3.1,3.1,0,0,1-1.64.42,2.72,2.72,0,0,1-2.07-.83,3,3,0,0,1-.79-2.17,3.3,3.3,0,0,1,.85-2.38,3,3,0,0,1,2.27-.9,3.23,3.23,0,0,1,1.39.29v1a2.38,2.38,0,0,0-1.43-.47,1.93,1.93,0,0,0-1.51.66,2.5,2.5,0,0,0-.59,1.73,2.36,2.36,0,0,0,.56,1.66,1.89,1.89,0,0,0,1.48.61,2.39,2.39,0,0,0,1.48-.52Z"/><path d="M353.47,199.3a2.77,2.77,0,0,1-2.12-.84,3.11,3.11,0,0,1-.8-2.23,3.25,3.25,0,0,1,.83-2.36,3,3,0,0,1,2.23-.85,2.69,2.69,0,0,1,2.1.83,3.77,3.77,0,0,1-.06,4.59A2.87,2.87,0,0,1,353.47,199.3Zm.07-5.47a1.8,1.8,0,0,0-1.46.63,2.59,2.59,0,0,0-.54,1.74,2.46,2.46,0,0,0,.54,1.68,1.85,1.85,0,0,0,1.46.61,1.75,1.75,0,0,0,1.43-.6,3.23,3.23,0,0,0,0-3.45A1.73,1.73,0,0,0,353.54,193.83Z"/><path d="M363,199.16h-1v-3.42c0-1.28-.46-1.91-1.39-1.91a1.5,1.5,0,0,0-1.19.54,2,2,0,0,0-.48,1.37v3.42h-1v-6h1v1h0a2.16,2.16,0,0,1,2-1.14,1.82,1.82,0,0,1,1.5.64,2.79,2.79,0,0,1,.52,1.83Z"/><path d="M369.61,196.4h-4.24a2.3,2.3,0,0,0,.54,1.55,1.87,1.87,0,0,0,1.42.54,2.93,2.93,0,0,0,1.86-.67v.91a3.5,3.5,0,0,1-2.09.57,2.52,2.52,0,0,1-2-.82,3.36,3.36,0,0,1-.73-2.3,3.29,3.29,0,0,1,.8-2.28,2.53,2.53,0,0,1,2-.88,2.25,2.25,0,0,1,1.82.76,3.18,3.18,0,0,1,.65,2.12Zm-1-.81a2,2,0,0,0-.4-1.3,1.36,1.36,0,0,0-1.1-.46,1.55,1.55,0,0,0-1.15.48,2.25,2.25,0,0,0-.59,1.28Z"/><path d="M375.44,193.16l-2,3,2,3h-1.12l-1.18-1.95-.26-.45h0l-.27.45-1.2,1.95h-1.11l2-2.94-1.95-3.06h1.12l1.16,2.05.25.47h0l1.5-2.52Z"/><path d="M377.06,191.64a.6.6,0,0,1-.44-.18.59.59,0,0,1-.18-.44.61.61,0,0,1,.18-.45.6.6,0,0,1,.44-.18.63.63,0,0,1,.45.18.61.61,0,0,1,.18.45.62.62,0,0,1-.18.44A.63.63,0,0,1,377.06,191.64Zm.47,7.52h-1v-6h1Z"/><path d="M382,199.3a2.77,2.77,0,0,1-2.12-.84,3.11,3.11,0,0,1-.8-2.23,3.25,3.25,0,0,1,.83-2.36,3,3,0,0,1,2.23-.85,2.68,2.68,0,0,1,2.1.83,3.77,3.77,0,0,1-.06,4.59A2.87,2.87,0,0,1,382,199.3Zm.07-5.47a1.81,1.81,0,0,0-1.46.63,2.59,2.59,0,0,0-.54,1.74,2.46,2.46,0,0,0,.54,1.68,1.86,1.86,0,0,0,1.46.61,1.75,1.75,0,0,0,1.43-.6,3.17,3.17,0,0,0,0-3.45A1.73,1.73,0,0,0,382.05,193.83Zm1.41-3.73L381.92,192h-.74l1.31-1.92Z"/><path d="M391.49,199.16h-1v-3.42c0-1.28-.46-1.91-1.39-1.91a1.5,1.5,0,0,0-1.19.54,2,2,0,0,0-.47,1.37v3.42h-1v-6h1v1h0a2.16,2.16,0,0,1,2-1.14,1.81,1.81,0,0,1,1.5.64,2.79,2.79,0,0,1,.53,1.83Z"/><path d="M299.22,213.16h-1v-1h0a2.23,2.23,0,0,1-2.06,1.16,2.25,2.25,0,0,1-1.81-.8,3.33,3.33,0,0,1-.68-2.2,3.57,3.57,0,0,1,.75-2.38,2.48,2.48,0,0,1,2-.9,1.93,1.93,0,0,1,1.8,1h0v-3.71h1Zm-1-2.71v-.89a1.73,1.73,0,0,0-.48-1.23,1.62,1.62,0,0,0-1.22-.5,1.66,1.66,0,0,0-1.38.64,2.81,2.81,0,0,0-.5,1.78,2.54,2.54,0,0,0,.48,1.64,1.59,1.59,0,0,0,1.3.6,1.63,1.63,0,0,0,1.3-.58A2.11,2.11,0,0,0,298.26,210.45Z"/><path d="M306,210.4h-4.24a2.3,2.3,0,0,0,.54,1.55,1.88,1.88,0,0,0,1.42.54,2.94,2.94,0,0,0,1.87-.67v.91a3.53,3.53,0,0,1-2.1.57,2.51,2.51,0,0,1-2-.82,3.83,3.83,0,0,1,.06-4.58,2.54,2.54,0,0,1,2-.88,2.26,2.26,0,0,1,1.83.76,3.18,3.18,0,0,1,.64,2.12Zm-1-.81a2,2,0,0,0-.4-1.3,1.37,1.37,0,0,0-1.1-.46,1.57,1.57,0,0,0-1.16.48,2.24,2.24,0,0,0-.58,1.28Z"/><path d="M315,213.16h-1v-.94h0a2.2,2.2,0,0,1-3.25.61,1.68,1.68,0,0,1-.5-1.26c0-1.12.66-1.78,2-2l1.8-.25c0-1-.42-1.53-1.24-1.53a2.92,2.92,0,0,0-2,.74v-1a3.76,3.76,0,0,1,2-.56c1.41,0,2.12.75,2.12,2.24Zm-1-3-1.45.19a2.43,2.43,0,0,0-1,.34,1.08,1.08,0,0,0,0,1.55,1.2,1.2,0,0,0,.84.28,1.51,1.51,0,0,0,1.18-.5,1.8,1.8,0,0,0,.47-1.27Z"/><path d="M321.69,213.16h-1v-.95h0a2,2,0,0,1-1.85,1.09c-1.43,0-2.14-.85-2.14-2.55v-3.59h1v3.43c0,1.27.49,1.9,1.46,1.9a1.45,1.45,0,0,0,1.15-.52,1.92,1.92,0,0,0,.46-1.35v-3.46h1Z"/><path d="M326.41,213.1a1.8,1.8,0,0,1-.9.19c-1.05,0-1.57-.59-1.57-1.76V208h-1v-.82h1V205.7l1-.32v1.78h1.51V208H324.9v3.38a1.45,1.45,0,0,0,.2.86.84.84,0,0,0,.68.26,1,1,0,0,0,.63-.2Z"/><path d="M330.2,213.3a2.79,2.79,0,0,1-2.12-.84,3.11,3.11,0,0,1-.8-2.23,3.25,3.25,0,0,1,.83-2.36,3,3,0,0,1,2.23-.85,2.66,2.66,0,0,1,2.1.83,3.77,3.77,0,0,1-.06,4.59A2.87,2.87,0,0,1,330.2,213.3Zm.07-5.47a1.83,1.83,0,0,0-1.46.63,2.59,2.59,0,0,0-.54,1.74,2.46,2.46,0,0,0,.54,1.68,1.86,1.86,0,0,0,1.46.61,1.79,1.79,0,0,0,1.44-.6,3.23,3.23,0,0,0,0-3.45A1.76,1.76,0,0,0,330.27,207.83Z"/><path d="M337.85,208.13a1.14,1.14,0,0,0-.72-.19,1.23,1.23,0,0,0-1,.58,2.64,2.64,0,0,0-.41,1.58v3.06h-1v-6h1v1.24h0a2.12,2.12,0,0,1,.63-1,1.54,1.54,0,0,1,1.51-.27Z"/><path d="M339.39,205.64a.6.6,0,0,1-.44-.18.59.59,0,0,1-.18-.44.61.61,0,0,1,.18-.45.6.6,0,0,1,.44-.18.63.63,0,0,1,.45.18.61.61,0,0,1,.18.45.62.62,0,0,1-.18.44A.63.63,0,0,1,339.39,205.64Zm.47,7.52h-1v-6h1Z"/><path d="M346,207.44l-3.55,4.9H346v.82H341v-.3l3.56-4.88h-3.22v-.82H346Z"/><path d="M351.52,213.16h-1v-.94h0a2.2,2.2,0,0,1-3.25.61,1.65,1.65,0,0,1-.51-1.26c0-1.12.66-1.78,2-2l1.8-.25q0-1.53-1.23-1.53a2.91,2.91,0,0,0-2,.74v-1a3.76,3.76,0,0,1,2-.56c1.41,0,2.11.75,2.11,2.24Zm-1-3-1.44.19a2.37,2.37,0,0,0-1,.34.93.93,0,0,0-.34.84.89.89,0,0,0,.31.71,1.2,1.2,0,0,0,.84.28,1.53,1.53,0,0,0,1.18-.5,1.79,1.79,0,0,0,.46-1.27Z"/><path d="M357.42,212.88a3.08,3.08,0,0,1-1.64.42,2.75,2.75,0,0,1-2.07-.83,3.06,3.06,0,0,1-.79-2.17,3.35,3.35,0,0,1,.85-2.38A3,3,0,0,1,356,207a3.27,3.27,0,0,1,1.4.29v1a2.42,2.42,0,0,0-1.43-.47,1.92,1.92,0,0,0-1.51.66,2.5,2.5,0,0,0-.59,1.73,2.36,2.36,0,0,0,.55,1.66,1.91,1.91,0,0,0,1.49.61,2.38,2.38,0,0,0,1.47-.52Z"/><path d="M359.37,205.64a.6.6,0,0,1-.44-.18.59.59,0,0,1-.18-.44.61.61,0,0,1,.18-.45.6.6,0,0,1,.44-.18.62.62,0,0,1,.63.63.62.62,0,0,1-.18.44A.61.61,0,0,1,359.37,205.64Zm.47,7.52h-1v-6h1Z"/><path d="M364.29,213.3a2.79,2.79,0,0,1-2.12-.84,3.11,3.11,0,0,1-.8-2.23,3.25,3.25,0,0,1,.83-2.36,3,3,0,0,1,2.23-.85,2.66,2.66,0,0,1,2.1.83,3.77,3.77,0,0,1-.06,4.59A2.87,2.87,0,0,1,364.29,213.3Zm.07-5.47a1.83,1.83,0,0,0-1.46.63,2.59,2.59,0,0,0-.54,1.74,2.46,2.46,0,0,0,.54,1.68,1.86,1.86,0,0,0,1.46.61,1.75,1.75,0,0,0,1.43-.6,3.17,3.17,0,0,0,0-3.45A1.73,1.73,0,0,0,364.36,207.83Zm1.41-3.73L364.23,206h-.74l1.31-1.92Z"/><path d="M373.8,213.16h-1v-3.42c0-1.28-.46-1.91-1.39-1.91a1.5,1.5,0,0,0-1.19.54,2,2,0,0,0-.47,1.37v3.42h-1v-6h1v1h0a2.16,2.16,0,0,1,2-1.14,1.81,1.81,0,0,1,1.5.64,2.79,2.79,0,0,1,.53,1.83Z"/><path d="M293,105.75a4.89,4.89,0,0,1-2.32.49,3.73,3.73,0,0,1-2.87-1.15,4.26,4.26,0,0,1-1.08-3,4.45,4.45,0,0,1,1.21-3.26A4.12,4.12,0,0,1,291,97.56a4.92,4.92,0,0,1,2,.34v1a4.08,4.08,0,0,0-2-.5,3.07,3.07,0,0,0-2.35,1,3.66,3.66,0,0,0-.9,2.59,3.44,3.44,0,0,0,.84,2.44,2.87,2.87,0,0,0,2.21.92,4.11,4.11,0,0,0,2.19-.57Z"/><path d="M297,106.24a2.77,2.77,0,0,1-2.12-.84,3.11,3.11,0,0,1-.8-2.23,3.25,3.25,0,0,1,.83-2.36,3,3,0,0,1,2.23-.85,2.68,2.68,0,0,1,2.1.83,3.77,3.77,0,0,1-.06,4.59A2.87,2.87,0,0,1,297,106.24Zm.07-5.47a1.8,1.8,0,0,0-1.46.63,2.59,2.59,0,0,0-.54,1.74,2.46,2.46,0,0,0,.54,1.68,1.85,1.85,0,0,0,1.46.61,1.75,1.75,0,0,0,1.43-.6,3.23,3.23,0,0,0,0-3.45A1.73,1.73,0,0,0,297.11,100.77Z"/><path d="M306.54,106.1h-1v-3.42c0-1.28-.46-1.91-1.39-1.91a1.5,1.5,0,0,0-1.19.54,2,2,0,0,0-.48,1.37v3.42h-1v-6h1v1h0a2.16,2.16,0,0,1,2-1.14,1.82,1.82,0,0,1,1.5.64,2.79,2.79,0,0,1,.52,1.83Z"/><path d="M308,105.88v-1a2.82,2.82,0,0,0,1.73.58c.84,0,1.27-.28,1.27-.84a.76.76,0,0,0-.11-.41,1,1,0,0,0-.3-.29,1.94,1.94,0,0,0-.43-.24l-.54-.21c-.26-.11-.49-.21-.7-.32a2.22,2.22,0,0,1-.5-.36,1.35,1.35,0,0,1-.3-.46,1.62,1.62,0,0,1-.11-.61,1.39,1.39,0,0,1,.2-.74,1.78,1.78,0,0,1,.51-.55,2.77,2.77,0,0,1,.74-.33,3.56,3.56,0,0,1,2.24.16v1a2.68,2.68,0,0,0-1.52-.43,1.88,1.88,0,0,0-.49.06,1.4,1.4,0,0,0-.37.17,1,1,0,0,0-.24.27.77.77,0,0,0-.08.34.87.87,0,0,0,.08.39,1,1,0,0,0,.25.29,2.11,2.11,0,0,0,.4.22l.53.22a6.21,6.21,0,0,1,.72.31,2.82,2.82,0,0,1,.54.36,1.41,1.41,0,0,1,.34.47,1.46,1.46,0,0,1,.12.62,1.51,1.51,0,0,1-.2.78,1.58,1.58,0,0,1-.52.54,2.5,2.5,0,0,1-.76.33,3.68,3.68,0,0,1-.89.1A3.39,3.39,0,0,1,308,105.88Z"/><path d="M318.27,103.34H314a2.3,2.3,0,0,0,.54,1.55,1.88,1.88,0,0,0,1.42.54,2.89,2.89,0,0,0,1.86-.67v.91a3.47,3.47,0,0,1-2.09.57,2.53,2.53,0,0,1-2-.82,3.35,3.35,0,0,1-.72-2.3,3.28,3.28,0,0,1,.79-2.28,2.54,2.54,0,0,1,2-.88,2.24,2.24,0,0,1,1.82.76,3.18,3.18,0,0,1,.65,2.12Zm-1-.81a1.91,1.91,0,0,0-.4-1.3,1.36,1.36,0,0,0-1.1-.46,1.56,1.56,0,0,0-1.15.48,2.25,2.25,0,0,0-.59,1.28Z"/><path d="M324.7,106.1h-1v-3.42c0-1.28-.46-1.91-1.39-1.91a1.54,1.54,0,0,0-1.2.54,2,2,0,0,0-.47,1.37v3.42h-1v-6h1v1h0a2.16,2.16,0,0,1,2-1.14,1.83,1.83,0,0,1,1.51.64,2.79,2.79,0,0,1,.52,1.83Z"/><path d="M329.58,103.14h-3.2v-.76h3.2Z"/><path d="M289.89,120a1.82,1.82,0,0,1-.9.19c-1.05,0-1.58-.59-1.58-1.76v-3.55h-1v-.82h1v-1.46l1-.32v1.78h1.52v.82h-1.52v3.38a1.37,1.37,0,0,0,.21.86.83.83,0,0,0,.68.26,1.05,1.05,0,0,0,.63-.2Z"/><path d="M291.66,112.58a.6.6,0,0,1-.44-.18A.59.59,0,0,1,291,112a.61.61,0,0,1,.18-.45.6.6,0,0,1,.44-.18.62.62,0,0,1,.63.63.62.62,0,0,1-.18.44A.61.61,0,0,1,291.66,112.58Zm.47,7.52h-1v-6h1Z"/><path d="M302.59,120.1h-1v-3.45a2.66,2.66,0,0,0-.3-1.44,1.19,1.19,0,0,0-1-.44,1.27,1.27,0,0,0-1,.56,2.14,2.14,0,0,0-.43,1.35v3.42h-1v-3.56c0-1.18-.45-1.77-1.36-1.77a1.24,1.24,0,0,0-1,.53,2.14,2.14,0,0,0-.41,1.38v3.42h-1v-6h1v1h0a2,2,0,0,1,1.86-1.09,1.76,1.76,0,0,1,1.08.34,1.73,1.73,0,0,1,.62.9,2.14,2.14,0,0,1,2-1.24c1.32,0,2,.81,2,2.44Z"/><path d="M304.9,112.58a.6.6,0,0,1-.44-.18.59.59,0,0,1-.18-.44.61.61,0,0,1,.18-.45.6.6,0,0,1,.44-.18.61.61,0,0,1,.45.18.62.62,0,0,1,.19.45.63.63,0,0,1-.19.44A.61.61,0,0,1,304.9,112.58Zm.47,7.52h-1v-6h1Z"/><path d="M312.14,117.34H307.9a2.3,2.3,0,0,0,.54,1.55,1.88,1.88,0,0,0,1.42.54,2.89,2.89,0,0,0,1.86-.67v.91a3.47,3.47,0,0,1-2.09.57,2.53,2.53,0,0,1-2-.82,3.35,3.35,0,0,1-.72-2.3,3.28,3.28,0,0,1,.79-2.28,2.54,2.54,0,0,1,2-.88,2.26,2.26,0,0,1,1.83.76,3.23,3.23,0,0,1,.64,2.12Zm-1-.81a2,2,0,0,0-.41-1.3,1.35,1.35,0,0,0-1.09-.46,1.57,1.57,0,0,0-1.16.48,2.18,2.18,0,0,0-.58,1.28Z"/><path d="M318.57,120.1h-1v-3.42c0-1.28-.46-1.91-1.39-1.91a1.5,1.5,0,0,0-1.19.54,2,2,0,0,0-.48,1.37v3.42h-1v-6h1v1h0a2.16,2.16,0,0,1,2-1.14,1.82,1.82,0,0,1,1.5.64,2.79,2.79,0,0,1,.52,1.83Z"/><path d="M323.17,120a1.82,1.82,0,0,1-.9.19c-1,0-1.58-.59-1.58-1.76v-3.55h-1v-.82h1v-1.46l1-.32v1.78h1.51v.82h-1.51v3.38a1.38,1.38,0,0,0,.2.86.83.83,0,0,0,.68.26,1.05,1.05,0,0,0,.63-.2Z"/><path d="M327,120.24a2.79,2.79,0,0,1-2.13-.84,3.1,3.1,0,0,1-.79-2.23,3.25,3.25,0,0,1,.83-2.36,3,3,0,0,1,2.23-.85,2.66,2.66,0,0,1,2.09.83,3.73,3.73,0,0,1-.06,4.59A2.85,2.85,0,0,1,327,120.24Zm.07-5.47a1.84,1.84,0,0,0-1.47.63,2.59,2.59,0,0,0-.54,1.74,2.46,2.46,0,0,0,.55,1.68,1.85,1.85,0,0,0,1.46.61,1.75,1.75,0,0,0,1.43-.6,3.23,3.23,0,0,0,0-3.45A1.73,1.73,0,0,0,327,114.77Z"/><path d="M365.55,97.22v-8.4h2.32q4.44,0,4.44,4.1A4.12,4.12,0,0,1,371.08,96a4.59,4.59,0,0,1-3.31,1.18Zm1-7.51v6.62h1.26a3.56,3.56,0,0,0,2.57-.88,3.34,3.34,0,0,0,.92-2.51q0-3.22-3.44-3.23Z"/><path d="M378.65,94.46h-4.23A2.19,2.19,0,0,0,375,96a1.82,1.82,0,0,0,1.42.55,3,3,0,0,0,1.86-.67v.9a3.52,3.52,0,0,1-2.09.58,2.55,2.55,0,0,1-2-.82,3.33,3.33,0,0,1-.73-2.3,3.25,3.25,0,0,1,.8-2.28,2.54,2.54,0,0,1,2-.89,2.26,2.26,0,0,1,1.82.77,3.15,3.15,0,0,1,.64,2.11Zm-1-.81a1.93,1.93,0,0,0-.4-1.29,1.38,1.38,0,0,0-1.1-.47,1.52,1.52,0,0,0-1.15.49,2.16,2.16,0,0,0-.59,1.27Z"/><path d="M384.82,91.22l-2.39,6h-.94l-2.27-6h1l1.52,4.36a3.75,3.75,0,0,1,.22.84h0a3.7,3.7,0,0,1,.19-.81l1.59-4.39Z"/><path d="M388.36,97.37a2.79,2.79,0,0,1-2.12-.85,3.1,3.1,0,0,1-.79-2.23,3.26,3.26,0,0,1,.82-2.36,3,3,0,0,1,2.23-.85,2.7,2.7,0,0,1,2.1.83,3.27,3.27,0,0,1,.75,2.29,3.23,3.23,0,0,1-.81,2.3A2.84,2.84,0,0,1,388.36,97.37Zm.07-5.48a1.83,1.83,0,0,0-1.46.63,2.59,2.59,0,0,0-.54,1.74,2.46,2.46,0,0,0,.54,1.68,1.87,1.87,0,0,0,1.46.62,1.76,1.76,0,0,0,1.44-.61,2.62,2.62,0,0,0,.5-1.71,2.71,2.71,0,0,0-.5-1.74A1.79,1.79,0,0,0,388.43,91.89Z"/><path d="M393.85,97.22h-1V88.34h1Z"/><path d="M400.51,91.22l-2.39,6h-.94l-2.28-6H396l1.52,4.36a4.27,4.27,0,0,1,.21.84h0a4.38,4.38,0,0,1,.19-.81l1.6-4.39Z"/><path d="M406.36,94.46h-4.23a2.19,2.19,0,0,0,.54,1.55,1.82,1.82,0,0,0,1.41.55,3,3,0,0,0,1.87-.67v.9a3.52,3.52,0,0,1-2.09.58,2.55,2.55,0,0,1-2-.82,3.33,3.33,0,0,1-.73-2.3,3.29,3.29,0,0,1,.79-2.28,2.56,2.56,0,0,1,2-.89,2.26,2.26,0,0,1,1.82.77,3.15,3.15,0,0,1,.64,2.11Zm-1-.81a1.93,1.93,0,0,0-.4-1.29,1.38,1.38,0,0,0-1.1-.47,1.56,1.56,0,0,0-1.16.49,2.21,2.21,0,0,0-.58,1.27Z"/><path d="M411,92.2a1.18,1.18,0,0,0-.73-.2,1.25,1.25,0,0,0-1,.58,2.75,2.75,0,0,0-.41,1.59v3h-1v-6h1v1.24h0a2.17,2.17,0,0,1,.63-1,1.44,1.44,0,0,1,.94-.35,1.75,1.75,0,0,1,.58.08Z"/><path d="M368.2,111.17a1.92,1.92,0,0,1-.9.18c-1.05,0-1.57-.58-1.57-1.75V106h-1v-.82h1v-1.46l1-.31v1.77h1.51V106h-1.51v3.39a1.45,1.45,0,0,0,.2.86.83.83,0,0,0,.68.25,1,1,0,0,0,.63-.19Z"/><path d="M372,111.37a2.79,2.79,0,0,1-2.12-.85,3.11,3.11,0,0,1-.8-2.23,3.26,3.26,0,0,1,.83-2.36,3,3,0,0,1,2.23-.85,2.7,2.7,0,0,1,2.1.83,3.27,3.27,0,0,1,.75,2.29,3.23,3.23,0,0,1-.81,2.3A2.84,2.84,0,0,1,372,111.37Zm.07-5.48a1.83,1.83,0,0,0-1.46.63,2.59,2.59,0,0,0-.54,1.74,2.46,2.46,0,0,0,.54,1.68,1.87,1.87,0,0,0,1.46.62,1.76,1.76,0,0,0,1.44-.61,2.62,2.62,0,0,0,.5-1.71,2.71,2.71,0,0,0-.5-1.74A1.79,1.79,0,0,0,372.06,105.89Z"/><path d="M381.5,111.22h-1.35l-2.65-2.88h0v2.88h-1v-8.88h1V108h0l2.52-2.75h1.26l-2.78,2.9Z"/><path d="M387.3,108.46h-4.23a2.19,2.19,0,0,0,.54,1.55,1.82,1.82,0,0,0,1.41.55,3,3,0,0,0,1.87-.67v.9a3.53,3.53,0,0,1-2.1.58,2.54,2.54,0,0,1-2-.82,3.33,3.33,0,0,1-.73-2.3,3.25,3.25,0,0,1,.79-2.28,2.56,2.56,0,0,1,2-.89,2.26,2.26,0,0,1,1.82.77,3.15,3.15,0,0,1,.64,2.11Zm-1-.81a2,2,0,0,0-.4-1.29,1.38,1.38,0,0,0-1.1-.47,1.56,1.56,0,0,0-1.16.49,2.21,2.21,0,0,0-.58,1.27Z"/><path d="M393.74,111.22h-1V107.8c0-1.27-.47-1.91-1.4-1.91a1.5,1.5,0,0,0-1.19.54,2,2,0,0,0-.47,1.37v3.42h-1v-6h1v1h0a2.16,2.16,0,0,1,2-1.14,1.82,1.82,0,0,1,1.5.64,2.82,2.82,0,0,1,.53,1.84Z"/><path d="M191.83,129h-1.09l-.89-2.36h-3.57l-.83,2.36h-1.1l3.22-8.4h1Zm-2.31-3.24-1.31-3.58a2.59,2.59,0,0,1-.13-.56h0a3.36,3.36,0,0,1-.13.56l-1.31,3.58Z"/><path d="M197.79,129h-1V128h0a2,2,0,0,1-1.85,1.09c-1.43,0-2.14-.85-2.14-2.55V123h.95v3.43c0,1.27.49,1.9,1.45,1.9a1.46,1.46,0,0,0,1.16-.52,2,2,0,0,0,.46-1.35V123h1Z"/><path d="M202.51,128.91a1.82,1.82,0,0,1-.9.19c-1.05,0-1.57-.59-1.57-1.76v-3.55h-1V123h1v-1.46l1-.32V123h1.51v.82H201v3.38a1.45,1.45,0,0,0,.2.86.84.84,0,0,0,.68.26,1.05,1.05,0,0,0,.63-.2Z"/><path d="M208.61,126.21h-4.23a2.21,2.21,0,0,0,.54,1.55,1.85,1.85,0,0,0,1.41.54,2.94,2.94,0,0,0,1.87-.67v.91a3.52,3.52,0,0,1-2.09.57,2.52,2.52,0,0,1-2-.82,3.81,3.81,0,0,1,.07-4.58,2.53,2.53,0,0,1,2-.88,2.25,2.25,0,0,1,1.82.76,3.18,3.18,0,0,1,.64,2.12Zm-1-.81a2,2,0,0,0-.4-1.3,1.37,1.37,0,0,0-1.1-.46,1.55,1.55,0,0,0-1.15.48,2.19,2.19,0,0,0-.59,1.28Z"/><path d="M215.05,129h-1v-3.42c0-1.28-.47-1.91-1.4-1.91a1.5,1.5,0,0,0-1.19.54,2,2,0,0,0-.47,1.37V129h-1v-6h1v1h0a2.16,2.16,0,0,1,2-1.14,1.83,1.83,0,0,1,1.51.64,2.85,2.85,0,0,1,.52,1.83Z"/><path d="M219.64,128.91a1.76,1.76,0,0,1-.89.19c-1.06,0-1.58-.59-1.58-1.76v-3.55h-1V123h1v-1.46l1-.32V123h1.51v.82h-1.51v3.38a1.45,1.45,0,0,0,.2.86.84.84,0,0,0,.68.26,1,1,0,0,0,.63-.2Z"/><path d="M221.42,121.45a.6.6,0,0,1-.44-.18.59.59,0,0,1-.18-.44.61.61,0,0,1,.18-.45.6.6,0,0,1,.44-.18.64.64,0,0,1,.45.18.61.61,0,0,1,.18.45.62.62,0,0,1-.18.44A.64.64,0,0,1,221.42,121.45Zm.47,7.52h-1v-6h1Z"/><path d="M227.92,128.69a3.1,3.1,0,0,1-1.64.42,2.72,2.72,0,0,1-2.07-.83,3,3,0,0,1-.79-2.17,3.3,3.3,0,0,1,.85-2.38,3,3,0,0,1,2.27-.9,3.2,3.2,0,0,1,1.39.29v1a2.38,2.38,0,0,0-1.43-.47,2,2,0,0,0-1.51.66,2.5,2.5,0,0,0-.58,1.73,2.36,2.36,0,0,0,.55,1.66,1.89,1.89,0,0,0,1.48.61,2.39,2.39,0,0,0,1.48-.52Z"/><path d="M233.67,129h-1V128h0a2,2,0,0,1-1.84,1.08,2,2,0,0,1-1.4-.47,1.65,1.65,0,0,1-.51-1.26c0-1.12.66-1.78,2-2l1.8-.25c0-1-.41-1.53-1.24-1.53a2.94,2.94,0,0,0-2,.74v-1a3.76,3.76,0,0,1,2-.56c1.41,0,2.12.75,2.12,2.24Zm-1-3-1.45.19a2.48,2.48,0,0,0-1,.34,1,1,0,0,0-.34.84.9.9,0,0,0,.32.71,1.18,1.18,0,0,0,.83.28,1.51,1.51,0,0,0,1.18-.5,1.8,1.8,0,0,0,.47-1.27Z"/><path d="M239.57,128.69a3.1,3.1,0,0,1-1.64.42,2.72,2.72,0,0,1-2.07-.83,3,3,0,0,1-.79-2.17,3.3,3.3,0,0,1,.85-2.38,3,3,0,0,1,2.27-.9,3.23,3.23,0,0,1,1.39.29v1a2.38,2.38,0,0,0-1.43-.47,2,2,0,0,0-1.51.66,2.5,2.5,0,0,0-.59,1.73,2.36,2.36,0,0,0,.56,1.66,1.89,1.89,0,0,0,1.48.61,2.39,2.39,0,0,0,1.48-.52Z"/><path d="M241.51,121.45a.58.58,0,0,1-.43-.18.56.56,0,0,1-.19-.44.63.63,0,0,1,.62-.63.61.61,0,0,1,.45.18.58.58,0,0,1,.19.45.59.59,0,0,1-.19.44A.61.61,0,0,1,241.51,121.45ZM242,129h-1v-6h1Z"/><path d="M246.44,129.11a2.79,2.79,0,0,1-2.13-.84,3.1,3.1,0,0,1-.79-2.23,3.24,3.24,0,0,1,.82-2.36,3,3,0,0,1,2.24-.85,2.66,2.66,0,0,1,2.09.83,3.77,3.77,0,0,1-.06,4.59A2.85,2.85,0,0,1,246.44,129.11Zm.07-5.47a1.84,1.84,0,0,0-1.47.63,2.59,2.59,0,0,0-.54,1.74,2.41,2.41,0,0,0,.55,1.68,1.85,1.85,0,0,0,1.46.61,1.75,1.75,0,0,0,1.43-.6,3.23,3.23,0,0,0,0-3.45A1.73,1.73,0,0,0,246.51,123.64Zm1.4-3.73-1.53,1.92h-.75l1.31-1.92Z"/><path d="M255.94,129h-1v-3.42c0-1.28-.47-1.91-1.4-1.91a1.52,1.52,0,0,0-1.19.54,2,2,0,0,0-.47,1.37V129h-1v-6h1v1h0a2.17,2.17,0,0,1,2-1.14,1.83,1.83,0,0,1,1.51.64,2.79,2.79,0,0,1,.52,1.83Z"/><path class="cls-14" d="M28.39,267.78H27.3l-.89-2.35H22.85L22,267.78H20.92l3.22-8.4h1Zm-2.3-3.24L24.77,261a3.38,3.38,0,0,1-.13-.56h0a3.23,3.23,0,0,1-.14.56l-1.3,3.58Z"/><path class="cls-14" d="M30.48,266.91h0v3.63h-1v-8.76h1v1.06h0a2.29,2.29,0,0,1,2.08-1.2,2.2,2.2,0,0,1,1.81.81,3.33,3.33,0,0,1,.65,2.16,3.78,3.78,0,0,1-.73,2.41,2.46,2.46,0,0,1-2,.9A2,2,0,0,1,30.48,266.91Zm0-2.42v.84a1.77,1.77,0,0,0,.48,1.26,1.6,1.6,0,0,0,1.23.52,1.62,1.62,0,0,0,1.37-.66,3.09,3.09,0,0,0,.49-1.86,2.41,2.41,0,0,0-.46-1.57,1.53,1.53,0,0,0-1.25-.57A1.7,1.7,0,0,0,31,263,2.15,2.15,0,0,0,30.46,264.49Z"/><path class="cls-14" d="M37.51,267.78h-1V258.9h1Z"/><path class="cls-14" d="M40,260.26a.6.6,0,0,1-.44-.18.59.59,0,0,1-.18-.44.61.61,0,0,1,.18-.45A.6.6,0,0,1,40,259a.62.62,0,0,1,.63.63.6.6,0,0,1-.18.44A.61.61,0,0,1,40,260.26Zm.47,7.52h-1v-6h1Z"/><path class="cls-14" d="M46.46,267.51a3.19,3.19,0,0,1-1.64.41,2.76,2.76,0,0,1-2.08-.83,3.06,3.06,0,0,1-.78-2.17,3.3,3.3,0,0,1,.85-2.38,3,3,0,0,1,2.26-.9,3.24,3.24,0,0,1,1.4.29v1a2.47,2.47,0,0,0-1.43-.47,1.92,1.92,0,0,0-1.51.66,2.52,2.52,0,0,0-.59,1.73,2.41,2.41,0,0,0,.55,1.66,1.91,1.91,0,0,0,1.49.61,2.41,2.41,0,0,0,1.48-.52Z"/><path class="cls-14" d="M52.2,267.78h-1v-.94h0a2.2,2.2,0,0,1-3.25.61,1.65,1.65,0,0,1-.51-1.26c0-1.12.66-1.78,2-2l1.8-.25q0-1.53-1.23-1.53a3,3,0,0,0-2,.74v-1a3.76,3.76,0,0,1,2-.56c1.41,0,2.11.75,2.11,2.24Zm-1-3-1.44.2a2.25,2.25,0,0,0-1,.33.93.93,0,0,0-.34.84.89.89,0,0,0,.31.71,1.2,1.2,0,0,0,.84.28,1.53,1.53,0,0,0,1.18-.5,1.77,1.77,0,0,0,.46-1.27Z"/><path class="cls-14" d="M58.1,267.51a3.17,3.17,0,0,1-1.64.41,2.75,2.75,0,0,1-2.07-.83,3.06,3.06,0,0,1-.79-2.17,3.35,3.35,0,0,1,.85-2.38,3,3,0,0,1,2.27-.9,3.27,3.27,0,0,1,1.4.29v1a2.49,2.49,0,0,0-1.43-.47,1.92,1.92,0,0,0-1.51.66,2.52,2.52,0,0,0-.59,1.73,2.36,2.36,0,0,0,.55,1.66,1.91,1.91,0,0,0,1.49.61,2.38,2.38,0,0,0,1.47-.52Z"/><path class="cls-14" d="M60.05,260.26a.6.6,0,0,1-.44-.18.59.59,0,0,1-.18-.44.61.61,0,0,1,.18-.45.6.6,0,0,1,.44-.18.62.62,0,0,1,.63.63.6.6,0,0,1-.18.44A.61.61,0,0,1,60.05,260.26Zm.47,7.52h-1v-6h1Z"/><path class="cls-14" d="M65,267.92a2.77,2.77,0,0,1-2.12-.84,3.11,3.11,0,0,1-.8-2.23,3.25,3.25,0,0,1,.83-2.36,3,3,0,0,1,2.23-.85,2.7,2.7,0,0,1,2.1.83,3.77,3.77,0,0,1-.06,4.59A2.87,2.87,0,0,1,65,267.92Zm.07-5.47a1.81,1.81,0,0,0-1.46.63,2.59,2.59,0,0,0-.54,1.74,2.46,2.46,0,0,0,.54,1.68,1.86,1.86,0,0,0,1.46.61,1.75,1.75,0,0,0,1.43-.6,2.58,2.58,0,0,0,.51-1.72,2.61,2.61,0,0,0-.51-1.73A1.73,1.73,0,0,0,65,262.45Zm1.41-3.73-1.54,1.92h-.74l1.31-1.92Z"/><path class="cls-14" d="M74.48,267.78h-1v-3.42c0-1.27-.46-1.91-1.39-1.91a1.5,1.5,0,0,0-1.19.54,2,2,0,0,0-.47,1.37v3.42h-1v-6h1v1h0a2.16,2.16,0,0,1,2-1.14,1.81,1.81,0,0,1,1.5.64,2.79,2.79,0,0,1,.53,1.83Z"/><path class="cls-15" d="M118.13,267.13a4.92,4.92,0,0,1-2.32.49,3.72,3.72,0,0,1-2.87-1.15,4.26,4.26,0,0,1-1.08-3,4.47,4.47,0,0,1,1.21-3.26,4.11,4.11,0,0,1,3.08-1.24,5,5,0,0,1,2,.35v1a4.12,4.12,0,0,0-2-.5,3,3,0,0,0-2.34,1,3.62,3.62,0,0,0-.9,2.58,3.47,3.47,0,0,0,.84,2.45,2.84,2.84,0,0,0,2.21.91,4.2,4.2,0,0,0,2.19-.56Z"/><path class="cls-15" d="M122.84,262.46a1.18,1.18,0,0,0-.73-.2,1.25,1.25,0,0,0-1,.58,2.74,2.74,0,0,0-.41,1.58v3.06h-1v-6h1v1.24h0a2.17,2.17,0,0,1,.63-1,1.46,1.46,0,0,1,.94-.35,1.75,1.75,0,0,1,.58.08Z"/><path class="cls-15" d="M128.7,264.72h-4.23a2.19,2.19,0,0,0,.54,1.55,1.85,1.85,0,0,0,1.41.55,3,3,0,0,0,1.87-.67v.9a3.53,3.53,0,0,1-2.1.57,2.53,2.53,0,0,1-2-.81,3.33,3.33,0,0,1-.73-2.3,3.29,3.29,0,0,1,.79-2.29,2.58,2.58,0,0,1,2-.88,2.28,2.28,0,0,1,1.82.76,3.19,3.19,0,0,1,.64,2.12Zm-1-.81a2,2,0,0,0-.4-1.3,1.4,1.4,0,0,0-1.1-.46,1.56,1.56,0,0,0-1.16.49,2.21,2.21,0,0,0-.58,1.27Z"/><path class="cls-15" d="M134.45,267.48h-1v-.93h0a2,2,0,0,1-1.85,1.07,2,2,0,0,1-1.4-.47,1.65,1.65,0,0,1-.51-1.26c0-1.12.66-1.77,2-2l1.8-.25c0-1-.41-1.53-1.24-1.53a3,3,0,0,0-1.95.74v-1a3.68,3.68,0,0,1,2-.57c1.41,0,2.11.75,2.11,2.24Zm-1-3-1.45.2a2.35,2.35,0,0,0-1,.33,1,1,0,0,0-.34.84.93.93,0,0,0,.32.72,1.24,1.24,0,0,0,.83.28,1.52,1.52,0,0,0,1.18-.51,1.77,1.77,0,0,0,.47-1.26Z"/><path class="cls-15" d="M139.39,262.46a1.18,1.18,0,0,0-.73-.2,1.22,1.22,0,0,0-1,.58,2.67,2.67,0,0,0-.42,1.58v3.06h-1v-6h1v1.24h0a2.08,2.08,0,0,1,.62-1,1.47,1.47,0,0,1,.95-.35,1.65,1.65,0,0,1,.57.08Z"/><path class="cls-15" d="M144.68,267.48h-1V258.6h1Z"/><path class="cls-15" d="M150.92,267.48h-1v-.93h0a2,2,0,0,1-1.85,1.07,2,2,0,0,1-1.4-.47,1.65,1.65,0,0,1-.51-1.26c0-1.12.66-1.77,2-2l1.8-.25c0-1-.41-1.53-1.24-1.53a3,3,0,0,0-1.95.74v-1a3.68,3.68,0,0,1,2-.57c1.41,0,2.11.75,2.11,2.24Zm-1-3-1.45.2a2.25,2.25,0,0,0-1,.33,1,1,0,0,0-.34.84.92.92,0,0,0,.31.72,1.24,1.24,0,0,0,.83.28,1.52,1.52,0,0,0,1.18-.51,1.73,1.73,0,0,0,.47-1.26Z"/><path class="cls-15" d="M160.84,264.72H156.6a2.28,2.28,0,0,0,.54,1.55,1.89,1.89,0,0,0,1.42.55,3,3,0,0,0,1.87-.67v.9a3.53,3.53,0,0,1-2.1.57,2.53,2.53,0,0,1-2-.81,3.33,3.33,0,0,1-.73-2.3,3.29,3.29,0,0,1,.79-2.29,2.58,2.58,0,0,1,2-.88,2.29,2.29,0,0,1,1.83.76,3.19,3.19,0,0,1,.64,2.12Zm-1-.81a2,2,0,0,0-.4-1.3,1.4,1.4,0,0,0-1.1-.46,1.54,1.54,0,0,0-1.16.49,2.21,2.21,0,0,0-.58,1.27Z"/><path class="cls-15" d="M167.27,267.48h-1v-3.42c0-1.27-.46-1.91-1.39-1.91a1.5,1.5,0,0,0-1.19.54,2,2,0,0,0-.47,1.37v3.42h-1v-6h1v1h0a2.16,2.16,0,0,1,2-1.14,1.81,1.81,0,0,1,1.5.64,2.8,2.8,0,0,1,.52,1.84Z"/><path class="cls-15" d="M171.87,267.42a1.82,1.82,0,0,1-.9.19c-1.05,0-1.57-.58-1.57-1.76V262.3h-1v-.82h1V260l1-.31v1.77h1.51v.82h-1.51v3.38a1.49,1.49,0,0,0,.2.87.83.83,0,0,0,.68.25,1,1,0,0,0,.63-.2Z"/><path class="cls-15" d="M173.64,260a.62.62,0,0,1-.44-.18.57.57,0,0,1-.18-.44.61.61,0,0,1,.18-.45.62.62,0,0,1,.44-.18.61.61,0,0,1,.45.18.58.58,0,0,1,.19.45.58.58,0,0,1-.19.44A.61.61,0,0,1,173.64,260Zm.47,7.52h-1v-6h1Z"/><path class="cls-15" d="M181.18,267.48h-1v-1h0a2.2,2.2,0,0,1-2.06,1.16,2.25,2.25,0,0,1-1.81-.8,3.32,3.32,0,0,1-.67-2.2,3.59,3.59,0,0,1,.75-2.38,2.46,2.46,0,0,1,2-.9,1.91,1.91,0,0,1,1.79,1h0V258.6h1Zm-1-2.71v-.88a1.7,1.7,0,0,0-.48-1.23,1.61,1.61,0,0,0-1.22-.51,1.64,1.64,0,0,0-1.38.65,2.79,2.79,0,0,0-.51,1.78,2.48,2.48,0,0,0,.49,1.63,1.55,1.55,0,0,0,1.29.61,1.68,1.68,0,0,0,1.31-.58A2.2,2.2,0,0,0,180.22,264.77Z"/><path class="cls-15" d="M187.42,267.48h-1v-.93h0a2,2,0,0,1-1.85,1.07,1.93,1.93,0,0,1-1.4-.47,1.65,1.65,0,0,1-.51-1.26c0-1.12.66-1.77,2-2l1.8-.25c0-1-.41-1.53-1.24-1.53a3,3,0,0,0-1.95.74v-1a3.63,3.63,0,0,1,2-.57c1.41,0,2.12.75,2.12,2.24Zm-1-3-1.45.2a2.35,2.35,0,0,0-1,.33,1,1,0,0,0-.34.84.93.93,0,0,0,.32.72,1.22,1.22,0,0,0,.83.28,1.52,1.52,0,0,0,1.18-.51,1.77,1.77,0,0,0,.47-1.26Z"/><path class="cls-15" d="M194.35,267.48h-1v-1h0a2.43,2.43,0,0,1-3.87.36,3.33,3.33,0,0,1-.68-2.2,3.59,3.59,0,0,1,.75-2.38,2.48,2.48,0,0,1,2-.9,1.94,1.94,0,0,1,1.8,1h0V258.6h1Zm-1-2.71v-.88a1.7,1.7,0,0,0-.48-1.23,1.61,1.61,0,0,0-1.22-.51,1.64,1.64,0,0,0-1.38.65,2.79,2.79,0,0,0-.51,1.78,2.53,2.53,0,0,0,.49,1.63,1.55,1.55,0,0,0,1.3.61,1.66,1.66,0,0,0,1.3-.58A2.2,2.2,0,0,0,193.39,264.77Z"/><path class="cls-15" d="M116.79,280.88h-1v-1h0a2.43,2.43,0,0,1-3.87.36,3.33,3.33,0,0,1-.68-2.2,3.59,3.59,0,0,1,.75-2.38,2.48,2.48,0,0,1,2-.9,1.94,1.94,0,0,1,1.8,1h0V272h1Zm-1-2.71v-.88a1.7,1.7,0,0,0-.48-1.23,1.59,1.59,0,0,0-1.22-.51,1.67,1.67,0,0,0-1.38.65,2.79,2.79,0,0,0-.5,1.78,2.58,2.58,0,0,0,.48,1.64,1.57,1.57,0,0,0,1.3.6,1.66,1.66,0,0,0,1.3-.58A2.15,2.15,0,0,0,115.83,278.17Z"/><path class="cls-15" d="M123.56,278.12h-4.24a2.28,2.28,0,0,0,.54,1.55,1.89,1.89,0,0,0,1.42.55,3,3,0,0,0,1.87-.67v.9a3.53,3.53,0,0,1-2.1.57,2.53,2.53,0,0,1-2-.81,3.33,3.33,0,0,1-.73-2.3,3.25,3.25,0,0,1,.79-2.28,2.55,2.55,0,0,1,2-.89,2.29,2.29,0,0,1,1.83.76,3.19,3.19,0,0,1,.64,2.12Zm-1-.81a2,2,0,0,0-.4-1.3,1.4,1.4,0,0,0-1.1-.46,1.54,1.54,0,0,0-1.16.49,2.21,2.21,0,0,0-.58,1.27Z"/><path class="cls-15" d="M127.94,280.67v-1a2.88,2.88,0,0,0,1.73.58c.84,0,1.26-.29,1.26-.85a.7.7,0,0,0-.11-.41,1,1,0,0,0-.29-.29,2.18,2.18,0,0,0-.43-.23l-.54-.22a5.79,5.79,0,0,1-.7-.32,1.74,1.74,0,0,1-.5-.36,1.29,1.29,0,0,1-.31-.46,1.57,1.57,0,0,1-.1-.6,1.44,1.44,0,0,1,.19-.75,1.58,1.58,0,0,1,.52-.54,2.45,2.45,0,0,1,.73-.34,3.49,3.49,0,0,1,.86-.11,3.41,3.41,0,0,1,1.39.27v1a2.71,2.71,0,0,0-1.52-.44,1.88,1.88,0,0,0-.49.06,1.06,1.06,0,0,0-.37.18.85.85,0,0,0-.24.26.7.7,0,0,0-.09.35.8.8,0,0,0,.09.39.94.94,0,0,0,.25.28,1.67,1.67,0,0,0,.4.22l.53.22a6,6,0,0,1,.71.31,2,2,0,0,1,.54.37,1.41,1.41,0,0,1,.35.46,1.54,1.54,0,0,1,.12.63,1.47,1.47,0,0,1-.2.77,1.82,1.82,0,0,1-.52.55,2.49,2.49,0,0,1-.76.32,3.76,3.76,0,0,1-.9.1A3.37,3.37,0,0,1,127.94,280.67Z"/><path class="cls-15" d="M138.22,278.12H134a2.19,2.19,0,0,0,.54,1.55,1.86,1.86,0,0,0,1.42.55,3,3,0,0,0,1.86-.67v.9a3.52,3.52,0,0,1-2.09.57,2.54,2.54,0,0,1-2-.81,3.37,3.37,0,0,1-.73-2.3,3.25,3.25,0,0,1,.8-2.28,2.54,2.54,0,0,1,2-.89,2.28,2.28,0,0,1,1.82.76,3.2,3.2,0,0,1,.65,2.12Zm-1-.81a2,2,0,0,0-.4-1.3,1.39,1.39,0,0,0-1.1-.46,1.52,1.52,0,0,0-1.15.49,2.16,2.16,0,0,0-.59,1.27Z"/><path class="cls-15" d="M142.8,275.86a1.18,1.18,0,0,0-.73-.2,1.25,1.25,0,0,0-1,.58,2.75,2.75,0,0,0-.41,1.59v3.05h-1v-6h1v1.24h0a2.17,2.17,0,0,1,.63-1,1.46,1.46,0,0,1,.94-.35,1.75,1.75,0,0,1,.58.08Z"/><path class="cls-15" d="M148.56,274.88l-2.39,6h-.95l-2.27-6H144l1.53,4.36a4.27,4.27,0,0,1,.21.84h0a3.7,3.7,0,0,1,.19-.81l1.59-4.39Z"/><path class="cls-15" d="M150.08,273.36a.6.6,0,0,1-.44-.18.57.57,0,0,1-.18-.44.61.61,0,0,1,.18-.45.6.6,0,0,1,.44-.18.62.62,0,0,1,.63.63.6.6,0,0,1-.18.44A.61.61,0,0,1,150.08,273.36Zm.47,7.52h-1v-6h1Z"/><path class="cls-15" d="M156.58,280.61a3.07,3.07,0,0,1-1.64.41,2.71,2.71,0,0,1-2.07-.83,3.06,3.06,0,0,1-.79-2.17,3.36,3.36,0,0,1,.85-2.38,3,3,0,0,1,2.27-.9,3.13,3.13,0,0,1,1.4.3v1a2.49,2.49,0,0,0-1.43-.47,1.92,1.92,0,0,0-1.51.66,2.52,2.52,0,0,0-.59,1.73,2.39,2.39,0,0,0,.55,1.67,1.94,1.94,0,0,0,1.49.61,2.39,2.39,0,0,0,1.47-.53Z"/><path class="cls-15" d="M158.53,273.36a.6.6,0,0,1-.44-.18.57.57,0,0,1-.18-.44.61.61,0,0,1,.18-.45.6.6,0,0,1,.44-.18.63.63,0,0,1,.45.18.61.61,0,0,1,.18.45.6.6,0,0,1-.18.44A.63.63,0,0,1,158.53,273.36Zm.47,7.52h-1v-6h1Z"/><path class="cls-15" d="M163.45,281a2.77,2.77,0,0,1-2.12-.84,3.11,3.11,0,0,1-.8-2.23,3.26,3.26,0,0,1,.83-2.36,3,3,0,0,1,2.23-.85,2.7,2.7,0,0,1,2.1.83,3.27,3.27,0,0,1,.75,2.29,3.23,3.23,0,0,1-.81,2.3A2.83,2.83,0,0,1,163.45,281Zm.07-5.47a1.81,1.81,0,0,0-1.46.63,2.59,2.59,0,0,0-.54,1.74,2.46,2.46,0,0,0,.54,1.68,1.87,1.87,0,0,0,1.46.62,1.76,1.76,0,0,0,1.43-.61,2.57,2.57,0,0,0,.51-1.71,2.65,2.65,0,0,0-.51-1.74A1.73,1.73,0,0,0,163.52,275.55Z"/><path class="cls-15" d="M176.38,280.88h-1v-1h0a2.43,2.43,0,0,1-3.87.36,3.33,3.33,0,0,1-.68-2.2,3.59,3.59,0,0,1,.75-2.38,2.48,2.48,0,0,1,2-.9,1.94,1.94,0,0,1,1.8,1h0V272h1Zm-1-2.71v-.88a1.7,1.7,0,0,0-.48-1.23,1.59,1.59,0,0,0-1.22-.51,1.67,1.67,0,0,0-1.38.65,2.79,2.79,0,0,0-.5,1.78,2.58,2.58,0,0,0,.48,1.64,1.57,1.57,0,0,0,1.3.6,1.66,1.66,0,0,0,1.3-.58A2.15,2.15,0,0,0,175.42,278.17Z"/><path class="cls-15" d="M183.15,278.12h-4.24a2.28,2.28,0,0,0,.54,1.55,1.89,1.89,0,0,0,1.42.55,3,3,0,0,0,1.86-.67v.9a3.47,3.47,0,0,1-2.09.57,2.53,2.53,0,0,1-2-.81,3.33,3.33,0,0,1-.73-2.3,3.25,3.25,0,0,1,.79-2.28,2.55,2.55,0,0,1,2-.89,2.29,2.29,0,0,1,1.83.76,3.19,3.19,0,0,1,.64,2.12Zm-1-.81a2,2,0,0,0-.4-1.3,1.4,1.4,0,0,0-1.1-.46,1.54,1.54,0,0,0-1.16.49,2.21,2.21,0,0,0-.58,1.27Z"/><path class="cls-15" d="M188.85,280.88h-1V272h1Z"/><path class="cls-15" d="M195.09,280.88h-1V280h0a2,2,0,0,1-1.85,1.07,2,2,0,0,1-1.4-.47,1.65,1.65,0,0,1-.51-1.26c0-1.12.66-1.77,2-2l1.8-.25q0-1.53-1.23-1.53a3,3,0,0,0-2,.74v-1a3.68,3.68,0,0,1,2-.57c1.41,0,2.11.75,2.11,2.24Zm-1-3-1.45.2a2.25,2.25,0,0,0-1,.33,1,1,0,0,0-.34.84.92.92,0,0,0,.31.72,1.24,1.24,0,0,0,.83.28,1.56,1.56,0,0,0,1.19-.51,1.76,1.76,0,0,0,.46-1.26Z"/><path class="cls-15" d="M132.14,294.28h-1v-.93h0a2,2,0,0,1-1.84,1.07,2,2,0,0,1-1.41-.47,1.64,1.64,0,0,1-.5-1.26c0-1.12.66-1.77,2-2l1.8-.25c0-1-.42-1.53-1.24-1.53a3,3,0,0,0-2,.74v-1a3.68,3.68,0,0,1,2-.57c1.41,0,2.12.75,2.12,2.24Zm-1-3-1.45.2a2.3,2.3,0,0,0-1,.33,1,1,0,0,0-.34.84.92.92,0,0,0,.31.72,1.25,1.25,0,0,0,.84.28,1.52,1.52,0,0,0,1.18-.51,1.77,1.77,0,0,0,.47-1.26Z"/><path class="cls-15" d="M134.93,293.42h0V297h-1v-8.76h1v1.06h0a2.28,2.28,0,0,1,2.08-1.2,2.2,2.2,0,0,1,1.81.81,3.37,3.37,0,0,1,.65,2.16,3.71,3.71,0,0,1-.74,2.41,2.42,2.42,0,0,1-2,.9A2,2,0,0,1,134.93,293.42Zm0-2.42v.83a1.81,1.81,0,0,0,.48,1.27A1.73,1.73,0,0,0,138,293a3.09,3.09,0,0,0,.49-1.86,2.41,2.41,0,0,0-.46-1.57,1.53,1.53,0,0,0-1.25-.57,1.73,1.73,0,0,0-1.35.58A2.16,2.16,0,0,0,134.91,291Z"/><path class="cls-15" d="M142,294.28h-1V285.4h1Z"/><path class="cls-15" d="M144.4,286.76a.6.6,0,0,1-.44-.18.57.57,0,0,1-.18-.44.61.61,0,0,1,.18-.45.6.6,0,0,1,.44-.18.62.62,0,0,1,.63.63.6.6,0,0,1-.18.44A.61.61,0,0,1,144.4,286.76Zm.47,7.52h-1v-6h1Z"/><path class="cls-15" d="M150.9,294a3.07,3.07,0,0,1-1.64.41,2.71,2.71,0,0,1-2.07-.83,3.06,3.06,0,0,1-.79-2.17,3.36,3.36,0,0,1,.85-2.38,3,3,0,0,1,2.27-.9,3.13,3.13,0,0,1,1.4.3v1a2.49,2.49,0,0,0-1.43-.47,1.92,1.92,0,0,0-1.51.66,2.47,2.47,0,0,0-.59,1.73,2.4,2.4,0,0,0,.55,1.67,1.94,1.94,0,0,0,1.49.61,2.39,2.39,0,0,0,1.47-.53Z"/><path class="cls-15" d="M156.65,294.28h-1v-.93h0a2,2,0,0,1-1.85,1.07,2,2,0,0,1-1.4-.47,1.65,1.65,0,0,1-.51-1.26c0-1.12.66-1.77,2-2l1.8-.25c0-1-.41-1.53-1.24-1.53a3,3,0,0,0-1.95.74v-1a3.68,3.68,0,0,1,2-.57c1.41,0,2.11.75,2.11,2.24Zm-1-3-1.45.2a2.25,2.25,0,0,0-1,.33,1,1,0,0,0-.34.84.92.92,0,0,0,.31.72,1.24,1.24,0,0,0,.83.28,1.56,1.56,0,0,0,1.19-.51,1.76,1.76,0,0,0,.46-1.26Z"/><path class="cls-15" d="M162.55,294a3.1,3.1,0,0,1-1.64.41,2.71,2.71,0,0,1-2.07-.83,3,3,0,0,1-.79-2.17,3.36,3.36,0,0,1,.85-2.38,3,3,0,0,1,2.27-.9,3.06,3.06,0,0,1,1.39.3v1a2.45,2.45,0,0,0-1.43-.47,1.91,1.91,0,0,0-1.5.66,2.47,2.47,0,0,0-.59,1.73,2.4,2.4,0,0,0,.55,1.67,1.93,1.93,0,0,0,1.49.61,2.39,2.39,0,0,0,1.47-.53Z"/><path class="cls-15" d="M164.5,286.76a.6.6,0,0,1-.44-.18.57.57,0,0,1-.18-.44.61.61,0,0,1,.18-.45.6.6,0,0,1,.44-.18.64.64,0,0,1,.45.18.61.61,0,0,1,.18.45.6.6,0,0,1-.18.44A.64.64,0,0,1,164.5,286.76Zm.47,7.52h-1v-6h1Z"/><path class="cls-15" d="M169.42,294.42a2.76,2.76,0,0,1-2.12-.84,3.11,3.11,0,0,1-.8-2.23,3.26,3.26,0,0,1,.83-2.36,3,3,0,0,1,2.23-.85,2.69,2.69,0,0,1,2.09.83,3.75,3.75,0,0,1-.05,4.59A2.83,2.83,0,0,1,169.42,294.42Zm.07-5.47a1.84,1.84,0,0,0-1.47.63,2.64,2.64,0,0,0-.53,1.74A2.46,2.46,0,0,0,168,293a1.85,1.85,0,0,0,1.46.62,1.76,1.76,0,0,0,1.43-.61,2.58,2.58,0,0,0,.5-1.72,2.62,2.62,0,0,0-.5-1.73A1.73,1.73,0,0,0,169.49,289Zm1.41-3.73-1.54,1.93h-.74l1.3-1.93Z"/><path class="cls-15" d="M178.92,294.28h-1v-3.42c0-1.27-.46-1.91-1.39-1.91a1.5,1.5,0,0,0-1.19.54,2,2,0,0,0-.48,1.37v3.42h-1v-6h1v1h0a2.16,2.16,0,0,1,2-1.14,1.82,1.82,0,0,1,1.5.64,2.8,2.8,0,0,1,.52,1.84Z"/><path class="cls-15" d="M250.06,6.38q0,3.54-3.19,3.54t-3.06-3.4V1.38h1V6.46c0,1.72.72,2.58,2.18,2.58s2.1-.83,2.1-2.5V1.38h1Z"/><path class="cls-15" d="M251.67,9.57v-1a2.88,2.88,0,0,0,1.73.58c.84,0,1.26-.29,1.26-.85a.7.7,0,0,0-.11-.41,1,1,0,0,0-.29-.29,2.18,2.18,0,0,0-.43-.23l-.54-.22a5.79,5.79,0,0,1-.7-.32,1.74,1.74,0,0,1-.5-.36,1.29,1.29,0,0,1-.31-.46,1.57,1.57,0,0,1-.1-.6,1.55,1.55,0,0,1,.19-.75,1.7,1.7,0,0,1,.52-.55,2.64,2.64,0,0,1,.74-.33,3.35,3.35,0,0,1,.85-.11,3.41,3.41,0,0,1,1.39.27v1a2.78,2.78,0,0,0-1.52-.43,1.88,1.88,0,0,0-.49.06,1.06,1.06,0,0,0-.37.18.85.85,0,0,0-.24.26.68.68,0,0,0-.08.34.82.82,0,0,0,.08.4A.94.94,0,0,0,253,6a1.67,1.67,0,0,0,.4.22l.53.22a7.07,7.07,0,0,1,.72.31,2.45,2.45,0,0,1,.53.36,1.56,1.56,0,0,1,.35.47,1.54,1.54,0,0,1,.12.63,1.5,1.5,0,0,1-.2.77,1.7,1.7,0,0,1-.52.55,2.49,2.49,0,0,1-.76.32,3.71,3.71,0,0,1-.9.1A3.49,3.49,0,0,1,251.67,9.57Z"/><path class="cls-15" d="M262,9.78h-1V8.83h0a2,2,0,0,1-1.85,1.09c-1.43,0-2.14-.85-2.14-2.55V3.78H258V7.22c0,1.26.48,1.9,1.45,1.9a1.49,1.49,0,0,0,1.16-.52A2,2,0,0,0,261,7.24V3.78h1Z"/><path class="cls-15" d="M268.21,9.78h-1V8.85h0a2,2,0,0,1-1.85,1.07,1.93,1.93,0,0,1-1.4-.47,1.65,1.65,0,0,1-.51-1.26c0-1.12.66-1.77,2-2l1.8-.25c0-1-.41-1.53-1.24-1.53a3,3,0,0,0-1.95.74v-1a3.67,3.67,0,0,1,2-.57c1.41,0,2.12.75,2.12,2.24Zm-1-3L265.8,7a2.35,2.35,0,0,0-1,.33,1,1,0,0,0-.34.84.93.93,0,0,0,.32.72,1.22,1.22,0,0,0,.83.28,1.52,1.52,0,0,0,1.18-.51,1.77,1.77,0,0,0,.47-1.26Z"/><path class="cls-15" d="M273.15,4.76a1.18,1.18,0,0,0-.73-.2,1.25,1.25,0,0,0-1,.58A2.74,2.74,0,0,0,271,6.72V9.78h-1v-6h1V5h0a2.17,2.17,0,0,1,.63-1,1.47,1.47,0,0,1,.95-.35,1.65,1.65,0,0,1,.57.08Z"/><path class="cls-15" d="M274.68,2.26a.58.58,0,0,1-.43-.18.55.55,0,0,1-.19-.44.58.58,0,0,1,.19-.45.58.58,0,0,1,.43-.18.61.61,0,0,1,.45.18.58.58,0,0,1,.19.45.58.58,0,0,1-.19.44A.61.61,0,0,1,274.68,2.26Zm.47,7.52h-1v-6h1Z"/><path class="cls-15" d="M279.61,9.92a2.79,2.79,0,0,1-2.13-.84,3.1,3.1,0,0,1-.79-2.23,3.26,3.26,0,0,1,.82-2.36,3,3,0,0,1,2.24-.85,2.69,2.69,0,0,1,2.09.83,3.27,3.27,0,0,1,.75,2.29,3.23,3.23,0,0,1-.81,2.3A2.81,2.81,0,0,1,279.61,9.92Zm.07-5.47a1.84,1.84,0,0,0-1.47.63,2.59,2.59,0,0,0-.54,1.74,2.41,2.41,0,0,0,.55,1.68,1.85,1.85,0,0,0,1.46.62,1.76,1.76,0,0,0,1.43-.61,2.63,2.63,0,0,0,.5-1.72,2.68,2.68,0,0,0-.5-1.73A1.73,1.73,0,0,0,279.68,4.45Z"/><path class="cls-15" d="M292.54,9.78h-1v-1h0a2.2,2.2,0,0,1-2.06,1.16,2.24,2.24,0,0,1-1.81-.8,3.32,3.32,0,0,1-.67-2.2,3.59,3.59,0,0,1,.75-2.38,2.46,2.46,0,0,1,2-.9,1.92,1.92,0,0,1,1.8,1h0V.9h1Zm-1-2.71V6.19A1.7,1.7,0,0,0,291.1,5a1.61,1.61,0,0,0-1.22-.51,1.64,1.64,0,0,0-1.38.65A2.79,2.79,0,0,0,288,6.88a2.53,2.53,0,0,0,.48,1.63,1.58,1.58,0,0,0,1.3.61,1.68,1.68,0,0,0,1.31-.58A2.2,2.2,0,0,0,291.58,7.07Z"/><path class="cls-15" d="M299.31,7h-4.24a2.19,2.19,0,0,0,.54,1.55,1.86,1.86,0,0,0,1.42.55,3,3,0,0,0,1.86-.67v.9a3.5,3.5,0,0,1-2.09.57,2.54,2.54,0,0,1-2-.81,3.39,3.39,0,0,1-.73-2.3,3.29,3.29,0,0,1,.8-2.29,2.56,2.56,0,0,1,2-.88,2.28,2.28,0,0,1,1.82.76,3.2,3.2,0,0,1,.65,2.12Zm-1-.81a2,2,0,0,0-.4-1.3,1.39,1.39,0,0,0-1.1-.46,1.52,1.52,0,0,0-1.15.49,2.22,2.22,0,0,0-.59,1.27Z"/><path class="cls-15" d="M244.63,15.66a.58.58,0,0,1-.43-.18A.55.55,0,0,1,244,15a.63.63,0,0,1,.62-.63.61.61,0,0,1,.45.18.58.58,0,0,1,.19.45.58.58,0,0,1-.19.44A.61.61,0,0,1,244.63,15.66Zm.47,7.52h-1v-6h1Z"/><path class="cls-15" d="M252,23.18h-1V19.76c0-1.27-.47-1.91-1.4-1.91a1.52,1.52,0,0,0-1.19.54,2,2,0,0,0-.47,1.37v3.42h-1v-6h1v1h0A2.17,2.17,0,0,1,250,17a1.83,1.83,0,0,1,1.51.64,2.8,2.8,0,0,1,.52,1.84Z"/><path class="cls-15" d="M259,25.94h-1V22.15h0a2.15,2.15,0,0,1-2.05,1.17,2.26,2.26,0,0,1-1.82-.8,3.33,3.33,0,0,1-.68-2.2,3.57,3.57,0,0,1,.75-2.38,2.49,2.49,0,0,1,2-.9A1.9,1.9,0,0,1,258,18h0v-.84h1Zm-1-5.46v-.87a1.76,1.76,0,0,0-.48-1.25,1.63,1.63,0,0,0-1.23-.51,1.66,1.66,0,0,0-1.37.64,2.85,2.85,0,0,0-.51,1.81,2.53,2.53,0,0,0,.49,1.63,1.55,1.55,0,0,0,1.25.59,1.7,1.7,0,0,0,1.35-.58A2.17,2.17,0,0,0,258,20.48Z"/><path class="cls-15" d="M265.76,23.18h-1v-.95h0a2,2,0,0,1-1.85,1.09c-1.43,0-2.14-.85-2.14-2.55V17.18h1v3.44c0,1.26.49,1.9,1.46,1.9a1.48,1.48,0,0,0,1.15-.52,2,2,0,0,0,.46-1.36V17.18h1Z"/><path class="cls-15" d="M268.19,15.66a.6.6,0,0,1-.44-.18.57.57,0,0,1-.18-.44.61.61,0,0,1,.18-.45.6.6,0,0,1,.44-.18.63.63,0,0,1,.45.18.61.61,0,0,1,.18.45.6.6,0,0,1-.18.44A.63.63,0,0,1,268.19,15.66Zm.47,7.52h-1v-6h1Z"/><path class="cls-15" d="M271.56,23.18h-1V14.3h1Z"/><path class="cls-15" d="M274,15.66a.6.6,0,0,1-.44-.18.57.57,0,0,1-.18-.44.61.61,0,0,1,.18-.45.6.6,0,0,1,.44-.18.62.62,0,0,1,.63.63.6.6,0,0,1-.18.44A.61.61,0,0,1,274,15.66Zm.47,7.52h-1v-6h1Z"/><path class="cls-15" d="M281.4,23.18h-1V19.76c0-1.27-.47-1.91-1.4-1.91a1.5,1.5,0,0,0-1.19.54,2,2,0,0,0-.47,1.37v3.42h-1v-6h1v1h0a2.16,2.16,0,0,1,2-1.14,1.83,1.83,0,0,1,1.51.64,2.86,2.86,0,0,1,.52,1.84Z"/><path class="cls-15" d="M285.71,23.32a2.79,2.79,0,0,1-2.12-.84,3.1,3.1,0,0,1-.79-2.23,3.26,3.26,0,0,1,.82-2.36,3,3,0,0,1,2.24-.85,2.69,2.69,0,0,1,2.09.83,3.27,3.27,0,0,1,.75,2.29,3.23,3.23,0,0,1-.81,2.3A2.82,2.82,0,0,1,285.71,23.32Zm.08-5.47a1.84,1.84,0,0,0-1.47.63,2.59,2.59,0,0,0-.54,1.74,2.41,2.41,0,0,0,.55,1.68,1.85,1.85,0,0,0,1.46.62,1.77,1.77,0,0,0,1.43-.61,2.62,2.62,0,0,0,.5-1.71,2.71,2.71,0,0,0-.5-1.74A1.74,1.74,0,0,0,285.79,17.85Z"/><path class="cls-15" d="M293.65,23.18v-8.4H296a2.63,2.63,0,0,1,1.73.53,1.72,1.72,0,0,1,.64,1.39,2,2,0,0,1-1.45,2v0a2.15,2.15,0,0,1,1.36.64,2,2,0,0,1,.51,1.41,2.2,2.2,0,0,1-.78,1.75,2.88,2.88,0,0,1-1.95.66Zm1-7.51v2.71h1a2,2,0,0,0,1.27-.38,1.36,1.36,0,0,0,.46-1.1c0-.82-.54-1.23-1.61-1.23Zm0,3.6v3H296a2,2,0,0,0,1.35-.41,1.4,1.4,0,0,0,.48-1.12c0-1-.68-1.49-2-1.49Z"/><path class="cls-15" d="M74.91,97.14V96a2.36,2.36,0,0,0,.48.32,5.19,5.19,0,0,0,.59.24,6.23,6.23,0,0,0,.62.15,3.88,3.88,0,0,0,.57,0,2.22,2.22,0,0,0,1.36-.34,1.14,1.14,0,0,0,.45-1,1.15,1.15,0,0,0-.15-.59,1.64,1.64,0,0,0-.42-.46,3.91,3.91,0,0,0-.62-.4l-.78-.4-.82-.45a3.81,3.81,0,0,1-.66-.5,2.05,2.05,0,0,1-.44-.63,2.13,2.13,0,0,1,.09-1.81,2.24,2.24,0,0,1,.66-.71,3.13,3.13,0,0,1,.93-.41,4.29,4.29,0,0,1,1.07-.13,4,4,0,0,1,1.81.3v1.11a3.22,3.22,0,0,0-1.91-.52,2.79,2.79,0,0,0-.64.07,1.69,1.69,0,0,0-.57.22,1.18,1.18,0,0,0-.41.39,1,1,0,0,0-.16.59,1.18,1.18,0,0,0,.12.55,1.41,1.41,0,0,0,.35.43,4.69,4.69,0,0,0,.57.38l.78.39c.3.15.59.31.86.47a4.36,4.36,0,0,1,.7.55,2.36,2.36,0,0,1,.49.66,1.84,1.84,0,0,1,.18.83,2,2,0,0,1-.9,1.75,2.94,2.94,0,0,1-1,.39,5.09,5.09,0,0,1-1.13.12l-.49,0q-.3,0-.6-.09a4.91,4.91,0,0,1-.58-.15A2,2,0,0,1,74.91,97.14Z"/><path class="cls-15" d="M84,97.62a2.79,2.79,0,0,1-2.13-.84,3.1,3.1,0,0,1-.79-2.23A3.22,3.22,0,0,1,82,92.19a3,3,0,0,1,2.23-.85,2.69,2.69,0,0,1,2.09.83A3.28,3.28,0,0,1,87,94.46a3.23,3.23,0,0,1-.82,2.3A2.81,2.81,0,0,1,84,97.62Zm.07-5.47a1.84,1.84,0,0,0-1.47.63,2.59,2.59,0,0,0-.54,1.74,2.46,2.46,0,0,0,.55,1.68,1.85,1.85,0,0,0,1.46.61,1.75,1.75,0,0,0,1.43-.6,2.63,2.63,0,0,0,.5-1.72,2.68,2.68,0,0,0-.5-1.73A1.73,1.73,0,0,0,84.11,92.15Z"/><path class="cls-15" d="M89.5,97.48h-1V88.6h1Z"/><path class="cls-15" d="M91.91,90a.6.6,0,0,1-.44-.18.57.57,0,0,1-.18-.44.61.61,0,0,1,.18-.45.6.6,0,0,1,.44-.18.62.62,0,0,1,.63.63.6.6,0,0,1-.18.44A.61.61,0,0,1,91.91,90Zm.47,7.52h-1v-6h1Z"/><path class="cls-15" d="M98.39,97.21a3.19,3.19,0,0,1-1.64.41,2.68,2.68,0,0,1-2.07-.83,3,3,0,0,1-.79-2.17,3.32,3.32,0,0,1,.85-2.38,3,3,0,0,1,2.27-.9,3.06,3.06,0,0,1,1.39.3v1A2.45,2.45,0,0,0,97,92.15a2,2,0,0,0-1.51.66,2.51,2.51,0,0,0-.58,1.73,2.4,2.4,0,0,0,.55,1.67,1.91,1.91,0,0,0,1.48.6,2.39,2.39,0,0,0,1.48-.52Z"/><path class="cls-15" d="M100.31,90a.6.6,0,0,1-.44-.18.57.57,0,0,1-.18-.44.61.61,0,0,1,.18-.45.6.6,0,0,1,.44-.18.62.62,0,0,1,.63.63.6.6,0,0,1-.18.44A.61.61,0,0,1,100.31,90Zm.47,7.52h-1v-6h1Z"/><path class="cls-15" d="M105.49,97.42a1.82,1.82,0,0,1-.9.19c-1,0-1.58-.58-1.58-1.76V92.3h-1v-.82h1V90l1-.31v1.77h1.52v.82H104v3.38a1.41,1.41,0,0,0,.21.87.82.82,0,0,0,.68.25,1,1,0,0,0,.63-.2Z"/><path class="cls-15" d="M111,97.48h-1v-.93h0a2,2,0,0,1-1.85,1.07,1.93,1.93,0,0,1-1.4-.47,1.65,1.65,0,0,1-.51-1.26c0-1.12.66-1.77,2-2l1.8-.25c0-1-.41-1.53-1.24-1.53a3,3,0,0,0-2,.74v-1a3.73,3.73,0,0,1,2-.56c1.41,0,2.12.75,2.12,2.24Zm-1-3-1.45.2a2.35,2.35,0,0,0-1,.33,1,1,0,0,0-.34.84.93.93,0,0,0,.32.72,1.22,1.22,0,0,0,.83.27,1.51,1.51,0,0,0,1.18-.5,1.77,1.77,0,0,0,.47-1.26Z"/><path class="cls-15" d="M116,92.46a1.2,1.2,0,0,0-.73-.2,1.25,1.25,0,0,0-1,.58,2.67,2.67,0,0,0-.41,1.58v3.06h-1v-6h1v1.24h0a2.17,2.17,0,0,1,.63-1,1.44,1.44,0,0,1,.94-.35,1.52,1.52,0,0,1,.58.08Z"/><path class="cls-15" d="M123,97.42a1.82,1.82,0,0,1-.9.19c-1.05,0-1.57-.58-1.57-1.76V92.3h-1v-.82h1V90l1-.31v1.77H123v.82h-1.51v3.38a1.49,1.49,0,0,0,.2.87.83.83,0,0,0,.68.25,1,1,0,0,0,.63-.2Z"/><path class="cls-15" d="M126.79,97.62a2.79,2.79,0,0,1-2.13-.84,3.1,3.1,0,0,1-.79-2.23,3.22,3.22,0,0,1,.83-2.36,3,3,0,0,1,2.23-.85,2.69,2.69,0,0,1,2.09.83,3.28,3.28,0,0,1,.76,2.29,3.23,3.23,0,0,1-.82,2.3A2.81,2.81,0,0,1,126.79,97.62Zm.07-5.47a1.84,1.84,0,0,0-1.47.63,2.59,2.59,0,0,0-.54,1.74,2.46,2.46,0,0,0,.55,1.68,1.85,1.85,0,0,0,1.46.61,1.75,1.75,0,0,0,1.43-.6,2.63,2.63,0,0,0,.5-1.72,2.68,2.68,0,0,0-.5-1.73A1.73,1.73,0,0,0,126.86,92.15Z"/><path class="cls-15" d="M136.27,97.48h-1.35l-2.65-2.88h0v2.88h-1V88.6h1v5.63h0l2.52-2.75h1.26l-2.78,2.9Z"/><path class="cls-15" d="M142.05,94.72h-4.24a2.28,2.28,0,0,0,.54,1.55,1.88,1.88,0,0,0,1.42.54,2.94,2.94,0,0,0,1.86-.66v.9a3.47,3.47,0,0,1-2.09.57,2.56,2.56,0,0,1-2-.81,3.39,3.39,0,0,1-.72-2.3,3.29,3.29,0,0,1,.79-2.29,2.58,2.58,0,0,1,2-.88,2.29,2.29,0,0,1,1.83.76,3.25,3.25,0,0,1,.64,2.12Zm-1-.81a2,2,0,0,0-.41-1.3,1.38,1.38,0,0,0-1.09-.46,1.54,1.54,0,0,0-1.16.49,2.15,2.15,0,0,0-.58,1.27Z"/><path class="cls-15" d="M148.46,97.48h-1V94.06c0-1.27-.47-1.91-1.4-1.91a1.52,1.52,0,0,0-1.19.54,2,2,0,0,0-.47,1.37v3.42h-1v-6h1v1h0a2.17,2.17,0,0,1,2-1.14,1.83,1.83,0,0,1,1.51.64,2.79,2.79,0,0,1,.52,1.83Z"/><path class="cls-15" d="M76.16,110h0v3.62h-1v-8.76h1v1.06h0a2.29,2.29,0,0,1,2.08-1.2,2.2,2.2,0,0,1,1.81.81,3.37,3.37,0,0,1,.65,2.16,3.76,3.76,0,0,1-.73,2.41,2.46,2.46,0,0,1-2,.9A2,2,0,0,1,76.16,110Zm0-2.42v.83a1.81,1.81,0,0,0,.48,1.27,1.73,1.73,0,0,0,2.6-.15,3.09,3.09,0,0,0,.49-1.86,2.41,2.41,0,0,0-.46-1.57,1.53,1.53,0,0,0-1.25-.57,1.73,1.73,0,0,0-1.35.58A2.16,2.16,0,0,0,76.14,107.6Z"/><path class="cls-15" d="M86.5,110.88h-1V110h0A2,2,0,0,1,83.67,111a2,2,0,0,1-1.4-.47,1.65,1.65,0,0,1-.51-1.26c0-1.12.66-1.77,2-2l1.8-.25q0-1.53-1.23-1.53a3,3,0,0,0-2,.74v-1a3.68,3.68,0,0,1,2-.57c1.41,0,2.11.75,2.11,2.24Zm-1-3-1.44.2a2.25,2.25,0,0,0-1,.33,1,1,0,0,0-.34.84.92.92,0,0,0,.31.72,1.25,1.25,0,0,0,.84.28,1.54,1.54,0,0,0,1.18-.51,1.76,1.76,0,0,0,.46-1.26Z"/><path class="cls-15" d="M91.42,105.86a1.18,1.18,0,0,0-.73-.2,1.25,1.25,0,0,0-1,.58,2.74,2.74,0,0,0-.41,1.58v3.06h-1v-6h1v1.24h0a2.17,2.17,0,0,1,.63-1,1.47,1.47,0,0,1,.95-.35,1.65,1.65,0,0,1,.57.08Z"/><path class="cls-15" d="M96.73,110.88h-1V110h0A2,2,0,0,1,93.9,111a2,2,0,0,1-1.4-.47,1.65,1.65,0,0,1-.51-1.26c0-1.12.66-1.77,2-2l1.8-.25q0-1.53-1.23-1.53a3,3,0,0,0-2,.74v-1a3.68,3.68,0,0,1,2-.57c1.41,0,2.11.75,2.11,2.24Zm-1-3-1.44.2a2.25,2.25,0,0,0-1,.33,1,1,0,0,0-.34.84.92.92,0,0,0,.31.72,1.25,1.25,0,0,0,.84.28,1.54,1.54,0,0,0,1.18-.51,1.76,1.76,0,0,0,.46-1.26Z"/><path class="cls-15" d="M106.08,110.88h-1V110h0a2,2,0,0,1-1.84,1.07,2,2,0,0,1-1.41-.47,1.68,1.68,0,0,1-.5-1.26c0-1.12.66-1.77,2-2l1.8-.25c0-1-.42-1.53-1.24-1.53a3,3,0,0,0-2,.74v-1a3.68,3.68,0,0,1,2-.57c1.41,0,2.12.75,2.12,2.24Zm-1-3-1.45.2a2.3,2.3,0,0,0-1,.33,1,1,0,0,0-.34.84.93.93,0,0,0,.32.72,1.21,1.21,0,0,0,.83.28,1.52,1.52,0,0,0,1.18-.51,1.77,1.77,0,0,0,.47-1.26Z"/><path class="cls-15" d="M108.85,110h0v3.62h-1v-8.76h1v1.06h0a2.26,2.26,0,0,1,2.07-1.2,2.18,2.18,0,0,1,1.81.81,3.31,3.31,0,0,1,.65,2.16,3.71,3.71,0,0,1-.73,2.41,2.44,2.44,0,0,1-2,.9A2,2,0,0,1,108.85,110Zm0-2.42v.83a1.81,1.81,0,0,0,.48,1.27,1.72,1.72,0,0,0,2.59-.15,3.09,3.09,0,0,0,.5-1.86,2.41,2.41,0,0,0-.46-1.57,1.54,1.54,0,0,0-1.26-.57,1.73,1.73,0,0,0-1.35.58A2.2,2.2,0,0,0,108.83,107.6Z"/><path class="cls-15" d="M115.86,110.88h-1V102h1Z"/><path class="cls-15" d="M118.27,103.36a.6.6,0,0,1-.44-.18.57.57,0,0,1-.18-.44.61.61,0,0,1,.18-.45.6.6,0,0,1,.44-.18.63.63,0,0,1,.45.18.61.61,0,0,1,.18.45.6.6,0,0,1-.18.44A.63.63,0,0,1,118.27,103.36Zm.47,7.52h-1v-6h1Z"/><path class="cls-15" d="M124.75,110.61a3.1,3.1,0,0,1-1.64.41,2.68,2.68,0,0,1-2.07-.83,3,3,0,0,1-.79-2.17,3.32,3.32,0,0,1,.85-2.38,3,3,0,0,1,2.27-.9,3.09,3.09,0,0,1,1.39.3v1a2.45,2.45,0,0,0-1.43-.47,2,2,0,0,0-1.51.66,2.52,2.52,0,0,0-.59,1.73,2.39,2.39,0,0,0,.56,1.67,1.92,1.92,0,0,0,1.48.61,2.4,2.4,0,0,0,1.48-.53Z"/><path class="cls-15" d="M130.47,110.88h-1V110h0a2,2,0,0,1-1.85,1.07,2,2,0,0,1-1.4-.47,1.65,1.65,0,0,1-.51-1.26c0-1.12.66-1.77,2-2l1.8-.25q0-1.53-1.23-1.53a3,3,0,0,0-2,.74v-1a3.68,3.68,0,0,1,2-.57c1.41,0,2.11.75,2.11,2.24Zm-1-3-1.45.2a2.25,2.25,0,0,0-1,.33,1,1,0,0,0-.34.84.92.92,0,0,0,.31.72,1.25,1.25,0,0,0,.84.28,1.54,1.54,0,0,0,1.18-.51,1.76,1.76,0,0,0,.46-1.26Z"/><path class="cls-15" d="M136.35,110.61a3.1,3.1,0,0,1-1.64.41,2.68,2.68,0,0,1-2.07-.83,3,3,0,0,1-.79-2.17,3.32,3.32,0,0,1,.85-2.38,3,3,0,0,1,2.27-.9,3.09,3.09,0,0,1,1.39.3v1a2.45,2.45,0,0,0-1.43-.47,2,2,0,0,0-1.51.66,2.52,2.52,0,0,0-.59,1.73,2.39,2.39,0,0,0,.56,1.67,1.92,1.92,0,0,0,1.48.61,2.4,2.4,0,0,0,1.48-.53Z"/><path class="cls-15" d="M138.27,103.36a.6.6,0,0,1-.44-.18.57.57,0,0,1-.18-.44.61.61,0,0,1,.18-.45.6.6,0,0,1,.44-.18.62.62,0,0,1,.63.63.6.6,0,0,1-.18.44A.61.61,0,0,1,138.27,103.36Zm.47,7.52h-1v-6h1Z"/><path class="cls-15" d="M143.17,111a2.79,2.79,0,0,1-2.13-.84,3.15,3.15,0,0,1-.79-2.23,3.26,3.26,0,0,1,.83-2.36,3,3,0,0,1,2.23-.85,2.69,2.69,0,0,1,2.09.83,3.75,3.75,0,0,1-.05,4.59A2.85,2.85,0,0,1,143.17,111Zm.07-5.47a1.84,1.84,0,0,0-1.47.63,2.64,2.64,0,0,0-.53,1.74,2.46,2.46,0,0,0,.54,1.68,1.85,1.85,0,0,0,1.46.62,1.76,1.76,0,0,0,1.43-.61,2.57,2.57,0,0,0,.5-1.71,2.65,2.65,0,0,0-.5-1.74A1.73,1.73,0,0,0,143.24,105.55Zm1.41-3.73-1.54,1.93h-.74l1.3-1.93Z"/><path class="cls-15" d="M152.65,110.88h-1v-3.42c0-1.27-.47-1.91-1.4-1.91a1.52,1.52,0,0,0-1.19.54,2,2,0,0,0-.47,1.37v3.42h-1v-6h1v1h0a2.17,2.17,0,0,1,2-1.14,1.83,1.83,0,0,1,1.51.64,2.8,2.8,0,0,1,.52,1.84Z"/><path class="cls-16" d="M235.7,242h-4.45v-8.4h4.27v.89h-3.28v2.8h3v.88h-3v2.94h3.46Z"/><path class="cls-16" d="M242.17,242h-1v-3.42c0-1.27-.46-1.91-1.39-1.91a1.5,1.5,0,0,0-1.19.54,2,2,0,0,0-.48,1.37V242h-1v-6h1v1h0a2.16,2.16,0,0,1,2-1.14,1.82,1.82,0,0,1,1.5.64,2.79,2.79,0,0,1,.52,1.83Z"/><path class="cls-16" d="M246.77,241.92a1.82,1.82,0,0,1-.9.19c-1.05,0-1.58-.58-1.58-1.76V236.8h-1V236h1v-1.46l1-.31V236h1.52v.82h-1.52v3.38a1.35,1.35,0,0,0,.21.86.8.8,0,0,0,.68.26,1,1,0,0,0,.63-.2Z"/><path class="cls-16" d="M248.54,234.46a.6.6,0,0,1-.44-.18.57.57,0,0,1-.18-.44.61.61,0,0,1,.18-.45.6.6,0,0,1,.44-.18.62.62,0,0,1,.63.63.6.6,0,0,1-.18.44A.61.61,0,0,1,248.54,234.46ZM249,242h-1v-6h1Z"/><path class="cls-16" d="M256.08,242h-1v-1h0a2.2,2.2,0,0,1-2.06,1.16,2.27,2.27,0,0,1-1.81-.8,3.32,3.32,0,0,1-.67-2.2,3.59,3.59,0,0,1,.75-2.38,2.46,2.46,0,0,1,2-.9,1.93,1.93,0,0,1,1.8,1h0V233.1h1Zm-1-2.71v-.89a1.73,1.73,0,0,0-.48-1.23,1.64,1.64,0,0,0-1.22-.5,1.7,1.7,0,0,0-1.39.64,2.88,2.88,0,0,0-.5,1.79,2.53,2.53,0,0,0,.48,1.63,1.6,1.6,0,0,0,1.3.6,1.65,1.65,0,0,0,1.31-.58A2.16,2.16,0,0,0,255.12,239.27Z"/><path class="cls-16" d="M262.32,242h-1V241h0a2.2,2.2,0,0,1-3.25.61,1.68,1.68,0,0,1-.5-1.26c0-1.12.66-1.77,2-2l1.8-.25c0-1-.42-1.53-1.24-1.53a3,3,0,0,0-2,.74v-1a3.76,3.76,0,0,1,2-.56c1.41,0,2.12.75,2.12,2.24Zm-1-3-1.45.2a2.3,2.3,0,0,0-1,.33,1,1,0,0,0-.34.84.93.93,0,0,0,.32.72,1.2,1.2,0,0,0,.83.27,1.51,1.51,0,0,0,1.18-.5,1.78,1.78,0,0,0,.47-1.27Z"/><path class="cls-16" d="M269.25,242h-1v-1h0a2.2,2.2,0,0,1-2.06,1.16,2.28,2.28,0,0,1-1.81-.8,3.32,3.32,0,0,1-.67-2.2,3.59,3.59,0,0,1,.75-2.38,2.46,2.46,0,0,1,2-.9,1.92,1.92,0,0,1,1.79,1h0V233.1h1Zm-1-2.71v-.89a1.73,1.73,0,0,0-.48-1.23,1.64,1.64,0,0,0-1.22-.5,1.66,1.66,0,0,0-1.38.64,2.82,2.82,0,0,0-.51,1.79,2.48,2.48,0,0,0,.49,1.63,1.57,1.57,0,0,0,1.29.6,1.65,1.65,0,0,0,1.31-.58A2.16,2.16,0,0,0,268.29,239.27Z"/><path class="cls-16" d="M279.6,242h-1v-1h0a2.21,2.21,0,0,1-2.06,1.16,2.25,2.25,0,0,1-1.81-.8,3.33,3.33,0,0,1-.68-2.2,3.59,3.59,0,0,1,.75-2.38,2.48,2.48,0,0,1,2-.9,2,2,0,0,1,1.8,1h0V233.1h1Zm-1-2.71v-.89a1.73,1.73,0,0,0-.48-1.23,1.64,1.64,0,0,0-1.22-.5,1.69,1.69,0,0,0-1.38.64,2.82,2.82,0,0,0-.5,1.79,2.53,2.53,0,0,0,.48,1.63,1.57,1.57,0,0,0,1.3.6,1.63,1.63,0,0,0,1.3-.58A2.16,2.16,0,0,0,278.64,239.27Z"/><path class="cls-16" d="M286.37,239.22h-4.24a2.28,2.28,0,0,0,.54,1.55,1.88,1.88,0,0,0,1.42.54,2.94,2.94,0,0,0,1.86-.66v.9a3.47,3.47,0,0,1-2.09.57,2.56,2.56,0,0,1-2-.81,3.39,3.39,0,0,1-.72-2.3,3.29,3.29,0,0,1,.79-2.29,2.58,2.58,0,0,1,2-.88,2.29,2.29,0,0,1,1.83.76,3.19,3.19,0,0,1,.64,2.12Zm-1-.81a2,2,0,0,0-.41-1.3,1.35,1.35,0,0,0-1.09-.46,1.54,1.54,0,0,0-1.16.49,2.18,2.18,0,0,0-.58,1.27Z"/><path class="cls-16" d="M239.27,255.17v-1a2.84,2.84,0,0,0,1.73.58c.84,0,1.27-.28,1.27-.84a.78.78,0,0,0-.11-.41,1,1,0,0,0-.29-.29,1.83,1.83,0,0,0-.44-.23l-.53-.22a5.16,5.16,0,0,1-.7-.32,2,2,0,0,1-.51-.36,1.41,1.41,0,0,1-.3-.46,1.57,1.57,0,0,1-.11-.6,1.45,1.45,0,0,1,.2-.75,1.78,1.78,0,0,1,.51-.55,2.77,2.77,0,0,1,.74-.33,3.41,3.41,0,0,1,.85-.11,3.46,3.46,0,0,1,1.4.27v1a2.82,2.82,0,0,0-1.53-.43,1.75,1.75,0,0,0-.48.06,1.11,1.11,0,0,0-.38.18.85.85,0,0,0-.24.26.81.81,0,0,0-.08.34,1,1,0,0,0,.08.4.94.94,0,0,0,.25.28,2.11,2.11,0,0,0,.4.22l.53.22a6.21,6.21,0,0,1,.72.31,2.82,2.82,0,0,1,.54.36,1.41,1.41,0,0,1,.34.47,1.54,1.54,0,0,1,.12.63,1.41,1.41,0,0,1-.2.77,1.7,1.7,0,0,1-.52.55,2.49,2.49,0,0,1-.76.32,3.68,3.68,0,0,1-.89.1A3.54,3.54,0,0,1,239.27,255.17Z"/><path class="cls-16" d="M249.55,252.62h-4.24a2.28,2.28,0,0,0,.54,1.55,1.88,1.88,0,0,0,1.42.54,2.94,2.94,0,0,0,1.86-.66v.9a3.47,3.47,0,0,1-2.09.57,2.56,2.56,0,0,1-2-.81,3.39,3.39,0,0,1-.72-2.3,3.29,3.29,0,0,1,.79-2.29,2.58,2.58,0,0,1,2-.88,2.29,2.29,0,0,1,1.83.76,3.25,3.25,0,0,1,.64,2.12Zm-1-.81a2,2,0,0,0-.41-1.3,1.38,1.38,0,0,0-1.09-.46,1.54,1.54,0,0,0-1.16.49,2.15,2.15,0,0,0-.58,1.27Z"/><path class="cls-16" d="M254.13,250.36a1.16,1.16,0,0,0-.72-.2,1.24,1.24,0,0,0-1,.58,2.67,2.67,0,0,0-.42,1.58v3.06h-1v-6h1v1.24h0a2.08,2.08,0,0,1,.62-1,1.49,1.49,0,0,1,.95-.35,1.44,1.44,0,0,1,.57.08Z"/><path class="cls-16" d="M259.89,249.38l-2.39,6h-.94l-2.28-6h1.06l1.52,4.36a3.21,3.21,0,0,1,.21.84h0a4.41,4.41,0,0,1,.18-.81l1.6-4.39Z"/><path class="cls-16" d="M261.42,247.86a.59.59,0,0,1-.44-.18.55.55,0,0,1-.19-.44.63.63,0,0,1,.63-.63.6.6,0,0,1,.44.18.58.58,0,0,1,.19.45.58.58,0,0,1-.19.44A.6.6,0,0,1,261.42,247.86Zm.46,7.52h-1v-6h1Z"/><path class="cls-16" d="M267.92,255.11a3.19,3.19,0,0,1-1.64.41,2.68,2.68,0,0,1-2.07-.83,3,3,0,0,1-.79-2.17,3.32,3.32,0,0,1,.85-2.38,3,3,0,0,1,2.27-.9,3.09,3.09,0,0,1,1.39.3v1a2.45,2.45,0,0,0-1.43-.47,1.93,1.93,0,0,0-1.51.66,2.52,2.52,0,0,0-.59,1.73,2.41,2.41,0,0,0,.56,1.67,1.91,1.91,0,0,0,1.48.6,2.39,2.39,0,0,0,1.48-.52Z"/><path class="cls-16" d="M269.86,247.86a.62.62,0,0,1-.44-.18.57.57,0,0,1-.18-.44.61.61,0,0,1,.18-.45.62.62,0,0,1,.44-.18.61.61,0,0,1,.45.18.58.58,0,0,1,.19.45.58.58,0,0,1-.19.44A.61.61,0,0,1,269.86,247.86Zm.47,7.52h-1v-6h1Z"/><path class="cls-16" d="M274.79,255.52a2.79,2.79,0,0,1-2.13-.84,3.1,3.1,0,0,1-.79-2.23,3.26,3.26,0,0,1,.82-2.36,3,3,0,0,1,2.24-.85,2.69,2.69,0,0,1,2.09.83,3.27,3.27,0,0,1,.75,2.29,3.23,3.23,0,0,1-.81,2.3A2.81,2.81,0,0,1,274.79,255.52Zm.07-5.47a1.84,1.84,0,0,0-1.47.63,2.59,2.59,0,0,0-.54,1.74,2.41,2.41,0,0,0,.55,1.68,1.85,1.85,0,0,0,1.46.61,1.75,1.75,0,0,0,1.43-.6,2.63,2.63,0,0,0,.5-1.72,2.68,2.68,0,0,0-.5-1.73A1.73,1.73,0,0,0,274.86,250.05Z"/></g></svg>