<svg xmlns="http://www.w3.org/2000/svg" xmlns:xlink="http://www.w3.org/1999/xlink" viewBox="0 0 475.66 151.37"><defs><style>.cls-1{fill:#505050;}.cls-13,.cls-2{fill:#fff;}.cls-10,.cls-3{fill:#ebebeb;}.cls-14,.cls-4{fill:#0072c6;}.cls-5{fill:#d2d2d2;}.cls-6{fill:#1a1a1f;}.cls-7{fill:#009ee1;}.cls-8{fill:#0078db;}.cls-9{fill:none;}.cls-10,.cls-11,.cls-9{stroke:#000;}.cls-10,.cls-11,.cls-12,.cls-13,.cls-14,.cls-9{stroke-miterlimit:10;}.cls-10{stroke-width:0.75px;}.cls-11,.cls-13,.cls-14{stroke-width:0.05px;}.cls-12{fill:#1e1e1e;stroke:#1e1e1e;stroke-width:0.06px;}.cls-13{stroke:#fff;}.cls-14{stroke:#0072c6;}</style><symbol id="New_Symbol_44" data-name="New Symbol 44" viewBox="0 0 20 20"><circle class="cls-1" cx="10" cy="10" r="10"/><path class="cls-2" d="M12,14V8.58h1.25V7.45H12V5.6H10.65V7.42H6.85V8.56q.51.58,1.05,1.26a12.66,12.66,0,0,1,1,1.38c.29.47.64.94.93,1.41A13,13,0,0,1,10.55,14ZM10.65,8.58v3.5a19.76,19.76,0,0,0-1.26-2C9,9.51,8.58,9,8.22,8.56Z"/></symbol><symbol id="New_Symbol_43" data-name="New Symbol 43" viewBox="0 0 20 20"><circle class="cls-1" cx="10" cy="10" r="10"/><path class="cls-2" d="M7.39,5.88V7.16a3,3,0,0,1,1.85-.65,2.19,2.19,0,0,1,1.34.38,1.23,1.23,0,0,1,.5,1c0,1-.73,1.43-2.18,1.43H8.24v1.12h.63c1.29,0,1.94.45,1.94,1.35S10.3,13,9.29,13a2.48,2.48,0,0,1-1.58-.6v1.23a4.08,4.08,0,0,0,2,.48,2.64,2.64,0,0,0,1.79-.56,1.76,1.76,0,0,0,.67-1.44A2,2,0,0,0,10.5,10h0a2.19,2.19,0,0,0,1.43-.63A1.89,1.89,0,0,0,12.5,8a2.22,2.22,0,0,0-.85-1.82,3.4,3.4,0,0,0-2.24-.7A3.84,3.84,0,0,0,7.39,5.88Z"/></symbol><symbol id="New_Symbol_42" data-name="New Symbol 42" viewBox="0 0 20 20"><circle class="cls-1" cx="10" cy="10" r="10"/><path class="cls-2" d="M12.5,5.57H7.24v.65A2.58,2.58,0,0,0,7.35,7a3.93,3.93,0,0,0,.3.66,4.92,4.92,0,0,0,.44.58c.17.18.35.35.54.52l.59.5c.2.15.39.31.58.47s.35.3.5.45a4.11,4.11,0,0,1,.38.45,2.55,2.55,0,0,1,.24.5,1.84,1.84,0,0,1,.09.57,1.42,1.42,0,0,1-.1.58,1.33,1.33,0,0,1-.29.41,1.17,1.17,0,0,1-.44.26,2.05,2.05,0,0,1-.55.05,2.73,2.73,0,0,1-1.05-.24,3.75,3.75,0,0,1-1-.72v1.31a2.85,2.85,0,0,0,.52.33,2.7,2.7,0,0,0,.55.24,3,3,0,0,0,.59.15,3.64,3.64,0,0,0,.66,0,3.77,3.77,0,0,0,1-.14,2.2,2.2,0,0,0,.79-.44,2,2,0,0,0,.51-.73,2.46,2.46,0,0,0,.18-1,2.88,2.88,0,0,0-.13-.92,2.65,2.65,0,0,0-.36-.76,4,4,0,0,0-.56-.67c-.21-.21-.46-.43-.73-.65l-.67-.53c-.23-.18-.43-.35-.61-.51a3.5,3.5,0,0,1-.44-.5.9.9,0,0,1-.16-.5H12.5Z"/></symbol><symbol id="New_Symbol_41" data-name="New Symbol 41" viewBox="0 0 20 20"><circle class="cls-1" cx="10" cy="10" r="10"/><path class="cls-2" d="M11.19,14.16V5.57H9.83V12.5A4.06,4.06,0,0,0,9,12a9,9,0,0,0-1-.33v1.21l.65.24.63.27.62.34c.21.13.42.27.64.43Z"/></symbol></defs><title>OJ104329343</title><g id="bg"><g id="Shapes"><rect class="cls-2" width="475.66" height="151.37"/><rect class="cls-3" y="0.74" width="105" height="150"/><rect class="cls-4" x="371" y="0.74" width="104.66" height="90"/><rect class="cls-5" x="371" y="95.74" width="104.66" height="55"/><path class="cls-6" d="M18.54,29.21a1.53,1.53,0,0,1,1.52-1.54H83a1.54,1.54,0,0,1,1.53,1.54v37.2A1.55,1.55,0,0,1,83,67.94H20.07a1.54,1.54,0,0,1-1.53-1.53Zm-3.47-1.79V68.11a3.29,3.29,0,0,0,3.28,3.3H84.68A3.29,3.29,0,0,0,88,68.15V27.42a3.28,3.28,0,0,0-3.27-3.29H18.35a3.28,3.28,0,0,0-3.28,3.28Z"/><path class="cls-6" d="M12.39,74.91H90.64a.87.87,0,0,1,.87.87h0v2.57a.87.87,0,0,1-.86.88H12.39a.87.87,0,0,1-.88-.86V75.78a.87.87,0,0,1,.87-.87Z"/><path class="cls-2" d="M42.59,76.44H60.44a.26.26,0,0,1,.25.26v.74a.25.25,0,0,1-.25.25H42.59a.25.25,0,0,1-.25-.25V76.7A.26.26,0,0,1,42.59,76.44Z"/><path class="cls-7" d="M58.39,51.55l.69-1.64-.2-.17-1.51-1.31V47.1l1.71-1.53-.67-1.65h-.26l-2,.14-.94-.94.13-2.29-1.64-.69-.18.2-1.31,1.51H50.88l-1.52-1.7-1.65.67v.26l.14,2-1,.94-2.28-.13L44,45.54l.2.17L45.66,47v1.33L44,49.88l.67,1.65h.26l2-.14.93,1-.12,2.28,1.64.69.17-.2,1.31-1.51h1.33l1.53,1.7,1.65-.67v-.26l-.14-2,1-.93Zm-8.29-.47a3.64,3.64,0,1,1,4.77-1.94h0a3.65,3.65,0,0,1-4.77,1.94h0"/><path class="cls-7" d="M51.51,65A17.32,17.32,0,1,1,68.83,47.68v0A17.3,17.3,0,0,1,51.51,65Zm0-30.45A13.14,13.14,0,1,0,64.65,47.73,13.14,13.14,0,0,0,51.51,34.55h0Z"/><path class="cls-7" d="M51.51,65A17.32,17.32,0,1,1,68.83,47.68v0A17.3,17.3,0,0,1,51.51,65Zm0-30.45A13.14,13.14,0,1,0,64.65,47.73,13.14,13.14,0,0,0,51.51,34.55h0Z"/><path class="cls-7" d="M51.51,65A17.32,17.32,0,1,1,68.83,47.68v0A17.3,17.3,0,0,1,51.51,65Zm0-30.45A13.14,13.14,0,1,0,64.65,47.73,13.14,13.14,0,0,0,51.51,34.55h0Z"/><path class="cls-8" d="M51.51,65.88A18.15,18.15,0,1,1,69.67,47.73,18.16,18.16,0,0,1,51.51,65.88Zm0-35.61A17.46,17.46,0,1,0,69,47.73,17.46,17.46,0,0,0,51.51,30.27Z"/><path class="cls-8" d="M51.51,65.88A18.15,18.15,0,1,1,69.67,47.73,18.16,18.16,0,0,1,51.51,65.88Zm0-35.61A17.46,17.46,0,1,0,69,47.73,17.46,17.46,0,0,0,51.51,30.27Z"/><path class="cls-8" d="M51.51,66.23A18.5,18.5,0,1,1,70,47.72h0A18.51,18.51,0,0,1,51.51,66.23Zm0-35.61A17.11,17.11,0,1,0,68.62,47.73,17.11,17.11,0,0,0,51.51,30.62Z"/><line class="cls-9" x1="104.91" y1="14.57" x2="365.49" y2="14.57"/><polygon points="364.39 18.31 370.87 14.57 364.39 10.83 364.39 18.31"/><line class="cls-9" x1="110.29" y1="44.45" x2="370.87" y2="44.45"/><polygon points="111.39 48.19 104.91 44.45 111.39 40.71 111.39 48.19"/><line class="cls-9" x1="104.91" y1="103.88" x2="365.49" y2="103.88"/><polygon points="364.39 107.62 370.87 103.88 364.39 100.14 364.39 107.62"/><line class="cls-9" x1="110.34" y1="140.04" x2="370.91" y2="140.04"/><polygon points="111.43 143.78 104.96 140.04 111.43 136.3 111.43 143.78"/><use width="20" height="20" transform="matrix(1, 0, 0, -1, 154.14, 149.57)" xlink:href="#New_Symbol_44"/><use width="20" height="20" transform="matrix(1, 0, 0, -1, 154.14, 113.88)" xlink:href="#New_Symbol_43"/><use width="20" height="20" transform="matrix(1, 0, 0, -1, 154.14, 54.45)" xlink:href="#New_Symbol_42"/><use width="20" height="20" transform="matrix(1, 0, 0, -1, 154.14, 24.57)" xlink:href="#New_Symbol_41"/><polygon class="cls-10" points="187.08 26.58 179.53 32.02 182.41 40.83 191.75 40.83 194.64 32.02 187.08 26.58"/></g><g id="Text"><polygon class="cls-10" points="187.08 85.13 179.53 90.58 182.41 99.38 191.75 99.38 194.64 90.58 187.08 85.13"/></g></g><g id="txt"><path class="cls-11" d="M23.17,99.25H21.11l-.6-1.87h-3l-.59,1.87h-2l3.06-8.4h2.24Zm-3.09-3.32-.91-2.82a4.51,4.51,0,0,1-.14-.76h0a3.06,3.06,0,0,1-.15.73l-.91,2.85Z"/><path class="cls-11" d="M25.91,98.56h0V102H24V93.25h1.85v.91h0a2.18,2.18,0,0,1,1.93-1,2.14,2.14,0,0,1,1.8.8,3.36,3.36,0,0,1,.64,2.17,3.71,3.71,0,0,1-.74,2.41,2.42,2.42,0,0,1-2,.91A1.87,1.87,0,0,1,25.91,98.56Zm-.05-2.47v.49a1.52,1.52,0,0,0,.33,1,1.06,1.06,0,0,0,.86.39,1.12,1.12,0,0,0,1-.49,2.36,2.36,0,0,0,.35-1.38q0-1.59-1.23-1.59a1.16,1.16,0,0,0-.93.44A1.68,1.68,0,0,0,25.86,96.09Z"/><path class="cls-11" d="M33.33,99.25H31.48V90.37h1.85Z"/><path class="cls-11" d="M35.83,92.3a1.1,1.1,0,0,1-.77-.27.92.92,0,0,1-.3-.69.88.88,0,0,1,.3-.68,1.14,1.14,0,0,1,.77-.26,1.16,1.16,0,0,1,.77.26,1,1,0,0,1,0,1.37A1.11,1.11,0,0,1,35.83,92.3Zm.91,7H34.89v-6h1.85Z"/><path class="cls-11" d="M42.85,99A3.72,3.72,0,0,1,41,99.4a3,3,0,0,1-2.24-.84,2.9,2.9,0,0,1-.86-2.16A3.19,3.19,0,0,1,38.86,94a3.38,3.38,0,0,1,2.45-.88,3.14,3.14,0,0,1,1.54.28V95a2.13,2.13,0,0,0-1.3-.44,1.71,1.71,0,0,0-1.26.47,1.75,1.75,0,0,0-.47,1.29,1.71,1.71,0,0,0,.45,1.25,1.62,1.62,0,0,0,1.22.45,2.47,2.47,0,0,0,1.36-.43Z"/><path class="cls-11" d="M49.05,99.25H47.3v-.86h0a2,2,0,0,1-1.79,1,1.9,1.9,0,0,1-1.38-.5,1.79,1.79,0,0,1-.5-1.32q0-1.74,2.07-2l1.63-.22c0-.66-.35-1-1.07-1a3.65,3.65,0,0,0-2,.63V93.61a4.57,4.57,0,0,1,1-.35,5.7,5.7,0,0,1,1.22-.15,2.26,2.26,0,0,1,2.57,2.56Zm-1.74-2.43v-.41l-1.09.14c-.6.08-.9.35-.9.82a.64.64,0,0,0,.22.51.82.82,0,0,0,.59.21,1.1,1.1,0,0,0,.85-.36A1.31,1.31,0,0,0,47.31,96.82Z"/><path class="cls-11" d="M55.06,99a3.66,3.66,0,0,1-1.81.36A3.06,3.06,0,0,1,51,98.56a2.89,2.89,0,0,1-.85-2.16A3.16,3.16,0,0,1,51.08,94a3.36,3.36,0,0,1,2.45-.88,3.1,3.1,0,0,1,1.53.28V95a2.1,2.1,0,0,0-1.29-.44A1.62,1.62,0,0,0,52,96.28a1.75,1.75,0,0,0,.44,1.25,1.66,1.66,0,0,0,1.23.45,2.42,2.42,0,0,0,1.35-.43Z"/><path class="cls-11" d="M57.21,92.3a1.09,1.09,0,0,1-.76-.27.92.92,0,0,1-.3-.69.88.88,0,0,1,.3-.68,1.26,1.26,0,0,1,1.53,0A.93.93,0,0,1,58,92,1.08,1.08,0,0,1,57.21,92.3Zm.92,7H56.28v-6h1.85Z"/><path class="cls-11" d="M62.55,99.4a3.23,3.23,0,0,1-2.36-.84,3,3,0,0,1-.86-2.28A3.05,3.05,0,0,1,60.22,94a3.37,3.37,0,0,1,2.41-.84A3.19,3.19,0,0,1,65,94a3,3,0,0,1,.85,2.22,3.15,3.15,0,0,1-.88,2.36A3.23,3.23,0,0,1,62.55,99.4Zm0-4.88a1.21,1.21,0,0,0-1,.46,2,2,0,0,0-.36,1.27c0,1.16.46,1.73,1.39,1.73s1.33-.59,1.33-1.77S63.49,94.52,62.59,94.52Zm2-4.11L62.74,92.3H61.41l1.52-1.89Z"/><path class="cls-11" d="M72.81,99.25H71V95.92c0-.93-.34-1.4-1-1.4a1,1,0,0,0-.79.37,1.4,1.4,0,0,0-.31.94v3.42H67v-6h1.85v1h0a2.12,2.12,0,0,1,1.93-1.09c1.33,0,2,.82,2,2.47Z"/><path class="cls-11" d="M83.46,99.25H81.61v-.82h0a2.06,2.06,0,0,1-1.85,1,2.32,2.32,0,0,1-1.82-.79,3.33,3.33,0,0,1-.68-2.22A3.62,3.62,0,0,1,78,94a2.51,2.51,0,0,1,2-.89,1.66,1.66,0,0,1,1.61.83h0V90.37h1.85Zm-1.82-2.92v-.45a1.4,1.4,0,0,0-.34-1,1.19,1.19,0,0,0-1.84.1,2.22,2.22,0,0,0-.35,1.32,2,2,0,0,0,.33,1.22,1.19,1.19,0,0,0,1.85,0A1.92,1.92,0,0,0,81.64,96.33Z"/><path class="cls-11" d="M90.41,96.78H86.49c.07.87.61,1.31,1.65,1.31a3.24,3.24,0,0,0,1.74-.47V99a4.56,4.56,0,0,1-2.16.45,2.79,2.79,0,0,1-3.06-3.05A3.2,3.2,0,0,1,85.53,94a2.87,2.87,0,0,1,2.13-.87,2.63,2.63,0,0,1,2,.78A3,3,0,0,1,90.41,96Zm-1.72-1.14c0-.86-.35-1.29-1-1.29a1,1,0,0,0-.77.37,1.72,1.72,0,0,0-.4.92Z"/><path class="cls-11" d="M32.3,111.18H28.39c.06.87.61,1.31,1.64,1.31a3.24,3.24,0,0,0,1.74-.47v1.33a4.5,4.5,0,0,1-2.16.45,2.79,2.79,0,0,1-3.06-3,3.2,3.2,0,0,1,.87-2.37,2.9,2.9,0,0,1,2.13-.87,2.62,2.62,0,0,1,2,.78,3,3,0,0,1,.72,2.11ZM30.58,110c0-.86-.35-1.29-1-1.29a1,1,0,0,0-.77.37,1.72,1.72,0,0,0-.4.92Z"/><path class="cls-11" d="M33,113.5V112a4.06,4.06,0,0,0,.91.41,3,3,0,0,0,.86.13,1.81,1.81,0,0,0,.77-.13.44.44,0,0,0,.29-.41.38.38,0,0,0-.13-.3,1.32,1.32,0,0,0-.33-.2l-.44-.16-.47-.16a4.68,4.68,0,0,1-.63-.29,1.62,1.62,0,0,1-.45-.36,1.42,1.42,0,0,1-.29-.47,2.06,2.06,0,0,1-.09-.64,1.61,1.61,0,0,1,.22-.87,1.72,1.72,0,0,1,.58-.59,2.6,2.6,0,0,1,.84-.34,4,4,0,0,1,1-.11,5.52,5.52,0,0,1,.81.06,5.58,5.58,0,0,1,.81.18v1.43a2.76,2.76,0,0,0-.75-.31,3.11,3.11,0,0,0-.79-.1,1.79,1.79,0,0,0-.34,0,1.1,1.1,0,0,0-.29.09.6.6,0,0,0-.19.16.36.36,0,0,0-.07.22.4.4,0,0,0,.1.28.84.84,0,0,0,.28.2,2.72,2.72,0,0,0,.38.16L36,110a4.65,4.65,0,0,1,.67.29,2.18,2.18,0,0,1,.51.35,1.58,1.58,0,0,1,.33.48,1.69,1.69,0,0,1,.11.66,1.67,1.67,0,0,1-.23.91,1.9,1.9,0,0,1-.61.62,3,3,0,0,1-.89.34,5,5,0,0,1-1,.11A5.4,5.4,0,0,1,33,113.5Z"/><path class="cls-11" d="M43.23,113.44a3.69,3.69,0,0,1-1.81.36,3,3,0,0,1-2.24-.84,2.9,2.9,0,0,1-.86-2.16,3.19,3.19,0,0,1,.92-2.41,3.38,3.38,0,0,1,2.45-.88,3.14,3.14,0,0,1,1.54.28v1.57a2.13,2.13,0,0,0-1.3-.44,1.71,1.71,0,0,0-1.26.47,1.75,1.75,0,0,0-.47,1.29,1.69,1.69,0,0,0,.45,1.25,1.64,1.64,0,0,0,1.22.45,2.45,2.45,0,0,0,1.36-.43Z"/><path class="cls-11" d="M48.35,109.32a1.61,1.61,0,0,0-.78-.18,1.14,1.14,0,0,0-.94.44,1.93,1.93,0,0,0-.34,1.21v2.86H44.44v-6h1.85v1.12h0a1.61,1.61,0,0,1,1.59-1.22,1.12,1.12,0,0,1,.45.07Z"/><path class="cls-11" d="M50.2,106.7a1.11,1.11,0,0,1-.77-.27.92.92,0,0,1-.3-.69.88.88,0,0,1,.3-.68,1.16,1.16,0,0,1,.77-.26,1.14,1.14,0,0,1,.77.26.93.93,0,0,1,0,1.37A1.1,1.1,0,0,1,50.2,106.7Zm.91,7H49.26v-6h1.85Z"/><path class="cls-11" d="M56.3,113.58a2.67,2.67,0,0,1-1.24.22c-1.3,0-2-.68-2-2V109h-1v-1.37h1v-1.29l1.84-.53v1.82H56.3V109H55v2.42c0,.63.25.94.75.94a1.19,1.19,0,0,0,.6-.17Z"/><path class="cls-11" d="M60.15,113.8A3.2,3.2,0,0,1,57.8,113a3.47,3.47,0,0,1,0-4.61,3.37,3.37,0,0,1,2.41-.84,3.19,3.19,0,0,1,2.34.84,3,3,0,0,1,.85,2.22,3.15,3.15,0,0,1-.88,2.36A3.24,3.24,0,0,1,60.15,113.8Zm.05-4.88a1.24,1.24,0,0,0-1,.46,2,2,0,0,0-.36,1.27c0,1.16.46,1.73,1.39,1.73s1.33-.59,1.33-1.77S61.1,108.92,60.2,108.92Z"/><path class="cls-11" d="M68.55,109.32a1.66,1.66,0,0,0-.78-.18,1.14,1.14,0,0,0-1,.44,2,2,0,0,0-.34,1.21v2.86H64.63v-6h1.85v1.12h0a1.59,1.59,0,0,1,1.58-1.22,1.17,1.17,0,0,1,.46.07Z"/><path class="cls-11" d="M70.39,106.7a1.11,1.11,0,0,1-.77-.27.92.92,0,0,1-.3-.69.88.88,0,0,1,.3-.68,1.16,1.16,0,0,1,.77-.26,1.14,1.14,0,0,1,.77.26.93.93,0,0,1,0,1.37A1.1,1.1,0,0,1,70.39,106.7Zm.92,7H69.45v-6h1.86Z"/><path class="cls-11" d="M75.72,113.8a3.24,3.24,0,0,1-2.36-.84,3,3,0,0,1-.85-2.28,3,3,0,0,1,.89-2.33,3.35,3.35,0,0,1,2.41-.84,3.19,3.19,0,0,1,2.34.84,3,3,0,0,1,.85,2.22,3.15,3.15,0,0,1-.88,2.36A3.24,3.24,0,0,1,75.72,113.8Zm0-4.88a1.24,1.24,0,0,0-1,.46,2,2,0,0,0-.36,1.27c0,1.16.46,1.73,1.39,1.73s1.33-.59,1.33-1.77S76.66,108.92,75.77,108.92Z"/><path class="cls-11" d="M26.57,128.2a1.08,1.08,0,0,1-.76-.28.92.92,0,0,1-.3-.69.85.85,0,0,1,.31-.69,1.16,1.16,0,0,1,.78-.27,1.12,1.12,0,0,1,.78.27.94.94,0,0,1,0,1.39A1.16,1.16,0,0,1,26.57,128.2Z"/><path class="cls-11" d="M36.74,128.05H34.83l-3.46-5.28a5.76,5.76,0,0,1-.42-.69h0c0,.29,0,.75,0,1.36v4.61H29.18v-8.4h2l3.34,5.12c.15.23.29.45.42.68h0a8.94,8.94,0,0,1,0-1.15v-4.65h1.79Z"/><path class="cls-11" d="M43.7,128.05h-5v-8.4h4.85v1.54H40.56v1.87H43.3v1.54H40.56v1.92H43.7Z"/><path class="cls-11" d="M51.06,121.19h-2.4v6.86h-1.9v-6.86H44.38v-1.54h6.68Z"/><path class="cls-11" d="M61.52,127.75a5.46,5.46,0,0,1-2.4.45,4,4,0,0,1-3-1.14A4.16,4.16,0,0,1,55,124a4.45,4.45,0,0,1,1.24-3.27,4.39,4.39,0,0,1,3.24-1.25,5.94,5.94,0,0,1,2.07.31v1.82a3.71,3.71,0,0,0-1.92-.5,2.56,2.56,0,0,0-1.91.74,2.75,2.75,0,0,0-.73,2,2.69,2.69,0,0,0,.69,1.94,2.41,2.41,0,0,0,1.84.72,4,4,0,0,0,2-.53Z"/><path class="cls-11" d="M65.66,128.2a3.24,3.24,0,0,1-2.36-.84,3,3,0,0,1-.85-2.28,3,3,0,0,1,.89-2.33,3.34,3.34,0,0,1,2.4-.84,3.2,3.2,0,0,1,2.35.84,3,3,0,0,1,.85,2.22,3.15,3.15,0,0,1-.88,2.36A3.24,3.24,0,0,1,65.66,128.2Zm0-4.88a1.21,1.21,0,0,0-1,.46,2,2,0,0,0-.36,1.27c0,1.16.46,1.73,1.39,1.73s1.33-.59,1.33-1.77S66.6,123.32,65.71,123.32Z"/><path class="cls-11" d="M74.05,123.72a1.61,1.61,0,0,0-.78-.18,1.14,1.14,0,0,0-.94.44,1.93,1.93,0,0,0-.34,1.21v2.86H70.14v-6H72v1.12h0A1.6,1.6,0,0,1,73.6,122a1.12,1.12,0,0,1,.45.07Z"/><path class="cls-11" d="M80.26,125.58H76.34c.07.87.62,1.31,1.65,1.31a3.24,3.24,0,0,0,1.74-.47v1.33a4.5,4.5,0,0,1-2.16.45,2.79,2.79,0,0,1-3.06-3,3.2,3.2,0,0,1,.87-2.37,2.9,2.9,0,0,1,2.13-.87,2.62,2.62,0,0,1,2,.78,3,3,0,0,1,.72,2.11Zm-1.72-1.14c0-.86-.35-1.29-1-1.29a1,1,0,0,0-.77.37,1.72,1.72,0,0,0-.4.92Z"/><path class="cls-11" d="M13.43,144.36H11.92A7.35,7.35,0,0,1,10,139.24a7.83,7.83,0,0,1,1.89-5.19h1.5a8.44,8.44,0,0,0-1.77,5.19A8.14,8.14,0,0,0,13.43,144.36Z"/><path class="cls-11" d="M20.11,142.45H18.26v-3.33c0-.93-.33-1.4-1-1.4a1,1,0,0,0-.79.37,1.46,1.46,0,0,0-.31.94v3.42H14.31v-6h1.85v1h0a2.11,2.11,0,0,1,1.92-1.09c1.33,0,2,.82,2,2.47Z"/><path class="cls-11" d="M24.43,142.6a3.23,3.23,0,0,1-2.36-.84,3.47,3.47,0,0,1,0-4.61,3.38,3.38,0,0,1,2.41-.84,3.2,3.2,0,0,1,2.35.84,3,3,0,0,1,.85,2.22,3.18,3.18,0,0,1-.88,2.36A3.24,3.24,0,0,1,24.43,142.6Zm.05-4.88a1.24,1.24,0,0,0-1,.46,2,2,0,0,0-.37,1.27c0,1.16.47,1.73,1.4,1.73s1.33-.59,1.33-1.77S25.37,137.72,24.48,137.72Z"/><path class="cls-11" d="M33.15,135.5a1.09,1.09,0,0,1-.76-.27.92.92,0,0,1-.3-.69.88.88,0,0,1,.3-.68,1.13,1.13,0,0,1,.76-.26,1.17,1.17,0,0,1,.78.26,1,1,0,0,1,0,1.37A1.12,1.12,0,0,1,33.15,135.5Zm.92,6.95H32.22v-6h1.85Z"/><path class="cls-11" d="M41.42,142.45H39.58v-3.33c0-.93-.34-1.4-1-1.4a1,1,0,0,0-.79.37,1.4,1.4,0,0,0-.31.94v3.42H35.63v-6h1.85v1h0a2.12,2.12,0,0,1,1.93-1.09c1.33,0,2,.82,2,2.47Z"/><path class="cls-11" d="M46.51,142.38a2.62,2.62,0,0,1-1.23.22,1.76,1.76,0,0,1-2-2v-2.75h-1v-1.37h1v-1.29l1.85-.53v1.82h1.34v1.37H45.17v2.42c0,.63.24.94.74.94a1.14,1.14,0,0,0,.6-.17Z"/><path class="cls-11" d="M52.9,140H49c.06.87.61,1.31,1.64,1.31a3.24,3.24,0,0,0,1.74-.47v1.33a4.5,4.5,0,0,1-2.16.45,2.81,2.81,0,0,1-3.06-3,3.2,3.2,0,0,1,.87-2.37,2.9,2.9,0,0,1,2.13-.87,2.62,2.62,0,0,1,2,.78,3,3,0,0,1,.72,2.11Zm-1.72-1.14c0-.86-.34-1.29-1-1.29a1,1,0,0,0-.77.37,1.63,1.63,0,0,0-.39.92Z"/><path class="cls-11" d="M57.92,138.12a1.66,1.66,0,0,0-.78-.18,1.14,1.14,0,0,0-1,.44,2,2,0,0,0-.34,1.21v2.86H54v-6h1.85v1.12h0a1.59,1.59,0,0,1,1.58-1.22,1.17,1.17,0,0,1,.46.07Z"/><path class="cls-11" d="M63.77,142.45H62v-.86h0a2,2,0,0,1-1.78,1,1.9,1.9,0,0,1-1.38-.5,1.79,1.79,0,0,1-.5-1.32q0-1.74,2.07-2l1.63-.22c0-.66-.36-1-1.07-1a3.64,3.64,0,0,0-2,.64v-1.4a4.67,4.67,0,0,1,1.06-.35,5.7,5.7,0,0,1,1.22-.15,2.27,2.27,0,0,1,2.57,2.56ZM62,140v-.41l-1.09.14c-.6.08-.9.35-.9.82a.64.64,0,0,0,.22.51.8.8,0,0,0,.59.21,1.1,1.1,0,0,0,.85-.36A1.31,1.31,0,0,0,62,140Z"/><path class="cls-11" d="M69.78,142.24a3.69,3.69,0,0,1-1.81.36,3.06,3.06,0,0,1-2.24-.84,2.89,2.89,0,0,1-.85-2.16,3.19,3.19,0,0,1,.91-2.41,3.4,3.4,0,0,1,2.46-.88,3.1,3.1,0,0,1,1.53.28v1.57a2.1,2.1,0,0,0-1.29-.44,1.61,1.61,0,0,0-1.73,1.76,1.75,1.75,0,0,0,.44,1.25,1.66,1.66,0,0,0,1.23.45,2.42,2.42,0,0,0,1.35-.43Z"/><path class="cls-11" d="M74.62,142.38a2.62,2.62,0,0,1-1.23.22,1.76,1.76,0,0,1-2-2v-2.75h-1v-1.37h1v-1.29l1.84-.53v1.82h1.35v1.37H73.27v2.42c0,.63.25.94.75.94a1.19,1.19,0,0,0,.6-.17Z"/><path class="cls-11" d="M76.6,135.5a1.11,1.11,0,0,1-.77-.27.94.94,0,0,1-.29-.69.91.91,0,0,1,.29-.68,1.16,1.16,0,0,1,.77-.26,1.12,1.12,0,0,1,.77.26.93.93,0,0,1,0,1.37A1.08,1.08,0,0,1,76.6,135.5Zm.92,6.95H75.66v-6h1.86Z"/><path class="cls-11" d="M84.79,136.45l-2.23,6H80.45l-2.13-6h2l1,3.7a5.25,5.25,0,0,1,.21,1.07h0a6,6,0,0,1,.22-1l1.06-3.74Z"/><path class="cls-11" d="M88.32,142.6a3.23,3.23,0,0,1-2.36-.84,3.47,3.47,0,0,1,0-4.61,3.38,3.38,0,0,1,2.41-.84,3.2,3.2,0,0,1,2.35.84,3,3,0,0,1,.85,2.22,3.18,3.18,0,0,1-.88,2.36A3.24,3.24,0,0,1,88.32,142.6Zm.05-4.88a1.24,1.24,0,0,0-1,.46,2,2,0,0,0-.37,1.27c0,1.16.47,1.73,1.4,1.73s1.33-.59,1.33-1.77S89.26,137.72,88.37,137.72Z"/><path class="cls-11" d="M93.62,144.36h-1.5a8.06,8.06,0,0,0,1.8-5.12,8.39,8.39,0,0,0-1.8-5.19h1.52a7.83,7.83,0,0,1,1.89,5.19A7.31,7.31,0,0,1,93.62,144.36Z"/><path class="cls-12" d="M207.32,84.82h-1V81H202v3.83h-1v-8.4h1v3.69h4.35V76.42h1Z"/><path class="cls-12" d="M214.42,77.31H212v7.51h-1V77.31h-2.42v-.89h5.83Z"/><path class="cls-12" d="M220.87,77.31h-2.43v7.51h-1V77.31H215v-.89h5.83Z"/><path class="cls-12" d="M223.1,81.65v3.17h-1v-8.4h2.31a3,3,0,0,1,2.09.66,2.34,2.34,0,0,1,.74,1.85,2.54,2.54,0,0,1-.82,2,3.19,3.19,0,0,1-2.23.76Zm0-4.34v3.45h1a2.28,2.28,0,0,0,1.55-.47,1.64,1.64,0,0,0,.54-1.31c0-1.11-.66-1.67-2-1.67Z"/><path class="cls-12" d="M238.26,84.25a5.6,5.6,0,0,1-2.82.71,3.81,3.81,0,0,1-2.9-1.16,4.2,4.2,0,0,1-1.12-3.07,4.39,4.39,0,0,1,1.24-3.2,4.2,4.2,0,0,1,3.12-1.25,5.28,5.28,0,0,1,2.31.45v1.09a4.44,4.44,0,0,0-2.42-.65,3,3,0,0,0-2.31,1,4.09,4.09,0,0,0-.07,5,2.94,2.94,0,0,0,2.28.91,3.53,3.53,0,0,0,1.7-.39V81.33h-1.84v-.89h2.83Z"/><path class="cls-12" d="M244.59,84.82h-4.45v-8.4h4.26v.89h-3.28v2.8h3V81h-3v2.94h3.47Z"/><path class="cls-12" d="M251.1,77.31h-2.42v7.51h-1V77.31h-2.42v-.89h5.83Z"/><path class="cls-12" d="M261.33,81.72H259v2.36h-.78V81.72h-2.36v-.79h2.36V78.57H259v2.36h2.37Z"/><path class="cls-12" d="M206,91.51h-2.43V99h-1V91.51h-2.42v-.89H206Z"/><path class="cls-12" d="M208.42,99.16a2.79,2.79,0,0,1-2.12-.84,3.11,3.11,0,0,1-.8-2.23,3.26,3.26,0,0,1,.83-2.36,3,3,0,0,1,2.23-.85,2.7,2.7,0,0,1,2.1.83,3.27,3.27,0,0,1,.75,2.29,3.23,3.23,0,0,1-.81,2.3A2.83,2.83,0,0,1,208.42,99.16Zm.07-5.47a1.83,1.83,0,0,0-1.46.63,2.59,2.59,0,0,0-.54,1.74,2.46,2.46,0,0,0,.54,1.68,1.87,1.87,0,0,0,1.46.62,1.76,1.76,0,0,0,1.43-.61,2.57,2.57,0,0,0,.51-1.71,2.65,2.65,0,0,0-.51-1.74A1.73,1.73,0,0,0,208.49,93.69Z"/><path class="cls-12" d="M217.85,99h-1.34l-2.65-2.88h0V99h-1V90.14h1v5.63h0L216.38,93h1.26l-2.79,2.9Z"/><path class="cls-12" d="M223.59,96.26h-4.24a2.28,2.28,0,0,0,.54,1.55,1.87,1.87,0,0,0,1.42.55,3,3,0,0,0,1.86-.67v.9a3.47,3.47,0,0,1-2.09.57,2.56,2.56,0,0,1-2-.81,3.37,3.37,0,0,1-.72-2.3,3.29,3.29,0,0,1,.79-2.29,2.58,2.58,0,0,1,2-.88,2.27,2.27,0,0,1,1.82.76,3.2,3.2,0,0,1,.65,2.12Zm-1-.81a1.91,1.91,0,0,0-.4-1.3,1.39,1.39,0,0,0-1.1-.46,1.54,1.54,0,0,0-1.15.49,2.22,2.22,0,0,0-.59,1.27Z"/><path class="cls-12" d="M230,99h-1V95.6c0-1.27-.47-1.91-1.4-1.91a1.52,1.52,0,0,0-1.19.54,2,2,0,0,0-.47,1.37V99h-1V93h1v1h0a2.17,2.17,0,0,1,2-1.14,1.83,1.83,0,0,1,1.51.64,2.8,2.8,0,0,1,.52,1.84Z"/><path class="cls-12" d="M240,99h-1V98h0a2.43,2.43,0,0,1-3.87.36,3.33,3.33,0,0,1-.68-2.2,3.59,3.59,0,0,1,.75-2.38,2.48,2.48,0,0,1,2-.9,1.92,1.92,0,0,1,1.8,1h0V90.14h1Zm-1-2.71v-.88a1.7,1.7,0,0,0-.48-1.23,1.59,1.59,0,0,0-1.22-.51,1.67,1.67,0,0,0-1.38.65,2.85,2.85,0,0,0-.5,1.78,2.53,2.53,0,0,0,.48,1.63,1.57,1.57,0,0,0,1.3.61,1.66,1.66,0,0,0,1.3-.58A2.15,2.15,0,0,0,239.06,96.31Z"/><path class="cls-12" d="M246.72,96.26h-4.24a2.28,2.28,0,0,0,.54,1.55,1.89,1.89,0,0,0,1.42.55,3,3,0,0,0,1.86-.67v.9a3.47,3.47,0,0,1-2.09.57,2.57,2.57,0,0,1-2-.81,3.37,3.37,0,0,1-.72-2.3,3.29,3.29,0,0,1,.79-2.29,2.58,2.58,0,0,1,2-.88,2.29,2.29,0,0,1,1.83.76,3.19,3.19,0,0,1,.64,2.12Zm-1-.81a2,2,0,0,0-.41-1.3,1.37,1.37,0,0,0-1.09-.46,1.54,1.54,0,0,0-1.16.49,2.21,2.21,0,0,0-.58,1.27Z"/><path class="cls-12" d="M255.61,99h-1v-.93h0a2,2,0,0,1-1.85,1.07,2,2,0,0,1-1.4-.47,1.65,1.65,0,0,1-.51-1.26c0-1.12.66-1.77,2-2l1.8-.25c0-1-.41-1.53-1.24-1.53a3,3,0,0,0-1.95.74v-1a3.68,3.68,0,0,1,2-.57c1.41,0,2.11.75,2.11,2.24Zm-1-3-1.45.2a2.25,2.25,0,0,0-1,.33,1,1,0,0,0-.34.84.92.92,0,0,0,.31.72,1.24,1.24,0,0,0,.83.28,1.52,1.52,0,0,0,1.18-.51,1.73,1.73,0,0,0,.47-1.26Z"/><path class="cls-12" d="M261.44,98.75a3.1,3.1,0,0,1-1.64.41,2.68,2.68,0,0,1-2.07-.83,3,3,0,0,1-.79-2.17,3.32,3.32,0,0,1,.85-2.38,3,3,0,0,1,2.27-.9,3.09,3.09,0,0,1,1.39.3v1a2.45,2.45,0,0,0-1.43-.47,2,2,0,0,0-1.51.66,2.52,2.52,0,0,0-.59,1.73,2.39,2.39,0,0,0,.56,1.67,1.92,1.92,0,0,0,1.48.61,2.4,2.4,0,0,0,1.48-.53Z"/><path class="cls-12" d="M266.91,98.75a3.1,3.1,0,0,1-1.64.41,2.68,2.68,0,0,1-2.07-.83,3,3,0,0,1-.79-2.17,3.32,3.32,0,0,1,.85-2.38,3,3,0,0,1,2.27-.9,3.09,3.09,0,0,1,1.39.3v1a2.45,2.45,0,0,0-1.43-.47,2,2,0,0,0-1.51.66,2.52,2.52,0,0,0-.59,1.73,2.39,2.39,0,0,0,.56,1.67,1.92,1.92,0,0,0,1.48.61,2.4,2.4,0,0,0,1.48-.53Z"/><path class="cls-12" d="M273.11,96.26h-4.23a2.19,2.19,0,0,0,.54,1.55,1.85,1.85,0,0,0,1.41.55,3,3,0,0,0,1.87-.67v.9a3.52,3.52,0,0,1-2.09.57,2.54,2.54,0,0,1-2-.81,3.83,3.83,0,0,1,.07-4.59,2.56,2.56,0,0,1,2-.88,2.28,2.28,0,0,1,1.82.76,3.19,3.19,0,0,1,.64,2.12Zm-1-.81a2,2,0,0,0-.4-1.3,1.4,1.4,0,0,0-1.1-.46,1.52,1.52,0,0,0-1.15.49,2.16,2.16,0,0,0-.59,1.27Z"/><path class="cls-12" d="M274.13,98.81v-1a2.9,2.9,0,0,0,1.73.58c.84,0,1.27-.29,1.27-.85a.78.78,0,0,0-.11-.41.93.93,0,0,0-.3-.29,1.93,1.93,0,0,0-.43-.23l-.54-.22a6.6,6.6,0,0,1-.7-.32,1.88,1.88,0,0,1-.5-.36,1.26,1.26,0,0,1-.3-.46,1.57,1.57,0,0,1-.11-.6,1.45,1.45,0,0,1,.2-.75,1.65,1.65,0,0,1,.51-.54,2.51,2.51,0,0,1,.74-.34,3.56,3.56,0,0,1,2.24.16v1a2.69,2.69,0,0,0-1.52-.44,1.75,1.75,0,0,0-.48.06,1.11,1.11,0,0,0-.38.18.85.85,0,0,0-.24.26.82.82,0,0,0-.08.35.74.74,0,0,0,.33.67,1.67,1.67,0,0,0,.4.22l.53.22a6.21,6.21,0,0,1,.72.31,2.44,2.44,0,0,1,.54.37,1.38,1.38,0,0,1,.34.46,1.54,1.54,0,0,1,.12.63,1.5,1.5,0,0,1-.2.77,1.7,1.7,0,0,1-.52.55,2.49,2.49,0,0,1-.76.32,3.68,3.68,0,0,1-.89.1A3.51,3.51,0,0,1,274.13,98.81Z"/><path class="cls-12" d="M282,99.16a2.79,2.79,0,0,1-2.12-.84,3.1,3.1,0,0,1-.79-2.23,3.26,3.26,0,0,1,.82-2.36,3,3,0,0,1,2.23-.85,2.7,2.7,0,0,1,2.1.83A3.27,3.27,0,0,1,285,96a3.23,3.23,0,0,1-.81,2.3A2.83,2.83,0,0,1,282,99.16Zm.07-5.47a1.83,1.83,0,0,0-1.46.63,2.59,2.59,0,0,0-.54,1.74,2.46,2.46,0,0,0,.54,1.68,1.87,1.87,0,0,0,1.46.62,1.79,1.79,0,0,0,1.44-.61A2.62,2.62,0,0,0,284,96a2.71,2.71,0,0,0-.5-1.74A1.76,1.76,0,0,0,282.09,93.69Z"/><path class="cls-13" d="M395.08,31V33.9h-1.9V25.5h3c2.12,0,3.18.89,3.18,2.68a2.58,2.58,0,0,1-.92,2.05A3.58,3.58,0,0,1,396,31Zm0-4.06v2.62h.74c1,0,1.51-.44,1.51-1.32s-.5-1.3-1.51-1.3Z"/><path class="cls-13" d="M402.23,33.9h-1.86V25h1.86Z"/><path class="cls-13" d="M408.78,33.9H407V33h0a2,2,0,0,1-1.79,1,1.86,1.86,0,0,1-1.37-.5,1.79,1.79,0,0,1-.5-1.32q0-1.74,2.07-2L407,30c0-.66-.36-1-1.07-1a3.61,3.61,0,0,0-2,.64v-1.4a4.67,4.67,0,0,1,1.06-.35,5.63,5.63,0,0,1,1.22-.15,2.27,2.27,0,0,1,2.57,2.56ZM407,31.47v-.41L406,31.2c-.61.08-.91.35-.91.82a.71.71,0,0,0,.22.52.89.89,0,0,0,.6.2,1.1,1.1,0,0,0,.85-.36A1.31,1.31,0,0,0,407,31.47Z"/><path class="cls-13" d="M413.87,33.83a2.7,2.7,0,0,1-1.24.22,1.77,1.77,0,0,1-2-2V29.27h-1V27.9h1V26.61l1.85-.53V27.9h1.35v1.37h-1.35v2.42c0,.63.25.94.74.94a1.2,1.2,0,0,0,.61-.17Z"/><path class="cls-13" d="M419.9,33.9h-1.75V33h0a2,2,0,0,1-1.79,1,1.86,1.86,0,0,1-1.37-.5,1.75,1.75,0,0,1-.5-1.32c0-1.16.69-1.83,2.06-2l1.63-.22c0-.66-.35-1-1.06-1a3.59,3.59,0,0,0-2,.64v-1.4a4.67,4.67,0,0,1,1.06-.35,5.56,5.56,0,0,1,1.22-.15,2.26,2.26,0,0,1,2.56,2.56Zm-1.74-2.43v-.41l-1.09.14c-.6.08-.9.35-.9.82a.67.67,0,0,0,.22.52.89.89,0,0,0,.6.2,1.07,1.07,0,0,0,.84-.36A1.31,1.31,0,0,0,418.16,31.47Z"/><path class="cls-13" d="M425.28,26.44a1.73,1.73,0,0,0-.68-.14c-.6,0-.89.32-.89,1v.64h1.37v1.37h-1.37V33.9h-1.85V29.27h-1V27.9h1v-.74a2.13,2.13,0,0,1,.67-1.65,2.52,2.52,0,0,1,1.81-.63,3.11,3.11,0,0,1,.94.12Z"/><path class="cls-13" d="M428.83,34.05a3.23,3.23,0,0,1-2.36-.84,3.05,3.05,0,0,1-.86-2.28,3.05,3.05,0,0,1,.89-2.33,3.37,3.37,0,0,1,2.41-.84,3.16,3.16,0,0,1,2.34.84,3,3,0,0,1,.85,2.22,3.18,3.18,0,0,1-.87,2.36A3.27,3.27,0,0,1,428.83,34.05Zm0-4.88a1.27,1.27,0,0,0-1,.46,2,2,0,0,0-.36,1.27c0,1.16.47,1.73,1.4,1.73s1.33-.59,1.33-1.77S429.77,29.17,428.87,29.17Z"/><path class="cls-13" d="M437.22,29.57a1.61,1.61,0,0,0-.78-.18,1.12,1.12,0,0,0-.94.44,1.93,1.93,0,0,0-.34,1.21V33.9H433.3v-6h1.86V29h0a1.59,1.59,0,0,1,1.58-1.22,1.14,1.14,0,0,1,.46.07Z"/><path class="cls-13" d="M447.64,33.9H445.8V30.48c0-.87-.32-1.31-1-1.31a.89.89,0,0,0-.74.4,1.63,1.63,0,0,0-.29,1V33.9H442V30.45c0-.85-.31-1.28-.94-1.28a.91.91,0,0,0-.76.38,1.65,1.65,0,0,0-.28,1V33.9h-1.86v-6H440v.94h0a2.22,2.22,0,0,1,.8-.78,2.26,2.26,0,0,1,1.14-.3,1.72,1.72,0,0,1,1.74,1.12,2.21,2.21,0,0,1,2-1.12c1.31,0,2,.8,2,2.41Z"/><path class="cls-13" d="M454.1,33.9h-1.75V33h0a2,2,0,0,1-1.78,1,1.88,1.88,0,0,1-1.38-.5,1.79,1.79,0,0,1-.5-1.32q0-1.74,2.07-2l1.63-.22c0-.66-.36-1-1.07-1a3.64,3.64,0,0,0-2,.64v-1.4a4.67,4.67,0,0,1,1.06-.35,5.7,5.7,0,0,1,1.22-.15,2.27,2.27,0,0,1,2.57,2.56Zm-1.74-2.43v-.41l-1.09.14c-.6.08-.9.35-.9.82a.67.67,0,0,0,.22.52.84.84,0,0,0,.59.2,1.1,1.1,0,0,0,.85-.36A1.31,1.31,0,0,0,452.36,31.47Z"/><path class="cls-13" d="M394.54,48.3h-1.85v-.82h0a2.07,2.07,0,0,1-1.86,1,2.27,2.27,0,0,1-1.81-.79,3.28,3.28,0,0,1-.68-2.22,3.62,3.62,0,0,1,.75-2.39,2.5,2.5,0,0,1,2-.89,1.68,1.68,0,0,1,1.62.83h0V39.42h1.85Zm-1.81-2.91v-.46a1.45,1.45,0,0,0-.34-1,1.21,1.21,0,0,0-1.85.1,2.24,2.24,0,0,0-.34,1.33,1.94,1.94,0,0,0,.33,1.21,1.18,1.18,0,0,0,1.84,0A1.86,1.86,0,0,0,392.73,45.39Z"/><path class="cls-13" d="M401.49,45.83h-3.91c.06.87.61,1.31,1.65,1.31a3.24,3.24,0,0,0,1.74-.47V48a4.57,4.57,0,0,1-2.17.45,2.79,2.79,0,0,1-3.05-3.05,3.2,3.2,0,0,1,.86-2.37,2.9,2.9,0,0,1,2.14-.87,2.63,2.63,0,0,1,2,.78,3,3,0,0,1,.71,2.11Zm-1.71-1.14c0-.86-.35-1.28-1-1.28a1,1,0,0,0-.77.36,1.71,1.71,0,0,0-.39.92Z"/><path class="cls-13" d="M406.84,41.35a1.07,1.07,0,0,1-.76-.27.92.92,0,0,1-.3-.69.88.88,0,0,1,.3-.68,1.26,1.26,0,0,1,1.53,0,.93.93,0,0,1,0,1.37A1.08,1.08,0,0,1,406.84,41.35Zm.92,6.95h-1.85v-6h1.85Z"/><path class="cls-13" d="M415.19,48.3h-1.86v-.82h0a2.07,2.07,0,0,1-1.86,1,2.27,2.27,0,0,1-1.81-.79,3.33,3.33,0,0,1-.68-2.22,3.62,3.62,0,0,1,.75-2.39,2.5,2.5,0,0,1,2-.89,1.67,1.67,0,0,1,1.62.83h0V39.42h1.86Zm-1.82-2.91v-.46a1.4,1.4,0,0,0-.34-1,1.11,1.11,0,0,0-.88-.38,1.15,1.15,0,0,0-1,.48,2.24,2.24,0,0,0-.34,1.33,1.94,1.94,0,0,0,.33,1.21,1.11,1.11,0,0,0,.93.43,1.13,1.13,0,0,0,.92-.45A1.91,1.91,0,0,0,413.37,45.39Z"/><path class="cls-13" d="M422.14,45.83h-3.92c.06.87.61,1.31,1.65,1.31a3.24,3.24,0,0,0,1.74-.47V48a4.56,4.56,0,0,1-2.16.45,2.79,2.79,0,0,1-3.06-3.05,3.24,3.24,0,0,1,.86-2.37,2.9,2.9,0,0,1,2.14-.87,2.63,2.63,0,0,1,2,.78,3,3,0,0,1,.72,2.11Zm-1.72-1.14c0-.86-.35-1.28-1-1.28a1,1,0,0,0-.77.36,1.72,1.72,0,0,0-.4.92Z"/><path class="cls-13" d="M429,48.3h-1.84V45c0-.93-.34-1.39-1-1.39a1,1,0,0,0-.79.36,1.4,1.4,0,0,0-.31.94V48.3h-1.85v-6h1.85v1h0A2.12,2.12,0,0,1,427,42.16c1.33,0,2,.82,2,2.47Z"/><path class="cls-13" d="M434.12,48.23a2.62,2.62,0,0,1-1.23.22,1.76,1.76,0,0,1-2-2V43.67h-1V42.3h1V41l1.85-.53V42.3h1.34v1.37h-1.34v2.42c0,.63.24.94.74.94a1.14,1.14,0,0,0,.6-.17Z"/><path class="cls-13" d="M436.1,41.35a1.09,1.09,0,0,1-.76-.27.92.92,0,0,1-.3-.69.88.88,0,0,1,.3-.68,1.13,1.13,0,0,1,.76-.26,1.17,1.17,0,0,1,.78.26,1,1,0,0,1,0,1.37A1.12,1.12,0,0,1,436.1,41.35ZM437,48.3h-1.85v-6H437Z"/><path class="cls-13" d="M444.45,48.3H442.6v-.82h0a2.06,2.06,0,0,1-1.85,1,2.26,2.26,0,0,1-1.81-.79,3.28,3.28,0,0,1-.69-2.22,3.57,3.57,0,0,1,.76-2.39,2.47,2.47,0,0,1,2-.89,1.66,1.66,0,0,1,1.61.83h0V39.42h1.85Zm-1.82-2.91v-.46a1.4,1.4,0,0,0-.34-1,1.1,1.1,0,0,0-.88-.38,1.12,1.12,0,0,0-1,.48,2.24,2.24,0,0,0-.35,1.33,1.94,1.94,0,0,0,.33,1.21,1.19,1.19,0,0,0,1.85,0A1.91,1.91,0,0,0,442.63,45.39Z"/><path class="cls-13" d="M451,48.3h-1.75v-.86h0a2,2,0,0,1-1.78,1,1.88,1.88,0,0,1-1.38-.49,1.81,1.81,0,0,1-.5-1.33q0-1.74,2.07-2l1.63-.22c0-.65-.36-1-1.07-1a3.64,3.64,0,0,0-2,.64v-1.4a4.67,4.67,0,0,1,1.06-.35,5.7,5.7,0,0,1,1.22-.15A2.27,2.27,0,0,1,451,44.72Zm-1.74-2.43v-.41l-1.09.14c-.6.08-.9.35-.9.82a.67.67,0,0,0,.22.52.84.84,0,0,0,.59.2,1.1,1.1,0,0,0,.85-.36A1.31,1.31,0,0,0,449.26,45.87Z"/><path class="cls-13" d="M458.33,48.3h-1.85v-.82h0a2.07,2.07,0,0,1-1.86,1,2.27,2.27,0,0,1-1.81-.79,3.28,3.28,0,0,1-.68-2.22,3.62,3.62,0,0,1,.75-2.39,2.5,2.5,0,0,1,2-.89,1.67,1.67,0,0,1,1.62.83h0V39.42h1.85Zm-1.81-2.91v-.46a1.4,1.4,0,0,0-.34-1,1.21,1.21,0,0,0-1.85.1,2.24,2.24,0,0,0-.34,1.33,1.94,1.94,0,0,0,.33,1.21,1.18,1.18,0,0,0,1.84,0A1.86,1.86,0,0,0,456.52,45.39Z"/><path class="cls-13" d="M394.21,62.7h-1.85v-.82h0a2.07,2.07,0,0,1-1.86,1,2.3,2.3,0,0,1-1.81-.79,3.28,3.28,0,0,1-.69-2.22,3.62,3.62,0,0,1,.76-2.39,2.47,2.47,0,0,1,2-.89,1.69,1.69,0,0,1,1.62.83h0V53.82h1.85Zm-1.81-2.91v-.46a1.45,1.45,0,0,0-.34-1,1.2,1.2,0,0,0-1.85.1,2.24,2.24,0,0,0-.34,1.33A1.94,1.94,0,0,0,390.2,61,1.18,1.18,0,0,0,392,61,1.86,1.86,0,0,0,392.4,59.79Z"/><path class="cls-13" d="M401.16,60.23h-3.91c.06.87.61,1.31,1.64,1.31a3.24,3.24,0,0,0,1.74-.47V62.4a4.5,4.5,0,0,1-2.16.45,2.81,2.81,0,0,1-3.06-3.05,3.2,3.2,0,0,1,.87-2.37,2.9,2.9,0,0,1,2.13-.87,2.6,2.6,0,0,1,2,.78,3,3,0,0,1,.72,2.11Zm-1.71-1.14q0-1.29-1.05-1.29a1,1,0,0,0-.77.37,1.71,1.71,0,0,0-.39.92Z"/><path class="cls-13" d="M415.33,62.7h-1.87v-5c0-.55,0-1.15.07-1.8h0a7.75,7.75,0,0,1-.26,1.11l-2,5.71h-1.54l-2-5.65c-.05-.15-.14-.54-.26-1.17h-.06c.06.83.08,1.55.08,2.18V62.7h-1.7V54.3h2.77l1.71,5a6.58,6.58,0,0,1,.3,1.2h0a10.27,10.27,0,0,1,.33-1.21l1.72-5h2.7Z"/><path class="cls-13" d="M418,55.75a1.1,1.1,0,0,1-.77-.27.92.92,0,0,1-.3-.69.88.88,0,0,1,.3-.68,1.14,1.14,0,0,1,.77-.26,1.16,1.16,0,0,1,.77.26,1,1,0,0,1,0,1.37A1.11,1.11,0,0,1,418,55.75Zm.91,7h-1.85v-6h1.85Z"/><path class="cls-13" d="M425,62.49a3.72,3.72,0,0,1-1.81.36A3,3,0,0,1,421,62a2.9,2.9,0,0,1-.86-2.16,3.19,3.19,0,0,1,.92-2.41,3.38,3.38,0,0,1,2.45-.88,3.14,3.14,0,0,1,1.54.28v1.57a2.13,2.13,0,0,0-1.3-.44,1.71,1.71,0,0,0-1.26.47,1.75,1.75,0,0,0-.47,1.29,1.71,1.71,0,0,0,.45,1.25,1.62,1.62,0,0,0,1.22.45A2.47,2.47,0,0,0,425,61Z"/><path class="cls-13" d="M430.14,58.37a1.61,1.61,0,0,0-.78-.18,1.14,1.14,0,0,0-.94.44,1.93,1.93,0,0,0-.34,1.21V62.7h-1.85v-6h1.85v1.12h0a1.6,1.6,0,0,1,1.59-1.22,1.12,1.12,0,0,1,.45.07Z"/><path class="cls-13" d="M433.82,62.85a3.23,3.23,0,0,1-2.36-.84,3.47,3.47,0,0,1,0-4.61,3.37,3.37,0,0,1,2.41-.84,3.18,3.18,0,0,1,2.34.84,3,3,0,0,1,.85,2.22,3.18,3.18,0,0,1-.87,2.36A3.27,3.27,0,0,1,433.82,62.85Zm0-4.88a1.27,1.27,0,0,0-1,.46,2,2,0,0,0-.36,1.27c0,1.16.47,1.73,1.4,1.73s1.33-.59,1.33-1.77S434.76,58,433.86,58Z"/><path class="cls-13" d="M437.9,62.54V61a3.88,3.88,0,0,0,.91.42,3.39,3.39,0,0,0,.86.13,2,2,0,0,0,.78-.13.44.44,0,0,0,.28-.42.37.37,0,0,0-.13-.29,1,1,0,0,0-.33-.2,3.72,3.72,0,0,0-.44-.16c-.16,0-.32-.1-.46-.16a4.68,4.68,0,0,1-.63-.29,1.54,1.54,0,0,1-.46-.36,1.4,1.4,0,0,1-.28-.47,1.79,1.79,0,0,1-.1-.64,1.61,1.61,0,0,1,.22-.87,1.88,1.88,0,0,1,.59-.6,2.67,2.67,0,0,1,.83-.33,4.06,4.06,0,0,1,1-.11,5.49,5.49,0,0,1,.8.06,5.3,5.3,0,0,1,.81.18v1.43a2.76,2.76,0,0,0-.75-.31,3.11,3.11,0,0,0-.79-.1,1.87,1.87,0,0,0-.34,0,1.23,1.23,0,0,0-.29.09.6.6,0,0,0-.19.16.36.36,0,0,0-.07.22.41.41,0,0,0,.11.28.79.79,0,0,0,.27.2l.38.16.41.13a4.65,4.65,0,0,1,.67.29,2.18,2.18,0,0,1,.51.35,1.29,1.29,0,0,1,.33.48,1.69,1.69,0,0,1,.12.66,1.67,1.67,0,0,1-.24.91,1.81,1.81,0,0,1-.61.62,3,3,0,0,1-.89.34,5,5,0,0,1-1,.11A5.17,5.17,0,0,1,437.9,62.54Z"/><path class="cls-13" d="M446.43,62.85a3.24,3.24,0,0,1-2.36-.84,3.05,3.05,0,0,1-.86-2.28,3,3,0,0,1,.9-2.33,3.34,3.34,0,0,1,2.4-.84,3.2,3.2,0,0,1,2.35.84,3,3,0,0,1,.85,2.22,3.15,3.15,0,0,1-.88,2.36A3.24,3.24,0,0,1,446.43,62.85Zm.05-4.88a1.24,1.24,0,0,0-1,.46,2,2,0,0,0-.36,1.27c0,1.16.46,1.73,1.39,1.73s1.33-.59,1.33-1.77S447.37,58,446.48,58Z"/><path class="cls-13" d="M454.64,55.24a1.76,1.76,0,0,0-.68-.14q-.9,0-.9,1v.64h1.38v1.37h-1.38V62.7h-1.84V58.07h-1V56.7h1V56a2.13,2.13,0,0,1,.67-1.65,2.52,2.52,0,0,1,1.81-.63,3.11,3.11,0,0,1,.94.12Z"/><path class="cls-13" d="M459.18,62.63a2.62,2.62,0,0,1-1.23.22,1.76,1.76,0,0,1-2-2V58.07h-1V56.7h1V55.41l1.84-.53V56.7h1.35v1.37h-1.35v2.42c0,.63.25.94.75.94a1.19,1.19,0,0,0,.6-.17Z"/><path class="cls-14" d="M404.79,118.06h-1.86v-5c0-.55,0-1.15.07-1.8H403c-.1.51-.19.88-.26,1.11l-2,5.71h-1.55l-2-5.65a8.85,8.85,0,0,1-.27-1.17h0c0,.82.08,1.55.08,2.18v4.64h-1.71v-8.4H398l1.72,5a6.58,6.58,0,0,1,.3,1.2h0a12.46,12.46,0,0,1,.34-1.21l1.71-5h2.7Z"/><path class="cls-14" d="M407.46,111.11a1.07,1.07,0,0,1-.77-.28.92.92,0,0,1,0-1.36,1.16,1.16,0,0,1,.77-.26,1.14,1.14,0,0,1,.77.26.93.93,0,0,1,0,1.37A1.1,1.1,0,0,1,407.46,111.11Zm.92,7h-1.86v-6h1.86Z"/><path class="cls-14" d="M414.48,117.85a3.69,3.69,0,0,1-1.81.36,3.06,3.06,0,0,1-2.24-.84,2.89,2.89,0,0,1-.85-2.16,3.19,3.19,0,0,1,.91-2.41,3.39,3.39,0,0,1,2.46-.88,3.12,3.12,0,0,1,1.53.28v1.57a2.12,2.12,0,0,0-1.29-.44,1.71,1.71,0,0,0-1.27.47,2,2,0,0,0,0,2.54,1.66,1.66,0,0,0,1.23.45,2.42,2.42,0,0,0,1.35-.43Z"/><path class="cls-14" d="M419.61,113.73a1.63,1.63,0,0,0-.78-.18,1.15,1.15,0,0,0-.95.44,2,2,0,0,0-.34,1.21v2.86h-1.85v-6h1.85v1.12h0a1.59,1.59,0,0,1,1.58-1.22,1.14,1.14,0,0,1,.46.07Z"/><path class="cls-14" d="M423.28,118.21a3.23,3.23,0,0,1-2.36-.84,3.05,3.05,0,0,1-.86-2.28,3,3,0,0,1,.9-2.33,3.34,3.34,0,0,1,2.4-.84,3.2,3.2,0,0,1,2.35.84,3,3,0,0,1,.85,2.22,3.18,3.18,0,0,1-.88,2.36A3.24,3.24,0,0,1,423.28,118.21Zm.05-4.88a1.21,1.21,0,0,0-1,.46,2,2,0,0,0-.36,1.27c0,1.15.46,1.73,1.39,1.73s1.33-.59,1.33-1.77S424.22,113.33,423.33,113.33Z"/><path class="cls-14" d="M427.37,117.9v-1.5a3.5,3.5,0,0,0,.91.41,3,3,0,0,0,.85.14,1.84,1.84,0,0,0,.78-.14.43.43,0,0,0,.29-.41.41.41,0,0,0-.13-.29,1,1,0,0,0-.34-.2,2.52,2.52,0,0,0-.44-.16l-.46-.16a4.68,4.68,0,0,1-.63-.29,1.84,1.84,0,0,1-.46-.36,1.64,1.64,0,0,1-.28-.48,2,2,0,0,1-.09-.63,1.7,1.7,0,0,1,.21-.87,2,2,0,0,1,.59-.6A2.9,2.9,0,0,1,429,112a4.46,4.46,0,0,1,1-.1,5.52,5.52,0,0,1,.81.06,5.88,5.88,0,0,1,.81.18v1.43a3,3,0,0,0-.76-.31,3,3,0,0,0-.78-.1,2,2,0,0,0-.35,0,1.15,1.15,0,0,0-.28.09.51.51,0,0,0-.19.16.34.34,0,0,0-.07.22.4.4,0,0,0,.1.28.75.75,0,0,0,.28.2,2.57,2.57,0,0,0,.37.16l.42.13a7.13,7.13,0,0,1,.67.28,3.3,3.3,0,0,1,.51.36,1.58,1.58,0,0,1,.33.48,1.86,1.86,0,0,1,.11.66,1.76,1.76,0,0,1-.23.91,1.81,1.81,0,0,1-.62.61,2.66,2.66,0,0,1-.88.35,5.1,5.1,0,0,1-1,.11A5.17,5.17,0,0,1,427.37,117.9Z"/><path class="cls-14" d="M435.9,118.21a3.23,3.23,0,0,1-2.36-.84,3,3,0,0,1-.86-2.28,3.05,3.05,0,0,1,.89-2.33,3.37,3.37,0,0,1,2.41-.84,3.18,3.18,0,0,1,2.34.84,3,3,0,0,1,.85,2.22,3.15,3.15,0,0,1-.88,2.36A3.23,3.23,0,0,1,435.9,118.21Zm0-4.88a1.24,1.24,0,0,0-1,.46,2,2,0,0,0-.36,1.27c0,1.15.47,1.73,1.4,1.73s1.33-.59,1.33-1.77S436.84,113.33,435.94,113.33Z"/><path class="cls-14" d="M444.11,110.6a1.77,1.77,0,0,0-.69-.14c-.59,0-.89.32-.89,1v.64h1.37v1.37h-1.37v4.63h-1.85v-4.63h-1v-1.37h1v-.74a2.15,2.15,0,0,1,.67-1.65,2.55,2.55,0,0,1,1.82-.63,3.16,3.16,0,0,1,.94.12Z"/><path class="cls-14" d="M448.65,118a2.7,2.7,0,0,1-1.24.22,1.77,1.77,0,0,1-2-2v-2.75h-1v-1.37h1v-1.29l1.85-.53v1.82h1.35v1.37H447.3v2.42c0,.63.25.94.74.94a1.31,1.31,0,0,0,.61-.17Z"/><path class="cls-14" d="M400.77,132a6.08,6.08,0,0,1-3.06.71,4.47,4.47,0,0,1-3.2-1.12,4.08,4.08,0,0,1-1.17-3.09,4.32,4.32,0,0,1,1.28-3.23A4.66,4.66,0,0,1,398,124a6.78,6.78,0,0,1,2.35.37v1.77a4.73,4.73,0,0,0-2.38-.56,2.54,2.54,0,0,0-1.91.77,2.79,2.79,0,0,0-.75,2,2.83,2.83,0,0,0,.67,2,2.34,2.34,0,0,0,1.79.71,2.46,2.46,0,0,0,1.08-.19v-1.64h-1.68v-1.51h3.58Z"/><path class="cls-14" d="M406.13,128.23a1.61,1.61,0,0,0-.78-.18,1.14,1.14,0,0,0-.94.44,1.93,1.93,0,0,0-.34,1.21v2.86h-1.85v-6h1.85v1.12h0a1.6,1.6,0,0,1,1.59-1.22,1.12,1.12,0,0,1,.45.07Z"/><path class="cls-14" d="M412,132.56h-1.76v-.86h0a2,2,0,0,1-1.79,1,1.86,1.86,0,0,1-1.37-.5,1.79,1.79,0,0,1-.5-1.32q0-1.74,2.07-2l1.63-.22c0-.66-.36-1-1.07-1a3.68,3.68,0,0,0-2,.63v-1.39a4.67,4.67,0,0,1,1.06-.35,5.63,5.63,0,0,1,1.22-.15A2.27,2.27,0,0,1,412,129Zm-1.74-2.43v-.41l-1.09.14c-.61.08-.91.35-.91.82a.67.67,0,0,0,.22.51.84.84,0,0,0,.6.21,1.1,1.1,0,0,0,.85-.36A1.31,1.31,0,0,0,410.25,130.13Z"/><path class="cls-14" d="M415.33,131.87h0v3.45h-1.85v-8.76h1.85v.9h0a2.36,2.36,0,0,1,3.73-.24,3.4,3.4,0,0,1,.63,2.17,3.65,3.65,0,0,1-.74,2.41,2.4,2.4,0,0,1-2,.91A1.87,1.87,0,0,1,415.33,131.87Zm-.06-2.47v.48a1.53,1.53,0,0,0,.33,1,1.08,1.08,0,0,0,.86.39,1.15,1.15,0,0,0,1-.49,2.37,2.37,0,0,0,.34-1.38q0-1.59-1.23-1.59a1.19,1.19,0,0,0-.93.43A1.73,1.73,0,0,0,415.27,129.4Z"/><path class="cls-14" d="M426.65,132.56h-1.84v-3.41q0-1.32-1-1.32a1,1,0,0,0-.8.37,1.46,1.46,0,0,0-.31.94v3.42h-1.85v-8.88h1.85v3.77h0a2.1,2.1,0,0,1,1.84-1q2,0,2,2.46Z"/><path class="cls-14" d="M439,132.56h-2.06l-.6-1.87h-3l-.59,1.87h-2.05l3.06-8.4H436Zm-3.1-3.32-.9-2.82a4.51,4.51,0,0,1-.14-.76h-.05a3,3,0,0,1-.14.73l-.92,2.85Z"/><path class="cls-14" d="M441.94,129.67v2.89h-1.89v-8.4h3c2.12,0,3.18.89,3.18,2.68a2.61,2.61,0,0,1-.91,2,3.63,3.63,0,0,1-2.44.78Zm0-4.06v2.62h.74c1,0,1.52-.44,1.52-1.32s-.51-1.3-1.52-1.3Z"/><path class="cls-14" d="M449.31,132.56h-1.89v-8.4h1.89Z"/><path class="cls-12" d="M186.82,9.9h-1.09l-.9-2.35h-3.56l-.84,2.35h-1.09l3.22-8.4h1Zm-2.31-3.24-1.32-3.58a3.36,3.36,0,0,1-.12-.56h0a3.13,3.13,0,0,1-.13.56L181.6,6.66Z"/><path class="cls-12" d="M193,9.9h-1v-1h0A2.2,2.2,0,0,1,189.9,10a2.27,2.27,0,0,1-1.81-.8,3.32,3.32,0,0,1-.67-2.2,3.59,3.59,0,0,1,.75-2.38,2.46,2.46,0,0,1,2-.9,1.92,1.92,0,0,1,1.79,1h0V1h1Zm-1-2.71V6.31a1.74,1.74,0,0,0-.48-1.24,1.77,1.77,0,0,0-2.6.15A2.79,2.79,0,0,0,188.4,7a2.53,2.53,0,0,0,.48,1.63,1.6,1.6,0,0,0,1.3.6,1.65,1.65,0,0,0,1.31-.58A2.16,2.16,0,0,0,192,7.19Z"/><path class="cls-12" d="M199.92,12.66h-1V8.87h0A2.14,2.14,0,0,1,196.88,10a2.27,2.27,0,0,1-1.81-.8,3.27,3.27,0,0,1-.68-2.2,3.57,3.57,0,0,1,.75-2.38,2.48,2.48,0,0,1,2-.9,1.9,1.9,0,0,1,1.78,1h0V3.9h1ZM199,7.2V6.33a1.73,1.73,0,0,0-.49-1.25,1.61,1.61,0,0,0-1.22-.51,1.63,1.63,0,0,0-1.37.64A2.85,2.85,0,0,0,195.37,7a2.48,2.48,0,0,0,.49,1.63,1.54,1.54,0,0,0,1.25.58,1.72,1.72,0,0,0,1.35-.57A2.17,2.17,0,0,0,199,7.2Z"/><path class="cls-12" d="M206.62,9.9h-1V9h0A2,2,0,0,1,203.78,10c-1.43,0-2.14-.85-2.14-2.55V3.9h1V7.34c0,1.26.49,1.89,1.46,1.89a1.46,1.46,0,0,0,1.15-.51,2,2,0,0,0,.46-1.36V3.9h1Z"/><path class="cls-12" d="M209,2.38a.59.59,0,0,1-.44-.18.55.55,0,0,1-.19-.44.58.58,0,0,1,.19-.45.59.59,0,0,1,.44-.18.6.6,0,0,1,.44.18.58.58,0,0,1,.19.45.58.58,0,0,1-.19.44A.6.6,0,0,1,209,2.38Zm.46,7.52h-1v-6h1Z"/><path class="cls-12" d="M214.4,4.88a1.18,1.18,0,0,0-.73-.2,1.22,1.22,0,0,0-1,.58,2.67,2.67,0,0,0-.42,1.58V9.9h-1v-6h1V5.14h0a2.08,2.08,0,0,1,.62-1,1.49,1.49,0,0,1,1-.35,1.44,1.44,0,0,1,.57.08Z"/><path class="cls-12" d="M215.84,2.38a.6.6,0,0,1-.44-.18.57.57,0,0,1-.18-.44.61.61,0,0,1,.18-.45.6.6,0,0,1,.44-.18.62.62,0,0,1,.63.63.6.6,0,0,1-.18.44A.61.61,0,0,1,215.84,2.38Zm.47,7.52h-1v-6h1Z"/><path class="cls-12" d="M221.29,4.88a1.18,1.18,0,0,0-.73-.2,1.25,1.25,0,0,0-1,.58,2.74,2.74,0,0,0-.41,1.58V9.9h-1v-6h1V5.14h0a2.17,2.17,0,0,1,.63-1,1.46,1.46,0,0,1,.94-.35,1.49,1.49,0,0,1,.58.08Z"/><path class="cls-12" d="M228.21,9.84a1.82,1.82,0,0,1-.9.19c-1.05,0-1.57-.58-1.57-1.76V4.72h-1V3.9h1V2.44l1-.31V3.9h1.51v.82H226.7V8.1a1.49,1.49,0,0,0,.2.87.83.83,0,0,0,.68.25,1,1,0,0,0,.63-.2Z"/><path class="cls-12" d="M231.9,10a2.79,2.79,0,0,1-2.12-.84A3.1,3.1,0,0,1,229,7a3.26,3.26,0,0,1,.82-2.36A3,3,0,0,1,232,3.76a2.7,2.7,0,0,1,2.1.83,3.27,3.27,0,0,1,.75,2.29,3.23,3.23,0,0,1-.81,2.3A2.83,2.83,0,0,1,231.9,10ZM232,4.57a1.83,1.83,0,0,0-1.46.63A2.59,2.59,0,0,0,230,6.94a2.41,2.41,0,0,0,.55,1.68,1.84,1.84,0,0,0,1.45.61,1.77,1.77,0,0,0,1.44-.6,2.63,2.63,0,0,0,.5-1.72,2.68,2.68,0,0,0-.5-1.73A1.75,1.75,0,0,0,232,4.57Z"/><path class="cls-12" d="M241.31,9.9H240L237.32,7h0V9.9h-1V1h1V6.65h0l2.52-2.75h1.26l-2.79,2.9Z"/><path class="cls-12" d="M247,7.14h-4.23a2.19,2.19,0,0,0,.54,1.55,1.85,1.85,0,0,0,1.41.54,3,3,0,0,0,1.87-.66v.9a3.53,3.53,0,0,1-2.1.57,2.53,2.53,0,0,1-2-.81,3.34,3.34,0,0,1-.73-2.3,3.29,3.29,0,0,1,.79-2.29,2.58,2.58,0,0,1,2-.88,2.28,2.28,0,0,1,1.82.76A3.19,3.19,0,0,1,247,6.64Zm-1-.81a2,2,0,0,0-.4-1.3,1.4,1.4,0,0,0-1.1-.46,1.54,1.54,0,0,0-1.16.49,2.21,2.21,0,0,0-.58,1.27Z"/><path class="cls-12" d="M253.36,9.9h-1V6.48c0-1.27-.47-1.91-1.4-1.91a1.52,1.52,0,0,0-1.19.54,2,2,0,0,0-.47,1.37V9.9h-1v-6h1v1h0a2.17,2.17,0,0,1,2-1.14,1.83,1.83,0,0,1,1.51.64,2.79,2.79,0,0,1,.52,1.83Z"/><path class="cls-12" d="M204.29,30.79h-2.43V38.3h-1V30.79h-2.42V29.9h5.83Z"/><path class="cls-12" d="M206.74,38.44a2.79,2.79,0,0,1-2.12-.84,3.1,3.1,0,0,1-.79-2.23,3.24,3.24,0,0,1,.82-2.36,3,3,0,0,1,2.23-.85A2.7,2.7,0,0,1,209,33a3.77,3.77,0,0,1-.06,4.59A2.87,2.87,0,0,1,206.74,38.44Zm.07-5.47a1.83,1.83,0,0,0-1.46.63,2.59,2.59,0,0,0-.54,1.74,2.46,2.46,0,0,0,.54,1.68,1.86,1.86,0,0,0,1.46.61,1.79,1.79,0,0,0,1.44-.6,3.23,3.23,0,0,0,0-3.45A1.76,1.76,0,0,0,206.81,33Z"/><path class="cls-12" d="M216.18,38.3h-1.35l-2.65-2.88h0V38.3h-1V29.42h1v5.63h0l2.52-2.75H216l-2.78,2.89Z"/><path class="cls-12" d="M221.91,35.54h-4.24a2.3,2.3,0,0,0,.54,1.55,1.88,1.88,0,0,0,1.42.54,2.89,2.89,0,0,0,1.86-.67v.91a3.47,3.47,0,0,1-2.09.57,2.53,2.53,0,0,1-2-.82,3.35,3.35,0,0,1-.72-2.3,3.28,3.28,0,0,1,.79-2.28,2.54,2.54,0,0,1,2-.88,2.26,2.26,0,0,1,1.83.76,3.18,3.18,0,0,1,.64,2.12Zm-1-.81a2,2,0,0,0-.41-1.3,1.35,1.35,0,0,0-1.09-.46,1.57,1.57,0,0,0-1.16.48,2.24,2.24,0,0,0-.58,1.28Z"/><path class="cls-12" d="M228.27,38.3h-1V34.88c0-1.28-.46-1.91-1.39-1.91a1.54,1.54,0,0,0-1.2.54,2,2,0,0,0-.47,1.37V38.3h-1v-6h1v1h0a2.15,2.15,0,0,1,2-1.14,1.83,1.83,0,0,1,1.51.64,2.79,2.79,0,0,1,.52,1.83Z"/><path class="cls-12" d="M238.35,38.3h-1v-1h0a2.21,2.21,0,0,1-2.06,1.16,2.27,2.27,0,0,1-1.81-.8,3.32,3.32,0,0,1-.67-2.2,3.57,3.57,0,0,1,.75-2.38,2.46,2.46,0,0,1,2-.9,1.91,1.91,0,0,1,1.8,1h0V29.42h1Zm-1-2.71V34.7a1.73,1.73,0,0,0-.48-1.23,1.65,1.65,0,0,0-1.22-.5,1.67,1.67,0,0,0-1.39.64,2.87,2.87,0,0,0-.5,1.78,2.54,2.54,0,0,0,.48,1.64,1.73,1.73,0,0,0,2.6,0A2.11,2.11,0,0,0,237.39,35.59Z"/><path class="cls-12" d="M245,35.54h-4.23a2.25,2.25,0,0,0,.53,1.55,1.88,1.88,0,0,0,1.42.54,2.94,2.94,0,0,0,1.87-.67v.91a3.53,3.53,0,0,1-2.1.57,2.51,2.51,0,0,1-2-.82,3.31,3.31,0,0,1-.73-2.3A3.28,3.28,0,0,1,240.6,33a2.55,2.55,0,0,1,2-.88,2.25,2.25,0,0,1,1.82.76A3.18,3.18,0,0,1,245,35Zm-1-.81a2,2,0,0,0-.4-1.3,1.37,1.37,0,0,0-1.1-.46,1.57,1.57,0,0,0-1.16.48,2.24,2.24,0,0,0-.58,1.28Z"/><path class="cls-12" d="M253.93,38.3h-1v-.94h0a2,2,0,0,1-1.85,1.08,2,2,0,0,1-1.4-.47,1.65,1.65,0,0,1-.51-1.26c0-1.12.66-1.78,2-2l1.8-.25Q253,33,251.74,33a2.91,2.91,0,0,0-2,.74v-1a3.76,3.76,0,0,1,2-.56c1.41,0,2.11.75,2.11,2.24Zm-1-3-1.45.19a2.37,2.37,0,0,0-1,.34.93.93,0,0,0-.34.84.89.89,0,0,0,.31.71,1.2,1.2,0,0,0,.84.28,1.53,1.53,0,0,0,1.18-.5,1.79,1.79,0,0,0,.46-1.27Z"/><path class="cls-12" d="M259.76,38a3.1,3.1,0,0,1-1.64.42,2.75,2.75,0,0,1-2.07-.83,3,3,0,0,1-.79-2.17,3.3,3.3,0,0,1,.85-2.38,3,3,0,0,1,2.27-.9,3.2,3.2,0,0,1,1.39.29v1a2.38,2.38,0,0,0-1.43-.47,2,2,0,0,0-1.51.66,2.5,2.5,0,0,0-.58,1.73A2.36,2.36,0,0,0,256.8,37a1.89,1.89,0,0,0,1.49.61,2.38,2.38,0,0,0,1.47-.52Z"/><path class="cls-12" d="M265.23,38a3.1,3.1,0,0,1-1.64.42,2.75,2.75,0,0,1-2.07-.83,3.06,3.06,0,0,1-.79-2.17,3.35,3.35,0,0,1,.85-2.38,3,3,0,0,1,2.27-.9,3.2,3.2,0,0,1,1.39.29v1a2.38,2.38,0,0,0-1.43-.47,1.91,1.91,0,0,0-1.5.66,2.46,2.46,0,0,0-.59,1.73,2.36,2.36,0,0,0,.55,1.66,1.89,1.89,0,0,0,1.49.61,2.38,2.38,0,0,0,1.47-.52Z"/><path class="cls-12" d="M271.44,35.54H267.2a2.21,2.21,0,0,0,.54,1.55,1.85,1.85,0,0,0,1.42.54A2.93,2.93,0,0,0,271,37v.91a3.52,3.52,0,0,1-2.09.57,2.52,2.52,0,0,1-2-.82,3.36,3.36,0,0,1-.73-2.3A3.29,3.29,0,0,1,267,33a2.53,2.53,0,0,1,2-.88,2.25,2.25,0,0,1,1.82.76,3.18,3.18,0,0,1,.65,2.12Zm-1-.81a2,2,0,0,0-.4-1.3A1.36,1.36,0,0,0,269,33a1.55,1.55,0,0,0-1.15.48,2.25,2.25,0,0,0-.59,1.28Z"/><path class="cls-12" d="M272.45,38.08v-1a2.84,2.84,0,0,0,1.73.58c.85,0,1.27-.28,1.27-.84a.76.76,0,0,0-.11-.41,1,1,0,0,0-.29-.29,2.28,2.28,0,0,0-.44-.24l-.53-.21a6.76,6.76,0,0,1-.7-.32,2.55,2.55,0,0,1-.51-.36,1.52,1.52,0,0,1-.3-.46,1.63,1.63,0,0,1-.1-.61,1.38,1.38,0,0,1,.19-.74,1.78,1.78,0,0,1,.51-.55,2.77,2.77,0,0,1,.74-.33,3.59,3.59,0,0,1,2.25.16v1a2.71,2.71,0,0,0-1.53-.43,1.75,1.75,0,0,0-.48.06,1.15,1.15,0,0,0-.37.17.76.76,0,0,0-.24.27.67.67,0,0,0-.09.34.75.75,0,0,0,.09.39.81.81,0,0,0,.24.29,2.48,2.48,0,0,0,.4.22l.54.22a6.85,6.85,0,0,1,.71.31,2.82,2.82,0,0,1,.54.36,1.41,1.41,0,0,1,.34.47,1.46,1.46,0,0,1,.12.62,1.5,1.5,0,0,1-.19.78,1.61,1.61,0,0,1-.53.54,2.32,2.32,0,0,1-.75.33,3.82,3.82,0,0,1-.9.1A3.41,3.41,0,0,1,272.45,38.08Z"/><path class="cls-12" d="M280.34,38.44a2.79,2.79,0,0,1-2.12-.84,3.1,3.1,0,0,1-.79-2.23,3.24,3.24,0,0,1,.82-2.36,3,3,0,0,1,2.24-.85,2.69,2.69,0,0,1,2.09.83,3.77,3.77,0,0,1-.06,4.59A2.87,2.87,0,0,1,280.34,38.44Zm.08-5.47a1.84,1.84,0,0,0-1.47.63,2.59,2.59,0,0,0-.54,1.74A2.41,2.41,0,0,0,279,37a1.85,1.85,0,0,0,1.46.61,1.77,1.77,0,0,0,1.43-.6,3.23,3.23,0,0,0,0-3.45A1.74,1.74,0,0,0,280.42,33Z"/><path class="cls-12" d="M186.34,134.69h-1.18l-1.4-2.36a4.9,4.9,0,0,0-.38-.56,2.23,2.23,0,0,0-.37-.38,1.14,1.14,0,0,0-.41-.21,1.53,1.53,0,0,0-.49-.07h-.81v3.58h-1v-8.41h2.51a3.64,3.64,0,0,1,1,.14,2.23,2.23,0,0,1,.81.42,2.06,2.06,0,0,1,.53.7,2.32,2.32,0,0,1,.2,1,2.38,2.38,0,0,1-.14.81,2,2,0,0,1-.37.65,2.37,2.37,0,0,1-.59.49,3,3,0,0,1-.77.31v0a1.88,1.88,0,0,1,.37.21,2.54,2.54,0,0,1,.29.28,2.88,2.88,0,0,1,.28.38l.31.48Zm-5-7.52v3h1.33a2.17,2.17,0,0,0,.69-.11,1.55,1.55,0,0,0,.54-.32,1.41,1.41,0,0,0,.35-.51,1.65,1.65,0,0,0,.13-.68,1.31,1.31,0,0,0-.43-1,1.89,1.89,0,0,0-1.27-.38Z"/><path class="cls-12" d="M191.8,131.93h-4.24a2.23,2.23,0,0,0,.54,1.54,1.84,1.84,0,0,0,1.42.55,3,3,0,0,0,1.86-.67v.9a3.5,3.5,0,0,1-2.09.58,2.55,2.55,0,0,1-2-.82,3.37,3.37,0,0,1-.73-2.3,3.27,3.27,0,0,1,.8-2.28,2.54,2.54,0,0,1,2-.89,2.26,2.26,0,0,1,1.82.77,3.15,3.15,0,0,1,.65,2.11Zm-1-.82a2,2,0,0,0-.4-1.29,1.36,1.36,0,0,0-1.1-.47,1.56,1.56,0,0,0-1.15.49,2.22,2.22,0,0,0-.59,1.27Z"/><path class="cls-12" d="M192.85,134.47v-1a2.88,2.88,0,0,0,1.73.58c.84,0,1.26-.28,1.26-.85a.72.72,0,0,0-.1-.4,1.22,1.22,0,0,0-.3-.3,2.18,2.18,0,0,0-.43-.23l-.54-.21-.7-.32a2,2,0,0,1-.5-.37,1.29,1.29,0,0,1-.31-.46,1.79,1.79,0,0,1-.1-.6,1.55,1.55,0,0,1,.19-.75,1.78,1.78,0,0,1,.52-.54,2.26,2.26,0,0,1,.74-.33,3,3,0,0,1,.85-.12,3.41,3.41,0,0,1,1.39.27v1a2.71,2.71,0,0,0-1.52-.44,1.53,1.53,0,0,0-.49.07,1.05,1.05,0,0,0-.37.17.85.85,0,0,0-.24.26.69.69,0,0,0-.08.35.8.8,0,0,0,.08.39.83.83,0,0,0,.25.28,1.67,1.67,0,0,0,.4.22l.53.22c.27.1.51.21.72.31a2.44,2.44,0,0,1,.54.37,1.36,1.36,0,0,1,.46,1.09,1.47,1.47,0,0,1-.2.77,1.7,1.7,0,0,1-.52.55,2.49,2.49,0,0,1-.76.32,3.68,3.68,0,0,1-.89.11A3.39,3.39,0,0,1,192.85,134.47Z"/><path class="cls-12" d="M199.25,133.82h0v3.63h-1v-8.76h1v1.05h0a2.29,2.29,0,0,1,2.08-1.2,2.2,2.2,0,0,1,1.81.81,3.37,3.37,0,0,1,.65,2.16,3.76,3.76,0,0,1-.73,2.41,2.46,2.46,0,0,1-2,.91A2,2,0,0,1,199.25,133.82Zm0-2.42v.84a1.8,1.8,0,0,0,.48,1.26,1.73,1.73,0,0,0,2.6-.15,3.07,3.07,0,0,0,.49-1.86,2.41,2.41,0,0,0-.46-1.57,1.53,1.53,0,0,0-1.25-.57,1.71,1.71,0,0,0-1.35.59A2.13,2.13,0,0,0,199.23,131.4Z"/><path class="cls-12" d="M210.14,134.69h-1v-.95h0a2,2,0,0,1-1.86,1.09c-1.43,0-2.14-.86-2.14-2.56v-3.58h1v3.43c0,1.26.49,1.9,1.46,1.9a1.47,1.47,0,0,0,1.15-.52,2,2,0,0,0,.46-1.36v-3.45h1Z"/><path class="cls-12" d="M216.87,131.93h-4.24a2.18,2.18,0,0,0,.54,1.54,1.82,1.82,0,0,0,1.42.55,3,3,0,0,0,1.86-.67v.9a3.52,3.52,0,0,1-2.09.58,2.55,2.55,0,0,1-2-.82,3.37,3.37,0,0,1-.73-2.3,3.27,3.27,0,0,1,.8-2.28,2.54,2.54,0,0,1,2-.89,2.26,2.26,0,0,1,1.82.77,3.15,3.15,0,0,1,.65,2.11Zm-1-.82a2,2,0,0,0-.4-1.29,1.36,1.36,0,0,0-1.1-.47,1.56,1.56,0,0,0-1.15.49,2.16,2.16,0,0,0-.59,1.27Z"/><path class="cls-12" d="M225.23,134.63a2,2,0,0,1-.9.18c-1.05,0-1.58-.58-1.58-1.75v-3.55H220.1a3.68,3.68,0,0,0-.49,0,1.61,1.61,0,0,0-.37.12.73.73,0,0,0-.24.22.55.55,0,0,0-.08.32.8.8,0,0,0,.08.39.83.83,0,0,0,.25.28,1.67,1.67,0,0,0,.4.22l.53.22c.27.1.5.21.72.31a2.16,2.16,0,0,1,.53.37,1.35,1.35,0,0,1,.35.47,1.62,1.62,0,0,1-.08,1.39,1.7,1.7,0,0,1-.52.55,2.49,2.49,0,0,1-.76.32,3.82,3.82,0,0,1-.9.11,3.34,3.34,0,0,1-1.6-.36v-1a2.86,2.86,0,0,0,1.73.58c.84,0,1.26-.28,1.26-.85a.64.64,0,0,0-.11-.39,1,1,0,0,0-.29-.29,2.19,2.19,0,0,0-.43-.24c-.17-.08-.35-.15-.54-.22l-.7-.32a2,2,0,0,1-.5-.37,1.29,1.29,0,0,1-.31-.46,1.57,1.57,0,0,1-.1-.6,1.37,1.37,0,0,1,.18-.72,1.41,1.41,0,0,1,.47-.5,2,2,0,0,1,.66-.28,3.06,3.06,0,0,1,.74-.09h2.77v-1.47l1-.31v1.78h1.52v.82h-1.52v3.38a1.37,1.37,0,0,0,.21.86.83.83,0,0,0,.68.26,1.05,1.05,0,0,0,.63-.2Z"/><path class="cls-12" d="M230.77,134.69h-1v-.94h0a2,2,0,0,1-1.84,1.08,2,2,0,0,1-1.41-.48,1.65,1.65,0,0,1-.5-1.26c0-1.12.66-1.77,2-2l1.8-.25c0-1-.42-1.53-1.24-1.53a3,3,0,0,0-2,.74v-1a3.68,3.68,0,0,1,2-.57c1.41,0,2.12.75,2.12,2.24Zm-1-3-1.45.2a2.3,2.3,0,0,0-1,.33,1,1,0,0,0-.34.84.93.93,0,0,0,.32.72,1.21,1.21,0,0,0,.83.28,1.55,1.55,0,0,0,1.18-.5,1.81,1.81,0,0,0,.47-1.27Z"/><path class="cls-12" d="M242.24,134.69h-1v-3.84h-4.34v3.84h-1v-8.41h1V130h4.34v-3.69h1Z"/><path class="cls-12" d="M249.37,127.17H247v7.52h-1v-7.52h-2.42v-.89h5.83Z"/><path class="cls-12" d="M255.86,127.17h-2.43v7.52h-1v-7.52H250v-.89h5.83Z"/><path class="cls-12" d="M258.13,131.51v3.18h-1v-8.41h2.31a3,3,0,0,1,2.09.66,2.35,2.35,0,0,1,.74,1.85,2.54,2.54,0,0,1-.82,2,3.14,3.14,0,0,1-2.23.76Zm0-4.34v3.45h1a2.28,2.28,0,0,0,1.55-.47,1.64,1.64,0,0,0,.54-1.31c0-1.11-.66-1.67-2-1.67Z"/></g></svg>